<svg width="36" height="36" xmlns="http://www.w3.org/2000/svg">
  <defs>
    <filter id="c" x="-.08" y="-.125" width="1.176" height="1.417">
      <feFlood flood-color="#AAA" flood-opacity=".8" result="flood"/>
      <feComposite in="flood" in2="SourceGraphic" operator="in" result="composite1"/>
      <feGaussianBlur in="composite1" result="blur"/>
      <feOffset dy="2" result="offset"/>
      <feComposite in="SourceGraphic" in2="offset" result="composite2"/>
    </filter>
    <filter id="a" x="-.017" y="-.017" width="1.033" height="1.133">
      <feFlood flood-color="#31955E" result="flood"/>
      <feComposite in="flood" in2="SourceGraphic" operator="in" result="composite1"/>
      <feGaussianBlur in="composite1" result="blur"/>
      <feOffset dy="3" result="offset"/>
      <feComposite in="SourceGraphic" in2="offset" result="composite2"/>
    </filter>
    <linearGradient id="b" x1="-1.235" x2="-1.235" y1="-1.822" y2="16.398" gradientTransform="matrix(1.2147 0 0 .82328 7 8.875)" gradientUnits="userSpaceOnUse">
      <stop stop-color="#fff" offset="0"/>
      <stop stop-color="#E2FF29" offset="1"/>
    </linearGradient>
  </defs>
  <circle cx="16" cy="16.875" r="15" fill="#8aff4c" filter="url(#a)" stroke="#31955e" stroke-width="#999999"/>
  <path d="m25.816 9.995-.88 2.32a5.807 5.807 0 0 0-1.118-.586 4.211 4.211 0 0 0-1.522-.294 4.359 4.359 0 0 0-.986.105q-.74.172-1.262.625a2.72 2.72 0 0 0-.168.158 2.868 2.868 0 0 0-.687 1.204q-.177.594-.177 1.348a4.564 4.564 0 0 0 .114 1.052 3.049 3.049 0 0 0 .79 1.468q.904.92 2.376.92a4.254 4.254 0 0 0 1.636-.34 5.912 5.912 0 0 0 1.004-.54l.88 2.32q-1.584 1.12-3.84 1.12a8.083 8.083 0 0 1-1.964-.226 5.684 5.684 0 0 1-2.572-1.382 5.311 5.311 0 0 1-1.58-2.976 7.729 7.729 0 0 1-.124-1.416 7.778 7.778 0 0 1 .203-1.83 5.216 5.216 0 0 1 1.437-2.578q1.534-1.49 4.223-1.585a10.543 10.543 0 0 1 .377-.007 7.566 7.566 0 0 1 1.891.226 5.885 5.885 0 0 1 1.949.894zM10.2 13.835h4v2.4h-4v4.48H7V9.035h7.52v2.56H10.2z" fill="url(#b)" fill-rule="evenodd" filter="url(#c)" stroke="#31955e" stroke-linecap="round" stroke-width="3" style="paint-order:stroke"/>
</svg>
