<svg xmlns="http://www.w3.org/2000/svg" viewBox="0 0 32 36" width="32" height="32">
  <defs>
    <linearGradient id="textGradient" x1="0" y1="0" x2="0" y2="1">
      <stop offset="0" stop-color="white" />
      <stop offset="100%" stop-color="#E2FF29" />
    </linearGradient>
    <filter id="textShadow" height="150%">
      <feDropShadow dx="0" dy="2" flood-color="#AAAAAA" flood-opacity="0.8" stdDeviation="0" />
    </filter>
    <filter id="circleShadow" height="150%">
      <feDropShadow dx="0" dy="3" flood-color="#31955E" flood-opacity="1" stdDeviation="0" />
    </filter>
  </defs>
  <circle cx="16" cy="18" r="15" fill="#8AFF4C" stroke="#31955E" stroke-width="#999999" filter="url(#circleShadow)" />
  <g transform="translate(5, 10), scale(0.95)" stroke-linecap="round" fill-rule="evenodd" stroke="#31955E" stroke-width="3" fill="url(#textGradient)" paint-order="stroke" filter="url(#textShadow)">
    <path d="M 18.816 1.12 L 17.936 3.44 A 5.807 5.807 0 0 0 16.818 2.854 A 4.211 4.211 0 0 0 15.296 2.56 A 4.359 4.359 0 0 0 14.31 2.665 Q 13.57 2.837 13.048 3.29 A 2.72 2.72 0 0 0 12.88 3.448 A 2.868 2.868 0 0 0 12.193 4.652 Q 12.016 5.246 12.016 6 A 4.564 4.564 0 0 0 12.13 7.052 A 3.049 3.049 0 0 0 12.92 8.52 Q 13.824 9.44 15.296 9.44 A 4.254 4.254 0 0 0 16.932 9.101 A 5.912 5.912 0 0 0 17.936 8.56 L 18.816 10.88 Q 17.232 12 14.976 12 A 8.083 8.083 0 0 1 13.012 11.774 A 5.684 5.684 0 0 1 10.44 10.392 A 5.311 5.311 0 0 1 8.86 7.416 A 7.729 7.729 0 0 1 8.736 6 A 7.778 7.778 0 0 1 8.939 4.171 A 5.216 5.216 0 0 1 10.376 1.592 Q 11.91 0.103 14.599 0.007 A 10.543 10.543 0 0 1 14.976 0 A 7.566 7.566 0 0 1 16.867 0.226 A 5.885 5.885 0 0 1 18.816 1.12 Z M 3.2 4.96 L 7.2 4.96 L 7.2 7.36 L 3.2 7.36 L 3.2 11.84 L 0 11.84 L 0 0.16 L 7.52 0.16 L 7.52 2.72 L 3.2 2.72 L 3.2 4.96 Z" />
  </g>
  <g transform="translate(24, 8)" stroke-linecap="round" fill-rule="evenodd" stroke="#31955E" stroke-width="3" fill="url(#textGradient)" paint-order="stroke" filter="url(#textShadow)">
    <path d="M 4.56 2.58 L 7.2 2.58 L 7.2 4.38 L 4.56 4.38 L 4.56 6.96 L 2.64 6.96 L 2.64 4.38 L 0 4.38 L 0 2.58 L 2.64 2.58 L 2.64 0 L 4.56 0 L 4.56 2.58 Z" />
  </g>
</svg>