<svg xmlns="http://www.w3.org/2000/svg" viewBox="0 0 32 36" width="32" height="32">
    <defs>
        <filter id="c" height="150%">
            <feDropShadow dx="0" dy="2" flood-color="#AAA" flood-opacity=".8" stdDeviation="0"/>
        </filter>
        <filter id="a" height="150%">
            <feDropShadow dx="0" dy="3" flood-color="#F88A1F" flood-opacity="1" stdDeviation="0"/>
        </filter>
        <linearGradient id="b" x1="0" y1="0" x2="0" y2="1">
            <stop offset="0" stop-color="#EDFFEF"/>
            <stop offset="100%" stop-color="#FF9E2E"/>
        </linearGradient>
    </defs>
    <circle cx="16" cy="18" r="15" fill="#FFD95B" stroke="#F88A1F" stroke-width="#999999" filter="url(#a)"/>
    <g transform="translate(4 12)" stroke-linecap="round" fill-rule="evenodd" stroke="#F7391E" stroke-width="3" fill="url(#b)" paint-order="stroke" filter="url(#c)">
        <path d="M 14.868 0.672 L 14.434 2.52 Q 13.104 1.862 11.634 1.862 Q 10.906 1.862 10.528 2.142 Q 10.15 2.422 10.15 2.898 A 0.92 0.92 0 0 0 10.538 3.651 Q 10.825 3.875 11.326 4.018 A 13.694 13.694 0 0 1 12.395 4.356 Q 13.649 4.815 14.259 5.39 A 2.659 2.659 0 0 1 15.101 7.249 A 3.59 3.59 0 0 1 15.106 7.448 Q 15.106 8.932 14.098 9.716 Q 13.361 10.289 12.108 10.443 A 8.142 8.142 0 0 1 11.116 10.5 A 6.292 6.292 0 0 1 9.87 10.371 A 7.556 7.556 0 0 1 9.282 10.227 A 6.928 6.928 0 0 1 8.508 9.958 Q 8.048 9.764 7.686 9.52 L 8.246 7.658 A 5.781 5.781 0 0 0 9.69 8.389 A 4.794 4.794 0 0 0 11.214 8.638 Q 11.67 8.638 11.986 8.52 A 1.158 1.158 0 0 0 12.313 8.337 A 0.981 0.981 0 0 0 12.672 7.679 A 1.43 1.43 0 0 0 12.684 7.49 A 1.085 1.085 0 0 0 12.63 7.142 A 0.908 0.908 0 0 0 12.383 6.762 A 1.342 1.342 0 0 0 12.157 6.597 Q 11.92 6.455 11.549 6.329 A 5.99 5.99 0 0 0 11.326 6.258 A 12.051 12.051 0 0 1 10.332 5.924 Q 9.172 5.472 8.568 4.893 A 2.643 2.643 0 0 1 7.729 2.972 A 3.321 3.321 0 0 1 7.728 2.898 A 2.842 2.842 0 0 1 7.903 1.882 A 2.516 2.516 0 0 1 8.729 0.784 A 3.362 3.362 0 0 1 9.834 0.225 Q 10.294 0.084 10.844 0.032 A 7.276 7.276 0 0 1 11.536 0 Q 13.454 0 14.868 0.672 Z M 0 10.36 L 0 0.14 L 6.398 0.14 L 6.398 2.058 L 2.38 2.058 L 2.38 4.382 L 6.118 4.382 L 6.118 6.174 L 2.38 6.174 L 2.38 10.36 L 0 10.36 Z M 16.884 10.29 L 16.884 0.21 A 18.793 18.793 0 0 1 18.963 0.017 A 21.979 21.979 0 0 1 19.824 0 A 7.883 7.883 0 0 1 21.424 0.153 Q 22.395 0.354 23.138 0.821 A 4.339 4.339 0 0 1 23.821 1.351 Q 25.242 2.702 25.242 5.11 A 7.486 7.486 0 0 1 25.082 6.709 Q 24.765 8.159 23.821 9.093 Q 22.4 10.5 19.824 10.5 Q 18.27 10.5 16.884 10.29 Z M 19.222 1.946 L 19.222 8.554 Q 19.6 8.638 20.006 8.638 A 3.547 3.547 0 0 0 21.27 8.431 Q 22.974 7.784 22.974 5.11 A 5.152 5.152 0 0 0 22.837 3.864 Q 22.431 2.239 20.819 1.933 A 4.361 4.361 0 0 0 20.006 1.862 Q 19.6 1.862 19.222 1.946 Z" />
    </g>
</svg>
