<svg width="32" height="32" viewBox="0 0 32 36" xmlns="http://www.w3.org/2000/svg">
  <defs>
    <filter id="c" x="-.059" y="-.143" width="1.119" height="1.476">
      <feFlood flood-color="#AAA" flood-opacity=".8" result="flood"/>
      <feComposite in="flood" in2="SourceGraphic" operator="in" result="composite1"/>
      <feGaussianBlur in="composite1" result="blur"/>
      <feOffset dy="2" result="offset"/>
      <feComposite in="SourceGraphic" in2="offset" result="composite2"/>
    </filter>
    <filter id="a" x="-.017" y="-.017" width="1.033" height="1.133">
      <feFlood flood-color="#F88A1F" result="flood"/>
      <feComposite in="flood" in2="SourceGraphic" operator="in" result="composite1"/>
      <feGaussianBlur in="composite1" result="blur"/>
      <feOffset dy="3" result="offset"/>
      <feComposite in="SourceGraphic" in2="offset" result="composite2"/>
    </filter>
    <linearGradient id="b" x1="-1.037" x2="-1.037" y1="-2.17" y2="17.356" gradientTransform="matrix(1.4464 0 0 .69139 4 10.875)" gradientUnits="userSpaceOnUse">
      <stop stop-color="#EDFFEF" offset="0"/>
      <stop stop-color="#FF9E2E" offset="1"/>
    </linearGradient>
  </defs>
  <circle cx="16" cy="16.875" r="15" fill="#ffd95b" filter="url(#a)" stroke="#f88a1f" stroke-width="#999999"/>
  <path d="m18.868 11.547-.434 1.848q-1.33-.658-2.8-.658-.728 0-1.106.28t-.378.756a.92.92 0 0 0 .388.753q.287.224.788.367a13.694 13.694 0 0 1 1.069.338q1.254.459 1.864 1.034a2.659 2.659 0 0 1 .842 1.859 3.59 3.59 0 0 1 .005.199q0 1.484-1.008 2.268-.737.573-1.99.727a8.142 8.142 0 0 1-.992.057 6.292 6.292 0 0 1-1.246-.129 7.556 7.556 0 0 1-.588-.144 6.928 6.928 0 0 1-.774-.269q-.46-.194-.822-.438l.56-1.862a5.781 5.781 0 0 0 1.444.731 4.794 4.794 0 0 0 1.524.249q.456 0 .772-.118a1.158 1.158 0 0 0 .327-.183.981.981 0 0 0 .359-.658 1.43 1.43 0 0 0 .012-.189 1.085 1.085 0 0 0-.054-.348.908.908 0 0 0-.247-.38 1.342 1.342 0 0 0-.226-.165q-.237-.142-.608-.268a5.99 5.99 0 0 0-.223-.071 12.051 12.051 0 0 1-.994-.334q-1.16-.452-1.764-1.031a2.643 2.643 0 0 1-.839-1.921 3.321 3.321 0 0 1-.001-.074 2.842 2.842 0 0 1 .175-1.016 2.516 2.516 0 0 1 .826-1.098 3.362 3.362 0 0 1 1.105-.559q.46-.141 1.01-.193a7.276 7.276 0 0 1 .692-.032q1.918 0 3.332.672zM4 21.235v-10.22h6.398v1.918H6.38v2.324h3.738v1.792H6.38v4.186zm16.884-.07v-10.08a18.793 18.793 0 0 1 2.079-.193 21.979 21.979 0 0 1 .861-.017 7.883 7.883 0 0 1 1.6.153q.971.201 1.714.668a4.339 4.339 0 0 1 .683.53q1.421 1.351 1.421 3.759a7.486 7.486 0 0 1-.16 1.599q-.317 1.45-1.261 2.384-1.421 1.407-3.997 1.407-1.554 0-2.94-.21zm2.338-8.344v6.608q.378.084.784.084a3.547 3.547 0 0 0 1.264-.207q1.704-.647 1.704-3.321a5.152 5.152 0 0 0-.137-1.246q-.406-1.625-2.018-1.931a4.361 4.361 0 0 0-.813-.071q-.406 0-.784.084z" fill="url(#b)" fill-rule="evenodd" filter="url(#c)" stroke="#f7391e" stroke-linecap="round" stroke-width="3" style="paint-order:stroke"/>
</svg>
