<svg xmlns="http://www.w3.org/2000/svg" viewBox="0 0 32 36" width="32" height="32">
    <defs>
        <filter id="c" height="150%">
            <feDropShadow dx="0" dy="2" flood-color="#AAA" flood-opacity=".8" stdDeviation="0"/>
        </filter>
        <filter id="a" height="150%">
            <feDropShadow dx="0" dy="3" flood-color="#F88A1F" flood-opacity="1" stdDeviation="0"/>
        </filter>
        <linearGradient id="b" x1="0" y1="0" x2="0" y2="1">
            <stop offset="0" stop-color="#EDFFEF"/>
            <stop offset="100%" stop-color="#FF9E2E"/>
        </linearGradient>
    </defs>
    <circle cx="16" cy="18" r="15" fill="#FFD95B" stroke="#F88A1F" stroke-width="#999999" filter="url(#a)"/>
    <g transform="matrix(.9 0 0 .9 2 13)" stroke-linecap="round" fill-rule="evenodd" stroke="#F7391E" stroke-width="3" fill="url(#b)" paint-order="stroke" filter="url(#c)">
        <path d="M23.03 10.36l-1.386-3.64h-.028l-1.386 3.64h-3.052l2.59-5.18-2.52-5.04h3.038l1.386 3.5h.028l1.386-3.5h2.982l-2.52 5.04 2.59 5.18H23.03zM2.8 4.34h3.5v2.1H2.8v3.92H0V.14h6.58v2.24H2.8v1.96zm5.614 5.95V.21a20.03 20.03 0 011.879-.18A23.894 23.894 0 0111.494 0q2.071 0 3.409.882a4.437 4.437 0 01.609.483q1.442 1.365 1.442 3.745a7.299 7.299 0 01-.168 1.617q-.325 1.429-1.274 2.359-1.372 1.345-3.769 1.411a9.089 9.089 0 01-.249.003 22.728 22.728 0 01-2.065-.09 19.077 19.077 0 01-1.015-.12zm2.73-8.05v6.02a3.003 3.003 0 00.543.069 2.737 2.737 0 00.087.001 2.772 2.772 0 001.13-.213q1.39-.615 1.39-3.007a4.995 4.995 0 00-.111-1.105q-.418-1.835-2.409-1.835a2.922 2.922 0 00-.55.054 3.266 3.266 0 00-.08.016z"/>
    </g>
    <g transform="matrix(.9 0 0 .9 24 8)" stroke-linecap="round" fill-rule="evenodd" stroke="#F7391E" stroke-width="3" fill="url(#b)" paint-order="stroke" filter="url(#c)">
        <path d="M4.56 2.58H7.2v1.8H4.56v2.58H2.64V4.38H0v-1.8h2.64V0h1.92v2.58z"/>
    </g>
</svg>
