<svg width="32" height="32" xmlns="http://www.w3.org/2000/svg" xmlns:xlink="http://www.w3.org/1999/xlink">
  <defs>
    <linearGradient id="a" x2="0" y2="1">
      <stop stop-color="#fff" offset="0"/>
      <stop stop-color="#C5FFE3" offset="1"/>
    </linearGradient>
    <linearGradient id="b" x1="-1.272" x2="-1.272" y1="-1.769" y2="15.919" gradientTransform="scale(1.1792 .84807)" gradientUnits="userSpaceOnUse" xlink:href="#a"/>
    <linearGradient id="c" x1="-1.482" x2="-1.482" y1="-1.518" y2="8.561" gradientTransform="scale(1.012 .98817)" gradientUnits="userSpaceOnUse" xlink:href="#a"/>
  </defs>
  <circle cx="16" cy="16" r="15" fill="#65ddff" stroke="#5579ff" stroke-width="#999999"/>
  <path d="m17.616.8-.56 2.48q-1.616-.8-3.28-.8a3.431 3.431 0 0 0-.414.023q-.452.055-.722.241a.97.97 0 0 0-.226.212.779.779 0 0 0-.158.484.774.774 0 0 0 .32.627q.136.109.331.196a2.754 2.754 0 0 0 .389.137 16.858 16.858 0 0 1 1.279.393q1.517.539 2.257 1.215a3.07 3.07 0 0 1 1.021 2.234 4.023 4.023 0 0 1 .003.158 4.055 4.055 0 0 1-.144 1.111 2.917 2.917 0 0 1-1.072 1.569q-1.216.92-3.664.92-1.024 0-2.2-.344-.9-.263-1.524-.625a4.119 4.119 0 0 1-.356-.231l.72-2.48q.816.56 1.768.88a6.708 6.708 0 0 0 .832.224q.445.089.851.096a4.05 4.05 0 0 0 .069 0 2.937 2.937 0 0 0 .517-.041q.901-.162.922-.96a1.46 1.46 0 0 0 .001-.039.716.716 0 0 0-.236-.521q-.244-.24-.74-.421a4.646 4.646 0 0 0-.304-.098 15.02 15.02 0 0 1-1.208-.399q-1.407-.538-2.12-1.217a3.133 3.133 0 0 1-.991-2.283 4.106 4.106 0 0 1-.001-.101 3.334 3.334 0 0 1 .213-1.215 2.981 2.981 0 0 1 .995-1.297q.943-.724 2.504-.883A9.166 9.166 0 0 1 13.616 0a11.648 11.648 0 0 1 1.786.13q1.239.192 2.214.67zM3.2 4.96h4v2.4h-4v4.48H0V.16h7.52v2.56H3.2z" transform="translate(4 8.91)" fill="url(#b)" fill-rule="evenodd" stroke="#698af6" stroke-linecap="round" stroke-width="3" paint-order="stroke"/>
  <path d="M27.714 5.57h2.64v1.8h-2.64v2.58h-1.92V7.37h-2.64v-1.8h2.64V2.99h1.92z" fill="url(#c)" fill-rule="evenodd" stroke="#698af6" stroke-linecap="round" stroke-width="3" paint-order="stroke"/>
</svg>
