<svg xmlns="http://www.w3.org/2000/svg" width="175" height="70" xml:space="preserve">
  <path fill="#FFA8A8" d="M13.667 64.5h121.5c8 0 25.333-13.333 25.333-25.666v-24c0-4.666 6.667-9.167 6.667-9.167h-123.5c-9.667 0-25.5 13.667-25.5 28V52.5c0 10.334-4.5 12-4.5 12z"/>
  <path fill="#FFCBD0" d="M13.666 64.5h121.5c8 0 25.334-13.333 25.334-25.666 0-3.159-59 5.833-63.833-5.667-5.473-13.022-60.807-16.5-71.001-16.5-4.601 4.411-6.687 11.28-7.5 17V52.5c0 10.334-4.5 12-4.5 12z"/>
  <path fill="#FFF" d="M12.627 64.5h121.5c8 0 26.333-13.333 26.333-25.666v-22c0-2.292-55.839 11.083-71.294 16.167-18.75 6.167-63.333 6.167-72.04 1.667v17.833c.001 10.333-4.499 11.999-4.499 11.999z"/>
  <g>
    <path fill="none" stroke="#FF4040" stroke-width="2" stroke-miterlimit="10" d="M13.667 64.5h121.5c8 0 25.333-13.333 25.333-25.666v-24c0-4.666 6.667-9.167 6.667-9.167h-123.5c-9.667 0-25.5 13.667-25.5 28V52.5c0 10.334-4.5 12-4.5 12z"/>
  </g>
  <g>
    <g fill="#FFF">
      <path d="M49.385 52.606a2 2 0 0 1-1.684-.921 8.909 8.909 0 0 0-1.024-1.299v.186a2 2 0 0 1-2 2h-4.346a2 2 0 0 1-2-2V43.41c-.115.09-.23.178-.346.265a2 2 0 0 1-3.071-.884c-.359-.938-.925-1.928-1.683-2.94a10.176 10.176 0 0 1-.308-.373 2.001 2.001 0 0 1 .456-2.885c2.594-1.758 4.979-4.182 7.094-7.207H35.55a2 2 0 0 1-2-2v-3.794a2 2 0 0 1 2-2h2.78v-4.267a2 2 0 0 1 2-2h4.346a2 2 0 0 1 2 2v4.118a2.004 2.004 0 0 1 .454-.021V20.04a2 2 0 0 1 2-2h19.774a2 2 0 0 1 2 2l-.036 2.158c-.221 12.642-.599 20.265-1.155 23.304-.297 1.742-.723 2.952-1.334 3.783-1.053 1.473-2.386 2.421-3.949 2.801a5.116 5.116 0 0 1-.719.154c-.775.138-2.068.208-3.999.208-.513 0-1.07-.006-1.671-.016a2 2 0 0 1-1.961-1.877 7.39 7.39 0 0 0-.835-3.042 21.218 21.218 0 0 1-4.68 4.707 1.988 1.988 0 0 1-1.18.386zm-2.708-8.31c.241-.221.474-.45.698-.688a2.01 2.01 0 0 1-.698-.313v1.001zm10.628-.215c1.102.067 2.377.102 3.799.104.204-.568.72-2.729.987-10.359.078-2.124.15-4.745.213-7.817h-1.429c-.266 6.075-.939 10.757-2.049 14.27a27.495 27.495 0 0 1-1.521 3.802zm-6.103-7.727c.087-.327.168-.661.244-1.002l-.628.64c.125.117.254.238.384.362zm.925-5.747c.12-1.363.211-2.898.271-4.598h-1.196a38.888 38.888 0 0 1-1.26 2.824l2.185 1.774z"/>
      <path d="M87.954 52.224c-3.249 0-5.416-.77-6.624-2.354-.936-1.233-1.388-3.029-1.388-5.495v-4.32c-.709 2.36-1.583 4.267-2.631 5.752a2 2 0 0 1-2.596.601l-4.128-2.263a2 2 0 0 1-.675-2.904c1.747-2.487 2.895-6.35 3.414-11.48a2.002 2.002 0 0 1 2.383-1.76l4.233.848v-1.394a2 2 0 0 1 2-2h4.6a2 2 0 0 1 2 2v16.87h5.002c.1-.439.302-1.681.452-4.782a2 2 0 0 1 3.191-1.507c.567.422 1.271.789 2.104 1.099-.645-1.442-1.458-2.973-2.435-4.583a33.711 33.711 0 0 0-1.887-2.836 2.006 2.006 0 0 1 .084-2.496 1.914 1.914 0 0 1-.617.098c-.453 0-.895-.154-1.252-.44-2.334-1.874-5.565-3.701-9.604-5.431-.751-.306-1.5-.603-2.212-.877a1.998 1.998 0 0 1-.802-3.165l2.825-3.307a2 2 0 0 1 2.168-.593 55.73 55.73 0 0 1 11.534 5.524c.52.327.99.64 1.409.941a2.001 2.001 0 0 1 .411 2.851l-2.924 3.758 3.72-1.836a1.999 1.999 0 0 1 2.442.538 39.165 39.165 0 0 1 6.295 11.079c.332.882.608 1.729.815 2.505a2 2 0 0 1-1.076 2.325l-4.491 2.124a1.993 1.993 0 0 1-1.997-.167c-.401 2.218-1.017 3.784-1.882 4.825-1.276 1.5-3.227 2.252-5.812 2.252h-6.049z"/>
      <path d="M117.037 52.537a2 2 0 0 1-2-2v-8.631l-.063.025a63.39 63.39 0 0 1-2.932 1.096 2 2 0 0 1-2.344-.821 12.662 12.662 0 0 0-.474-.696 30.012 30.012 0 0 0-.664-.886 77.34 77.34 0 0 0-.739-.93 6.795 6.795 0 0 0-.541-.603 1.999 1.999 0 0 1 .808-3.349 68.17 68.17 0 0 0 5.677-2.006h-3.9a2 2 0 0 1-2-2v-3.725a2 2 0 0 1 2-2h1.617a1.99 1.99 0 0 1-.429-1.238V21.12a2 2 0 0 1 2-2h6.691v-1.864a2 2 0 0 1 2-2h4.346a2 2 0 0 1 2 2v1.864h6.04c.21 0 .412.032.603.092a32.842 32.842 0 0 0 1.568-2.034 2 2 0 0 1 2.505-.642l3.803 1.845c.54.262.934.752 1.072 1.335.14.583.01 1.199-.354 1.676a55.636 55.636 0 0 1-3.938 4.622h3.614a2 2 0 0 1 2 2v3.725a2 2 0 0 1-2 2h-2.429c.123.259.191.549.191.855v15.805a2 2 0 0 1-2 2h-4.599a1.998 1.998 0 0 1-1.696-.939h-9.24a1.997 1.997 0 0 1-1.775 1.079h-4.418z"/>
    </g>
    <g fill="#FF4040">
      <path d="m50.471 38.422-2.644 3.238c-.701-1.045-1.75-2.345-3.15-3.899v12.812h-4.346V38.944a31.227 31.227 0 0 1-3.549 3.133c-.435-1.137-1.099-2.297-1.992-3.48a9.855 9.855 0 0 1-.29-.349c2.945-1.996 5.588-4.723 7.932-8.182a29.046 29.046 0 0 0 1.594-2.681H35.55v-3.794h4.78v-6.267h4.346v6.267h1.593l.725-.174 2.462 1.567c-1.11 2.854-2.631 5.674-4.563 8.459.073.07.205.174.399.313.265.232.47.406.615.522a28.711 28.711 0 0 0 2.68-3.969l2.788 2.263c-.096.093-1.147 1.161-3.15 3.203a56.41 56.41 0 0 0-.289.279 109.96 109.96 0 0 1 2.535 2.368zm-1.34-18.382h19.774l-.036 2.124c-.217 12.417-.592 20.076-1.123 22.978-.242 1.415-.568 2.401-.979 2.959-.796 1.113-1.75 1.798-2.861 2.054a2.81 2.81 0 0 1-.471.104c-.917.162-2.705.22-5.36.174a9.402 9.402 0 0 0-1.304-4.282.405.405 0 0 0-.073-.104c1.304.094 2.825.14 4.563.14.58-.022 1.038-.244 1.376-.661.724-.813 1.207-4.688 1.449-11.628.096-2.599.181-5.895.253-9.887h-5.397c-.193 6.777-.869 12-2.027 15.667-1.498 4.712-4.009 8.354-7.533 10.931-.773-1.207-1.859-2.32-3.26-3.342 3.912-2.622 6.398-6.754 7.46-12.394.483-2.553.773-6.173.87-10.862h-5.325V20.04zM75.316 29.962l4.345.871c-.724 6.476-2.052 11.083-3.984 13.821l-4.128-2.263c1.955-2.786 3.211-6.929 3.767-12.429zm6.626-2.506h4.6v16.919c0 .975.168 1.556.508 1.741.29.139.784.209 1.483.209h5.107c.845 0 1.412-.349 1.701-1.045.291-.789.508-2.669.652-5.64 1.062.789 2.439 1.404 4.13 1.845-.268 3.645-.882 6.046-1.848 7.207-.868 1.021-2.295 1.531-4.273 1.531h-6.049c-2.558 0-4.236-.521-5.034-1.566-.651-.858-.978-2.286-.978-4.282V27.456zm.146-6.754 2.825-3.307a53.494 53.494 0 0 1 11.118 5.326c.481.302.917.592 1.305.871l-2.898 3.725c-2.487-1.996-5.844-3.899-10.068-5.709a111.29 111.29 0 0 0-2.282-.906zm14.486 9.817 4.021-1.984a37.023 37.023 0 0 1 5.975 10.514c.314.836.568 1.613.761 2.332l-4.491 2.124c-.577-2.924-2.004-6.254-4.271-9.992a36.011 36.011 0 0 0-1.995-2.994zM129.676 31.737c-.701.511-1.406.999-2.118 1.462-.714.464-1.454.929-2.228 1.393h13.436v15.805h-4.599v-.939h-12.712v1.079h-4.418V38.909c-.919.396-1.855.783-2.81 1.167-.954.383-1.9.736-2.84 1.062a15.239 15.239 0 0 0-.545-.801 30.259 30.259 0 0 0-.705-.94 82.18 82.18 0 0 0-.761-.957 8.905 8.905 0 0 0-.706-.783 69.233 69.233 0 0 0 7.115-2.594 61.305 61.305 0 0 0 6.646-3.325h-12.567v-3.725h11.88v-3.238h-8.691V21.12h8.691v-3.864h4.346v3.864h8.04v1.741a37.932 37.932 0 0 0 3.803-4.526l3.803 1.845a53.281 53.281 0 0 1-7.316 7.833h8.584v3.725h-13.328zm4.491 6.302h-12.712v2.298h12.712v-2.298zm0 7.902V43.54h-12.712v2.401h12.712zm-8.077-17.928h2.063c.7-.534 1.384-1.062 2.047-1.584a31.42 31.42 0 0 0 1.938-1.654h-6.048v3.238z"/>
    </g>
  </g>
</svg>
