<svg xmlns="http://www.w3.org/2000/svg" xml:space="preserve" width="175" height="70">
  <linearGradient id="a" x1="59.14" x2="119.753" y1="87.212" y2="-17.774" gradientUnits="userSpaceOnUse">
    <stop offset=".016" style="stop-color:#f69e8f"/>
    <stop offset=".048" style="stop-color:#f7ab87"/>
    <stop offset=".171" style="stop-color:#fbd66d"/>
    <stop offset=".267" style="stop-color:#fef15d"/>
    <stop offset=".323" style="stop-color:#fffb57"/>
    <stop offset=".529" style="stop-color:#ffc150"/>
    <stop offset=".561" style="stop-color:#ffc350"/>
    <stop offset=".572" style="stop-color:#ffca51"/>
    <stop offset=".581" style="stop-color:#ffd552"/>
    <stop offset=".587" style="stop-color:#ffe654"/>
    <stop offset=".593" style="stop-color:#fffb57"/>
  </linearGradient>
  <path fill="url(#a)" d="M18.101 63.518h113.952c7.504 0 23.759-12.887 23.759-24.807V15.514c0-4.51 6.253-8.86 6.253-8.86H46.237c-9.066 0-23.916 13.209-23.916 27.063V51.92c0 9.988-4.22 11.598-4.22 11.598z"/>
  <g fill="#FFF" opacity=".7">
    <path d="m39.998 45.556 3.946-1.659 3.55 1.659-1.814-3.552 1.814-3.551-3.748 1.422-3.748-1.422 2.052 3.551z"/>
    <path d="m39.998 45.556 3.946-1.659 3.55 1.659-1.814-3.552 1.814-3.551-3.748 1.422-3.748-1.422 2.052 3.551z"/>
    <path d="m39.998 45.556 3.946-1.659 3.55 1.659-1.814-3.552 1.814-3.551-3.748 1.422-3.748-1.422 2.052 3.551zM32.502 52.657 36.448 51l3.55 1.657-1.814-3.551 1.814-3.55-3.748 1.421-3.748-1.421 2.052 3.55zM47.494 52.657 51.439 51l3.551 1.657-1.815-3.551 1.815-3.55-3.748 1.421-3.748-1.421 2.051 3.55zM32.502 38.453l3.946-1.656 3.55 1.656-1.814-3.55 1.814-3.55-3.748 1.42-3.748-1.42 2.052 3.55zM39.998 31.353l3.946-1.657 3.55 1.657-1.814-3.551 1.814-3.551-3.748 1.42-3.748-1.42 2.052 3.551zM39.998 59.758l3.946-1.656 3.55 1.656-1.814-3.55 1.814-3.551-3.748 1.42-3.748-1.42 2.052 3.551zM54.99 59.758l3.945-1.656 3.551 1.656-1.815-3.55 1.815-3.551-3.749 1.42-3.747-1.42 2.052 3.551zM71.481 59.758l3.945-1.656 3.551 1.656-1.814-3.55 1.814-3.551-3.748 1.42-3.748-1.42 2.052 3.551zM25.007 59.758l3.945-1.656 3.55 1.656-1.814-3.55 1.814-3.551-3.747 1.42-3.748-1.42 2.051 3.551zM25.007 45.556l3.945-1.659 3.55 1.659-1.814-3.552 1.814-3.551-3.747 1.422-3.748-1.422 2.051 3.551zM25.007 31.353l3.945-1.657 3.55 1.657-1.814-3.551 1.814-3.551-3.747 1.42-3.748-1.42 2.051 3.551zM32.502 24.251l3.946-1.657 3.55 1.657-1.814-3.55 1.814-3.551-3.748 1.42-3.748-1.42 2.052 3.551zM47.494 24.251l3.945-1.657 3.551 1.657-1.815-3.55 1.815-3.551-3.748 1.42-3.748-1.42 2.051 3.551zM39.998 17.15l3.946-1.657 3.55 1.657-1.814-3.55 1.814-3.552-3.748 1.421-3.748-1.421L42.05 13.6zM55.306 17.15l3.945-1.657 3.551 1.657-1.815-3.55 1.815-3.552-3.748 1.421-3.748-1.421 2.051 3.552zM71.481 17.15l3.945-1.657 3.551 1.657-1.814-3.55 1.814-3.552-3.748 1.421-3.748-1.421 2.052 3.552zM78.977 24.251l3.945-1.657 3.551 1.657-1.815-3.55 1.815-3.551-3.748 1.42-3.748-1.42 2.052 3.551zM86.473 17.15l3.945-1.657 3.552 1.657-1.816-3.55 1.816-3.552-3.748 1.421-3.749-1.421 2.05 3.552zM86.474 59.758l3.945-1.656 3.551 1.656-1.816-3.55 1.816-3.551-3.748 1.42-3.748-1.42 2.051 3.551zM102.412 17.15l3.943-1.657 3.551 1.657-1.812-3.55 1.812-3.552-3.748 1.421-3.746-1.421 2.05 3.552zM102.412 59.758l3.943-1.656 3.551 1.656-1.812-3.55 1.812-3.551-3.748 1.42-3.746-1.42 2.05 3.551zM118.469 17.15l3.945-1.657 3.55 1.657-1.814-3.55 1.814-3.552-3.746 1.421-3.749-1.421 2.051 3.552zM118.469 59.758l3.945-1.656 3.55 1.656-1.814-3.55 1.814-3.551-3.746 1.42-3.749-1.42 2.051 3.551zM132.672 59.758l3.945-1.656 3.55 1.656-1.813-3.55 1.813-3.551-3.747 1.42-3.748-1.42 2.051 3.551zM132.672 17.15l3.945-1.657 3.55 1.657-1.813-3.55 1.813-3.552-3.747 1.421-3.748-1.421 2.051 3.552zM140.167 24.251l3.944-1.657 3.552 1.657-1.814-3.55 1.814-3.551-3.748 1.42-3.748-1.42 2.052 3.551zM147.663 17.15l3.944-1.657 3.551 1.657-1.814-3.55 1.814-3.552-3.747 1.421-3.748-1.421 2.05 3.552zM147.663 31.353l3.944-1.657 3.551 1.657-1.814-3.551 1.814-3.551-3.747 1.42-3.748-1.42 2.05 3.551zM140.167 38.453l3.944-1.656 3.552 1.656-1.814-3.55 1.814-3.55-3.748 1.42-3.748-1.42 2.052 3.55zM140.167 52.657 144.111 51l3.552 1.657-1.814-3.551 1.814-3.55-3.748 1.421-3.748-1.421 2.052 3.55zM147.663 45.556l3.944-1.659 3.551 1.659-1.814-3.552 1.814-3.551-3.747 1.422-3.748-1.422 2.05 3.551zM63.039 52.302l3.945-1.657 3.55 1.657-1.813-3.551 1.813-3.55-3.747 1.419-3.748-1.419 2.052 3.55zM86.473 31.353l3.945-1.657 3.552 1.657-1.816-3.551 1.816-3.551-3.748 1.42-3.749-1.42 2.052 3.551zM70.535 45.201l3.944-1.657 3.551 1.657-1.814-3.55L78.03 38.1l-3.747 1.421-3.748-1.421 2.051 3.551zM63.039 37.923l3.945-1.657 3.55 1.657-1.813-3.55 1.813-3.551-3.747 1.42-3.748-1.42 2.052 3.551zM78.977 51.233l3.945-1.657 3.551 1.657-1.814-3.549 1.814-3.552-3.748 1.421-3.748-1.421 2.052 3.552zM86.474 44.779l3.944-1.657 3.551 1.657-1.815-3.55 1.815-3.551-3.747 1.421-3.748-1.421 2.051 3.551zM93.97 52.302l3.944-1.657 3.551 1.657-1.815-3.55 1.815-3.552-3.747 1.421L93.97 45.2l2.051 3.552zM102.412 44.779l3.945-1.657 3.551 1.657-1.814-3.55 1.814-3.551-3.748 1.421-3.748-1.421 2.052 3.551zM94.917 24.929l3.944-1.657 3.551 1.657-1.814-3.55 1.814-3.551-3.747 1.421-3.748-1.421 2.052 3.551zM109.201 25.817l3.945-1.657 3.551 1.657-1.814-3.55 1.814-3.552-3.748 1.421-3.748-1.421 2.052 3.552zM63.986 24.929l3.945-1.657 3.55 1.657-1.814-3.55 1.814-3.551-3.747 1.421-3.748-1.421 2.052 3.551z"/>
  </g>
  <linearGradient id="b" x1="38.913" x2="138.273" y1="84.529" y2="-14.831" gradientUnits="userSpaceOnUse">
    <stop offset="0" style="stop-color:#f4b2bb"/>
    <stop offset=".072" style="stop-color:#d9bede"/>
    <stop offset=".132" style="stop-color:#bfc9ff"/>
    <stop offset=".243" style="stop-color:#99ecee"/>
    <stop offset=".397" style="stop-color:#8efcd8"/>
    <stop offset=".556" style="stop-color:#a0f0a1"/>
    <stop offset=".746" style="stop-color:#f3fc9b"/>
    <stop offset="1" style="stop-color:#e89efd"/>
  </linearGradient>
  <path fill="none" stroke="url(#b)" stroke-miterlimit="10" stroke-width="2" d="M21.346 61.625h109.675c7.412 0 22.813-11.863 22.813-23.292V16.098c0-4.325 3.949-7.723 3.949-7.723H45.255c-7.949 0-21.755 11.897-21.755 25.177V51c0 9.576-2.154 10.625-2.154 10.625z"/>
  <linearGradient id="c" x1="56.783" x2="120.666" y1="90.352" y2="-20.298" gradientUnits="userSpaceOnUse">
    <stop offset="0" style="stop-color:#3106d2"/>
    <stop offset=".354" style="stop-color:#b92582"/>
    <stop offset=".449" style="stop-color:#981e95"/>
    <stop offset=".655" style="stop-color:#450bc6"/>
    <stop offset=".704" style="stop-color:#3106d2"/>
    <stop offset=".764" style="stop-color:#480bc5"/>
    <stop offset=".891" style="stop-color:#8218a2"/>
    <stop offset="1" style="stop-color:#b92582"/>
  </linearGradient>
  <path fill="none" stroke="url(#c)" stroke-miterlimit="10" stroke-width="2" d="M17.363 63.46h114.423c7.533 0 23.856-12.939 23.856-24.909V15.259c0-4.529 6.278-8.896 6.278-8.896H45.615c-9.104 0-24.015 13.264-24.015 27.174v18.278c.001 10.029-4.237 11.645-4.237 11.645z"/>
  <g fill="none" stroke="#F9E978" stroke-miterlimit="10" stroke-width="5">
    <path d="M16.237 47.695c-2.78-.299-1.186 4.951 1.364 6.595 2.211 1.426 7.384 1.436 6.597-1.362M33.279 47.695c2.691-.763 1.423 4.994-1.364 6.595-2.031 1.167-7.438 1.421-6.597-1.362M18.885 37.184c-1.052-2.798-5.036.633-5.986 3.084-1.151 2.97 1.433 8.381 3.08 5.988M30.753 36.973c.515-2.748 5.003.955 5.729 3.539.73 2.596-.896 6.946-3.537 5.732M19.963 36.766c-2.013-1.941 2.132-4.761 4.763-4.761s6.552 2.471 4.764 4.761M18.93 36.008l3.871 5.775M15.052 47.17l6.643-1.981M24.74 54.043l-.148-6.752M34.318 46.881l-6.831-1.692M30.492 35.86l-4.11 5.923"/>
  </g>
  <linearGradient id="d" x1="25.977" x2="22.139" y1="32.757" y2="54.528" gradientUnits="userSpaceOnUse">
    <stop offset="0" style="stop-color:#2914f5"/>
    <stop offset=".518" style="stop-color:#cf07b5"/>
    <stop offset=".579" style="stop-color:#c308ba"/>
    <stop offset=".688" style="stop-color:#a20bc6"/>
    <stop offset=".835" style="stop-color:#6c0fdb"/>
    <stop offset="1" style="stop-color:#2914f5"/>
  </linearGradient>
  <path fill="none" stroke="url(#d)" stroke-miterlimit="10" stroke-width="5" d="m24.592 38.158 1.79 3.625 4.001.581-2.896 2.825.685 3.985-3.58-1.883-3.579 1.883.682-3.985-2.895-2.825 4.001-.581z"/>
  <linearGradient id="e" x1="16.305" x2="33.63" y1="34.327" y2="54.974" gradientUnits="userSpaceOnUse">
    <stop offset="0" style="stop-color:#3106d2"/>
    <stop offset=".179" style="stop-color:#5d0ac7"/>
    <stop offset=".5" style="stop-color:#b311b0"/>
    <stop offset=".594" style="stop-color:#af11b1"/>
    <stop offset=".681" style="stop-color:#a410b4"/>
    <stop offset=".765" style="stop-color:#910eb9"/>
    <stop offset=".848" style="stop-color:#770cc0"/>
    <stop offset=".929" style="stop-color:#5509c9"/>
    <stop offset="1" style="stop-color:#3106d2"/>
  </linearGradient>
  <path fill="none" stroke="url(#e)" stroke-miterlimit="10" stroke-width="3" d="M36.684 42.075a6.22 6.22 0 0 0-6.098-6.215 6.218 6.218 0 0 0-11.564.148c-.038 0-.076-.004-.117-.004a6.22 6.22 0 0 0-6.221 6.221 6.2 6.2 0 0 0 2.46 4.945 6.222 6.222 0 0 0 5.909 8.16 6.202 6.202 0 0 0 3.78-1.286 6.179 6.179 0 0 0 3.775 1.286 6.22 6.22 0 0 0 6.221-6.222c0-.787-.151-1.535-.419-2.227a6.2 6.2 0 0 0 2.274-4.806z"/>
  <linearGradient id="f" x1="18.633" x2="23.284" y1="36.125" y2="41.668" gradientUnits="userSpaceOnUse">
    <stop offset="0" style="stop-color:#3106d2"/>
    <stop offset="1" style="stop-color:#3106d2"/>
  </linearGradient>
  <path fill="none" stroke="url(#f)" stroke-miterlimit="10" stroke-width="3" d="m19.022 36.008 3.873 5.775"/>
  <linearGradient id="g" x1="26.134" x2="30.926" y1="41.677" y2="35.967" gradientUnits="userSpaceOnUse">
    <stop offset="0" style="stop-color:#3106d2"/>
    <stop offset=".268" style="stop-color:#5d0ac7"/>
    <stop offset=".749" style="stop-color:#b311b0"/>
  </linearGradient>
  <path fill="none" stroke="url(#g)" stroke-miterlimit="10" stroke-width="3" d="m30.586 35.86-4.111 5.923"/>
  <linearGradient id="h" x1="29.135" x2="32.856" y1="48.253" y2="43.818" gradientUnits="userSpaceOnUse">
    <stop offset="0" style="stop-color:#3106d2"/>
    <stop offset=".247" style="stop-color:#5d0ac7"/>
    <stop offset=".691" style="stop-color:#b311b0"/>
  </linearGradient>
  <path fill="none" stroke="url(#h)" stroke-miterlimit="10" stroke-width="3" d="m34.411 46.881-6.831-1.692"/>
  <linearGradient id="i" x1="22.133" x2="27.387" y1="48.827" y2="52.506" gradientUnits="userSpaceOnUse">
    <stop offset=".468" style="stop-color:#b311b0"/>
    <stop offset=".81" style="stop-color:#5d0ac7"/>
    <stop offset="1" style="stop-color:#3106d2"/>
  </linearGradient>
  <path fill="none" stroke="url(#i)" stroke-miterlimit="10" stroke-width="3" d="m24.834 54.043-.149-6.752"/>
  <linearGradient id="j" x1="16.697" x2="20.238" y1="44.07" y2="48.289" gradientUnits="userSpaceOnUse">
    <stop offset=".127" style="stop-color:#b311b0"/>
    <stop offset=".307" style="stop-color:#960fb8"/>
    <stop offset=".78" style="stop-color:#4d08cb"/>
    <stop offset="1" style="stop-color:#3106d2"/>
  </linearGradient>
  <path fill="none" stroke="url(#j)" stroke-miterlimit="10" stroke-width="3" d="m15.145 47.17 6.644-1.981"/>
  <linearGradient id="k" x1="18.763" x2="30.01" y1="51.624" y2="38.221" gradientUnits="userSpaceOnUse">
    <stop offset="0" style="stop-color:#3106d2"/>
    <stop offset=".179" style="stop-color:#5d0ac7"/>
    <stop offset=".5" style="stop-color:#b311b0"/>
    <stop offset=".594" style="stop-color:#af11b1"/>
    <stop offset=".681" style="stop-color:#a410b4"/>
    <stop offset=".765" style="stop-color:#910eb9"/>
    <stop offset=".848" style="stop-color:#770cc0"/>
    <stop offset=".929" style="stop-color:#5509c9"/>
    <stop offset="1" style="stop-color:#3106d2"/>
  </linearGradient>
  <path fill="url(#k)" d="m24.685 48.986-5.572 2.931 1.064-6.204-4.507-4.397 6.229-.904 2.786-5.641 2.785 5.641 6.229.904-4.507 4.397 1.066 6.204z"/>
  <path fill="none" stroke="#FFF" stroke-miterlimit="10" stroke-width="1.5" d="m24.685 38.158 1.79 3.625 4.002.581-2.897 2.825.685 3.985-3.58-1.883-3.58 1.883.684-3.985-2.896-2.825 4.002-.581zM25.19 31.769c2.354.24 4.807 1.896 5.343 4.039M36.609 40.495c.519 2.31-.274 5.159-2.138 6.347M31.778 54.499c-2.074 1.139-5.032 1.169-6.691-.289M16.883 53.865c-1.773-1.568-2.8-4.343-1.987-6.396M12.975 39.67c.99-2.15 3.35-3.935 5.551-3.75"/>
  <path fill="#FFF" d="M29.492 37.22s.008.292-.091.658c-.092.37-.286.816-.547 1.219a4.235 4.235 0 0 1-.903.984c-.297.235-.569.343-.569.343s-.009-.293.09-.658c.092-.371.287-.816.548-1.219.267-.398.601-.753.904-.983.297-.236.568-.344.568-.344zM33.272 46.18s-.265.124-.639.18a4.292 4.292 0 0 1-1.336-.013 4.202 4.202 0 0 1-1.263-.434c-.334-.179-.542-.385-.542-.385s.265-.125.64-.181a4.228 4.228 0 0 1 1.335.014c.472.085.93.249 1.263.435.334.179.542.384.542.384zM24.908 49.455s.163.243.274.605a4.206 4.206 0 0 1-.05 2.636c-.126.357-.299.594-.299.594s-.164-.243-.275-.605a4.22 4.22 0 0 1-.187-1.322c.013-.479.106-.957.24-1.314.125-.358.297-.594.297-.594zM20.145 45.685s-.188.224-.506.431a4.25 4.25 0 0 1-1.219.547c-.464.12-.949.165-1.33.135a2.51 2.51 0 0 1-.653-.123s.188-.225.505-.432a4.217 4.217 0 0 1 1.22-.546 4.24 4.24 0 0 1 1.33-.133c.378.021.653.121.653.121zM21.753 40.341s-.279-.088-.592-.3a4.217 4.217 0 0 1-1.613-2.088c-.125-.357-.139-.65-.139-.65s.28.087.594.3c.32.207.678.536.974.914.29.382.517.813.636 1.175.126.357.14.649.14.649z"/>
  <linearGradient id="l" x1="49.052" x2="46.053" y1="44.981" y2="61.992" gradientUnits="userSpaceOnUse">
    <stop offset=".148" style="stop-color:#cf07b5"/>
    <stop offset=".245" style="stop-color:#900ccd"/>
    <stop offset=".341" style="stop-color:#5810e3"/>
    <stop offset=".411" style="stop-color:#3613f0"/>
    <stop offset=".45" style="stop-color:#2914f5"/>
    <stop offset=".554" style="stop-color:#2c14f4"/>
    <stop offset=".622" style="stop-color:#3513f1"/>
    <stop offset=".681" style="stop-color:#4412eb"/>
    <stop offset=".734" style="stop-color:#5910e3"/>
    <stop offset=".783" style="stop-color:#740ed8"/>
    <stop offset=".829" style="stop-color:#960bcb"/>
    <stop offset=".872" style="stop-color:#bd08bc"/>
    <stop offset=".889" style="stop-color:#cf07b5"/>
  </linearGradient>
  <path fill="url(#l)" stroke="#F9E978" stroke-miterlimit="10" d="M56.482 52.15a4.511 4.511 0 0 0-4.423-4.508 4.51 4.51 0 0 0-8.385.107c-.028 0-.057-.004-.085-.004a4.512 4.512 0 0 0-4.513 4.512c0 1.467.701 2.764 1.784 3.588a4.512 4.512 0 0 0 4.286 5.916c1.031 0 1.98-.35 2.74-.932.76.582 1.707.932 2.738.932a4.513 4.513 0 0 0 4.514-4.512c0-.57-.111-1.113-.304-1.615a4.494 4.494 0 0 0 1.648-3.484z"/>
  <circle cx="47.78" cy="53.744" r=".441" fill="#CF07B5" stroke="#FFF" stroke-miterlimit="10"/>
  <path fill="none" stroke="#FFF" stroke-miterlimit="10" stroke-width=".75" d="M48.048 45.811c1.551.301 2.545 1.277 3.101 2.555M40.391 50.823c.854-1.329 2.128-1.892 3.521-1.937M55.333 51.507c.057 1.579-.668 2.769-1.786 3.601M42.954 59.855c-1.029-1.201-1.205-2.581-.849-3.929M52.295 60.436c-1.52.434-2.848.014-3.923-.873"/>
  <path fill="#FFF" d="M48.048 55.578s.08.156.14.391a3.45 3.45 0 0 1 .001 1.718c-.06.234-.141.391-.141.391s-.081-.156-.141-.391-.112-.547-.109-.859a3.495 3.495 0 0 1 .11-.859c.06-.235.14-.391.14-.391zM46.021 54.641s-.115.133-.31.275a3.45 3.45 0 0 1-1.595.642c-.24.032-.415.016-.415.016s.115-.133.31-.276c.195-.143.466-.308.757-.422.289-.119.599-.186.838-.219.24-.032.415-.016.415-.016zM46.565 52.512s-.157-.078-.344-.231a3.425 3.425 0 0 1-1.02-1.382c-.09-.224-.118-.397-.118-.397s.157.078.345.23a3.447 3.447 0 0 1 1.019 1.383c.09.224.118.397.118.397zM48.813 52.479s.036-.172.137-.392a3.457 3.457 0 0 1 1.08-1.337c.194-.144.355-.215.355-.215s-.036.172-.136.393a3.452 3.452 0 0 1-1.08 1.335c-.196.144-.356.216-.356.216zM49.942 54.316s.171-.036.413-.034c.242.004.557.033.858.117.302.078.59.21.801.328.21.119.34.237.34.237s-.172.037-.414.034a3.446 3.446 0 0 1-1.658-.446c-.21-.118-.34-.236-.34-.236z"/>
  <linearGradient id="m" x1="129.221" x2="126.221" y1="8.852" y2="25.863" gradientUnits="userSpaceOnUse">
    <stop offset=".254" style="stop-color:#2914f5"/>
    <stop offset=".294" style="stop-color:#5411e4"/>
    <stop offset=".342" style="stop-color:#800dd3"/>
    <stop offset=".387" style="stop-color:#a20ac6"/>
    <stop offset=".431" style="stop-color:#bb09bd"/>
    <stop offset=".47" style="stop-color:#ca07b7"/>
    <stop offset=".503" style="stop-color:#cf07b5"/>
    <stop offset=".54" style="stop-color:#c907b7"/>
    <stop offset=".592" style="stop-color:#b709be"/>
    <stop offset=".652" style="stop-color:#9a0bc9"/>
    <stop offset=".717" style="stop-color:#720ed9"/>
    <stop offset=".787" style="stop-color:#3f12ec"/>
    <stop offset=".815" style="stop-color:#2914f5"/>
  </linearGradient>
  <path fill="url(#m)" stroke="#F9E978" stroke-miterlimit="10" d="M136.649 16.021a4.511 4.511 0 0 0-4.423-4.508 4.51 4.51 0 0 0-8.385.107c-.028 0-.057-.004-.085-.004a4.512 4.512 0 0 0-4.513 4.512c0 1.467.701 2.764 1.784 3.588a4.512 4.512 0 0 0 4.286 5.916c1.031 0 1.98-.35 2.74-.932.76.582 1.707.932 2.738.932a4.513 4.513 0 0 0 4.514-4.512c0-.57-.111-1.113-.304-1.615a4.494 4.494 0 0 0 1.648-3.484z"/>
  <circle cx="127.947" cy="17.615" r=".441" fill="#CF07B5" stroke="#FFF" stroke-miterlimit="10"/>
  <path fill="none" stroke="#FFF" stroke-miterlimit="10" stroke-width=".75" d="M128.215 9.682c1.551.301 2.545 1.277 3.101 2.555M120.558 14.694c.854-1.329 2.128-1.892 3.521-1.937M135.5 15.378c.057 1.579-.668 2.769-1.786 3.601M123.121 23.727c-1.029-1.201-1.205-2.581-.849-3.929M132.462 24.307c-1.52.434-2.848.014-3.923-.873"/>
  <path fill="#FFF" d="M128.215 19.449s.079.156.14.391a3.454 3.454 0 0 1 .001 1.718c-.059.234-.141.391-.141.391s-.081-.156-.141-.391-.112-.547-.109-.859a3.495 3.495 0 0 1 .11-.859c.061-.235.14-.391.14-.391zM126.188 18.512s-.115.133-.31.275a3.439 3.439 0 0 1-1.596.642c-.24.032-.415.016-.415.016s.115-.133.31-.276c.195-.143.467-.308.758-.422.289-.119.599-.186.838-.219.24-.032.415-.016.415-.016zM126.732 16.383s-.157-.078-.345-.231a3.425 3.425 0 0 1-1.02-1.382c-.09-.224-.118-.397-.118-.397s.157.078.345.23c.188.153.414.374.598.627.188.249.33.532.422.756.09.224.118.397.118.397zM128.979 16.35s.036-.172.137-.392a3.471 3.471 0 0 1 1.08-1.337c.193-.144.354-.215.354-.215s-.036.172-.136.393c-.102.22-.257.495-.455.736a3.567 3.567 0 0 1-.626.599c-.193.144-.354.216-.354.216zM130.109 18.188s.171-.036.413-.034a3.457 3.457 0 0 1 1.658.445c.211.119.341.237.341.237s-.172.037-.413.034a3.446 3.446 0 0 1-1.658-.446c-.211-.119-.341-.236-.341-.236z"/>
  <g fill="none" stroke="#F9E978" stroke-miterlimit="10" stroke-width="5">
    <path d="M141.085 28.733c-2.78-.299-1.186 4.951 1.364 6.595 2.211 1.426 7.384 1.436 6.597-1.362M158.127 28.733c2.691-.763 1.423 4.994-1.364 6.595-2.031 1.167-7.438 1.42-6.597-1.362M143.732 18.221c-1.052-2.798-5.036.633-5.986 3.084-1.151 2.97 1.433 8.381 3.08 5.988M155.601 18.01c.515-2.748 5.003.955 5.729 3.539.73 2.596-.896 6.946-3.537 5.732M144.811 17.803c-2.013-1.941 2.132-4.761 4.763-4.761s6.552 2.471 4.764 4.761M143.777 17.045l3.871 5.776M139.899 28.208l6.644-1.981M149.588 35.081l-.149-6.752M159.166 27.918l-6.831-1.691M155.34 16.897l-4.111 5.924"/>
  </g>
  <linearGradient id="n" x1="150.825" x2="146.986" y1="13.795" y2="35.567" gradientUnits="userSpaceOnUse">
    <stop offset="0" style="stop-color:#2914f5"/>
    <stop offset=".518" style="stop-color:#cf07b5"/>
    <stop offset=".579" style="stop-color:#c308ba"/>
    <stop offset=".688" style="stop-color:#a20bc6"/>
    <stop offset=".835" style="stop-color:#6c0fdb"/>
    <stop offset="1" style="stop-color:#2914f5"/>
  </linearGradient>
  <path fill="none" stroke="url(#n)" stroke-miterlimit="10" stroke-width="5" d="m149.439 19.196 1.79 3.625 4.001.581-2.895 2.825.685 3.984-3.581-1.882-3.579 1.882.683-3.984-2.896-2.825 4.001-.581z"/>
  <linearGradient id="o" x1="140.83" x2="158.104" y1="35.969" y2="15.382" gradientUnits="userSpaceOnUse">
    <stop offset="0" style="stop-color:#b311b0"/>
    <stop offset=".032" style="stop-color:#aa10b2"/>
    <stop offset=".234" style="stop-color:#760cc0"/>
    <stop offset=".41" style="stop-color:#5109ca"/>
    <stop offset=".552" style="stop-color:#3907d0"/>
    <stop offset=".64" style="stop-color:#3106d2"/>
    <stop offset=".75" style="stop-color:#8d0eba"/>
    <stop offset=".794" style="stop-color:#b311b0"/>
  </linearGradient>
  <path fill="none" stroke="url(#o)" stroke-miterlimit="10" stroke-width="3" d="M161.531 23.113a6.22 6.22 0 0 0-6.098-6.215 6.218 6.218 0 0 0-11.564.148c-.038 0-.076-.004-.117-.004a6.22 6.22 0 0 0-6.221 6.221 6.2 6.2 0 0 0 2.46 4.945 6.222 6.222 0 0 0 5.909 8.16 6.203 6.203 0 0 0 3.78-1.287 6.18 6.18 0 0 0 3.775 1.287 6.222 6.222 0 0 0 6.221-6.222c0-.787-.151-1.535-.419-2.227a6.202 6.202 0 0 0 2.274-4.806z"/>
  <linearGradient id="p" x1="143.481" x2="148.131" y1="17.162" y2="22.705" gradientUnits="userSpaceOnUse">
    <stop offset="0" style="stop-color:#3106d2"/>
    <stop offset="1" style="stop-color:#3106d2"/>
  </linearGradient>
  <path fill="none" stroke="url(#p)" stroke-miterlimit="10" stroke-width="3" d="m143.87 17.045 3.872 5.776"/>
  <linearGradient id="q" x1="150.983" x2="155.775" y1="22.715" y2="17.004" gradientUnits="userSpaceOnUse">
    <stop offset="0" style="stop-color:#3106d2"/>
    <stop offset=".749" style="stop-color:#3106d2"/>
  </linearGradient>
  <path fill="none" stroke="url(#q)" stroke-miterlimit="10" stroke-width="3" d="m155.434 16.897-4.112 5.924"/>
  <linearGradient id="r" x1="153.448" x2="158.239" y1="24.219" y2="29.928" gradientUnits="userSpaceOnUse">
    <stop offset="0" style="stop-color:#3106d2"/>
    <stop offset=".247" style="stop-color:#5d0ac7"/>
    <stop offset=".691" style="stop-color:#b311b0"/>
  </linearGradient>
  <path fill="none" stroke="url(#r)" stroke-miterlimit="10" stroke-width="3" d="m159.259 27.918-6.831-1.691"/>
  <linearGradient id="s" x1="147.049" x2="152.165" y1="33.495" y2="29.913" gradientUnits="userSpaceOnUse">
    <stop offset=".468" style="stop-color:#b311b0"/>
    <stop offset=".81" style="stop-color:#5d0ac7"/>
    <stop offset="1" style="stop-color:#3106d2"/>
  </linearGradient>
  <path fill="none" stroke="url(#s)" stroke-miterlimit="10" stroke-width="3" d="m149.682 35.081-.15-6.752"/>
  <linearGradient id="t" x1="141.545" x2="145.085" y1="25.109" y2="29.328" gradientUnits="userSpaceOnUse">
    <stop offset=".127" style="stop-color:#b311b0"/>
    <stop offset=".307" style="stop-color:#960fb8"/>
    <stop offset=".78" style="stop-color:#4d08cb"/>
    <stop offset="1" style="stop-color:#3106d2"/>
  </linearGradient>
  <path fill="none" stroke="url(#t)" stroke-miterlimit="10" stroke-width="3" d="m139.992 28.208 6.645-1.981"/>
  <linearGradient id="u" x1="143.61" x2="154.857" y1="32.66" y2="19.257" gradientUnits="userSpaceOnUse">
    <stop offset="0" style="stop-color:#3106d2"/>
    <stop offset=".179" style="stop-color:#5d0ac7"/>
    <stop offset=".5" style="stop-color:#b311b0"/>
    <stop offset=".594" style="stop-color:#af11b1"/>
    <stop offset=".681" style="stop-color:#a410b4"/>
    <stop offset=".765" style="stop-color:#910eb9"/>
    <stop offset=".848" style="stop-color:#770cc0"/>
    <stop offset=".929" style="stop-color:#5509c9"/>
    <stop offset="1" style="stop-color:#3106d2"/>
  </linearGradient>
  <path fill="url(#u)" d="m149.532 30.024-5.571 2.931 1.064-6.205-4.507-4.396 6.228-.904 2.786-5.642 2.786 5.642 6.229.904-4.508 4.396 1.066 6.205z"/>
  <path fill="none" stroke="#FFF" stroke-miterlimit="10" stroke-width="1.5" d="m149.532 19.196 1.79 3.625 4.002.581-2.896 2.825.684 3.984-3.58-1.882-3.579 1.882.684-3.984-2.897-2.825 4.002-.581zM150.038 12.807c2.354.24 4.807 1.896 5.343 4.039M161.457 21.533c.519 2.31-.274 5.159-2.138 6.347M156.626 35.537c-2.074 1.139-5.032 1.168-6.691-.289M141.73 34.903c-1.773-1.568-2.8-4.343-1.987-6.396M137.822 20.708c.99-2.15 3.35-3.935 5.551-3.75"/>
  <path fill="#FFF" d="M154.34 18.257s.008.292-.091.658a4.27 4.27 0 0 1-.547 1.219 4.235 4.235 0 0 1-.903.984c-.297.235-.569.343-.569.343s-.009-.293.09-.658c.092-.371.286-.816.548-1.219.268-.398.601-.753.904-.983.296-.235.568-.344.568-.344zM158.12 27.217s-.265.124-.64.18a4.292 4.292 0 0 1-1.336-.013 4.221 4.221 0 0 1-1.263-.434c-.335-.179-.542-.385-.542-.385s.265-.125.64-.181a4.228 4.228 0 0 1 1.335.014c.473.085.931.249 1.264.435.334.179.542.384.542.384zM149.756 30.493s.162.243.273.605c.12.361.194.843.188 1.322a4.235 4.235 0 0 1-.238 1.314c-.126.357-.299.594-.299.594s-.163-.243-.275-.605a4.249 4.249 0 0 1-.187-1.322c.014-.479.105-.957.24-1.314.126-.358.298-.594.298-.594zM144.992 26.722s-.188.224-.506.431c-.314.215-.757.42-1.219.547-.465.12-.949.165-1.33.135-.379-.022-.653-.123-.653-.123s.188-.225.505-.432a4.223 4.223 0 0 1 1.221-.546c.464-.12.949-.163 1.33-.133.377.022.652.121.652.121zM146.601 21.378s-.278-.088-.593-.3a4.217 4.217 0 0 1-1.613-2.088c-.126-.357-.139-.65-.139-.65s.28.087.594.3a4.208 4.208 0 0 1 1.611 2.089c.125.357.14.649.14.649z"/>
  <linearGradient id="v" x1="134.431" x2="150.48" y1="63.056" y2="43.928" gradientUnits="userSpaceOnUse">
    <stop offset="0" style="stop-color:#e89efd"/>
    <stop offset=".14" style="stop-color:#c7c1ff"/>
    <stop offset=".169" style="stop-color:#bfc9ff"/>
    <stop offset=".328" style="stop-color:#99ecee"/>
    <stop offset=".518" style="stop-color:#8efcd8"/>
    <stop offset=".693" style="stop-color:#a0f0a1"/>
    <stop offset=".868" style="stop-color:#f3fc9b"/>
    <stop offset="1" style="stop-color:#f4b2bb"/>
  </linearGradient>
  <linearGradient id="w" x1="134.19" x2="150.722" y1="63.343" y2="43.641" gradientUnits="userSpaceOnUse">
    <stop offset="0" style="stop-color:#e606b9"/>
    <stop offset=".045" style="stop-color:#d808bb"/>
    <stop offset=".209" style="stop-color:#aa0ec1"/>
    <stop offset=".374" style="stop-color:#8414c7"/>
    <stop offset=".537" style="stop-color:#6618cb"/>
    <stop offset=".697" style="stop-color:#511bce"/>
    <stop offset=".853" style="stop-color:#441ccf"/>
    <stop offset="1" style="stop-color:#401dd0"/>
  </linearGradient>
  <path fill="url(#v)" stroke="url(#w)" stroke-miterlimit="10" stroke-width=".75" d="M134.104 53.845h-3.383a2.5 2.5 0 0 0-2.5 2.5v.334a2.5 2.5 0 0 0 2.5 2.5h30.668a2.5 2.5 0 0 0 2.5-2.5v-.334a2.5 2.5 0 0 0-2.5-2.5h-13.645c-1.334 0-1.334-2.166 0-2.166h2.977a2.5 2.5 0 0 0 2.5-2.5v-.5a2.5 2.5 0 0 0-2.5-2.5h-25.832a2.5 2.5 0 0 0-2.5 2.5v.5a2.5 2.5 0 0 0 2.5 2.5h9.215c1.332 0 1.332 2.166 0 2.166z"/>
  <linearGradient id="x" x1="23.654" x2="39.704" y1="30.736" y2="11.608" gradientUnits="userSpaceOnUse">
    <stop offset="0" style="stop-color:#e89efd"/>
    <stop offset=".14" style="stop-color:#c7c1ff"/>
    <stop offset=".169" style="stop-color:#bfc9ff"/>
    <stop offset=".328" style="stop-color:#99ecee"/>
    <stop offset=".518" style="stop-color:#8efcd8"/>
    <stop offset=".693" style="stop-color:#a0f0a1"/>
    <stop offset=".868" style="stop-color:#f3fc9b"/>
    <stop offset="1" style="stop-color:#f4b2bb"/>
  </linearGradient>
  <linearGradient id="y" x1="23.413" x2="39.945" y1="31.023" y2="11.321" gradientUnits="userSpaceOnUse">
    <stop offset="0" style="stop-color:#401dd0"/>
    <stop offset=".239" style="stop-color:#6318cb"/>
    <stop offset=".766" style="stop-color:#bd0cbf"/>
    <stop offset="1" style="stop-color:#e606b9"/>
  </linearGradient>
  <path fill="url(#x)" stroke="url(#y)" stroke-miterlimit="10" stroke-width=".75" d="M23.327 21.525h-3.383a2.5 2.5 0 0 0-2.5 2.5v.334a2.5 2.5 0 0 0 2.5 2.5h30.668a2.5 2.5 0 0 0 2.5-2.5v-.334a2.5 2.5 0 0 0-2.5-2.5H36.968c-1.334 0-1.334-2.166 0-2.166h2.977a2.5 2.5 0 0 0 2.5-2.5v-.5a2.5 2.5 0 0 0-2.5-2.5H14.112a2.5 2.5 0 0 0-2.5 2.5v.5a2.5 2.5 0 0 0 2.5 2.5h9.215c1.332 0 1.332 2.166 0 2.166z"/>
  <g fill="#565656" opacity=".6">
    <path d="M36.681 59.37a2.497 2.497 0 0 1-2.054-1.073l-3.125-4.494a2.498 2.498 0 0 1-.444-1.555c-1.586.203-3.246.376-4.967.517a2.5 2.5 0 0 1-2.459-1.413l-.208-.435a2.5 2.5 0 0 1 1.74-3.526c.386-.081.77-.167 1.151-.257a2.503 2.503 0 0 1-1.844-1.663l-.333-1.015a2.5 2.5 0 0 1 2.375-3.28h.424l-.09-.275a2.498 2.498 0 0 1 2.376-3.278h.041v-7.722h-2.125a2.5 2.5 0 0 1-2.375-1.719l-.334-1.015a2.5 2.5 0 0 1 2.375-3.281h11.773a2.503 2.503 0 0 1 .59-3.437l.249-.181a2.49 2.49 0 0 1 1.029-.439c1.373-.247 2.633-.372 3.744-.372 5.464 0 6.41 3.042 6.569 3.975.026.151.043.302.052.453h4.333l2.124-2.519a2.497 2.497 0 0 1 3.349-.434c.136.095 3.345 2.352 5.308 3.947a2.5 2.5 0 0 1 .809 2.687c-.165.528-.882 2.208-3.314 2.328a2.495 2.495 0 0 1-.668 2.273 4.627 4.627 0 0 1-.777.63v4.377c.709.421 1.454.878 2.096 1.307a2.5 2.5 0 0 1 1.027 2.721c.454.28.896.561 1.296.825a2.499 2.499 0 0 1 1.068 2.595c-.233 1.119-1.222 2.416-3.244 2.558a2.506 2.506 0 0 1-.438 1.58c-.054.077-.11.152-.168.225.805.073 1.57.128 2.269.172a2.5 2.5 0 0 1 2.343 2.495v.4a2.5 2.5 0 0 1-1.841 2.411c-1.314.359-2.122 1.29-2.469 2.844a2.504 2.504 0 0 1-2.44 1.956c-.203 0-.408-.024-.608-.075-5.124-1.285-9.351-3.036-12.392-6.5a150.421 150.421 0 0 1-9.314 5.444c-.388.37-.819.685-1.289.938-.378.202-.787.3-1.19.3z"/>
    <path d="M74.142 59.299a2.5 2.5 0 0 1-2.5-2.5v-14.08l-3.568-4.709a2.498 2.498 0 0 1 .815-3.714c.287-.153.489-.27.631-.357V22.364c0-.699.292-1.366.807-1.839a2.497 2.497 0 0 1 1.899-.653l7.47.616a2.502 2.502 0 0 1 2.281 2.75 2.49 2.49 0 0 1 1.9.429c.053.039.596.428 1.348.982v-2.213a2.502 2.502 0 0 1 2.677-2.494l7.132.507a2.502 2.502 0 0 1 2.28 2.952 3.45 3.45 0 0 1-1.317 2.116v1.088h.231l2.051-2.469a2.497 2.497 0 0 1 3.379-.434c.134.096 3.284 2.356 5.157 3.919a2.5 2.5 0 0 1 .775 2.695 3.317 3.317 0 0 1-.55 1.008l.046.978c.99.623 1.985 1.686 1.985 3.547 0 3.2-2.52 4.438-5.595 4.915l.251.163a2.5 2.5 0 0 1 .527 3.737c-.236.271-.572.58-1.042.859v9.862c0 .122-.009.244-.026.365-.486 3.292-7.623 3.33-7.695 3.33h-1.06a2.5 2.5 0 0 1-2.5-2.5v-.11h-9.396c-1.399 2.288-6.172 2.829-7.504 2.829h-.889zM80.42 32.76l1.228-.177H80.42v.177z"/>
    <path d="M111.473 59.226a2.5 2.5 0 0 1-2.5-2.5V43.163c-.33.202-.667.404-1.014.606a2.5 2.5 0 0 1-2.502.011l-.443-.254a2.499 2.499 0 0 1-.773-3.648c3.466-4.725 6.541-11.827 7.835-18.093a2.5 2.5 0 0 1 3.051-1.92l8.757 2.175a2.499 2.499 0 0 1 1.897 2.427h10.245l2.575-2.786a2.497 2.497 0 0 1 3.191-.405c.154.1 3.805 2.455 6.054 4.114a2.5 2.5 0 0 1 .891 2.792c-.177.539-.965 2.299-3.658 2.299h-21.755a2.498 2.498 0 0 1-1.507-.505c-.293.505-.592.996-.897 1.476a2.5 2.5 0 0 1 .594 2.65l-.016.042h16.964l2.664-2.863a2.497 2.497 0 0 1 3.175-.404c.158.101 3.903 2.493 6.2 4.193a2.499 2.499 0 0 1 .883 2.804c-.37 1.105-1.523 2.286-3.652 2.286h-7.56c.063.482-.014.977-.23 1.422l-.029.058c9.34 3.215 12.165 8.292 11.617 12.125-.409 2.862-2.743 4.861-5.675 4.861-1.412 0-2.884-.471-4.258-1.361a2.493 2.493 0 0 1-1.069-1.506 16.071 16.071 0 0 0-.474-1.571c-3.82.83-9.192 1.916-15.743 3.03-.738.614-1.567 1.033-2.438 1.226a2.501 2.501 0 0 1-2.638-1.082c-2.084 1.734-6.513 1.865-6.567 1.865h-1.195zm23.68-13.858c-.862.741-1.8 1.492-2.781 2.231 1.38-.005 2.819-.012 4.298-.02-.485-.75-.992-1.49-1.517-2.211zm-14.857 1.589c1.606-1.247 3.824-4.088 5.415-6.798h-5.415v6.798zM61.721 47.338c-.25.361-.667.542-1.625.361-1.792.509-4.333 1.124-6.667 1.632 3.375 1.449 7.708 2.03 12.292 2.319v.4c-2.25.615-3.708 2.281-4.25 4.711-7.375-1.85-12.042-4.532-14.292-11.599-1.542.87-3.334 1.633-5.333 2.282v3.408c1.917-.362 4.042-.798 6.125-1.269l.084.398a146.865 146.865 0 0 1-10.417 6.125 3.564 3.564 0 0 1-.958.762l-3.125-4.494c2.083-1.015 2.417-1.413 2.417-2.14v-1.305c-3.126.614-6.542 1.052-10.084 1.341l-.208-.435c5.499-1.159 10.292-3.08 13.542-5.146H26.846l-.333-1.015h16.042v-2.538h-13l-.333-1.016h13.333v-2.28h-5.083v.51c0 .433-2.584 1.485-4.917 1.485h-.792V27.401l6.041 1.993h15.418l2.167-1.993h-28.25l-.334-1.015h16.917c-.208-.073-.375-.146-.583-.218-.292-1.449-1.458-2.936-2.5-3.697l.249-.181c8.876-1.594 8.542 3.009 5.459 4.096h9.959l2.873-3.407s3.25 2.283 5.168 3.841c-.125.399-.583.581-1.208.581h-6.833l4.666 3.008c-.251.254-.709.58-1.5.688v6.668c0 .108-.334.256-.792.4 1.042.58 2.75 1.558 4 2.393-.125.396-.583.579-1.167.579H48.347v2.538h9.042l2.667-2.538s3.042 1.705 4.958 2.973c-.083.398-.542.58-1.167.58h-6.458l4.332 2.648zM37.472 30.41v2.718h5.083V30.41h-5.083zm5.083 6.414v-2.681h-5.083v2.681h5.083zm5.292 7.94c.999 1.63 2.374 2.865 4.083 3.807 1.167-1.197 2.458-2.718 3.375-3.879h-7.333l-.125.072zm.5-14.354v2.718h5.292V30.41h-5.292zm5.292 3.733h-5.292v2.681h5.292v-2.681zm-5.292 5.98h6.708l1.583-1.45c-.709.109-1.375.182-1.958.182h-1.041V37.84h-5.292v2.283z"/>
    <path d="m96.723 39.362 5.646 3.661c-.252.29-.764.616-1.654.762v11.6c-.043.291-3.142 1.195-5.222 1.195h-1.06v-2.61H80.424v1.123c0 .511-2.759 1.706-5.392 1.706h-.891V41.212c-.127.073-.212.145-.34.218l-3.735-4.93c1.698-.907 1.953-1.306 1.953-2.14V22.363l7.47.616c-.084.543-.466.907-1.57 1.05v5.04h1.655l2.844-3.372s3.183 2.284 5.008 3.806c-.128.399-.594.58-1.188.58H77.92v5.546c2.717-.363 5.942-.833 9.126-1.342l.042.399c-2.207 1.27-6.155 3.371-11.292 5.654l4.966 1.596h2.165c.17-1.269.34-2.973.425-4.205l8.531 1.087c-.127.654-.764.943-1.696 1.053-.978.543-2.505 1.377-3.821 2.065h7.641l2.716-2.574zm-16.299 3.59V47.3h14.008v-4.348H80.424zm14.009 10.002v-4.639H80.424v4.639h14.009zm10.228-19.029c1.527.543 1.911 1.051 1.911 1.922 0 1.992-2.124 2.717-9.083 2.717h-4.034c-4.669 0-5.73-.833-5.73-3.949v-12.18l7.132.507c-.088.471-.469.798-1.359.943v5.219h3.904l2.801-3.371s3.188 2.284 5.012 3.806c-.13.398-.553.58-1.189.58H93.497v3.443c0 .508.211.689 1.315.689h3.354c1.062 0 2.124 0 2.632-.037.553 0 .933-.108 1.274-.398.464-.508 1.229-1.777 1.995-3.48h.423l.171 3.589zM123.28 24.465c-.223.471-.797.761-1.813.761-1.284 2.755-2.742 5.219-4.422 7.395l2.122.616c-.134.363-.486.581-1.371.726v21.313c-.087.4-2.653 1.45-5.129 1.45h-1.194V38.384c-1.503 1.196-3.095 2.247-4.773 3.227l-.443-.254c3.404-4.641 6.809-11.998 8.268-19.066l8.755 2.174zm14.104 18.994c17.243 5.037 12.117 15.949 5.571 11.707-.309-1.268-.795-2.573-1.371-3.878-4.508 1.016-10.878 2.319-18.438 3.59-.53.58-1.149.977-1.813 1.123l-2.075-6.053s1.37-.219 1.898-.546c2.919-1.813 7.207-8.01 8.534-11.743h-10.126l-.354-1.016h20.339l3.405-3.66s3.804 2.427 6.058 4.095c-.134.399-.663.58-1.282.58h-17.113l7.075 2.828c-.176.361-.706.614-1.591.543-2.696 2.9-7.738 6.669-12.158 9.063 4.244.037 10.479 0 17.065-.037a50.082 50.082 0 0 0-4.022-6.416l.398-.18zm-14.415-16.493h14.149l3.318-3.588s3.713 2.393 5.924 4.024c-.131.398-.619.58-1.283.58h-21.755l-.353-1.016z"/>
  </g>
  <linearGradient id="z" x1="55.583" x2="119.572" y1="74.361" y2="-1.897" gradientUnits="userSpaceOnUse">
    <stop offset="0" style="stop-color:#fde32f"/>
    <stop offset=".082" style="stop-color:#fadd2f"/>
    <stop offset=".187" style="stop-color:#f1cd2f"/>
    <stop offset=".286" style="stop-color:#e6b82f"/>
    <stop offset=".317" style="stop-color:#e6b932"/>
    <stop offset=".339" style="stop-color:#e7bc3b"/>
    <stop offset=".357" style="stop-color:#e9c14a"/>
    <stop offset=".374" style="stop-color:#ecc960"/>
    <stop offset=".389" style="stop-color:#efd27b"/>
    <stop offset=".404" style="stop-color:#f3de9e"/>
    <stop offset=".418" style="stop-color:#f8ecc6"/>
    <stop offset=".431" style="stop-color:#fefbf4"/>
    <stop offset=".434" style="stop-color:#fff"/>
    <stop offset=".447" style="stop-color:#faf2d9"/>
    <stop offset=".463" style="stop-color:#f6e4b1"/>
    <stop offset=".48" style="stop-color:#f1d88e"/>
    <stop offset=".499" style="stop-color:#eece70"/>
    <stop offset=".52" style="stop-color:#ebc658"/>
    <stop offset=".544" style="stop-color:#e9c046"/>
    <stop offset=".571" style="stop-color:#e7bb39"/>
    <stop offset=".608" style="stop-color:#e6b931"/>
    <stop offset=".682" style="stop-color:#e6b82f"/>
    <stop offset=".741" style="stop-color:#fff"/>
    <stop offset=".747" style="stop-color:#fdfaf1"/>
    <stop offset=".769" style="stop-color:#f8ebc4"/>
    <stop offset=".793" style="stop-color:#f3dd9c"/>
    <stop offset=".818" style="stop-color:#efd27a"/>
    <stop offset=".845" style="stop-color:#ecc85f"/>
    <stop offset=".874" style="stop-color:#e9c149"/>
    <stop offset=".905" style="stop-color:#e7bc3a"/>
    <stop offset=".943" style="stop-color:#e6b932"/>
    <stop offset="1" style="stop-color:#e6b82f"/>
  </linearGradient>
  <path fill="url(#z)" d="M37.984 56.323a3.539 3.539 0 0 1-2.939-1.562l-3.026-4.483a3.532 3.532 0 0 1-.445-.927c-1.208.145-2.457.271-3.741.38a3.544 3.544 0 0 1-3.51-2.037l-.202-.434a3.544 3.544 0 0 1 1.456-4.571 3.537 3.537 0 0 1-.489-.977l-.324-1.012a3.543 3.543 0 0 1 2.456-4.501 3.546 3.546 0 0 1 2.459-3.494v-5.771h-.934a3.545 3.545 0 0 1-3.376-2.467l-.323-1.012a3.546 3.546 0 0 1 3.376-4.62h9.867a3.542 3.542 0 0 1 1.4-3.197l.241-.181a3.543 3.543 0 0 1 1.479-.648c1.4-.259 2.692-.39 3.841-.39 5.548 0 7 3.006 7.374 4.416h2.675l1.719-2.099a3.537 3.537 0 0 1 2.744-1.299c.722 0 1.449.22 2.075.672.133.096 3.272 2.369 5.202 3.987a3.544 3.544 0 0 1 1.113 3.748c-.366 1.201-1.367 2.469-3.133 2.919a3.545 3.545 0 0 1-.96 2.073 5.438 5.438 0 0 1-.471.44v3.295c.536.334 1.077.683 1.567 1.02a3.541 3.541 0 0 1 1.535 3.061c.248.162.487.321.714.476a3.545 3.545 0 0 1 1.477 3.632c-.26 1.281-1.231 2.738-3.136 3.238.197.015.39.027.578.039a3.543 3.543 0 0 1 3.314 3.536v.4a3.542 3.542 0 0 1-2.583 3.41c-.373.105-1.246.352-1.611 2.038a3.547 3.547 0 0 1-3.463 2.793c-.296 0-.594-.037-.886-.112-4.322-1.116-8.599-2.699-11.877-6.103a146.072 146.072 0 0 1-8.139 4.87 6.922 6.922 0 0 1-1.37 1.004 3.512 3.512 0 0 1-1.724.45z"/>
  <linearGradient id="A" x1="55.583" x2="119.572" y1="74.361" y2="-1.897" gradientUnits="userSpaceOnUse">
    <stop offset="0" style="stop-color:#fde32f"/>
    <stop offset=".082" style="stop-color:#fadd2f"/>
    <stop offset=".187" style="stop-color:#f1cd2f"/>
    <stop offset=".286" style="stop-color:#e6b82f"/>
    <stop offset=".317" style="stop-color:#e6b932"/>
    <stop offset=".339" style="stop-color:#e7bc3b"/>
    <stop offset=".357" style="stop-color:#e9c14a"/>
    <stop offset=".374" style="stop-color:#ecc960"/>
    <stop offset=".389" style="stop-color:#efd27b"/>
    <stop offset=".404" style="stop-color:#f3de9e"/>
    <stop offset=".418" style="stop-color:#f8ecc6"/>
    <stop offset=".431" style="stop-color:#fefbf4"/>
    <stop offset=".434" style="stop-color:#fff"/>
    <stop offset=".447" style="stop-color:#faf2d9"/>
    <stop offset=".463" style="stop-color:#f6e4b1"/>
    <stop offset=".48" style="stop-color:#f1d88e"/>
    <stop offset=".499" style="stop-color:#eece70"/>
    <stop offset=".52" style="stop-color:#ebc658"/>
    <stop offset=".544" style="stop-color:#e9c046"/>
    <stop offset=".571" style="stop-color:#e7bb39"/>
    <stop offset=".608" style="stop-color:#e6b931"/>
    <stop offset=".682" style="stop-color:#e6b82f"/>
    <stop offset=".741" style="stop-color:#fff"/>
    <stop offset=".747" style="stop-color:#fdfaf1"/>
    <stop offset=".769" style="stop-color:#f8ebc4"/>
    <stop offset=".793" style="stop-color:#f3dd9c"/>
    <stop offset=".818" style="stop-color:#efd27a"/>
    <stop offset=".845" style="stop-color:#ecc85f"/>
    <stop offset=".874" style="stop-color:#e9c149"/>
    <stop offset=".905" style="stop-color:#e7bc3a"/>
    <stop offset=".943" style="stop-color:#e6b932"/>
    <stop offset="1" style="stop-color:#e6b82f"/>
  </linearGradient>
  <path fill="url(#A)" d="M74.331 56.251a3.543 3.543 0 0 1-3.543-3.543V38.974l-3.202-4.436a3.544 3.544 0 0 1 1.141-5.165l.044-.025V18.366a3.545 3.545 0 0 1 3.849-3.53l7.098.614a3.542 3.542 0 0 1 3.153 2.762c.281.054.558.143.823.267v-.042a3.545 3.545 0 0 1 3.808-3.533l6.774.506a3.544 3.544 0 0 1 3.256 3.135 3.55 3.55 0 0 1 3.693.35c.128.096 3.154 2.376 4.964 3.964a3.543 3.543 0 0 1 1.056 3.69 4.241 4.241 0 0 1-.472 1.031l.009.205c1.268 1.013 1.907 2.36 1.907 4.028 0 3.142-1.923 4.705-4.414 5.483a3.543 3.543 0 0 1-.398 3.94 5.11 5.11 0 0 1-.755.734v9.326c0 .162-.011.324-.033.484-.58 4.205-8.149 4.253-8.472 4.253H93.61a3.544 3.544 0 0 1-3.417-2.604h-7.238c-1.91 2.283-6.356 2.82-7.779 2.82h-.845z"/>
  <linearGradient id="B" x1="55.583" x2="119.572" y1="74.361" y2="-1.897" gradientUnits="userSpaceOnUse">
    <stop offset="0" style="stop-color:#fde32f"/>
    <stop offset=".082" style="stop-color:#fadd2f"/>
    <stop offset=".187" style="stop-color:#f1cd2f"/>
    <stop offset=".286" style="stop-color:#e6b82f"/>
    <stop offset=".317" style="stop-color:#e6b932"/>
    <stop offset=".339" style="stop-color:#e7bc3b"/>
    <stop offset=".357" style="stop-color:#e9c14a"/>
    <stop offset=".374" style="stop-color:#ecc960"/>
    <stop offset=".389" style="stop-color:#efd27b"/>
    <stop offset=".404" style="stop-color:#f3de9e"/>
    <stop offset=".418" style="stop-color:#f8ecc6"/>
    <stop offset=".431" style="stop-color:#fefbf4"/>
    <stop offset=".434" style="stop-color:#fff"/>
    <stop offset=".447" style="stop-color:#faf2d9"/>
    <stop offset=".463" style="stop-color:#f6e4b1"/>
    <stop offset=".48" style="stop-color:#f1d88e"/>
    <stop offset=".499" style="stop-color:#eece70"/>
    <stop offset=".52" style="stop-color:#ebc658"/>
    <stop offset=".544" style="stop-color:#e9c046"/>
    <stop offset=".571" style="stop-color:#e7bb39"/>
    <stop offset=".608" style="stop-color:#e6b931"/>
    <stop offset=".682" style="stop-color:#e6b82f"/>
    <stop offset=".741" style="stop-color:#fff"/>
    <stop offset=".747" style="stop-color:#fdfaf1"/>
    <stop offset=".769" style="stop-color:#f8ebc4"/>
    <stop offset=".793" style="stop-color:#f3dd9c"/>
    <stop offset=".818" style="stop-color:#efd27a"/>
    <stop offset=".845" style="stop-color:#ecc85f"/>
    <stop offset=".874" style="stop-color:#e9c149"/>
    <stop offset=".905" style="stop-color:#e7bc3a"/>
    <stop offset=".943" style="stop-color:#e6b932"/>
    <stop offset="1" style="stop-color:#e6b82f"/>
  </linearGradient>
  <path fill="url(#B)" d="M112.372 56.178a3.543 3.543 0 0 1-3.543-3.543V41.011a3.549 3.549 0 0 1-2.697-.448l-.404-.254a3.542 3.542 0 0 1-1.057-4.976c3.093-4.607 5.842-11.554 7.003-17.697a3.547 3.547 0 0 1 4.411-2.762l7.985 2.17a3.547 3.547 0 0 1 2.455 2.369h7.597l1.966-2.323a3.54 3.54 0 0 1 4.746-.609c.142.101 3.505 2.472 5.587 4.152a3.545 3.545 0 0 1 1.168 3.782 4.295 4.295 0 0 1-2.795 2.828c1.213.873 2.844 2.069 4.05 3.045a3.543 3.543 0 0 1 1.165 3.778c-.567 1.883-2.358 3.099-4.563 3.099h-5.303c8.229 3.541 10.597 8.951 9.996 12.804-.515 3.304-3.148 5.611-6.406 5.612h-.001c-1.584 0-3.206-.556-4.691-1.607a3.545 3.545 0 0 1-1.411-2.126 12.452 12.452 0 0 0-.104-.438c-3.318.77-7.668 1.711-12.808 2.672a6.287 6.287 0 0 1-2.533 1.278 3.546 3.546 0 0 1-2.921-.595c-2.41 1.331-5.753 1.415-5.803 1.415h-1.089zm9.312-16.494a34.776 34.776 0 0 0 1.68-2.52h-1.68v2.52zm14.664-10.62 1.32-1.552h-14.486a3.53 3.53 0 0 1-.722-.074c.031.055.062.11.091.167.232.458.36.956.381 1.459h13.416z"/>
  <linearGradient id="C" x1="92.272" x2="82.781" y1="9.016" y2="62.838" gradientUnits="userSpaceOnUse">
    <stop offset="0" style="stop-color:#e606b9"/>
    <stop offset=".175" style="stop-color:#401dd0"/>
    <stop offset=".282" style="stop-color:#421dd0"/>
    <stop offset=".324" style="stop-color:#491ccf"/>
    <stop offset=".354" style="stop-color:#551acd"/>
    <stop offset=".379" style="stop-color:#6618cb"/>
    <stop offset=".4" style="stop-color:#7d15c8"/>
    <stop offset=".419" style="stop-color:#9811c4"/>
    <stop offset=".437" style="stop-color:#b90cbf"/>
    <stop offset=".452" style="stop-color:#de07ba"/>
    <stop offset=".455" style="stop-color:#e606b9"/>
    <stop offset=".582" style="stop-color:#9411c4"/>
    <stop offset=".72" style="stop-color:#401dd0"/>
    <stop offset=".753" style="stop-color:#461ccf"/>
    <stop offset=".8" style="stop-color:#581acd"/>
    <stop offset=".854" style="stop-color:#7516c9"/>
    <stop offset=".914" style="stop-color:#9e10c3"/>
    <stop offset=".977" style="stop-color:#d209bc"/>
    <stop offset="1" style="stop-color:#e606b9"/>
  </linearGradient>
  <path fill="url(#C)" d="M37.983 54.905a2.124 2.124 0 0 1-1.764-.937l-3.026-4.483a2.128 2.128 0 0 1-.294-1.729l.001-.004c-1.647.225-3.38.413-5.187.565a2.128 2.128 0 0 1-2.107-1.221l-.202-.434a2.128 2.128 0 0 1 1.476-2.974 47.126 47.126 0 0 0 3.589-.93h-2.008a2.125 2.125 0 0 1-2.025-1.479l-.324-1.013a2.126 2.126 0 0 1 2.025-2.773h.842l-.245-.771a2.125 2.125 0 0 1 2.026-2.77h.334v-8.437h-2.352a2.125 2.125 0 0 1-2.025-1.48l-.323-1.012a2.127 2.127 0 0 1 2.025-2.772h12.214a2.373 2.373 0 0 0-.102-.08 2.127 2.127 0 0 1 .009-3.399l.241-.181c.262-.196.566-.329.888-.389 1.315-.244 2.521-.367 3.583-.367 5.033 0 5.914 2.782 6.064 3.634.046.261.063.523.054.782h4.603l2.144-2.619a2.124 2.124 0 0 1 2.891-.376c.131.095 3.23 2.339 5.122 3.925.654.548.917 1.433.668 2.249-.149.489-.82 2.085-3.203 2.085h-.161a2.13 2.13 0 0 1-.399 2.343c-.21.22-.494.467-.863.69v4.816c.719.437 1.508.932 2.182 1.395a2.125 2.125 0 0 1 .832 2.366c-.02.067-.043.134-.069.201.52.328 1.034.661 1.49.972a2.126 2.126 0 0 1 .886 2.179c-.223 1.103-1.183 2.28-3.207 2.283l.016.07a2.13 2.13 0 0 1-.313 1.625 3.026 3.026 0 0 1-.707.749 72.66 72.66 0 0 0 2.95.247c1.119.072 1.989 1 1.989 2.121v.4c0 .952-.633 1.788-1.549 2.046-1.391.393-2.245 1.407-2.612 3.103a2.126 2.126 0 0 1-2.61 1.608c-4.989-1.289-9.088-3.049-11.999-6.571a144.03 144.03 0 0 1-9.221 5.562 5.558 5.558 0 0 1-1.21.916 2.136 2.136 0 0 1-1.037.269z"/>
  <linearGradient id="D" x1="92.272" x2="82.781" y1="9.016" y2="62.838" gradientUnits="userSpaceOnUse">
    <stop offset="0" style="stop-color:#e606b9"/>
    <stop offset=".175" style="stop-color:#401dd0"/>
    <stop offset=".282" style="stop-color:#421dd0"/>
    <stop offset=".324" style="stop-color:#491ccf"/>
    <stop offset=".354" style="stop-color:#551acd"/>
    <stop offset=".379" style="stop-color:#6618cb"/>
    <stop offset=".4" style="stop-color:#7d15c8"/>
    <stop offset=".419" style="stop-color:#9811c4"/>
    <stop offset=".437" style="stop-color:#b90cbf"/>
    <stop offset=".452" style="stop-color:#de07ba"/>
    <stop offset=".455" style="stop-color:#e606b9"/>
    <stop offset=".582" style="stop-color:#9411c4"/>
    <stop offset=".72" style="stop-color:#401dd0"/>
    <stop offset=".753" style="stop-color:#461ccf"/>
    <stop offset=".8" style="stop-color:#581acd"/>
    <stop offset=".854" style="stop-color:#7516c9"/>
    <stop offset=".914" style="stop-color:#9e10c3"/>
    <stop offset=".977" style="stop-color:#d209bc"/>
    <stop offset="1" style="stop-color:#e606b9"/>
  </linearGradient>
  <path fill="url(#D)" d="M74.331 54.834a2.126 2.126 0 0 1-2.126-2.126V38.516l-3.47-4.808a2.128 2.128 0 0 1 .684-3.099c.394-.221.629-.371.767-.468l.002-11.776a2.127 2.127 0 0 1 2.309-2.118l7.098.614a2.125 2.125 0 0 1 1.92 2.431 3.306 3.306 0 0 1-.089.417 2.115 2.115 0 0 1 2.049.283c.059.044.743.56 1.636 1.255v-2.811a2.124 2.124 0 0 1 2.284-2.12l6.774.506a2.127 2.127 0 0 1 1.938 2.478 3.065 3.065 0 0 1-1.26 1.991v1.67h.556l2.025-2.556a2.122 2.122 0 0 1 2.944-.379c.126.095 3.111 2.344 4.882 3.897.628.55.875 1.416.634 2.214a2.926 2.926 0 0 1-.554 1.011l.063 1.373c.917.566 1.875 1.547 1.875 3.291 0 3.243-2.795 4.312-6.006 4.663l1.082.736a2.127 2.127 0 0 1 .438 3.117 3.894 3.894 0 0 1-1.082.89v10.077c0 .098-.007.194-.02.291-.4 2.899-7.002 3.029-7.068 3.029H93.61a2.126 2.126 0 0 1-2.126-2.126v-.478h-9.301c-1.068 2.103-5.385 2.82-7.007 2.82h-.845zm17.153-8.084v-.377h-9.059v.377h9.059zm0-5.642v-.084h-9.059v.084h9.059zM80.046 29.141c1.649-.246 3.374-.515 5.065-.792v-.158h-5.065v.95z"/>
  <linearGradient id="E" x1="92.272" x2="82.781" y1="9.016" y2="62.838" gradientUnits="userSpaceOnUse">
    <stop offset="0" style="stop-color:#e606b9"/>
    <stop offset=".175" style="stop-color:#401dd0"/>
    <stop offset=".282" style="stop-color:#421dd0"/>
    <stop offset=".324" style="stop-color:#491ccf"/>
    <stop offset=".354" style="stop-color:#551acd"/>
    <stop offset=".379" style="stop-color:#6618cb"/>
    <stop offset=".4" style="stop-color:#7d15c8"/>
    <stop offset=".419" style="stop-color:#9811c4"/>
    <stop offset=".437" style="stop-color:#b90cbf"/>
    <stop offset=".452" style="stop-color:#de07ba"/>
    <stop offset=".455" style="stop-color:#e606b9"/>
    <stop offset=".582" style="stop-color:#9411c4"/>
    <stop offset=".72" style="stop-color:#401dd0"/>
    <stop offset=".753" style="stop-color:#461ccf"/>
    <stop offset=".8" style="stop-color:#581acd"/>
    <stop offset=".854" style="stop-color:#7516c9"/>
    <stop offset=".914" style="stop-color:#9e10c3"/>
    <stop offset=".977" style="stop-color:#d209bc"/>
    <stop offset="1" style="stop-color:#e606b9"/>
  </linearGradient>
  <path fill="url(#E)" d="M112.372 54.761a2.126 2.126 0 0 1-2.126-2.126V38.641c-.352.238-.713.476-1.085.713a2.12 2.12 0 0 1-2.275.009l-.404-.254a2.126 2.126 0 0 1-.634-2.985c3.191-4.754 6.025-11.908 7.219-18.225a2.121 2.121 0 0 1 2.089-1.731c.187 0 .374.024.558.074l7.985 2.17a2.127 2.127 0 0 1 1.536 2.418h9.544l2.391-2.825a2.122 2.122 0 0 1 2.848-.365c.141.099 3.467 2.445 5.514 4.096.674.543.95 1.441.7 2.269-.147.49-.816 2.09-3.205 2.09h-19.845a2.118 2.118 0 0 1-1.398-.525c-.354.674-.72 1.325-1.097 1.955a2.123 2.123 0 0 1 .721 2.362 2.972 2.972 0 0 1-.274.596h15.87l2.468-2.901a2.122 2.122 0 0 1 2.836-.367c.145.101 3.556 2.484 5.646 4.175.672.543.948 1.439.698 2.267-.389 1.29-1.617 2.091-3.205 2.091H138.3a2.131 2.131 0 0 1-.063 1.549 2.855 2.855 0 0 1-.296.52c8.813 3.199 11.355 8.362 10.799 11.934-.404 2.599-2.463 4.413-5.006 4.414h-.001c-1.289 0-2.628-.466-3.872-1.348a2.13 2.13 0 0 1-.847-1.274 18.134 18.134 0 0 0-.51-1.818 300.66 300.66 0 0 1-14.424 3.035c-.667.615-1.424 1.032-2.223 1.222a2.124 2.124 0 0 1-2.384-1.102c-1.498 1.41-4.71 1.884-6.013 1.884h-1.088zm21.614-13.833a53.367 53.367 0 0 1-3.463 2.975c1.67-.005 3.448-.014 5.287-.024a48.639 48.639 0 0 0-1.824-2.951zm-13.719 2.456c1.608-1.268 3.97-4.613 5.51-7.637h-5.51v7.637z"/>
  <g fill="#FFF">
    <path d="M37.983 53.979c-.387 0-.765-.188-.996-.529l-3.026-4.483a1.203 1.203 0 0 1 .457-1.745c.922-.462 1.346-.732 1.54-.885-2.532.45-5.324.806-8.323 1.058a1.2 1.2 0 0 1-1.188-.689l-.202-.434a1.198 1.198 0 0 1 .833-1.679c3.054-.663 6.013-1.621 8.584-2.76h-7.199a1.2 1.2 0 0 1-1.143-.835l-.324-1.013a1.198 1.198 0 0 1 1.143-1.565h14.33v-.13H31.083c-.522 0-.985-.339-1.144-.837l-.322-1.012a1.2 1.2 0 0 1 1.144-1.564h1.26V24.59h-3.277a1.2 1.2 0 0 1-1.143-.835l-.323-1.012a1.198 1.198 0 0 1 1.143-1.565H42.58c-.405-.714-.982-1.364-1.489-1.746a1.201 1.201 0 0 1 .002-1.919l.241-.181c.148-.111.319-.186.501-.22 1.26-.233 2.409-.351 3.415-.351 4.194 0 5 2.006 5.152 2.869a2.927 2.927 0 0 1-.155 1.547h6.162l2.421-2.958a1.197 1.197 0 0 1 1.632-.212c.13.094 3.204 2.319 5.07 3.884a1.2 1.2 0 0 1 .377 1.269c-.131.43-.619 1.429-2.317 1.429h-2.64l1.206.801a1.2 1.2 0 0 1 .204 1.827c-.239.25-.601.544-1.119.765v5.745c0 .053-.003.104-.008.154a51.13 51.13 0 0 1 2.592 1.64 1.2 1.2 0 0 1 .47 1.336c-.09.298-.244.556-.452.768.76.468 1.564.979 2.238 1.438.399.271.596.757.5 1.229-.073.361-.456 1.541-2.306 1.541h-2.09l.672.423a1.202 1.202 0 0 1 .358 1.684c-.294.439-.868.963-1.93.963-.178 0-.366-.014-.568-.042-.614.177-1.313.366-2.065.561 2.049.45 4.5.758 7.515.953a1.2 1.2 0 0 1 1.123 1.197v.4a1.2 1.2 0 0 1-.875 1.155c-1.727.486-2.826 1.764-3.266 3.797a1.2 1.2 0 0 1-1.473.909c-5.09-1.314-9.212-3.134-12.016-6.928a1.185 1.185 0 0 1-11.679 7.074zm6.2-8.664c1.354-.275 2.708-.568 3.995-.863a19.35 19.35 0 0 1-.706-1.622 30.095 30.095 0 0 1-3.29 1.403v1.082zm6.991-3.481c.407.407.859.781 1.359 1.124.329-.368.658-.749.973-1.124h-2.332zm6.364-3.413.133-.13h-7.196v.13h7.063zm-4.341-6.833v-.274h-2.722v.274h2.722zm-10.728 0v-.274h-2.521v.274h2.521zm10.728-3.687v-.31h-2.722v.31h2.722zm-10.728 0v-.31h-2.521v.31h2.521zM74.331 53.908a1.2 1.2 0 0 1-1.2-1.2V38.2a1.417 1.417 0 0 1-.097-.118l-3.548-4.916a1.198 1.198 0 0 1 .386-1.749c1.242-.696 1.242-.827 1.242-1.087V18.366a1.199 1.199 0 0 1 1.304-1.195l7.098.614a1.196 1.196 0 0 1 1.083 1.372c-.128.859-.624 1.462-1.478 1.801v2.645l2.141-2.663a1.197 1.197 0 0 1 1.657-.206c.089.067 1.617 1.218 3.119 2.428v-4.723a1.197 1.197 0 0 1 1.2-1.2c.03 0 .06.001.089.003l6.775.506a1.2 1.2 0 0 1 1.092 1.399c-.093.549-.401 1.212-1.272 1.622v3.121h1.93l2.303-2.907a1.199 1.199 0 0 1 1.662-.214c.125.094 3.083 2.323 4.828 3.854.354.311.494.799.357 1.25a1.907 1.907 0 0 1-.61.917l.104 2.298c1.03.5 1.852 1.25 1.852 2.728 0 3.163-3.407 3.785-7.861 3.891l3.342 2.274a1.2 1.2 0 0 1 .248 1.76c-.241.29-.645.641-1.296.9v10.658c0 .055-.004.109-.012.164-.261 1.889-6.092 2.23-6.15 2.23H93.61a1.2 1.2 0 0 1-1.2-1.2V51.09H81.497c-.115 1.825-4.205 2.82-6.32 2.82h-.846zm18.079-6.232v-2.229H81.5v2.229h10.91zm0-5.642v-1.936H81.5v1.936h10.91zm.301-5.348.968-.961h-.997c-.196 0-.388-.002-.574-.005-.211.365-.558.715-1.117.967h1.72zm-11.099 0c.069-.635.135-1.317.19-1.964-.832.434-1.74.896-2.718 1.379l1.736.585h.792zm4.734-3.768a5.28 5.28 0 0 1-.157-.605c-.249.145-.525.303-.826.474l.983.131zm-7.225-2.705c2.213-.321 4.613-.695 6.917-1.079v-1.875c-.069.004-.14.006-.212.006h-6.705v2.948zm18.038-1.191c.969 0 1.971 0 2.408-.033.297-.003.403-.03.46-.062.224-.283.568-.847.961-1.626h-7.066v1.721h3.237zM112.372 53.835a1.2 1.2 0 0 1-1.2-1.2V36.848a41.747 41.747 0 0 1-2.509 1.726 1.204 1.204 0 0 1-1.285.004l-.404-.254a1.2 1.2 0 0 1-.357-1.686c3.256-4.85 6.145-12.138 7.36-18.568a1.199 1.199 0 0 1 1.493-.935l7.985 2.17a1.203 1.203 0 0 1 .788 1.633 2.235 2.235 0 0 1-.605.817h11.571l2.668-3.153a1.198 1.198 0 0 1 1.607-.206c.14.098 3.441 2.427 5.466 4.06a1.2 1.2 0 0 1 .395 1.281c-.13.431-.615 1.432-2.318 1.432h-19.845c-.522 0-.985-.338-1.144-.836l-.262-.822a40.088 40.088 0 0 1-2.434 4.425l.411.13c.307.097.562.313.707.601.146.287.171.62.068.925-.225.672-.711 1.039-1.188 1.248v.572a1.33 1.33 0 0 1 .09-.003h18l2.745-3.227a1.197 1.197 0 0 1 1.601-.207c.144.1 3.528 2.465 5.595 4.135a1.2 1.2 0 0 1 .394 1.279c-.27.897-1.137 1.433-2.318 1.433h-9.865l1.189.52c.292.127.521.366.638.663.115.297.108.627-.02.919-.319.727-1.058 1.186-2.005 1.262l-.319.351c.015-.009.407-.205.407-.205a1.207 1.207 0 0 1 .902-.07c9.294 2.97 11.977 7.969 11.45 11.347-.338 2.171-1.981 3.63-4.091 3.631h-.001c-1.097 0-2.25-.407-3.336-1.177a1.207 1.207 0 0 1-.479-.72 21.08 21.08 0 0 0-.817-2.713c-3.573.861-8.89 2.055-15.464 3.27-.596.606-1.277 1.012-1.993 1.182a1.201 1.201 0 0 1-1.421-.809l-.882-2.807v1.724c0 .08-.008.16-.024.238-.316 1.559-4.034 2.409-5.855 2.409h-1.089zm22.194-14.774c-1.845 1.9-4.304 3.977-6.821 5.773 2.841-.001 6.151-.019 9.628-.039a49.995 49.995 0 0 0-2.723-4.539 1.203 1.203 0 0 1-.084-1.195zm-15.225 5.62c.486-.091 1.04-.25 1.193-.345 1.968-1.335 5.115-5.887 6.708-9.515h-7.489c-.144 0-.283-.026-.412-.073v9.933z"/>
  </g>
  <linearGradient id="F" x1="52.145" x2="42.236" y1="16.939" y2="53.919" gradientUnits="userSpaceOnUse">
    <stop offset="0" style="stop-color:#401dd0"/>
    <stop offset=".397" style="stop-color:#e606b9"/>
    <stop offset=".746" style="stop-color:#401dd0"/>
    <stop offset=".758" style="stop-color:#561acd"/>
    <stop offset=".781" style="stop-color:#7c15c8"/>
    <stop offset=".807" style="stop-color:#9d10c3"/>
    <stop offset=".834" style="stop-color:#b80cbf"/>
    <stop offset=".863" style="stop-color:#cc0abd"/>
    <stop offset=".896" style="stop-color:#db08bb"/>
    <stop offset=".936" style="stop-color:#e306b9"/>
    <stop offset="1" style="stop-color:#e606b9"/>
  </linearGradient>
  <path fill="url(#F)" d="M62.222 43.272c-.241.36-.645.541-1.572.36-1.735.508-4.195 1.122-6.454 1.627 3.267 1.447 7.462 2.025 11.898 2.313v.4c-2.177.613-3.589 2.275-4.113 4.698-7.14-1.844-11.657-4.519-13.834-11.567-1.493.868-3.228 1.628-5.164 2.277v3.397a167.74 167.74 0 0 0 5.929-1.265l.081.397a141.146 141.146 0 0 1-10.083 6.108c-.282.326-.605.58-.927.76l-3.026-4.483c2.017-1.011 2.339-1.408 2.339-2.133v-1.3c-3.024.612-6.332 1.048-9.76 1.337l-.202-.434c5.324-1.156 9.962-3.072 13.108-5.133H28.463l-.324-1.013h15.53v-2.53H31.083l-.322-1.012h12.907v-2.278h-4.921v.506c0 .434-2.501 1.483-4.76 1.483h-.766v-12.4l5.848 1.988h14.924l2.097-1.988H28.745l-.323-1.012h16.375c-.201-.072-.362-.145-.564-.217-.282-1.446-1.412-2.929-2.42-3.688l.241-.181c8.592-1.59 8.269 3 5.284 4.085h9.641l2.782-3.398s3.147 2.276 5.002 3.832c-.121.397-.565.579-1.169.579H56.98l4.516 3.001c-.241.253-.685.578-1.451.686v6.651c0 .109-.323.253-.767.398 1.009.578 2.662 1.554 3.872 2.385-.12.398-.564.579-1.129.579H49.275v2.53h8.753l2.582-2.53s2.944 1.699 4.799 2.964c-.081.397-.524.579-1.13.579h-6.25l4.193 2.642zM38.748 26.391v2.71h4.921v-2.71h-4.921zm4.921 6.398v-2.675h-4.921v2.675h4.921zm5.122 7.918c.968 1.625 2.299 2.856 3.953 3.796 1.129-1.194 2.38-2.712 3.267-3.869h-7.099l-.121.073zm.484-14.316v2.71h5.123v-2.71h-5.123zm5.122 3.723h-5.123v2.675h5.123v-2.675zm-5.122 5.965h6.494l1.532-1.447c-.686.108-1.331.181-1.895.181h-1.008v-1.012h-5.123v2.278z"/>
  <linearGradient id="G" x1="90.66" x2="80.901" y1="18.047" y2="54.469" gradientUnits="userSpaceOnUse">
    <stop offset="0" style="stop-color:#401dd0"/>
    <stop offset=".046" style="stop-color:#481ccf"/>
    <stop offset=".119" style="stop-color:#5f19cc"/>
    <stop offset=".21" style="stop-color:#8513c6"/>
    <stop offset=".314" style="stop-color:#b80cbf"/>
    <stop offset=".397" style="stop-color:#e606b9"/>
    <stop offset=".746" style="stop-color:#401dd0"/>
    <stop offset=".776" style="stop-color:#491ccf"/>
    <stop offset=".824" style="stop-color:#6118cb"/>
    <stop offset=".884" style="stop-color:#8913c6"/>
    <stop offset=".954" style="stop-color:#bf0bbe"/>
    <stop offset="1" style="stop-color:#e606b9"/>
  </linearGradient>
  <path fill="url(#G)" d="m95.787 35.319 5.365 3.651c-.241.29-.727.614-1.573.759v11.567c-.04.29-2.985 1.194-4.962 1.194H93.61v-2.604H80.299v1.121c0 .506-2.621 1.699-5.123 1.699h-.846V37.163c-.122.072-.202.145-.324.217l-3.548-4.916c1.613-.904 1.855-1.302 1.855-2.134V18.366l7.098.614c-.081.542-.442.904-1.491 1.048v5.025h1.573l2.703-3.362s3.024 2.277 4.758 3.795c-.121.398-.564.578-1.129.578H77.92v5.531c2.581-.361 5.646-.831 8.671-1.338l.041.398c-2.097 1.266-5.849 3.362-10.729 5.639l4.719 1.591h2.056c.162-1.266.323-2.964.404-4.193l8.107 1.084c-.122.652-.727.941-1.613 1.049-.93.542-2.38 1.374-3.63 2.06h7.259l2.582-2.566zm-15.488 3.579v4.336H93.61v-4.336H80.299zm13.311 9.978v-4.629H80.299v4.629H93.61zm9.721-18.98c1.451.542 1.815 1.049 1.815 1.917 0 1.987-2.018 2.71-8.632 2.71h-3.833c-4.437 0-5.444-.832-5.444-3.94V18.438l6.774.506c-.08.47-.442.796-1.29.94v5.204h3.71l2.663-3.362s3.027 2.278 4.759 3.797c-.12.397-.522.578-1.128.578H92.722v3.434c0 .506.202.688 1.251.688h3.187c1.009 0 2.017 0 2.5-.037.526 0 .887-.108 1.212-.397.442-.506 1.17-1.772 1.895-3.47h.403l.161 3.577z"/>
  <linearGradient id="H" x1="133.915" x2="123.831" y1="18.07" y2="55.706" gradientUnits="userSpaceOnUse">
    <stop offset="0" style="stop-color:#e606b9"/>
    <stop offset=".044" style="stop-color:#db07ba"/>
    <stop offset=".121" style="stop-color:#bf0bbe"/>
    <stop offset=".221" style="stop-color:#9112c5"/>
    <stop offset=".339" style="stop-color:#521acd"/>
    <stop offset=".37" style="stop-color:#401dd0"/>
    <stop offset=".698" style="stop-color:#e606b9"/>
    <stop offset=".897" style="stop-color:#7616c9"/>
    <stop offset="1" style="stop-color:#401dd0"/>
  </linearGradient>
  <path fill="url(#H)" d="M123.142 20.463c-.202.469-.727.759-1.652.759-1.17 2.747-2.503 5.205-4.035 7.374l1.938.614c-.121.361-.444.579-1.251.723v21.254c-.081.399-2.421 1.447-4.68 1.447h-1.089V34.343c-1.37 1.193-2.822 2.241-4.354 3.219l-.404-.254c3.106-4.627 6.211-11.965 7.543-19.015l7.984 2.17zm12.867 18.94c15.729 5.025 11.051 15.907 5.081 11.678-.28-1.266-.725-2.567-1.25-3.868-4.113 1.012-9.923 2.313-16.819 3.578-.483.58-1.048.977-1.653 1.12l-1.896-6.034s1.251-.218 1.733-.546c2.662-1.807 6.574-7.988 7.786-11.71h-9.238l-.322-1.014h18.555l3.104-3.65s3.47 2.421 5.526 4.084c-.12.398-.605.579-1.17.579h-15.61l6.454 2.819c-.159.362-.645.613-1.451.543-2.46 2.892-7.06 6.649-11.092 9.035 3.872.037 9.561 0 15.569-.035a51.152 51.152 0 0 0-3.671-6.398l.364-.181zm-13.15-16.447h12.906l3.027-3.578s3.387 2.386 5.403 4.013c-.12.398-.564.578-1.17.578H123.18l-.321-1.013z"/>
</svg>
