<svg xmlns="http://www.w3.org/2000/svg" xml:space="preserve" width="175" height="70">
  <linearGradient id="a" x1="59.14" x2="119.753" y1="87.212" y2="-17.774" gradientUnits="userSpaceOnUse">
    <stop offset=".016" style="stop-color:#f69e8f"/>
    <stop offset=".048" style="stop-color:#f7ab87"/>
    <stop offset=".171" style="stop-color:#fbd66d"/>
    <stop offset=".267" style="stop-color:#fef15d"/>
    <stop offset=".323" style="stop-color:#fffb57"/>
    <stop offset=".529" style="stop-color:#ffc150"/>
    <stop offset=".561" style="stop-color:#ffc350"/>
    <stop offset=".572" style="stop-color:#ffca51"/>
    <stop offset=".581" style="stop-color:#ffd552"/>
    <stop offset=".587" style="stop-color:#ffe654"/>
    <stop offset=".593" style="stop-color:#fffb57"/>
  </linearGradient>
  <path fill="url(#a)" d="M18.101,63.518c0,0,99.571,0,113.952,0c7.504,0,23.759-12.887,23.759-24.807 c0-6.283,0-18.687,0-23.197s6.253-8.86,6.253-8.86s-97.226,0-115.828,0c-9.066,0-23.916,13.209-23.916,27.063 c0,9.667,0,6.121,0,18.203C22.321,61.908,18.101,63.518,18.101,63.518z"/>
  <g fill="#FFF" opacity=".7">
    <path d="M39.998 45.556 43.944 43.897 47.494 45.556 45.68 42.004 47.494 38.453 43.746 39.875 39.998 38.453 42.05 42.004z"/>
    <path d="M39.998 45.556 43.944 43.897 47.494 45.556 45.68 42.004 47.494 38.453 43.746 39.875 39.998 38.453 42.05 42.004z"/>
    <path d="M39.998 45.556 43.944 43.897 47.494 45.556 45.68 42.004 47.494 38.453 43.746 39.875 39.998 38.453 42.05 42.004zM32.502 52.657 36.448 51 39.998 52.657 38.184 49.106 39.998 45.556 36.25 46.977 32.502 45.556 34.554 49.106zM47.494 52.657 51.439 51 54.99 52.657 53.175 49.106 54.99 45.556 51.242 46.977 47.494 45.556 49.545 49.106zM32.502 38.453 36.448 36.797 39.998 38.453 38.184 34.903 39.998 31.353 36.25 32.773 32.502 31.353 34.554 34.903zM39.998 31.353 43.944 29.696 47.494 31.353 45.68 27.802 47.494 24.251 43.746 25.671 39.998 24.251 42.05 27.802zM39.998 59.758 43.944 58.102 47.494 59.758 45.68 56.208 47.494 52.657 43.746 54.077 39.998 52.657 42.05 56.208zM54.99 59.758 58.935 58.102 62.486 59.758 60.671 56.208 62.486 52.657 58.737 54.077 54.99 52.657 57.042 56.208zM71.481 59.758 75.426 58.102 78.977 59.758 77.163 56.208 78.977 52.657 75.229 54.077 71.481 52.657 73.533 56.208zM25.007 59.758 28.952 58.102 32.502 59.758 30.688 56.208 32.502 52.657 28.755 54.077 25.007 52.657 27.058 56.208zM25.007 45.556 28.952 43.897 32.502 45.556 30.688 42.004 32.502 38.453 28.755 39.875 25.007 38.453 27.058 42.004zM25.007 31.353 28.952 29.696 32.502 31.353 30.688 27.802 32.502 24.251 28.755 25.671 25.007 24.251 27.058 27.802zM32.502 24.251 36.448 22.594 39.998 24.251 38.184 20.701 39.998 17.15 36.25 18.57 32.502 17.15 34.554 20.701zM47.494 24.251 51.439 22.594 54.99 24.251 53.175 20.701 54.99 17.15 51.242 18.57 47.494 17.15 49.545 20.701zM39.998 17.15 43.944 15.493 47.494 17.15 45.68 13.6 47.494 10.048 43.746 11.469 39.998 10.048 42.05 13.6zM55.306 17.15 59.251 15.493 62.802 17.15 60.987 13.6 62.802 10.048 59.054 11.469 55.306 10.048 57.357 13.6zM71.481 17.15 75.426 15.493 78.977 17.15 77.163 13.6 78.977 10.048 75.229 11.469 71.481 10.048 73.533 13.6zM78.977 24.251 82.922 22.594 86.473 24.251 84.658 20.701 86.473 17.15 82.725 18.57 78.977 17.15 81.029 20.701zM86.473 17.15 90.418 15.493 93.97 17.15 92.154 13.6 93.97 10.048 90.222 11.469 86.473 10.048 88.523 13.6zM86.474 59.758 90.419 58.102 93.97 59.758 92.154 56.208 93.97 52.657 90.222 54.077 86.474 52.657 88.525 56.208zM102.412 17.15 106.355 15.493 109.906 17.15 108.094 13.6 109.906 10.048 106.158 11.469 102.412 10.048 104.462 13.6zM102.412 59.758 106.355 58.102 109.906 59.758 108.094 56.208 109.906 52.657 106.158 54.077 102.412 52.657 104.462 56.208zM118.469 17.15 122.414 15.493 125.964 17.15 124.15 13.6 125.964 10.048 122.218 11.469 118.469 10.048 120.52 13.6zM118.469 59.758 122.414 58.102 125.964 59.758 124.15 56.208 125.964 52.657 122.218 54.077 118.469 52.657 120.52 56.208zM132.672 59.758 136.617 58.102 140.167 59.758 138.354 56.208 140.167 52.657 136.42 54.077 132.672 52.657 134.723 56.208zM132.672 17.15 136.617 15.493 140.167 17.15 138.354 13.6 140.167 10.048 136.42 11.469 132.672 10.048 134.723 13.6zM140.167 24.251 144.111 22.594 147.663 24.251 145.849 20.701 147.663 17.15 143.915 18.57 140.167 17.15 142.219 20.701zM147.663 17.15 151.607 15.493 155.158 17.15 153.344 13.6 155.158 10.048 151.411 11.469 147.663 10.048 149.713 13.6zM147.663 31.353 151.607 29.696 155.158 31.353 153.344 27.802 155.158 24.251 151.411 25.671 147.663 24.251 149.713 27.802zM140.167 38.453 144.111 36.797 147.663 38.453 145.849 34.903 147.663 31.353 143.915 32.773 140.167 31.353 142.219 34.903zM140.167 52.657 144.111 51 147.663 52.657 145.849 49.106 147.663 45.556 143.915 46.977 140.167 45.556 142.219 49.106zM147.663 45.556 151.607 43.897 155.158 45.556 153.344 42.004 155.158 38.453 151.411 39.875 147.663 38.453 149.713 42.004zM63.039 52.302 66.984 50.645 70.534 52.302 68.721 48.751 70.534 45.201 66.787 46.62 63.039 45.201 65.091 48.751zM86.473 31.353 90.418 29.696 93.97 31.353 92.154 27.802 93.97 24.251 90.222 25.671 86.473 24.251 88.525 27.802zM70.535 45.201 74.479 43.544 78.03 45.201 76.216 41.651 78.03 38.1 74.283 39.521 70.535 38.1 72.586 41.651zM63.039 37.923 66.984 36.266 70.534 37.923 68.721 34.373 70.534 30.822 66.787 32.242 63.039 30.822 65.091 34.373zM78.977 51.233 82.922 49.576 86.473 51.233 84.659 47.684 86.473 44.132 82.725 45.553 78.977 44.132 81.029 47.684zM86.474 44.779 90.418 43.122 93.969 44.779 92.154 41.229 93.969 37.678 90.222 39.099 86.474 37.678 88.525 41.229zM93.97 52.302 97.914 50.645 101.465 52.302 99.65 48.752 101.465 45.2 97.718 46.621 93.97 45.2 96.021 48.752zM102.412 44.779 106.357 43.122 109.908 44.779 108.094 41.229 109.908 37.678 106.16 39.099 102.412 37.678 104.464 41.229zM94.917 24.929 98.861 23.272 102.412 24.929 100.598 21.379 102.412 17.828 98.665 19.249 94.917 17.828 96.969 21.379zM109.201 25.817 113.146 24.16 116.697 25.817 114.883 22.267 116.697 18.715 112.949 20.136 109.201 18.715 111.253 22.267zM63.986 24.929 67.931 23.272 71.481 24.929 69.667 21.379 71.481 17.828 67.734 19.249 63.986 17.828 66.038 21.379z"/>
  </g>
  <linearGradient id="b" x1="38.913" x2="138.273" y1="84.529" y2="-14.831" gradientUnits="userSpaceOnUse">
    <stop offset="0" style="stop-color:#f4b2bb"/>
    <stop offset=".072" style="stop-color:#d9bede"/>
    <stop offset=".132" style="stop-color:#bfc9ff"/>
    <stop offset=".243" style="stop-color:#99ecee"/>
    <stop offset=".397" style="stop-color:#8efcd8"/>
    <stop offset=".556" style="stop-color:#a0f0a1"/>
    <stop offset=".746" style="stop-color:#f3fc9b"/>
    <stop offset="1" style="stop-color:#e89efd"/>
  </linearGradient>
  <path fill="none" stroke="url(#b)" stroke-miterlimit="10" stroke-width="2" d="M21.346,61.625c0,0,95.47,0,109.675,0 c7.412,0,22.813-11.863,22.813-23.292c0-6.021,0-17.912,0-22.235c0-4.325,3.949-7.723,3.949-7.723s-94.155,0-112.528,0 c-7.949,0-21.755,11.897-21.755,25.177c0,9.267,0,5.868,0,17.448C23.5,60.576,21.346,61.625,21.346,61.625z"/>
  <linearGradient id="c" x1="56.783" x2="120.666" y1="90.352" y2="-20.298" gradientUnits="userSpaceOnUse">
    <stop offset="0" style="stop-color:#3106d2"/>
    <stop offset=".354" style="stop-color:#b92582"/>
    <stop offset=".449" style="stop-color:#981e95"/>
    <stop offset=".655" style="stop-color:#450bc6"/>
    <stop offset=".704" style="stop-color:#3106d2"/>
    <stop offset=".764" style="stop-color:#480bc5"/>
    <stop offset=".891" style="stop-color:#8218a2"/>
    <stop offset="1" style="stop-color:#b92582"/>
  </linearGradient>
  <path fill="none" stroke="url(#c)" stroke-miterlimit="10" stroke-width="2" d="M17.363,63.46c0,0,99.983,0,114.423,0 c7.533,0,23.856-12.939,23.856-24.909c0-6.309,0-18.764,0-23.292c0-4.529,6.278-8.896,6.278-8.896s-97.627,0-116.305,0 c-9.104,0-24.015,13.264-24.015,27.174c0,9.708,0,6.147,0,18.278C21.601,61.844,17.363,63.46,17.363,63.46z"/>
  <g fill="none" stroke="#F9E978" stroke-miterlimit="10" stroke-width="5">
    <path d="M16.237 47.695c-2.78-.299-1.186 4.951 1.364 6.595 2.211 1.426 7.384 1.436 6.597-1.362M33.279 47.695c2.691-.763 1.423 4.994-1.364 6.595-2.031 1.167-7.438 1.421-6.597-1.362M18.885 37.184c-1.052-2.798-5.036.633-5.986 3.084-1.151 2.97 1.433 8.381 3.08 5.988M30.753 36.973c.515-2.748 5.003.955 5.729 3.539.73 2.596-.896 6.946-3.537 5.732M19.963 36.766c-2.013-1.941 2.132-4.761 4.763-4.761s6.552 2.471 4.764 4.761M18.93 36.008 22.801 41.783M15.052 47.17 21.695 45.189M24.74 54.043 24.592 47.291M34.318 46.881 27.487 45.189M30.492 35.86 26.382 41.783"/>
  </g>
  <linearGradient id="d" x1="25.977" x2="22.139" y1="32.757" y2="54.528" gradientUnits="userSpaceOnUse">
    <stop offset="0" style="stop-color:#2914f5"/>
    <stop offset=".518" style="stop-color:#cf07b5"/>
    <stop offset=".579" style="stop-color:#c308ba"/>
    <stop offset=".688" style="stop-color:#a20bc6"/>
    <stop offset=".835" style="stop-color:#6c0fdb"/>
    <stop offset="1" style="stop-color:#2914f5"/>
  </linearGradient>
  <path fill="none" stroke="url(#d)" stroke-miterlimit="10" stroke-width="5" d="M24.592 38.158 26.382 41.783 30.383 42.364 27.487 45.189 28.172 49.174 24.592 47.291 21.013 49.174 21.695 45.189 18.8 42.364 22.801 41.783z"/>
  <linearGradient id="e" x1="16.305" x2="33.63" y1="34.327" y2="54.974" gradientUnits="userSpaceOnUse">
    <stop offset="0" style="stop-color:#3106d2"/>
    <stop offset=".179" style="stop-color:#5d0ac7"/>
    <stop offset=".5" style="stop-color:#b311b0"/>
    <stop offset=".594" style="stop-color:#af11b1"/>
    <stop offset=".681" style="stop-color:#a410b4"/>
    <stop offset=".765" style="stop-color:#910eb9"/>
    <stop offset=".848" style="stop-color:#770cc0"/>
    <stop offset=".929" style="stop-color:#5509c9"/>
    <stop offset="1" style="stop-color:#3106d2"/>
  </linearGradient>
  <path fill="none" stroke="url(#e)" stroke-miterlimit="10" stroke-width="3" d="M36.684,42.075 c0-3.394-2.722-6.149-6.098-6.215c-0.931-2.264-3.154-3.856-5.755-3.856c-2.654,0-4.914,1.665-5.809,4.004 c-0.038,0-0.076-0.004-0.117-0.004c-3.436,0-6.221,2.783-6.221,6.221c0,2.02,0.967,3.808,2.46,4.945 c-0.2,0.61-0.312,1.26-0.312,1.938c0,3.436,2.786,6.222,6.221,6.222c1.423,0,2.729-0.483,3.78-1.286 c1.046,0.803,2.353,1.286,3.775,1.286c3.437,0,6.221-2.786,6.221-6.222c0-0.787-0.151-1.535-0.419-2.227 C35.8,45.739,36.684,44.012,36.684,42.075z"/>
  <linearGradient id="f" x1="18.633" x2="23.284" y1="36.125" y2="41.668" gradientUnits="userSpaceOnUse">
    <stop offset="0" style="stop-color:#3106d2"/>
    <stop offset="1" style="stop-color:#3106d2"/>
  </linearGradient>
  <path fill="none" stroke="url(#f)" stroke-miterlimit="10" stroke-width="3" d="M19.022 36.008 22.895 41.783"/>
  <linearGradient id="g" x1="26.134" x2="30.926" y1="41.677" y2="35.967" gradientUnits="userSpaceOnUse">
    <stop offset="0" style="stop-color:#3106d2"/>
    <stop offset=".268" style="stop-color:#5d0ac7"/>
    <stop offset=".749" style="stop-color:#b311b0"/>
  </linearGradient>
  <path fill="none" stroke="url(#g)" stroke-miterlimit="10" stroke-width="3" d="M30.586 35.86 26.475 41.783"/>
  <linearGradient id="h" x1="29.135" x2="32.856" y1="48.253" y2="43.818" gradientUnits="userSpaceOnUse">
    <stop offset="0" style="stop-color:#3106d2"/>
    <stop offset=".247" style="stop-color:#5d0ac7"/>
    <stop offset=".691" style="stop-color:#b311b0"/>
  </linearGradient>
  <path fill="none" stroke="url(#h)" stroke-miterlimit="10" stroke-width="3" d="M34.411 46.881 27.58 45.189"/>
  <linearGradient id="i" x1="22.133" x2="27.387" y1="48.827" y2="52.506" gradientUnits="userSpaceOnUse">
    <stop offset=".468" style="stop-color:#b311b0"/>
    <stop offset=".81" style="stop-color:#5d0ac7"/>
    <stop offset="1" style="stop-color:#3106d2"/>
  </linearGradient>
  <path fill="none" stroke="url(#i)" stroke-miterlimit="10" stroke-width="3" d="M24.834 54.043 24.685 47.291"/>
  <linearGradient id="j" x1="16.697" x2="20.238" y1="44.07" y2="48.289" gradientUnits="userSpaceOnUse">
    <stop offset=".127" style="stop-color:#b311b0"/>
    <stop offset=".307" style="stop-color:#960fb8"/>
    <stop offset=".78" style="stop-color:#4d08cb"/>
    <stop offset="1" style="stop-color:#3106d2"/>
  </linearGradient>
  <path fill="none" stroke="url(#j)" stroke-miterlimit="10" stroke-width="3" d="M15.145 47.17 21.789 45.189"/>
  <linearGradient id="k" x1="18.763" x2="30.01" y1="51.624" y2="38.221" gradientUnits="userSpaceOnUse">
    <stop offset="0" style="stop-color:#3106d2"/>
    <stop offset=".179" style="stop-color:#5d0ac7"/>
    <stop offset=".5" style="stop-color:#b311b0"/>
    <stop offset=".594" style="stop-color:#af11b1"/>
    <stop offset=".681" style="stop-color:#a410b4"/>
    <stop offset=".765" style="stop-color:#910eb9"/>
    <stop offset=".848" style="stop-color:#770cc0"/>
    <stop offset=".929" style="stop-color:#5509c9"/>
    <stop offset="1" style="stop-color:#3106d2"/>
  </linearGradient>
  <path fill="url(#k)" d="M24.685 48.986 19.113 51.917 20.177 45.713 15.67 41.316 21.899 40.412 24.685 34.771 27.47 40.412 33.699 41.316 29.192 45.713 30.258 51.917z"/>
  <path fill="none" stroke="#FFF" stroke-miterlimit="10" stroke-width="1.5" d="M24.685 38.158 26.475 41.783 30.477 42.364 27.58 45.189 28.265 49.174 24.685 47.291 21.105 49.174 21.789 45.189 18.893 42.364 22.895 41.783zM25.19 31.769c2.354.24 4.807 1.896 5.343 4.039M36.609 40.495c.519 2.31-.274 5.159-2.138 6.347M31.778 54.499c-2.074 1.139-5.032 1.169-6.691-.289M16.883 53.865c-1.773-1.568-2.8-4.343-1.987-6.396M12.975 39.67c.99-2.15 3.35-3.935 5.551-3.75"/>
  <path fill="#FFF" d="M29.492 37.22c0 0 .008.292-.091.658-.092.37-.286.816-.547 1.219-.267.398-.599.754-.903.984-.297.235-.569.343-.569.343s-.009-.293.09-.658c.092-.371.287-.816.548-1.219.267-.398.601-.753.904-.983C29.221 37.328 29.492 37.22 29.492 37.22zM33.272 46.18c0 0-.265.124-.639.18-.376.063-.863.064-1.336-.013-.472-.085-.931-.247-1.263-.434-.334-.179-.542-.385-.542-.385s.265-.125.64-.181c.376-.064.862-.064 1.335.014.472.085.93.249 1.263.435C33.064 45.975 33.272 46.18 33.272 46.18zM24.908 49.455c0 0 .163.243.274.605.12.361.194.843.188 1.322-.012.479-.104.957-.238 1.314-.126.357-.299.594-.299.594s-.164-.243-.275-.605c-.12-.361-.193-.843-.187-1.322.013-.479.106-.957.24-1.314C24.736 49.691 24.908 49.455 24.908 49.455zM20.145 45.685c0 0-.188.224-.506.431-.315.215-.757.42-1.219.547-.464.12-.949.165-1.33.135-.378-.022-.653-.123-.653-.123s.188-.225.505-.432c.315-.216.757-.419 1.22-.546.464-.12.95-.163 1.33-.133C19.87 45.585 20.145 45.685 20.145 45.685zM21.753 40.341c0 0-.279-.088-.592-.3-.32-.208-.679-.536-.975-.914-.291-.382-.519-.812-.638-1.174-.125-.357-.139-.65-.139-.65s.28.087.594.3c.32.207.678.536.974.914.29.382.517.813.636 1.175C21.739 40.049 21.753 40.341 21.753 40.341z"/>
  <linearGradient id="l" x1="49.052" x2="46.053" y1="44.981" y2="61.992" gradientUnits="userSpaceOnUse">
    <stop offset=".148" style="stop-color:#cf07b5"/>
    <stop offset=".245" style="stop-color:#900ccd"/>
    <stop offset=".341" style="stop-color:#5810e3"/>
    <stop offset=".411" style="stop-color:#3613f0"/>
    <stop offset=".45" style="stop-color:#2914f5"/>
    <stop offset=".554" style="stop-color:#2c14f4"/>
    <stop offset=".622" style="stop-color:#3513f1"/>
    <stop offset=".681" style="stop-color:#4412eb"/>
    <stop offset=".734" style="stop-color:#5910e3"/>
    <stop offset=".783" style="stop-color:#740ed8"/>
    <stop offset=".829" style="stop-color:#960bcb"/>
    <stop offset=".872" style="stop-color:#bd08bc"/>
    <stop offset=".889" style="stop-color:#cf07b5"/>
  </linearGradient>
  <path fill="url(#l)" stroke="#F9E978" stroke-miterlimit="10" d="M56.482,52.15c0-2.463-1.974-4.459-4.423-4.508 c-0.674-1.641-2.287-2.797-4.173-2.797c-1.925,0-3.563,1.209-4.212,2.904c-0.028,0-0.057-0.004-0.085-0.004 c-2.493,0-4.513,2.02-4.513,4.512c0,1.467,0.701,2.764,1.784,3.588c-0.146,0.441-0.226,0.914-0.226,1.404 c0,2.492,2.02,4.512,4.512,4.512c1.031,0,1.98-0.35,2.74-0.932c0.76,0.582,1.707,0.932,2.738,0.932 c2.493,0,4.514-2.02,4.514-4.512c0-0.57-0.111-1.113-0.304-1.615C55.841,54.809,56.482,53.553,56.482,52.15z"/>
  <circle cx="47.78" cy="53.744" r=".441" fill="#CF07B5" stroke="#FFF" stroke-miterlimit="10"/>
  <path fill="none" stroke="#FFF" stroke-miterlimit="10" stroke-width=".75" d="M48.048 45.811c1.551.301 2.545 1.277 3.101 2.555M40.391 50.823c.854-1.329 2.128-1.892 3.521-1.937M55.333 51.507c.057 1.579-.668 2.769-1.786 3.601M42.954 59.855c-1.029-1.201-1.205-2.581-.849-3.929M52.295 60.436c-1.52.434-2.848.014-3.923-.873"/>
  <path fill="#FFF" d="M48.048 55.578c0 0 .08.156.14.391.059.234.113.547.11.859.003.313-.049.625-.109.859s-.141.391-.141.391-.081-.156-.141-.391-.112-.547-.109-.859c-.003-.313.051-.625.11-.859C47.968 55.734 48.048 55.578 48.048 55.578zM46.021 54.641c0 0-.115.133-.31.275-.196.143-.466.309-.757.423-.289.119-.599.188-.838.219-.24.032-.415.016-.415.016s.115-.133.31-.276c.195-.143.466-.308.757-.422.289-.119.599-.186.838-.219C45.846 54.625 46.021 54.641 46.021 54.641zM46.565 52.512c0 0-.157-.078-.344-.231-.187-.153-.415-.373-.598-.626-.188-.249-.331-.531-.422-.756-.09-.224-.118-.397-.118-.397s.157.078.345.23c.188.153.415.374.598.627.188.249.33.532.421.756C46.537 52.339 46.565 52.512 46.565 52.512zM48.813 52.479c0 0 .036-.172.137-.392.101-.22.256-.496.455-.737.194-.244.431-.455.625-.6.194-.144.355-.215.355-.215s-.036.172-.136.393c-.101.22-.256.495-.455.736-.194.244-.432.454-.625.599C48.973 52.407 48.813 52.479 48.813 52.479zM49.942 54.316c0 0 .171-.036.413-.034.242.004.557.033.858.117.302.078.59.21.801.328.21.119.34.237.34.237s-.172.037-.414.034-.557-.033-.857-.117c-.302-.078-.59-.211-.801-.329C50.072 54.434 49.942 54.316 49.942 54.316z"/>
  <linearGradient id="m" x1="129.221" x2="126.221" y1="8.852" y2="25.863" gradientUnits="userSpaceOnUse">
    <stop offset=".254" style="stop-color:#2914f5"/>
    <stop offset=".294" style="stop-color:#5411e4"/>
    <stop offset=".342" style="stop-color:#800dd3"/>
    <stop offset=".387" style="stop-color:#a20ac6"/>
    <stop offset=".431" style="stop-color:#bb09bd"/>
    <stop offset=".47" style="stop-color:#ca07b7"/>
    <stop offset=".503" style="stop-color:#cf07b5"/>
    <stop offset=".54" style="stop-color:#c907b7"/>
    <stop offset=".592" style="stop-color:#b709be"/>
    <stop offset=".652" style="stop-color:#9a0bc9"/>
    <stop offset=".717" style="stop-color:#720ed9"/>
    <stop offset=".787" style="stop-color:#3f12ec"/>
    <stop offset=".815" style="stop-color:#2914f5"/>
  </linearGradient>
  <path fill="url(#m)" stroke="#F9E978" stroke-miterlimit="10" d="M136.649,16.021c0-2.463-1.974-4.459-4.423-4.508 c-0.674-1.641-2.287-2.797-4.173-2.797c-1.925,0-3.563,1.209-4.212,2.904c-0.028,0-0.057-0.004-0.085-0.004 c-2.493,0-4.513,2.02-4.513,4.512c0,1.467,0.701,2.764,1.784,3.588c-0.146,0.441-0.226,0.914-0.226,1.404 c0,2.492,2.02,4.512,4.512,4.512c1.031,0,1.98-0.35,2.74-0.932c0.76,0.582,1.707,0.932,2.738,0.932 c2.493,0,4.514-2.02,4.514-4.512c0-0.57-0.111-1.113-0.304-1.615C136.008,18.68,136.649,17.424,136.649,16.021z"/>
  <circle cx="127.947" cy="17.615" r=".441" fill="#CF07B5" stroke="#FFF" stroke-miterlimit="10"/>
  <path fill="none" stroke="#FFF" stroke-miterlimit="10" stroke-width=".75" d="M128.215 9.682c1.551.301 2.545 1.277 3.101 2.555M120.558 14.694c.854-1.329 2.128-1.892 3.521-1.937M135.5 15.378c.057 1.579-.668 2.769-1.786 3.601M123.121 23.727c-1.029-1.201-1.205-2.581-.849-3.929M132.462 24.307c-1.52.434-2.848.014-3.923-.873"/>
  <path fill="#FFF" d="M128.215 19.449c0 0 .079.156.14.391.06.234.113.547.11.859.003.313-.05.625-.109.859s-.141.391-.141.391-.081-.156-.141-.391-.112-.547-.109-.859c-.003-.313.051-.625.11-.859C128.136 19.605 128.215 19.449 128.215 19.449zM126.188 18.512c0 0-.115.133-.31.275-.196.143-.467.309-.758.423-.289.119-.598.188-.838.219-.24.032-.415.016-.415.016s.115-.133.31-.276c.195-.143.467-.308.758-.422.289-.119.599-.186.838-.219C126.013 18.496 126.188 18.512 126.188 18.512zM126.732 16.383c0 0-.157-.078-.345-.231-.186-.153-.414-.373-.598-.626-.188-.249-.331-.531-.422-.756-.09-.224-.118-.397-.118-.397s.157.078.345.23c.188.153.414.374.598.627.188.249.33.532.422.756C126.704 16.21 126.732 16.383 126.732 16.383zM128.979 16.35c0 0 .036-.172.137-.392.102-.22.256-.496.455-.737.193-.244.431-.455.625-.6.193-.144.354-.215.354-.215s-.036.172-.136.393c-.102.22-.257.495-.455.736-.195.244-.433.454-.626.599C129.14 16.278 128.979 16.35 128.979 16.35zM130.109 18.188c0 0 .171-.036.413-.034.242.004.557.033.857.117.303.078.591.21.801.328.211.119.341.237.341.237s-.172.037-.413.034c-.242-.003-.557-.033-.857-.117-.303-.078-.59-.211-.801-.329C130.239 18.305 130.109 18.188 130.109 18.188z"/>
  <g fill="none" stroke="#F9E978" stroke-miterlimit="10" stroke-width="5">
    <path d="M141.085 28.733c-2.78-.299-1.186 4.951 1.364 6.595 2.211 1.426 7.384 1.436 6.597-1.362M158.127 28.733c2.691-.763 1.423 4.994-1.364 6.595-2.031 1.167-7.438 1.42-6.597-1.362M143.732 18.221c-1.052-2.798-5.036.633-5.986 3.084-1.151 2.97 1.433 8.381 3.08 5.988M155.601 18.01c.515-2.748 5.003.955 5.729 3.539.73 2.596-.896 6.946-3.537 5.732M144.811 17.803c-2.013-1.941 2.132-4.761 4.763-4.761s6.552 2.471 4.764 4.761M143.777 17.045 147.648 22.821M139.899 28.208 146.543 26.227M149.588 35.081 149.439 28.329M159.166 27.918 152.335 26.227M155.34 16.897 151.229 22.821"/>
  </g>
  <linearGradient id="n" x1="150.825" x2="146.986" y1="13.795" y2="35.567" gradientUnits="userSpaceOnUse">
    <stop offset="0" style="stop-color:#2914f5"/>
    <stop offset=".518" style="stop-color:#cf07b5"/>
    <stop offset=".579" style="stop-color:#c308ba"/>
    <stop offset=".688" style="stop-color:#a20bc6"/>
    <stop offset=".835" style="stop-color:#6c0fdb"/>
    <stop offset="1" style="stop-color:#2914f5"/>
  </linearGradient>
  <path fill="none" stroke="url(#n)" stroke-miterlimit="10" stroke-width="5" d="M149.439 19.196 151.229 22.821 155.23 23.402 152.335 26.227 153.02 30.211 149.439 28.329 145.86 30.211 146.543 26.227 143.647 23.402 147.648 22.821z"/>
  <linearGradient id="o" x1="140.83" x2="158.104" y1="35.969" y2="15.382" gradientUnits="userSpaceOnUse">
    <stop offset="0" style="stop-color:#b311b0"/>
    <stop offset=".032" style="stop-color:#aa10b2"/>
    <stop offset=".234" style="stop-color:#760cc0"/>
    <stop offset=".41" style="stop-color:#5109ca"/>
    <stop offset=".552" style="stop-color:#3907d0"/>
    <stop offset=".64" style="stop-color:#3106d2"/>
    <stop offset=".75" style="stop-color:#8d0eba"/>
    <stop offset=".794" style="stop-color:#b311b0"/>
  </linearGradient>
  <path fill="none" stroke="url(#o)" stroke-miterlimit="10" stroke-width="3" d="M161.531,23.113 c0-3.394-2.722-6.149-6.098-6.215c-0.931-2.264-3.154-3.856-5.755-3.856c-2.654,0-4.914,1.665-5.809,4.004 c-0.038,0-0.076-0.004-0.117-0.004c-3.436,0-6.221,2.783-6.221,6.221c0,2.02,0.967,3.808,2.46,4.945 c-0.2,0.61-0.312,1.26-0.312,1.938c0,3.436,2.786,6.222,6.221,6.222c1.423,0,2.729-0.484,3.78-1.287 c1.046,0.803,2.353,1.287,3.775,1.287c3.437,0,6.221-2.787,6.221-6.222c0-0.787-0.151-1.535-0.419-2.227 C160.647,26.777,161.531,25.049,161.531,23.113z"/>
  <linearGradient id="p" x1="143.481" x2="148.131" y1="17.162" y2="22.705" gradientUnits="userSpaceOnUse">
    <stop offset="0" style="stop-color:#3106d2"/>
    <stop offset="1" style="stop-color:#3106d2"/>
  </linearGradient>
  <path fill="none" stroke="url(#p)" stroke-miterlimit="10" stroke-width="3" d="M143.87 17.045 147.742 22.821"/>
  <linearGradient id="q" x1="150.983" x2="155.775" y1="22.715" y2="17.004" gradientUnits="userSpaceOnUse">
    <stop offset="0" style="stop-color:#3106d2"/>
    <stop offset=".749" style="stop-color:#3106d2"/>
  </linearGradient>
  <path fill="none" stroke="url(#q)" stroke-miterlimit="10" stroke-width="3" d="M155.434 16.897 151.322 22.821"/>
  <linearGradient id="r" x1="153.448" x2="158.239" y1="24.219" y2="29.928" gradientUnits="userSpaceOnUse">
    <stop offset="0" style="stop-color:#3106d2"/>
    <stop offset=".247" style="stop-color:#5d0ac7"/>
    <stop offset=".691" style="stop-color:#b311b0"/>
  </linearGradient>
  <path fill="none" stroke="url(#r)" stroke-miterlimit="10" stroke-width="3" d="M159.259 27.918 152.428 26.227"/>
  <linearGradient id="s" x1="147.049" x2="152.165" y1="33.495" y2="29.913" gradientUnits="userSpaceOnUse">
    <stop offset=".468" style="stop-color:#b311b0"/>
    <stop offset=".81" style="stop-color:#5d0ac7"/>
    <stop offset="1" style="stop-color:#3106d2"/>
  </linearGradient>
  <path fill="none" stroke="url(#s)" stroke-miterlimit="10" stroke-width="3" d="M149.682 35.081 149.532 28.329"/>
  <linearGradient id="t" x1="141.545" x2="145.085" y1="25.109" y2="29.328" gradientUnits="userSpaceOnUse">
    <stop offset=".127" style="stop-color:#b311b0"/>
    <stop offset=".307" style="stop-color:#960fb8"/>
    <stop offset=".78" style="stop-color:#4d08cb"/>
    <stop offset="1" style="stop-color:#3106d2"/>
  </linearGradient>
  <path fill="none" stroke="url(#t)" stroke-miterlimit="10" stroke-width="3" d="M139.992 28.208 146.637 26.227"/>
  <linearGradient id="u" x1="143.61" x2="154.857" y1="32.66" y2="19.257" gradientUnits="userSpaceOnUse">
    <stop offset="0" style="stop-color:#3106d2"/>
    <stop offset=".179" style="stop-color:#5d0ac7"/>
    <stop offset=".5" style="stop-color:#b311b0"/>
    <stop offset=".594" style="stop-color:#af11b1"/>
    <stop offset=".681" style="stop-color:#a410b4"/>
    <stop offset=".765" style="stop-color:#910eb9"/>
    <stop offset=".848" style="stop-color:#770cc0"/>
    <stop offset=".929" style="stop-color:#5509c9"/>
    <stop offset="1" style="stop-color:#3106d2"/>
  </linearGradient>
  <path fill="url(#u)" d="M149.532 30.024 143.961 32.955 145.025 26.75 140.518 22.354 146.746 21.45 149.532 15.808 152.318 21.45 158.547 22.354 154.039 26.75 155.105 32.955z"/>
  <path fill="none" stroke="#FFF" stroke-miterlimit="10" stroke-width="1.5" d="M149.532 19.196 151.322 22.821 155.324 23.402 152.428 26.227 153.112 30.211 149.532 28.329 145.953 30.211 146.637 26.227 143.74 23.402 147.742 22.821zM150.038 12.807c2.354.24 4.807 1.896 5.343 4.039M161.457 21.533c.519 2.31-.274 5.159-2.138 6.347M156.626 35.537c-2.074 1.139-5.032 1.168-6.691-.289M141.73 34.903c-1.773-1.568-2.8-4.343-1.987-6.396M137.822 20.708c.99-2.15 3.35-3.935 5.551-3.75"/>
  <path fill="#FFF" d="M154.34 18.257c0 0 .008.292-.091.658-.093.37-.286.816-.547 1.219-.267.398-.599.754-.903.984-.297.235-.569.343-.569.343s-.009-.293.09-.658c.092-.371.286-.816.548-1.219.268-.398.601-.753.904-.983C154.068 18.366 154.34 18.257 154.34 18.257zM158.12 27.217c0 0-.265.124-.64.18-.375.063-.862.064-1.336-.013-.471-.085-.93-.247-1.263-.434-.335-.179-.542-.385-.542-.385s.265-.125.64-.181c.376-.064.862-.064 1.335.014.473.085.931.249 1.264.435C157.912 27.012 158.12 27.217 158.12 27.217zM149.756 30.493c0 0 .162.243.273.605.12.361.194.843.188 1.322-.013.479-.104.957-.238 1.314-.126.357-.299.594-.299.594s-.163-.243-.275-.605c-.12-.361-.192-.843-.187-1.322.014-.479.105-.957.24-1.314C149.584 30.729 149.756 30.493 149.756 30.493zM144.992 26.722c0 0-.188.224-.506.431-.314.215-.757.42-1.219.547-.465.12-.949.165-1.33.135-.379-.022-.653-.123-.653-.123s.188-.225.505-.432c.315-.216.758-.419 1.221-.546.464-.12.949-.163 1.33-.133C144.717 26.623 144.992 26.722 144.992 26.722zM146.601 21.378c0 0-.278-.088-.593-.3-.32-.208-.679-.536-.975-.914-.291-.382-.519-.812-.638-1.174-.126-.357-.139-.65-.139-.65s.28.087.594.3c.32.207.679.536.974.914.29.382.518.813.637 1.175C146.586 21.086 146.601 21.378 146.601 21.378z"/>
  <linearGradient id="v" x1="134.431" x2="150.48" y1="63.056" y2="43.928" gradientUnits="userSpaceOnUse">
    <stop offset="0" style="stop-color:#e89efd"/>
    <stop offset=".14" style="stop-color:#c7c1ff"/>
    <stop offset=".169" style="stop-color:#bfc9ff"/>
    <stop offset=".328" style="stop-color:#99ecee"/>
    <stop offset=".518" style="stop-color:#8efcd8"/>
    <stop offset=".693" style="stop-color:#a0f0a1"/>
    <stop offset=".868" style="stop-color:#f3fc9b"/>
    <stop offset="1" style="stop-color:#f4b2bb"/>
  </linearGradient>
  <linearGradient id="w" x1="134.19" x2="150.722" y1="63.343" y2="43.641" gradientUnits="userSpaceOnUse">
    <stop offset="0" style="stop-color:#e606b9"/>
    <stop offset=".045" style="stop-color:#d808bb"/>
    <stop offset=".209" style="stop-color:#aa0ec1"/>
    <stop offset=".374" style="stop-color:#8414c7"/>
    <stop offset=".537" style="stop-color:#6618cb"/>
    <stop offset=".697" style="stop-color:#511bce"/>
    <stop offset=".853" style="stop-color:#441ccf"/>
    <stop offset="1" style="stop-color:#401dd0"/>
  </linearGradient>
  <path fill="url(#v)" stroke="url(#w)" stroke-miterlimit="10" stroke-width=".75" d="M134.104,53.845h-3.383 c-1.381,0-2.5,1.119-2.5,2.5v0.334c0,1.381,1.119,2.5,2.5,2.5h30.668c1.381,0,2.5-1.119,2.5-2.5v-0.334c0-1.381-1.119-2.5-2.5-2.5 h-13.645c-1.334,0-1.334-2.166,0-2.166h2.977c1.381,0,2.5-1.119,2.5-2.5v-0.5c0-1.381-1.119-2.5-2.5-2.5h-25.832 c-1.381,0-2.5,1.119-2.5,2.5v0.5c0,1.381,1.119,2.5,2.5,2.5h9.215C135.436,51.679,135.436,53.845,134.104,53.845z"/>
  <linearGradient id="x" x1="23.654" x2="39.704" y1="30.736" y2="11.608" gradientUnits="userSpaceOnUse">
    <stop offset="0" style="stop-color:#e89efd"/>
    <stop offset=".14" style="stop-color:#c7c1ff"/>
    <stop offset=".169" style="stop-color:#bfc9ff"/>
    <stop offset=".328" style="stop-color:#99ecee"/>
    <stop offset=".518" style="stop-color:#8efcd8"/>
    <stop offset=".693" style="stop-color:#a0f0a1"/>
    <stop offset=".868" style="stop-color:#f3fc9b"/>
    <stop offset="1" style="stop-color:#f4b2bb"/>
  </linearGradient>
  <linearGradient id="y" x1="23.413" x2="39.945" y1="31.023" y2="11.321" gradientUnits="userSpaceOnUse">
    <stop offset="0" style="stop-color:#401dd0"/>
    <stop offset=".239" style="stop-color:#6318cb"/>
    <stop offset=".766" style="stop-color:#bd0cbf"/>
    <stop offset="1" style="stop-color:#e606b9"/>
  </linearGradient>
  <path fill="url(#x)" stroke="url(#y)" stroke-miterlimit="10" stroke-width=".75" d="M23.327,21.525h-3.383 c-1.381,0-2.5,1.119-2.5,2.5v0.334c0,1.381,1.119,2.5,2.5,2.5h30.668c1.381,0,2.5-1.119,2.5-2.5v-0.334c0-1.381-1.119-2.5-2.5-2.5 H36.968c-1.334,0-1.334-2.166,0-2.166h2.977c1.381,0,2.5-1.119,2.5-2.5v-0.5c0-1.381-1.119-2.5-2.5-2.5H14.112 c-1.381,0-2.5,1.119-2.5,2.5v0.5c0,1.381,1.119,2.5,2.5,2.5h9.215C24.659,19.359,24.659,21.525,23.327,21.525z"/>
  <g fill="#565656" opacity=".6">
    <path d="M36.681 59.37c-.795 0-1.572-.379-2.054-1.073l-3.125-4.494c-.319-.458-.472-1.006-.444-1.555-1.586.203-3.246.376-4.967.517-.068.005-.137.008-.205.008-.956 0-1.836-.548-2.254-1.421l-.208-.435c-.331-.691-.327-1.497.013-2.186.339-.688.976-1.182 1.727-1.34.386-.081.77-.167 1.151-.257-.853-.186-1.563-.809-1.844-1.663l-.333-1.015c-.25-.762-.12-1.597.35-2.246s1.223-1.034 2.025-1.034h.424l-.09-.275c-.249-.762-.119-1.597.352-2.245.471-.649 1.223-1.033 2.024-1.033h.041v-7.722h-2.125c-1.08 0-2.037-.693-2.375-1.719l-.334-1.015c-.25-.762-.121-1.597.35-2.247.47-.649 1.224-1.034 2.025-1.034h11.773c-.283-.412-.439-.905-.439-1.418.001-.799.383-1.549 1.029-2.019l.249-.181c.305-.222.657-.373 1.029-.439 1.373-.247 2.633-.372 3.744-.372 5.464 0 6.41 3.042 6.569 3.975.026.151.043.302.052.453h4.333l2.124-2.519c.492-.583 1.198-.888 1.913-.888.498 0 1 .148 1.436.454.136.095 3.345 2.352 5.308 3.947.794.646 1.115 1.71.809 2.687-.165.528-.882 2.208-3.314 2.328.017.08.03.161.039.243.083.749-.177 1.494-.707 2.03-.198.201-.455.421-.777.63v4.377c.709.421 1.454.878 2.096 1.307.892.597 1.301 1.691 1.027 2.721.454.28.896.561 1.296.825.854.564 1.277 1.593 1.068 2.595-.233 1.119-1.222 2.416-3.244 2.558.035.558-.117 1.114-.438 1.58-.054.077-.11.152-.168.225.805.073 1.57.128 2.269.172 1.317.083 2.343 1.176 2.343 2.495v.4c0 1.127-.754 2.114-1.841 2.411-1.314.359-2.122 1.29-2.469 2.844-.147.658-.553 1.229-1.127 1.584-.398.245-.853.372-1.313.372-.203 0-.408-.024-.608-.075-5.124-1.285-9.351-3.036-12.392-6.5-2.031 1.289-5.337 3.31-9.314 5.444-.388.37-.819.685-1.289.938C37.493 59.272 37.084 59.37 36.681 59.37zM74.142 59.299c-1.381 0-2.5-1.119-2.5-2.5v-14.08l-3.568-4.709c-.442-.583-.606-1.331-.449-2.045s.619-1.325 1.264-1.669c.287-.153.489-.27.631-.357l0-11.575c0-.699.292-1.366.807-1.839.463-.427 1.068-.661 1.693-.661.068 0 .137.003.206.008l7.47.616c.692.057 1.329.399 1.758.945.403.512.59 1.16.523 1.805.146-.026.295-.04.444-.04.506 0 1.016.153 1.456.469.053.039.596.428 1.348.982v-2.213c0-.694.289-1.356.796-1.83.464-.432 1.074-.67 1.704-.67.059 0 .118.002.177.006l7.132.507c.71.05 1.365.402 1.801.965.436.564.609 1.287.479 1.987-.091.485-.383 1.411-1.317 2.116v1.088h.231l2.051-2.469c.492-.592 1.204-.902 1.924-.902.506 0 1.016.153 1.455.468.134.096 3.284 2.356 5.157 3.919.785.655 1.093 1.723.775 2.695-.068.209-.229.604-.55 1.008l.046.978c.99.623 1.985 1.686 1.985 3.547 0 3.2-2.52 4.438-5.595 4.915l.251.163c.607.394 1.014 1.031 1.115 1.748.101.717-.113 1.442-.588 1.989-.236.271-.572.58-1.042.859v9.862c0 .122-.009.244-.026.365-.486 3.292-7.623 3.33-7.695 3.33h-1.06c-1.381 0-2.5-1.119-2.5-2.5v-.11h-9.396c-1.399 2.288-6.172 2.829-7.504 2.829H74.142zM80.42 32.76c.406-.058.816-.117 1.228-.177H80.42V32.76z"/>
    <path d="M111.473 59.226c-1.381 0-2.5-1.119-2.5-2.5V43.163c-.33.202-.667.404-1.014.606-.389.228-.824.341-1.26.341-.429 0-.857-.11-1.242-.33l-.443-.254c-.618-.354-1.056-.955-1.203-1.651-.148-.696.009-1.423.43-1.997 3.466-4.725 6.541-11.827 7.835-18.093.138-.667.541-1.248 1.116-1.61.402-.253.865-.384 1.332-.384.201 0 .404.024.603.074l8.757 2.175c.728.181 1.335.678 1.656 1.355.161.339.241.706.241 1.072h10.245l2.575-2.786c.488-.528 1.159-.803 1.837-.803.467 0 .938.13 1.354.398.154.1 3.805 2.455 6.054 4.114.868.641 1.228 1.767.891 2.792-.177.539-.965 2.299-3.658 2.299h-21.755c-.558 0-1.083-.185-1.507-.505-.293.505-.592.996-.897 1.476.193.189.356.411.48.658.313.62.354 1.341.114 1.992-.005.014-.011.028-.016.042h16.964l2.664-2.863c.487-.524 1.156-.797 1.831-.797.464 0 .93.128 1.344.393.158.101 3.903 2.493 6.2 4.193.871.645 1.228 1.776.883 2.804-.37 1.105-1.523 2.286-3.652 2.286h-7.56c.063.482-.014.977-.23 1.422-.01.02-.02.039-.029.058 9.34 3.215 12.165 8.292 11.617 12.125-.409 2.862-2.743 4.861-5.675 4.861-1.412 0-2.884-.471-4.258-1.361-.536-.347-.919-.886-1.069-1.506-.12-.494-.277-1.015-.474-1.571-3.82.83-9.192 1.916-15.743 3.03-.738.614-1.567 1.033-2.438 1.226-.181.04-.362.059-.54.059-.847 0-1.639-.432-2.098-1.141-2.084 1.734-6.513 1.865-6.567 1.865H111.473zM135.153 45.368c-.862.741-1.8 1.492-2.781 2.231 1.38-.005 2.819-.012 4.298-.02C136.185 46.829 135.678 46.089 135.153 45.368zM120.296 46.957c1.606-1.247 3.824-4.088 5.415-6.798h-5.415V46.957zM61.721 47.338c-.25.361-.667.542-1.625.361-1.792.509-4.333 1.124-6.667 1.632 3.375 1.449 7.708 2.03 12.292 2.319v.4c-2.25.615-3.708 2.281-4.25 4.711-7.375-1.85-12.042-4.532-14.292-11.599-1.542.87-3.334 1.633-5.333 2.282v3.408c1.917-.362 4.042-.798 6.125-1.269l.084.398c-1.958 1.27-5.792 3.659-10.417 6.125-.291.327-.624.581-.958.762l-3.125-4.494c2.083-1.015 2.417-1.413 2.417-2.14v-1.305c-3.126.614-6.542 1.052-10.084 1.341l-.208-.435c5.499-1.159 10.292-3.08 13.542-5.146H26.846l-.333-1.015h16.042v-2.538h-13l-.333-1.016h13.333V37.84h-5.083v.51c0 .433-2.584 1.485-4.917 1.485h-.792V27.401l6.041 1.993h15.418l2.167-1.993h-28.25l-.334-1.015h16.917c-.208-.073-.375-.146-.583-.218-.292-1.449-1.458-2.936-2.5-3.697l.249-.181c8.876-1.594 8.542 3.009 5.459 4.096h9.959l2.873-3.407c0 0 3.25 2.283 5.168 3.841-.125.399-.583.581-1.208.581h-6.833l4.666 3.008c-.251.254-.709.58-1.5.688v6.668c0 .108-.334.256-.792.4 1.042.58 2.75 1.558 4 2.393-.125.396-.583.579-1.167.579H48.347v2.538h9.042l2.667-2.538c0 0 3.042 1.705 4.958 2.973-.083.398-.542.58-1.167.58h-6.458L61.721 47.338zM37.472 30.41v2.718h5.083V30.41H37.472zM42.555 36.824v-2.681h-5.083v2.681H42.555zM47.847 44.764c.999 1.63 2.374 2.865 4.083 3.807 1.167-1.197 2.458-2.718 3.375-3.879h-7.333L47.847 44.764zM48.347 30.41v2.718h5.292V30.41H48.347zM53.639 34.143h-5.292v2.681h5.292V34.143zM48.347 40.123h6.708l1.583-1.45c-.709.109-1.375.182-1.958.182h-1.041V37.84h-5.292V40.123z"/>
    <path d="m96.723 39.362 5.646 3.661c-.252.29-.764.616-1.654.762v11.6c-.043.291-3.142 1.195-5.222 1.195h-1.06v-2.61H80.424v1.123c0 .511-2.759 1.706-5.392 1.706h-.891V41.212c-.127.073-.212.145-.34.218l-3.735-4.93c1.698-.907 1.953-1.306 1.953-2.14V22.363l7.47.616c-.084.543-.466.907-1.57 1.05v5.04h1.655l2.844-3.372c0 0 3.183 2.284 5.008 3.806-.128.399-.594.58-1.188.58H77.92v5.546c2.717-.363 5.942-.833 9.126-1.342l.042.399c-2.207 1.27-6.155 3.371-11.292 5.654l4.966 1.596h2.165c.17-1.269.34-2.973.425-4.205l8.531 1.087c-.127.654-.764.943-1.696 1.053-.978.543-2.505 1.377-3.821 2.065h7.641L96.723 39.362zM80.424 42.952V47.3h14.008v-4.348H80.424zM94.433 52.954v-4.639H80.424v4.639H94.433zM104.661 33.925c1.527.543 1.911 1.051 1.911 1.922 0 1.992-2.124 2.717-9.083 2.717h-4.034c-4.669 0-5.73-.833-5.73-3.949v-12.18l7.132.507c-.088.471-.469.798-1.359.943v5.219h3.904l2.801-3.371c0 0 3.188 2.284 5.012 3.806-.13.398-.553.58-1.189.58H93.497v3.443c0 .508.211.689 1.315.689h3.354c1.062 0 2.124 0 2.632-.037.553 0 .933-.108 1.274-.398.464-.508 1.229-1.777 1.995-3.48h.423L104.661 33.925zM123.28 24.465c-.223.471-.797.761-1.813.761-1.284 2.755-2.742 5.219-4.422 7.395l2.122.616c-.134.363-.486.581-1.371.726v21.313c-.087.4-2.653 1.45-5.129 1.45h-1.194V38.384c-1.503 1.196-3.095 2.247-4.773 3.227l-.443-.254c3.404-4.641 6.809-11.998 8.268-19.066L123.28 24.465zM137.384 43.459c17.243 5.037 12.117 15.949 5.571 11.707-.309-1.268-.795-2.573-1.371-3.878-4.508 1.016-10.878 2.319-18.438 3.59-.53.58-1.149.977-1.813 1.123l-2.075-6.053c0 0 1.37-.219 1.898-.546 2.919-1.813 7.207-8.01 8.534-11.743h-10.126l-.354-1.016h20.339l3.405-3.66c0 0 3.804 2.427 6.058 4.095-.134.399-.663.58-1.282.58h-17.113l7.075 2.828c-.176.361-.706.614-1.591.543-2.696 2.9-7.738 6.669-12.158 9.063 4.244.037 10.479 0 17.065-.037-1.192-2.283-2.606-4.495-4.022-6.416L137.384 43.459zM122.969 26.966h14.149l3.318-3.588c0 0 3.713 2.393 5.924 4.024-.131.398-.619.58-1.283.58h-21.755L122.969 26.966z"/>
  </g>
  <linearGradient id="z" x1="55.583" x2="119.572" y1="74.361" y2="-1.897" gradientUnits="userSpaceOnUse">
    <stop offset="0" style="stop-color:#fde32f"/>
    <stop offset=".082" style="stop-color:#fadd2f"/>
    <stop offset=".187" style="stop-color:#f1cd2f"/>
    <stop offset=".286" style="stop-color:#e6b82f"/>
    <stop offset=".317" style="stop-color:#e6b932"/>
    <stop offset=".339" style="stop-color:#e7bc3b"/>
    <stop offset=".357" style="stop-color:#e9c14a"/>
    <stop offset=".374" style="stop-color:#ecc960"/>
    <stop offset=".389" style="stop-color:#efd27b"/>
    <stop offset=".404" style="stop-color:#f3de9e"/>
    <stop offset=".418" style="stop-color:#f8ecc6"/>
    <stop offset=".431" style="stop-color:#fefbf4"/>
    <stop offset=".434" style="stop-color:#fff"/>
    <stop offset=".447" style="stop-color:#faf2d9"/>
    <stop offset=".463" style="stop-color:#f6e4b1"/>
    <stop offset=".48" style="stop-color:#f1d88e"/>
    <stop offset=".499" style="stop-color:#eece70"/>
    <stop offset=".52" style="stop-color:#ebc658"/>
    <stop offset=".544" style="stop-color:#e9c046"/>
    <stop offset=".571" style="stop-color:#e7bb39"/>
    <stop offset=".608" style="stop-color:#e6b931"/>
    <stop offset=".682" style="stop-color:#e6b82f"/>
    <stop offset=".741" style="stop-color:#fff"/>
    <stop offset=".747" style="stop-color:#fdfaf1"/>
    <stop offset=".769" style="stop-color:#f8ebc4"/>
    <stop offset=".793" style="stop-color:#f3dd9c"/>
    <stop offset=".818" style="stop-color:#efd27a"/>
    <stop offset=".845" style="stop-color:#ecc85f"/>
    <stop offset=".874" style="stop-color:#e9c149"/>
    <stop offset=".905" style="stop-color:#e7bc3a"/>
    <stop offset=".943" style="stop-color:#e6b932"/>
    <stop offset="1" style="stop-color:#e6b82f"/>
  </linearGradient>
  <path fill="url(#z)" d="M37.984,56.323c-1.143,0-2.259-0.553-2.939-1.562l-3.026-4.483 c-0.195-0.289-0.344-0.602-0.445-0.927c-1.208,0.145-2.457,0.271-3.741,0.38c-0.1,0.008-0.2,0.012-0.299,0.012 c-1.368,0-2.626-0.792-3.211-2.049l-0.202-0.434c-0.454-0.976-0.439-2.105,0.039-3.069c0.316-0.638,0.813-1.157,1.417-1.502 c-0.209-0.293-0.375-0.621-0.489-0.977L24.764,40.7c-0.345-1.078-0.154-2.255,0.513-3.169c0.482-0.66,1.171-1.125,1.943-1.332 c-0.026-0.784,0.208-1.564,0.682-2.212c0.447-0.612,1.073-1.056,1.777-1.282v-5.771h-0.934c-1.542,0-2.907-0.998-3.376-2.467 l-0.323-1.012c-0.343-1.077-0.152-2.254,0.515-3.167c0.667-0.913,1.73-1.453,2.861-1.453h9.867 c-0.012-0.121-0.019-0.243-0.019-0.365c0.001-1.115,0.527-2.164,1.419-2.832l0.241-0.181c0.437-0.327,0.943-0.549,1.479-0.648 c1.4-0.259,2.692-0.39,3.841-0.39c5.548,0,7,3.006,7.374,4.416h2.675l1.719-2.099c0.698-0.853,1.715-1.299,2.744-1.299 c0.722,0,1.449,0.22,2.075,0.672c0.133,0.096,3.272,2.369,5.202,3.987c1.089,0.913,1.527,2.389,1.113,3.748 c-0.366,1.201-1.367,2.469-3.133,2.919c-0.082,0.771-0.415,1.502-0.96,2.073c-0.148,0.156-0.306,0.303-0.471,0.44v3.295 c0.536,0.334,1.077,0.683,1.567,1.02c1.02,0.7,1.583,1.865,1.535,3.061c0.248,0.162,0.487,0.321,0.714,0.476 c1.178,0.804,1.76,2.234,1.477,3.632c-0.26,1.281-1.231,2.738-3.136,3.238c0.197,0.015,0.39,0.027,0.578,0.039 c1.864,0.121,3.314,1.668,3.314,3.536v0.4c0,1.587-1.055,2.98-2.583,3.41c-0.373,0.105-1.246,0.352-1.611,2.038 c-0.204,0.941-0.783,1.761-1.604,2.267c-0.564,0.348-1.208,0.526-1.859,0.526c-0.296,0-0.594-0.037-0.886-0.112 c-4.322-1.116-8.599-2.699-11.877-6.103c-1.978,1.273-4.822,3.032-8.139,4.87c-0.416,0.391-0.875,0.728-1.37,1.004 C39.165,56.178,38.571,56.323,37.984,56.323z"/>
  <linearGradient id="A" x1="55.583" x2="119.572" y1="74.361" y2="-1.897" gradientUnits="userSpaceOnUse">
    <stop offset="0" style="stop-color:#fde32f"/>
    <stop offset=".082" style="stop-color:#fadd2f"/>
    <stop offset=".187" style="stop-color:#f1cd2f"/>
    <stop offset=".286" style="stop-color:#e6b82f"/>
    <stop offset=".317" style="stop-color:#e6b932"/>
    <stop offset=".339" style="stop-color:#e7bc3b"/>
    <stop offset=".357" style="stop-color:#e9c14a"/>
    <stop offset=".374" style="stop-color:#ecc960"/>
    <stop offset=".389" style="stop-color:#efd27b"/>
    <stop offset=".404" style="stop-color:#f3de9e"/>
    <stop offset=".418" style="stop-color:#f8ecc6"/>
    <stop offset=".431" style="stop-color:#fefbf4"/>
    <stop offset=".434" style="stop-color:#fff"/>
    <stop offset=".447" style="stop-color:#faf2d9"/>
    <stop offset=".463" style="stop-color:#f6e4b1"/>
    <stop offset=".48" style="stop-color:#f1d88e"/>
    <stop offset=".499" style="stop-color:#eece70"/>
    <stop offset=".52" style="stop-color:#ebc658"/>
    <stop offset=".544" style="stop-color:#e9c046"/>
    <stop offset=".571" style="stop-color:#e7bb39"/>
    <stop offset=".608" style="stop-color:#e6b931"/>
    <stop offset=".682" style="stop-color:#e6b82f"/>
    <stop offset=".741" style="stop-color:#fff"/>
    <stop offset=".747" style="stop-color:#fdfaf1"/>
    <stop offset=".769" style="stop-color:#f8ebc4"/>
    <stop offset=".793" style="stop-color:#f3dd9c"/>
    <stop offset=".818" style="stop-color:#efd27a"/>
    <stop offset=".845" style="stop-color:#ecc85f"/>
    <stop offset=".874" style="stop-color:#e9c149"/>
    <stop offset=".905" style="stop-color:#e7bc3a"/>
    <stop offset=".943" style="stop-color:#e6b932"/>
    <stop offset="1" style="stop-color:#e6b82f"/>
  </linearGradient>
  <path fill="url(#A)" d="M74.331,56.251c-1.957,0-3.543-1.586-3.543-3.543V38.974l-3.202-4.436 c-0.591-0.819-0.805-1.852-0.587-2.838s0.846-1.833,1.728-2.327c0.015-0.008,0.03-0.017,0.044-0.025V18.366 c0-0.993,0.417-1.94,1.148-2.611c0.656-0.602,1.512-0.932,2.395-0.932c0.102,0,0.204,0.004,0.306,0.013l7.098,0.614 c0.974,0.084,1.869,0.567,2.475,1.334c0.334,0.423,0.564,0.912,0.678,1.428c0.281,0.054,0.558,0.143,0.823,0.267v-0.042 c0-0.985,0.411-1.927,1.133-2.597c0.658-0.61,1.52-0.946,2.411-0.946c0.087,0,0.176,0.003,0.264,0.01l6.774,0.506 c0.995,0.075,1.913,0.565,2.527,1.351c0.407,0.521,0.657,1.14,0.729,1.784c0.489-0.24,1.025-0.362,1.564-0.362 c0.743,0,1.491,0.232,2.129,0.712c0.128,0.096,3.154,2.376,4.964,3.964c1.046,0.917,1.458,2.36,1.056,3.69 c-0.104,0.345-0.261,0.696-0.472,1.031l0.009,0.205c1.268,1.013,1.907,2.36,1.907,4.028c0,3.142-1.923,4.705-4.414,5.483 c0.195,0.363,0.327,0.763,0.386,1.181c0.139,0.989-0.146,1.991-0.784,2.759c-0.193,0.232-0.441,0.485-0.755,0.734v9.326 c0,0.162-0.011,0.324-0.033,0.484c-0.58,4.205-8.149,4.253-8.472,4.253H93.61c-1.632,0-3.006-1.103-3.417-2.604h-7.238 c-1.91,2.283-6.356,2.82-7.779,2.82H74.331z"/>
  <linearGradient id="B" x1="55.583" x2="119.572" y1="74.361" y2="-1.897" gradientUnits="userSpaceOnUse">
    <stop offset="0" style="stop-color:#fde32f"/>
    <stop offset=".082" style="stop-color:#fadd2f"/>
    <stop offset=".187" style="stop-color:#f1cd2f"/>
    <stop offset=".286" style="stop-color:#e6b82f"/>
    <stop offset=".317" style="stop-color:#e6b932"/>
    <stop offset=".339" style="stop-color:#e7bc3b"/>
    <stop offset=".357" style="stop-color:#e9c14a"/>
    <stop offset=".374" style="stop-color:#ecc960"/>
    <stop offset=".389" style="stop-color:#efd27b"/>
    <stop offset=".404" style="stop-color:#f3de9e"/>
    <stop offset=".418" style="stop-color:#f8ecc6"/>
    <stop offset=".431" style="stop-color:#fefbf4"/>
    <stop offset=".434" style="stop-color:#fff"/>
    <stop offset=".447" style="stop-color:#faf2d9"/>
    <stop offset=".463" style="stop-color:#f6e4b1"/>
    <stop offset=".48" style="stop-color:#f1d88e"/>
    <stop offset=".499" style="stop-color:#eece70"/>
    <stop offset=".52" style="stop-color:#ebc658"/>
    <stop offset=".544" style="stop-color:#e9c046"/>
    <stop offset=".571" style="stop-color:#e7bb39"/>
    <stop offset=".608" style="stop-color:#e6b931"/>
    <stop offset=".682" style="stop-color:#e6b82f"/>
    <stop offset=".741" style="stop-color:#fff"/>
    <stop offset=".747" style="stop-color:#fdfaf1"/>
    <stop offset=".769" style="stop-color:#f8ebc4"/>
    <stop offset=".793" style="stop-color:#f3dd9c"/>
    <stop offset=".818" style="stop-color:#efd27a"/>
    <stop offset=".845" style="stop-color:#ecc85f"/>
    <stop offset=".874" style="stop-color:#e9c149"/>
    <stop offset=".905" style="stop-color:#e7bc3a"/>
    <stop offset=".943" style="stop-color:#e6b932"/>
    <stop offset="1" style="stop-color:#e6b82f"/>
  </linearGradient>
  <path fill="url(#B)" d="M112.372,56.178c-1.957,0-3.543-1.586-3.543-3.543V41.011c-0.267,0.063-0.539,0.094-0.812,0.094 c-0.654,0-1.309-0.181-1.885-0.542l-0.404-0.254c-0.812-0.51-1.382-1.327-1.581-2.265s-0.01-1.916,0.524-2.711 c3.093-4.607,5.842-11.554,7.003-17.697c0.184-0.971,0.764-1.821,1.602-2.346c0.568-0.356,1.221-0.54,1.88-0.54 c0.312,0,0.623,0.041,0.929,0.124l7.985,2.17c0.991,0.27,1.817,0.956,2.263,1.881c0.077,0.159,0.141,0.322,0.192,0.488h7.597 l1.966-2.323c0.697-0.824,1.697-1.255,2.707-1.255c0.708,0,1.421,0.211,2.039,0.646c0.142,0.101,3.505,2.472,5.587,4.152 c1.123,0.906,1.584,2.401,1.168,3.782c-0.34,1.125-1.236,2.309-2.795,2.828c1.213,0.873,2.844,2.069,4.05,3.045 c1.12,0.906,1.581,2.399,1.165,3.778c-0.567,1.883-2.358,3.099-4.563,3.099h-5.303c8.229,3.541,10.597,8.951,9.996,12.804 c-0.515,3.304-3.148,5.611-6.406,5.612h-0.001c-1.584,0-3.206-0.556-4.691-1.607c-0.718-0.509-1.221-1.267-1.411-2.126 c-0.031-0.143-0.066-0.289-0.104-0.438c-3.318,0.77-7.668,1.711-12.808,2.672c-0.767,0.628-1.625,1.063-2.533,1.278 c-0.274,0.065-0.549,0.097-0.819,0.097c-0.767,0-1.502-0.25-2.102-0.692c-2.41,1.331-5.753,1.415-5.803,1.415H112.372z M121.684,39.684c0.563-0.767,1.14-1.629,1.68-2.52h-1.68V39.684z M136.348,29.064l1.32-1.552h-14.486 c-0.246,0-0.487-0.025-0.722-0.074c0.031,0.055,0.062,0.11,0.091,0.167c0.232,0.458,0.36,0.956,0.381,1.459H136.348z"/>
  <linearGradient id="C" x1="92.272" x2="82.781" y1="9.016" y2="62.838" gradientUnits="userSpaceOnUse">
    <stop offset="0" style="stop-color:#e606b9"/>
    <stop offset=".175" style="stop-color:#401dd0"/>
    <stop offset=".282" style="stop-color:#421dd0"/>
    <stop offset=".324" style="stop-color:#491ccf"/>
    <stop offset=".354" style="stop-color:#551acd"/>
    <stop offset=".379" style="stop-color:#6618cb"/>
    <stop offset=".4" style="stop-color:#7d15c8"/>
    <stop offset=".419" style="stop-color:#9811c4"/>
    <stop offset=".437" style="stop-color:#b90cbf"/>
    <stop offset=".452" style="stop-color:#de07ba"/>
    <stop offset=".455" style="stop-color:#e606b9"/>
    <stop offset=".582" style="stop-color:#9411c4"/>
    <stop offset=".72" style="stop-color:#401dd0"/>
    <stop offset=".753" style="stop-color:#461ccf"/>
    <stop offset=".8" style="stop-color:#581acd"/>
    <stop offset=".854" style="stop-color:#7516c9"/>
    <stop offset=".914" style="stop-color:#9e10c3"/>
    <stop offset=".977" style="stop-color:#d209bc"/>
    <stop offset="1" style="stop-color:#e606b9"/>
  </linearGradient>
  <path fill="url(#C)" d="M37.983,54.905c-0.686,0-1.355-0.331-1.764-0.937l-3.026-4.483 c-0.342-0.507-0.449-1.137-0.294-1.729c0-0.001,0.001-0.003,0.001-0.004c-1.647,0.225-3.38,0.413-5.187,0.565 c-0.06,0.005-0.12,0.008-0.18,0.008c-0.821,0-1.576-0.476-1.927-1.229l-0.202-0.434c-0.272-0.586-0.264-1.264,0.023-1.842 s0.822-0.995,1.453-1.132c1.219-0.266,2.422-0.577,3.589-0.93h-2.008c-0.925,0-1.744-0.598-2.025-1.479l-0.324-1.013 c-0.207-0.646-0.092-1.353,0.308-1.901c0.4-0.548,1.038-0.872,1.717-0.872h0.842l-0.245-0.771 c-0.206-0.646-0.09-1.352,0.31-1.899c0.4-0.547,1.038-0.871,1.716-0.871h0.334v-8.437h-2.352c-0.925,0-1.745-0.599-2.025-1.48 l-0.323-1.012c-0.206-0.646-0.091-1.353,0.309-1.9c0.4-0.548,1.038-0.872,1.716-0.872h12.214 c-0.034-0.028-0.068-0.055-0.102-0.08C40,19.77,39.687,19.14,39.688,18.471c0.001-0.669,0.316-1.298,0.852-1.699l0.241-0.181 c0.262-0.196,0.566-0.329,0.888-0.389c1.315-0.244,2.521-0.367,3.583-0.367c5.033,0,5.914,2.782,6.064,3.634 c0.046,0.261,0.063,0.523,0.054,0.782h4.603l2.144-2.619c0.419-0.512,1.029-0.779,1.646-0.779c0.433,0,0.869,0.132,1.245,0.403 c0.131,0.095,3.23,2.339,5.122,3.925c0.654,0.548,0.917,1.433,0.668,2.249c-0.149,0.489-0.82,2.085-3.203,2.085h-0.161 c0.09,0.2,0.15,0.416,0.175,0.639c0.07,0.625-0.141,1.249-0.574,1.704c-0.21,0.22-0.494,0.467-0.863,0.69v4.816 c0.719,0.437,1.508,0.932,2.182,1.395c0.763,0.523,1.099,1.48,0.832,2.366c-0.02,0.067-0.043,0.134-0.069,0.201 c0.52,0.328,1.034,0.661,1.49,0.972c0.707,0.482,1.056,1.341,0.886,2.179c-0.223,1.103-1.183,2.28-3.207,2.283 c0.005,0.023,0.011,0.047,0.016,0.07c0.119,0.562,0.006,1.147-0.313,1.625c-0.197,0.295-0.435,0.546-0.707,0.749 c0.917,0.097,1.898,0.179,2.95,0.247c1.119,0.072,1.989,1,1.989,2.121v0.4c0,0.952-0.633,1.788-1.549,2.046 c-1.391,0.393-2.245,1.407-2.612,3.103c-0.122,0.564-0.47,1.056-0.962,1.359c-0.338,0.209-0.725,0.316-1.116,0.316 c-0.178,0-0.356-0.022-0.532-0.067c-4.989-1.289-9.088-3.049-11.999-6.571c-1.955,1.284-5.253,3.37-9.221,5.562 c-0.363,0.362-0.769,0.669-1.21,0.916C38.691,54.818,38.335,54.905,37.983,54.905z"/>
  <linearGradient id="D" x1="92.272" x2="82.781" y1="9.016" y2="62.838" gradientUnits="userSpaceOnUse">
    <stop offset="0" style="stop-color:#e606b9"/>
    <stop offset=".175" style="stop-color:#401dd0"/>
    <stop offset=".282" style="stop-color:#421dd0"/>
    <stop offset=".324" style="stop-color:#491ccf"/>
    <stop offset=".354" style="stop-color:#551acd"/>
    <stop offset=".379" style="stop-color:#6618cb"/>
    <stop offset=".4" style="stop-color:#7d15c8"/>
    <stop offset=".419" style="stop-color:#9811c4"/>
    <stop offset=".437" style="stop-color:#b90cbf"/>
    <stop offset=".452" style="stop-color:#de07ba"/>
    <stop offset=".455" style="stop-color:#e606b9"/>
    <stop offset=".582" style="stop-color:#9411c4"/>
    <stop offset=".72" style="stop-color:#401dd0"/>
    <stop offset=".753" style="stop-color:#461ccf"/>
    <stop offset=".8" style="stop-color:#581acd"/>
    <stop offset=".854" style="stop-color:#7516c9"/>
    <stop offset=".914" style="stop-color:#9e10c3"/>
    <stop offset=".977" style="stop-color:#d209bc"/>
    <stop offset="1" style="stop-color:#e606b9"/>
  </linearGradient>
  <path fill="url(#D)" d="M74.331,54.834c-1.174,0-2.126-0.952-2.126-2.126V38.516l-3.47-4.808 c-0.355-0.491-0.483-1.111-0.353-1.703c0.131-0.592,0.508-1.1,1.037-1.396c0.394-0.221,0.629-0.371,0.767-0.468l0.002-11.776 c0-0.596,0.25-1.164,0.689-1.567c0.394-0.361,0.907-0.559,1.437-0.559c0.061,0,0.122,0.002,0.183,0.008l7.098,0.614 c0.584,0.051,1.122,0.34,1.485,0.801c0.363,0.46,0.521,1.05,0.435,1.63c-0.019,0.128-0.047,0.269-0.089,0.417 c0.247-0.096,0.509-0.145,0.772-0.145c0.446,0,0.895,0.14,1.277,0.428c0.059,0.044,0.743,0.56,1.636,1.255v-2.811 c0-0.591,0.246-1.156,0.68-1.558c0.395-0.366,0.912-0.568,1.446-0.568c0.053,0,0.105,0.002,0.158,0.006l6.774,0.506 c0.597,0.044,1.147,0.339,1.517,0.811s0.521,1.077,0.421,1.667c-0.077,0.456-0.345,1.342-1.26,1.991v1.67h0.556l2.025-2.556 c0.419-0.529,1.04-0.806,1.667-0.806c0.446,0,0.895,0.139,1.277,0.427c0.126,0.095,3.111,2.344,4.882,3.897 c0.628,0.55,0.875,1.416,0.634,2.214c-0.063,0.207-0.218,0.612-0.554,1.011l0.063,1.373c0.917,0.566,1.875,1.547,1.875,3.291 c0,3.243-2.795,4.312-6.006,4.663l1.082,0.736c0.495,0.338,0.825,0.868,0.909,1.462c0.083,0.594-0.088,1.194-0.471,1.655 c-0.234,0.281-0.581,0.606-1.082,0.89v10.077c0,0.098-0.007,0.194-0.02,0.291c-0.4,2.899-7.002,3.029-7.068,3.029H93.61 c-1.174,0-2.126-0.952-2.126-2.126v-0.478h-9.301c-1.068,2.103-5.385,2.82-7.007,2.82H74.331z M91.484,46.75v-0.377h-9.059v0.377 H91.484z M91.484,41.108v-0.084h-9.059v0.084H91.484z M80.046,29.141c1.649-0.246,3.374-0.515,5.065-0.792v-0.158h-5.065V29.141z"/>
  <linearGradient id="E" x1="92.272" x2="82.781" y1="9.016" y2="62.838" gradientUnits="userSpaceOnUse">
    <stop offset="0" style="stop-color:#e606b9"/>
    <stop offset=".175" style="stop-color:#401dd0"/>
    <stop offset=".282" style="stop-color:#421dd0"/>
    <stop offset=".324" style="stop-color:#491ccf"/>
    <stop offset=".354" style="stop-color:#551acd"/>
    <stop offset=".379" style="stop-color:#6618cb"/>
    <stop offset=".4" style="stop-color:#7d15c8"/>
    <stop offset=".419" style="stop-color:#9811c4"/>
    <stop offset=".437" style="stop-color:#b90cbf"/>
    <stop offset=".452" style="stop-color:#de07ba"/>
    <stop offset=".455" style="stop-color:#e606b9"/>
    <stop offset=".582" style="stop-color:#9411c4"/>
    <stop offset=".72" style="stop-color:#401dd0"/>
    <stop offset=".753" style="stop-color:#461ccf"/>
    <stop offset=".8" style="stop-color:#581acd"/>
    <stop offset=".854" style="stop-color:#7516c9"/>
    <stop offset=".914" style="stop-color:#9e10c3"/>
    <stop offset=".977" style="stop-color:#d209bc"/>
    <stop offset="1" style="stop-color:#e606b9"/>
  </linearGradient>
  <path fill="url(#E)" d="M112.372,54.761c-1.174,0-2.126-0.952-2.126-2.126V38.641c-0.352,0.238-0.713,0.476-1.085,0.713 c-0.349,0.223-0.746,0.334-1.144,0.334c-0.393,0-0.785-0.108-1.131-0.325l-0.404-0.254c-0.487-0.307-0.829-0.796-0.948-1.358 c-0.12-0.563-0.007-1.15,0.314-1.627c3.191-4.754,6.025-11.908,7.219-18.225c0.11-0.583,0.458-1.093,0.961-1.407 c0.341-0.214,0.732-0.324,1.128-0.324c0.187,0,0.374,0.024,0.558,0.074l7.985,2.17c0.595,0.162,1.09,0.574,1.357,1.128 c0.195,0.405,0.255,0.856,0.179,1.29h9.544l2.391-2.825c0.418-0.495,1.019-0.753,1.624-0.753c0.425,0,0.853,0.126,1.224,0.388 c0.141,0.099,3.467,2.445,5.514,4.096c0.674,0.543,0.95,1.441,0.7,2.269c-0.147,0.49-0.816,2.09-3.205,2.09h-19.845 c-0.527,0-1.021-0.194-1.398-0.525c-0.354,0.674-0.72,1.325-1.097,1.955c0.249,0.191,0.455,0.437,0.601,0.723 c0.258,0.508,0.302,1.099,0.12,1.639c-0.074,0.221-0.167,0.419-0.274,0.596h15.87l2.468-2.901 c0.418-0.492,1.016-0.749,1.62-0.749c0.422,0,0.847,0.125,1.216,0.382c0.145,0.101,3.556,2.484,5.646,4.175 c0.672,0.543,0.948,1.439,0.698,2.267c-0.389,1.29-1.617,2.091-3.205,2.091H138.3c0.174,0.505,0.152,1.058-0.063,1.549 c-0.081,0.186-0.181,0.359-0.296,0.52c8.813,3.199,11.355,8.362,10.799,11.934c-0.404,2.599-2.463,4.413-5.006,4.414h-0.001 c-1.289,0-2.628-0.466-3.872-1.348c-0.431-0.305-0.732-0.76-0.847-1.274c-0.125-0.567-0.294-1.169-0.51-1.818 c-3.505,0.832-8.437,1.923-14.424,3.035c-0.667,0.615-1.424,1.032-2.223,1.222c-0.164,0.039-0.329,0.058-0.491,0.058 c-0.794,0-1.53-0.446-1.893-1.16c-1.498,1.41-4.71,1.884-6.013,1.884H112.372z M133.986,40.928 c-1.053,0.991-2.23,2.001-3.463,2.975c1.67-0.005,3.448-0.014,5.287-0.024C135.236,42.872,134.623,41.88,133.986,40.928z M120.267,43.384c1.608-1.268,3.97-4.613,5.51-7.637h-5.51V43.384z"/>
  <g fill="#FFF">
    <path d="M37.983 53.979c-.387 0-.765-.188-.996-.529l-3.026-4.483c-.193-.286-.254-.642-.166-.975.087-.334.314-.614.623-.77.922-.462 1.346-.732 1.54-.885-2.532.45-5.324.806-8.323 1.058-.034.003-.067.005-.101.005-.463 0-.89-.269-1.087-.694l-.202-.434c-.154-.33-.149-.713.013-1.039.162-.327.464-.563.82-.64 3.054-.663 6.013-1.621 8.584-2.76h-7.199c-.522 0-.984-.338-1.143-.835l-.324-1.013c-.117-.365-.052-.764.174-1.073.226-.309.586-.492.969-.492h14.33v-.13H31.083c-.522 0-.985-.339-1.144-.837l-.322-1.012c-.116-.364-.051-.763.175-1.072s.586-.492.969-.492h1.26V24.59h-3.277c-.522 0-.985-.338-1.143-.835l-.323-1.012c-.117-.365-.052-.764.174-1.073.226-.309.586-.492.969-.492h14.159c-.405-.714-.982-1.364-1.489-1.746-.302-.227-.479-.583-.479-.96s.179-.733.481-.959l.241-.181c.148-.111.319-.186.501-.22 1.26-.233 2.409-.351 3.415-.351 4.194 0 5 2.006 5.152 2.869.092.523.032 1.051-.155 1.547h6.162l2.421-2.958c.236-.289.581-.44.929-.44.245 0 .491.075.703.228.13.094 3.204 2.319 5.07 3.884.369.309.517.809.377 1.269-.131.43-.619 1.429-2.317 1.429h-2.64l1.206.801c.295.196.489.514.528.866.04.353-.079.705-.324.961-.239.25-.601.544-1.119.765v5.745c0 .053-.003.104-.008.154.815.487 1.789 1.088 2.592 1.64.431.295.621.836.47 1.336-.09.298-.244.556-.452.768.76.468 1.564.979 2.238 1.438.399.271.596.757.5 1.229-.073.361-.456 1.541-2.306 1.541h-2.09l.672.423c.274.173.467.449.535.766.067.317.004.648-.177.918-.294.439-.868.963-1.93.963-.178 0-.366-.014-.568-.042-.614.177-1.313.366-2.065.561 2.049.45 4.5.758 7.515.953.631.041 1.123.564 1.123 1.197v.4c0 .537-.357 1.01-.875 1.155-1.727.486-2.826 1.764-3.266 3.797-.069.319-.265.597-.543.768-.191.118-.41.179-.63.179-.101 0-.201-.013-.3-.038-5.09-1.314-9.212-3.134-12.016-6.928-.002.001-.004.003-.005.004-1.795 1.198-5.463 3.568-9.998 6.066-.323.338-.698.63-1.094.852C38.382 53.93 38.181 53.979 37.983 53.979zM44.183 45.315c1.354-.275 2.708-.568 3.995-.863-.252-.513-.488-1.052-.706-1.622-1.007.506-2.107.976-3.29 1.403V45.315zM51.174 41.834c.407.407.859.781 1.359 1.124.329-.368.658-.749.973-1.124H51.174zM57.538 38.421l.133-.13h-7.196v.13H57.538zM53.197 31.588v-.274h-2.722v.274H53.197zM42.469 31.588v-.274h-2.521v.274H42.469zM53.197 27.901v-.31h-2.722v.31H53.197zM42.469 27.901v-.31h-2.521v.31H42.469zM74.331 53.908c-.663 0-1.2-.537-1.2-1.2V38.2c-.034-.037-.066-.076-.097-.118l-3.548-4.916c-.2-.277-.272-.627-.199-.961s.287-.621.585-.788c1.242-.696 1.242-.827 1.242-1.087V18.366c0-.336.141-.657.389-.884.222-.204.512-.316.811-.316.034 0 .069.001.104.005l7.098.614c.33.028.633.192.838.452s.294.593.245.92c-.128.859-.624 1.462-1.478 1.801v2.645l2.141-2.663c.236-.294.584-.448.936-.448.251 0 .505.079.721.242.089.067 1.617 1.218 3.119 2.428v-4.723c0-.334.139-.652.384-.879.223-.207.515-.321.816-.321.03 0 .06.001.089.003l6.775.506c.337.025.647.191.855.458s.294.608.237.941c-.093.549-.401 1.212-1.272 1.622v3.121h1.93l2.303-2.907c.236-.298.587-.455.941-.455.251 0 .505.079.721.241.125.094 3.083 2.323 4.828 3.854.354.311.494.799.357 1.25-.067.225-.232.605-.61.917l.104 2.298c1.03.5 1.852 1.25 1.852 2.728 0 3.163-3.407 3.785-7.861 3.891l3.342 2.274c.28.19.467.49.514.825s-.05.674-.266.935c-.241.29-.645.641-1.296.9v10.658c0 .055-.004.109-.012.164-.261 1.889-6.092 2.23-6.15 2.23H93.61c-.663 0-1.2-.537-1.2-1.2v-1.403H81.497c-.115 1.825-4.205 2.82-6.32 2.82H74.331zM92.41 47.676v-2.229H81.5v2.229H92.41zM92.41 42.034v-1.936H81.5v1.936H92.41zM92.711 36.686l.968-.961h-.997c-.196 0-.388-.002-.574-.005-.211.365-.558.715-1.117.967H92.711zM81.612 36.686c.069-.635.135-1.317.19-1.964-.832.434-1.74.896-2.718 1.379l1.736.585H81.612zM86.346 32.918c-.062-.189-.114-.391-.157-.605-.249.145-.525.303-.826.474L86.346 32.918zM79.121 30.213c2.213-.321 4.613-.695 6.917-1.079v-1.875c-.069.004-.14.006-.212.006h-6.705V30.213zM97.159 29.022c.969 0 1.971 0 2.408-.033.297-.003.403-.03.46-.062.224-.283.568-.847.961-1.626h-7.066v1.721C93.938 29.022 97.159 29.022 97.159 29.022zM112.372 53.835c-.663 0-1.2-.537-1.2-1.2V36.848c-.779.581-1.611 1.153-2.509 1.726-.197.125-.421.188-.646.188-.222 0-.443-.062-.639-.184l-.404-.254c-.274-.173-.468-.449-.535-.768-.067-.317-.003-.648.178-.918 3.256-4.85 6.145-12.138 7.36-18.568.062-.329.259-.617.542-.794.192-.121.414-.183.637-.183.105 0 .211.014.314.042l7.985 2.17c.336.091.615.324.767.637s.158.677.021.996c-.103.238-.285.545-.605.817h11.571l2.668-3.153c.236-.279.574-.425.917-.425.239 0 .48.072.69.219.14.098 3.441 2.427 5.466 4.06.38.307.536.813.395 1.281-.13.431-.615 1.432-2.318 1.432h-19.845c-.522 0-.985-.338-1.144-.836l-.262-.822c-.757 1.596-1.563 3.062-2.434 4.425l.411.13c.307.097.562.313.707.601.146.287.171.62.068.925-.225.672-.711 1.039-1.188 1.248v.572c.029-.002.06-.003.09-.003h18l2.745-3.227c.236-.278.573-.423.915-.423.237 0 .478.071.686.216.144.1 3.528 2.465 5.595 4.135.379.307.535.813.394 1.279-.27.897-1.137 1.433-2.318 1.433h-9.865l1.189.52c.292.127.521.366.638.663.115.297.108.627-.02.919-.319.727-1.058 1.186-2.005 1.262-.104.115-.21.232-.319.351.015-.009.407-.205.407-.205.169-.084.353-.127.537-.127.123 0 .246.02.365.057 9.294 2.97 11.977 7.969 11.45 11.347-.338 2.171-1.981 3.63-4.091 3.631h-.001c-1.097 0-2.25-.407-3.336-1.177-.243-.173-.414-.429-.479-.72-.183-.827-.452-1.721-.817-2.713-3.573.861-8.89 2.055-15.464 3.27-.596.606-1.277 1.012-1.993 1.182-.093.021-.186.032-.277.032-.513 0-.983-.331-1.144-.841l-.882-2.807v1.724c0 .08-.008.16-.024.238-.316 1.559-4.034 2.409-5.855 2.409H112.372zM134.566 39.061c-1.845 1.9-4.304 3.977-6.821 5.773 2.841-.001 6.151-.019 9.628-.039-.82-1.548-1.745-3.091-2.723-4.539-.192-.286-.253-.642-.165-.976C134.505 39.204 134.532 39.131 134.566 39.061zM119.341 44.681c.486-.091 1.04-.25 1.193-.345 1.968-1.335 5.115-5.887 6.708-9.515h-7.489c-.144 0-.283-.026-.412-.073V44.681z"/>
  </g>
  <linearGradient id="F" x1="52.145" x2="42.236" y1="16.939" y2="53.919" gradientUnits="userSpaceOnUse">
    <stop offset="0" style="stop-color:#401dd0"/>
    <stop offset=".397" style="stop-color:#e606b9"/>
    <stop offset=".746" style="stop-color:#401dd0"/>
    <stop offset=".758" style="stop-color:#561acd"/>
    <stop offset=".781" style="stop-color:#7c15c8"/>
    <stop offset=".807" style="stop-color:#9d10c3"/>
    <stop offset=".834" style="stop-color:#b80cbf"/>
    <stop offset=".863" style="stop-color:#cc0abd"/>
    <stop offset=".896" style="stop-color:#db08bb"/>
    <stop offset=".936" style="stop-color:#e306b9"/>
    <stop offset="1" style="stop-color:#e606b9"/>
  </linearGradient>
  <path fill="url(#F)" d="M62.222,43.272c-0.241,0.36-0.645,0.541-1.572,0.36c-1.735,0.508-4.195,1.122-6.454,1.627 c3.267,1.447,7.462,2.025,11.898,2.313v0.4c-2.177,0.613-3.589,2.275-4.113,4.698c-7.14-1.844-11.657-4.519-13.834-11.567 c-1.493,0.868-3.228,1.628-5.164,2.277v3.397c1.855-0.361,3.913-0.795,5.929-1.265l0.081,0.397 c-1.896,1.266-5.606,3.65-10.083,6.108c-0.282,0.326-0.605,0.58-0.927,0.76l-3.026-4.483c2.017-1.011,2.339-1.408,2.339-2.133 v-1.3c-3.024,0.612-6.332,1.048-9.76,1.337l-0.202-0.434c5.324-1.156,9.962-3.072,13.108-5.133H28.463l-0.324-1.013h15.53v-2.53 H31.083l-0.322-1.012h12.907v-2.278h-4.921v0.506c0,0.434-2.501,1.483-4.76,1.483h-0.766v-12.4l5.848,1.988h14.924l2.097-1.988 H28.745l-0.323-1.012h16.375c-0.201-0.072-0.362-0.145-0.564-0.217c-0.282-1.446-1.412-2.929-2.42-3.688l0.241-0.181 c8.592-1.59,8.269,3,5.284,4.085h9.641l2.782-3.398c0,0,3.147,2.276,5.002,3.832c-0.121,0.397-0.565,0.579-1.169,0.579h-6.614 l4.516,3.001c-0.241,0.253-0.685,0.578-1.451,0.686v6.651c0,0.109-0.323,0.253-0.767,0.398c1.009,0.578,2.662,1.554,3.872,2.385 c-0.12,0.398-0.564,0.579-1.129,0.579H49.275v2.53h8.753l2.582-2.53c0,0,2.944,1.699,4.799,2.964 c-0.081,0.397-0.524,0.579-1.13,0.579h-6.25L62.222,43.272z M38.748,26.391v2.71h4.921v-2.71H38.748z M43.669,32.789v-2.675 h-4.921v2.675H43.669z M48.791,40.707c0.968,1.625,2.299,2.856,3.953,3.796c1.129-1.194,2.38-2.712,3.267-3.869h-7.099 L48.791,40.707z M49.275,26.391v2.71h5.123v-2.71H49.275z M54.397,30.114h-5.123v2.675h5.123V30.114z M49.275,36.079h6.494 l1.532-1.447c-0.686,0.108-1.331,0.181-1.895,0.181h-1.008v-1.012h-5.123V36.079z"/>
  <linearGradient id="G" x1="90.66" x2="80.901" y1="18.047" y2="54.469" gradientUnits="userSpaceOnUse">
    <stop offset="0" style="stop-color:#401dd0"/>
    <stop offset=".046" style="stop-color:#481ccf"/>
    <stop offset=".119" style="stop-color:#5f19cc"/>
    <stop offset=".21" style="stop-color:#8513c6"/>
    <stop offset=".314" style="stop-color:#b80cbf"/>
    <stop offset=".397" style="stop-color:#e606b9"/>
    <stop offset=".746" style="stop-color:#401dd0"/>
    <stop offset=".776" style="stop-color:#491ccf"/>
    <stop offset=".824" style="stop-color:#6118cb"/>
    <stop offset=".884" style="stop-color:#8913c6"/>
    <stop offset=".954" style="stop-color:#bf0bbe"/>
    <stop offset="1" style="stop-color:#e606b9"/>
  </linearGradient>
  <path fill="url(#G)" d="M95.787,35.319l5.365,3.651c-0.241,0.29-0.727,0.614-1.573,0.759v11.567 c-0.04,0.29-2.985,1.194-4.962,1.194H93.61v-2.604H80.299v1.121c0,0.506-2.621,1.699-5.123,1.699h-0.846V37.163 c-0.122,0.072-0.202,0.145-0.324,0.217l-3.548-4.916c1.613-0.904,1.855-1.302,1.855-2.134V18.366l7.098,0.614 c-0.081,0.542-0.442,0.904-1.491,1.048v5.025h1.573l2.703-3.362c0,0,3.024,2.277,4.758,3.795 c-0.121,0.398-0.564,0.578-1.129,0.578H77.92v5.531c2.581-0.361,5.646-0.831,8.671-1.338l0.041,0.398 c-2.097,1.266-5.849,3.362-10.729,5.639l4.719,1.591h2.056c0.162-1.266,0.323-2.964,0.404-4.193l8.107,1.084 c-0.122,0.652-0.727,0.941-1.613,1.049c-0.93,0.542-2.38,1.374-3.63,2.06h7.259L95.787,35.319z M80.299,38.898v4.336H93.61 v-4.336H80.299z M93.61,48.876v-4.629H80.299v4.629H93.61z M103.331,29.896c1.451,0.542,1.815,1.049,1.815,1.917 c0,1.987-2.018,2.71-8.632,2.71h-3.833c-4.437,0-5.444-0.832-5.444-3.94V18.438l6.774,0.506c-0.08,0.47-0.442,0.796-1.29,0.94 v5.204h3.71l2.663-3.362c0,0,3.027,2.278,4.759,3.797c-0.12,0.397-0.522,0.578-1.128,0.578H92.722v3.434 c0,0.506,0.202,0.688,1.251,0.688h3.187c1.009,0,2.017,0,2.5-0.037c0.526,0,0.887-0.108,1.212-0.397 c0.442-0.506,1.17-1.772,1.895-3.47h0.403L103.331,29.896z"/>
  <linearGradient id="H" x1="133.915" x2="123.831" y1="18.07" y2="55.706" gradientUnits="userSpaceOnUse">
    <stop offset="0" style="stop-color:#e606b9"/>
    <stop offset=".044" style="stop-color:#db07ba"/>
    <stop offset=".121" style="stop-color:#bf0bbe"/>
    <stop offset=".221" style="stop-color:#9112c5"/>
    <stop offset=".339" style="stop-color:#521acd"/>
    <stop offset=".37" style="stop-color:#401dd0"/>
    <stop offset=".698" style="stop-color:#e606b9"/>
    <stop offset=".897" style="stop-color:#7616c9"/>
    <stop offset="1" style="stop-color:#401dd0"/>
  </linearGradient>
  <path fill="url(#H)" d="M123.142,20.463c-0.202,0.469-0.727,0.759-1.652,0.759c-1.17,2.747-2.503,5.205-4.035,7.374 l1.938,0.614c-0.121,0.361-0.444,0.579-1.251,0.723v21.254c-0.081,0.399-2.421,1.447-4.68,1.447h-1.089V34.343 c-1.37,1.193-2.822,2.241-4.354,3.219l-0.404-0.254c3.106-4.627,6.211-11.965,7.543-19.015L123.142,20.463z M136.009,39.403 c15.729,5.025,11.051,15.907,5.081,11.678c-0.28-1.266-0.725-2.567-1.25-3.868c-4.113,1.012-9.923,2.313-16.819,3.578 c-0.483,0.58-1.048,0.977-1.653,1.12l-1.896-6.034c0,0,1.251-0.218,1.733-0.546c2.662-1.807,6.574-7.988,7.786-11.71h-9.238 l-0.322-1.014h18.555l3.104-3.65c0,0,3.47,2.421,5.526,4.084c-0.12,0.398-0.605,0.579-1.17,0.579h-15.61l6.454,2.819 c-0.159,0.362-0.645,0.613-1.451,0.543c-2.46,2.892-7.06,6.649-11.092,9.035c3.872,0.037,9.561,0,15.569-0.035 c-1.09-2.276-2.379-4.483-3.671-6.398L136.009,39.403z M122.859,22.956h12.906l3.027-3.578c0,0,3.387,2.386,5.403,4.013 c-0.12,0.398-0.564,0.578-1.17,0.578h-19.845L122.859,22.956z"/>
</svg>
