<svg width="32" height="32" xmlns="http://www.w3.org/2000/svg" xmlns:xlink="http://www.w3.org/1999/xlink">
  <defs>
    <linearGradient id="a" x2="0" y2="1">
      <stop stop-color="#fff" offset="0"/>
      <stop stop-color="#E2FF29" offset="1"/>
    </linearGradient>
    <linearGradient id="b" x1="-1.235" x2="-1.235" y1="-1.822" y2="16.398" gradientTransform="matrix(1.2147 0 0 .82328 3.326 8.91)" gradientUnits="userSpaceOnUse" xlink:href="#a"/>
    <linearGradient id="c" x1="-1.482" x2="-1.482" y1="-1.518" y2="8.561" gradientTransform="matrix(1.012 0 0 .98817 25.5 6.875)" gradientUnits="userSpaceOnUse" xlink:href="#a"/>
  </defs>
  <circle cx="16" cy="16" r="15" fill="#8aff4c" stroke="#31955e"/>
  <path d="m22.142 10.03-.88 2.32a5.807 5.807 0 0 0-1.118-.586 4.211 4.211 0 0 0-1.522-.294 4.359 4.359 0 0 0-.986.105q-.74.172-1.262.625a2.72 2.72 0 0 0-.168.158 2.868 2.868 0 0 0-.687 1.204q-.177.594-.177 1.348a4.564 4.564 0 0 0 .114 1.052 3.049 3.049 0 0 0 .79 1.468q.904.92 2.376.92a4.254 4.254 0 0 0 1.636-.339 5.912 5.912 0 0 0 1.004-.541l.88 2.32q-1.584 1.12-3.84 1.12a8.083 8.083 0 0 1-1.964-.226 5.684 5.684 0 0 1-2.572-1.382 5.311 5.311 0 0 1-1.58-2.976 7.729 7.729 0 0 1-.124-1.416 7.778 7.778 0 0 1 .203-1.829 5.216 5.216 0 0 1 1.437-2.579q1.534-1.489 4.223-1.585a10.543 10.543 0 0 1 .377-.007 7.566 7.566 0 0 1 1.891.226 5.885 5.885 0 0 1 1.949.894zM6.526 13.87h4v2.4h-4v4.48h-3.2V9.07h7.52v2.56h-4.32z" fill="url(#b)" fill-rule="evenodd" stroke-linecap="round" stroke-width="3" style="paint-order:stroke" stroke="#31955e"/>
  <path d="M27.714 5.57h2.64v1.8h-2.64v2.58h-1.92V7.37h-2.64v-1.8h2.64V2.99h1.92z" fill="url(#c)" fill-rule="evenodd" stroke-linecap="round" stroke-width="3" style="paint-order:stroke" stroke="#31955e"/>
</svg>
