<svg xmlns="http://www.w3.org/2000/svg" width="32" height="32">
   <circle cx="16" cy="16" r="15" fill="#65ddff" stroke="#5579ff"
      style="fill:#fff;stroke:#64c1f6;stroke-opacity:1" />
   <path
      d="M19.472 12.88q-1.52-.752-3.2-.752-.832 0-1.264.32t-.432.864q0 .896 1.344 1.28 2.384.656 3.344 1.568.976.912.976 2.352 0 1.696-1.152 2.592T15.68 22q-1.008 0-2.096-.304-1.088-.32-1.824-.816l.64-2.128q1.632 1.12 3.392 1.12.832 0 1.248-.336.432-.352.432-.976 0-.512-.352-.832-.336-.32-1.2-.576-2.192-.64-3.152-1.552-.96-.928-.96-2.288 0-1.52 1.136-2.416Q14.096 10 16.16 10q2.192 0 3.808.768z"
      aria-label="S"
      style="fill:#0849e1;stroke:#d8effa;stroke-width:3;paint-order:stroke fill markers" />
</svg>