<svg xmlns="http://www.w3.org/2000/svg" width="126" height="70" xml:space="preserve">
  <path fill="#B42E2E" d="M7.667 17.167h111.666L108.4 36.983 119.333 57H8.743l10.575-19.917z"/>
  <path fill="#E58787" d="M111.173 31.958h-94.84l2.985 5.125-2.567 4.834h94.344l-2.695-4.934"/>
  <linearGradient id="a" gradientUnits="userSpaceOnUse" x1="63.375" y1="3" x2="63.375" y2="66.745">
    <stop offset=".005" style="stop-color:#ffb0b0"/>
    <stop offset=".789" style="stop-color:#ffdddf"/>
  </linearGradient>
  <circle fill="url(#a)" cx="63.375" cy="34.871" r="31.872"/>
  <path fill="#FFB0B0" d="M94.796 34.873c0 17.602-14.27 31.871-31.872 31.871s-31.873-14.27-31.873-31.871c0 0 14.271 10.021 31.873 10.021 17.602.001 31.872-10.021 31.872-10.021z"/>
  <g>
    <circle fill="#FF9A9A" cx="63.539" cy="19.699" r="8.5"/>
    <path fill="#FF9A9A" d="M71.413 16.498s2.495-1.822 3.62-1.577c1.438.313 2.396 3.116 1.983 3.778-.78 1.25-5.103 2.438-5.103 2.438M56.539 16.824s-3.908-2.148-5.033-1.903c-1.438.313-2.396 3.116-1.983 3.778.78 1.25 6.311 2.926 6.311 2.926"/>
    <circle fill="#FFCCCD" cx="63.556" cy="19.699" r="3.98"/>
    <circle fill="#FFC4C4" cx="61.503" cy="13.522" r=".503"/>
    <circle fill="#FFC4C4" cx="65.5" cy="13.522" r=".503"/>
    <path fill="#FFC4C4" d="M62.006 14.255h2.99v.391h-2.99z"/>
  </g>
  <g fill="none" stroke-miterlimit="10">
    <path stroke="#870000" d="M95.957 35.773c0 18.1-14.271 31.874-32.221 31.874-17.948 0-31.85-13.592-31.85-31.692C31.887 17.855 45.51 3 63.458 3c17.95 0 32.499 14.673 32.499 32.773z"/>
    <circle stroke="#F14546" stroke-width="2" cx="63.737" cy="34.871" r="31.872"/>
    <circle stroke="#F14546" cx="63.556" cy="34.873" r="27.719"/>
  </g>
  <g>
    <linearGradient id="b" gradientUnits="userSpaceOnUse" x1="53.38" y1="20.824" x2="53.38" y2="48.554">
      <stop offset="0" style="stop-color:#fff"/>
      <stop offset=".5" style="stop-color:#fee7e7"/>
      <stop offset=".6" style="stop-color:#fedcdc"/>
      <stop offset=".789" style="stop-color:#febbbb"/>
    </linearGradient>
    <path fill="url(#b)" stroke="#F14546" stroke-miterlimit="10" d="m60.622 48.554-2.206-7.134H48.179l-2.205 7.134h-6.408l10.111-27.73h7.407l10.11 27.73h-6.572zM49.553 37.14h7.49l-.957-3.036c-.083-.244-.847-2.768-2.289-7.572a86.617 86.617 0 0 0-.458-1.5h-.167a164.738 164.738 0 0 1-2.705 9.072l-.914 3.036z"/>
    <linearGradient id="c" gradientUnits="userSpaceOnUse" x1="78.973" y1="20.311" x2="78.973" y2="49.067">
      <stop offset="0" style="stop-color:#fff"/>
      <stop offset=".5" style="stop-color:#fee7e7"/>
      <stop offset=".6" style="stop-color:#fedcdc"/>
      <stop offset=".789" style="stop-color:#febbbb"/>
    </linearGradient>
    <path fill="url(#c)" stroke="#F14546" stroke-miterlimit="10" d="M78.723 49.066c-4.467-.024-7.989-1.305-10.569-3.842l2.912-3.476c2.192 1.854 4.536 2.794 7.033 2.817 2.579 0 4.244-.744 4.992-2.231a3.611 3.611 0 0 0 .375-1.609c0-1.927-1.054-3.195-3.161-3.806-1.36-.414-3.205-.621-5.535-.621v-3.951c5.104-.024 7.67-1.439 7.698-4.244 0-1.829-.971-2.938-2.913-3.33a6.216 6.216 0 0 0-1.331-.146c-1.97.049-3.953.866-5.951 2.451l-3.203-3.365c2.996-2.268 6.144-3.402 9.445-3.402 4.104 0 7.046 1.074 8.821 3.219.943 1.171 1.415 2.561 1.415 4.171-.027 3-1.79 5.11-5.285 6.329v.183c2.885.708 4.813 2.098 5.784 4.17.36.805.541 1.683.541 2.634 0 2.805-1.388 4.952-4.161 6.438-1.97 1.075-4.273 1.611-6.907 1.611z"/>
  </g>
</svg>
