<svg xmlns="http://www.w3.org/2000/svg" width="126" height="70" xml:space="preserve">
  <path fill="#127A16" d="M12 20h103.833l-10.166 16.333 10.166 16.5H13l9.833-16.417z"/>
  <linearGradient id="a" gradientUnits="userSpaceOnUse" x1="63.417" y1="6" x2="63.417" y2="64.834">
    <stop offset="0" style="stop-color:#c6edde"/>
    <stop offset="1" style="stop-color:#eff1ee"/>
  </linearGradient>
  <circle fill="url(#a)" cx="63.417" cy="35.416" r="29.417"/>
  <path fill="#C4ECDD" d="M92.416 35.417c0 16.246-13.17 29.416-29.416 29.416s-29.417-13.17-29.417-29.416c0 0 13.171 9.25 29.417 9.25s29.416-9.25 29.416-9.25z"/>
  <g fill="none" stroke-miterlimit="10">
    <path stroke="#127715" d="M93.488 36.248c0 16.706-13.172 29.419-29.738 29.419-16.565 0-29.396-12.545-29.396-29.251C34.354 19.71 46.928 6 63.493 6 80.06 6 93.488 19.542 93.488 36.248z"/>
    <circle stroke="#15971C" stroke-width="2" cx="63.75" cy="35.416" r="29.416"/>
    <circle stroke="#15971C" cx="63.583" cy="35.417" r="25.583"/>
  </g>
  <g>
    <linearGradient id="b" gradientUnits="userSpaceOnUse" x1="52.63" y1="23.02" x2="52.63" y2="47.837">
      <stop offset=".463" style="stop-color:#fff"/>
      <stop offset=".605" style="stop-color:#c9fb9d"/>
    </linearGradient>
    <path fill="url(#b)" stroke="#127A16" stroke-miterlimit="10" d="M42.353 47.837V23.02H51.5c6.632.044 9.961 2.084 9.985 6.123 0 1.768-.656 3.219-1.968 4.354a5.552 5.552 0 0 1-1.786.982v.196c2.575.546 4.203 1.844 4.883 3.897.194.61.292 1.266.292 1.964 0 3.099-1.653 5.238-4.957 6.417-1.628.589-3.535.884-5.722.884h-9.874zm5.539-14.733h3.207c3.183-.197 4.859-1.277 5.029-3.241 0-1.637-1.02-2.608-3.061-2.914a12.526 12.526 0 0 0-1.895-.131h-3.28v6.286zm0 10.902h3.827c3.863-.021 5.806-1.276 5.831-3.765-.049-2.27-1.992-3.416-5.831-3.438h-3.827v7.203z"/>
    <linearGradient id="c" gradientUnits="userSpaceOnUse" x1="73.488" y1="23.081" x2="73.488" y2="47.798">
      <stop offset=".463" style="stop-color:#fff"/>
      <stop offset=".605" style="stop-color:#c9fb9d"/>
    </linearGradient>
    <path fill="url(#c)" stroke="#127A16" stroke-miterlimit="10" d="M74.846 47.798V28.201l-7.888 4.583v-4.033c4.209-2.001 7.601-4.713 9.233-5.67h3.828v24.718h-5.173z"/>
  </g>
</svg>
