<svg xmlns="http://www.w3.org/2000/svg" width="126" height="70" xml:space="preserve">
  <path fill="#127A16" d="M12 20h103.833l-10.166 16.333 10.166 16.5H13l9.833-16.417z"/>
  <linearGradient id="a" gradientUnits="userSpaceOnUse" x1="63.417" y1="6" x2="63.417" y2="64.834">
    <stop offset="0" style="stop-color:#c6edde"/>
    <stop offset="1" style="stop-color:#eff1ee"/>
  </linearGradient>
  <circle fill="url(#a)" cx="63.417" cy="35.416" r="29.417"/>
  <path fill="#C4ECDD" d="M92.416 35.417c0 16.246-13.17 29.416-29.416 29.416s-29.417-13.17-29.417-29.416c0 0 13.171 9.25 29.417 9.25s29.416-9.25 29.416-9.25z"/>
  <g fill="none" stroke-miterlimit="10">
    <path stroke="#127715" d="M93.488 36.248c0 16.706-13.172 29.419-29.738 29.419-16.565 0-29.396-12.545-29.396-29.251C34.354 19.71 46.928 6 63.493 6 80.06 6 93.488 19.542 93.488 36.248z"/>
    <circle stroke="#15971C" stroke-width="2" cx="63.75" cy="35.416" r="29.416"/>
    <circle stroke="#15971C" cx="63.583" cy="35.417" r="25.583"/>
  </g>
  <g>
    <linearGradient id="b" gradientUnits="userSpaceOnUse" x1="52.63" y1="23.02" x2="52.63" y2="47.837">
      <stop offset=".463" style="stop-color:#fff"/>
      <stop offset=".605" style="stop-color:#c9fb9d"/>
    </linearGradient>
    <path fill="url(#b)" stroke="#127A16" stroke-miterlimit="10" d="M42.353 47.837V23.02H51.5c6.632.044 9.961 2.084 9.985 6.123 0 1.768-.656 3.219-1.968 4.354a5.552 5.552 0 0 1-1.786.982v.196c2.575.546 4.203 1.844 4.883 3.897.194.61.292 1.266.292 1.964 0 3.099-1.653 5.238-4.957 6.417-1.628.589-3.535.884-5.722.884h-9.874zm5.539-14.733h3.207c3.183-.197 4.859-1.277 5.029-3.241 0-1.637-1.02-2.608-3.061-2.914a12.526 12.526 0 0 0-1.895-.131h-3.28v6.286zm0 10.902h3.827c3.863-.021 5.806-1.276 5.831-3.765-.049-2.27-1.992-3.416-5.831-3.438h-3.827v7.203z"/>
    <linearGradient id="c" gradientUnits="userSpaceOnUse" x1="75.097" y1="22.562" x2="75.097" y2="47.837">
      <stop offset=".463" style="stop-color:#fff"/>
      <stop offset=".605" style="stop-color:#c9fb9d"/>
    </linearGradient>
    <path fill="url(#c)" stroke="#127A16" stroke-miterlimit="10" d="M65.967 47.837v-2.849c5.881-4.736 9.561-8.49 11.043-11.262.607-1.179.91-2.259.91-3.241 0-2.008-.85-3.274-2.551-3.798a5.35 5.35 0 0 0-1.604-.229c-1.676.022-3.365.873-5.064 2.554l-2.988-2.685c2.113-2.008 4.313-3.208 6.596-3.601a14.3 14.3 0 0 1 2.188-.164c3.182 0 5.563.982 7.141 2.946 1.021 1.31 1.531 2.871 1.531 4.682-.025 3.798-3.086 8.382-9.184 13.75 1.846-.174 3.34-.262 4.482-.262h6.014v4.158H65.967z"/>
  </g>
</svg>
