<svg xmlns="http://www.w3.org/2000/svg" width="126" height="70" xml:space="preserve">
  <path fill="#127A16" d="M12 20h103.833l-10.166 16.333 10.166 16.5H13l9.833-16.417z"/>
  <linearGradient id="a" gradientUnits="userSpaceOnUse" x1="63.417" y1="6" x2="63.417" y2="64.834">
    <stop offset="0" style="stop-color:#c6edde"/>
    <stop offset="1" style="stop-color:#eff1ee"/>
  </linearGradient>
  <circle fill="url(#a)" cx="63.417" cy="35.416" r="29.417"/>
  <path fill="#C4ECDD" d="M92.416 35.417c0 16.246-13.17 29.416-29.416 29.416s-29.417-13.17-29.417-29.416c0 0 13.171 9.25 29.417 9.25s29.416-9.25 29.416-9.25z"/>
  <g fill="none" stroke-miterlimit="10">
    <path stroke="#127715" d="M93.488 36.248c0 16.706-13.172 29.419-29.738 29.419-16.565 0-29.396-12.545-29.396-29.251C34.354 19.71 46.928 6 63.493 6 80.06 6 93.488 19.542 93.488 36.248z"/>
    <circle stroke="#15971C" stroke-width="2" cx="63.75" cy="35.416" r="29.416"/>
    <circle stroke="#15971C" cx="63.583" cy="35.417" r="25.583"/>
  </g>
  <g>
    <linearGradient id="b" gradientUnits="userSpaceOnUse" x1="53.371" y1="22.077" x2="53.371" y2="48.854">
      <stop offset=".526" style="stop-color:#fff"/>
      <stop offset=".626" style="stop-color:#c9fb9d"/>
    </linearGradient>
    <path fill="url(#b)" stroke="#127A16" d="M42.565 48.854V22.077h9.618c6.974.047 10.473 2.25 10.499 6.606 0 1.907-.689 3.474-2.069 4.698a5.83 5.83 0 0 1-1.877 1.06v.212c2.708.589 4.419 1.991 5.135 4.204.204.66.307 1.366.307 2.119 0 3.345-1.738 5.652-5.211 6.924-1.712.636-3.717.954-6.016.954H42.565zm5.825-15.896h3.372c3.346-.212 5.109-1.378 5.288-3.498 0-1.766-1.073-2.813-3.219-3.144a12.7 12.7 0 0 0-1.993-.142H48.39v6.784zm0 11.763h4.023c4.062-.023 6.105-1.378 6.131-4.063-.052-2.449-2.095-3.686-6.131-3.709H48.39v7.772z"/>
    <linearGradient id="c" gradientUnits="userSpaceOnUse" x1="76.706" y1="21.582" x2="76.706" y2="49.348">
      <stop offset=".526" style="stop-color:#fff"/>
      <stop offset=".626" style="stop-color:#c9fb9d"/>
    </linearGradient>
    <path fill="url(#c)" stroke="#127A16" d="M76.477 49.348c-4.113-.023-7.357-1.259-9.733-3.709l2.683-3.355c2.018 1.79 4.177 2.696 6.476 2.72 2.376 0 3.909-.718 4.599-2.154a3.662 3.662 0 0 0 .345-1.555c0-1.86-.971-3.085-2.912-3.674-1.252-.4-2.95-.601-5.097-.601v-3.815c4.7-.023 7.063-1.389 7.089-4.098 0-1.766-.895-2.837-2.682-3.215a5.462 5.462 0 0 0-1.227-.141c-1.814.047-3.641.836-5.479 2.367l-2.95-3.25c2.759-2.19 5.657-3.285 8.698-3.285 3.78 0 6.488 1.037 8.123 3.109.868 1.13 1.303 2.473 1.303 4.027-.025 2.896-1.647 4.934-4.866 6.111v.176c2.656.684 4.432 2.026 5.326 4.027.332.777.498 1.625.498 2.543 0 2.709-1.277 4.781-3.832 6.218-1.816 1.036-3.936 1.554-6.362 1.554z"/>
  </g>
</svg>
