<svg xmlns="http://www.w3.org/2000/svg" width="126" height="70" xml:space="preserve">
  <path fill="#F68908" d="M12.563 17.016h101.875l-13.625 20.437 13.625 20.438H12.563l12.375-20.438z"/>
  <path fill="#A24507" d="M13.824 19.099h99.225l-12.236 18.376 11.819 17.707H14.203l10.819-17.729z"/>
  <path fill="#FFF" d="M15.06 21.141h96.628l-10.875 16.312 10.541 15.813H15.363l9.575-15.813z"/>
  <path fill="#76410C" d="M13.938 23.266h98.75l-6.875 13.875 6.875 13.875h-98.75l7-13.875z"/>
  <radialGradient id="a" cx="63.5" cy="35.87" r="31.9" gradientTransform="matrix(0 1 -2 0 135.24 -27.63)" gradientUnits="userSpaceOnUse">
    <stop offset=".184" style="stop-color:#cb8166"/>
    <stop offset=".277" style="stop-color:#c2856e"/>
    <stop offset=".432" style="stop-color:#b78977"/>
    <stop offset=".485" style="stop-color:#a17361"/>
    <stop offset=".557" style="stop-color:#8a5c4a"/>
    <stop offset=".635" style="stop-color:#7a4c3a"/>
    <stop offset=".722" style="stop-color:#704230"/>
    <stop offset=".837" style="stop-color:#6d3f2d"/>
  </radialGradient>
  <linearGradient id="b" gradientUnits="userSpaceOnUse" x1="38.041" y1="50.566" x2="88.957" y2="21.171">
    <stop offset="0" style="stop-color:#d39c4e"/>
    <stop offset=".616" style="stop-color:#6c1000"/>
    <stop offset=".853" style="stop-color:#f2e8c2"/>
    <stop offset="1" style="stop-color:#974c2f"/>
  </linearGradient>
  <path fill="url(#a)" stroke="url(#b)" stroke-width="2.25" stroke-miterlimit="10" d="M66.949 66.327a4.932 4.932 0 0 1-6.98-.008L33.04 39.318a4.934 4.934 0 0 1 .01-6.979l27-26.929a4.936 4.936 0 0 1 6.98.01l26.929 27a4.933 4.933 0 0 1-.008 6.979L66.949 66.327z"/>
  <linearGradient id="c" gradientUnits="userSpaceOnUse" x1="46.421" y1="52.948" x2="80.578" y2="18.791">
    <stop offset="0" style="stop-color:#d39c4e"/>
    <stop offset=".616" style="stop-color:#6c1000"/>
    <stop offset="1" style="stop-color:#974c2f"/>
  </linearGradient>
  <path fill="none" stroke="url(#c)" stroke-width=".25" stroke-miterlimit="10" d="M66.949 66.327a4.932 4.932 0 0 1-6.98-.008L33.04 39.318a4.934 4.934 0 0 1 .01-6.979L60.049 5.41a4.936 4.936 0 0 1 6.98.01l26.929 27a4.933 4.933 0 0 1-.008 6.979L66.949 66.327z"/>
  <g>
    <linearGradient id="d" gradientUnits="userSpaceOnUse" x1="79.658" y1="16.164" x2="79.658" y2="22.041" gradientTransform="matrix(-1 0 0 1 134.066 0)">
      <stop offset="0" style="stop-color:#be601f"/>
      <stop offset=".353" style="stop-color:#cb8166"/>
      <stop offset=".642" style="stop-color:#b78977"/>
      <stop offset="1" style="stop-color:#be601f"/>
    </linearGradient>
    <linearGradient id="e" gradientUnits="userSpaceOnUse" x1="54.366" y1="16.039" x2="54.366" y2="22.153">
      <stop offset="0" style="stop-color:#6d4a45"/>
      <stop offset=".353" style="stop-color:#cb8166"/>
      <stop offset=".642" style="stop-color:#b78977"/>
      <stop offset="1" style="stop-color:#6d4a45"/>
    </linearGradient>
    <path fill="url(#d)" stroke="url(#e)" stroke-width=".25" stroke-miterlimit="10" d="M56.966 16.931s-2.358-.822-3.191-.764c-1.698.119-2.208 1.667-1.78 2.68.607 1.44 4.161 3.194 4.161 3.194"/>
    <linearGradient id="f" gradientUnits="userSpaceOnUse" x1="71.451" y1="16.368" x2="73.883" y2="20.579">
      <stop offset="0" style="stop-color:#be601f"/>
      <stop offset=".353" style="stop-color:#cb8166"/>
      <stop offset=".642" style="stop-color:#b78977"/>
      <stop offset="1" style="stop-color:#be601f"/>
    </linearGradient>
    <linearGradient id="g" gradientUnits="userSpaceOnUse" x1="73.075" y1="16.039" x2="73.075" y2="22.153">
      <stop offset="0" style="stop-color:#6d4a45"/>
      <stop offset=".353" style="stop-color:#cb8166"/>
      <stop offset=".642" style="stop-color:#b78977"/>
      <stop offset="1" style="stop-color:#6d4a45"/>
    </linearGradient>
    <path fill="url(#f)" stroke="url(#g)" stroke-width=".25" stroke-miterlimit="10" d="M70.476 16.931s2.358-.822 3.191-.764c1.698.119 2.208 1.667 1.78 2.68-.607 1.44-4.161 3.194-4.161 3.194"/>
    <linearGradient id="h" gradientUnits="userSpaceOnUse" x1="59.855" y1="13.949" x2="67.565" y2="27.303">
      <stop offset="0" style="stop-color:#be601f"/>
      <stop offset=".353" style="stop-color:#cb8166"/>
      <stop offset=".642" style="stop-color:#b78977"/>
      <stop offset="1" style="stop-color:#be601f"/>
    </linearGradient>
    <linearGradient id="i" gradientUnits="userSpaceOnUse" x1="63.71" y1="12.792" x2="63.71" y2="28.459">
      <stop offset="0" style="stop-color:#6d4a45"/>
      <stop offset=".353" style="stop-color:#cb8166"/>
      <stop offset=".642" style="stop-color:#b78977"/>
      <stop offset="1" style="stop-color:#6d4a45"/>
    </linearGradient>
    <circle fill="url(#h)" stroke="url(#i)" stroke-width=".25" stroke-miterlimit="10" cx="63.709" cy="20.626" r="7.709"/>
    <linearGradient id="j" gradientUnits="userSpaceOnUse" x1="63.71" y1="17.668" x2="63.71" y2="23.584">
      <stop offset="0" style="stop-color:#6d4a45"/>
      <stop offset=".353" style="stop-color:#cb8166"/>
      <stop offset=".642" style="stop-color:#b78977"/>
      <stop offset="1" style="stop-color:#6d4a45"/>
    </linearGradient>
    <circle fill="#C6AF99" stroke="url(#j)" stroke-width=".25" stroke-miterlimit="10" cx="63.709" cy="20.626" r="2.833"/>
    <circle fill="#7C4F45" cx="61.669" cy="15.542" r=".375"/>
    <circle fill="#7C4F45" cx="65.919" cy="15.542" r=".375"/>
    <path fill="#7C4F45" d="M62.46 15.908h2.625v.108H62.46z"/>
  </g>
  <g>
    <linearGradient id="k" gradientUnits="userSpaceOnUse" x1="38.79" y1="46.981" x2="44.497" y2="46.981" gradientTransform="rotate(10.58 64.206 34.722)">
      <stop offset="0" style="stop-color:#ebbb8f"/>
      <stop offset=".384" style="stop-color:#bf835c"/>
      <stop offset=".847" style="stop-color:#694835"/>
    </linearGradient>
    <path fill="url(#k)" stroke="#793B0A" stroke-width=".75" stroke-miterlimit="10" d="M40.96 46.101c-1.329.453-2.935-.734-3.589-2.65-.654-1.917-.108-3.837 1.221-4.29 1.329-.454 2.935.732 3.589 2.649.653 1.916.109 3.836-1.221 4.291z"/>
    <linearGradient id="l" gradientUnits="userSpaceOnUse" x1="35.55" y1="45.384" x2="41.257" y2="45.384" gradientTransform="rotate(-34.915 39.982 44.885)">
      <stop offset="0" style="stop-color:#ebbb8f"/>
      <stop offset=".384" style="stop-color:#bf835c"/>
      <stop offset=".847" style="stop-color:#694835"/>
    </linearGradient>
    <path fill="url(#l)" stroke="#793B0A" stroke-width=".75" stroke-miterlimit="10" d="M42.278 47.785c-.608 1.267-2.581 1.579-4.406.703-1.825-.878-2.813-2.613-2.204-3.878.607-1.267 2.58-1.58 4.405-.703 1.825.877 2.813 2.614 2.205 3.878z"/>
    <linearGradient id="m" gradientUnits="userSpaceOnUse" x1="48.347" y1="52.945" x2="54.054" y2="52.945" gradientTransform="translate(-7.277 -7.468)">
      <stop offset="0" style="stop-color:#ebbb8f"/>
      <stop offset=".384" style="stop-color:#bf835c"/>
      <stop offset=".847" style="stop-color:#694835"/>
    </linearGradient>
    <path fill="url(#m)" stroke="#793B0A" stroke-width=".75" stroke-miterlimit="10" d="M45.641 48.751c-1.225.688-3.02-.188-4.012-1.952-.992-1.766-.805-3.754.419-4.441 1.225-.688 3.02.187 4.012 1.951.991 1.765.804 3.754-.419 4.442z"/>
    <linearGradient id="n" gradientUnits="userSpaceOnUse" x1="38.333" y1="48.524" x2="44.041" y2="48.524" gradientTransform="rotate(-35.718 43.17 48.245)">
      <stop offset="0" style="stop-color:#ebbb8f"/>
      <stop offset=".384" style="stop-color:#bf835c"/>
      <stop offset=".847" style="stop-color:#694835"/>
    </linearGradient>
    <path fill="url(#n)" stroke="#793B0A" stroke-width=".75" stroke-miterlimit="10" d="M45.051 51.171c-.591 1.273-2.558 1.616-4.396.765-1.837-.851-2.849-2.572-2.258-3.848.589-1.274 2.558-1.615 4.395-.764 1.837.851 2.849 2.572 2.259 3.847z"/>
    <linearGradient id="o" gradientUnits="userSpaceOnUse" x1="62.689" y1="55.299" x2="68.397" y2="55.299" gradientTransform="rotate(14.791 77.29 -20.058)">
      <stop offset="0" style="stop-color:#ebbb8f"/>
      <stop offset=".384" style="stop-color:#bf835c"/>
      <stop offset=".847" style="stop-color:#694835"/>
    </linearGradient>
    <path fill="url(#o)" stroke="#793B0A" stroke-width=".75" stroke-miterlimit="10" d="M47.623 53.353c-1.359.354-2.874-.948-3.385-2.906-.511-1.96.174-3.836 1.533-4.19s2.873.947 3.385 2.907c.511 1.957-.176 3.833-1.533 4.189z"/>
    <linearGradient id="p" gradientUnits="userSpaceOnUse" x1="40.035" y1="53.154" x2="45.743" y2="53.154" gradientTransform="rotate(-43.49 44.996 51.545)">
      <stop offset="0" style="stop-color:#ebbb8f"/>
      <stop offset=".384" style="stop-color:#bf835c"/>
      <stop offset=".847" style="stop-color:#694835"/>
    </linearGradient>
    <path fill="url(#p)" stroke="#793B0A" stroke-width=".75" stroke-miterlimit="10" d="M48.081 55.239c-.413 1.343-2.317 1.946-4.252 1.353-1.936-.596-3.17-2.165-2.758-3.507.413-1.343 2.316-1.947 4.252-1.352 1.935.596 3.17 2.164 2.758 3.506z"/>
    <linearGradient id="q" gradientUnits="userSpaceOnUse" x1="47.47" y1="53.647" x2="53.179" y2="53.647" gradientTransform="rotate(15.783 51.534 51.694)">
      <stop offset="0" style="stop-color:#ebbb8f"/>
      <stop offset=".384" style="stop-color:#bf835c"/>
      <stop offset=".847" style="stop-color:#694835"/>
    </linearGradient>
    <path fill="url(#q)" stroke="#793B0A" stroke-width=".75" stroke-miterlimit="10" d="M50.703 56.807c-1.365.331-2.856-.997-3.334-2.965-.478-1.968.241-3.831 1.605-4.161 1.365-.332 2.856.996 3.334 2.964.477 1.967-.241 3.831-1.605 4.162z"/>
    <linearGradient id="r" gradientUnits="userSpaceOnUse" x1="46.772" y1="58.184" x2="53.874" y2="58.184" gradientTransform="matrix(1.1308 .0269 .0269 1.068 -9 -5.611)">
      <stop offset="0" style="stop-color:#ebbb8f"/>
      <stop offset=".384" style="stop-color:#bf835c"/>
      <stop offset=".847" style="stop-color:#694835"/>
    </linearGradient>
    <path fill="url(#r)" stroke="#793B0A" stroke-width=".75" stroke-miterlimit="10" d="M53.395 59.333c-.515 1.394-2.688 1.872-4.855 1.073-2.167-.804-3.506-2.58-2.991-3.974.515-1.395 2.688-1.874 4.856-1.071 2.166.8 3.505 2.578 2.99 3.972z"/>
    <linearGradient id="s" gradientUnits="userSpaceOnUse" x1="51.018" y1="55.053" x2="56.726" y2="55.053">
      <stop offset="0" style="stop-color:#ebbb8f"/>
      <stop offset=".384" style="stop-color:#bf835c"/>
      <stop offset=".847" style="stop-color:#694835"/>
    </linearGradient>
    <path fill="url(#s)" stroke="#793B0A" stroke-width=".75" stroke-miterlimit="10" d="M55.673 58.246c-1.224.689-3.02-.183-4.015-1.946-.995-1.764-.811-3.752.413-4.441 1.223-.69 3.02.182 4.015 1.945.994 1.763.81 3.752-.413 4.442z"/>
    <linearGradient id="t" gradientUnits="userSpaceOnUse" x1="49.838" y1="60.793" x2="57.172" y2="60.793">
      <stop offset="0" style="stop-color:#ebbb8f"/>
      <stop offset=".384" style="stop-color:#bf835c"/>
      <stop offset=".847" style="stop-color:#694835"/>
    </linearGradient>
    <ellipse fill="url(#t)" stroke="#793B0A" stroke-width=".75" stroke-miterlimit="10" cx="53.505" cy="60.793" rx="3.667" ry="2.541"/>
    <linearGradient id="u" gradientUnits="userSpaceOnUse" x1="54.942" y1="58.252" x2="60.49" y2="58.252">
      <stop offset="0" style="stop-color:#ebbb8f"/>
      <stop offset=".384" style="stop-color:#bf835c"/>
      <stop offset=".847" style="stop-color:#694835"/>
    </linearGradient>
    <path fill="url(#u)" stroke="#793B0A" stroke-width=".75" stroke-miterlimit="10" d="M59.857 56.962c.974 1.616.805 3.504-.379 4.216-1.182.713-2.93-.02-3.903-1.636-.974-1.617-.805-3.505.378-4.217 1.183-.713 2.931.02 3.904 1.637z"/>
    <linearGradient id="v" gradientUnits="userSpaceOnUse" x1="54.04" y1="61.801" x2="61.392" y2="61.801">
      <stop offset="0" style="stop-color:#ebbb8f"/>
      <stop offset=".384" style="stop-color:#bf835c"/>
      <stop offset=".847" style="stop-color:#694835"/>
    </linearGradient>
    <path fill="url(#v)" stroke="#793B0A" stroke-width=".75" stroke-miterlimit="10" d="M54.098 62.894c.358 1.185 2.268 1.654 4.266 1.051 1.998-.604 3.327-2.053 2.97-3.237-.358-1.184-2.268-1.653-4.266-1.05-1.997.602-3.327 2.052-2.97 3.236z"/>
    <linearGradient id="w" gradientUnits="userSpaceOnUse" x1="38.495" y1="47.022" x2="44.203" y2="47.022" gradientTransform="scale(-1 1) rotate(10.58 .766 -650.477)">
      <stop offset="0" style="stop-color:#694835"/>
      <stop offset=".737" style="stop-color:#bf835c"/>
      <stop offset="1" style="stop-color:#ebbb8f"/>
    </linearGradient>
    <path fill="url(#w)" stroke="#793B0A" stroke-width=".75" stroke-miterlimit="10" d="M86.217 46.087c1.33.453 2.936-.734 3.59-2.65.654-1.917.107-3.837-1.221-4.29-1.33-.454-2.936.732-3.59 2.649-.652 1.916-.107 3.837 1.221 4.291z"/>
    <linearGradient id="x" gradientUnits="userSpaceOnUse" x1="35.315" y1="45.202" x2="41.021" y2="45.202" gradientTransform="scale(-1 1) rotate(-34.917 -23.46 246.598)">
      <stop offset="0" style="stop-color:#694835"/>
      <stop offset=".737" style="stop-color:#bf835c"/>
      <stop offset="1" style="stop-color:#ebbb8f"/>
    </linearGradient>
    <path fill="url(#x)" stroke="#793B0A" stroke-width=".75" stroke-miterlimit="10" d="M84.9 47.771c.607 1.267 2.58 1.579 4.404.703 1.826-.878 2.813-2.613 2.205-3.878-.607-1.267-2.58-1.58-4.406-.703-1.824.878-2.81 2.614-2.203 3.878z"/>
    <linearGradient id="y" gradientUnits="userSpaceOnUse" x1="48.05" y1="52.932" x2="53.757" y2="52.932" gradientTransform="matrix(-1 .0015 .0015 1 134.158 -7.468)">
      <stop offset="0" style="stop-color:#694835"/>
      <stop offset=".737" style="stop-color:#bf835c"/>
      <stop offset="1" style="stop-color:#ebbb8f"/>
    </linearGradient>
    <path fill="url(#y)" stroke="#793B0A" stroke-width=".75" stroke-miterlimit="10" d="M81.537 48.737c1.225.688 3.02-.188 4.012-1.952.992-1.766.805-3.754-.418-4.441-1.225-.688-3.02.187-4.012 1.951-.992 1.766-.805 3.754.418 4.442z"/>
    <linearGradient id="z" gradientUnits="userSpaceOnUse" x1="38.098" y1="48.34" x2="43.807" y2="48.34" gradientTransform="scale(-1 1) rotate(-35.718 -20.27 245.139)">
      <stop offset="0" style="stop-color:#694835"/>
      <stop offset=".737" style="stop-color:#bf835c"/>
      <stop offset="1" style="stop-color:#ebbb8f"/>
    </linearGradient>
    <path fill="url(#z)" stroke="#793B0A" stroke-width=".75" stroke-miterlimit="10" d="M82.127 51.157c.592 1.273 2.559 1.616 4.396.765 1.836-.851 2.848-2.572 2.258-3.848-.59-1.274-2.559-1.615-4.395-.764-1.837.851-2.849 2.573-2.259 3.847z"/>
    <linearGradient id="A" gradientUnits="userSpaceOnUse" x1="62.398" y1="55.361" x2="68.106" y2="55.361" gradientTransform="scale(-1 1) rotate(14.791 13.851 -508.812)">
      <stop offset="0" style="stop-color:#694835"/>
      <stop offset=".737" style="stop-color:#bf835c"/>
      <stop offset="1" style="stop-color:#ebbb8f"/>
    </linearGradient>
    <path fill="url(#A)" stroke="#793B0A" stroke-width=".75" stroke-miterlimit="10" d="M79.555 53.339c1.359.354 2.875-.948 3.387-2.906.51-1.96-.176-3.836-1.533-4.19-1.359-.354-2.873.947-3.385 2.907-.512 1.957.173 3.833 1.531 4.189z"/>
    <linearGradient id="B" gradientUnits="userSpaceOnUse" x1="39.829" y1="52.94" x2="45.537" y2="52.94" gradientTransform="scale(-1 1) rotate(-43.489 -18.443 210.606)">
      <stop offset="0" style="stop-color:#694835"/>
      <stop offset=".737" style="stop-color:#bf835c"/>
      <stop offset="1" style="stop-color:#ebbb8f"/>
    </linearGradient>
    <path fill="url(#B)" stroke="#793B0A" stroke-width=".75" stroke-miterlimit="10" d="M79.098 55.226c.412 1.343 2.316 1.946 4.252 1.353 1.936-.596 3.17-2.165 2.758-3.507-.414-1.343-2.316-1.947-4.252-1.352s-3.17 2.164-2.758 3.506z"/>
    <linearGradient id="C" gradientUnits="userSpaceOnUse" x1="47.181" y1="53.715" x2="52.889" y2="53.715" gradientTransform="scale(-1 1) rotate(15.783 -11.905 -405.987)">
      <stop offset="0" style="stop-color:#694835"/>
      <stop offset=".737" style="stop-color:#bf835c"/>
      <stop offset="1" style="stop-color:#ebbb8f"/>
    </linearGradient>
    <path fill="url(#C)" stroke="#793B0A" stroke-width=".75" stroke-miterlimit="10" d="M76.475 56.793c1.365.331 2.857-.997 3.334-2.965.479-1.968-.24-3.831-1.604-4.161-1.365-.332-2.857.996-3.336 2.964-.476 1.968.242 3.831 1.606 4.162z"/>
    <linearGradient id="D" gradientUnits="userSpaceOnUse" x1="46.509" y1="58.178" x2="53.611" y2="58.178" gradientTransform="matrix(-1.1308 .0269 -.0269 1.068 135.88 -5.611)">
      <stop offset="0" style="stop-color:#694835"/>
      <stop offset=".737" style="stop-color:#bf835c"/>
      <stop offset="1" style="stop-color:#ebbb8f"/>
    </linearGradient>
    <path fill="url(#D)" stroke="#793B0A" stroke-width=".75" stroke-miterlimit="10" d="M73.783 59.319c.516 1.394 2.688 1.872 4.855 1.073 2.166-.804 3.506-2.58 2.99-3.974-.514-1.395-2.688-1.874-4.855-1.071-2.166.8-3.505 2.579-2.99 3.972z"/>
    <linearGradient id="E" gradientUnits="userSpaceOnUse" x1="50.721" y1="55.039" x2="56.429" y2="55.039" gradientTransform="matrix(-1 0 0 1 126.88 0)">
      <stop offset="0" style="stop-color:#694835"/>
      <stop offset=".737" style="stop-color:#bf835c"/>
      <stop offset="1" style="stop-color:#ebbb8f"/>
    </linearGradient>
    <path fill="url(#E)" stroke="#793B0A" stroke-width=".75" stroke-miterlimit="10" d="M71.504 58.232c1.225.689 3.021-.183 4.016-1.946s.811-3.752-.412-4.441c-1.223-.69-3.02.182-4.016 1.945-.994 1.764-.811 3.752.412 4.442z"/>
    <linearGradient id="F" gradientUnits="userSpaceOnUse" x1="49.541" y1="60.779" x2="56.875" y2="60.779" gradientTransform="matrix(-1 0 0 1 126.88 0)">
      <stop offset="0" style="stop-color:#694835"/>
      <stop offset=".737" style="stop-color:#bf835c"/>
      <stop offset="1" style="stop-color:#ebbb8f"/>
    </linearGradient>
    <ellipse fill="url(#F)" stroke="#793B0A" stroke-width=".75" stroke-miterlimit="10" cx="73.673" cy="60.779" rx="3.667" ry="2.541"/>
    <linearGradient id="G" gradientUnits="userSpaceOnUse" x1="54.645" y1="58.238" x2="60.193" y2="58.238" gradientTransform="matrix(-1 0 0 1 126.88 0)">
      <stop offset="0" style="stop-color:#694835"/>
      <stop offset=".737" style="stop-color:#bf835c"/>
      <stop offset="1" style="stop-color:#ebbb8f"/>
    </linearGradient>
    <path fill="url(#G)" stroke="#793B0A" stroke-width=".75" stroke-miterlimit="10" d="M67.32 56.948c-.973 1.616-.805 3.504.379 4.216 1.182.713 2.93-.02 3.904-1.636.973-1.617.805-3.505-.379-4.217-1.181-.712-2.929.02-3.904 1.637z"/>
    <linearGradient id="H" gradientUnits="userSpaceOnUse" x1="53.743" y1="61.787" x2="61.095" y2="61.787" gradientTransform="matrix(-1 0 0 1 126.88 0)">
      <stop offset="0" style="stop-color:#694835"/>
      <stop offset=".737" style="stop-color:#bf835c"/>
      <stop offset="1" style="stop-color:#ebbb8f"/>
    </linearGradient>
    <path fill="url(#H)" stroke="#793B0A" stroke-width=".75" stroke-miterlimit="10" d="M73.08 62.88c-.357 1.185-2.268 1.654-4.266 1.051s-3.328-2.053-2.971-3.237c.359-1.184 2.268-1.653 4.266-1.05 1.998.602 3.329 2.052 2.971 3.236z"/>
  </g>
  <g>
    <linearGradient id="I" gradientUnits="userSpaceOnUse" x1="38.114" y1="22.066" x2="89.229" y2="51.578">
      <stop offset=".126" style="stop-color:#f8d9bf"/>
      <stop offset=".258" style="stop-color:#793b0a"/>
      <stop offset=".726" style="stop-color:#e4c0a3"/>
      <stop offset=".91" style="stop-color:#864b1c"/>
    </linearGradient>
    <path fill="url(#I)" d="M49.928 58.079c-5.081 0-9.615-1.633-13.475-4.853l-2.807-2.555 1.499-1.845 5.743-6.991 1.947 1.82c2.136 1.998 4.334 3.055 6.719 3.231.268.028.424.04.56.04 2.719 0 2.963-.857 3.042-1.14.027-.1.045-.261.045-.445 0-.229 0-.657-.969-1.208-.267-.141-1.027-.512-2.802-1.296l-4.717-2.004c-7.101-3.064-8.62-8.143-8.646-11.864 0-4.019 1.664-7.311 4.946-9.803 2.727-1.998 5.996-2.998 9.753-2.998 4.475 0 8.438 1.451 11.777 4.311.398.36.725.672 1.034.983l1.562 1.576-6.509 8.207-1.968-1.64c-1.881-1.569-3.81-2.332-5.896-2.332-1.417 0-2.277.274-2.56.814a1.538 1.538 0 0 0-.062.442c0 .487.906 1.004 1.295 1.204.41.194 1.333.584 2.681 1.127l4.659 1.993c4.633 1.945 7.446 4.953 8.346 8.931a15.5 15.5 0 0 1 .294 3.04c0 4.086-1.659 7.438-4.931 9.963-2.825 2.185-6.379 3.292-10.56 3.292z"/>
    <linearGradient id="J" gradientUnits="userSpaceOnUse" x1="38.114" y1="22.066" x2="89.229" y2="51.578">
      <stop offset=".126" style="stop-color:#f8d9bf"/>
      <stop offset=".258" style="stop-color:#793b0a"/>
      <stop offset=".726" style="stop-color:#e4c0a3"/>
      <stop offset=".91" style="stop-color:#864b1c"/>
    </linearGradient>
    <path fill="url(#J)" d="M74.74 57.459V31.33l-10.157 6.015V26.139l1.303-.71c2.408-1.313 7.777-5.173 10.357-7.028l1.782-1.275h7.809V57.46H74.74z"/>
    <g>
      <path fill="#E8E1CF" d="M49.928 57.579c-4.961 0-9.387-1.594-13.154-4.736l-2.439-2.221 1.197-1.478 5.405-6.579 1.558 1.456c2.223 2.078 4.521 3.18 7.023 3.365a5.9 5.9 0 0 0 .597.041c3.097 0 3.407-1.092 3.523-1.503.04-.148.064-.354.064-.582 0-.308 0-.948-1.223-1.643-.286-.151-1.058-.528-2.847-1.319l-4.724-2.006c-6.852-2.957-8.317-7.835-8.342-11.408 0-3.85 1.598-7.008 4.749-9.401 2.632-1.929 5.802-2.896 9.45-2.896 4.352 0 8.205 1.41 11.452 4.191.38.344.701.65 1.003.956l1.249 1.261-5.915 7.458-1.574-1.313c-1.975-1.647-4.008-2.447-6.216-2.447-2.391 0-2.87.784-3.023 1.121a2.033 2.033 0 0 0-.099.635c0 .561.527 1.115 1.567 1.648.432.205 1.365.599 2.722 1.146l4.649 1.989c4.479 1.881 7.193 4.77 8.055 8.581.19.965.281 1.933.281 2.931 0 3.923-1.594 7.142-4.736 9.566-2.733 2.115-6.184 3.187-10.252 3.187zM75.24 56.959V30.452l-10.157 6.016V26.436l1.043-.568c2.435-1.328 7.82-5.201 10.409-7.062l1.65-1.181h7.148v39.334H75.24z"/>
    </g>
    <g>
      <linearGradient id="K" gradientUnits="userSpaceOnUse" x1="49.998" y1="18.67" x2="49.998" y2="55.58">
        <stop offset=".032" style="stop-color:#b48a40"/>
        <stop offset=".221" style="stop-color:#f3be6e"/>
        <stop offset=".232" style="stop-color:#f5c273"/>
        <stop offset=".287" style="stop-color:#fad385"/>
        <stop offset=".343" style="stop-color:#fedd90"/>
        <stop offset=".405" style="stop-color:#ffe094"/>
        <stop offset=".464" style="stop-color:#e8c67b"/>
        <stop offset=".551" style="stop-color:#cca55b"/>
        <stop offset=".624" style="stop-color:#ba9147"/>
        <stop offset=".674" style="stop-color:#b48a40"/>
        <stop offset=".743" style="stop-color:#b78d43"/>
        <stop offset=".8" style="stop-color:#c2974b"/>
        <stop offset=".854" style="stop-color:#d3a758"/>
        <stop offset=".904" style="stop-color:#ebbd6b"/>
        <stop offset=".937" style="stop-color:#ffcf7a"/>
      </linearGradient>
      <path fill="url(#K)" stroke="#6A3118" stroke-miterlimit="10" d="M49.928 55.579c-4.501 0-8.458-1.424-11.873-4.272l-.978-.893 4.051-4.932c2.545 2.38 5.292 3.68 8.241 3.898.28.031.528.047.745.047 3.073 0 4.889-.986 5.448-2.957.093-.346.14-.722.14-1.128 0-1.409-.745-2.536-2.235-3.382-.528-.281-1.536-.751-3.026-1.409l-4.75-2.018c-4.718-2.036-7.093-5.228-7.124-9.581 0-3.193 1.319-5.791 3.958-7.795 2.265-1.659 5.012-2.489 8.241-2.489 3.88 0 7.264 1.237 10.151 3.71.31.281.605.563.884.845l-3.539 4.461c-2.328-1.941-4.827-2.911-7.497-2.911-2.577 0-4.207.798-4.888 2.395a4.027 4.027 0 0 0-.233 1.361c0 1.378.885 2.521 2.655 3.428.527.251 1.489.658 2.886 1.221l4.61 1.973c3.879 1.629 6.176 4.021 6.891 7.184.154.783.232 1.612.232 2.489 0 3.287-1.32 5.947-3.958 7.983-2.389 1.849-5.399 2.772-9.032 2.772z"/>
      <linearGradient id="L" gradientUnits="userSpaceOnUse" x1="75.209" y1="19.625" x2="75.209" y2="54.959">
        <stop offset=".032" style="stop-color:#b48a40"/>
        <stop offset=".221" style="stop-color:#f3be6e"/>
        <stop offset=".232" style="stop-color:#f5c273"/>
        <stop offset=".287" style="stop-color:#fad385"/>
        <stop offset=".343" style="stop-color:#fedd90"/>
        <stop offset=".405" style="stop-color:#ffe094"/>
        <stop offset=".464" style="stop-color:#e8c67b"/>
        <stop offset=".551" style="stop-color:#cca55b"/>
        <stop offset=".624" style="stop-color:#ba9147"/>
        <stop offset=".674" style="stop-color:#b48a40"/>
        <stop offset=".743" style="stop-color:#b78d43"/>
        <stop offset=".8" style="stop-color:#c2974b"/>
        <stop offset=".854" style="stop-color:#d3a758"/>
        <stop offset=".904" style="stop-color:#ebbd6b"/>
        <stop offset=".937" style="stop-color:#ffcf7a"/>
      </linearGradient>
      <path fill="url(#L)" stroke="#6A3118" stroke-miterlimit="10" d="M77.24 54.959V26.943l-10.157 6.015v-5.335c2.977-1.623 9.818-6.63 11.741-7.998h4.51V54.959H77.24z"/>
    </g>
  </g>
</svg>
