<svg xmlns="http://www.w3.org/2000/svg" viewBox="0 0 88 41" width="88" height="41">
  <defs>
    <filter id="textShadow" height="150%">
      <feDropShadow dx="0" dy="3" flood-color="#C6C6D9" flood-opacity="0.85" stdDeviation="0" />       
    </filter>
  </defs>
  <polygon points="2,21 14,3 74,3 86,21 74,39 14,39" stroke="#FFA3A3" fill="#FFFFFF"/>
  <g id="svgGroup" fill="#FF4040" stroke-linecap="round" fill-rule="evenodd" stroke="#FFFFFF" stroke-width="4" paint-order="stroke" filter="url(#textShadow)">
    <path transform="translate(15, 10)" d="M 11.5 18.1 L 11.42 15.5 A 15.581 15.581 0 0 1 9.803 17.595 A 19.17 19.17 0 0 1 8.6 18.8 L 5.6 16.9 A 16.146 16.146 0 0 0 7.149 15.424 A 12.04 12.04 0 0 0 8.36 13.87 A 10.738 10.738 0 0 0 9.247 12.173 Q 9.607 11.316 9.882 10.313 A 18.521 18.521 0 0 0 9.97 9.98 Q 10.41 8.249 10.622 5.884 A 45.194 45.194 0 0 0 10.74 4.2 L 7.4 4.2 L 7.4 6.3 Q 6.96 7.54 6.28 8.74 Q 6.33 8.79 6.407 8.888 A 4.323 4.323 0 0 1 6.44 8.93 A 8.856 8.856 0 0 1 6.486 8.991 Q 6.543 9.066 6.573 9.11 A 1.088 1.088 0 0 1 6.58 9.12 A 13.944 13.944 0 0 0 7.834 6.855 A 12.895 12.895 0 0 0 7.9 6.7 L 10.1 7.9 Q 9.3 9.68 8.18 11.26 A 10.475 10.475 0 0 1 8.236 11.339 Q 8.367 11.528 8.73 12.054 A 671.853 671.853 0 0 1 8.9 12.3 L 6.7 14.3 Q 6.14 13.42 5.4 12.38 L 5.4 18.7 L 2.1 18.7 L 2.1 13.44 A 11.423 11.423 0 0 1 1.298 14.116 A 8.838 8.838 0 0 1 0.6 14.6 L 0 10.8 Q 2.62 9.06 3.72 6.3 L 0.5 6.3 L 0.5 3.1 L 2.1 3.1 L 2.1 0.3 L 5.4 0.3 L 5.4 3.1 L 7.2 3.1 L 7.2 1.1 L 18.9 1.1 L 18.9 6.4 Q 18.9 9.206 18.832 11.104 A 70.403 70.403 0 0 1 18.83 11.15 A 41.739 41.739 0 0 1 18.759 12.508 Q 18.713 13.176 18.647 13.764 A 21.529 21.529 0 0 1 18.56 14.44 Q 18.395 15.577 18.196 16.287 A 6.118 6.118 0 0 1 18.11 16.57 A 3.01 3.01 0 0 1 17.83 17.184 A 2.287 2.287 0 0 1 17.35 17.75 A 2.972 2.972 0 0 1 16.934 18.047 Q 16.667 18.202 16.397 18.272 A 1.816 1.816 0 0 1 16.32 18.29 Q 15.85 18.389 15.07 18.399 A 13.84 13.84 0 0 1 14.9 18.4 A 6.594 6.594 0 0 1 14.567 18.389 Q 13.694 18.344 11.5 18.1 Z M 51.36 9.2 L 57.6 9.2 L 57.6 18.7 L 53.9 18.7 L 53.9 18.1 L 47.3 18.1 L 47.3 18.7 L 43.6 18.7 L 43.6 13.14 Q 42.38 13.6 41.5 13.9 L 40.3 10.6 Q 43.44 9.72 46.36 8.3 L 40.4 8.3 L 40.4 5.4 L 46.9 5.4 L 46.9 4.2 L 42 4.2 L 42 1.4 L 46.9 1.4 L 46.9 0 L 50.7 0 L 50.7 1.4 L 54 1.4 L 54 2.9 Q 55.14 1.72 56.1 0.4 L 58.9 2.4 A 18.349 18.349 0 0 1 57.885 3.663 Q 57.337 4.291 56.674 4.954 A 33.516 33.516 0 0 1 56.22 5.4 L 59.2 5.4 L 59.2 8.3 L 52.68 8.3 A 211.802 211.802 0 0 1 51.402 9.171 A 238.488 238.488 0 0 1 51.36 9.2 Z M 25.1 15.1 L 25.1 5.5 L 28.8 5.5 L 28.8 14.7 A 4.031 4.031 0 0 0 28.802 14.846 Q 28.811 15.074 28.847 15.173 A 0.202 0.202 0 0 0 28.87 15.22 A 0.212 0.212 0 0 0 28.932 15.277 Q 29.021 15.332 29.2 15.36 A 9.212 9.212 0 0 0 29.639 15.389 Q 29.87 15.399 30.126 15.4 A 15.347 15.347 0 0 0 30.2 15.4 Q 30.476 15.4 30.915 15.377 A 31.227 31.227 0 0 0 31.2 15.36 Q 31.411 15.344 31.517 15.281 A 0.269 0.269 0 0 0 31.56 15.25 Q 31.646 15.173 31.732 14.816 A 4.927 4.927 0 0 0 31.76 14.69 A 5.114 5.114 0 0 0 31.818 14.361 Q 31.867 14.017 31.9 13.547 A 18.15 18.15 0 0 0 31.91 13.39 Q 31.948 12.755 31.981 11.633 A 153.291 153.291 0 0 0 32 10.9 L 35.4 11.5 Q 35.346 12.967 35.293 13.946 A 65.783 65.783 0 0 1 35.28 14.17 A 19.512 19.512 0 0 1 35.206 15.085 Q 35.161 15.514 35.098 15.893 A 11.431 11.431 0 0 1 35.08 16 A 12.358 12.358 0 0 1 35 16.419 Q 34.914 16.823 34.822 17.094 A 2.828 2.828 0 0 1 34.78 17.21 Q 34.62 17.62 34.29 17.9 Q 33.994 18.151 33.697 18.242 A 1.214 1.214 0 0 1 33.63 18.26 Q 33.332 18.332 32.814 18.388 A 14.563 14.563 0 0 1 32.7 18.4 Q 31.56 18.5 30.4 18.5 Q 29.413 18.5 28.182 18.463 A 102.999 102.999 0 0 1 28.1 18.46 Q 27.245 18.427 26.734 18.34 A 3.885 3.885 0 0 1 26.53 18.3 Q 26 18.18 25.64 17.8 Q 25.28 17.42 25.19 16.83 A 5.893 5.893 0 0 1 25.146 16.455 Q 25.111 16.045 25.103 15.468 A 25.491 25.491 0 0 1 25.1 15.1 Z M 24.7 3.3 L 25.6 0.3 A 39.935 39.935 0 0 1 32.841 1.931 A 46.672 46.672 0 0 1 35.3 2.8 L 34.2 5.9 A 42.205 42.205 0 0 0 26.62 3.627 A 37.928 37.928 0 0 0 24.7 3.3 Z M 34.6 6.9 L 37.9 6.1 Q 38.927 9.984 39.605 14.983 A 105.063 105.063 0 0 1 39.7 15.7 L 36.3 16.4 A 88.505 88.505 0 0 0 35.761 12.458 Q 35.449 10.523 35.074 8.836 A 45.574 45.574 0 0 0 34.6 6.9 Z M 23.2 16.8 L 19.9 15.7 Q 20.778 12.551 21.164 7.307 A 88.247 88.247 0 0 0 21.2 6.8 L 24.5 7.1 Q 24.42 9.78 24.06 12.43 A 44.906 44.906 0 0 1 23.783 14.215 Q 23.52 15.698 23.2 16.8 Z M 15.2 4.2 L 14.24 4.2 Q 13.9 11.1 11.8 14.86 A 49.683 49.683 0 0 0 12.502 14.959 Q 13.556 15.1 14 15.1 A 0.95 0.95 0 0 0 14.282 15.061 A 0.705 0.705 0 0 0 14.68 14.75 A 1.071 1.071 0 0 0 14.776 14.54 Q 14.934 14.092 15.05 13.04 Q 15.2 11.68 15.2 9 L 15.2 4.2 Z M 47.3 11.7 L 47.3 12.6 L 53.9 12.6 L 53.9 11.7 L 47.3 11.7 Z M 53.9 14.8 L 47.3 14.8 L 47.3 15.7 L 53.9 15.7 L 53.9 14.8 Z M 52.62 4.2 L 50.7 4.2 L 50.7 5.4 L 51.12 5.4 Q 51.9 4.82 52.62 4.2 Z" />
  </g>
</svg>