<svg xmlns="http://www.w3.org/2000/svg" viewBox="0 0 88 41" width="88" height="41">
  <defs>
    <radialGradient id="patternGradient">
      <stop offset="0%" stop-color="#FFFFFF" stop-opacity="0.7" />
      <stop offset="100%" stop-color="#FFFFFF" stop-opacity="0" />
    </radialGradient>
    <pattern id="fillPattern" x="0" y="0" width="20" height="20" patternUnits="userSpaceOnUse">
      <rect x="3" y="3" width="4" height="4" fill="url(#patternGradient)" /> 
      <rect x="13" y="13" width="4" height="4" fill="url(#patternGradient)" /> 
    </pattern>
    <linearGradient id="outerFillGradient" x1="0" y1="0" x2="100%" y2="0">
      <stop offset="0%" stop-color="#FFF9CC" />
      <stop offset="50%" stop-color="#FBEFC4" />
      <stop offset="100%" stop-color="#FFF9CC" />
    </linearGradient>
    <radialGradient id="fillGradient" cx="10%" cy="15%">
      <stop offset="5%" stop-color="#F3C386" />
      <stop offset="95%" stop-color="#D97D33" />
    </radialGradient>
    <linearGradient id="strokeGradient" x1="0%" y1="0%" x2="0%" y2="100%">
      <stop offset="10%" stop-color="#D36936" />
      <stop offset="50%" stop-color="#EA9F66" />
      <stop offset="95%" stop-color="#D36936" />
    </linearGradient>
    <linearGradient id="textGradient" x1="0%" y1="0%" x2="0%" y2="50%" spreadMethod="reflect">
      <stop offset="5%" stop-color="#EC4026" />
      <stop offset="95%" stop-color="#661B0F" />
    </linearGradient>
    <linearGradient id="textStrokeGradient">
      <stop offset="0%" stop-color="#FFEEBB" />
      <stop offset="100%" stop-color="#FDF2C1" />
    </linearGradient>
    <filter id="textShadow" height="150%">
      <feDropShadow dx="0" dy="3" flood-color="#790000" flood-opacity="0.85" stdDeviation="0" />       
    </filter>
  </defs>
  <polygon points="2,21 14,3 74,3 86,21 74,39 14,39" stroke="#BB3333" fill="url(#outerFillGradient)"/>
  <polygon points="2,21 14,3 74,3 86,21 74,39 14,39" stroke="url(#strokeGradient)" stroke-opacity="0.5" fill="url(#fillGradient)" transform="scale(0.9 0.88)" transform-origin="center"/>
  <polygon points="2,21 14,3 74,3 86,21 74,39 14,39" stroke-width="0" fill="url(#fillPattern)" transform="scale(0.9 0.88)" transform-origin="center"/>
  <g id="svgGroup" fill="url(#textGradient)" stroke-linecap="round" fill-rule="evenodd" stroke="url(#textStrokeGradient)" stroke-width="4" paint-order="stroke" filter="url(#textShadow)">
    <path transform="translate(20, 8)" d="M 35.928 13.32 L 33.84 13.32 L 33.84 9.96 L 34.632 9.96 L 33.312 8.76 L 28.8 8.76 L 28.8 10.08 L 33.36 10.08 L 33.36 13.32 L 28.8 13.32 L 28.8 14.808 Q 30.123 14.624 32.163 14.272 A 227.316 227.316 0 0 0 33.48 14.04 L 33.72 17.52 Q 31.224 18 28.8 18.336 L 28.8 22.08 L 24.48 22.08 L 24.48 18.864 A 1.697 1.697 0 0 0 24.373 18.868 Q 24.221 18.878 23.988 18.912 Q 23.664 18.96 23.52 18.96 L 23.28 15.48 Q 23.445 15.462 23.716 15.436 A 61.726 61.726 0 0 1 23.892 15.42 A 39.709 39.709 0 0 0 24.077 15.403 Q 24.336 15.378 24.48 15.36 L 24.48 1.8 Q 28.584 1.248 32.88 0 L 33.96 3.6 Q 31.152 4.368 28.8 4.8 L 28.8 5.52 L 33.36 5.52 L 33.36 7.056 A 5.129 5.129 0 0 0 33.95 5.779 Q 34.361 4.489 34.427 2.56 A 22.223 22.223 0 0 0 34.44 1.8 L 34.44 0.48 L 42.96 0.48 L 42.96 5.64 A 2.283 2.283 0 0 0 42.962 5.731 Q 42.969 5.913 43.008 5.952 A 0.094 0.094 0 0 0 43.041 5.971 Q 43.098 5.993 43.229 5.998 A 2.287 2.287 0 0 0 43.32 6 A 0.464 0.464 0 0 0 43.488 5.972 Q 43.676 5.899 43.728 5.64 A 2.649 2.649 0 0 0 43.757 5.442 Q 43.811 4.977 43.886 3.712 A 149.28 149.28 0 0 0 43.92 3.12 L 46.8 3.6 Q 46.754 4.617 46.73 5.11 A 150.584 150.584 0 0 1 46.728 5.148 Q 46.712 5.486 46.661 5.927 A 20.742 20.742 0 0 1 46.608 6.348 A 69.282 69.282 0 0 0 46.567 6.655 Q 46.521 7.01 46.499 7.211 A 6.789 6.789 0 0 0 46.488 7.32 A 1.102 1.102 0 0 1 46.454 7.501 Q 46.396 7.719 46.248 8.016 A 14.068 14.068 0 0 1 46.172 8.167 Q 46.054 8.394 45.987 8.5 A 0.761 0.761 0 0 1 45.948 8.556 A 0.376 0.376 0 0 1 45.897 8.608 Q 45.8 8.692 45.576 8.816 A 5.847 5.847 0 0 1 45.48 8.868 Q 45.182 9.027 44.992 9.076 A 0.734 0.734 0 0 1 44.892 9.096 Q 44.688 9.12 44.064 9.18 Q 43.44 9.24 43.044 9.24 L 41.76 9.24 A 12.635 12.635 0 0 1 41.12 9.225 Q 40.074 9.172 39.708 8.928 Q 39.291 8.65 39.246 7.783 A 4.236 4.236 0 0 1 39.24 7.56 L 39.24 3.84 L 38.04 3.84 A 11.134 11.134 0 0 1 37.792 6.266 Q 37.435 7.866 36.563 9.042 A 6.454 6.454 0 0 1 35.736 9.96 L 45.36 9.96 L 45.36 13.32 Q 44.256 15.48 42.576 17.112 A 23.533 23.533 0 0 0 45.047 18.008 A 29.406 29.406 0 0 0 46.8 18.48 L 45.48 22.08 Q 42.072 21.336 39.144 19.632 Q 37.312 20.658 34.698 21.544 A 44.596 44.596 0 0 1 33 22.08 L 31.32 18.6 Q 33.672 18.096 35.76 17.16 A 19.975 19.975 0 0 1 34.76 16.151 Q 34.158 15.496 33.72 14.88 L 35.928 13.32 Z M 13.32 0 L 13.32 3.48 L 21.6 3.48 L 21.6 7.32 L 0.48 7.32 L 0.48 3.48 L 8.76 3.48 L 8.76 0 L 13.32 0 Z M 12.72 11.04 L 16.8 9.12 Q 19.704 14.496 22.08 20.04 L 17.76 21.84 Q 15.552 16.44 12.72 11.04 Z M 4.8 9.12 L 9.12 10.8 Q 7.296 16.416 4.2 21.72 L 0 19.56 Q 3.024 14.448 4.8 9.12 Z M 40.848 13.32 L 37.008 13.32 Q 37.92 14.352 39.048 15.168 Q 40.056 14.328 40.848 13.32 Z" />
  </g>
</svg>