<svg xmlns="http://www.w3.org/2000/svg" viewBox="0 0 88 41" width="88" height="41">
  <defs>
    <radialGradient id="patternGradient">
      <stop offset="0%" stop-color="#FFFFFF" stop-opacity="0.7" />
      <stop offset="100%" stop-color="#FFFFFF" stop-opacity="0" />
    </radialGradient>
    <pattern id="fillPattern" x="0" y="0" width="20" height="20" patternUnits="userSpaceOnUse">
      <rect x="3" y="3" width="4" height="4" fill="url(#patternGradient)" /> 
      <rect x="13" y="13" width="4" height="4" fill="url(#patternGradient)" /> 
    </pattern>
    <linearGradient id="outerFillGradient" x1="0" y1="0" x2="100%" y2="0">
      <stop offset="0%" stop-color="#EEFFFF" />
      <stop offset="50%" stop-color="#DDFFFF" />
      <stop offset="100%" stop-color="#EEFFFF" />
    </linearGradient>
    <radialGradient id="fillGradient" cx="10%" cy="15%">
      <stop offset="5%" stop-color="#DDEEFF" />
      <stop offset="95%" stop-color="#77AACC" />
    </radialGradient>
    <linearGradient id="strokeGradient" x1="0%" y1="0%" x2="0%" y2="100%">
      <stop offset="10%" stop-color="#88AADD" />
      <stop offset="50%" stop-color="#CCEEFF" />
      <stop offset="95%" stop-color="#88AADD" />
    </linearGradient>
    <linearGradient id="textGradient" x1="0%" y1="0%" x2="0%" y2="50%" spreadMethod="reflect">
      <stop offset="5%" stop-color="#6680FF" />
      <stop offset="95%" stop-color="#1E269A" />
    </linearGradient>
    <linearGradient id="textStrokeGradient">
      <stop offset="0%" stop-color="#FFFFFF" />
      <stop offset="100%" stop-color="#DDFFFF" />
    </linearGradient>
    <filter id="textShadow" height="150%">
      <feDropShadow dx="0" dy="3" flood-color="#1A2266" flood-opacity="0.85" stdDeviation="0" />       
    </filter>
  </defs>
  <polygon points="2,21 14,3 74,3 86,21 74,39 14,39" stroke="#6666CC" fill="url(#outerFillGradient)"/>
  <polygon points="2,21 14,3 74,3 86,21 74,39 14,39" stroke="url(#strokeGradient)" stroke-opacity="0.5" fill="url(#fillGradient)" transform="scale(0.9 0.88)" transform-origin="center"/>
  <polygon points="2,21 14,3 74,3 86,21 74,39 14,39" stroke-width="0" fill="url(#fillPattern)" transform="scale(0.9 0.88)" transform-origin="center"/>
  <g id="svgGroup" fill="url(#textGradient)" stroke-linecap="round" fill-rule="evenodd" stroke="url(#textStrokeGradient)" stroke-width="4" paint-order="stroke" filter="url(#textShadow)">
    <path transform="translate(20, 8)" d="M 36.648 13.32 L 34.56 13.32 L 34.56 9.96 L 35.352 9.96 L 34.032 8.76 L 29.52 8.76 L 29.52 10.08 L 34.08 10.08 L 34.08 13.32 L 29.52 13.32 L 29.52 14.808 Q 30.843 14.624 32.883 14.272 A 227.316 227.316 0 0 0 34.2 14.04 L 34.44 17.52 Q 31.944 18 29.52 18.336 L 29.52 22.08 L 25.2 22.08 L 25.2 18.864 A 1.697 1.697 0 0 0 25.093 18.868 Q 24.941 18.878 24.708 18.912 Q 24.384 18.96 24.24 18.96 L 24 15.48 Q 24.165 15.462 24.436 15.436 A 61.726 61.726 0 0 1 24.612 15.42 A 39.709 39.709 0 0 0 24.797 15.403 Q 25.056 15.378 25.2 15.36 L 25.2 1.8 Q 29.304 1.248 33.6 0 L 34.68 3.6 Q 31.872 4.368 29.52 4.8 L 29.52 5.52 L 34.08 5.52 L 34.08 7.056 A 5.129 5.129 0 0 0 34.67 5.779 Q 35.081 4.489 35.147 2.56 A 22.223 22.223 0 0 0 35.16 1.8 L 35.16 0.48 L 43.68 0.48 L 43.68 5.64 A 2.283 2.283 0 0 0 43.682 5.731 Q 43.689 5.913 43.728 5.952 A 0.094 0.094 0 0 0 43.761 5.971 Q 43.818 5.993 43.949 5.998 A 2.287 2.287 0 0 0 44.04 6 A 0.464 0.464 0 0 0 44.208 5.972 Q 44.396 5.899 44.448 5.64 A 2.649 2.649 0 0 0 44.477 5.442 Q 44.531 4.977 44.606 3.712 A 149.28 149.28 0 0 0 44.64 3.12 L 47.52 3.6 Q 47.474 4.617 47.45 5.11 A 150.584 150.584 0 0 1 47.448 5.148 Q 47.432 5.486 47.381 5.927 A 20.742 20.742 0 0 1 47.328 6.348 A 69.282 69.282 0 0 0 47.287 6.655 Q 47.241 7.01 47.219 7.211 A 6.789 6.789 0 0 0 47.208 7.32 A 1.102 1.102 0 0 1 47.174 7.501 Q 47.117 7.719 46.968 8.016 A 14.068 14.068 0 0 1 46.892 8.167 Q 46.774 8.394 46.707 8.5 A 0.761 0.761 0 0 1 46.668 8.556 A 0.376 0.376 0 0 1 46.617 8.608 Q 46.52 8.692 46.296 8.816 A 5.847 5.847 0 0 1 46.2 8.868 Q 45.902 9.027 45.712 9.076 A 0.734 0.734 0 0 1 45.612 9.096 Q 45.408 9.12 44.784 9.18 Q 44.16 9.24 43.764 9.24 L 42.48 9.24 A 12.635 12.635 0 0 1 41.84 9.225 Q 40.794 9.172 40.428 8.928 Q 40.011 8.65 39.966 7.783 A 4.236 4.236 0 0 1 39.96 7.56 L 39.96 3.84 L 38.76 3.84 A 11.134 11.134 0 0 1 38.512 6.266 Q 38.155 7.866 37.283 9.042 A 6.454 6.454 0 0 1 36.456 9.96 L 46.08 9.96 L 46.08 13.32 Q 44.976 15.48 43.296 17.112 A 23.533 23.533 0 0 0 45.767 18.008 A 29.406 29.406 0 0 0 47.52 18.48 L 46.2 22.08 Q 42.792 21.336 39.864 19.632 Q 38.032 20.658 35.418 21.544 A 44.596 44.596 0 0 1 33.72 22.08 L 32.04 18.6 Q 34.392 18.096 36.48 17.16 A 19.975 19.975 0 0 1 35.48 16.151 Q 34.878 15.496 34.44 14.88 L 36.648 13.32 Z M 13.8 5.16 L 5.52 5.16 L 5.52 1.32 L 18 1.32 Q 18.192 6.336 19.644 11.112 Q 21.096 15.888 23.52 19.68 L 19.32 21.96 Q 17.136 18.528 15.696 14.196 Q 14.256 9.864 13.8 5.16 Z M 5.16 6.96 L 9.48 7.8 Q 8.328 15.48 4.08 21.96 L 0 19.68 Q 3.816 13.872 5.16 6.96 Z M 41.568 13.32 L 37.728 13.32 Q 38.64 14.352 39.768 15.168 Q 40.776 14.328 41.568 13.32 Z" />
  </g>
</svg>