<svg xmlns="http://www.w3.org/2000/svg" width="88" height="41">
  <defs>
    <radialGradient id="a">
      <stop offset="0%" stop-color="#FFF" stop-opacity=".7"/>
      <stop offset="100%" stop-color="#FFF" stop-opacity="0"/>
    </radialGradient>
    <radialGradient id="c" cx="10%" cy="15%">
      <stop offset="25%" stop-color="#fffa5d"/>
      <stop offset="95%" stop-color="#EA0"/>
    </radialGradient>
    <linearGradient id="b" x1="0%" y1="0%" x2="0%" y2="100%">
      <stop offset="10%" stop-color="#c75d36"/>
      <stop offset="95%" stop-color="#670000"/>
    </linearGradient>
    <linearGradient id="e">
      <stop offset="0%" stop-color="#FFF"/>
      <stop offset="100%" stop-color="#FFFF8E"/>
    </linearGradient>
    <pattern id="d" x="0" y="0" width="20" height="20" patternUnits="userSpaceOnUse">
      <path fill="url(#a)" d="M3 3h4v4H3zM13 13h4v4h-4z"/>
    </pattern>
  </defs>
  <path stroke="url(#b)" fill="url(#c)" d="M2 21 14 3h60l12 18-12 18H14z"/>
  <path fill="url(#d)" d="M2 21 14 3h60l12 18-12 18H14z"/>
  <path d="M56.648 24.56H54.56V21.2h.792l-1.32-1.2H49.52v1.32h4.56v3.24h-4.56v1.488q1.323-.184 3.363-.536a227.316 227.316 0 0 0 1.317-.232l.24 3.48q-2.496.48-4.92.816v3.744H45.2v-3.216a1.697 1.697 0 0 0-.107.004q-.152.01-.385.044-.324.048-.468.048L44 26.72q.165-.018.436-.044a61.726 61.726 0 0 1 .176-.016 39.709 39.709 0 0 0 .185-.017q.259-.025.403-.043V13.04q4.104-.552 8.4-1.8l1.08 3.6q-2.808.768-5.16 1.2v.72h4.56v1.536a5.129 5.129 0 0 0 .59-1.277q.411-1.29.477-3.219a22.223 22.223 0 0 0 .013-.76v-1.32h8.52v5.16a2.283 2.283 0 0 0 .002.091q.007.182.046.221a.094.094 0 0 0 .033.02q.057.021.188.026a2.287 2.287 0 0 0 .091.002.464.464 0 0 0 .168-.028q.188-.073.24-.332a2.649 2.649 0 0 0 .029-.198q.054-.465.129-1.73a149.28 149.28 0 0 0 .034-.592l2.88.48q-.046 1.017-.07 1.51a150.584 150.584 0 0 1-.002.038q-.016.338-.067.78a20.742 20.742 0 0 1-.053.42 69.282 69.282 0 0 0-.041.307q-.046.355-.068.556a6.789 6.789 0 0 0-.011.11 1.102 1.102 0 0 1-.034.18q-.058.218-.206.515a14.068 14.068 0 0 1-.076.151q-.118.227-.185.333a.761.761 0 0 1-.039.056.376.376 0 0 1-.051.052q-.097.084-.321.208a5.847 5.847 0 0 1-.096.052q-.298.16-.488.208a.734.734 0 0 1-.1.02q-.204.024-.828.084-.624.06-1.02.06H62.48a12.635 12.635 0 0 1-.64-.015q-1.046-.053-1.412-.297-.417-.278-.462-1.145a4.236 4.236 0 0 1-.006-.223v-3.72h-1.2a11.134 11.134 0 0 1-.248 2.426q-.357 1.6-1.229 2.776a6.454 6.454 0 0 1-.827.918h9.624v3.36q-1.104 2.16-2.784 3.792a23.533 23.533 0 0 0 2.471.896 29.406 29.406 0 0 0 1.753.472l-1.32 3.6q-3.408-.744-6.336-2.448-1.832 1.026-4.446 1.912a44.596 44.596 0 0 1-1.698.536l-1.68-3.48q2.352-.504 4.44-1.44a19.975 19.975 0 0 1-1-1.009q-.602-.655-1.04-1.27zm-17.208-1.8 4.08.48q-.055 1.58-.103 2.62a93.32 93.32 0 0 1-.029.584 27.739 27.739 0 0 1-.169 1.908 31.238 31.238 0 0 1-.059.456q-.162 1.178-.268 1.734a9.624 9.624 0 0 1-.008.042q-.101.515-.453 1.073a4.701 4.701 0 0 1-.051.08q-.316.477-.57.69a1.02 1.02 0 0 1-.126.09 1.661 1.661 0 0 1-.196.097q-.22.095-.559.19a9.264 9.264 0 0 1-.277.072 7.26 7.26 0 0 1-.681.135 5.303 5.303 0 0 1-.663.057 44.944 44.944 0 0 1-.341.005q-.565.007-1.447.007-2.547 0-3.405-.495a1.258 1.258 0 0 1-.171-.117 1.419 1.419 0 0 1-.368-.5q-.376-.799-.376-2.488V18.92h-3.384a42.717 42.717 0 0 1-.152 2.608q-.112 1.232-.296 2.278a17.724 17.724 0 0 1-.38 1.702 13.526 13.526 0 0 1-.915 2.407 10.696 10.696 0 0 1-1.197 1.89 14.724 14.724 0 0 1-1.237 1.354q-.666.65-1.494 1.33a33.069 33.069 0 0 1-1.385 1.071L20 29.84a26.671 26.671 0 0 0 1.212-.903q1.165-.924 1.85-1.728a7.576 7.576 0 0 0 .058-.069 7.034 7.034 0 0 0 .955-1.527q.33-.704.562-1.542a11.632 11.632 0 0 0 .007-.027 13.197 13.197 0 0 0 .281-1.31q.265-1.586.331-3.814H21.44v-3.84h3.84V11h4.56v4.08h7.8v13.44a4.802 4.802 0 0 0 .003.175q.01.27.052.382a.208.208 0 0 0 .029.055.175.175 0 0 0 .066.048q.129.06.45.06a.845.845 0 0 0 .386-.084q.331-.167.447-.667a1.99 1.99 0 0 0 .019-.089q.133-.718.293-4.325a313.051 313.051 0 0 0 .055-1.315zm22.128 1.8h-3.84q.912 1.032 2.04 1.848 1.008-.84 1.8-1.848z" fill="#900000" stroke-linecap="round" fill-rule="evenodd" stroke="#900000" stroke-width="4" paint-order="stroke" fill-opacity=".85" stroke-opacity=".85"/>
  <path d="M56.648 21.56H54.56V18.2h.792l-1.32-1.2H49.52v1.32h4.56v3.24h-4.56v1.488q1.323-.184 3.363-.536a227.316 227.316 0 0 0 1.317-.232l.24 3.48q-2.496.48-4.92.816v3.744H45.2v-3.216a1.697 1.697 0 0 0-.107.004q-.152.01-.385.044-.324.048-.468.048L44 23.72q.165-.018.436-.044a61.726 61.726 0 0 1 .176-.016 39.709 39.709 0 0 0 .185-.017q.259-.025.403-.043V10.04q4.104-.552 8.4-1.8l1.08 3.6q-2.808.768-5.16 1.2v.72h4.56v1.536a5.129 5.129 0 0 0 .59-1.277q.411-1.29.477-3.219a22.223 22.223 0 0 0 .013-.76V8.72h8.52v5.16a2.283 2.283 0 0 0 .002.091q.007.182.046.221a.094.094 0 0 0 .033.019q.057.022.188.027a2.287 2.287 0 0 0 .091.002.464.464 0 0 0 .168-.028q.188-.073.24-.332a2.649 2.649 0 0 0 .029-.198q.054-.465.129-1.73a149.28 149.28 0 0 0 .034-.592l2.88.48q-.046 1.017-.07 1.51a150.584 150.584 0 0 1-.002.038q-.016.338-.067.779a20.742 20.742 0 0 1-.053.421 69.282 69.282 0 0 0-.041.307q-.046.355-.068.556a6.789 6.789 0 0 0-.011.109 1.102 1.102 0 0 1-.034.181q-.058.218-.206.515a14.068 14.068 0 0 1-.076.151q-.118.227-.185.333a.761.761 0 0 1-.039.056.376.376 0 0 1-.051.052q-.097.084-.321.208a5.847 5.847 0 0 1-.096.052q-.298.159-.488.208a.734.734 0 0 1-.1.02q-.204.024-.828.084-.624.06-1.02.06H62.48a12.635 12.635 0 0 1-.64-.015q-1.046-.053-1.412-.297-.417-.278-.462-1.145a4.236 4.236 0 0 1-.006-.223v-3.72h-1.2a11.134 11.134 0 0 1-.248 2.426q-.357 1.6-1.229 2.776a6.454 6.454 0 0 1-.827.918h9.624v3.36q-1.104 2.16-2.784 3.792a23.533 23.533 0 0 0 2.471.896 29.406 29.406 0 0 0 1.753.472l-1.32 3.6q-3.408-.744-6.336-2.448-1.832 1.026-4.446 1.912a44.596 44.596 0 0 1-1.698.536l-1.68-3.48q2.352-.504 4.44-1.44a19.975 19.975 0 0 1-1-1.009q-.602-.655-1.04-1.271zm-17.208-1.8 4.08.48q-.055 1.58-.103 2.619a93.32 93.32 0 0 1-.029.585 27.739 27.739 0 0 1-.169 1.908 31.238 31.238 0 0 1-.059.456q-.162 1.178-.268 1.734a9.624 9.624 0 0 1-.008.042q-.101.515-.453 1.073a4.701 4.701 0 0 1-.051.079q-.316.478-.57.69a1.02 1.02 0 0 1-.126.09 1.661 1.661 0 0 1-.196.098q-.22.095-.559.19a9.264 9.264 0 0 1-.277.072 7.26 7.26 0 0 1-.681.135 5.303 5.303 0 0 1-.663.057 44.944 44.944 0 0 1-.341.005q-.565.007-1.447.007-2.547 0-3.405-.495a1.258 1.258 0 0 1-.171-.117 1.419 1.419 0 0 1-.368-.501q-.376-.798-.376-2.487V15.92h-3.384a42.717 42.717 0 0 1-.152 2.608q-.112 1.232-.296 2.278a17.724 17.724 0 0 1-.38 1.702 13.526 13.526 0 0 1-.915 2.407 10.696 10.696 0 0 1-1.197 1.889 14.724 14.724 0 0 1-1.237 1.355q-.666.65-1.494 1.329a33.069 33.069 0 0 1-1.385 1.072L20 26.84a26.671 26.671 0 0 0 1.212-.903q1.165-.924 1.85-1.728a7.576 7.576 0 0 0 .058-.069 7.034 7.034 0 0 0 .955-1.527q.33-.704.562-1.542a11.632 11.632 0 0 0 .007-.027 13.197 13.197 0 0 0 .281-1.31q.265-1.586.331-3.814H21.44v-3.84h3.84V8h4.56v4.08h7.8v13.44a4.802 4.802 0 0 0 .003.175q.01.269.052.382a.208.208 0 0 0 .029.055.175.175 0 0 0 .066.048q.129.06.45.06a.845.845 0 0 0 .386-.084q.331-.167.447-.667a1.99 1.99 0 0 0 .019-.089q.133-.718.293-4.325a313.051 313.051 0 0 0 .055-1.315zm22.128 1.8h-3.84q.912 1.032 2.04 1.848 1.008-.84 1.8-1.848z" fill="#86332F" stroke-linecap="round" fill-rule="evenodd" stroke="url(#e)" stroke-width="3" paint-order="stroke"/>
</svg>
