<svg xmlns="http://www.w3.org/2000/svg" viewBox="0 0 88 41" width="88" height="41">
  <defs>
    <radialGradient id="patternGradient">
      <stop offset="0%" stop-color="#FFFFFF" stop-opacity="0.7" />
      <stop offset="100%" stop-color="#FFFFFF" stop-opacity="0" />
    </radialGradient>
    <pattern id="fillPattern" x="0" y="0" width="20" height="20" patternUnits="userSpaceOnUse">
      <rect x="3" y="3" width="4" height="4" fill="url(#patternGradient)" /> 
      <rect x="13" y="13" width="4" height="4" fill="url(#patternGradient)" /> 
    </pattern>
    <radialGradient id="fillGradient" cx="10%" cy="15%">
      <stop offset="25%" stop-color="#fffa5d" />
      <stop offset="95%" stop-color="#EEAA00" />
    </radialGradient>
    <linearGradient id="strokeGradient" x1="0%" y1="0%" x2="0%" y2="100%">
      <stop offset="10%" stop-color="#c75d36" />
      <stop offset="95%" stop-color="#670000" />
    </linearGradient>
    <linearGradient id="textStrokeGradient">
      <stop offset="0%" stop-color="#FFFFFF" />
      <stop offset="100%" stop-color="#FFFF8E" />
    </linearGradient>
    <filter id="textShadow" height="150%">
      <feDropShadow dx="0" dy="3" flood-color="#900000" flood-opacity="0.85" stdDeviation="0" />       
    </filter>
  </defs>
  <polygon points="2,21 14,3 74,3 86,21 74,39 14,39" stroke="url(#strokeGradient)" fill="url(#fillGradient)"/>
  <polygon points="2,21 14,3 74,3 86,21 74,39 14,39" stroke-width="0" fill="url(#fillPattern)" transform="scale(0.9 0.88)" transform-origin="center"/>
  <g id="svgGroup" fill="#86332F" stroke-linecap="round" fill-rule="evenodd" stroke="url(#textStrokeGradient)" stroke-width="3" paint-order="stroke" filter="url(#textShadow)">
    <path transform="translate(20, 8)" d="M 36.648 13.56 L 34.56 13.56 L 34.56 10.2 L 35.352 10.2 L 34.032 9 L 29.52 9 L 29.52 10.32 L 34.08 10.32 L 34.08 13.56 L 29.52 13.56 L 29.52 15.048 Q 30.843 14.864 32.883 14.512 A 227.316 227.316 0 0 0 34.2 14.28 L 34.44 17.76 Q 31.944 18.24 29.52 18.576 L 29.52 22.32 L 25.2 22.32 L 25.2 19.104 A 1.697 1.697 0 0 0 25.093 19.108 Q 24.941 19.118 24.708 19.152 Q 24.384 19.2 24.24 19.2 L 24 15.72 Q 24.165 15.702 24.436 15.676 A 61.726 61.726 0 0 1 24.612 15.66 A 39.709 39.709 0 0 0 24.797 15.643 Q 25.056 15.618 25.2 15.6 L 25.2 2.04 Q 29.304 1.488 33.6 0.24 L 34.68 3.84 Q 31.872 4.608 29.52 5.04 L 29.52 5.76 L 34.08 5.76 L 34.08 7.296 A 5.129 5.129 0 0 0 34.67 6.019 Q 35.081 4.729 35.147 2.8 A 22.223 22.223 0 0 0 35.16 2.04 L 35.16 0.72 L 43.68 0.72 L 43.68 5.88 A 2.283 2.283 0 0 0 43.682 5.971 Q 43.689 6.153 43.728 6.192 A 0.094 0.094 0 0 0 43.761 6.211 Q 43.818 6.233 43.949 6.238 A 2.287 2.287 0 0 0 44.04 6.24 A 0.464 0.464 0 0 0 44.208 6.212 Q 44.396 6.139 44.448 5.88 A 2.649 2.649 0 0 0 44.477 5.682 Q 44.531 5.217 44.606 3.952 A 149.28 149.28 0 0 0 44.64 3.36 L 47.52 3.84 Q 47.474 4.857 47.45 5.35 A 150.584 150.584 0 0 1 47.448 5.388 Q 47.432 5.726 47.381 6.167 A 20.742 20.742 0 0 1 47.328 6.588 A 69.282 69.282 0 0 0 47.287 6.895 Q 47.241 7.25 47.219 7.451 A 6.789 6.789 0 0 0 47.208 7.56 A 1.102 1.102 0 0 1 47.174 7.741 Q 47.116 7.959 46.968 8.256 A 14.068 14.068 0 0 1 46.892 8.407 Q 46.774 8.634 46.707 8.74 A 0.761 0.761 0 0 1 46.668 8.796 A 0.376 0.376 0 0 1 46.617 8.848 Q 46.52 8.932 46.296 9.056 A 5.847 5.847 0 0 1 46.2 9.108 Q 45.902 9.267 45.712 9.316 A 0.734 0.734 0 0 1 45.612 9.336 Q 45.408 9.36 44.784 9.42 Q 44.16 9.48 43.764 9.48 L 42.48 9.48 A 12.635 12.635 0 0 1 41.84 9.465 Q 40.794 9.412 40.428 9.168 Q 40.011 8.89 39.966 8.023 A 4.236 4.236 0 0 1 39.96 7.8 L 39.96 4.08 L 38.76 4.08 A 11.134 11.134 0 0 1 38.512 6.506 Q 38.155 8.106 37.283 9.282 A 6.454 6.454 0 0 1 36.456 10.2 L 46.08 10.2 L 46.08 13.56 Q 44.976 15.72 43.296 17.352 A 23.533 23.533 0 0 0 45.767 18.248 A 29.406 29.406 0 0 0 47.52 18.72 L 46.2 22.32 Q 42.792 21.576 39.864 19.872 Q 38.032 20.898 35.418 21.784 A 44.596 44.596 0 0 1 33.72 22.32 L 32.04 18.84 Q 34.392 18.336 36.48 17.4 A 19.975 19.975 0 0 1 35.48 16.391 Q 34.878 15.736 34.44 15.12 L 36.648 13.56 Z M 19.44 11.76 L 23.52 12.24 Q 23.465 13.82 23.417 14.859 A 93.32 93.32 0 0 1 23.388 15.444 A 27.739 27.739 0 0 1 23.219 17.352 A 31.238 31.238 0 0 1 23.16 17.808 Q 22.998 18.986 22.892 19.542 A 9.624 9.624 0 0 1 22.884 19.584 Q 22.783 20.099 22.431 20.657 A 4.701 4.701 0 0 1 22.38 20.736 Q 22.064 21.214 21.81 21.426 A 1.02 1.02 0 0 1 21.684 21.516 A 1.661 1.661 0 0 1 21.488 21.614 Q 21.268 21.709 20.929 21.804 A 9.264 9.264 0 0 1 20.652 21.876 A 7.26 7.26 0 0 1 19.971 22.011 A 5.303 5.303 0 0 1 19.308 22.068 A 44.944 44.944 0 0 1 18.967 22.073 Q 18.402 22.08 17.52 22.08 Q 14.973 22.08 14.115 21.585 A 1.258 1.258 0 0 1 13.944 21.468 A 1.419 1.419 0 0 1 13.576 20.967 Q 13.2 20.169 13.2 18.48 L 13.2 7.92 L 9.816 7.92 A 42.717 42.717 0 0 1 9.664 10.528 Q 9.552 11.76 9.368 12.806 A 17.724 17.724 0 0 1 8.988 14.508 A 13.526 13.526 0 0 1 8.073 16.915 A 10.696 10.696 0 0 1 6.876 18.804 A 14.724 14.724 0 0 1 5.639 20.159 Q 4.973 20.809 4.145 21.488 A 33.069 33.069 0 0 1 2.76 22.56 L 0 18.84 A 26.671 26.671 0 0 0 1.212 17.937 Q 2.377 17.013 3.062 16.209 A 7.576 7.576 0 0 0 3.12 16.14 A 7.034 7.034 0 0 0 4.075 14.613 Q 4.405 13.909 4.637 13.071 A 11.632 11.632 0 0 0 4.644 13.044 A 13.197 13.197 0 0 0 4.925 11.734 Q 5.19 10.148 5.256 7.92 L 1.44 7.92 L 1.44 4.08 L 5.28 4.08 L 5.28 0 L 9.84 0 L 9.84 4.08 L 17.64 4.08 L 17.64 17.52 A 4.802 4.802 0 0 0 17.643 17.695 Q 17.653 17.964 17.695 18.077 A 0.208 0.208 0 0 0 17.724 18.132 A 0.175 0.175 0 0 0 17.79 18.18 Q 17.919 18.24 18.24 18.24 A 0.845 0.845 0 0 0 18.626 18.156 Q 18.957 17.989 19.073 17.489 A 1.99 1.99 0 0 0 19.092 17.4 Q 19.225 16.682 19.385 13.075 A 313.051 313.051 0 0 0 19.44 11.76 Z M 41.568 13.56 L 37.728 13.56 Q 38.64 14.592 39.768 15.408 Q 40.776 14.568 41.568 13.56 Z" />
  </g>
</svg>