<svg xmlns="http://www.w3.org/2000/svg" viewBox="0 0 88 41" width="88" height="41">
  <defs>
    <radialGradient id="patternGradient">
      <stop offset="0%" stop-color="#FFFFFF" stop-opacity="0.7" />
      <stop offset="100%" stop-color="#FFFFFF" stop-opacity="0" />
    </radialGradient>
    <pattern id="fillPattern" x="0" y="0" width="20" height="20" patternUnits="userSpaceOnUse">
      <rect x="3" y="3" width="4" height="4" fill="url(#patternGradient)" />
      <rect x="13" y="13" width="4" height="4" fill="url(#patternGradient)" />
    </pattern>
    <linearGradient id="fillGradient" cx="10%" cy="15%" gradientTransform="rotate(15)">
      <stop offset="14%" stop-color="#ff551c" />
      <stop offset="28%" stop-color="#ffdb07" />
      <stop offset="42%" stop-color="#7dff65" />
      <stop offset="57%" stop-color="#65cac0" />
      <stop offset="71%" stop-color="#489afd" />
      <stop offset="85%" stop-color="#b55ce1" />
      <stop offset="99%" stop-color="#71a0ff" />
    </linearGradient>
    <linearGradient id="strokeGradient" x1="0%" y1="0%" x2="0%" y2="100%">
      <stop offset="10%" stop-color="#c75d36" />
      <stop offset="95%" stop-color="#670000" />
    </linearGradient>
    <linearGradient id="textGradient" x1="0%" y1="0%" x2="0%" y2="50%" spreadMethod="reflect">
     <stop offset="40%" stop-color="#ffffff" />
     <stop offset="90%" stop-color="#ffb8f9" />
     <stop offset="100%" stop-color="#d8d6ff" />
    </linearGradient>
    <linearGradient id="textStrokeGradient">
     <stop offset="10%" stop-color="#1600f4" />
     <stop offset="95%" stop-color="#490FEC" />
    </linearGradient>
    <filter id="textShadow" height="150%">
      <feDropShadow dx="0" dy="3" flood-color="#221C9A" flood-opacity="0.85" stdDeviation="0" />
    </filter>
  </defs>
  <polygon points="2,21 14,3 74,3 86,21 74,39 14,39" stroke="url(#strokeGradient)" fill="url(#fillGradient)" />
  <polygon points="2,21 14,3 74,3 86,21 74,39 14,39" stroke-width="0" fill="url(#fillPattern)"
    transform="scale(0.9 0.88)" transform-origin="center" />
  <g id="svgGroup" fill="url(#textGradient)" stroke-linecap="round" fill-rule="evenodd"
    stroke="url(#textStrokeGradient)" stroke-width="4" paint-order="stroke" filter="url(#textShadow)">
    <path transform="translate(20, 8)"
      d="M 6.84 1.8 L 11.28 1.8 L 11.28 5.16 L 6.84 5.16 L 6.84 6.648 Q 8.904 6.336 11.16 5.88 L 11.472 9 L 12.024 9.048 Q 12.006 8.92 12.001 8.682 A 8.845 8.845 0 0 1 12 8.52 L 12 0.48 L 16.44 0.48 L 16.44 2.328 Q 18.569 1.701 21.116 0.634 A 63.942 63.942 0 0 0 21.48 0.48 L 22.92 3.72 A 46.662 46.662 0 0 1 21.451 4.316 Q 20.774 4.577 20.157 4.786 A 27.388 27.388 0 0 1 19.752 4.92 L 22.68 5.28 Q 22.601 6.526 22.514 7.308 A 17.063 17.063 0 0 1 22.476 7.62 A 13.502 13.502 0 0 1 22.37 8.303 Q 22.313 8.613 22.246 8.884 A 7.461 7.461 0 0 1 22.2 9.06 Q 22.084 9.481 21.866 9.726 A 1.004 1.004 0 0 1 21.648 9.912 Q 21.264 10.152 20.832 10.248 A 4.098 4.098 0 0 1 20.557 10.298 Q 20.164 10.358 19.56 10.392 Q 18.072 10.44 17.4 10.44 Q 16.557 10.44 15.302 10.394 A 104.159 104.159 0 0 1 15.24 10.392 Q 14.4 10.368 13.584 10.272 Q 13.529 10.511 13.432 10.905 A 102.422 102.422 0 0 1 13.368 11.16 L 21.12 11.16 L 21.12 22.08 L 16.68 22.08 L 16.68 21.36 L 6.84 21.36 L 6.84 22.08 L 2.4 22.08 L 2.4 11.16 L 8.712 11.16 Q 8.753 11.037 8.933 10.168 A 128.86 128.86 0 0 0 9 9.84 Q 4.32 10.68 0.36 10.92 L 0 7.44 Q 1.2 7.368 2.4 7.224 L 2.4 0.48 L 6.84 0.48 L 6.84 1.8 Z M 39.72 13.08 L 43.56 11.64 Q 45.72 16.368 47.16 21 L 43.2 22.44 Q 43.002 21.83 42.736 21.06 A 122.835 122.835 0 0 0 42.48 20.328 Q 36.936 21.072 31.2 21.48 L 30.84 17.76 L 32.712 17.616 Q 33.912 14.136 35.04 10.32 L 30.96 10.32 L 30.96 6.6 L 46.68 6.6 L 46.68 10.32 L 39.84 10.32 A 156.93 156.93 0 0 1 39.131 12.669 Q 38.811 13.704 38.448 14.833 A 277.937 277.937 0 0 1 37.68 17.184 Q 38.654 17.111 40.205 16.953 A 224.646 224.646 0 0 0 41.208 16.848 Q 40.796 15.776 40.247 14.397 A 386.115 386.115 0 0 0 39.72 13.08 Z M 30.24 6.696 L 30.24 22.2 L 26.04 22.2 L 26.04 12.936 A 16.318 16.318 0 0 1 25.559 13.635 Q 25.323 13.96 25.1 14.223 A 6.694 6.694 0 0 1 24.72 14.64 L 23.76 9.36 A 17.688 17.688 0 0 0 26.123 5.317 Q 26.937 3.412 27.475 1.13 A 32.412 32.412 0 0 0 27.72 0 L 31.8 0.72 A 30.622 30.622 0 0 1 31.058 4.229 A 24.766 24.766 0 0 1 30.24 6.696 Z M 45.6 4.68 L 32.52 4.68 L 32.52 0.96 L 45.6 0.96 L 45.6 4.68 Z M 6.84 17.52 L 6.84 18.36 L 16.68 18.36 L 16.68 17.52 L 6.84 17.52 Z M 6.84 15 L 16.68 15 L 16.68 14.16 L 6.84 14.16 L 6.84 15 Z M 16.44 5.856 L 16.44 6.72 A 1.518 1.518 0 0 0 16.442 6.801 Q 16.448 6.917 16.474 6.965 A 0.083 0.083 0 0 0 16.488 6.984 A 0.105 0.105 0 0 0 16.519 7.004 Q 16.594 7.037 16.8 7.056 Q 16.978 7.078 17.444 7.08 A 21.61 21.61 0 0 0 17.52 7.08 Q 17.896 7.08 18.141 7.064 A 4.083 4.083 0 0 0 18.24 7.056 A 0.462 0.462 0 0 0 18.38 7.023 Q 18.525 6.961 18.576 6.792 A 0.995 0.995 0 0 0 18.602 6.665 Q 18.647 6.372 18.682 5.608 A 44.442 44.442 0 0 0 18.696 5.256 Q 17.557 5.587 16.84 5.763 A 16.355 16.355 0 0 1 16.44 5.856 Z" />
  </g>
</svg>