<svg xmlns="http://www.w3.org/2000/svg" width="88" height="41">
    <defs>
        <linearGradient id="c" cx="10%" cy="15%" gradientTransform="rotate(15)">
            <stop offset="14%" stop-color="#ff551c"/>
            <stop offset="28%" stop-color="#ffdb07"/>
            <stop offset="42%" stop-color="#7dff65"/>
            <stop offset="57%" stop-color="#65cac0"/>
            <stop offset="71%" stop-color="#489afd"/>
            <stop offset="85%" stop-color="#b55ce1"/>
            <stop offset="99%" stop-color="#71a0ff"/>
        </linearGradient>
        <linearGradient id="b" x1="0%" y1="0%" x2="0%" y2="100%">
            <stop offset="10%" stop-color="#c75d36"/>
            <stop offset="95%" stop-color="#670000"/>
        </linearGradient>
        <linearGradient id="e" x1="0%" y1="0%" x2="0%" y2="50%" spreadMethod="reflect">
            <stop offset="40%" stop-color="#fff"/>
            <stop offset="90%" stop-color="#ffb8f9"/>
            <stop offset="100%" stop-color="#d8d6ff"/>
        </linearGradient>
        <linearGradient id="f">
            <stop offset="10%" stop-color="#1600f4"/>
            <stop offset="95%" stop-color="#490FEC"/>
        </linearGradient>
        <radialGradient id="a">
            <stop offset="0%" stop-color="#FFF" stop-opacity=".7"/>
            <stop offset="100%" stop-color="#FFF" stop-opacity="0"/>
        </radialGradient>
        <pattern id="d" x="0" y="0" width="20" height="20" patternUnits="userSpaceOnUse">
            <rect x="3" y="3" width="4" height="4" fill="url(#a)"/>
            <rect x="13" y="13" width="4" height="4" fill="url(#a)"/>
        </pattern>
        <filter id="g" height="150%">
            <feDropShadow dx="0" dy="3" flood-color="#221C9A" flood-opacity=".85" stdDeviation="0"/>
        </filter>
    </defs>
    <polygon points="2,21 14,3 74,3 86,21 74,39 14,39" stroke="url(#b)" fill="url(#c)"/>
    <polygon points="2,21 14,3 74,3 86,21 74,39 14,39" fill="url(#d)"/>
    <g fill="url(#e)" stroke-linecap="round" fill-rule="evenodd" stroke="url(#f)" stroke-width="4" paint-order="stroke" filter="url(#g)">
        <path d="M26.84 9.8h4.44v3.36h-4.44v1.488q2.064-.312 4.32-.768l.312 3.12.552.048q-.018-.128-.023-.366A8.845 8.845 0 0132 16.52V8.48h4.44v1.848q2.129-.627 4.676-1.694a63.942 63.942 0 00.364-.154l1.44 3.24a46.662 46.662 0 01-1.469.596q-.677.261-1.294.47a27.388 27.388 0 01-.405.134l2.928.36q-.079 1.246-.166 2.028a17.063 17.063 0 01-.038.312 13.502 13.502 0 01-.106.683q-.057.31-.124.581a7.461 7.461 0 01-.046.176q-.116.421-.334.666a1.004 1.004 0 01-.218.186q-.384.24-.816.336a4.098 4.098 0 01-.275.05q-.393.06-.997.094-1.488.048-2.16.048-.843 0-2.098-.046a104.159 104.159 0 01-.062-.002q-.84-.024-1.656-.12-.055.239-.152.633a102.422 102.422 0 01-.064.255h7.752v10.92h-4.44v-.72h-9.84v.72H22.4V19.16h6.312q.041-.123.221-.992A128.86 128.86 0 0029 17.84q-4.68.84-8.64 1.08L20 15.44q1.2-.072 2.4-.216V8.48h4.44V9.8zm32.88 11.28l3.84-1.44q2.16 4.728 3.6 9.36l-3.96 1.44q-.198-.61-.464-1.38a122.835 122.835 0 00-.256-.732q-5.544.744-11.28 1.152l-.36-3.72 1.872-.144q1.2-3.48 2.328-7.296h-4.08V14.6h15.72v3.72h-6.84a156.93 156.93 0 01-.709 2.349q-.32 1.035-.683 2.164a277.937 277.937 0 01-.768 2.351q.974-.073 2.525-.231a224.646 224.646 0 001.003-.105q-.412-1.072-.961-2.451a386.115 386.115 0 00-.527-1.317zm-9.48-6.384V30.2h-4.2v-9.264a16.318 16.318 0 01-.481.699q-.236.325-.459.588a6.694 6.694 0 01-.38.417l-.96-5.28a17.688 17.688 0 002.363-4.043q.814-1.905 1.352-4.187A32.412 32.412 0 0047.72 8l4.08.72a30.622 30.622 0 01-.742 3.509 24.766 24.766 0 01-.818 2.467zM65.6 12.68H52.52V8.96H65.6v3.72zM26.84 25.52v.84h9.84v-.84h-9.84zm0-2.52h9.84v-.84h-9.84V23zm9.6-9.144v.864a1.518 1.518 0 00.002.081q.006.116.032.164a.083.083 0 00.014.019.105.105 0 00.031.02q.075.033.281.052.178.022.644.024a21.61 21.61 0 00.076 0q.376 0 .621-.016a4.083 4.083 0 00.099-.008.462.462 0 00.14-.033q.145-.062.196-.231a.995.995 0 00.026-.127q.045-.293.08-1.057a44.442 44.442 0 00.014-.352q-1.139.331-1.856.507a16.355 16.355 0 01-.4.093z"/>
    </g>
</svg>
