<svg xmlns="http://www.w3.org/2000/svg" width="88" height="41">
    <defs>
        <linearGradient id="c" cx="10%" cy="15%" gradientTransform="rotate(15)">
            <stop offset="14%" stop-color="#ff551c"/>
            <stop offset="28%" stop-color="#ffdb07"/>
            <stop offset="42%" stop-color="#7dff65"/>
            <stop offset="57%" stop-color="#65cac0"/>
            <stop offset="71%" stop-color="#489afd"/>
            <stop offset="85%" stop-color="#b55ce1"/>
            <stop offset="99%" stop-color="#71a0ff"/>
        </linearGradient>
        <linearGradient id="b" x1="0%" y1="0%" x2="0%" y2="100%">
            <stop offset="10%" stop-color="#c75d36"/>
            <stop offset="95%" stop-color="#670000"/>
        </linearGradient>
        <linearGradient id="e" x1="0%" y1="0%" x2="0%" y2="50%" spreadMethod="reflect">
            <stop offset="40%" stop-color="#fff"/>
            <stop offset="90%" stop-color="#ffb8f9"/>
            <stop offset="100%" stop-color="#d8d6ff"/>
        </linearGradient>
        <linearGradient id="f">
            <stop offset="10%" stop-color="#1600f4"/>
            <stop offset="95%" stop-color="#490FEC"/>
        </linearGradient>
        <radialGradient id="a">
            <stop offset="0%" stop-color="#FFF" stop-opacity=".7"/>
            <stop offset="100%" stop-color="#FFF" stop-opacity="0"/>
        </radialGradient>
        <pattern id="d" x="0" y="0" width="20" height="20" patternUnits="userSpaceOnUse">
            <rect x="3" y="3" width="4" height="4" fill="url(#a)"/>
            <rect x="13" y="13" width="4" height="4" fill="url(#a)"/>
        </pattern>
        <filter id="g" height="150%">
            <feDropShadow dx="0" dy="3" flood-color="#221C9A" flood-opacity=".85" stdDeviation="0"/>
        </filter>
    </defs>
    <polygon points="2,21 14,3 74,3 86,21 74,39 14,39" stroke="url(#b)" fill="url(#c)"/>
    <polygon points="2,21 14,3 74,3 86,21 74,39 14,39" fill="url(#d)"/>
    <g fill="url(#e)" stroke-linecap="round" fill-rule="evenodd" stroke="url(#f)" stroke-width="4" paint-order="stroke" filter="url(#g)">
        <path d="M38.72 10.65h4.07v3.08h-4.07v1.364a78.428 78.428 0 002.874-.491 90.71 90.71 0 001.086-.213l.286 2.86.506.044q-.017-.117-.021-.336a8.109 8.109 0 01-.001-.148V9.44h4.07v1.694q2.09-.616 4.62-1.694l1.32 2.97q-1.606.682-2.904 1.1l2.684.33a63.887 63.887 0 01-.045.654q-.052.706-.108 1.205a15.641 15.641 0 01-.034.286 12.377 12.377 0 01-.097.626q-.052.284-.114.532a6.84 6.84 0 01-.042.162q-.106.386-.306.611a.921.921 0 01-.2.17q-.352.22-.748.308a3.757 3.757 0 01-.252.046q-.361.054-.914.086a151.309 151.309 0 01-.635.019q-.839.024-1.298.025a18.506 18.506 0 01-.047 0q-.773 0-1.923-.042a95.813 95.813 0 01-.057-.002q-.77-.022-1.518-.11-.066.286-.198.814h7.106v10.01h-4.07v-.66h-9.02v.66h-4.07V19.23h5.786q.037-.112.202-.91a118.101 118.101 0 00.062-.3q-4.29.77-7.92.99l-.33-3.19q1.1-.066 2.2-.198V9.44h4.07v1.21zM11 22.86v-5.17h20.24v4.95H27.5v-2.2H14.74v.77h2.42v.968q4.84-.418 9.35-1.518l1.1 2.75q-4.906 1.166-10.45 1.65v.11q0 .638.572.759.489.103 2.936.118a145.361 145.361 0 00.892.003q3.319 0 3.99-.251a.692.692 0 00.058-.024.701.701 0 00.3-.303q.272-.484.272-1.622l3.85.55a91.825 91.825 0 01-.001.365q-.002.518-.01.856a6.277 6.277 0 01-.037.532 8.113 8.113 0 01-.062.447 11.498 11.498 0 01-.044.248q-.051.267-.101.451a2.673 2.673 0 01-.031.104 1.186 1.186 0 01-.099.222q-.057.1-.137.205a2.66 2.66 0 01-.138.167q-.204.227-.397.36a1.293 1.293 0 01-.153.091 2.456 2.456 0 01-.172.077q-.191.078-.472.165a11.512 11.512 0 01-.181.055 5.731 5.731 0 01-.756.17 4.958 4.958 0 01-.333.039 32.299 32.299 0 01-.289.023q-.473.035-1.174.076-.935.055-1.826.066a113.382 113.382 0 01-.476.005q-.761.006-1.801.006a212.087 212.087 0 01-.96-.002q-1.364-.006-2.263-.031a19.931 19.931 0 01-1.147-.063 15.212 15.212 0 01-1.042-.124q-.99-.154-1.441-.352a1.725 1.725 0 01-.638-.489 2.147 2.147 0 01-.121-.16 2.245 2.245 0 01-.264-.51 1.894 1.894 0 01-.099-.425 6.339 6.339 0 01-.024-.267q-.021-.3-.028-.706a23.92 23.92 0 01-.003-.391v-2.75H11zm57.86-1.87l3.52-1.32a73.35 73.35 0 012.938 7.451 66.288 66.288 0 01.362 1.129l-3.63 1.32a59.195 59.195 0 00-.217-.654l-.208-.611a112.585 112.585 0 00-.235-.671q-5.082.682-10.34 1.056l-.33-3.41 1.716-.132q1.1-3.19 2.134-6.688h-3.74v-3.41h14.41v3.41h-6.27a143.854 143.854 0 01-.65 2.153q-.588 1.898-1.33 4.139a56.556 56.556 0 00.639-.052q1.044-.091 2.595-.256-.378-.983-.881-2.247a353.96 353.96 0 00-.483-1.207zm-45.65-7.37v.66h6.49v2.75H12.54v-2.75h6.49v-.66H11v-2.97h8.03V9h4.18v1.65h8.03v2.97h-8.03zm36.96 1.518V29.35h-3.85v-8.492a14.959 14.959 0 01-.441.641q-.408.56-.769.921l-.88-4.84q2.574-3.256 3.63-8.58l3.74.66a28.07 28.07 0 01-.68 3.217 22.702 22.702 0 01-.75 2.261zm14.08-1.848H62.26V9.88h11.99v3.41zM38.72 25.06v.77h9.02v-.77h-9.02zm0-2.31h9.02v-.77h-9.02v.77zm8.8-8.382v.792q0 .198.044.242.036.036.202.057a2.339 2.339 0 00.084.009q.163.02.59.022a19.846 19.846 0 00.07 0q.418 0 .66-.022.228-.021.3-.217a.445.445 0 00.008-.025q.066-.22.11-1.408-1.364.396-2.068.55z"/>
    </g>
</svg>
