<svg xmlns="http://www.w3.org/2000/svg" viewBox="0 0 88 41" width="88" height="41">
  <defs>
    <radialGradient id="patternGradient">
      <stop offset="0%" stop-color="#FFFFFF" stop-opacity="0.7" />
      <stop offset="100%" stop-color="#FFFFFF" stop-opacity="0" />
    </radialGradient>
    <pattern id="fillPattern" x="0" y="0" width="20" height="20" patternUnits="userSpaceOnUse">
      <rect x="3" y="3" width="4" height="4" fill="url(#patternGradient)" />
      <rect x="13" y="13" width="4" height="4" fill="url(#patternGradient)" />
    </pattern>
    <linearGradient id="fillGradient" cx="10%" cy="15%" gradientTransform="rotate(15)">
      <stop offset="14%" stop-color="#ff551c" />
      <stop offset="28%" stop-color="#ffdb07" />
      <stop offset="42%" stop-color="#7dff65" />
      <stop offset="57%" stop-color="#65cac0" />
      <stop offset="71%" stop-color="#489afd" />
      <stop offset="85%" stop-color="#b55ce1" />
      <stop offset="99%" stop-color="#71a0ff" />
    </linearGradient>
    <linearGradient id="strokeGradient" x1="0%" y1="0%" x2="0%" y2="100%">
      <stop offset="10%" stop-color="#c75d36" />
      <stop offset="95%" stop-color="#670000" />
    </linearGradient>
    <linearGradient id="textGradient" x1="0%" y1="0%" x2="0%" y2="50%" spreadMethod="reflect">
     <stop offset="40%" stop-color="#ffffff" />
     <stop offset="90%" stop-color="#ffb8f9" />
     <stop offset="100%" stop-color="#d8d6ff" />
    </linearGradient>
    <linearGradient id="textStrokeGradient">
     <stop offset="10%" stop-color="#1600f4" />
     <stop offset="95%" stop-color="#490FEC" />
    </linearGradient>
    <filter id="textShadow" height="150%">
      <feDropShadow dx="0" dy="3" flood-color="#221C9A" flood-opacity="0.85" stdDeviation="0" />
    </filter>
  </defs>
  <polygon points="2,21 14,3 74,3 86,21 74,39 14,39" stroke="url(#strokeGradient)" fill="url(#fillGradient)" />
  <polygon points="2,21 14,3 74,3 86,21 74,39 14,39" stroke-width="0" fill="url(#fillPattern)"
    transform="scale(0.9 0.88)" transform-origin="center" />
  <g id="svgGroup" fill="url(#textGradient)" stroke-linecap="round" fill-rule="evenodd"
    stroke="url(#textStrokeGradient)" stroke-width="4" paint-order="stroke" filter="url(#textShadow)">
    <path transform="translate(11, 9)"
      d="M 27.72 1.65 L 31.79 1.65 L 31.79 4.73 L 27.72 4.73 L 27.72 6.094 A 78.428 78.428 0 0 0 30.594 5.603 A 90.71 90.71 0 0 0 31.68 5.39 L 31.966 8.25 L 32.472 8.294 Q 32.455 8.177 32.451 7.958 A 8.109 8.109 0 0 1 32.45 7.81 L 32.45 0.44 L 36.52 0.44 L 36.52 2.134 Q 38.61 1.518 41.14 0.44 L 42.46 3.41 Q 40.854 4.092 39.556 4.51 L 42.24 4.84 A 63.887 63.887 0 0 1 42.195 5.494 Q 42.143 6.2 42.087 6.699 A 15.641 15.641 0 0 1 42.053 6.985 A 12.377 12.377 0 0 1 41.956 7.611 Q 41.904 7.895 41.842 8.143 A 6.84 6.84 0 0 1 41.8 8.305 Q 41.694 8.691 41.494 8.916 A 0.921 0.921 0 0 1 41.294 9.086 Q 40.942 9.306 40.546 9.394 A 3.757 3.757 0 0 1 40.294 9.44 Q 39.933 9.494 39.38 9.526 A 151.309 151.309 0 0 1 38.745 9.545 Q 37.906 9.569 37.447 9.57 A 18.506 18.506 0 0 1 37.4 9.57 Q 36.627 9.57 35.477 9.528 A 95.813 95.813 0 0 1 35.42 9.526 Q 34.65 9.504 33.902 9.416 Q 33.836 9.702 33.704 10.23 L 40.81 10.23 L 40.81 20.24 L 36.74 20.24 L 36.74 19.58 L 27.72 19.58 L 27.72 20.24 L 23.65 20.24 L 23.65 10.23 L 29.436 10.23 Q 29.473 10.118 29.638 9.32 A 118.101 118.101 0 0 0 29.7 9.02 Q 25.41 9.79 21.78 10.01 L 21.45 6.82 Q 22.55 6.754 23.65 6.622 L 23.65 0.44 L 27.72 0.44 L 27.72 1.65 Z M 0 13.86 L 0 8.69 L 20.24 8.69 L 20.24 13.64 L 16.5 13.64 L 16.5 11.44 L 3.74 11.44 L 3.74 12.21 L 6.16 12.21 L 6.16 13.178 Q 11 12.76 15.51 11.66 L 16.61 14.41 Q 11.704 15.576 6.16 16.06 L 6.16 16.17 Q 6.16 16.808 6.732 16.929 Q 7.221 17.032 9.668 17.047 A 145.361 145.361 0 0 0 10.56 17.05 Q 13.879 17.05 14.55 16.799 A 0.692 0.692 0 0 0 14.608 16.775 A 0.701 0.701 0 0 0 14.908 16.472 Q 15.18 15.988 15.18 14.85 L 19.03 15.4 A 91.825 91.825 0 0 1 19.029 15.765 Q 19.027 16.283 19.019 16.621 A 6.277 6.277 0 0 1 18.982 17.153 A 8.113 8.113 0 0 1 18.92 17.6 A 11.498 11.498 0 0 1 18.876 17.848 Q 18.825 18.115 18.775 18.299 A 2.673 2.673 0 0 1 18.744 18.403 A 1.186 1.186 0 0 1 18.645 18.625 Q 18.588 18.725 18.508 18.83 A 2.66 2.66 0 0 1 18.37 18.997 Q 18.166 19.224 17.973 19.357 A 1.293 1.293 0 0 1 17.82 19.448 A 2.456 2.456 0 0 1 17.648 19.525 Q 17.457 19.603 17.176 19.69 A 11.512 11.512 0 0 1 16.995 19.745 A 5.731 5.731 0 0 1 16.239 19.915 A 4.958 4.958 0 0 1 15.906 19.954 A 32.299 32.299 0 0 1 15.617 19.977 Q 15.144 20.012 14.443 20.053 Q 13.508 20.108 12.617 20.119 A 113.382 113.382 0 0 1 12.141 20.124 Q 11.38 20.13 10.34 20.13 A 212.087 212.087 0 0 1 9.38 20.128 Q 8.016 20.122 7.117 20.097 A 19.931 19.931 0 0 1 5.97 20.034 A 15.212 15.212 0 0 1 4.928 19.91 Q 3.938 19.756 3.487 19.558 A 1.725 1.725 0 0 1 2.849 19.069 A 2.147 2.147 0 0 1 2.728 18.909 A 2.245 2.245 0 0 1 2.464 18.399 A 1.894 1.894 0 0 1 2.365 17.974 A 6.339 6.339 0 0 1 2.341 17.707 Q 2.32 17.407 2.313 17.001 A 23.92 23.92 0 0 1 2.31 16.61 L 2.31 13.86 L 0 13.86 Z M 57.86 11.99 L 61.38 10.67 A 73.35 73.35 0 0 1 64.318 18.121 A 66.288 66.288 0 0 1 64.68 19.25 L 61.05 20.57 A 59.195 59.195 0 0 0 60.833 19.916 Q 60.735 19.626 60.625 19.305 A 112.585 112.585 0 0 0 60.39 18.634 Q 55.308 19.316 50.05 19.69 L 49.72 16.28 L 51.436 16.148 Q 52.536 12.958 53.57 9.46 L 49.83 9.46 L 49.83 6.05 L 64.24 6.05 L 64.24 9.46 L 57.97 9.46 A 143.854 143.854 0 0 1 57.32 11.613 Q 56.732 13.511 55.99 15.752 A 56.556 56.556 0 0 0 56.629 15.7 Q 57.673 15.609 59.224 15.444 Q 58.846 14.461 58.343 13.197 A 353.96 353.96 0 0 0 57.86 11.99 Z M 12.21 4.62 L 12.21 5.28 L 18.7 5.28 L 18.7 8.03 L 1.54 8.03 L 1.54 5.28 L 8.03 5.28 L 8.03 4.62 L 0 4.62 L 0 1.65 L 8.03 1.65 L 8.03 0 L 12.21 0 L 12.21 1.65 L 20.24 1.65 L 20.24 4.62 L 12.21 4.62 Z M 49.17 6.138 L 49.17 20.35 L 45.32 20.35 L 45.32 11.858 A 14.959 14.959 0 0 1 44.879 12.499 Q 44.471 13.059 44.11 13.42 L 43.23 8.58 Q 45.804 5.324 46.86 0 L 50.6 0.66 A 28.07 28.07 0 0 1 49.92 3.877 A 22.702 22.702 0 0 1 49.17 6.138 Z M 63.25 4.29 L 51.26 4.29 L 51.26 0.88 L 63.25 0.88 L 63.25 4.29 Z M 27.72 16.06 L 27.72 16.83 L 36.74 16.83 L 36.74 16.06 L 27.72 16.06 Z M 27.72 13.75 L 36.74 13.75 L 36.74 12.98 L 27.72 12.98 L 27.72 13.75 Z M 36.52 5.368 L 36.52 6.16 Q 36.52 6.358 36.564 6.402 Q 36.6 6.438 36.766 6.459 A 2.339 2.339 0 0 0 36.85 6.468 Q 37.013 6.488 37.44 6.49 A 19.846 19.846 0 0 0 37.51 6.49 Q 37.928 6.49 38.17 6.468 Q 38.398 6.447 38.47 6.251 A 0.445 0.445 0 0 0 38.478 6.226 Q 38.544 6.006 38.588 4.818 Q 37.224 5.214 36.52 5.368 Z" />
  </g>
</svg>