<svg xmlns="http://www.w3.org/2000/svg" viewBox="0 0 88 41" width="88" height="41">
  <defs>
    <radialGradient id="patternGradient">
      <stop offset="0%" stop-color="#FFFFFF" stop-opacity="0.7" />
      <stop offset="100%" stop-color="#FFFFFF" stop-opacity="0" />
    </radialGradient>
    <pattern id="fillPattern" x="0" y="0" width="20" height="20" patternUnits="userSpaceOnUse">
      <rect x="3" y="3" width="4" height="4" fill="url(#patternGradient)" />
      <rect x="13" y="13" width="4" height="4" fill="url(#patternGradient)" />
    </pattern>
    <linearGradient id="fillGradient" cx="10%" cy="15%" gradientTransform="rotate(15)">
      <stop offset="14%" stop-color="#ff551c" />
      <stop offset="28%" stop-color="#ffdb07" />
      <stop offset="42%" stop-color="#7dff65" />
      <stop offset="57%" stop-color="#65cac0" />
      <stop offset="71%" stop-color="#489afd" />
      <stop offset="85%" stop-color="#b55ce1" />
      <stop offset="99%" stop-color="#71a0ff" />
    </linearGradient>
    <linearGradient id="strokeGradient" x1="0%" y1="0%" x2="0%" y2="100%">
      <stop offset="10%" stop-color="#c75d36" />
      <stop offset="95%" stop-color="#670000" />
    </linearGradient>
    <linearGradient id="textGradient" x1="0%" y1="0%" x2="0%" y2="50%" spreadMethod="reflect">
     <stop offset="40%" stop-color="#ffffff" />
     <stop offset="90%" stop-color="#ffb8f9" />
     <stop offset="100%" stop-color="#d8d6ff" />
    </linearGradient>
    <linearGradient id="textStrokeGradient">
     <stop offset="10%" stop-color="#1600f4" />
     <stop offset="95%" stop-color="#490FEC" />
    </linearGradient>
    <filter id="textShadow" height="150%">
      <feDropShadow dx="0" dy="3" flood-color="#221C9A" flood-opacity="0.85" stdDeviation="0" />
    </filter>
  </defs>
  <polygon points="2,21 14,3 74,3 86,21 74,39 14,39" stroke="url(#strokeGradient)" fill="url(#fillGradient)" />
  <polygon points="2,21 14,3 74,3 86,21 74,39 14,39" stroke-width="0" fill="url(#fillPattern)"
    transform="scale(0.9 0.88)" transform-origin="center" />
  <g id="svgGroup" fill="url(#textGradient)" stroke-linecap="round" fill-rule="evenodd"
    stroke="url(#textStrokeGradient)" stroke-width="4" paint-order="stroke" filter="url(#textShadow)">
    <path transform="translate(11, 9)"
      d="M 27.72 1.65 L 31.79 1.65 L 31.79 4.73 L 27.72 4.73 L 27.72 6.094 A 78.428 78.428 0 0 0 30.594 5.603 A 90.71 90.71 0 0 0 31.68 5.39 L 31.966 8.25 L 32.472 8.294 Q 32.455 8.177 32.451 7.958 A 8.109 8.109 0 0 1 32.45 7.81 L 32.45 0.44 L 36.52 0.44 L 36.52 2.134 Q 38.61 1.518 41.14 0.44 L 42.46 3.41 Q 40.854 4.092 39.556 4.51 L 42.24 4.84 A 63.887 63.887 0 0 1 42.195 5.494 Q 42.143 6.2 42.087 6.699 A 15.641 15.641 0 0 1 42.053 6.985 A 12.377 12.377 0 0 1 41.956 7.611 Q 41.904 7.895 41.842 8.143 A 6.84 6.84 0 0 1 41.8 8.305 Q 41.694 8.691 41.494 8.916 A 0.921 0.921 0 0 1 41.294 9.086 Q 40.942 9.306 40.546 9.394 A 3.757 3.757 0 0 1 40.294 9.44 Q 39.933 9.494 39.38 9.526 A 151.309 151.309 0 0 1 38.745 9.545 Q 37.906 9.569 37.447 9.57 A 18.506 18.506 0 0 1 37.4 9.57 Q 36.627 9.57 35.477 9.528 A 95.813 95.813 0 0 1 35.42 9.526 Q 34.65 9.504 33.902 9.416 Q 33.836 9.702 33.704 10.23 L 40.81 10.23 L 40.81 20.24 L 36.74 20.24 L 36.74 19.58 L 27.72 19.58 L 27.72 20.24 L 23.65 20.24 L 23.65 10.23 L 29.436 10.23 Q 29.473 10.118 29.638 9.32 A 118.101 118.101 0 0 0 29.7 9.02 Q 25.41 9.79 21.78 10.01 L 21.45 6.82 Q 22.55 6.754 23.65 6.622 L 23.65 0.44 L 27.72 0.44 L 27.72 1.65 Z M 15.18 1.43 L 17.93 0.11 Q 19.052 1.672 20.13 3.96 L 17.842 5.06 L 20.24 5.06 L 20.24 8.25 L 15.334 8.25 Q 15.529 10.286 15.823 11.894 A 27.898 27.898 0 0 0 15.972 12.65 A 32.154 32.154 0 0 0 16.168 13.52 Q 16.377 14.388 16.577 14.952 A 5.737 5.737 0 0 0 16.731 15.345 Q 17.023 16.008 17.265 16.138 A 0.243 0.243 0 0 0 17.38 16.17 A 0.154 0.154 0 0 0 17.486 16.058 Q 17.716 15.572 17.93 12.98 L 20.79 14.41 Q 20.636 17.38 19.712 18.865 A 4.318 4.318 0 0 1 19.167 19.579 Q 18.797 19.964 18.379 20.156 A 2.097 2.097 0 0 1 17.49 20.35 A 4.09 4.09 0 0 1 16.372 20.201 A 3.651 3.651 0 0 1 15.873 20.02 A 3.205 3.205 0 0 1 15.212 19.615 Q 14.94 19.403 14.674 19.117 A 6.245 6.245 0 0 1 14.432 18.843 A 6.684 6.684 0 0 1 13.826 17.974 Q 13.565 17.534 13.331 17.012 A 12.038 12.038 0 0 1 13.178 16.654 A 13.254 13.254 0 0 1 12.786 15.55 Q 12.608 14.973 12.444 14.298 A 29.704 29.704 0 0 1 12.199 13.189 Q 11.83 11.365 11.6 9.028 A 61.82 61.82 0 0 1 11.528 8.25 L 0 8.25 L 0 5.06 L 11.33 5.06 Q 11.22 2.486 11.22 0 L 14.96 0 Q 14.96 2.794 15.092 5.06 L 17.27 5.06 A 38.868 38.868 0 0 0 16.35 3.326 Q 15.872 2.479 15.398 1.757 A 22.277 22.277 0 0 0 15.18 1.43 Z M 57.86 11.99 L 61.38 10.67 A 73.35 73.35 0 0 1 64.318 18.121 A 66.288 66.288 0 0 1 64.68 19.25 L 61.05 20.57 A 59.195 59.195 0 0 0 60.833 19.916 Q 60.735 19.626 60.625 19.305 A 112.585 112.585 0 0 0 60.39 18.634 Q 55.308 19.316 50.05 19.69 L 49.72 16.28 L 51.436 16.148 Q 52.536 12.958 53.57 9.46 L 49.83 9.46 L 49.83 6.05 L 64.24 6.05 L 64.24 9.46 L 57.97 9.46 A 143.854 143.854 0 0 1 57.32 11.613 Q 56.732 13.511 55.99 15.752 A 56.556 56.556 0 0 0 56.629 15.7 Q 57.673 15.609 59.224 15.444 Q 58.846 14.461 58.343 13.197 A 353.96 353.96 0 0 0 57.86 11.99 Z M 49.17 6.138 L 49.17 20.35 L 45.32 20.35 L 45.32 11.858 A 14.959 14.959 0 0 1 44.879 12.499 Q 44.471 13.059 44.11 13.42 L 43.23 8.58 Q 45.804 5.324 46.86 0 L 50.6 0.66 A 28.07 28.07 0 0 1 49.92 3.877 A 22.702 22.702 0 0 1 49.17 6.138 Z M 63.25 4.29 L 51.26 4.29 L 51.26 0.88 L 63.25 0.88 L 63.25 4.29 Z M 11.33 14.74 L 11.77 17.93 A 62.282 62.282 0 0 1 8.542 18.585 Q 5.164 19.185 0.66 19.69 L 0.22 16.39 A 173.291 173.291 0 0 0 4.358 15.907 Q 7.984 15.437 10.527 14.913 A 44.926 44.926 0 0 0 11.33 14.74 Z M 10.67 12.98 L 0.77 12.98 L 0.77 9.79 L 10.67 9.79 L 10.67 12.98 Z M 10.34 4.29 L 1.43 4.29 L 1.43 1.1 L 10.34 1.1 L 10.34 4.29 Z M 27.72 16.06 L 27.72 16.83 L 36.74 16.83 L 36.74 16.06 L 27.72 16.06 Z M 27.72 13.75 L 36.74 13.75 L 36.74 12.98 L 27.72 12.98 L 27.72 13.75 Z M 36.52 5.368 L 36.52 6.16 Q 36.52 6.358 36.564 6.402 Q 36.6 6.438 36.766 6.459 A 2.339 2.339 0 0 0 36.85 6.468 Q 37.013 6.488 37.44 6.49 A 19.846 19.846 0 0 0 37.51 6.49 Q 37.928 6.49 38.17 6.468 Q 38.398 6.447 38.47 6.251 A 0.445 0.445 0 0 0 38.478 6.226 Q 38.544 6.006 38.588 4.818 Q 37.224 5.214 36.52 5.368 Z" />
  </g>
</svg>