<svg xmlns="http://www.w3.org/2000/svg" width="88" height="41">
    <defs>
        <linearGradient id="c" cx="10%" cy="15%" gradientTransform="rotate(15)">
            <stop offset="14%" stop-color="#ff551c"/>
            <stop offset="28%" stop-color="#ffdb07"/>
            <stop offset="42%" stop-color="#7dff65"/>
            <stop offset="57%" stop-color="#65cac0"/>
            <stop offset="71%" stop-color="#489afd"/>
            <stop offset="85%" stop-color="#b55ce1"/>
            <stop offset="99%" stop-color="#71a0ff"/>
        </linearGradient>
        <linearGradient id="b" x1="0%" y1="0%" x2="0%" y2="100%">
            <stop offset="10%" stop-color="#c75d36"/>
            <stop offset="95%" stop-color="#670000"/>
        </linearGradient>
        <linearGradient id="e" x1="0%" y1="0%" x2="0%" y2="50%" spreadMethod="reflect">
            <stop offset="40%" stop-color="#fff"/>
            <stop offset="90%" stop-color="#ffb8f9"/>
            <stop offset="100%" stop-color="#d8d6ff"/>
        </linearGradient>
        <linearGradient id="f">
            <stop offset="10%" stop-color="#1600f4"/>
            <stop offset="95%" stop-color="#490FEC"/>
        </linearGradient>
        <radialGradient id="a">
            <stop offset="0%" stop-color="#FFF" stop-opacity=".7"/>
            <stop offset="100%" stop-color="#FFF" stop-opacity="0"/>
        </radialGradient>
        <pattern id="d" x="0" y="0" width="20" height="20" patternUnits="userSpaceOnUse">
            <rect x="3" y="3" width="4" height="4" fill="url(#a)"/>
            <rect x="13" y="13" width="4" height="4" fill="url(#a)"/>
        </pattern>
        <filter id="g" height="150%">
            <feDropShadow dx="0" dy="3" flood-color="#221C9A" flood-opacity=".85" stdDeviation="0"/>
        </filter>
    </defs>
    <polygon points="2,21 14,3 74,3 86,21 74,39 14,39" stroke="url(#b)" fill="url(#c)"/>
    <polygon points="2,21 14,3 74,3 86,21 74,39 14,39" fill="url(#d)"/>
    <g fill="url(#e)" stroke-linecap="round" fill-rule="evenodd" stroke="url(#f)" stroke-width="4" paint-order="stroke" filter="url(#g)">
        <path d="M38.72 10.65h4.07v3.08h-4.07v1.364a78.428 78.428 0 002.874-.491 90.71 90.71 0 001.086-.213l.286 2.86.506.044q-.017-.117-.021-.336a8.109 8.109 0 01-.001-.148V9.44h4.07v1.694q2.09-.616 4.62-1.694l1.32 2.97q-1.606.682-2.904 1.1l2.684.33a63.887 63.887 0 01-.045.654q-.052.706-.108 1.205a15.641 15.641 0 01-.034.286 12.377 12.377 0 01-.097.626q-.052.284-.114.532a6.84 6.84 0 01-.042.162q-.106.386-.306.611a.921.921 0 01-.2.17q-.352.22-.748.308a3.757 3.757 0 01-.252.046q-.361.054-.914.086a151.309 151.309 0 01-.635.019q-.839.024-1.298.025a18.506 18.506 0 01-.047 0q-.773 0-1.923-.042a95.813 95.813 0 01-.057-.002q-.77-.022-1.518-.11-.066.286-.198.814h7.106v10.01h-4.07v-.66h-9.02v.66h-4.07V19.23h5.786q.037-.112.202-.91a118.101 118.101 0 00.062-.3q-4.29.77-7.92.99l-.33-3.19q1.1-.066 2.2-.198V9.44h4.07v1.21zm-12.54-.22l2.75-1.32q1.122 1.562 2.2 3.85l-2.288 1.1h2.398v3.19h-4.906q.195 2.036.489 3.644a27.898 27.898 0 00.149.756 32.154 32.154 0 00.196.87q.209.868.409 1.432a5.737 5.737 0 00.154.393q.292.663.534.793a.243.243 0 00.115.032.154.154 0 00.106-.112q.23-.486.444-3.078l2.86 1.43q-.154 2.97-1.078 4.455a4.318 4.318 0 01-.545.714q-.37.385-.788.577a2.097 2.097 0 01-.889.194 4.09 4.09 0 01-1.118-.149 3.651 3.651 0 01-.499-.181 3.205 3.205 0 01-.661-.405q-.272-.212-.538-.498a6.245 6.245 0 01-.242-.274 6.684 6.684 0 01-.606-.869q-.261-.44-.495-.962a12.038 12.038 0 01-.153-.358 13.254 13.254 0 01-.392-1.104q-.178-.577-.342-1.252a29.704 29.704 0 01-.245-1.109q-.369-1.824-.599-4.161a61.82 61.82 0 01-.072-.778H11v-3.19h11.33q-.11-2.574-.11-5.06h3.74q0 2.794.132 5.06h2.178a38.868 38.868 0 00-.92-1.734q-.478-.847-.952-1.569a22.277 22.277 0 00-.218-.327zm42.68 10.56l3.52-1.32a73.35 73.35 0 012.938 7.451 66.288 66.288 0 01.362 1.129l-3.63 1.32a59.195 59.195 0 00-.217-.654l-.208-.611a112.585 112.585 0 00-.235-.671q-5.082.682-10.34 1.056l-.33-3.41 1.716-.132q1.1-3.19 2.134-6.688h-3.74v-3.41h14.41v3.41h-6.27a143.854 143.854 0 01-.65 2.153q-.588 1.898-1.33 4.139a56.556 56.556 0 00.639-.052q1.044-.091 2.595-.256-.378-.983-.881-2.247a353.96 353.96 0 00-.483-1.207zm-8.69-5.852V29.35h-3.85v-8.492a14.959 14.959 0 01-.441.641q-.408.56-.769.921l-.88-4.84q2.574-3.256 3.63-8.58l3.74.66a28.07 28.07 0 01-.68 3.217 22.702 22.702 0 01-.75 2.261zm14.08-1.848H62.26V9.88h11.99v3.41zM22.33 23.74l.44 3.19a62.282 62.282 0 01-3.228.655q-3.378.6-7.882 1.105l-.44-3.3a173.291 173.291 0 004.138-.483q3.626-.47 6.169-.994a44.926 44.926 0 00.803-.173zm-.66-1.76h-9.9v-3.19h9.9v3.19zm-.33-8.69h-8.91V10.1h8.91v3.19zm17.38 11.77v.77h9.02v-.77h-9.02zm0-2.31h9.02v-.77h-9.02v.77zm8.8-8.382v.792q0 .198.044.242.036.036.202.057a2.339 2.339 0 00.084.009q.163.02.59.022a19.846 19.846 0 00.07 0q.418 0 .66-.022.228-.021.3-.217a.445.445 0 00.008-.025q.066-.22.11-1.408-1.364.396-2.068.55z"/>
    </g>
</svg>
