<svg xmlns="http://www.w3.org/2000/svg" viewBox="0 0 88 41" width="88" height="41">
  <defs>
    <radialGradient id="patternGradient">
      <stop offset="0%" stop-color="#FFFFFF" stop-opacity="0.7" />
      <stop offset="100%" stop-color="#FFFFFF" stop-opacity="0" />
    </radialGradient>
    <pattern id="fillPattern" x="0" y="0" width="20" height="20" patternUnits="userSpaceOnUse">
      <rect x="3" y="3" width="4" height="4" fill="url(#patternGradient)" />
      <rect x="13" y="13" width="4" height="4" fill="url(#patternGradient)" />
    </pattern>
    <linearGradient id="fillGradient" cx="10%" cy="15%" gradientTransform="rotate(15)">
      <stop offset="14%" stop-color="#ff551c" />
      <stop offset="28%" stop-color="#ffdb07" />
      <stop offset="42%" stop-color="#7dff65" />
      <stop offset="57%" stop-color="#65cac0" />
      <stop offset="71%" stop-color="#489afd" />
      <stop offset="85%" stop-color="#b55ce1" />
      <stop offset="99%" stop-color="#71a0ff" />
    </linearGradient>
    <linearGradient id="strokeGradient" x1="0%" y1="0%" x2="0%" y2="100%">
      <stop offset="10%" stop-color="#c75d36" />
      <stop offset="95%" stop-color="#670000" />
    </linearGradient>
    <linearGradient id="textGradient" x1="0%" y1="0%" x2="0%" y2="50%" spreadMethod="reflect">
     <stop offset="40%" stop-color="#ffffff" />
     <stop offset="90%" stop-color="#ffb8f9" />
     <stop offset="100%" stop-color="#d8d6ff" />
    </linearGradient>
    <linearGradient id="textStrokeGradient">
     <stop offset="10%" stop-color="#1600f4" />
     <stop offset="95%" stop-color="#490FEC" />
    </linearGradient>
    <filter id="textShadow" height="150%">
      <feDropShadow dx="0" dy="3" flood-color="#221C9A" flood-opacity="0.85" stdDeviation="0" />
    </filter>
  </defs>
  <polygon points="2,21 14,3 74,3 86,21 74,39 14,39" stroke="url(#strokeGradient)" fill="url(#fillGradient)" />
  <polygon points="2,21 14,3 74,3 86,21 74,39 14,39" stroke-width="0" fill="url(#fillPattern)"
    transform="scale(0.9 0.88)" transform-origin="center" />
  <g id="svgGroup" fill="url(#textGradient)" stroke-linecap="round" fill-rule="evenodd"
    stroke="url(#textStrokeGradient)" stroke-width="4" paint-order="stroke" filter="url(#textShadow)">
    <path transform="translate(11, 9)"
      d="M 28.27 2.09 L 32.34 2.09 L 32.34 5.17 L 28.27 5.17 L 28.27 6.534 A 78.428 78.428 0 0 0 31.144 6.043 A 90.71 90.71 0 0 0 32.23 5.83 L 32.516 8.69 L 33.022 8.734 Q 33.005 8.617 33.001 8.398 A 8.109 8.109 0 0 1 33 8.25 L 33 0.88 L 37.07 0.88 L 37.07 2.574 Q 39.16 1.958 41.69 0.88 L 43.01 3.85 Q 41.404 4.532 40.106 4.95 L 42.79 5.28 A 63.887 63.887 0 0 1 42.745 5.934 Q 42.693 6.64 42.637 7.139 A 15.641 15.641 0 0 1 42.603 7.425 A 12.377 12.377 0 0 1 42.506 8.051 Q 42.454 8.335 42.392 8.583 A 6.84 6.84 0 0 1 42.35 8.745 Q 42.244 9.131 42.044 9.356 A 0.921 0.921 0 0 1 41.844 9.526 Q 41.492 9.746 41.096 9.834 A 3.757 3.757 0 0 1 40.844 9.88 Q 40.483 9.934 39.93 9.966 A 151.309 151.309 0 0 1 39.295 9.985 Q 38.456 10.009 37.997 10.01 A 18.506 18.506 0 0 1 37.95 10.01 Q 37.177 10.01 36.027 9.968 A 95.813 95.813 0 0 1 35.97 9.966 Q 35.2 9.944 34.452 9.856 Q 34.386 10.142 34.254 10.67 L 41.36 10.67 L 41.36 20.68 L 37.29 20.68 L 37.29 20.02 L 28.27 20.02 L 28.27 20.68 L 24.2 20.68 L 24.2 10.67 L 29.986 10.67 Q 30.023 10.558 30.188 9.76 A 118.101 118.101 0 0 0 30.25 9.46 Q 25.96 10.23 22.33 10.45 L 22 7.26 Q 23.1 7.194 24.2 7.062 L 24.2 0.88 L 28.27 0.88 L 28.27 2.09 Z M 3.586 9.57 L 0.44 9.57 L 0.44 6.49 L 7.172 6.49 Q 7.369 6.249 7.719 5.725 A 35.467 35.467 0 0 0 7.722 5.72 Q 3.889 5.889 2.013 5.937 A 90.676 90.676 0 0 1 1.87 5.94 L 1.65 2.86 A 65.713 65.713 0 0 1 1.921 2.848 Q 2.23 2.836 2.662 2.82 A 293.57 293.57 0 0 1 3.08 2.805 A 91.131 91.131 0 0 1 3.523 2.791 Q 4.142 2.772 4.488 2.772 Q 5.192 1.474 5.83 0 L 9.68 0.66 Q 9.208 1.637 8.892 2.253 A 26.431 26.431 0 0 1 8.712 2.596 Q 11.11 2.486 13.486 2.332 Q 13.112 1.826 12.54 1.1 L 16.06 0 Q 18.392 2.772 20.24 5.72 L 17.93 6.49 L 20.9 6.49 L 20.9 9.57 L 17.776 9.57 Q 19.448 10.516 21.34 11.11 L 20.57 14.41 Q 18.304 13.574 16.28 12.43 L 17.38 14.63 A 27.2 27.2 0 0 1 12.797 16.266 Q 10.488 16.879 7.785 17.247 A 56.458 56.458 0 0 1 4.4 17.6 L 3.3 14.52 A 65.234 65.234 0 0 0 7.862 14.059 Q 12.545 13.408 15.752 12.122 A 18.057 18.057 0 0 1 13.451 10.517 A 16.395 16.395 0 0 1 13.112 10.23 L 14.08 12.1 A 27.086 27.086 0 0 1 10.477 13.089 Q 8.631 13.471 6.503 13.692 A 52.888 52.888 0 0 1 4.51 13.86 L 4.18 12.98 Q 2.706 13.728 0.77 14.41 L 0 11.11 Q 2.024 10.472 3.586 9.57 Z M 58.41 12.43 L 61.93 11.11 A 73.35 73.35 0 0 1 64.868 18.561 A 66.288 66.288 0 0 1 65.23 19.69 L 61.6 21.01 A 59.195 59.195 0 0 0 61.383 20.356 Q 61.285 20.066 61.175 19.745 A 112.585 112.585 0 0 0 60.94 19.074 Q 55.858 19.756 50.6 20.13 L 50.27 16.72 L 51.986 16.588 Q 53.086 13.398 54.12 9.9 L 50.38 9.9 L 50.38 6.49 L 64.79 6.49 L 64.79 9.9 L 58.52 9.9 A 143.854 143.854 0 0 1 57.87 12.053 Q 57.283 13.951 56.54 16.192 A 56.556 56.556 0 0 0 57.179 16.14 Q 58.223 16.049 59.774 15.884 Q 59.396 14.901 58.893 13.637 A 353.96 353.96 0 0 0 58.41 12.43 Z M 49.72 6.578 L 49.72 20.79 L 45.87 20.79 L 45.87 12.298 A 14.959 14.959 0 0 1 45.429 12.939 Q 45.021 13.499 44.66 13.86 L 43.78 9.02 Q 46.354 5.764 47.41 0.44 L 51.15 1.1 A 28.07 28.07 0 0 1 50.47 4.317 A 22.702 22.702 0 0 1 49.72 6.578 Z M 18.59 14.85 L 20.02 17.6 A 31.33 31.33 0 0 1 14.267 19.747 Q 11.406 20.525 8.051 20.968 A 63.896 63.896 0 0 1 4.4 21.34 L 3.3 18.26 A 64.297 64.297 0 0 0 9.355 17.549 Q 12.381 17.038 14.925 16.248 A 29.414 29.414 0 0 0 18.59 14.85 Z M 63.8 4.73 L 51.81 4.73 L 51.81 1.32 L 63.8 1.32 L 63.8 4.73 Z M 28.27 16.5 L 28.27 17.27 L 37.29 17.27 L 37.29 16.5 L 28.27 16.5 Z M 28.27 14.19 L 37.29 14.19 L 37.29 13.42 L 28.27 13.42 L 28.27 14.19 Z M 11.66 6.49 L 16.324 6.49 A 8.37 8.37 0 0 0 16.238 6.346 Q 16.14 6.186 16.004 5.976 A 30.042 30.042 0 0 0 15.873 5.775 A 86.673 86.673 0 0 1 15.77 5.618 Q 15.564 5.303 15.51 5.214 A 1.733 1.733 0 0 1 15.454 5.221 Q 15.212 5.247 14.21 5.324 A 306.286 306.286 0 0 1 14.069 5.335 A 408.326 408.326 0 0 1 13.465 5.381 Q 12.617 5.445 12.122 5.478 A 21.272 21.272 0 0 1 11.9 5.985 Q 11.777 6.256 11.66 6.49 Z M 12.386 9.57 L 9.218 9.57 Q 8.713 10.042 8.375 10.32 A 6.782 6.782 0 0 1 8.184 10.472 Q 10.714 10.12 12.474 9.658 L 12.386 9.57 Z M 37.07 5.808 L 37.07 6.6 Q 37.07 6.798 37.114 6.842 Q 37.15 6.878 37.316 6.899 A 2.339 2.339 0 0 0 37.4 6.908 Q 37.563 6.928 37.99 6.93 A 19.846 19.846 0 0 0 38.06 6.93 Q 38.478 6.93 38.72 6.908 Q 38.948 6.887 39.02 6.691 A 0.445 0.445 0 0 0 39.028 6.666 Q 39.094 6.446 39.138 5.258 Q 37.774 5.654 37.07 5.808 Z" />
  </g>
</svg>