<svg xmlns="http://www.w3.org/2000/svg" viewBox="0 0 88 41" width="88" height="41">
  <defs>
    <radialGradient id="patternGradient">
      <stop offset="0%" stop-color="#FFFFFF" stop-opacity="0.7" />
      <stop offset="100%" stop-color="#FFFFFF" stop-opacity="0" />
    </radialGradient>
    <pattern id="fillPattern" x="0" y="0" width="20" height="20" patternUnits="userSpaceOnUse">
      <rect x="3" y="3" width="4" height="4" fill="url(#patternGradient)" />
      <rect x="13" y="13" width="4" height="4" fill="url(#patternGradient)" />
    </pattern>
    <linearGradient id="fillGradient" cx="10%" cy="15%" gradientTransform="rotate(15)">
      <stop offset="14%" stop-color="#ff551c" />
      <stop offset="28%" stop-color="#ffdb07" />
      <stop offset="42%" stop-color="#7dff65" />
      <stop offset="57%" stop-color="#65cac0" />
      <stop offset="71%" stop-color="#489afd" />
      <stop offset="85%" stop-color="#b55ce1" />
      <stop offset="99%" stop-color="#71a0ff" />
    </linearGradient>
    <linearGradient id="strokeGradient" x1="0%" y1="0%" x2="0%" y2="100%">
      <stop offset="10%" stop-color="#c75d36" />
      <stop offset="95%" stop-color="#670000" />
    </linearGradient>
    <linearGradient id="textGradient" x1="0%" y1="0%" x2="0%" y2="50%" spreadMethod="reflect">
     <stop offset="40%" stop-color="#ffffff" />
     <stop offset="90%" stop-color="#ffb8f9" />
     <stop offset="100%" stop-color="#d8d6ff" />
    </linearGradient>
    <linearGradient id="textStrokeGradient">
     <stop offset="10%" stop-color="#1600f4" />
     <stop offset="95%" stop-color="#490FEC" />
    </linearGradient>
    <filter id="textShadow" height="150%">
      <feDropShadow dx="0" dy="3" flood-color="#221C9A" flood-opacity="0.85" stdDeviation="0" />
    </filter>
  </defs>
  <polygon points="2,21 14,3 74,3 86,21 74,39 14,39" stroke="url(#strokeGradient)" fill="url(#fillGradient)" />
  <polygon points="2,21 14,3 74,3 86,21 74,39 14,39" stroke-width="0" fill="url(#fillPattern)"
    transform="scale(0.9 0.88)" transform-origin="center" />
  <g id="svgGroup" fill="url(#textGradient)" stroke-linecap="round" fill-rule="evenodd"
    stroke="url(#textStrokeGradient)" stroke-width="4" paint-order="stroke" filter="url(#textShadow)">
    <path transform="translate(11, 9)"
      d="M 20.35 7.59 L 20.35 10.89 L 16.39 10.89 L 16.39 11.66 L 20.68 11.66 L 20.68 14.63 L 16.39 14.63 L 16.39 15.4 L 21.12 15.4 L 21.12 18.37 L 16.39 18.37 L 16.39 20.46 L 12.32 20.46 L 12.32 18.37 L 10.736 18.37 Q 10.912 18.898 11 19.14 L 7.7 20.46 Q 7.436 19.668 7.282 19.25 A 53.51 53.51 0 0 1 0.869 20.19 A 48.915 48.915 0 0 1 0.22 20.24 L 0 16.94 Q 0.264 16.918 0.836 16.874 Q 1.276 15.312 1.672 13.53 L 0 13.53 L 0 10.34 L 0.88 10.34 L 0.88 0.44 L 9.24 0.44 L 9.24 3.74 L 4.84 3.74 L 4.84 4.4 L 8.8 4.4 L 8.8 6.71 L 4.84 6.71 L 4.84 7.37 L 8.8 7.37 L 8.8 9.68 L 4.84 9.68 L 4.84 10.34 L 9.68 10.34 L 9.68 8.36 L 12.32 8.36 L 12.32 7.59 L 9.24 7.59 L 9.24 4.62 L 12.32 4.62 L 12.32 3.85 L 9.68 3.85 L 9.68 1.21 L 12.32 1.21 L 12.32 0 L 16.17 0 L 16.17 1.21 L 20.35 1.21 L 20.35 4.62 L 21.12 4.62 L 21.12 7.59 L 20.35 7.59 Z M 28.16 1.65 L 32.23 1.65 L 32.23 4.73 L 28.16 4.73 L 28.16 6.094 A 78.428 78.428 0 0 0 31.034 5.603 A 90.71 90.71 0 0 0 32.12 5.39 L 32.406 8.25 L 32.912 8.294 Q 32.895 8.177 32.891 7.958 A 8.109 8.109 0 0 1 32.89 7.81 L 32.89 0.44 L 36.96 0.44 L 36.96 2.134 Q 39.05 1.518 41.58 0.44 L 42.9 3.41 Q 41.294 4.092 39.996 4.51 L 42.68 4.84 A 63.887 63.887 0 0 1 42.635 5.494 Q 42.583 6.2 42.527 6.699 A 15.641 15.641 0 0 1 42.493 6.985 A 12.377 12.377 0 0 1 42.396 7.611 Q 42.344 7.895 42.282 8.143 A 6.84 6.84 0 0 1 42.24 8.305 Q 42.134 8.691 41.934 8.916 A 0.921 0.921 0 0 1 41.734 9.086 Q 41.382 9.306 40.986 9.394 A 3.757 3.757 0 0 1 40.734 9.44 Q 40.373 9.494 39.82 9.526 A 151.309 151.309 0 0 1 39.185 9.545 Q 38.346 9.569 37.887 9.57 A 18.506 18.506 0 0 1 37.84 9.57 Q 37.067 9.57 35.917 9.528 A 95.813 95.813 0 0 1 35.86 9.526 Q 35.09 9.504 34.342 9.416 Q 34.276 9.702 34.144 10.23 L 41.25 10.23 L 41.25 20.24 L 37.18 20.24 L 37.18 19.58 L 28.16 19.58 L 28.16 20.24 L 24.09 20.24 L 24.09 10.23 L 29.876 10.23 Q 29.913 10.118 30.078 9.32 A 118.101 118.101 0 0 0 30.14 9.02 Q 25.85 9.79 22.22 10.01 L 21.89 6.82 Q 22.99 6.754 24.09 6.622 L 24.09 0.44 L 28.16 0.44 L 28.16 1.65 Z M 58.3 11.99 L 61.82 10.67 A 73.35 73.35 0 0 1 64.758 18.121 A 66.288 66.288 0 0 1 65.12 19.25 L 61.49 20.57 A 59.195 59.195 0 0 0 61.273 19.916 Q 61.175 19.626 61.065 19.305 A 112.585 112.585 0 0 0 60.83 18.634 Q 55.748 19.316 50.49 19.69 L 50.16 16.28 L 51.876 16.148 Q 52.976 12.958 54.01 9.46 L 50.27 9.46 L 50.27 6.05 L 64.68 6.05 L 64.68 9.46 L 58.41 9.46 A 143.854 143.854 0 0 1 57.76 11.613 Q 57.173 13.511 56.43 15.752 A 56.556 56.556 0 0 0 57.069 15.7 Q 58.113 15.609 59.664 15.444 Q 59.286 14.461 58.783 13.197 A 353.96 353.96 0 0 0 58.3 11.99 Z M 49.61 6.138 L 49.61 20.35 L 45.76 20.35 L 45.76 11.858 A 14.959 14.959 0 0 1 45.319 12.499 Q 44.911 13.059 44.55 13.42 L 43.67 8.58 Q 46.244 5.324 47.3 0 L 51.04 0.66 A 28.07 28.07 0 0 1 50.36 3.877 A 22.702 22.702 0 0 1 49.61 6.138 Z M 63.69 4.29 L 51.7 4.29 L 51.7 0.88 L 63.69 0.88 L 63.69 4.29 Z M 28.16 16.06 L 28.16 16.83 L 37.18 16.83 L 37.18 16.06 L 28.16 16.06 Z M 28.16 13.75 L 37.18 13.75 L 37.18 12.98 L 28.16 12.98 L 28.16 13.75 Z M 5.39 14.63 L 8.14 13.53 L 5.478 13.53 Q 5.327 14.377 5.092 15.411 A 64.187 64.187 0 0 1 4.862 16.39 Q 5.06 16.346 5.467 16.28 Q 5.867 16.215 6.065 16.193 A 3.999 3.999 0 0 1 6.072 16.192 Q 5.881 15.705 5.426 14.708 A 84.512 84.512 0 0 0 5.39 14.63 Z M 9.614 15.4 L 12.32 15.4 L 12.32 14.63 L 9.46 14.63 L 9.46 13.53 L 8.8 13.53 Q 9.284 14.608 9.614 15.4 Z M 36.96 5.368 L 36.96 6.16 Q 36.96 6.358 37.004 6.402 Q 37.04 6.438 37.206 6.459 A 2.339 2.339 0 0 0 37.29 6.468 Q 37.453 6.488 37.88 6.49 A 19.846 19.846 0 0 0 37.95 6.49 Q 38.368 6.49 38.61 6.468 Q 38.838 6.447 38.91 6.251 A 0.445 0.445 0 0 0 38.918 6.226 Q 38.984 6.006 39.028 4.818 Q 37.664 5.214 36.96 5.368 Z M 9.79 10.89 L 9.79 11.66 L 12.32 11.66 L 12.32 10.89 L 9.79 10.89 Z M 15.62 7.59 L 15.62 8.36 L 16.83 8.36 L 16.83 7.59 L 15.62 7.59 Z M 16.83 3.85 L 15.62 3.85 L 15.62 4.62 L 16.83 4.62 L 16.83 3.85 Z" />
  </g>
</svg>