<svg xmlns="http://www.w3.org/2000/svg" width="88" height="41">
  <path stroke="#8FE980" fill="#FFF" d="M2 21 14 3h60l12 18-12 18H14z"/>
  <path d="m44.4 16.8 1.2-1.2h-.8V13h8.5v6.7q0 .616-.037.97a2.889 2.889 0 0 1-.023.17.864.864 0 0 1-.245.469 1.232 1.232 0 0 1-.165.141q-.345.247-.866.299a2.62 2.62 0 0 1-.014.001q-.52.049-1.61.05a49.549 49.549 0 0 1-.04 0q-.732 0-2.279-.037a279.807 279.807 0 0 1-.121-.003l-.06-.86a.296.296 0 0 0-.033.012q-.212.08-1.787.728a102.644 102.644 0 0 1-.056.242q-.075.321-.119.5a13.403 13.403 0 0 1-.005.018h6.46v8.7h-3.7v-.6h-8.2v.6h-3.7v-8.7h5.26a6.688 6.688 0 0 0 .022-.091q.032-.135.084-.374a72.523 72.523 0 0 0 .034-.155 5.17 5.17 0 0 1-.164.009q-.225.008-.595.01a43.855 43.855 0 0 1-.241.001q-.732 0-2.279-.037a279.807 279.807 0 0 1-.121-.003l-.06-.86q-1.22.56-2.74 1.1l-.8-2.6q1.4-.48 2.56-.94-1.087-.766-1.952-1.332a41.814 41.814 0 0 0-.508-.328l1.2-1.2h-.8V13h8.5v6.7q0 .4-.04.88l.62.06-.38-1.24q1.4-.48 2.56-.94-1.087-.766-1.952-1.332a41.814 41.814 0 0 0-.508-.328zm-24.42 8.9H16.8V13.1H32v12.6h-3.5v1.9q0 .344.043.468a.158.158 0 0 0 .027.052.13.13 0 0 0 .051.032q.121.048.479.048h.2q.56 0 .67-.26a.728.728 0 0 0 .038-.14q.076-.397.092-1.6l3.5.4-.09 1.44q-.03.48-.14 1.06a19.807 19.807 0 0 1-.052.264q-.075.37-.128.536a.837.837 0 0 1-.07.156q-.091.161-.27.354a2.216 2.216 0 0 1-.146.144q-.152.135-.282.188a.517.517 0 0 1-.052.018q-.21.06-.73.15t-.95.09H28.2q-1.627 0-2.299-.138a2.865 2.865 0 0 1-.011-.002q-.67-.14-.88-.47a.963.963 0 0 1-.102-.228q-.077-.244-.099-.626a5.772 5.772 0 0 1-.009-.336v-3.5h-.98q-.52 2.32-2.44 3.7a8.651 8.651 0 0 1-1.794.971q-.901.367-1.997.626A19.589 19.589 0 0 1 16 31.3l-1-3.1a18.369 18.369 0 0 0 1.267-.2q1.333-.263 2.153-.68a3.857 3.857 0 0 0 .773-.509 2.693 2.693 0 0 0 .787-1.111zM64 22.8l3.2 1.2a15.963 15.963 0 0 1-.898 2.145q-.559 1.092-1.246 1.934a8.711 8.711 0 0 1-.556.621q-1.68 1.7-3.3 1.7a3.044 3.044 0 0 1-1.721-.558q-.884-.595-1.699-1.822a9.272 9.272 0 0 1-1.367-3.437A12.749 12.749 0 0 1 56.2 22.2q0-3.86 1.1-7.2l3.7.4q-.411 1.382-.682 3.164a33.545 33.545 0 0 0-.038.256 31.911 31.911 0 0 0-.171 1.385Q60 21.3 60 22.2q0 .94.15 1.79a8.777 8.777 0 0 0 .125.595q.07.281.153.519a4.11 4.11 0 0 0 .112.286 6.14 6.14 0 0 0 .18.378q.153.294.31.502.196.258.373.314a.32.32 0 0 0 .097.016.493.493 0 0 0 .233-.069q.35-.191.857-.911a8.019 8.019 0 0 0 .434-.696q.449-.802.91-1.958A26.588 26.588 0 0 0 64 22.8zm2.8-7 3.5-1a28.85 28.85 0 0 1 2.32 7.972A37.454 37.454 0 0 1 73 28.2h-3.8q0-6.6-2.4-12.4zM40.4 27.4v.7h8.2v-.7zm0-1.9h8.2v-.7h-8.2zm-12.1-3.3h-7.8v.9h7.8zm0-3.1h-7.8v.9h7.8zM20.5 16v.9h7.8V16zm19.4.7-1.3 1.38q.168-.077.46-.206a144.896 144.896 0 0 1 .19-.084q.43-.19.65-.29l.44 1.8a.714.714 0 0 0 .071-.003q.118-.012.149-.067.04-.07.04-.33v-3.3h-2.34a47.498 47.498 0 0 1 .777.506q.352.235.661.451a27.079 27.079 0 0 1 .202.143zm9.2 0-1.3 1.38q.168-.077.46-.206a144.896 144.896 0 0 1 .19-.084q.43-.19.65-.29l.44 1.8a.714.714 0 0 0 .071-.003q.118-.012.149-.067.04-.07.04-.33v-3.3h-2.34a47.498 47.498 0 0 1 .777.506q.352.235.661.451a27.079 27.079 0 0 1 .202.143z" fill="#C6C6D9" stroke-linecap="round" fill-rule="evenodd" stroke="#C6C6D9" stroke-width="4" paint-order="stroke" fill-opacity=".85" stroke-opacity=".85"/>
  <path d="m44.4 13.8 1.2-1.2h-.8V10h8.5v6.7q0 .616-.037.97a2.889 2.889 0 0 1-.023.17.864.864 0 0 1-.245.469 1.232 1.232 0 0 1-.165.141q-.345.247-.866.299a2.62 2.62 0 0 1-.014.001q-.52.049-1.61.05a49.549 49.549 0 0 1-.04 0q-.732 0-2.279-.037a279.807 279.807 0 0 1-.121-.003l-.06-.86a.296.296 0 0 0-.033.012q-.212.08-1.787.728a102.644 102.644 0 0 1-.056.242q-.075.321-.119.5a13.403 13.403 0 0 1-.005.018h6.46v8.7h-3.7v-.6h-8.2v.6h-3.7v-8.7h5.26a6.688 6.688 0 0 0 .022-.091q.032-.135.084-.374a72.523 72.523 0 0 0 .034-.155 5.17 5.17 0 0 1-.164.009q-.225.008-.595.01a43.855 43.855 0 0 1-.241.001q-.732 0-2.279-.037a279.807 279.807 0 0 1-.121-.003l-.06-.86q-1.22.56-2.74 1.1l-.8-2.6q1.4-.48 2.56-.94-1.087-.766-1.952-1.332a41.814 41.814 0 0 0-.508-.328l1.2-1.2h-.8V10h8.5v6.7q0 .4-.04.88l.62.06-.38-1.24q1.4-.48 2.56-.94-1.087-.766-1.952-1.332a41.814 41.814 0 0 0-.508-.328zm-24.42 8.9H16.8V10.1H32v12.6h-3.5v1.9q0 .344.043.468a.158.158 0 0 0 .027.052.13.13 0 0 0 .051.032q.121.048.479.048h.2q.56 0 .67-.26a.728.728 0 0 0 .038-.14q.076-.397.092-1.6l3.5.4-.09 1.44q-.03.48-.14 1.06a19.807 19.807 0 0 1-.052.264q-.075.37-.128.536a.837.837 0 0 1-.07.156q-.091.161-.27.354a2.216 2.216 0 0 1-.146.144q-.152.135-.282.188a.517.517 0 0 1-.052.018q-.21.06-.73.15t-.95.09H28.2q-1.627 0-2.299-.138a2.865 2.865 0 0 1-.011-.002q-.67-.14-.88-.47a.963.963 0 0 1-.102-.228q-.077-.244-.099-.626a5.772 5.772 0 0 1-.009-.336v-3.5h-.98q-.52 2.32-2.44 3.7a8.651 8.651 0 0 1-1.794.971q-.901.367-1.997.626A19.589 19.589 0 0 1 16 28.3l-1-3.1a18.369 18.369 0 0 0 1.267-.2q1.333-.263 2.153-.68a3.857 3.857 0 0 0 .773-.509 2.693 2.693 0 0 0 .787-1.111zM64 19.8l3.2 1.2a15.963 15.963 0 0 1-.898 2.145q-.559 1.092-1.246 1.934a8.711 8.711 0 0 1-.556.621q-1.68 1.7-3.3 1.7a3.044 3.044 0 0 1-1.721-.558q-.884-.595-1.699-1.822a9.272 9.272 0 0 1-1.367-3.437A12.749 12.749 0 0 1 56.2 19.2q0-3.86 1.1-7.2l3.7.4q-.411 1.382-.682 3.164a33.545 33.545 0 0 0-.038.256 31.911 31.911 0 0 0-.171 1.385Q60 18.3 60 19.2q0 .94.15 1.79a8.777 8.777 0 0 0 .125.595q.07.281.153.519a4.11 4.11 0 0 0 .112.286 6.14 6.14 0 0 0 .18.378q.153.294.31.502.196.258.373.314a.32.32 0 0 0 .097.016.493.493 0 0 0 .233-.069q.35-.191.857-.911a8.019 8.019 0 0 0 .434-.696q.449-.802.91-1.958A26.588 26.588 0 0 0 64 19.8zm2.8-7 3.5-1a28.85 28.85 0 0 1 2.32 7.972A37.454 37.454 0 0 1 73 25.2h-3.8q0-6.6-2.4-12.4zM40.4 24.4v.7h8.2v-.7zm0-1.9h8.2v-.7h-8.2zm-12.1-3.3h-7.8v.9h7.8zm0-3.1h-7.8v.9h7.8zM20.5 13v.9h7.8V13zm19.4.7-1.3 1.38q.168-.077.46-.206a144.896 144.896 0 0 1 .19-.084q.43-.19.65-.29l.44 1.8a.714.714 0 0 0 .071-.003q.118-.012.149-.067.04-.07.04-.33v-3.3h-2.34a47.498 47.498 0 0 1 .777.506q.352.235.661.451a27.079 27.079 0 0 1 .202.143zm9.2 0-1.3 1.38q.168-.077.46-.206a144.896 144.896 0 0 1 .19-.084q.43-.19.65-.29l.44 1.8a.714.714 0 0 0 .071-.003q.118-.012.149-.067.04-.07.04-.33v-3.3h-2.34a47.498 47.498 0 0 1 .777.506q.352.235.661.451a27.079 27.079 0 0 1 .202.143z" fill="#56D340" stroke-linecap="round" fill-rule="evenodd" stroke="#FFF" stroke-width="4" paint-order="stroke"/>
</svg>
