<svg xmlns="http://www.w3.org/2000/svg" viewBox="0 0 88 41" width="88" height="41">
  <defs>
    <filter id="textShadow" height="150%">
      <feDropShadow dx="0" dy="3" flood-color="#C6C6D9" flood-opacity="0.85" stdDeviation="0" />       
    </filter>
  </defs>
  <polygon points="2,21 14,3 74,3 86,21 74,39 14,39" stroke="#8FE980" fill="#FFFFFF"/>
  <g id="svgGroup" fill="#56D340" stroke-linecap="round" fill-rule="evenodd" stroke="#FFFFFF" stroke-width="4" paint-order="stroke" filter="url(#textShadow)">
    <path transform="translate(15, 10)" d="M 29.4 3.8 L 30.6 2.6 L 29.8 2.6 L 29.8 0 L 38.3 0 L 38.3 6.7 Q 38.3 7.316 38.263 7.67 A 2.889 2.889 0 0 1 38.24 7.84 A 0.864 0.864 0 0 1 37.995 8.309 A 1.232 1.232 0 0 1 37.83 8.45 Q 37.485 8.697 36.964 8.749 A 2.62 2.62 0 0 1 36.95 8.75 Q 36.43 8.799 35.34 8.8 A 49.549 49.549 0 0 1 35.3 8.8 Q 34.568 8.8 33.021 8.763 A 279.807 279.807 0 0 1 32.9 8.76 L 32.84 7.9 A 0.296 0.296 0 0 0 32.807 7.912 Q 32.595 7.992 31.02 8.64 A 102.644 102.644 0 0 1 30.964 8.882 Q 30.889 9.203 30.845 9.382 A 13.403 13.403 0 0 1 30.84 9.4 L 37.3 9.4 L 37.3 18.1 L 33.6 18.1 L 33.6 17.5 L 25.4 17.5 L 25.4 18.1 L 21.7 18.1 L 21.7 9.4 L 26.96 9.4 A 6.688 6.688 0 0 0 26.982 9.309 Q 27.014 9.174 27.066 8.935 A 72.523 72.523 0 0 0 27.1 8.78 A 5.17 5.17 0 0 1 26.936 8.789 Q 26.711 8.797 26.341 8.799 A 43.855 43.855 0 0 1 26.1 8.8 Q 25.368 8.8 23.821 8.763 A 279.807 279.807 0 0 1 23.7 8.76 L 23.64 7.9 Q 22.42 8.46 20.9 9 L 20.1 6.4 Q 21.5 5.92 22.66 5.46 Q 21.573 4.694 20.708 4.128 A 41.814 41.814 0 0 0 20.2 3.8 L 21.4 2.6 L 20.6 2.6 L 20.6 0 L 29.1 0 L 29.1 6.7 Q 29.1 7.1 29.06 7.58 L 29.68 7.64 L 29.3 6.4 Q 30.7 5.92 31.86 5.46 Q 30.773 4.694 29.908 4.128 A 41.814 41.814 0 0 0 29.4 3.8 Z M 4.98 12.7 L 1.8 12.7 L 1.8 0.1 L 17 0.1 L 17 12.7 L 13.5 12.7 L 13.5 14.6 Q 13.5 14.944 13.543 15.068 A 0.158 0.158 0 0 0 13.57 15.12 A 0.13 0.13 0 0 0 13.621 15.152 Q 13.742 15.2 14.1 15.2 L 14.2 15.2 L 14.3 15.2 Q 14.86 15.2 14.97 14.94 A 0.728 0.728 0 0 0 15.008 14.8 Q 15.084 14.403 15.1 13.2 L 18.6 13.6 L 18.51 15.04 Q 18.48 15.52 18.37 16.1 A 19.807 19.807 0 0 1 18.318 16.364 Q 18.243 16.734 18.19 16.9 A 0.837 0.837 0 0 1 18.12 17.056 Q 18.029 17.217 17.85 17.41 A 2.216 2.216 0 0 1 17.704 17.554 Q 17.552 17.689 17.422 17.742 A 0.517 0.517 0 0 1 17.37 17.76 Q 17.16 17.82 16.64 17.91 Q 16.12 18 15.69 18 L 14.4 18 L 13.8 18 L 13.2 18 Q 11.573 18 10.901 17.862 A 2.865 2.865 0 0 1 10.89 17.86 Q 10.22 17.72 10.01 17.39 A 0.963 0.963 0 0 1 9.908 17.162 Q 9.831 16.918 9.809 16.536 A 5.772 5.772 0 0 1 9.8 16.2 L 9.8 12.7 L 8.82 12.7 Q 8.3 15.02 6.38 16.4 A 8.651 8.651 0 0 1 4.586 17.371 Q 3.685 17.738 2.589 17.997 A 19.589 19.589 0 0 1 1 18.3 L 0 15.2 A 18.369 18.369 0 0 0 1.267 15 Q 2.6 14.737 3.42 14.32 A 3.857 3.857 0 0 0 4.193 13.811 A 2.693 2.693 0 0 0 4.98 12.7 Z M 49 9.8 L 52.2 11 A 15.963 15.963 0 0 1 51.302 13.145 Q 50.743 14.237 50.056 15.079 A 8.711 8.711 0 0 1 49.5 15.7 Q 47.82 17.4 46.2 17.4 A 3.044 3.044 0 0 1 44.479 16.842 Q 43.595 16.247 42.78 15.02 A 9.272 9.272 0 0 1 41.413 11.583 A 12.749 12.749 0 0 1 41.2 9.2 Q 41.2 5.34 42.3 2 L 46 2.4 Q 45.589 3.782 45.318 5.564 A 33.545 33.545 0 0 0 45.28 5.82 A 31.911 31.911 0 0 0 45.109 7.205 Q 45 8.3 45 9.2 Q 45 10.14 45.15 10.99 A 8.777 8.777 0 0 0 45.275 11.585 Q 45.345 11.866 45.428 12.104 A 4.11 4.11 0 0 0 45.54 12.39 A 6.14 6.14 0 0 0 45.72 12.768 Q 45.873 13.062 46.03 13.27 Q 46.226 13.528 46.403 13.584 A 0.32 0.32 0 0 0 46.5 13.6 A 0.493 0.493 0 0 0 46.733 13.531 Q 47.083 13.34 47.59 12.62 A 8.019 8.019 0 0 0 48.024 11.924 Q 48.473 11.122 48.934 9.966 A 26.588 26.588 0 0 0 49 9.8 Z M 51.8 2.8 L 55.3 1.8 A 28.85 28.85 0 0 1 57.62 9.772 A 37.454 37.454 0 0 1 58 15.2 L 54.2 15.2 Q 54.2 8.6 51.8 2.8 Z M 25.4 14.4 L 25.4 15.1 L 33.6 15.1 L 33.6 14.4 L 25.4 14.4 Z M 25.4 12.5 L 33.6 12.5 L 33.6 11.8 L 25.4 11.8 L 25.4 12.5 Z M 13.3 9.2 L 5.5 9.2 L 5.5 10.1 L 13.3 10.1 L 13.3 9.2 Z M 13.3 6.1 L 5.5 6.1 L 5.5 7 L 13.3 7 L 13.3 6.1 Z M 5.5 3 L 5.5 3.9 L 13.3 3.9 L 13.3 3 L 5.5 3 Z M 24.9 3.7 L 23.6 5.08 Q 23.768 5.003 24.06 4.874 A 144.896 144.896 0 0 1 24.25 4.79 Q 24.68 4.6 24.9 4.5 L 25.34 6.3 A 0.714 0.714 0 0 0 25.411 6.297 Q 25.529 6.285 25.56 6.23 Q 25.6 6.16 25.6 5.9 L 25.6 2.6 L 23.26 2.6 A 47.498 47.498 0 0 1 24.037 3.106 Q 24.389 3.341 24.698 3.557 A 27.079 27.079 0 0 1 24.9 3.7 Z M 34.1 3.7 L 32.8 5.08 Q 32.968 5.003 33.26 4.874 A 144.896 144.896 0 0 1 33.45 4.79 Q 33.88 4.6 34.1 4.5 L 34.54 6.3 A 0.714 0.714 0 0 0 34.611 6.297 Q 34.729 6.285 34.76 6.23 Q 34.8 6.16 34.8 5.9 L 34.8 2.6 L 32.46 2.6 A 47.498 47.498 0 0 1 33.237 3.106 Q 33.589 3.341 33.898 3.557 A 27.079 27.079 0 0 1 34.1 3.7 Z" />
  </g>
</svg>