<svg xmlns="http://www.w3.org/2000/svg" width="88" height="41">
  <defs>
    <linearGradient id="c" gradientTransform="rotate(15)">
      <stop offset="14%" stop-color="#ff551c"/>
      <stop offset="28%" stop-color="#ffdb07"/>
      <stop offset="42%" stop-color="#7dff65"/>
      <stop offset="57%" stop-color="#65cac0"/>
      <stop offset="71%" stop-color="#489afd"/>
      <stop offset="85%" stop-color="#b55ce1"/>
      <stop offset="99%" stop-color="#71a0ff"/>
    </linearGradient>
    <linearGradient id="b" x1="0%" y1="0%" x2="0%" y2="100%">
      <stop offset="10%" stop-color="#c75d36"/>
      <stop offset="95%" stop-color="#670000"/>
    </linearGradient>
    <linearGradient id="e" x1="0%" y1="0%" x2="0%" y2="50%" spreadMethod="reflect">
      <stop offset="40%" stop-color="#fff"/>
      <stop offset="90%" stop-color="#ffb8f9"/>
      <stop offset="100%" stop-color="#d8d6ff"/>
    </linearGradient>
    <linearGradient id="f">
      <stop offset="10%" stop-color="#1600f4"/>
      <stop offset="95%" stop-color="#490FEC"/>
    </linearGradient>
    <radialGradient id="a">
      <stop offset="0%" stop-color="#FFF" stop-opacity=".7"/>
      <stop offset="100%" stop-color="#FFF" stop-opacity="0"/>
    </radialGradient>
    <pattern id="d" x="0" y="0" width="20" height="20" patternUnits="userSpaceOnUse">
      <path fill="url(#a)" d="M3 3h4v4H3zM13 13h4v4h-4z"/>
    </pattern>
  </defs>
  <path stroke="url(#b)" fill="url(#c)" d="M2 21 14 3h60l12 18-12 18H14z"/>
  <path fill="url(#d)" d="M2 21 14 3h60l12 18-12 18H14z"/>
  <path d="M39.49 13.65h4.07v3.08h-4.07v1.364a78.428 78.428 0 0 0 2.874-.491 90.71 90.71 0 0 0 1.086-.213l.286 2.86.506.044q-.017-.117-.021-.336a8.109 8.109 0 0 1-.001-.148v-7.37h4.07v1.694q2.09-.616 4.62-1.694l1.32 2.97q-1.606.682-2.904 1.1l2.684.33a63.887 63.887 0 0 1-.045.654q-.052.706-.108 1.205a15.641 15.641 0 0 1-.034.286 12.377 12.377 0 0 1-.097.626q-.052.284-.114.532a6.84 6.84 0 0 1-.042.162q-.106.386-.306.61a.921.921 0 0 1-.2.17q-.352.22-.748.309a3.757 3.757 0 0 1-.252.046q-.361.054-.914.086a151.309 151.309 0 0 1-.635.019q-.839.024-1.298.025a18.506 18.506 0 0 1-.047 0q-.773 0-1.923-.042a95.813 95.813 0 0 1-.057-.002q-.77-.022-1.518-.11-.066.286-.198.814h7.106v10.01h-4.07v-.66h-9.02v.66h-4.07V22.23h5.786q.037-.112.202-.91a118.101 118.101 0 0 0 .062-.3q-4.29.77-7.92.99l-.33-3.19q1.1-.066 2.2-.198V12.44h4.07zm-13.64 2.42-.55 3.63h5.5v8.69h1.65v3.41H17.6v-3.41h2.31l.814-5.39H18.37v-3.3h2.86l.55-3.63h-3.41v-3.41h13.42v3.41zm43.78 7.92 3.52-1.32a73.35 73.35 0 0 1 2.938 7.45 66.288 66.288 0 0 1 .362 1.13l-3.63 1.32a59.195 59.195 0 0 0-.217-.654l-.208-.611a112.585 112.585 0 0 0-.235-.671q-5.082.682-10.34 1.056l-.33-3.41 1.716-.132q1.1-3.19 2.134-6.688H61.6v-3.41h14.41v3.41h-6.27a143.854 143.854 0 0 1-.65 2.153q-.587 1.898-1.33 4.139a56.556 56.556 0 0 0 .639-.052q1.044-.091 2.595-.256-.378-.983-.881-2.247a353.96 353.96 0 0 0-.483-1.207zm-52.58-6.732V32.35H13.2v-8.8a23.748 23.748 0 0 1-.443.692q-.635.952-1.097 1.398L11 20.58q1.21-1.628 1.991-3.564a20.093 20.093 0 0 0 .554-1.576q.26-.84.501-1.822A45.876 45.876 0 0 0 14.41 12l3.74.66a25.245 25.245 0 0 1-.711 3.372 21.933 21.933 0 0 1-.389 1.226zm43.89.88V32.35h-3.85v-8.492a14.959 14.959 0 0 1-.441.64q-.408.56-.769.922L55 20.58q2.574-3.256 3.63-8.58l3.74.66a28.07 28.07 0 0 1-.68 3.217 22.702 22.702 0 0 1-.75 2.26zm14.08-1.848H63.03v-3.41h11.99zM39.49 28.06v.77h9.02v-.77zm0-2.31h9.02v-.77h-9.02zM26.84 23h-2.046l-.814 5.39h2.86zm21.45-5.632v.792q0 .198.044.242.036.036.202.057a2.339 2.339 0 0 0 .084.009q.163.02.59.022a19.846 19.846 0 0 0 .07 0q.418 0 .66-.022.228-.021.3-.217a.445.445 0 0 0 .008-.025q.066-.22.11-1.408-1.364.396-2.068.55z" fill="#221C9A" stroke-linecap="round" fill-rule="evenodd" stroke="#221C9A" stroke-width="4" paint-order="stroke" fill-opacity=".85" stroke-opacity=".85"/>
  <path d="M39.49 10.65h4.07v3.08h-4.07v1.364a78.428 78.428 0 0 0 2.874-.491 90.71 90.71 0 0 0 1.086-.213l.286 2.86.506.044q-.017-.117-.021-.336a8.109 8.109 0 0 1-.001-.148V9.44h4.07v1.694q2.09-.616 4.62-1.694l1.32 2.97q-1.606.682-2.904 1.1l2.684.33a63.887 63.887 0 0 1-.045.654q-.052.706-.108 1.205a15.641 15.641 0 0 1-.034.286 12.377 12.377 0 0 1-.097.626q-.052.284-.114.532a6.84 6.84 0 0 1-.042.162q-.106.386-.306.611a.921.921 0 0 1-.2.17q-.352.22-.748.308a3.757 3.757 0 0 1-.252.046q-.361.054-.914.086a151.309 151.309 0 0 1-.635.019q-.839.024-1.298.025a18.506 18.506 0 0 1-.047 0q-.773 0-1.923-.042a95.813 95.813 0 0 1-.057-.002q-.77-.022-1.518-.11-.066.286-.198.814h7.106v10.01h-4.07v-.66h-9.02v.66h-4.07V19.23h5.786q.037-.112.202-.91a118.101 118.101 0 0 0 .062-.3q-4.29.77-7.92.99l-.33-3.19q1.1-.066 2.2-.198V9.44h4.07zm-13.64 2.42-.55 3.63h5.5v8.69h1.65v3.41H17.6v-3.41h2.31l.814-5.39H18.37v-3.3h2.86l.55-3.63h-3.41V9.66h13.42v3.41zm43.78 7.92 3.52-1.32a73.35 73.35 0 0 1 2.938 7.451 66.288 66.288 0 0 1 .362 1.129l-3.63 1.32a59.195 59.195 0 0 0-.217-.654l-.208-.611a112.585 112.585 0 0 0-.235-.671q-5.082.682-10.34 1.056l-.33-3.41 1.716-.132q1.1-3.19 2.134-6.688H61.6v-3.41h14.41v3.41h-6.27a143.854 143.854 0 0 1-.65 2.153q-.587 1.898-1.33 4.139a56.556 56.556 0 0 0 .639-.052q1.044-.091 2.595-.256-.378-.983-.881-2.247a353.96 353.96 0 0 0-.483-1.207zm-52.58-6.732V29.35H13.2v-8.8a23.748 23.748 0 0 1-.443.692q-.635.952-1.097 1.398L11 17.58q1.21-1.628 1.991-3.564a20.093 20.093 0 0 0 .554-1.576q.26-.839.501-1.822A45.876 45.876 0 0 0 14.41 9l3.74.66a25.245 25.245 0 0 1-.711 3.372 21.933 21.933 0 0 1-.389 1.226zm43.89.88V29.35h-3.85v-8.492a14.959 14.959 0 0 1-.441.641q-.408.56-.769.921L55 17.58q2.574-3.256 3.63-8.58l3.74.66a28.07 28.07 0 0 1-.68 3.217 22.702 22.702 0 0 1-.75 2.261zm14.08-1.848H63.03V9.88h11.99zM39.49 25.06v.77h9.02v-.77zm0-2.31h9.02v-.77h-9.02zM26.84 20h-2.046l-.814 5.39h2.86zm21.45-5.632v.792q0 .198.044.242.036.036.202.057a2.339 2.339 0 0 0 .084.009q.163.02.59.022a19.846 19.846 0 0 0 .07 0q.418 0 .66-.022.228-.021.3-.217a.445.445 0 0 0 .008-.025q.066-.22.11-1.408-1.364.396-2.068.55z" fill="url(#e)" stroke-linecap="round" fill-rule="evenodd" stroke="url(#f)" stroke-width="4" paint-order="stroke"/>
</svg>
