<svg xmlns="http://www.w3.org/2000/svg" viewBox="0 0 88 41" width="88" height="41">
  <defs>
    <radialGradient id="patternGradient">
      <stop offset="0%" stop-color="#FFFFFF" stop-opacity="0.7" />
      <stop offset="100%" stop-color="#FFFFFF" stop-opacity="0" />
    </radialGradient>
    <pattern id="fillPattern" x="0" y="0" width="20" height="20" patternUnits="userSpaceOnUse">
      <rect x="3" y="3" width="4" height="4" fill="url(#patternGradient)" />
      <rect x="13" y="13" width="4" height="4" fill="url(#patternGradient)" />
    </pattern>
    <linearGradient id="fillGradient" cx="10%" cy="15%" gradientTransform="rotate(15)">
      <stop offset="14%" stop-color="#ff551c" />
      <stop offset="28%" stop-color="#ffdb07" />
      <stop offset="42%" stop-color="#7dff65" />
      <stop offset="57%" stop-color="#65cac0" />
      <stop offset="71%" stop-color="#489afd" />
      <stop offset="85%" stop-color="#b55ce1" />
      <stop offset="99%" stop-color="#71a0ff" />
    </linearGradient>
    <linearGradient id="strokeGradient" x1="0%" y1="0%" x2="0%" y2="100%">
      <stop offset="10%" stop-color="#c75d36" />
      <stop offset="95%" stop-color="#670000" />
    </linearGradient>
    <linearGradient id="textGradient" x1="0%" y1="0%" x2="0%" y2="50%" spreadMethod="reflect">
     <stop offset="40%" stop-color="#ffffff" />
     <stop offset="90%" stop-color="#ffb8f9" />
     <stop offset="100%" stop-color="#d8d6ff" />
    </linearGradient>
    <linearGradient id="textStrokeGradient">
     <stop offset="10%" stop-color="#1600f4" />
     <stop offset="95%" stop-color="#490FEC" />
    </linearGradient>
    <filter id="textShadow" height="150%">
      <feDropShadow dx="0" dy="3" flood-color="#221C9A" flood-opacity="0.85" stdDeviation="0" />
    </filter>
  </defs>
  <polygon points="2,21 14,3 74,3 86,21 74,39 14,39" stroke="url(#strokeGradient)" fill="url(#fillGradient)" />
  <polygon points="2,21 14,3 74,3 86,21 74,39 14,39" stroke-width="0" fill="url(#fillPattern)"
    transform="scale(0.9 0.88)" transform-origin="center" />
  <g id="svgGroup" fill="url(#textGradient)" stroke-linecap="round" fill-rule="evenodd"
    stroke="url(#textStrokeGradient)" stroke-width="4" paint-order="stroke" filter="url(#textShadow)">
    <path transform="translate(12, 9)"
      d="M 15.51 16.06 L 15.51 16.83 L 20.35 16.83 L 20.35 20.02 L 5.83 20.02 L 5.83 16.83 L 11.44 16.83 L 11.44 16.06 L 7.7 16.06 L 7.7 13.09 L 11.44 13.09 L 11.44 11.33 L 13.574 11.33 A 10.264 10.264 0 0 1 13.547 11.015 Q 13.53 10.766 13.53 10.56 L 13.53 8.14 L 13.068 8.14 A 7.112 7.112 0 0 1 12.607 9.561 A 5.047 5.047 0 0 1 11.495 11.154 Q 10.661 11.948 9.226 12.547 A 14.025 14.025 0 0 1 8.03 12.98 L 7.326 11.66 Q 7.359 11.959 7.367 12.557 A 31.141 31.141 0 0 1 7.37 12.98 A 7.495 7.495 0 0 1 7.261 14.322 Q 6.842 16.613 4.813 16.715 A 3.835 3.835 0 0 1 4.62 16.72 L 4.07 16.72 L 3.52 14.52 L 3.52 20.46 L 0 20.46 L 0 0.66 L 7.7 0.66 L 7.7 1.32 L 11.44 1.32 L 11.44 0 L 15.51 0 L 15.51 1.32 L 19.69 1.32 L 19.69 4.4 L 15.51 4.4 L 15.51 5.06 L 20.13 5.06 L 20.13 8.14 L 16.94 8.14 L 16.94 9.24 Q 16.94 9.541 16.958 9.613 A 0.095 0.095 0 0 0 16.962 9.625 Q 16.984 9.68 17.16 9.68 L 17.27 9.68 L 17.38 9.68 A 0.443 0.443 0 0 0 17.473 9.671 Q 17.527 9.659 17.565 9.633 A 0.202 0.202 0 0 0 17.644 9.515 Q 17.682 9.374 17.703 8.631 A 40.27 40.27 0 0 0 17.71 8.36 L 20.46 8.69 A 176.922 176.922 0 0 1 20.439 9.176 Q 20.408 9.859 20.383 10.263 Q 20.35 10.802 20.185 11.319 A 4.989 4.989 0 0 1 20.103 11.556 Q 20.023 11.769 19.946 11.898 A 0.771 0.771 0 0 1 19.866 12.012 Q 19.736 12.161 19.409 12.294 A 3.209 3.209 0 0 1 19.283 12.342 A 3.064 3.064 0 0 1 18.659 12.497 A 2.724 2.724 0 0 1 18.436 12.518 Q 18.022 12.54 17.175 12.54 A 41.66 41.66 0 0 1 17.16 12.54 L 16.72 12.54 L 16.28 12.54 A 5.429 5.429 0 0 1 16.197 12.539 Q 16.082 12.538 15.925 12.531 A 17.996 17.996 0 0 1 15.873 12.529 A 21.502 21.502 0 0 0 15.755 12.524 Q 15.593 12.518 15.51 12.518 L 15.51 13.09 L 19.69 13.09 L 19.69 16.06 L 15.51 16.06 Z M 27.5 1.76 L 31.57 1.76 L 31.57 4.84 L 27.5 4.84 L 27.5 6.204 A 78.428 78.428 0 0 0 30.374 5.713 A 90.71 90.71 0 0 0 31.46 5.5 L 31.746 8.36 L 32.252 8.404 Q 32.235 8.287 32.231 8.068 A 8.109 8.109 0 0 1 32.23 7.92 L 32.23 0.55 L 36.3 0.55 L 36.3 2.244 Q 38.39 1.628 40.92 0.55 L 42.24 3.52 Q 40.634 4.202 39.336 4.62 L 42.02 4.95 A 63.887 63.887 0 0 1 41.975 5.604 Q 41.923 6.31 41.867 6.809 A 15.641 15.641 0 0 1 41.833 7.095 A 12.377 12.377 0 0 1 41.736 7.721 Q 41.684 8.005 41.622 8.253 A 6.84 6.84 0 0 1 41.58 8.415 Q 41.474 8.801 41.274 9.026 A 0.921 0.921 0 0 1 41.074 9.196 Q 40.722 9.416 40.326 9.504 A 3.757 3.757 0 0 1 40.074 9.55 Q 39.713 9.604 39.16 9.636 A 151.309 151.309 0 0 1 38.525 9.655 Q 37.686 9.679 37.227 9.68 A 18.506 18.506 0 0 1 37.18 9.68 Q 36.407 9.68 35.257 9.638 A 95.813 95.813 0 0 1 35.2 9.636 Q 34.43 9.614 33.682 9.526 Q 33.616 9.812 33.484 10.34 L 40.59 10.34 L 40.59 20.35 L 36.52 20.35 L 36.52 19.69 L 27.5 19.69 L 27.5 20.35 L 23.43 20.35 L 23.43 10.34 L 29.216 10.34 Q 29.253 10.228 29.418 9.43 A 118.101 118.101 0 0 0 29.48 9.13 Q 25.19 9.9 21.56 10.12 L 21.23 6.93 Q 22.33 6.864 23.43 6.732 L 23.43 0.55 L 27.5 0.55 L 27.5 1.76 Z M 57.64 12.1 L 61.16 10.78 A 73.35 73.35 0 0 1 64.098 18.231 A 66.288 66.288 0 0 1 64.46 19.36 L 60.83 20.68 A 59.195 59.195 0 0 0 60.613 20.026 Q 60.515 19.736 60.405 19.415 A 112.585 112.585 0 0 0 60.17 18.744 Q 55.088 19.426 49.83 19.8 L 49.5 16.39 L 51.216 16.258 Q 52.316 13.068 53.35 9.57 L 49.61 9.57 L 49.61 6.16 L 64.02 6.16 L 64.02 9.57 L 57.75 9.57 A 143.854 143.854 0 0 1 57.1 11.723 Q 56.512 13.621 55.77 15.862 A 56.556 56.556 0 0 0 56.409 15.81 Q 57.453 15.719 59.004 15.554 Q 58.626 14.571 58.123 13.307 A 353.96 353.96 0 0 0 57.64 12.1 Z M 48.95 6.248 L 48.95 20.46 L 45.1 20.46 L 45.1 11.968 A 14.959 14.959 0 0 1 44.659 12.609 Q 44.251 13.169 43.89 13.53 L 43.01 8.69 Q 45.584 5.434 46.64 0.11 L 50.38 0.77 A 28.07 28.07 0 0 1 49.7 3.987 A 22.702 22.702 0 0 1 48.95 6.248 Z M 63.03 4.4 L 51.04 4.4 L 51.04 0.99 L 63.03 0.99 L 63.03 4.4 Z M 27.5 16.17 L 27.5 16.94 L 36.52 16.94 L 36.52 16.17 L 27.5 16.17 Z M 27.5 13.86 L 36.52 13.86 L 36.52 13.09 L 27.5 13.09 L 27.5 13.86 Z M 9.724 8.14 L 6.93 8.14 L 6.93 6.226 A 37.3 37.3 0 0 1 6.59 7.16 Q 6.416 7.618 6.248 8.015 A 18.995 18.995 0 0 1 6.05 8.47 Q 6.644 9.13 6.974 9.988 Q 9.086 9.372 9.724 8.14 Z M 11.44 4.4 L 7.502 4.4 L 7.304 5.06 L 11.44 5.06 L 11.44 4.4 Z M 3.52 9.702 L 3.52 13.64 Q 3.982 13.596 4.136 13.31 A 0.864 0.864 0 0 0 4.205 13.127 Q 4.286 12.828 4.29 12.262 A 8.332 8.332 0 0 0 4.29 12.21 Q 4.29 10.824 3.52 9.702 Z M 4.576 3.63 L 3.52 3.63 L 3.52 6.732 Q 4.125 5.257 4.47 4.026 A 16.698 16.698 0 0 0 4.576 3.63 Z M 36.3 5.478 L 36.3 6.27 Q 36.3 6.468 36.344 6.512 Q 36.38 6.548 36.546 6.569 A 2.339 2.339 0 0 0 36.63 6.578 Q 36.793 6.598 37.22 6.6 A 19.846 19.846 0 0 0 37.29 6.6 Q 37.708 6.6 37.95 6.578 Q 38.178 6.557 38.25 6.361 A 0.445 0.445 0 0 0 38.258 6.336 Q 38.324 6.116 38.368 4.928 Q 37.004 5.324 36.3 5.478 Z" />
  </g>
</svg>