<svg xmlns="http://www.w3.org/2000/svg" viewBox="0 0 88 41" width="88" height="41">
  <defs>
    <radialGradient id="patternGradient">
      <stop offset="0%" stop-color="#FFFFFF" stop-opacity="0.7" />
      <stop offset="100%" stop-color="#FFFFFF" stop-opacity="0" />
    </radialGradient>
    <pattern id="fillPattern" x="0" y="0" width="20" height="20" patternUnits="userSpaceOnUse">
      <rect x="3" y="3" width="4" height="4" fill="url(#patternGradient)" />
      <rect x="13" y="13" width="4" height="4" fill="url(#patternGradient)" />
    </pattern>
    <linearGradient id="fillGradient" cx="10%" cy="15%" gradientTransform="rotate(15)">
      <stop offset="14%" stop-color="#ff551c" />
      <stop offset="28%" stop-color="#ffdb07" />
      <stop offset="42%" stop-color="#7dff65" />
      <stop offset="57%" stop-color="#65cac0" />
      <stop offset="71%" stop-color="#489afd" />
      <stop offset="85%" stop-color="#b55ce1" />
      <stop offset="99%" stop-color="#71a0ff" />
    </linearGradient>
    <linearGradient id="strokeGradient" x1="0%" y1="0%" x2="0%" y2="100%">
      <stop offset="10%" stop-color="#c75d36" />
      <stop offset="95%" stop-color="#670000" />
    </linearGradient>
    <linearGradient id="textGradient" x1="0%" y1="0%" x2="0%" y2="50%" spreadMethod="reflect">
     <stop offset="40%" stop-color="#ffffff" />
     <stop offset="90%" stop-color="#ffb8f9" />
     <stop offset="100%" stop-color="#d8d6ff" />
    </linearGradient>
    <linearGradient id="textStrokeGradient">
     <stop offset="10%" stop-color="#1600f4" />
     <stop offset="95%" stop-color="#490FEC" />
    </linearGradient>
    <filter id="textShadow" height="150%">
      <feDropShadow dx="0" dy="3" flood-color="#221C9A" flood-opacity="0.85" stdDeviation="0" />
    </filter>
  </defs>
  <polygon points="2,21 14,3 74,3 86,21 74,39 14,39" stroke="url(#strokeGradient)" fill="url(#fillGradient)" />
  <polygon points="2,21 14,3 74,3 86,21 74,39 14,39" stroke-width="0" fill="url(#fillPattern)"
    transform="scale(0.9 0.88)" transform-origin="center" />
  <g id="svgGroup" fill="url(#textGradient)" stroke-linecap="round" fill-rule="evenodd"
    stroke="url(#textStrokeGradient)" stroke-width="4" paint-order="stroke" filter="url(#textShadow)">
    <path transform="translate(11, 9)"
      d="M 21.45 18.04 L 20.13 21.01 Q 17.864 19.734 15.444 18.766 A 5.785 5.785 0 0 1 15.352 19.432 Q 15.15 20.42 14.619 20.724 Q 13.976 21.091 12.075 21.118 A 21.785 21.785 0 0 1 11.77 21.12 Q 11.162 21.12 9.808 21.027 A 94.585 94.585 0 0 1 9.57 21.01 L 9.46 19.514 Q 8.074 20.35 6.49 20.9 L 5.39 17.93 A 21.347 21.347 0 0 0 7.72 16.936 A 25.4 25.4 0 0 0 8.8 16.368 A 36.157 36.157 0 0 0 8.34 15.732 Q 7.972 15.235 7.656 14.85 Q 7.285 15.046 6.504 15.394 A 55.23 55.23 0 0 1 6.49 15.4 L 6.072 14.256 Q 4.994 18.084 3.3 20.9 L 0.11 18.92 Q 1.87 15.818 3.08 11.88 L 5.522 12.782 L 5.28 12.1 A 26.057 26.057 0 0 0 9.521 9.804 A 22.375 22.375 0 0 0 11.44 8.36 L 11.44 7.414 Q 9.24 8.954 6.49 10.23 L 6.182 9.372 L 4.18 11.88 Q 2.222 10.098 0 8.47 L 2.2 5.83 Q 3.982 7.062 5.94 8.756 L 5.28 6.93 A 38.009 38.009 0 0 0 9.532 5.241 A 42.009 42.009 0 0 0 10.142 4.95 L 6.16 4.95 L 6.16 4.07 L 4.4 6.27 Q 2.596 4.686 0.66 3.3 L 2.86 0.66 Q 4.752 1.958 6.16 3.146 L 6.16 1.76 L 11.44 1.76 L 11.44 0 L 15.62 0 L 15.62 1.76 L 20.9 1.76 L 20.9 4.95 L 16.984 4.95 A 44.804 44.804 0 0 1 21.209 6.658 A 40.946 40.946 0 0 1 21.78 6.93 L 20.57 10.23 A 49.628 49.628 0 0 0 16.256 7.907 A 44.816 44.816 0 0 0 15.62 7.612 L 15.62 8.36 A 23.646 23.646 0 0 0 20.023 11.27 A 28.045 28.045 0 0 0 21.78 12.1 L 20.57 15.4 Q 19.844 15.07 19.294 14.784 Q 18.59 15.84 18.194 16.324 A 30.283 30.283 0 0 1 19.892 17.144 Q 20.683 17.559 21.36 17.983 A 18.384 18.384 0 0 1 21.45 18.04 Z M 28.49 2.2 L 32.56 2.2 L 32.56 5.28 L 28.49 5.28 L 28.49 6.644 A 78.428 78.428 0 0 0 31.364 6.153 A 90.71 90.71 0 0 0 32.45 5.94 L 32.736 8.8 L 33.242 8.844 Q 33.225 8.727 33.221 8.508 A 8.109 8.109 0 0 1 33.22 8.36 L 33.22 0.99 L 37.29 0.99 L 37.29 2.684 Q 39.38 2.068 41.91 0.99 L 43.23 3.96 Q 41.624 4.642 40.326 5.06 L 43.01 5.39 A 63.887 63.887 0 0 1 42.965 6.044 Q 42.913 6.75 42.857 7.249 A 15.641 15.641 0 0 1 42.823 7.535 A 12.377 12.377 0 0 1 42.726 8.161 Q 42.674 8.445 42.612 8.693 A 6.84 6.84 0 0 1 42.57 8.855 Q 42.464 9.241 42.264 9.466 A 0.921 0.921 0 0 1 42.064 9.636 Q 41.712 9.856 41.316 9.944 A 3.757 3.757 0 0 1 41.064 9.99 Q 40.703 10.044 40.15 10.076 A 151.309 151.309 0 0 1 39.515 10.095 Q 38.676 10.119 38.217 10.12 A 18.506 18.506 0 0 1 38.17 10.12 Q 37.397 10.12 36.247 10.078 A 95.813 95.813 0 0 1 36.19 10.076 Q 35.42 10.054 34.672 9.966 Q 34.606 10.252 34.474 10.78 L 41.58 10.78 L 41.58 20.79 L 37.51 20.79 L 37.51 20.13 L 28.49 20.13 L 28.49 20.79 L 24.42 20.79 L 24.42 10.78 L 30.206 10.78 Q 30.243 10.668 30.408 9.87 A 118.101 118.101 0 0 0 30.47 9.57 Q 26.18 10.34 22.55 10.56 L 22.22 7.37 Q 23.32 7.304 24.42 7.172 L 24.42 0.99 L 28.49 0.99 L 28.49 2.2 Z M 58.63 12.54 L 62.15 11.22 A 73.35 73.35 0 0 1 65.088 18.671 A 66.288 66.288 0 0 1 65.45 19.8 L 61.82 21.12 A 59.195 59.195 0 0 0 61.603 20.466 Q 61.505 20.176 61.395 19.855 A 112.585 112.585 0 0 0 61.16 19.184 Q 56.078 19.866 50.82 20.24 L 50.49 16.83 L 52.206 16.698 Q 53.306 13.508 54.34 10.01 L 50.6 10.01 L 50.6 6.6 L 65.01 6.6 L 65.01 10.01 L 58.74 10.01 A 143.854 143.854 0 0 1 58.09 12.163 Q 57.503 14.061 56.76 16.302 A 56.556 56.556 0 0 0 57.399 16.25 Q 58.443 16.159 59.994 15.994 Q 59.616 15.011 59.113 13.747 A 353.96 353.96 0 0 0 58.63 12.54 Z M 49.94 6.688 L 49.94 20.9 L 46.09 20.9 L 46.09 12.408 A 14.959 14.959 0 0 1 45.649 13.049 Q 45.241 13.609 44.88 13.97 L 44 9.13 Q 46.574 5.874 47.63 0.55 L 51.37 1.21 A 28.07 28.07 0 0 1 50.69 4.427 A 22.702 22.702 0 0 1 49.94 6.688 Z M 64.02 4.84 L 52.03 4.84 L 52.03 1.43 L 64.02 1.43 L 64.02 4.84 Z M 28.49 16.61 L 28.49 17.38 L 37.51 17.38 L 37.51 16.61 L 28.49 16.61 Z M 28.49 14.3 L 37.51 14.3 L 37.51 13.53 L 28.49 13.53 L 28.49 14.3 Z M 11.99 12.1 L 15.07 12.1 Q 14.366 11.528 13.53 10.78 Q 12.694 11.528 11.99 12.1 Z M 37.29 5.918 L 37.29 6.71 Q 37.29 6.908 37.334 6.952 Q 37.37 6.988 37.536 7.009 A 2.339 2.339 0 0 0 37.62 7.018 Q 37.783 7.038 38.21 7.04 A 19.846 19.846 0 0 0 38.28 7.04 Q 38.698 7.04 38.94 7.018 Q 39.168 6.997 39.24 6.801 A 0.445 0.445 0 0 0 39.248 6.776 Q 39.314 6.556 39.358 5.368 Q 37.994 5.764 37.29 5.918 Z M 15.488 18.304 L 16.478 16.214 L 15.51 15.51 L 15.51 16.72 Q 15.51 17.842 15.488 18.304 Z M 11.55 15.444 L 10.516 16.236 L 11.198 17.93 L 11.33 17.93 A 0.727 0.727 0 0 0 11.391 17.928 Q 11.51 17.918 11.528 17.864 A 0.219 0.219 0 0 0 11.535 17.827 Q 11.547 17.739 11.55 17.494 A 13.122 13.122 0 0 0 11.55 17.38 L 11.55 15.444 Z M 11.55 14.696 L 11.55 12.43 Q 10.868 12.936 10.428 13.244 Q 10.748 13.615 11.236 14.269 A 45.296 45.296 0 0 1 11.55 14.696 Z M 15.51 12.452 L 15.51 14.652 Q 15.814 14.287 16.491 13.382 A 109.679 109.679 0 0 0 16.61 13.222 A 29.668 29.668 0 0 1 15.863 12.707 A 34.954 34.954 0 0 1 15.51 12.452 Z" />
  </g>
</svg>