<svg xmlns="http://www.w3.org/2000/svg" width="88" height="41">
  <defs>
    <linearGradient id="c" gradientTransform="rotate(15)">
      <stop offset="14%" stop-color="#ff551c"/>
      <stop offset="28%" stop-color="#ffdb07"/>
      <stop offset="42%" stop-color="#7dff65"/>
      <stop offset="57%" stop-color="#65cac0"/>
      <stop offset="71%" stop-color="#489afd"/>
      <stop offset="85%" stop-color="#b55ce1"/>
      <stop offset="99%" stop-color="#71a0ff"/>
    </linearGradient>
    <linearGradient id="b" x1="0%" y1="0%" x2="0%" y2="100%">
      <stop offset="10%" stop-color="#c75d36"/>
      <stop offset="95%" stop-color="#670000"/>
    </linearGradient>
    <linearGradient id="e" x1="0%" y1="0%" x2="0%" y2="50%" spreadMethod="reflect">
      <stop offset="40%" stop-color="#fff"/>
      <stop offset="90%" stop-color="#ffb8f9"/>
      <stop offset="100%" stop-color="#d8d6ff"/>
    </linearGradient>
    <linearGradient id="f">
      <stop offset="10%" stop-color="#1600f4"/>
      <stop offset="95%" stop-color="#490FEC"/>
    </linearGradient>
    <radialGradient id="a">
      <stop offset="0%" stop-color="#FFF" stop-opacity=".7"/>
      <stop offset="100%" stop-color="#FFF" stop-opacity="0"/>
    </radialGradient>
    <pattern id="d" x="0" y="0" width="20" height="20" patternUnits="userSpaceOnUse">
      <path fill="url(#a)" d="M3 3h4v4H3zM13 13h4v4h-4z"/>
    </pattern>
  </defs>
  <path stroke="url(#b)" fill="url(#c)" d="M2 21 14 3h60l12 18-12 18H14z"/>
  <path fill="url(#d)" d="M2 21 14 3h60l12 18-12 18H14z"/>
  <path d="M39.05 13.65h4.07v3.08h-4.07v1.364a78.428 78.428 0 0 0 2.874-.491 90.71 90.71 0 0 0 1.086-.213l.286 2.86.506.044q-.017-.117-.021-.336a8.109 8.109 0 0 1-.001-.148v-7.37h4.07v1.694q2.09-.616 4.62-1.694l1.32 2.97q-1.606.682-2.904 1.1l2.684.33a63.887 63.887 0 0 1-.045.654q-.052.706-.108 1.205a15.641 15.641 0 0 1-.034.286 12.377 12.377 0 0 1-.097.626q-.052.284-.114.532a6.84 6.84 0 0 1-.042.162q-.106.386-.306.61a.921.921 0 0 1-.2.17q-.352.22-.748.309a3.757 3.757 0 0 1-.252.046q-.361.054-.914.086a151.309 151.309 0 0 1-.635.019q-.839.024-1.298.025a18.506 18.506 0 0 1-.047 0q-.773 0-1.923-.042a95.813 95.813 0 0 1-.057-.002q-.77-.022-1.518-.11-.066.286-.198.814h7.106v10.01h-4.07v-.66h-9.02v.66h-4.07V22.23h5.786q.037-.112.202-.91a118.101 118.101 0 0 0 .062-.3q-4.29.77-7.92.99l-.33-3.19q1.1-.066 2.2-.198V12.44h4.07zM11.22 32.24 11 29.05a37.728 37.728 0 0 0 .42.046q.52.053.794.062a3.139 3.139 0 0 0 .106.002.364.364 0 0 0 .065-.005q.097-.018.122-.094.031-.093.033-.604a18.348 18.348 0 0 0 0-.067v-2.244q-.726.176-1.32.264L11 22.89q.77-.11 1.54-.264V18.93H11v-3.3h1.54v-3.52h3.63v3.52h.88v-3.08h6.93v8.36h-2.86a7.67 7.67 0 0 1-.001.098q-.002.16-.01.408a34.493 34.493 0 0 0-.005.154q-.006.214-.006.33h2.882q0 2.362-.018 3.922a166.702 166.702 0 0 1-.004.357 55.829 55.829 0 0 1-.034 1.36q-.031.828-.087 1.533a41.033 41.033 0 0 1-.05.586q-.075.797-.155 1.24a5.739 5.739 0 0 1-.004.022q-.086.466-.267.782a1.564 1.564 0 0 1-.107.164 1.889 1.889 0 0 1-.148.175q-.166.174-.328.23a.52.52 0 0 1-.041.013q-.253.066-.737.066a21.37 21.37 0 0 1-.789-.015q-.696-.026-1.521-.095l-.11-2.728a12.473 12.473 0 0 1-1.485 2.93 14.016 14.016 0 0 1-.165.238l-1.782-3.058a10.523 10.523 0 0 1-.059.725q-.126 1.062-.458 1.46a.822.822 0 0 1-.077.08q-.502.46-2.11.463a11.339 11.339 0 0 1-.024 0q-.484 0-2.2-.11zm57.97-8.25 3.52-1.32a73.35 73.35 0 0 1 2.938 7.45 66.288 66.288 0 0 1 .362 1.13l-3.63 1.32a59.195 59.195 0 0 0-.217-.654l-.208-.611a112.585 112.585 0 0 0-.235-.671q-5.082.682-10.34 1.056l-.33-3.41 1.716-.132q1.1-3.19 2.134-6.688h-3.74v-3.41h14.41v3.41H69.3a143.854 143.854 0 0 1-.65 2.153q-.587 1.898-1.33 4.139a56.556 56.556 0 0 0 .639-.052q1.044-.091 2.595-.256-.378-.983-.881-2.247a353.96 353.96 0 0 0-.483-1.207zm-8.69-5.852V32.35h-3.85v-8.492a14.959 14.959 0 0 1-.441.64q-.408.56-.769.922l-.88-4.84q2.574-3.256 3.63-8.58l3.74.66a28.07 28.07 0 0 1-.68 3.217 22.702 22.702 0 0 1-.75 2.26zM25.3 32.24l-.22-3.41q1.798.098 2.225.109a3.515 3.515 0 0 0 .085 0 3.399 3.399 0 0 0 .151-.002q.299-.014.344-.085.052-.083.055-.613a11.883 11.883 0 0 0 0-.07V12.33h3.63v15.62q0 1.123-.022 1.76a6.395 6.395 0 0 1-.07.764 5.339 5.339 0 0 1-.084.425 5.038 5.038 0 0 1-.068.256q-.08.27-.171.44a1.056 1.056 0 0 1-.058.096.914.914 0 0 1-.176.189q-.091.075-.21.14a2.091 2.091 0 0 1-.175.089q-.396.176-.825.209a8.196 8.196 0 0 1-.237.014q-.39.019-.984.019a19.052 19.052 0 0 1-.401-.005q-.864-.02-2.789-.105zm2.09-4.95h-2.86V13.21h2.86zm47.19-11H62.59v-3.41h11.99zm-56.672 4.62h-.858v-1.98h-.88v2.838q.955-.26 1.082-.301a.169.169 0 0 0 .018-.007l.11 3.41a126.499 126.499 0 0 0-.394.119q-.566.172-.816.255v2.706a70.466 70.466 0 0 1-.001.456q-.004.633-.021.93 1.454-2.53 1.718-7.387a38.673 38.673 0 0 0 .042-1.04zm21.142 7.15v.77h9.02v-.77zm0-2.31h9.02v-.77h-9.02zm-18.04-.55h-.484a26.858 26.858 0 0 1-.273 1.743q-.203 1.052-.475 1.93.427.054.682.065a2.773 2.773 0 0 0 .11.002q.242 0 .318-.204a.453.453 0 0 0 .012-.038 1.607 1.607 0 0 0 .037-.244q.073-.733.073-3.254zm-.88-7.15h.99v-2.42h-.99zm27.72-.682v.792q0 .198.044.242.036.036.202.057a2.339 2.339 0 0 0 .084.009q.163.02.59.022a19.846 19.846 0 0 0 .07 0q.418 0 .66-.022.228-.021.3-.217a.445.445 0 0 0 .008-.025q.066-.22.11-1.408-1.364.396-2.068.55z" fill="#221C9A" stroke-linecap="round" fill-rule="evenodd" stroke="#221C9A" stroke-width="4" paint-order="stroke" fill-opacity=".85" stroke-opacity=".85"/>
  <path d="M39.05 10.65h4.07v3.08h-4.07v1.364a78.428 78.428 0 0 0 2.874-.491 90.71 90.71 0 0 0 1.086-.213l.286 2.86.506.044q-.017-.117-.021-.336a8.109 8.109 0 0 1-.001-.148V9.44h4.07v1.694q2.09-.616 4.62-1.694l1.32 2.97q-1.606.682-2.904 1.1l2.684.33a63.887 63.887 0 0 1-.045.654q-.052.706-.108 1.205a15.641 15.641 0 0 1-.034.286 12.377 12.377 0 0 1-.097.626q-.052.284-.114.532a6.84 6.84 0 0 1-.042.162q-.106.386-.306.611a.921.921 0 0 1-.2.17q-.352.22-.748.308a3.757 3.757 0 0 1-.252.046q-.361.054-.914.086a151.309 151.309 0 0 1-.635.019q-.839.024-1.298.025a18.506 18.506 0 0 1-.047 0q-.773 0-1.923-.042a95.813 95.813 0 0 1-.057-.002q-.77-.022-1.518-.11-.066.286-.198.814h7.106v10.01h-4.07v-.66h-9.02v.66h-4.07V19.23h5.786q.037-.112.202-.91a118.101 118.101 0 0 0 .062-.3q-4.29.77-7.92.99l-.33-3.19q1.1-.066 2.2-.198V9.44h4.07zM11.22 29.24 11 26.05a37.728 37.728 0 0 0 .42.046q.52.053.794.062a3.139 3.139 0 0 0 .106.002.364.364 0 0 0 .065-.005q.097-.018.122-.094.031-.093.033-.604a18.348 18.348 0 0 0 0-.067v-2.244q-.726.176-1.32.264L11 19.89q.77-.11 1.54-.264V15.93H11v-3.3h1.54V9.11h3.63v3.52h.88V9.55h6.93v8.36h-2.86a7.67 7.67 0 0 1-.001.098q-.002.16-.01.408a34.493 34.493 0 0 0-.005.154q-.006.214-.006.33h2.882q0 2.362-.018 3.922a166.702 166.702 0 0 1-.004.357 55.829 55.829 0 0 1-.034 1.36q-.031.828-.087 1.533a41.033 41.033 0 0 1-.05.586q-.075.797-.155 1.24a5.739 5.739 0 0 1-.004.022q-.086.466-.267.782a1.564 1.564 0 0 1-.107.164 1.889 1.889 0 0 1-.148.175q-.166.174-.328.231a.52.52 0 0 1-.041.012q-.253.066-.737.066a21.37 21.37 0 0 1-.789-.015q-.696-.026-1.521-.095l-.11-2.728a12.473 12.473 0 0 1-1.485 2.93 14.016 14.016 0 0 1-.165.238l-1.782-3.058a10.523 10.523 0 0 1-.059.725q-.126 1.062-.458 1.461a.822.822 0 0 1-.077.08q-.502.459-2.11.462a11.339 11.339 0 0 1-.024 0q-.484 0-2.2-.11zm57.97-8.25 3.52-1.32a73.35 73.35 0 0 1 2.938 7.451 66.288 66.288 0 0 1 .362 1.129l-3.63 1.32a59.195 59.195 0 0 0-.217-.654l-.208-.611a112.585 112.585 0 0 0-.235-.671q-5.082.682-10.34 1.056l-.33-3.41 1.716-.132q1.1-3.19 2.134-6.688h-3.74v-3.41h14.41v3.41H69.3a143.854 143.854 0 0 1-.65 2.153q-.587 1.898-1.33 4.139a56.556 56.556 0 0 0 .639-.052q1.044-.091 2.595-.256-.378-.983-.881-2.247a353.96 353.96 0 0 0-.483-1.207zm-8.69-5.852V29.35h-3.85v-8.492a14.959 14.959 0 0 1-.441.641q-.408.56-.769.921l-.88-4.84q2.574-3.256 3.63-8.58l3.74.66a28.07 28.07 0 0 1-.68 3.217 22.702 22.702 0 0 1-.75 2.261zM25.3 29.24l-.22-3.41q1.798.098 2.225.109a3.515 3.515 0 0 0 .085.001 3.399 3.399 0 0 0 .151-.003q.299-.014.344-.085.052-.083.055-.613a11.883 11.883 0 0 0 0-.069V9.33h3.63v15.62q0 1.122-.022 1.76a6.395 6.395 0 0 1-.07.763 5.339 5.339 0 0 1-.084.425 5.038 5.038 0 0 1-.068.256q-.08.27-.171.44a1.056 1.056 0 0 1-.058.096.914.914 0 0 1-.176.189q-.091.075-.21.141a2.091 2.091 0 0 1-.175.088q-.396.176-.825.209a8.196 8.196 0 0 1-.237.014q-.39.019-.984.019a19.052 19.052 0 0 1-.401-.005q-.864-.019-2.789-.105zm2.09-4.95h-2.86V10.21h2.86zm47.19-11H62.59V9.88h11.99zm-56.672 4.62h-.858v-1.98h-.88v2.838q.955-.259 1.082-.301a.169.169 0 0 0 .018-.007l.11 3.41a126.499 126.499 0 0 0-.394.119q-.566.172-.816.255v2.706a70.466 70.466 0 0 1-.001.456q-.004.633-.021.93 1.454-2.53 1.718-7.387a38.673 38.673 0 0 0 .042-1.039zm21.142 7.15v.77h9.02v-.77zm0-2.31h9.02v-.77h-9.02zm-18.04-.55h-.484a26.858 26.858 0 0 1-.273 1.743q-.203 1.052-.475 1.931.427.053.682.064a2.773 2.773 0 0 0 .11.002q.242 0 .318-.204a.453.453 0 0 0 .012-.038 1.607 1.607 0 0 0 .037-.244q.073-.733.073-3.254zm-.88-7.15h.99v-2.42h-.99zm27.72-.682v.792q0 .198.044.242.036.036.202.057a2.339 2.339 0 0 0 .084.009q.163.02.59.022a19.846 19.846 0 0 0 .07 0q.418 0 .66-.022.228-.021.3-.217a.445.445 0 0 0 .008-.025q.066-.22.11-1.408-1.364.396-2.068.55z" fill="url(#e)" stroke-linecap="round" fill-rule="evenodd" stroke="url(#f)" stroke-width="4" paint-order="stroke"/>
</svg>
