<svg xmlns="http://www.w3.org/2000/svg" viewBox="0 0 88 41" width="88" height="41">
  <defs>
    <radialGradient id="patternGradient">
      <stop offset="0%" stop-color="#FFFFFF" stop-opacity="0.7" />
      <stop offset="100%" stop-color="#FFFFFF" stop-opacity="0" />
    </radialGradient>
    <pattern id="fillPattern" x="0" y="0" width="20" height="20" patternUnits="userSpaceOnUse">
      <rect x="3" y="3" width="4" height="4" fill="url(#patternGradient)" />
      <rect x="13" y="13" width="4" height="4" fill="url(#patternGradient)" />
    </pattern>
    <linearGradient id="fillGradient" cx="10%" cy="15%" gradientTransform="rotate(15)">
      <stop offset="14%" stop-color="#ff551c" />
      <stop offset="28%" stop-color="#ffdb07" />
      <stop offset="42%" stop-color="#7dff65" />
      <stop offset="57%" stop-color="#65cac0" />
      <stop offset="71%" stop-color="#489afd" />
      <stop offset="85%" stop-color="#b55ce1" />
      <stop offset="99%" stop-color="#71a0ff" />
    </linearGradient>
    <linearGradient id="strokeGradient" x1="0%" y1="0%" x2="0%" y2="100%">
      <stop offset="10%" stop-color="#c75d36" />
      <stop offset="95%" stop-color="#670000" />
    </linearGradient>
    <linearGradient id="textGradient" x1="0%" y1="0%" x2="0%" y2="50%" spreadMethod="reflect">
     <stop offset="40%" stop-color="#ffffff" />
     <stop offset="90%" stop-color="#ffb8f9" />
     <stop offset="100%" stop-color="#d8d6ff" />
    </linearGradient>
    <linearGradient id="textStrokeGradient">
     <stop offset="10%" stop-color="#1600f4" />
     <stop offset="95%" stop-color="#490FEC" />
    </linearGradient>
    <filter id="textShadow" height="150%">
      <feDropShadow dx="0" dy="3" flood-color="#221C9A" flood-opacity="0.85" stdDeviation="0" />
    </filter>
  </defs>
  <polygon points="2,21 14,3 74,3 86,21 74,39 14,39" stroke="url(#strokeGradient)" fill="url(#fillGradient)" />
  <polygon points="2,21 14,3 74,3 86,21 74,39 14,39" stroke-width="0" fill="url(#fillPattern)"
    transform="scale(0.9 0.88)" transform-origin="center" />
  <g id="svgGroup" fill="url(#textGradient)" stroke-linecap="round" fill-rule="evenodd"
    stroke="url(#textStrokeGradient)" stroke-width="4" paint-order="stroke" filter="url(#textShadow)">
    <path transform="translate(11, 9)"
      d="M 28.05 1.65 L 32.12 1.65 L 32.12 4.73 L 28.05 4.73 L 28.05 6.094 A 78.428 78.428 0 0 0 30.924 5.603 A 90.71 90.71 0 0 0 32.01 5.39 L 32.296 8.25 L 32.802 8.294 Q 32.785 8.177 32.781 7.958 A 8.109 8.109 0 0 1 32.78 7.81 L 32.78 0.44 L 36.85 0.44 L 36.85 2.134 Q 38.94 1.518 41.47 0.44 L 42.79 3.41 Q 41.184 4.092 39.886 4.51 L 42.57 4.84 A 63.887 63.887 0 0 1 42.525 5.494 Q 42.473 6.2 42.417 6.699 A 15.641 15.641 0 0 1 42.383 6.985 A 12.377 12.377 0 0 1 42.286 7.611 Q 42.234 7.895 42.172 8.143 A 6.84 6.84 0 0 1 42.13 8.305 Q 42.024 8.691 41.824 8.916 A 0.921 0.921 0 0 1 41.624 9.086 Q 41.272 9.306 40.876 9.394 A 3.757 3.757 0 0 1 40.624 9.44 Q 40.263 9.494 39.71 9.526 A 151.309 151.309 0 0 1 39.075 9.545 Q 38.236 9.569 37.777 9.57 A 18.506 18.506 0 0 1 37.73 9.57 Q 36.957 9.57 35.807 9.528 A 95.813 95.813 0 0 1 35.75 9.526 Q 34.98 9.504 34.232 9.416 Q 34.166 9.702 34.034 10.23 L 41.14 10.23 L 41.14 20.24 L 37.07 20.24 L 37.07 19.58 L 28.05 19.58 L 28.05 20.24 L 23.98 20.24 L 23.98 10.23 L 29.766 10.23 Q 29.803 10.118 29.968 9.32 A 118.101 118.101 0 0 0 30.03 9.02 Q 25.74 9.79 22.11 10.01 L 21.78 6.82 Q 22.88 6.754 23.98 6.622 L 23.98 0.44 L 28.05 0.44 L 28.05 1.65 Z M 0.22 20.24 L 0 17.05 A 37.728 37.728 0 0 0 0.42 17.096 Q 0.94 17.149 1.214 17.158 A 3.139 3.139 0 0 0 1.32 17.16 A 0.364 0.364 0 0 0 1.385 17.155 Q 1.482 17.137 1.507 17.061 Q 1.538 16.968 1.54 16.457 A 18.348 18.348 0 0 0 1.54 16.39 L 1.54 14.146 Q 0.814 14.322 0.22 14.41 L 0 10.89 Q 0.77 10.78 1.54 10.626 L 1.54 6.93 L 0 6.93 L 0 3.63 L 1.54 3.63 L 1.54 0.11 L 5.17 0.11 L 5.17 3.63 L 6.05 3.63 L 6.05 0.55 L 12.98 0.55 L 12.98 8.91 L 10.12 8.91 A 7.67 7.67 0 0 1 10.119 9.008 Q 10.117 9.168 10.109 9.416 A 34.493 34.493 0 0 0 10.104 9.57 Q 10.098 9.784 10.098 9.9 L 12.98 9.9 Q 12.98 12.262 12.962 13.822 A 166.702 166.702 0 0 1 12.958 14.179 A 55.829 55.829 0 0 1 12.924 15.539 Q 12.893 16.367 12.837 17.072 A 41.033 41.033 0 0 1 12.787 17.658 Q 12.712 18.455 12.632 18.898 A 5.739 5.739 0 0 1 12.628 18.92 Q 12.542 19.386 12.361 19.702 A 1.564 1.564 0 0 1 12.254 19.866 A 1.889 1.889 0 0 1 12.106 20.041 Q 11.94 20.215 11.778 20.272 A 0.52 0.52 0 0 1 11.737 20.284 Q 11.484 20.35 11 20.35 A 21.37 21.37 0 0 1 10.211 20.335 Q 9.515 20.309 8.69 20.24 L 8.58 17.512 A 12.473 12.473 0 0 1 7.095 20.442 A 14.016 14.016 0 0 1 6.93 20.68 L 5.148 17.622 A 10.523 10.523 0 0 1 5.089 18.347 Q 4.963 19.409 4.631 19.808 A 0.822 0.822 0 0 1 4.554 19.888 Q 4.052 20.347 2.444 20.35 A 11.339 11.339 0 0 1 2.42 20.35 Q 1.936 20.35 0.22 20.24 Z M 58.19 11.99 L 61.71 10.67 A 73.35 73.35 0 0 1 64.648 18.121 A 66.288 66.288 0 0 1 65.01 19.25 L 61.38 20.57 A 59.195 59.195 0 0 0 61.163 19.916 Q 61.065 19.626 60.955 19.305 A 112.585 112.585 0 0 0 60.72 18.634 Q 55.638 19.316 50.38 19.69 L 50.05 16.28 L 51.766 16.148 Q 52.866 12.958 53.9 9.46 L 50.16 9.46 L 50.16 6.05 L 64.57 6.05 L 64.57 9.46 L 58.3 9.46 A 143.854 143.854 0 0 1 57.65 11.613 Q 57.063 13.511 56.32 15.752 A 56.556 56.556 0 0 0 56.959 15.7 Q 58.003 15.609 59.554 15.444 Q 59.176 14.461 58.673 13.197 A 353.96 353.96 0 0 0 58.19 11.99 Z M 49.5 6.138 L 49.5 20.35 L 45.65 20.35 L 45.65 11.858 A 14.959 14.959 0 0 1 45.209 12.499 Q 44.801 13.059 44.44 13.42 L 43.56 8.58 Q 46.134 5.324 47.19 0 L 50.93 0.66 A 28.07 28.07 0 0 1 50.25 3.877 A 22.702 22.702 0 0 1 49.5 6.138 Z M 14.3 20.24 L 14.08 16.83 Q 15.878 16.928 16.305 16.939 A 3.515 3.515 0 0 0 16.39 16.94 A 3.399 3.399 0 0 0 16.541 16.937 Q 16.84 16.923 16.885 16.852 Q 16.937 16.769 16.94 16.239 A 11.883 11.883 0 0 0 16.94 16.17 L 16.94 0.33 L 20.57 0.33 L 20.57 15.95 Q 20.57 17.072 20.548 17.71 A 6.395 6.395 0 0 1 20.478 18.473 A 5.339 5.339 0 0 1 20.394 18.898 A 5.038 5.038 0 0 1 20.326 19.154 Q 20.246 19.424 20.155 19.594 A 1.056 1.056 0 0 1 20.097 19.69 A 0.914 0.914 0 0 1 19.921 19.879 Q 19.83 19.954 19.711 20.02 A 2.091 2.091 0 0 1 19.536 20.108 Q 19.14 20.284 18.711 20.317 A 8.196 8.196 0 0 1 18.474 20.331 Q 18.084 20.35 17.49 20.35 A 19.052 19.052 0 0 1 17.089 20.345 Q 16.225 20.326 14.3 20.24 Z M 16.39 15.29 L 13.53 15.29 L 13.53 1.21 L 16.39 1.21 L 16.39 15.29 Z M 63.58 4.29 L 51.59 4.29 L 51.59 0.88 L 63.58 0.88 L 63.58 4.29 Z M 6.908 8.91 L 6.05 8.91 L 6.05 6.93 L 5.17 6.93 L 5.17 9.768 Q 6.125 9.509 6.252 9.467 A 0.169 0.169 0 0 0 6.27 9.46 L 6.38 12.87 A 126.499 126.499 0 0 0 5.986 12.989 Q 5.42 13.161 5.17 13.244 L 5.17 15.95 A 70.466 70.466 0 0 1 5.169 16.406 Q 5.165 17.039 5.148 17.336 Q 6.602 14.806 6.866 9.949 A 38.673 38.673 0 0 0 6.908 8.91 Z M 28.05 16.06 L 28.05 16.83 L 37.07 16.83 L 37.07 16.06 L 28.05 16.06 Z M 28.05 13.75 L 37.07 13.75 L 37.07 12.98 L 28.05 12.98 L 28.05 13.75 Z M 10.01 13.2 L 9.526 13.2 A 26.858 26.858 0 0 1 9.253 14.943 Q 9.05 15.995 8.778 16.874 Q 9.205 16.927 9.46 16.938 A 2.773 2.773 0 0 0 9.57 16.94 Q 9.812 16.94 9.888 16.736 A 0.453 0.453 0 0 0 9.9 16.698 A 1.607 1.607 0 0 0 9.937 16.454 Q 10.01 15.721 10.01 13.2 Z M 9.13 6.05 L 10.12 6.05 L 10.12 3.63 L 9.13 3.63 L 9.13 6.05 Z M 36.85 5.368 L 36.85 6.16 Q 36.85 6.358 36.894 6.402 Q 36.93 6.438 37.096 6.459 A 2.339 2.339 0 0 0 37.18 6.468 Q 37.343 6.488 37.77 6.49 A 19.846 19.846 0 0 0 37.84 6.49 Q 38.258 6.49 38.5 6.468 Q 38.728 6.447 38.8 6.251 A 0.445 0.445 0 0 0 38.808 6.226 Q 38.874 6.006 38.918 4.818 Q 37.554 5.214 36.85 5.368 Z" />
  </g>
</svg>