<svg xmlns="http://www.w3.org/2000/svg" width="88" height="41">
  <defs>
    <linearGradient id="c" gradientTransform="rotate(15)">
      <stop offset="14%" stop-color="#ff551c"/>
      <stop offset="28%" stop-color="#ffdb07"/>
      <stop offset="42%" stop-color="#7dff65"/>
      <stop offset="57%" stop-color="#65cac0"/>
      <stop offset="71%" stop-color="#489afd"/>
      <stop offset="85%" stop-color="#b55ce1"/>
      <stop offset="99%" stop-color="#71a0ff"/>
    </linearGradient>
    <linearGradient id="b" x1="0%" y1="0%" x2="0%" y2="100%">
      <stop offset="10%" stop-color="#c75d36"/>
      <stop offset="95%" stop-color="#670000"/>
    </linearGradient>
    <linearGradient id="e" x1="0%" y1="0%" x2="0%" y2="50%" spreadMethod="reflect">
      <stop offset="40%" stop-color="#fff"/>
      <stop offset="90%" stop-color="#ffb8f9"/>
      <stop offset="100%" stop-color="#d8d6ff"/>
    </linearGradient>
    <linearGradient id="f">
      <stop offset="10%" stop-color="#1600f4"/>
      <stop offset="95%" stop-color="#490FEC"/>
    </linearGradient>
    <radialGradient id="a">
      <stop offset="0%" stop-color="#FFF" stop-opacity=".7"/>
      <stop offset="100%" stop-color="#FFF" stop-opacity="0"/>
    </radialGradient>
    <pattern id="d" x="0" y="0" width="20" height="20" patternUnits="userSpaceOnUse">
      <path fill="url(#a)" d="M3 3h4v4H3zM13 13h4v4h-4z"/>
    </pattern>
  </defs>
  <path stroke="url(#b)" fill="url(#c)" d="M2 21 14 3h60l12 18-12 18H14z"/>
  <path fill="url(#d)" d="M2 21 14 3h60l12 18-12 18H14z"/>
  <path d="m11.33 32.24-.22-3.19a80.024 80.024 0 0 0 .515.043q.843.067 1.135.067a.476.476 0 0 0 .065-.004q.075-.01.108-.047a.102.102 0 0 0 .025-.048.471.471 0 0 0 .007-.054q.012-.125.015-.46a24.66 24.66 0 0 0 0-.157v-2.266a152.138 152.138 0 0 1-.484.084q-.972.166-1.276.202L11 22.89q1.408-.198 1.98-.308V18.49H11v-3.3h1.98v-3.08h3.85v3.08h1.43v.88q2.222-1.672 3.85-3.85h4.4a21.028 21.028 0 0 0 1.547 1.768 17.846 17.846 0 0 0 .785.75 19.238 19.238 0 0 0 1.25 1.029q.678.514 1.47 1.034a32.364 32.364 0 0 0 .228.149l-.99 3.96a22.938 22.938 0 0 1-1.153-.784 28.097 28.097 0 0 1-.717-.536v1.54h-9.02v-1.584a33.739 33.739 0 0 1-.758.584q-.603.45-1.112.78l-.616-2.42h-.594v3.3q.851-.203 1.254-.312a11.128 11.128 0 0 0 .066-.018l.132.99H30.91v9.79h-4.07v-.88H22v.88h-3.85v-7.26q-.638.154-1.32.33v2.64a64.56 64.56 0 0 1-.002.53q-.006.75-.031 1.23a6.344 6.344 0 0 1-.084.763 5.329 5.329 0 0 1-.092.425q-.124.476-.281.722a.966.966 0 0 1-.049.07.995.995 0 0 1-.183.179q-.097.074-.221.14a2.364 2.364 0 0 1-.212.099q-.429.176-.913.209a10.588 10.588 0 0 1-.265.014q-.298.013-.695.017a38.095 38.095 0 0 1-.382.002q-.35 0-1.875-.096a228.92 228.92 0 0 1-.215-.014zm27.39-18.59h4.07v3.08h-4.07v1.364a78.428 78.428 0 0 0 2.874-.491 90.71 90.71 0 0 0 1.086-.213l.286 2.86.506.044q-.017-.117-.021-.336a8.109 8.109 0 0 1-.001-.148v-7.37h4.07v1.694q2.09-.616 4.62-1.694l1.32 2.97q-1.606.682-2.904 1.1l2.684.33a63.887 63.887 0 0 1-.045.654q-.052.706-.108 1.205a15.641 15.641 0 0 1-.034.286 12.377 12.377 0 0 1-.097.626q-.052.284-.114.532a6.84 6.84 0 0 1-.042.162q-.106.386-.306.61a.921.921 0 0 1-.2.17q-.352.22-.748.309a3.757 3.757 0 0 1-.252.046q-.361.054-.914.086a151.309 151.309 0 0 1-.635.019q-.839.024-1.298.025a18.506 18.506 0 0 1-.047 0q-.773 0-1.923-.042a95.813 95.813 0 0 1-.057-.002q-.77-.022-1.518-.11-.066.286-.198.814h7.106v10.01h-4.07v-.66h-9.02v.66h-4.07V22.23h5.786q.037-.112.202-.91a118.101 118.101 0 0 0 .062-.3q-4.29.77-7.92.99l-.33-3.19q1.1-.066 2.2-.198V12.44h4.07zm30.14 10.34 3.52-1.32a73.35 73.35 0 0 1 2.938 7.45 66.288 66.288 0 0 1 .362 1.13l-3.63 1.32a59.195 59.195 0 0 0-.217-.654l-.208-.611a112.585 112.585 0 0 0-.235-.671q-5.082.682-10.34 1.056l-.33-3.41 1.716-.132q1.1-3.19 2.134-6.688h-3.74v-3.41h14.41v3.41h-6.27a143.854 143.854 0 0 1-.65 2.153q-.588 1.898-1.33 4.139a56.556 56.556 0 0 0 .639-.052q1.044-.091 2.595-.256-.378-.983-.881-2.247a353.96 353.96 0 0 0-.483-1.207zm-8.69-5.852V32.35h-3.85v-8.492a14.959 14.959 0 0 1-.441.64q-.408.56-.769.922l-.88-4.84q2.574-3.256 3.63-8.58l3.74.66a28.07 28.07 0 0 1-.68 3.217 22.702 22.702 0 0 1-.75 2.26zm14.08-1.848H62.26v-3.41h11.99zM38.72 28.06v.77h9.02v-.77zm0-2.31h9.02v-.77h-9.02zm-16.72 0v2.53h4.84v-2.53zm-.308-7.81h5.324a23.646 23.646 0 0 1-2.222-2.45 26.742 26.742 0 0 1-.484-.63q-1.188 1.65-2.618 3.08zm25.828-.572v.792q0 .198.044.242.036.036.202.057a2.339 2.339 0 0 0 .084.009q.163.02.59.022a19.846 19.846 0 0 0 .07 0q.418 0 .66-.022.228-.021.3-.217a.445.445 0 0 0 .008-.025q.066-.22.11-1.408-1.364.396-2.068.55z" fill="#221C9A" stroke-linecap="round" fill-rule="evenodd" stroke="#221C9A" stroke-width="4" paint-order="stroke" fill-opacity=".85" stroke-opacity=".85"/>
  <path d="m11.33 29.24-.22-3.19a80.024 80.024 0 0 0 .515.043q.843.067 1.135.067a.476.476 0 0 0 .065-.004q.075-.01.108-.047a.102.102 0 0 0 .025-.048.471.471 0 0 0 .007-.054q.012-.125.015-.46a24.66 24.66 0 0 0 0-.157v-2.266a152.138 152.138 0 0 1-.484.084q-.972.166-1.276.202L11 19.89q1.408-.198 1.98-.308V15.49H11v-3.3h1.98V9.11h3.85v3.08h1.43v.88q2.222-1.672 3.85-3.85h4.4a21.028 21.028 0 0 0 1.547 1.768 17.846 17.846 0 0 0 .785.751 19.238 19.238 0 0 0 1.25 1.028q.678.514 1.47 1.034a32.364 32.364 0 0 0 .228.149l-.99 3.96a22.938 22.938 0 0 1-1.153-.784 28.097 28.097 0 0 1-.717-.536v1.54h-9.02v-1.584a33.739 33.739 0 0 1-.758.584q-.603.45-1.112.78l-.616-2.42h-.594v3.3q.851-.203 1.254-.312a11.128 11.128 0 0 0 .066-.018l.132.99H30.91v9.79h-4.07v-.88H22v.88h-3.85v-7.26q-.638.154-1.32.33v2.64a64.56 64.56 0 0 1-.002.531q-.006.75-.031 1.229a6.344 6.344 0 0 1-.084.763 5.329 5.329 0 0 1-.092.425q-.124.476-.281.722a.966.966 0 0 1-.049.07.995.995 0 0 1-.183.179q-.097.074-.221.14a2.364 2.364 0 0 1-.212.099q-.429.176-.913.209a10.588 10.588 0 0 1-.265.014q-.298.013-.695.017a38.095 38.095 0 0 1-.382.002q-.35 0-1.875-.096a228.92 228.92 0 0 1-.215-.014zm27.39-18.59h4.07v3.08h-4.07v1.364a78.428 78.428 0 0 0 2.874-.491 90.71 90.71 0 0 0 1.086-.213l.286 2.86.506.044q-.017-.117-.021-.336a8.109 8.109 0 0 1-.001-.148V9.44h4.07v1.694q2.09-.616 4.62-1.694l1.32 2.97q-1.606.682-2.904 1.1l2.684.33a63.887 63.887 0 0 1-.045.654q-.052.706-.108 1.205a15.641 15.641 0 0 1-.034.286 12.377 12.377 0 0 1-.097.626q-.052.284-.114.532a6.84 6.84 0 0 1-.042.162q-.106.386-.306.611a.921.921 0 0 1-.2.17q-.352.22-.748.308a3.757 3.757 0 0 1-.252.046q-.361.054-.914.086a151.309 151.309 0 0 1-.635.019q-.839.024-1.298.025a18.506 18.506 0 0 1-.047 0q-.773 0-1.923-.042a95.813 95.813 0 0 1-.057-.002q-.77-.022-1.518-.11-.066.286-.198.814h7.106v10.01h-4.07v-.66h-9.02v.66h-4.07V19.23h5.786q.037-.112.202-.91a118.101 118.101 0 0 0 .062-.3q-4.29.77-7.92.99l-.33-3.19q1.1-.066 2.2-.198V9.44h4.07zm30.14 10.34 3.52-1.32a73.35 73.35 0 0 1 2.938 7.451 66.288 66.288 0 0 1 .362 1.129l-3.63 1.32a59.195 59.195 0 0 0-.217-.654l-.208-.611a112.585 112.585 0 0 0-.235-.671q-5.082.682-10.34 1.056l-.33-3.41 1.716-.132q1.1-3.19 2.134-6.688h-3.74v-3.41h14.41v3.41h-6.27a143.854 143.854 0 0 1-.65 2.153q-.588 1.898-1.33 4.139a56.556 56.556 0 0 0 .639-.052q1.044-.091 2.595-.256-.378-.983-.881-2.247a353.96 353.96 0 0 0-.483-1.207zm-8.69-5.852V29.35h-3.85v-8.492a14.959 14.959 0 0 1-.441.641q-.408.56-.769.921l-.88-4.84q2.574-3.256 3.63-8.58l3.74.66a28.07 28.07 0 0 1-.68 3.217 22.702 22.702 0 0 1-.75 2.261zm14.08-1.848H62.26V9.88h11.99zM38.72 25.06v.77h9.02v-.77zm0-2.31h9.02v-.77h-9.02zm-16.72 0v2.53h4.84v-2.53zm-.308-7.81h5.324a23.646 23.646 0 0 1-2.222-2.449 26.742 26.742 0 0 1-.484-.631q-1.188 1.65-2.618 3.08zm25.828-.572v.792q0 .198.044.242.036.036.202.057a2.339 2.339 0 0 0 .084.009q.163.02.59.022a19.846 19.846 0 0 0 .07 0q.418 0 .66-.022.228-.021.3-.217a.445.445 0 0 0 .008-.025q.066-.22.11-1.408-1.364.396-2.068.55z" fill="url(#e)" stroke-linecap="round" fill-rule="evenodd" stroke="url(#f)" stroke-width="4" paint-order="stroke"/>
</svg>
