<svg xmlns="http://www.w3.org/2000/svg" viewBox="0 0 88 41" width="88" height="41">
  <defs>
    <radialGradient id="patternGradient">
      <stop offset="0%" stop-color="#FFFFFF" stop-opacity="0.7" />
      <stop offset="100%" stop-color="#FFFFFF" stop-opacity="0" />
    </radialGradient>
    <pattern id="fillPattern" x="0" y="0" width="20" height="20" patternUnits="userSpaceOnUse">
      <rect x="3" y="3" width="4" height="4" fill="url(#patternGradient)" />
      <rect x="13" y="13" width="4" height="4" fill="url(#patternGradient)" />
    </pattern>
    <linearGradient id="fillGradient" cx="10%" cy="15%" gradientTransform="rotate(15)">
      <stop offset="14%" stop-color="#ff551c" />
      <stop offset="28%" stop-color="#ffdb07" />
      <stop offset="42%" stop-color="#7dff65" />
      <stop offset="57%" stop-color="#65cac0" />
      <stop offset="71%" stop-color="#489afd" />
      <stop offset="85%" stop-color="#b55ce1" />
      <stop offset="99%" stop-color="#71a0ff" />
    </linearGradient>
    <linearGradient id="strokeGradient" x1="0%" y1="0%" x2="0%" y2="100%">
      <stop offset="10%" stop-color="#c75d36" />
      <stop offset="95%" stop-color="#670000" />
    </linearGradient>
    <linearGradient id="textGradient" x1="0%" y1="0%" x2="0%" y2="50%" spreadMethod="reflect">
     <stop offset="40%" stop-color="#ffffff" />
     <stop offset="90%" stop-color="#ffb8f9" />
     <stop offset="100%" stop-color="#d8d6ff" />
    </linearGradient>
    <linearGradient id="textStrokeGradient">
     <stop offset="10%" stop-color="#1600f4" />
     <stop offset="95%" stop-color="#490FEC" />
    </linearGradient>
    <filter id="textShadow" height="150%">
      <feDropShadow dx="0" dy="3" flood-color="#221C9A" flood-opacity="0.85" stdDeviation="0" />
    </filter>
  </defs>
  <polygon points="2,21 14,3 74,3 86,21 74,39 14,39" stroke="url(#strokeGradient)" fill="url(#fillGradient)" />
  <polygon points="2,21 14,3 74,3 86,21 74,39 14,39" stroke-width="0" fill="url(#fillPattern)"
    transform="scale(0.9 0.88)" transform-origin="center" />
  <g id="svgGroup" fill="url(#textGradient)" stroke-linecap="round" fill-rule="evenodd"
    stroke="url(#textStrokeGradient)" stroke-width="4" paint-order="stroke" filter="url(#textShadow)">
    <path transform="translate(11, 9)"
      d="M 0.33 20.24 L 0.11 17.05 A 80.024 80.024 0 0 0 0.625 17.093 Q 1.468 17.16 1.76 17.16 A 0.476 0.476 0 0 0 1.825 17.156 Q 1.9 17.146 1.933 17.109 A 0.102 0.102 0 0 0 1.958 17.061 A 0.471 0.471 0 0 0 1.965 17.007 Q 1.977 16.882 1.98 16.547 A 24.66 24.66 0 0 0 1.98 16.39 L 1.98 14.124 A 152.138 152.138 0 0 1 1.496 14.208 Q 0.524 14.374 0.22 14.41 L 0 10.89 Q 1.408 10.692 1.98 10.582 L 1.98 6.49 L 0 6.49 L 0 3.19 L 1.98 3.19 L 1.98 0.11 L 5.83 0.11 L 5.83 3.19 L 7.26 3.19 L 7.26 4.07 Q 9.482 2.398 11.11 0.22 L 15.51 0.22 A 21.028 21.028 0 0 0 17.057 1.988 A 17.846 17.846 0 0 0 17.842 2.739 A 19.238 19.238 0 0 0 19.092 3.767 Q 19.77 4.281 20.562 4.801 A 32.364 32.364 0 0 0 20.79 4.95 L 19.8 8.91 A 22.938 22.938 0 0 1 18.647 8.126 A 28.097 28.097 0 0 1 17.93 7.59 L 17.93 9.13 L 8.91 9.13 L 8.91 7.546 A 33.739 33.739 0 0 1 8.152 8.13 Q 7.549 8.58 7.04 8.91 L 6.424 6.49 L 5.83 6.49 L 5.83 9.79 Q 6.681 9.587 7.084 9.478 A 11.128 11.128 0 0 0 7.15 9.46 L 7.282 10.45 L 19.91 10.45 L 19.91 20.24 L 15.84 20.24 L 15.84 19.36 L 11 19.36 L 11 20.24 L 7.15 20.24 L 7.15 12.98 Q 6.512 13.134 5.83 13.31 L 5.83 15.95 A 64.56 64.56 0 0 1 5.828 16.481 Q 5.822 17.231 5.797 17.71 A 6.344 6.344 0 0 1 5.713 18.473 A 5.329 5.329 0 0 1 5.621 18.898 Q 5.497 19.374 5.34 19.62 A 0.966 0.966 0 0 1 5.291 19.69 A 0.995 0.995 0 0 1 5.108 19.869 Q 5.011 19.943 4.887 20.009 A 2.364 2.364 0 0 1 4.675 20.108 Q 4.246 20.284 3.762 20.317 A 10.588 10.588 0 0 1 3.497 20.331 Q 3.199 20.344 2.802 20.348 A 38.095 38.095 0 0 1 2.42 20.35 Q 2.07 20.35 0.545 20.254 A 228.92 228.92 0 0 1 0.33 20.24 Z M 27.72 1.65 L 31.79 1.65 L 31.79 4.73 L 27.72 4.73 L 27.72 6.094 A 78.428 78.428 0 0 0 30.594 5.603 A 90.71 90.71 0 0 0 31.68 5.39 L 31.966 8.25 L 32.472 8.294 Q 32.455 8.177 32.451 7.958 A 8.109 8.109 0 0 1 32.45 7.81 L 32.45 0.44 L 36.52 0.44 L 36.52 2.134 Q 38.61 1.518 41.14 0.44 L 42.46 3.41 Q 40.854 4.092 39.556 4.51 L 42.24 4.84 A 63.887 63.887 0 0 1 42.195 5.494 Q 42.143 6.2 42.087 6.699 A 15.641 15.641 0 0 1 42.053 6.985 A 12.377 12.377 0 0 1 41.956 7.611 Q 41.904 7.895 41.842 8.143 A 6.84 6.84 0 0 1 41.8 8.305 Q 41.694 8.691 41.494 8.916 A 0.921 0.921 0 0 1 41.294 9.086 Q 40.942 9.306 40.546 9.394 A 3.757 3.757 0 0 1 40.294 9.44 Q 39.933 9.494 39.38 9.526 A 151.309 151.309 0 0 1 38.745 9.545 Q 37.906 9.569 37.447 9.57 A 18.506 18.506 0 0 1 37.4 9.57 Q 36.627 9.57 35.477 9.528 A 95.813 95.813 0 0 1 35.42 9.526 Q 34.65 9.504 33.902 9.416 Q 33.836 9.702 33.704 10.23 L 40.81 10.23 L 40.81 20.24 L 36.74 20.24 L 36.74 19.58 L 27.72 19.58 L 27.72 20.24 L 23.65 20.24 L 23.65 10.23 L 29.436 10.23 Q 29.473 10.118 29.638 9.32 A 118.101 118.101 0 0 0 29.7 9.02 Q 25.41 9.79 21.78 10.01 L 21.45 6.82 Q 22.55 6.754 23.65 6.622 L 23.65 0.44 L 27.72 0.44 L 27.72 1.65 Z M 57.86 11.99 L 61.38 10.67 A 73.35 73.35 0 0 1 64.318 18.121 A 66.288 66.288 0 0 1 64.68 19.25 L 61.05 20.57 A 59.195 59.195 0 0 0 60.833 19.916 Q 60.735 19.626 60.625 19.305 A 112.585 112.585 0 0 0 60.39 18.634 Q 55.308 19.316 50.05 19.69 L 49.72 16.28 L 51.436 16.148 Q 52.536 12.958 53.57 9.46 L 49.83 9.46 L 49.83 6.05 L 64.24 6.05 L 64.24 9.46 L 57.97 9.46 A 143.854 143.854 0 0 1 57.32 11.613 Q 56.732 13.511 55.99 15.752 A 56.556 56.556 0 0 0 56.629 15.7 Q 57.673 15.609 59.224 15.444 Q 58.846 14.461 58.343 13.197 A 353.96 353.96 0 0 0 57.86 11.99 Z M 49.17 6.138 L 49.17 20.35 L 45.32 20.35 L 45.32 11.858 A 14.959 14.959 0 0 1 44.879 12.499 Q 44.471 13.059 44.11 13.42 L 43.23 8.58 Q 45.804 5.324 46.86 0 L 50.6 0.66 A 28.07 28.07 0 0 1 49.92 3.877 A 22.702 22.702 0 0 1 49.17 6.138 Z M 63.25 4.29 L 51.26 4.29 L 51.26 0.88 L 63.25 0.88 L 63.25 4.29 Z M 27.72 16.06 L 27.72 16.83 L 36.74 16.83 L 36.74 16.06 L 27.72 16.06 Z M 27.72 13.75 L 36.74 13.75 L 36.74 12.98 L 27.72 12.98 L 27.72 13.75 Z M 11 13.75 L 11 16.28 L 15.84 16.28 L 15.84 13.75 L 11 13.75 Z M 10.692 5.94 L 16.016 5.94 A 23.646 23.646 0 0 1 13.794 3.491 A 26.742 26.742 0 0 1 13.31 2.86 Q 12.122 4.51 10.692 5.94 Z M 36.52 5.368 L 36.52 6.16 Q 36.52 6.358 36.564 6.402 Q 36.6 6.438 36.766 6.459 A 2.339 2.339 0 0 0 36.85 6.468 Q 37.013 6.488 37.44 6.49 A 19.846 19.846 0 0 0 37.51 6.49 Q 37.928 6.49 38.17 6.468 Q 38.398 6.447 38.47 6.251 A 0.445 0.445 0 0 0 38.478 6.226 Q 38.544 6.006 38.588 4.818 Q 37.224 5.214 36.52 5.368 Z" />
  </g>
</svg>