<svg xmlns="http://www.w3.org/2000/svg" width="88" height="41">
  <path stroke="#1A73F6" fill="#46cDFF" d="M2 21 14 3h60l12 18-12 18H14z"/>
  <path d="M61.9 27.1v-3.9h3.6v8h-3.6v-1h-10v1h-3.6v-8h3.6v3.9h3.16V22H49.1v-7.4h3.5V19h2.46v-6h3.68v6h2.46v-4.4h3.5V22h-5.96v5.1zm-35.5 3.4h-6.9v.9h-3.4v-18h10.2v3h-3.14l2.84.8q-.46 2.34-1.24 4.56.796 1.026 1.393 1.853a40.735 40.735 0 0 1 .347.487L24.8 27q-.64-.9-1.44-1.94-.7 1.38-1.44 2.44h4.48zm-13.04-2.48-.46.08q-.103-1.083-.324-2.446a56.086 56.086 0 0 0-.076-.454l.9-.16v-.44H7.7V13.3h8v2.8h-1.2v.8h1v1.9h-1v.8h.9v1.9h-.9v.8h1.2v2.6q0 1.863-.061 3.046a24.189 24.189 0 0 1-.029.474 11.191 11.191 0 0 1-.072.714q-.092.674-.258 1.123a2.923 2.923 0 0 1-.04.103 3.116 3.116 0 0 1-.155.326q-.182.327-.396.476a.749.749 0 0 1-.099.058 1.436 1.436 0 0 1-.28.099q-.28.07-.677.079a5.373 5.373 0 0 1-.133.002q-.72 0-1.6-.1l-.14-2.1-.36.08a26.162 26.162 0 0 0-.034-.347q-.089-.876-.358-3.218a1122.484 1122.484 0 0 0-.048-.415l1.24-.26q.24 1.68.42 3.34a4.782 4.782 0 0 0 .26.016 6.102 6.102 0 0 0 .22.004q.08 0 .12-.01.039-.01.079-.097a.599.599 0 0 0 .001-.003.493.493 0 0 0 .023-.063q.019-.069.032-.167a2.025 2.025 0 0 0 .005-.04zM70.4 13.8l3.9.1q-.3 4.34-.3 8.7 0 1.577.188 2.501a4.867 4.867 0 0 0 .062.269 3.695 3.695 0 0 0 .162.486q.102.245.232.429a1.396 1.396 0 0 0 .376.375 1.807 1.807 0 0 0 .473.214q.231.069.51.1A4.473 4.473 0 0 0 76.5 27a4.086 4.086 0 0 0 2.611-.943 5.401 5.401 0 0 0 .309-.267 6.501 6.501 0 0 0 .84-.974q.728-1.015 1.416-2.587a24.298 24.298 0 0 0 .224-.529l3.4 1.3q-.984 2.625-2.257 4.303A9 9 0 0 1 81.63 28.8a7.781 7.781 0 0 1-5.118 1.8 9.823 9.823 0 0 1-.012 0 13.933 13.933 0 0 1-1.412-.067q-1.462-.149-2.388-.633a3.812 3.812 0 0 1-1.48-1.401 5.497 5.497 0 0 1-.49-1.019q-.63-1.72-.63-4.88a128.835 128.835 0 0 1 .142-6.153A109.713 109.713 0 0 1 70.4 13.8zm-27.1 3.4h2.6v3.2h-2.6v1.8a20.787 20.787 0 0 1-.058 1.6q-.126 1.637-.532 2.73-.59 1.59-1.92 2.51a7.383 7.383 0 0 1-1.06.599q-1.15.541-2.83.961l-1.2-3.2q1.02-.3 1.58-.49t1.08-.5q.481-.287.697-.548a1.139 1.139 0 0 0 .033-.042 1.63 1.63 0 0 0 .137-.22q.13-.248.243-.62.17-.56.2-1.15.03-.59.03-1.63v-1.8h-5.2v-3.2h5.2v-3.6h3.6zm-13.6-3.4 3.74.4a31.094 31.094 0 0 0-.866 5.637A36.925 36.925 0 0 0 32.5 22.2q0 4.28.94 8l-3.74.4q-1-3.98-1-8.4a35.074 35.074 0 0 1 .66-6.891 31.698 31.698 0 0 1 .34-1.509zM7.6 25l1.5.3a36.456 36.456 0 0 1-.214 3.358A44.723 44.723 0 0 1 8.6 30.8L7 30.2a35.273 35.273 0 0 0 .505-3.607A29.945 29.945 0 0 0 7.6 25zm3.4 5.2-1.4.2q-.019-.992-.178-4.593A1119.741 1119.741 0 0 0 9.4 25.3l1.3-.2q.2 2.7.3 5.1zm11.78-13.8H19.5v2.28l1-1.48a48.764 48.764 0 0 1 1.336 1.273 41.838 41.838 0 0 1 .484.487 18.546 18.546 0 0 0 .339-1.628 15.489 15.489 0 0 0 .121-.932zm-3.28 4.42v4.42q.9-1.34 1.58-2.84-.74-.8-1.58-1.58zm0 6.68h1.8l-1.8-1.4zm-8.6-10.6h.9v-.8h-.9zm.9 5.4v-.8h-.9v.8zm0-2.7v-.8h-.9v.8z" fill="#298DFA" stroke-linecap="round" fill-rule="evenodd" stroke="#298DFA" stroke-width="4" paint-order="stroke" fill-opacity=".85" stroke-opacity=".85"/>
  <path d="M61.9 24.1v-3.9h3.6v8h-3.6v-1h-10v1h-3.6v-8h3.6v3.9h3.16V19H49.1v-7.4h3.5V16h2.46v-6h3.68v6h2.46v-4.4h3.5V19h-5.96v5.1zm-35.5 3.4h-6.9v.9h-3.4v-18h10.2v3h-3.14l2.84.8q-.46 2.34-1.24 4.56.796 1.026 1.393 1.853a40.735 40.735 0 0 1 .347.487L24.8 24q-.64-.9-1.44-1.94-.7 1.38-1.44 2.44h4.48zm-13.04-2.48-.46.08q-.103-1.083-.324-2.446a56.086 56.086 0 0 0-.076-.454l.9-.16v-.44H7.7V10.3h8v2.8h-1.2v.8h1v1.9h-1v.8h.9v1.9h-.9v.8h1.2v2.6q0 1.863-.061 3.046a24.189 24.189 0 0 1-.029.474 11.191 11.191 0 0 1-.072.714q-.092.674-.258 1.123a2.923 2.923 0 0 1-.04.103 3.116 3.116 0 0 1-.155.326q-.182.327-.396.476a.749.749 0 0 1-.099.058 1.436 1.436 0 0 1-.28.099q-.28.07-.677.079a5.373 5.373 0 0 1-.133.002q-.72 0-1.6-.1l-.14-2.1-.36.08a26.162 26.162 0 0 0-.034-.347q-.089-.876-.358-3.218a1122.484 1122.484 0 0 0-.048-.415l1.24-.26q.24 1.68.42 3.34a4.782 4.782 0 0 0 .26.016 6.102 6.102 0 0 0 .22.004q.08 0 .12-.01.039-.01.079-.097a.599.599 0 0 0 .001-.003.493.493 0 0 0 .023-.063q.019-.069.032-.167a2.025 2.025 0 0 0 .005-.04zM70.4 10.8l3.9.1q-.3 4.34-.3 8.7 0 1.577.188 2.501a4.867 4.867 0 0 0 .062.269 3.695 3.695 0 0 0 .162.486q.102.245.232.429a1.396 1.396 0 0 0 .376.375 1.807 1.807 0 0 0 .473.214q.231.069.51.1A4.473 4.473 0 0 0 76.5 24a4.086 4.086 0 0 0 2.611-.943 5.401 5.401 0 0 0 .309-.267 6.501 6.501 0 0 0 .84-.974q.728-1.015 1.416-2.587a24.298 24.298 0 0 0 .224-.529l3.4 1.3q-.984 2.625-2.257 4.303A9 9 0 0 1 81.63 25.8a7.781 7.781 0 0 1-5.118 1.8 9.823 9.823 0 0 1-.012 0 13.933 13.933 0 0 1-1.412-.067q-1.462-.149-2.388-.633a3.812 3.812 0 0 1-1.48-1.401 5.497 5.497 0 0 1-.49-1.019q-.63-1.72-.63-4.88a128.835 128.835 0 0 1 .142-6.153A109.713 109.713 0 0 1 70.4 10.8zm-27.1 3.4h2.6v3.2h-2.6v1.8a20.787 20.787 0 0 1-.058 1.6q-.126 1.637-.532 2.73-.59 1.59-1.92 2.51a7.383 7.383 0 0 1-1.06.599q-1.15.541-2.83.961l-1.2-3.2q1.02-.3 1.58-.49t1.08-.5q.481-.287.697-.548a1.139 1.139 0 0 0 .033-.042 1.63 1.63 0 0 0 .137-.22q.13-.248.243-.62.17-.56.2-1.15.03-.59.03-1.63v-1.8h-5.2v-3.2h5.2v-3.6h3.6zm-13.6-3.4 3.74.4a31.094 31.094 0 0 0-.866 5.637A36.925 36.925 0 0 0 32.5 19.2q0 4.28.94 8l-3.74.4q-1-3.98-1-8.4a35.074 35.074 0 0 1 .66-6.891 31.698 31.698 0 0 1 .34-1.509zM7.6 22l1.5.3a36.456 36.456 0 0 1-.214 3.358A44.723 44.723 0 0 1 8.6 27.8L7 27.2a35.273 35.273 0 0 0 .505-3.607A29.945 29.945 0 0 0 7.6 22zm3.4 5.2-1.4.2q-.019-.992-.178-4.593A1119.741 1119.741 0 0 0 9.4 22.3l1.3-.2q.2 2.7.3 5.1zm11.78-13.8H19.5v2.28l1-1.48a48.764 48.764 0 0 1 1.336 1.273 41.838 41.838 0 0 1 .484.487 18.546 18.546 0 0 0 .339-1.628 15.489 15.489 0 0 0 .121-.932zm-3.28 4.42v4.42q.9-1.34 1.58-2.84-.74-.8-1.58-1.58zm0 6.68h1.8l-1.8-1.4zm-8.6-10.6h.9v-.8h-.9zm.9 5.4v-.8h-.9v.8zm0-2.7v-.8h-.9v.8z" fill="#FFF" stroke-linecap="round" fill-rule="evenodd" stroke="#4CF" stroke-width="4" paint-order="stroke"/>
</svg>
