<svg xmlns="http://www.w3.org/2000/svg" viewBox="0 0 88 41" width="88" height="41">
  <defs>
    <filter id="textShadow" height="150%">
      <feDropShadow dx="0" dy="3" flood-color="#298DFA" flood-opacity="0.85" stdDeviation="0" />       
    </filter>
  </defs>
  <polygon points="2,21 14,3 74,3 86,21 74,39 14,39" stroke="#1A73F6" fill="#46cDFF"/>
  <g id="svgGroup" fill="#FFFFFF" stroke-linecap="round" fill-rule="evenodd" stroke="#44CCFF" stroke-width="4" paint-order="stroke" filter="url(#textShadow)">
    <path transform="translate(7, 10)" d="M 54.9 14.1 L 54.9 10.2 L 58.5 10.2 L 58.5 18.2 L 54.9 18.2 L 54.9 17.2 L 44.9 17.2 L 44.9 18.2 L 41.3 18.2 L 41.3 10.2 L 44.9 10.2 L 44.9 14.1 L 48.06 14.1 L 48.06 9 L 42.1 9 L 42.1 1.6 L 45.6 1.6 L 45.6 6 L 48.06 6 L 48.06 0 L 51.74 0 L 51.74 6 L 54.2 6 L 54.2 1.6 L 57.7 1.6 L 57.7 9 L 51.74 9 L 51.74 14.1 L 54.9 14.1 Z M 19.4 17.5 L 12.5 17.5 L 12.5 18.4 L 9.1 18.4 L 9.1 0.4 L 19.3 0.4 L 19.3 3.4 L 16.16 3.4 L 19 4.2 Q 18.54 6.54 17.76 8.76 Q 18.556 9.786 19.153 10.613 A 40.735 40.735 0 0 1 19.5 11.1 L 17.8 14 Q 17.16 13.1 16.36 12.06 Q 15.66 13.44 14.92 14.5 L 19.4 14.5 L 19.4 17.5 Z M 6.36 15.02 L 5.9 15.1 Q 5.797 14.017 5.576 12.654 A 56.086 56.086 0 0 0 5.5 12.2 L 6.4 12.04 L 6.4 11.6 L 0.7 11.6 L 0.7 0.3 L 8.7 0.3 L 8.7 3.1 L 7.5 3.1 L 7.5 3.9 L 8.5 3.9 L 8.5 5.8 L 7.5 5.8 L 7.5 6.6 L 8.4 6.6 L 8.4 8.5 L 7.5 8.5 L 7.5 9.3 L 8.7 9.3 L 8.7 11.9 Q 8.7 13.763 8.639 14.946 A 24.189 24.189 0 0 1 8.61 15.42 A 11.191 11.191 0 0 1 8.538 16.134 Q 8.446 16.808 8.28 17.257 A 2.923 2.923 0 0 1 8.24 17.36 A 3.116 3.116 0 0 1 8.085 17.686 Q 7.903 18.013 7.689 18.162 A 0.749 0.749 0 0 1 7.59 18.22 A 1.436 1.436 0 0 1 7.31 18.319 Q 7.03 18.389 6.633 18.398 A 5.373 5.373 0 0 1 6.5 18.4 Q 5.78 18.4 4.9 18.3 L 4.76 16.2 L 4.4 16.28 A 26.162 26.162 0 0 0 4.366 15.933 Q 4.277 15.057 4.008 12.715 A 1122.484 1122.484 0 0 0 3.96 12.3 L 5.2 12.04 Q 5.44 13.72 5.62 15.38 A 4.782 4.782 0 0 0 5.88 15.396 A 6.102 6.102 0 0 0 6.1 15.4 Q 6.18 15.4 6.22 15.39 Q 6.259 15.38 6.299 15.293 A 0.599 0.599 0 0 0 6.3 15.29 A 0.493 0.493 0 0 0 6.323 15.227 Q 6.342 15.158 6.355 15.06 A 2.025 2.025 0 0 0 6.36 15.02 Z M 63.4 0.8 L 67.3 0.9 Q 67 5.24 67 9.6 Q 67 11.177 67.188 12.101 A 4.867 4.867 0 0 0 67.25 12.37 A 3.695 3.695 0 0 0 67.412 12.856 Q 67.514 13.101 67.644 13.285 A 1.396 1.396 0 0 0 68.02 13.66 A 1.807 1.807 0 0 0 68.493 13.874 Q 68.724 13.943 69.003 13.974 A 4.473 4.473 0 0 0 69.5 14 A 4.086 4.086 0 0 0 72.111 13.057 A 5.401 5.401 0 0 0 72.42 12.79 A 6.501 6.501 0 0 0 73.26 11.816 Q 73.988 10.801 74.676 9.229 A 24.298 24.298 0 0 0 74.9 8.7 L 78.3 10 Q 77.316 12.625 76.043 14.303 A 9 9 0 0 1 74.63 15.8 A 7.781 7.781 0 0 1 69.512 17.6 A 9.823 9.823 0 0 1 69.5 17.6 A 13.933 13.933 0 0 1 68.088 17.533 Q 66.626 17.384 65.7 16.9 A 3.812 3.812 0 0 1 64.22 15.499 A 5.497 5.497 0 0 1 63.73 14.48 Q 63.1 12.76 63.1 9.6 A 128.835 128.835 0 0 1 63.242 3.447 A 109.713 109.713 0 0 1 63.4 0.8 Z M 36.3 4.2 L 38.9 4.2 L 38.9 7.4 L 36.3 7.4 L 36.3 9.2 A 20.787 20.787 0 0 1 36.242 10.8 Q 36.116 12.437 35.71 13.53 Q 35.12 15.12 33.79 16.04 A 7.383 7.383 0 0 1 32.73 16.639 Q 31.58 17.18 29.9 17.6 L 28.7 14.4 Q 29.72 14.1 30.28 13.91 Q 30.84 13.72 31.36 13.41 Q 31.841 13.123 32.057 12.862 A 1.139 1.139 0 0 0 32.09 12.82 A 1.63 1.63 0 0 0 32.227 12.6 Q 32.357 12.352 32.47 11.98 Q 32.64 11.42 32.67 10.83 Q 32.7 10.24 32.7 9.2 L 32.7 7.4 L 27.5 7.4 L 27.5 4.2 L 32.7 4.2 L 32.7 0.6 L 36.3 0.6 L 36.3 4.2 Z M 22.7 0.8 L 26.44 1.2 A 31.094 31.094 0 0 0 25.574 6.837 A 36.925 36.925 0 0 0 25.5 9.2 Q 25.5 13.48 26.44 17.2 L 22.7 17.6 Q 21.7 13.62 21.7 9.2 A 35.074 35.074 0 0 1 22.36 2.309 A 31.698 31.698 0 0 1 22.7 0.8 Z M 0.6 12 L 2.1 12.3 A 36.456 36.456 0 0 1 1.886 15.658 A 44.723 44.723 0 0 1 1.6 17.8 L 0 17.2 A 35.273 35.273 0 0 0 0.505 13.593 A 29.945 29.945 0 0 0 0.6 12 Z M 4 17.2 L 2.6 17.4 Q 2.581 16.408 2.422 12.807 A 1119.741 1119.741 0 0 0 2.4 12.3 L 3.7 12.1 Q 3.9 14.8 4 17.2 Z M 15.78 3.4 L 12.5 3.4 L 12.5 5.68 L 13.5 4.2 A 48.764 48.764 0 0 1 14.836 5.473 A 41.838 41.838 0 0 1 15.32 5.96 A 18.546 18.546 0 0 0 15.659 4.332 A 15.489 15.489 0 0 0 15.78 3.4 Z M 12.5 7.82 L 12.5 12.24 Q 13.4 10.9 14.08 9.4 Q 13.34 8.6 12.5 7.82 Z M 12.5 14.5 L 14.3 14.5 L 12.5 13.1 L 12.5 14.5 Z M 3.9 3.9 L 4.8 3.9 L 4.8 3.1 L 3.9 3.1 L 3.9 3.9 Z M 4.8 9.3 L 4.8 8.5 L 3.9 8.5 L 3.9 9.3 L 4.8 9.3 Z M 4.8 6.6 L 4.8 5.8 L 3.9 5.8 L 3.9 6.6 L 4.8 6.6 Z" />
  </g>
</svg>