<svg xmlns="http://www.w3.org/2000/svg" width="88" height="41">
  <path stroke="#1A73F6" fill="#46cDFF" d="M2 21 14 3h60l12 18-12 18H14z"/>
  <path d="m17.8 13.3 3.2.4a32.594 32.594 0 0 1-.311 2.033 37.819 37.819 0 0 1-.149.767h2.08a9.696 9.696 0 0 0 1.276-1.783A13.131 13.131 0 0 0 24.7 13l3.2.3q-.157.55-.315.986a10.831 10.831 0 0 1-.005.014H34v2.6h-1.06a10.592 10.592 0 0 1-.596 1.289q-.418.757-.924 1.33a19.944 19.944 0 0 0 .886.25q.415.108.889.216a43.426 43.426 0 0 0 1.005.215l-1 3.1a36.912 36.912 0 0 1-.739-.148q-.734-.156-1.247-.302a10.638 10.638 0 0 1-.034-.01l.22.76a18.163 18.163 0 0 1-3.672 1.493 24.373 24.373 0 0 1-3.328.707l-.8-2.4a32.453 32.453 0 0 0 2.383-.47q1.172-.278 2.177-.627a17.432 17.432 0 0 0 .76-.283q-.48-.24-.7-.36-1.52.62-4.32 1.24l-.6-1.48v8.14a34.679 34.679 0 0 0 4.444-.824q2.332-.602 4.245-1.511A18.162 18.162 0 0 0 33.7 26.3l.7 2.7q-3.366 2.205-8.506 3.022a35.971 35.971 0 0 1-2.194.278l-.74-2.5H20.3V17.58q-.26 1.04-.6 2.06V31.8h-3.2v-7.74q-.482.784-.806 1.204a4.016 4.016 0 0 1-.194.236l-.5-4.4a15.882 15.882 0 0 0 1.676-3.36q.589-1.606.958-3.502a28.78 28.78 0 0 0 .166-.938zM42.2 19h12.2v3.1h-2.8v5.5q0 .78-.018 1.304a16.481 16.481 0 0 1-.012.296 4.462 4.462 0 0 1-.103.76 3.855 3.855 0 0 1-.087.32q-.16.5-.36.72-.181.2-.602.35a3.369 3.369 0 0 1-.088.03q-.49.16-1.03.19t-1.5.03q-.963 0-3.037-.093a208.218 208.218 0 0 1-.163-.007l-.2-3.1a171.205 171.205 0 0 0 .859.04q1.29.06 1.841.06a4.393 4.393 0 0 0 .173-.003q.264-.011.374-.056a.183.183 0 0 0 .053-.031q.081-.073.097-.432a4.253 4.253 0 0 0 .003-.178v-5.7h-5.6v-1.5a18.493 18.493 0 0 1-.898 1.362 21.577 21.577 0 0 1-.402.538v9.3h-3.6v-6.16a12.106 12.106 0 0 1-.577.688q-.295.326-.582.585a6.055 6.055 0 0 1-.341.287l-.8-4a25.642 25.642 0 0 0 1.224-.978q.746-.637 1.316-1.242a15.741 15.741 0 0 0 .772-.888q.412-.507.848-1.114a32.589 32.589 0 0 0 .54-.778l2.5 1.46zm20.7 7.5h-3.4v1H56V16.3h6.9v-3.1h3.8v3.1h6.9v11.2h-3.5v-1h-3.4V32h-3.8zM53.6 17H42.8v-3.1h10.8zm-21.2 6.5.8 2.6q-3.164 1.856-7.765 2.697A36.659 36.659 0 0 1 24.2 29l-.7-2.6q4.318-.581 7.342-2.037A15.212 15.212 0 0 0 32.4 23.5zm4.3-3.9-1.4-3.1a22.554 22.554 0 0 0 1.052-.666q.668-.45 1.188-.884.733-.611 1.572-1.52A26.643 26.643 0 0 0 39.5 13l2.5 1.9q-1.3 1.62-2.44 2.63-.98.868-2.388 1.773a29.532 29.532 0 0 1-.472.297zm30 3.9h3.4v-4.1h-3.4zm-7.2-4.1v4.1h3.4v-4.1zm-35.6.4-.6-.78v1.08a71.049 71.049 0 0 0 .734-.164q.789-.181 1.335-.33a16.236 16.236 0 0 0 .311-.086q-.377-.476-.636-.893a7.072 7.072 0 0 1-.004-.007 9.115 9.115 0 0 1-.601.682 7.008 7.008 0 0 1-.539.498zm5.78-2.9h-2.24q.46.76 1.16 1.3a3.976 3.976 0 0 0 .832-.896 4.862 4.862 0 0 0 .248-.404z" fill="#298DFA" stroke-linecap="round" fill-rule="evenodd" stroke="#298DFA" stroke-width="4" paint-order="stroke" fill-opacity=".85" stroke-opacity=".85"/>
  <path d="m17.8 10.3 3.2.4a32.594 32.594 0 0 1-.311 2.033 37.819 37.819 0 0 1-.149.767h2.08a9.696 9.696 0 0 0 1.276-1.783A13.131 13.131 0 0 0 24.7 10l3.2.3q-.157.551-.315.986a10.831 10.831 0 0 1-.005.014H34v2.6h-1.06a10.592 10.592 0 0 1-.596 1.289q-.418.757-.924 1.331a19.944 19.944 0 0 0 .886.25q.415.107.889.215a43.426 43.426 0 0 0 1.005.215l-1 3.1a36.912 36.912 0 0 1-.739-.148q-.734-.156-1.247-.302a10.638 10.638 0 0 1-.034-.01l.22.76a18.163 18.163 0 0 1-3.672 1.493 24.373 24.373 0 0 1-3.328.707l-.8-2.4a32.453 32.453 0 0 0 2.383-.469q1.172-.279 2.177-.628a17.432 17.432 0 0 0 .76-.283q-.48-.24-.7-.36-1.52.62-4.32 1.24l-.6-1.48v8.14a34.679 34.679 0 0 0 4.444-.824q2.332-.602 4.245-1.511A18.162 18.162 0 0 0 33.7 23.3l.7 2.7q-3.366 2.205-8.506 3.022a35.971 35.971 0 0 1-2.194.278l-.74-2.5H20.3V14.58q-.26 1.04-.6 2.06V28.8h-3.2v-7.74q-.482.784-.806 1.204a4.016 4.016 0 0 1-.194.236l-.5-4.4a15.882 15.882 0 0 0 1.676-3.359q.589-1.607.958-3.503a28.78 28.78 0 0 0 .166-.938zM42.2 16h12.2v3.1h-2.8v5.5q0 .781-.018 1.304a16.481 16.481 0 0 1-.012.296 4.462 4.462 0 0 1-.103.76 3.855 3.855 0 0 1-.087.32q-.16.5-.36.72-.181.2-.602.35a3.369 3.369 0 0 1-.088.03q-.49.16-1.03.19t-1.5.03q-.963 0-3.037-.093a208.218 208.218 0 0 1-.163-.007l-.2-3.1a171.205 171.205 0 0 0 .859.041q1.29.059 1.841.059a4.393 4.393 0 0 0 .173-.003q.264-.011.374-.056a.183.183 0 0 0 .053-.031q.081-.073.097-.432a4.253 4.253 0 0 0 .003-.178v-5.7h-5.6v-1.5a18.493 18.493 0 0 1-.898 1.362 21.577 21.577 0 0 1-.402.538v9.3h-3.6v-6.16a12.106 12.106 0 0 1-.577.688q-.295.326-.582.585a6.055 6.055 0 0 1-.341.287l-.8-4a25.642 25.642 0 0 0 1.224-.978q.746-.637 1.316-1.242a15.741 15.741 0 0 0 .772-.888q.412-.507.848-1.114a32.589 32.589 0 0 0 .54-.778l2.5 1.46zm20.7 7.5h-3.4v1H56V13.3h6.9v-3.1h3.8v3.1h6.9v11.2h-3.5v-1h-3.4V29h-3.8zM53.6 14H42.8v-3.1h10.8zm-21.2 6.5.8 2.6q-3.164 1.856-7.765 2.697A36.659 36.659 0 0 1 24.2 26l-.7-2.6q4.318-.581 7.342-2.037A15.212 15.212 0 0 0 32.4 20.5zm4.3-3.9-1.4-3.1a22.554 22.554 0 0 0 1.052-.666q.668-.45 1.188-.884.733-.611 1.572-1.52A26.643 26.643 0 0 0 39.5 10l2.5 1.9q-1.3 1.62-2.44 2.63-.98.868-2.388 1.773a29.532 29.532 0 0 1-.472.297zm30 3.9h3.4v-4.1h-3.4zm-7.2-4.1v4.1h3.4v-4.1zm-35.6.4-.6-.78v1.08a71.049 71.049 0 0 0 .734-.164q.789-.181 1.335-.329a16.236 16.236 0 0 0 .311-.087q-.377-.476-.636-.893a7.072 7.072 0 0 1-.004-.007 9.115 9.115 0 0 1-.601.682 7.008 7.008 0 0 1-.539.498zm5.78-2.9h-2.24q.46.76 1.16 1.3a3.976 3.976 0 0 0 .832-.896 4.862 4.862 0 0 0 .248-.404z" fill="#FFF" stroke-linecap="round" fill-rule="evenodd" stroke="#4CF" stroke-width="4" paint-order="stroke"/>
</svg>
