<svg xmlns="http://www.w3.org/2000/svg" viewBox="0 0 88 41" width="88" height="41">
  <defs>
    <filter id="textShadow" height="150%">
      <feDropShadow dx="0" dy="3" flood-color="#298DFA" flood-opacity="0.85" stdDeviation="0" />       
    </filter>
  </defs>
  <polygon points="2,21 14,3 74,3 86,21 74,39 14,39" stroke="#1A73F6" fill="#46cDFF"/>
  <g id="svgGroup" fill="#FFFFFF" stroke-linecap="round" fill-rule="evenodd" stroke="#44CCFF" stroke-width="4" paint-order="stroke" filter="url(#textShadow)">
    <path transform="translate(15, 10)" d="M 2.8 0.3 L 6 0.7 A 32.594 32.594 0 0 1 5.689 2.733 A 37.819 37.819 0 0 1 5.54 3.5 L 7.62 3.5 A 9.696 9.696 0 0 0 8.896 1.717 A 13.131 13.131 0 0 0 9.7 0 L 12.9 0.3 Q 12.743 0.851 12.585 1.286 A 10.831 10.831 0 0 1 12.58 1.3 L 19 1.3 L 19 3.9 L 17.94 3.9 A 10.592 10.592 0 0 1 17.344 5.189 Q 16.926 5.946 16.42 6.52 A 19.944 19.944 0 0 0 17.306 6.77 Q 17.721 6.877 18.195 6.985 A 43.426 43.426 0 0 0 19.2 7.2 L 18.2 10.3 A 36.912 36.912 0 0 1 17.461 10.152 Q 16.727 9.996 16.214 9.85 A 10.638 10.638 0 0 1 16.18 9.84 L 16.4 10.6 A 18.163 18.163 0 0 1 12.728 12.093 A 24.373 24.373 0 0 1 9.4 12.8 L 8.6 10.4 A 32.453 32.453 0 0 0 10.983 9.931 Q 12.155 9.652 13.16 9.303 A 17.432 17.432 0 0 0 13.92 9.02 Q 13.44 8.78 13.22 8.66 Q 11.7 9.28 8.9 9.9 L 8.3 8.42 L 8.3 16.56 A 34.679 34.679 0 0 0 12.744 15.736 Q 15.076 15.134 16.989 14.225 A 18.162 18.162 0 0 0 18.7 13.3 L 19.4 16 Q 16.034 18.205 10.894 19.022 A 35.971 35.971 0 0 1 8.7 19.3 L 7.96 16.8 L 5.3 16.8 L 5.3 4.58 Q 5.04 5.62 4.7 6.64 L 4.7 18.8 L 1.5 18.8 L 1.5 11.06 Q 1.018 11.844 0.694 12.264 A 4.016 4.016 0 0 1 0.5 12.5 L 0 8.1 A 15.882 15.882 0 0 0 1.676 4.741 Q 2.265 3.134 2.634 1.238 A 28.78 28.78 0 0 0 2.8 0.3 Z M 27.2 6 L 39.4 6 L 39.4 9.1 L 36.6 9.1 L 36.6 14.6 Q 36.6 15.381 36.582 15.904 A 16.481 16.481 0 0 1 36.57 16.2 A 4.462 4.462 0 0 1 36.467 16.96 A 3.855 3.855 0 0 1 36.38 17.28 Q 36.22 17.78 36.02 18 Q 35.839 18.2 35.418 18.35 A 3.369 3.369 0 0 1 35.33 18.38 Q 34.84 18.54 34.3 18.57 Q 33.76 18.6 32.8 18.6 Q 31.837 18.6 29.763 18.507 A 208.218 208.218 0 0 1 29.6 18.5 L 29.4 15.4 A 171.205 171.205 0 0 0 30.259 15.441 Q 31.549 15.5 32.1 15.5 A 4.393 4.393 0 0 0 32.273 15.497 Q 32.537 15.486 32.647 15.441 A 0.183 0.183 0 0 0 32.7 15.41 Q 32.781 15.337 32.797 14.978 A 4.253 4.253 0 0 0 32.8 14.8 L 32.8 9.1 L 27.2 9.1 L 27.2 7.6 A 18.493 18.493 0 0 1 26.302 8.962 A 21.577 21.577 0 0 1 25.9 9.5 L 25.9 18.8 L 22.3 18.8 L 22.3 12.64 A 12.106 12.106 0 0 1 21.723 13.328 Q 21.428 13.654 21.141 13.913 A 6.055 6.055 0 0 1 20.8 14.2 L 20 10.2 A 25.642 25.642 0 0 0 21.224 9.222 Q 21.97 8.585 22.54 7.98 A 15.741 15.741 0 0 0 23.312 7.092 Q 23.724 6.585 24.16 5.978 A 32.589 32.589 0 0 0 24.7 5.2 L 27.2 6.66 L 27.2 6 Z M 47.9 13.5 L 44.5 13.5 L 44.5 14.5 L 41 14.5 L 41 3.3 L 47.9 3.3 L 47.9 0.2 L 51.7 0.2 L 51.7 3.3 L 58.6 3.3 L 58.6 14.5 L 55.1 14.5 L 55.1 13.5 L 51.7 13.5 L 51.7 19 L 47.9 19 L 47.9 13.5 Z M 38.6 4 L 27.8 4 L 27.8 0.9 L 38.6 0.9 L 38.6 4 Z M 17.4 10.5 L 18.2 13.1 Q 15.036 14.956 10.435 15.797 A 36.659 36.659 0 0 1 9.2 16 L 8.5 13.4 Q 12.818 12.819 15.842 11.363 A 15.212 15.212 0 0 0 17.4 10.5 Z M 21.7 6.6 L 20.3 3.5 A 22.554 22.554 0 0 0 21.352 2.834 Q 22.02 2.384 22.54 1.95 Q 23.273 1.339 24.112 0.43 A 26.643 26.643 0 0 0 24.5 0 L 27 1.9 Q 25.7 3.52 24.56 4.53 Q 23.58 5.398 22.172 6.303 A 29.532 29.532 0 0 1 21.7 6.6 Z M 51.7 10.5 L 55.1 10.5 L 55.1 6.4 L 51.7 6.4 L 51.7 10.5 Z M 44.5 6.4 L 44.5 10.5 L 47.9 10.5 L 47.9 6.4 L 44.5 6.4 Z M 8.9 6.8 L 8.3 6.02 L 8.3 7.1 A 71.049 71.049 0 0 0 9.034 6.936 Q 9.823 6.755 10.369 6.607 A 16.236 16.236 0 0 0 10.68 6.52 Q 10.303 6.044 10.044 5.627 A 7.072 7.072 0 0 1 10.04 5.62 A 9.115 9.115 0 0 1 9.439 6.302 A 7.008 7.008 0 0 1 8.9 6.8 Z M 14.68 3.9 L 12.44 3.9 Q 12.9 4.66 13.6 5.2 A 3.976 3.976 0 0 0 14.432 4.304 A 4.862 4.862 0 0 0 14.68 3.9 Z" />
  </g>
</svg>