<svg xmlns="http://www.w3.org/2000/svg" viewBox="0 0 88 41" width="88" height="41">
  <defs>
    <filter id="textShadow" height="150%">
      <feDropShadow dx="0" dy="3" flood-color="#0E6699" flood-opacity="0.85" stdDeviation="0" />       
    </filter>
  </defs>
  <polygon points="2,21 14,3 74,3 86,21 74,39 14,39" stroke="#096390" fill="#0AE099"/>
  <g id="svgGroup" fill="#FFFFFF" stroke-linecap="round" fill-rule="evenodd" stroke="#03E399" stroke-width="4" paint-order="stroke" filter="url(#textShadow)">
    <path transform="translate(20, 8)" d="M 36.648 13.32 L 34.56 13.32 L 34.56 9.96 L 35.352 9.96 L 34.032 8.76 L 29.52 8.76 L 29.52 10.08 L 34.08 10.08 L 34.08 13.32 L 29.52 13.32 L 29.52 14.808 Q 30.843 14.624 32.883 14.272 A 227.316 227.316 0 0 0 34.2 14.04 L 34.44 17.52 Q 31.944 18 29.52 18.336 L 29.52 22.08 L 25.2 22.08 L 25.2 18.864 A 1.697 1.697 0 0 0 25.093 18.868 Q 24.941 18.878 24.708 18.912 Q 24.384 18.96 24.24 18.96 L 24 15.48 Q 24.165 15.462 24.436 15.436 A 61.726 61.726 0 0 1 24.612 15.42 A 39.709 39.709 0 0 0 24.797 15.403 Q 25.056 15.378 25.2 15.36 L 25.2 1.8 Q 29.304 1.248 33.6 0 L 34.68 3.6 Q 31.872 4.368 29.52 4.8 L 29.52 5.52 L 34.08 5.52 L 34.08 7.056 A 5.129 5.129 0 0 0 34.67 5.779 Q 35.081 4.489 35.147 2.56 A 22.223 22.223 0 0 0 35.16 1.8 L 35.16 0.48 L 43.68 0.48 L 43.68 5.64 A 2.283 2.283 0 0 0 43.682 5.731 Q 43.689 5.913 43.728 5.952 A 0.094 0.094 0 0 0 43.761 5.971 Q 43.818 5.993 43.949 5.998 A 2.287 2.287 0 0 0 44.04 6 A 0.464 0.464 0 0 0 44.208 5.972 Q 44.396 5.899 44.448 5.64 A 2.649 2.649 0 0 0 44.477 5.442 Q 44.531 4.977 44.606 3.712 A 149.28 149.28 0 0 0 44.64 3.12 L 47.52 3.6 Q 47.474 4.617 47.45 5.11 A 150.584 150.584 0 0 1 47.448 5.148 Q 47.432 5.486 47.381 5.927 A 20.742 20.742 0 0 1 47.328 6.348 A 69.282 69.282 0 0 0 47.287 6.655 Q 47.241 7.01 47.219 7.211 A 6.789 6.789 0 0 0 47.208 7.32 A 1.102 1.102 0 0 1 47.174 7.501 Q 47.117 7.719 46.968 8.016 A 14.068 14.068 0 0 1 46.892 8.167 Q 46.774 8.394 46.707 8.5 A 0.761 0.761 0 0 1 46.668 8.556 A 0.376 0.376 0 0 1 46.617 8.608 Q 46.52 8.692 46.296 8.816 A 5.847 5.847 0 0 1 46.2 8.868 Q 45.902 9.027 45.712 9.076 A 0.734 0.734 0 0 1 45.612 9.096 Q 45.408 9.12 44.784 9.18 Q 44.16 9.24 43.764 9.24 L 42.48 9.24 A 12.635 12.635 0 0 1 41.84 9.225 Q 40.794 9.172 40.428 8.928 Q 40.011 8.65 39.966 7.783 A 4.236 4.236 0 0 1 39.96 7.56 L 39.96 3.84 L 38.76 3.84 A 11.134 11.134 0 0 1 38.512 6.266 Q 38.155 7.866 37.283 9.042 A 6.454 6.454 0 0 1 36.456 9.96 L 46.08 9.96 L 46.08 13.32 Q 44.976 15.48 43.296 17.112 A 23.533 23.533 0 0 0 45.767 18.008 A 29.406 29.406 0 0 0 47.52 18.48 L 46.2 22.08 Q 42.792 21.336 39.864 19.632 Q 38.032 20.658 35.418 21.544 A 44.596 44.596 0 0 1 33.72 22.08 L 32.04 18.6 Q 34.392 18.096 36.48 17.16 A 19.975 19.975 0 0 1 35.48 16.151 Q 34.878 15.496 34.44 14.88 L 36.648 13.32 Z M 13.8 21.36 L 13.704 18.24 Q 12.384 20.304 10.32 22.2 L 6.72 19.92 A 19.376 19.376 0 0 0 8.579 18.149 A 14.448 14.448 0 0 0 10.032 16.284 Q 11.256 14.4 11.964 11.616 A 25.513 25.513 0 0 0 12.426 9.336 Q 12.62 8.112 12.747 6.7 A 54.233 54.233 0 0 0 12.888 4.68 L 8.88 4.68 L 8.88 7.2 Q 8.352 8.688 7.536 10.128 A 1.17 1.17 0 0 1 7.58 10.175 Q 7.642 10.244 7.728 10.356 Q 7.848 10.512 7.896 10.584 A 16.733 16.733 0 0 0 9.401 7.866 A 15.479 15.479 0 0 0 9.48 7.68 L 12.12 9.12 Q 11.16 11.256 9.816 13.152 A 12.576 12.576 0 0 1 9.883 13.247 Q 10.041 13.473 10.476 14.104 A 808.827 808.827 0 0 1 10.68 14.4 L 8.04 16.8 Q 7.368 15.744 6.48 14.496 L 6.48 22.08 L 2.52 22.08 L 2.52 15.768 A 13.707 13.707 0 0 1 1.558 16.579 A 10.605 10.605 0 0 1 0.72 17.16 L 0 12.6 A 11.931 11.931 0 0 0 3.28 9.422 A 11.27 11.27 0 0 0 4.464 7.2 L 0.6 7.2 L 0.6 3.36 L 2.52 3.36 L 2.52 0 L 6.48 0 L 6.48 3.36 L 8.64 3.36 L 8.64 0.96 L 22.68 0.96 L 22.68 7.32 A 243.85 243.85 0 0 1 22.675 8.954 Q 22.659 11.301 22.596 13.02 A 50.086 50.086 0 0 1 22.511 14.65 Q 22.422 15.933 22.272 16.968 Q 22.074 18.333 21.836 19.184 A 7.341 7.341 0 0 1 21.732 19.524 A 3.611 3.611 0 0 1 21.396 20.261 A 2.744 2.744 0 0 1 20.82 20.94 A 3.566 3.566 0 0 1 20.321 21.296 Q 19.955 21.51 19.584 21.588 Q 18.96 21.72 17.88 21.72 A 7.912 7.912 0 0 1 17.481 21.707 Q 16.515 21.657 14.207 21.405 A 213.157 213.157 0 0 1 13.8 21.36 Z M 18.24 4.68 L 17.088 4.68 A 48.46 48.46 0 0 1 16.627 9.487 Q 15.896 14.35 14.174 17.446 A 14.507 14.507 0 0 1 14.16 17.472 A 59.619 59.619 0 0 0 15.003 17.591 Q 16.045 17.73 16.59 17.755 A 4.726 4.726 0 0 0 16.8 17.76 A 1.139 1.139 0 0 0 17.138 17.713 A 0.846 0.846 0 0 0 17.616 17.34 A 1.286 1.286 0 0 0 17.731 17.087 Q 17.889 16.641 18.012 15.693 A 21.529 21.529 0 0 0 18.06 15.288 A 21.351 21.351 0 0 0 18.139 14.373 Q 18.208 13.327 18.23 11.86 A 96.065 96.065 0 0 0 18.24 10.44 L 18.24 4.68 Z M 41.568 13.32 L 37.728 13.32 Q 38.64 14.352 39.768 15.168 Q 40.776 14.328 41.568 13.32 Z" />
  </g>
</svg>