<svg xmlns="http://www.w3.org/2000/svg" viewBox="0 0 88 41" width="88" height="41">
  <defs>
    <filter id="textShadow" height="150%">
      <feDropShadow dx="0" dy="3" flood-color="#FF8B00" flood-opacity="0.85" stdDeviation="0" />       
    </filter>
  </defs>
  <polygon points="2,21 14,3 74,3 86,21 74,39 14,39" stroke="#FF9003" fill="#FFD800"/>
  <g id="svgGroup" fill="#FFFFFF" stroke-linecap="round" fill-rule="evenodd" stroke="#FFD700" stroke-width="4" paint-order="stroke" filter="url(#textShadow)">
    <path transform="translate(20, 8)" d="M 35.568 13.32 L 33.48 13.32 L 33.48 9.96 L 34.272 9.96 L 32.952 8.76 L 28.44 8.76 L 28.44 10.08 L 33 10.08 L 33 13.32 L 28.44 13.32 L 28.44 14.808 Q 29.763 14.624 31.803 14.272 A 227.316 227.316 0 0 0 33.12 14.04 L 33.36 17.52 Q 30.864 18 28.44 18.336 L 28.44 22.08 L 24.12 22.08 L 24.12 18.864 A 1.697 1.697 0 0 0 24.013 18.868 Q 23.861 18.878 23.628 18.912 Q 23.304 18.96 23.16 18.96 L 22.92 15.48 Q 23.085 15.462 23.356 15.436 A 61.726 61.726 0 0 1 23.532 15.42 A 39.709 39.709 0 0 0 23.717 15.403 Q 23.976 15.378 24.12 15.36 L 24.12 1.8 Q 28.224 1.248 32.52 0 L 33.6 3.6 Q 30.792 4.368 28.44 4.8 L 28.44 5.52 L 33 5.52 L 33 7.056 A 5.129 5.129 0 0 0 33.59 5.779 Q 34.001 4.489 34.067 2.56 A 22.223 22.223 0 0 0 34.08 1.8 L 34.08 0.48 L 42.6 0.48 L 42.6 5.64 A 2.283 2.283 0 0 0 42.602 5.731 Q 42.609 5.913 42.648 5.952 A 0.094 0.094 0 0 0 42.681 5.971 Q 42.738 5.993 42.869 5.998 A 2.287 2.287 0 0 0 42.96 6 A 0.464 0.464 0 0 0 43.128 5.972 Q 43.316 5.899 43.368 5.64 A 2.649 2.649 0 0 0 43.397 5.442 Q 43.451 4.977 43.526 3.712 A 149.28 149.28 0 0 0 43.56 3.12 L 46.44 3.6 Q 46.394 4.617 46.37 5.11 A 150.584 150.584 0 0 1 46.368 5.148 Q 46.352 5.486 46.301 5.927 A 20.742 20.742 0 0 1 46.248 6.348 A 69.282 69.282 0 0 0 46.207 6.655 Q 46.161 7.01 46.139 7.211 A 6.789 6.789 0 0 0 46.128 7.32 A 1.102 1.102 0 0 1 46.094 7.501 Q 46.037 7.719 45.888 8.016 A 14.068 14.068 0 0 1 45.812 8.167 Q 45.694 8.394 45.627 8.5 A 0.761 0.761 0 0 1 45.588 8.556 A 0.376 0.376 0 0 1 45.537 8.608 Q 45.44 8.692 45.216 8.816 A 5.847 5.847 0 0 1 45.12 8.868 Q 44.822 9.027 44.632 9.076 A 0.734 0.734 0 0 1 44.532 9.096 Q 44.328 9.12 43.704 9.18 Q 43.08 9.24 42.684 9.24 L 41.4 9.24 A 12.635 12.635 0 0 1 40.76 9.225 Q 39.714 9.172 39.348 8.928 Q 38.931 8.65 38.886 7.783 A 4.236 4.236 0 0 1 38.88 7.56 L 38.88 3.84 L 37.68 3.84 A 11.134 11.134 0 0 1 37.432 6.266 Q 37.075 7.866 36.203 9.042 A 6.454 6.454 0 0 1 35.376 9.96 L 45 9.96 L 45 13.32 Q 43.896 15.48 42.216 17.112 A 23.533 23.533 0 0 0 44.687 18.008 A 29.406 29.406 0 0 0 46.44 18.48 L 45.12 22.08 Q 41.712 21.336 38.784 19.632 Q 36.952 20.658 34.338 21.544 A 44.596 44.596 0 0 1 32.64 22.08 L 30.96 18.6 Q 33.312 18.096 35.4 17.16 A 19.975 19.975 0 0 1 34.4 16.151 Q 33.798 15.496 33.36 14.88 L 35.568 13.32 Z M 21.36 20.04 L 0 20.04 L 0 15.84 L 21.36 15.84 L 21.36 20.04 Z M 19.2 6.24 L 2.16 6.24 L 2.16 2.04 L 19.2 2.04 L 19.2 6.24 Z M 40.488 13.32 L 36.648 13.32 Q 37.56 14.352 38.688 15.168 Q 39.696 14.328 40.488 13.32 Z" />
  </g>
</svg>