<svg xmlns="http://www.w3.org/2000/svg" viewBox="0 0 88 41" width="88" height="41">
  <defs>
    <filter id="textShadow" height="150%">
      <feDropShadow dx="0" dy="3" flood-color="#B31010" flood-opacity="0.85" stdDeviation="0" />       
    </filter>
  </defs>
  <polygon points="2,21 14,3 74,3 86,21 74,39 14,39" stroke="#A60B0B" fill="#FF3939"/>
  <g id="svgGroup" fill="#FFFFFF" stroke-linecap="round" fill-rule="evenodd" stroke="#FF2323" stroke-width="4" paint-order="stroke" filter="url(#textShadow)">
    <path transform="translate(20, 8)" d="M 35.448 13.32 L 33.36 13.32 L 33.36 9.96 L 34.152 9.96 L 32.832 8.76 L 28.32 8.76 L 28.32 10.08 L 32.88 10.08 L 32.88 13.32 L 28.32 13.32 L 28.32 14.808 Q 29.643 14.624 31.683 14.272 A 227.316 227.316 0 0 0 33 14.04 L 33.24 17.52 Q 30.744 18 28.32 18.336 L 28.32 22.08 L 24 22.08 L 24 18.864 A 1.697 1.697 0 0 0 23.893 18.868 Q 23.741 18.878 23.508 18.912 Q 23.184 18.96 23.04 18.96 L 22.8 15.48 Q 22.965 15.462 23.236 15.436 A 61.726 61.726 0 0 1 23.412 15.42 A 39.709 39.709 0 0 0 23.597 15.403 Q 23.856 15.378 24 15.36 L 24 1.8 Q 28.104 1.248 32.4 0 L 33.48 3.6 Q 30.672 4.368 28.32 4.8 L 28.32 5.52 L 32.88 5.52 L 32.88 7.056 A 5.129 5.129 0 0 0 33.47 5.779 Q 33.881 4.489 33.947 2.56 A 22.223 22.223 0 0 0 33.96 1.8 L 33.96 0.48 L 42.48 0.48 L 42.48 5.64 A 2.283 2.283 0 0 0 42.482 5.731 Q 42.489 5.913 42.528 5.952 A 0.094 0.094 0 0 0 42.561 5.971 Q 42.618 5.993 42.749 5.998 A 2.287 2.287 0 0 0 42.84 6 A 0.464 0.464 0 0 0 43.008 5.972 Q 43.196 5.899 43.248 5.64 A 2.649 2.649 0 0 0 43.277 5.442 Q 43.331 4.977 43.406 3.712 A 149.28 149.28 0 0 0 43.44 3.12 L 46.32 3.6 Q 46.274 4.617 46.25 5.11 A 150.584 150.584 0 0 1 46.248 5.148 Q 46.232 5.486 46.181 5.927 A 20.742 20.742 0 0 1 46.128 6.348 A 69.282 69.282 0 0 0 46.087 6.655 Q 46.041 7.01 46.019 7.211 A 6.789 6.789 0 0 0 46.008 7.32 A 1.102 1.102 0 0 1 45.974 7.501 Q 45.917 7.719 45.768 8.016 A 14.068 14.068 0 0 1 45.692 8.167 Q 45.574 8.394 45.507 8.5 A 0.761 0.761 0 0 1 45.468 8.556 A 0.376 0.376 0 0 1 45.417 8.608 Q 45.32 8.692 45.096 8.816 A 5.847 5.847 0 0 1 45 8.868 Q 44.702 9.027 44.512 9.076 A 0.734 0.734 0 0 1 44.412 9.096 Q 44.208 9.12 43.584 9.18 Q 42.96 9.24 42.564 9.24 L 41.28 9.24 A 12.635 12.635 0 0 1 40.64 9.225 Q 39.594 9.172 39.228 8.928 Q 38.811 8.65 38.766 7.783 A 4.236 4.236 0 0 1 38.76 7.56 L 38.76 3.84 L 37.56 3.84 A 11.134 11.134 0 0 1 37.312 6.266 Q 36.955 7.866 36.083 9.042 A 6.454 6.454 0 0 1 35.256 9.96 L 44.88 9.96 L 44.88 13.32 Q 43.776 15.48 42.096 17.112 A 23.533 23.533 0 0 0 44.567 18.008 A 29.406 29.406 0 0 0 46.32 18.48 L 45 22.08 Q 41.592 21.336 38.664 19.632 Q 36.832 20.658 34.218 21.544 A 44.596 44.596 0 0 1 32.52 22.08 L 30.84 18.6 Q 33.192 18.096 35.28 17.16 A 19.975 19.975 0 0 1 34.28 16.151 Q 33.678 15.496 33.24 14.88 L 35.448 13.32 Z M 21.12 20.76 L 0 20.76 L 0 16.68 L 21.12 16.68 L 21.12 20.76 Z M 19.68 5.4 L 1.44 5.4 L 1.44 1.32 L 19.68 1.32 L 19.68 5.4 Z M 18.24 12.48 L 2.88 12.48 L 2.88 8.52 L 18.24 8.52 L 18.24 12.48 Z M 40.368 13.32 L 36.528 13.32 Q 37.44 14.352 38.568 15.168 Q 39.576 14.328 40.368 13.32 Z" />
  </g>
</svg>