<svg xmlns="http://www.w3.org/2000/svg" width="88" height="41">
  <path stroke="#5600C0" fill="#E063FF" d="M2 21 14 3h60l12 18-12 18H14z"/>
  <path d="M55.568 24.32H53.48v-3.36h.792l-1.32-1.2H48.44v1.32H53v3.24h-4.56v1.488q1.323-.184 3.363-.536a227.316 227.316 0 0 0 1.317-.232l.24 3.48q-2.496.48-4.92.816v3.744h-4.32v-3.216a1.697 1.697 0 0 0-.107.004q-.152.01-.385.044-.324.048-.468.048l-.24-3.48q.165-.018.436-.044a61.726 61.726 0 0 1 .176-.016 39.709 39.709 0 0 0 .185-.017q.259-.025.403-.043V12.8q4.104-.552 8.4-1.8l1.08 3.6q-2.808.768-5.16 1.2v.72H53v1.536a5.129 5.129 0 0 0 .59-1.277q.411-1.29.477-3.22a22.223 22.223 0 0 0 .013-.76v-1.32h8.52v5.16a2.283 2.283 0 0 0 .002.092q.007.182.046.22a.094.094 0 0 0 .033.02q.057.022.188.027a2.287 2.287 0 0 0 .091.002.464.464 0 0 0 .168-.028q.188-.073.24-.332a2.649 2.649 0 0 0 .029-.198q.054-.465.129-1.73a149.28 149.28 0 0 0 .034-.592l2.88.48q-.046 1.017-.07 1.51a150.584 150.584 0 0 1-.002.038q-.016.338-.067.779a20.742 20.742 0 0 1-.053.42 69.282 69.282 0 0 0-.041.308q-.046.355-.068.556a6.789 6.789 0 0 0-.011.109 1.102 1.102 0 0 1-.034.18q-.057.219-.206.516a14.068 14.068 0 0 1-.076.15q-.118.228-.185.334a.761.761 0 0 1-.039.056.376.376 0 0 1-.051.052q-.097.084-.321.208a5.847 5.847 0 0 1-.096.052q-.298.159-.488.208a.734.734 0 0 1-.1.02q-.204.024-.828.084-.624.06-1.02.06H61.4a12.635 12.635 0 0 1-.64-.015q-1.046-.053-1.412-.297-.417-.278-.462-1.145a4.236 4.236 0 0 1-.006-.223v-3.72h-1.2a11.134 11.134 0 0 1-.248 2.426q-.357 1.6-1.229 2.776a6.454 6.454 0 0 1-.827.918H65v3.36q-1.104 2.16-2.784 3.792a23.533 23.533 0 0 0 2.471.896 29.406 29.406 0 0 0 1.753.472l-1.32 3.6q-3.408-.744-6.336-2.448-1.832 1.026-4.446 1.912a44.596 44.596 0 0 1-1.698.536l-1.68-3.48q2.352-.504 4.44-1.44a19.975 19.975 0 0 1-1-1.01q-.602-.654-1.04-1.27zm-18.528 6.6H24.32v1.2H20V12.2h21.36v19.92h-4.32zm-12.72-6.768v3.168h12.72v-2.592q-1.416.072-2.88.072-1.656 0-2.268-.6a1.59 1.59 0 0 1-.342-.525q-.21-.497-.257-1.282a7.976 7.976 0 0 1-.013-.473V15.8h-1.32q0 1.639-.07 2.718a19.285 19.285 0 0 1-.026.354 17.915 17.915 0 0 1-.167 1.379 14.826 14.826 0 0 1-.145.769q-.216.996-.744 1.752a10.187 10.187 0 0 1-1.04 1.255 11.457 11.457 0 0 1-.196.197 14.941 14.941 0 0 1-.548.51q-.29.258-.636.544a36.279 36.279 0 0 1-.748.602zm0-8.352v6.072q1.248-1.104 1.524-2.1a4.746 4.746 0 0 0 .114-.576q.14-.966.159-2.8a57.733 57.733 0 0 0 .003-.596zm12.72 5.448V15.8h-1.8v4.632a5.654 5.654 0 0 0 .004.216q.016.428.104.516a.205.205 0 0 0 .072.042q.17.065.644.066a7.119 7.119 0 0 0 .016 0q.636 0 .949-.023a4.129 4.129 0 0 0 .011-.001zm23.448 3.072h-3.84q.912 1.032 2.04 1.848 1.008-.84 1.8-1.848z" fill="#5B00CC" stroke-linecap="round" fill-rule="evenodd" stroke="#5B00CC" stroke-width="4" paint-order="stroke" fill-opacity=".85" stroke-opacity=".85"/>
  <path d="M55.568 21.32H53.48v-3.36h.792l-1.32-1.2H48.44v1.32H53v3.24h-4.56v1.488q1.323-.184 3.363-.536a227.316 227.316 0 0 0 1.317-.232l.24 3.48q-2.496.48-4.92.816v3.744h-4.32v-3.216a1.697 1.697 0 0 0-.107.004q-.152.01-.385.044-.324.048-.468.048l-.24-3.48q.165-.018.436-.044a61.726 61.726 0 0 1 .176-.016 39.709 39.709 0 0 0 .185-.017q.259-.025.403-.043V9.8q4.104-.552 8.4-1.8l1.08 3.6q-2.808.768-5.16 1.2v.72H53v1.536a5.129 5.129 0 0 0 .59-1.277q.411-1.29.477-3.219a22.223 22.223 0 0 0 .013-.76V8.48h8.52v5.16a2.283 2.283 0 0 0 .002.091q.007.182.046.221a.094.094 0 0 0 .033.019q.057.022.188.027a2.287 2.287 0 0 0 .091.002.464.464 0 0 0 .168-.028q.188-.073.24-.332a2.649 2.649 0 0 0 .029-.198q.054-.465.129-1.73a149.28 149.28 0 0 0 .034-.592l2.88.48q-.046 1.017-.07 1.51a150.584 150.584 0 0 1-.002.038q-.016.338-.067.779a20.742 20.742 0 0 1-.053.421 69.282 69.282 0 0 0-.041.307q-.046.355-.068.556a6.789 6.789 0 0 0-.011.109 1.102 1.102 0 0 1-.034.181q-.057.218-.206.515a14.068 14.068 0 0 1-.076.151q-.118.227-.185.333a.761.761 0 0 1-.039.056.376.376 0 0 1-.051.052q-.097.084-.321.208a5.847 5.847 0 0 1-.096.052q-.298.159-.488.208a.734.734 0 0 1-.1.02q-.204.024-.828.084-.624.06-1.02.06H61.4a12.635 12.635 0 0 1-.64-.015q-1.046-.053-1.412-.297-.417-.278-.462-1.145a4.236 4.236 0 0 1-.006-.223v-3.72h-1.2a11.134 11.134 0 0 1-.248 2.426q-.357 1.6-1.229 2.776a6.454 6.454 0 0 1-.827.918H65v3.36q-1.104 2.16-2.784 3.792a23.533 23.533 0 0 0 2.471.896 29.406 29.406 0 0 0 1.753.472l-1.32 3.6q-3.408-.744-6.336-2.448-1.832 1.026-4.446 1.912a44.596 44.596 0 0 1-1.698.536l-1.68-3.48q2.352-.504 4.44-1.44a19.975 19.975 0 0 1-1-1.009q-.602-.655-1.04-1.271zm-18.528 6.6H24.32v1.2H20V9.2h21.36v19.92h-4.32zm-12.72-6.768v3.168h12.72v-2.592q-1.416.072-2.88.072-1.656 0-2.268-.6a1.59 1.59 0 0 1-.342-.525q-.21-.497-.257-1.282a7.976 7.976 0 0 1-.013-.473V12.8h-1.32q0 1.639-.07 2.718a19.285 19.285 0 0 1-.026.354 17.915 17.915 0 0 1-.167 1.379 14.826 14.826 0 0 1-.145.769q-.216.996-.744 1.752a10.187 10.187 0 0 1-1.04 1.255 11.457 11.457 0 0 1-.196.197 14.941 14.941 0 0 1-.548.51q-.29.258-.636.544a36.279 36.279 0 0 1-.748.602zm0-8.352v6.072q1.248-1.104 1.524-2.1a4.746 4.746 0 0 0 .114-.576q.14-.966.159-2.799a57.733 57.733 0 0 0 .003-.597zm12.72 5.448V12.8h-1.8v4.632a5.654 5.654 0 0 0 .004.216q.016.428.104.516a.205.205 0 0 0 .072.042q.17.065.644.066a7.119 7.119 0 0 0 .016 0q.636 0 .949-.023a4.129 4.129 0 0 0 .011-.001zm23.448 3.072h-3.84q.912 1.032 2.04 1.848 1.008-.84 1.8-1.848z" fill="#FFF" stroke-linecap="round" fill-rule="evenodd" stroke="#EA66FF" stroke-width="4" paint-order="stroke"/>
</svg>
