<svg xmlns="http://www.w3.org/2000/svg" width="88" height="41">
    <defs>
        <radialGradient id="a">
            <stop offset="0%" stop-color="#FFF" stop-opacity=".7"/>
            <stop offset="100%" stop-color="#FFF" stop-opacity="0"/>
        </radialGradient>
        <radialGradient id="b" cx="10%" cy="15%">
            <stop offset="5%" stop-color="#F3C386"/>
            <stop offset="95%" stop-color="#D97D33"/>
        </radialGradient>
        <linearGradient id="d">
            <stop offset="0%" stop-color="#FFB"/>
            <stop offset="100%" stop-color="#FEB"/>
        </linearGradient>
        <pattern id="c" x="0" y="0" width="20" height="20" patternUnits="userSpaceOnUse">
            <rect x="3" y="3" width="4" height="4" fill="url(#a)"/>
            <rect x="13" y="13" width="4" height="4" fill="url(#a)"/>
        </pattern>
        <filter id="e" height="150%">
            <feDropShadow dx="0" dy="3" flood-color="#790000" flood-opacity=".85" stdDeviation="0"/>
        </filter>
    </defs>
    <polygon points="2,21 14,3 74,3 86,21 74,39 14,39" stroke="#BB0C0D" fill="url(#b)"/>
    <polygon points="2,21 14,3 74,3 86,21 74,39 14,39" fill="url(#c)"/>
    <g fill="#790303" stroke-linecap="round" fill-rule="evenodd" stroke="url(#d)" stroke-width="4" paint-order="stroke" filter="url(#e)">
        <path d="M55.928 21.32H53.84v-3.36h.792l-1.32-1.2H48.8v1.32h4.56v3.24H48.8v1.488q1.323-.184 3.363-.536a227.316 227.316 0 001.317-.232l.24 3.48q-2.496.48-4.92.816v3.744h-4.32v-3.216a1.697 1.697 0 00-.107.004q-.152.01-.385.044-.324.048-.468.048l-.24-3.48q.165-.018.436-.044a61.726 61.726 0 01.176-.016 39.709 39.709 0 00.185-.017q.259-.025.403-.043V9.8q4.104-.552 8.4-1.8l1.08 3.6q-2.808.768-5.16 1.2v.72h4.56v1.536a5.129 5.129 0 00.59-1.277q.411-1.29.477-3.219a22.223 22.223 0 00.013-.76V8.48h8.52v5.16a2.283 2.283 0 00.002.091q.007.182.046.221a.094.094 0 00.033.019q.057.022.188.027a2.287 2.287 0 00.091.002.464.464 0 00.168-.028q.188-.073.24-.332a2.649 2.649 0 00.029-.198q.054-.465.129-1.73a149.28 149.28 0 00.034-.592l2.88.48q-.046 1.017-.07 1.51a150.584 150.584 0 01-.002.038q-.016.338-.067.779a20.742 20.742 0 01-.053.421 69.282 69.282 0 00-.041.307q-.046.355-.068.556a6.789 6.789 0 00-.011.109 1.102 1.102 0 01-.034.181q-.058.218-.206.515a14.068 14.068 0 01-.076.151q-.118.227-.185.333a.761.761 0 01-.039.056.376.376 0 01-.051.052q-.097.084-.321.208a5.847 5.847 0 01-.096.052q-.298.159-.488.208a.734.734 0 01-.1.02q-.204.024-.828.084-.624.06-1.02.06H61.76a12.635 12.635 0 01-.64-.015q-1.046-.053-1.412-.297-.417-.278-.462-1.145a4.236 4.236 0 01-.006-.223v-3.72h-1.2a11.134 11.134 0 01-.248 2.426q-.357 1.6-1.229 2.776a6.454 6.454 0 01-.827.918h9.624v3.36q-1.104 2.16-2.784 3.792a23.533 23.533 0 002.471.896 29.406 29.406 0 001.753.472l-1.32 3.6q-3.408-.744-6.336-2.448-1.832 1.026-4.446 1.912A44.596 44.596 0 0153 30.08l-1.68-3.48q2.352-.504 4.44-1.44a19.975 19.975 0 01-1-1.009q-.602-.655-1.04-1.271l2.208-1.56zM31.64 12.8l-.6 3.48h7.44v9h3.6V29H20v-3.72h4.92l.936-5.4H22.64v-3.6h3.84l.6-3.48H21.2V9.08h19.68v3.72h-9.24zm2.4 7.08h-3.624l-.936 5.4h4.56v-5.4zm26.808 1.44h-3.84q.912 1.032 2.04 1.848 1.008-.84 1.8-1.848z"/>
    </g>
</svg>
