<svg xmlns="http://www.w3.org/2000/svg" width="126" height="70" xml:space="preserve">
  <path fill="#127A16" d="M12 20h103.833l-10.166 16.333 10.166 16.5H13l9.833-16.417z"/>
  <linearGradient id="a" gradientUnits="userSpaceOnUse" x1="63.417" y1="6" x2="63.417" y2="64.834">
    <stop offset="0" style="stop-color:#c6edde"/>
    <stop offset="1" style="stop-color:#eff1ee"/>
  </linearGradient>
  <circle fill="url(#a)" cx="63.417" cy="35.416" r="29.417"/>
  <path fill="#C4ECDD" d="M92.416 35.417c0 16.246-13.17 29.416-29.416 29.416s-29.417-13.17-29.417-29.416c0 0 13.171 9.25 29.417 9.25s29.416-9.25 29.416-9.25z"/>
  <g fill="none" stroke-miterlimit="10">
    <path stroke="#127715" d="M93.488 36.248c0 16.706-13.172 29.419-29.738 29.419-16.565 0-29.396-12.545-29.396-29.251C34.354 19.71 46.928 6 63.493 6 80.06 6 93.488 19.542 93.488 36.248z"/>
    <circle stroke="#15971C" stroke-width="2" cx="63.75" cy="35.416" r="29.416"/>
    <circle stroke="#15971C" cx="63.583" cy="35.417" r="25.583"/>
  </g>
  <g>
    <linearGradient id="b" gradientUnits="userSpaceOnUse" x1="53.448" y1="21.476" x2="53.448" y2="48.854">
      <stop offset=".521" style="stop-color:#fff"/>
      <stop offset=".605" style="stop-color:#c9fb9d"/>
    </linearGradient>
    <path fill="url(#b)" stroke="#127A16" stroke-miterlimit="10" d="M43.187 48.854V21.476h9.134c6.623.049 9.946 2.3 9.97 6.754 0 1.95-.655 3.552-1.965 4.804a5.43 5.43 0 0 1-1.783 1.083v.217c2.571.603 4.196 2.035 4.876 4.296a7.84 7.84 0 0 1 .291 2.168c0 3.42-1.65 5.779-4.949 7.078-1.626.65-3.53.977-5.713.977h-9.861zm5.531-16.253h3.202c3.178-.217 4.852-1.409 5.021-3.576 0-1.806-1.019-2.877-3.057-3.214a11.225 11.225 0 0 0-1.892-.145h-3.275v6.935zm0 12.026h3.821c3.857-.023 5.798-1.408 5.822-4.154-.049-2.504-1.989-3.768-5.822-3.791h-3.821v7.945z"/>
    <linearGradient id="c" gradientUnits="userSpaceOnUse" x1="75.628" y1="21.476" x2="75.628" y2="49.358">
      <stop offset=".521" style="stop-color:#fff"/>
      <stop offset=".605" style="stop-color:#c9fb9d"/>
    </linearGradient>
    <path fill="url(#c)" stroke="#127A16" stroke-miterlimit="10" d="M75.464 49.357c-3.711-.023-6.816-1.264-9.314-3.719l2.51-3.469c1.916 1.807 3.941 2.723 6.076 2.746 2.111 0 3.566-.832 4.367-2.492.34-.746.51-1.59.51-2.529 0-2.334-.887-3.863-2.656-4.586a5.401 5.401 0 0 0-2.002-.36c-1.188 0-2.342.348-3.457 1.045a9.216 9.216 0 0 0-.654.398l-2.512-1.625.766-13.292h14.736v4.551H73.825l-.545 5.815c1.164-.529 2.268-.794 3.313-.794 3.055 0 5.348 1.047 6.877 3.142 1.092 1.468 1.637 3.322 1.637 5.56 0 3.324-1.213 5.889-3.639 7.693-1.723 1.28-3.725 1.916-6.004 1.916z"/>
  </g>
</svg>
