<svg width="70" height="70" xml:space="preserve" xmlns="http://www.w3.org/2000/svg">
  <linearGradient id="a" gradientUnits="userSpaceOnUse" x1="38.944" y1="55.639" x2="34.873" y2="78.727" gradientTransform="rotate(19.426 84.59 -3.617)">
    <stop offset="0" style="stop-color:#f39800"/>
    <stop offset=".243" style="stop-color:#faee00"/>
    <stop offset=".329" style="stop-color:#fade00"/>
    <stop offset=".463" style="stop-color:#f8c700"/>
    <stop offset=".598" style="stop-color:#f6b300"/>
    <stop offset=".732" style="stop-color:#f5a400"/>
    <stop offset=".866" style="stop-color:#f49b00"/>
    <stop offset="1" style="stop-color:#f39800"/>
  </linearGradient>
  <linearGradient id="b" gradientUnits="userSpaceOnUse" x1="64.756" y1="51.893" x2="59.832" y2="79.818" gradientTransform="rotate(19.426 84.59 -3.617)">
    <stop offset=".518" style="stop-color:#faee00"/>
    <stop offset=".569" style="stop-color:#fae000"/>
    <stop offset=".656" style="stop-color:#f8c800"/>
    <stop offset=".744" style="stop-color:#f6b400"/>
    <stop offset=".831" style="stop-color:#f5a400"/>
    <stop offset=".917" style="stop-color:#f49b00"/>
    <stop offset="1" style="stop-color:#f39800"/>
  </linearGradient>
  <linearGradient id="c" gradientUnits="userSpaceOnUse" x1="29.8" y1="25.702" x2="24.079" y2="58.148" gradientTransform="rotate(19.426 84.59 -3.617)">
    <stop offset="0" style="stop-color:#f39800"/>
    <stop offset=".518" style="stop-color:#faee00"/>
  </linearGradient>
  <linearGradient id="d" gradientUnits="userSpaceOnUse" x1="72.542" y1="27.387" x2="67.266" y2="57.306" gradientTransform="rotate(19.426 84.59 -3.617)">
    <stop offset="0" style="stop-color:#f39800"/>
    <stop offset=".518" style="stop-color:#faee00"/>
  </linearGradient>
  <linearGradient id="e" gradientUnits="userSpaceOnUse" x1="41.188" y1="28.476" x2="38.425" y2="44.145" gradientTransform="rotate(19.426 84.59 -3.617)">
    <stop offset="0" style="stop-color:#f39800"/>
    <stop offset=".518" style="stop-color:#faee00"/>
  </linearGradient>
  <linearGradient id="f" gradientUnits="userSpaceOnUse" x1="50.75" y1="56.95" x2="47.726" y2="74.098" gradientTransform="rotate(19.426 84.59 -3.617)">
    <stop offset="0" style="stop-color:#faee00"/>
    <stop offset=".214" style="stop-color:#faed00"/>
    <stop offset=".388" style="stop-color:#fae700"/>
    <stop offset=".548" style="stop-color:#fadc00"/>
    <stop offset=".699" style="stop-color:#f8cd00"/>
    <stop offset=".845" style="stop-color:#f7b800"/>
    <stop offset=".984" style="stop-color:#f49b00"/>
    <stop offset="1" style="stop-color:#f39800"/>
  </linearGradient>
  <linearGradient id="g" gradientUnits="userSpaceOnUse" x1="60.19" y1="27.096" x2="57.005" y2="45.16" gradientTransform="rotate(19.426 84.59 -3.617)">
    <stop offset="0" style="stop-color:#f39800"/>
    <stop offset=".518" style="stop-color:#faee00"/>
  </linearGradient>
  <linearGradient id="h" gradientUnits="userSpaceOnUse" x1="51.505" y1="29.268" x2="44.715" y2="67.774" gradientTransform="rotate(19.426 84.59 -3.617)">
    <stop offset="0" style="stop-color:#f39800"/>
    <stop offset=".518" style="stop-color:#faee00"/>
    <stop offset=".593" style="stop-color:#fae700"/>
    <stop offset=".728" style="stop-color:#f9d300"/>
    <stop offset=".909" style="stop-color:#f6ae00"/>
    <stop offset="1" style="stop-color:#f39800"/>
  </linearGradient>
  <path fill="none" stroke="url(#a)" stroke-width="5" stroke-miterlimit="10" d="M11.633 33.711C4.498 34.28 4.12 46.527 8.73 52.478c3.998 5.162 14.75 9.196 17.678 2.976" style="stroke:url(#a)"/>
  <path fill="none" stroke="url(#b)" stroke-width="5" stroke-miterlimit="10" d="M51.844 47.41c5.953 5.778-2.157 15.14-9.615 16.884-6.85 1.602-16.589-2.62-15.822-8.84" style="stroke:url(#b)"/>
  <path fill="none" stroke="url(#c)" stroke-width="5" stroke-miterlimit="10" d="M27.6 13.4c-.152-7.417-14.636-3.02-18.302 2.377-4.46 6.566-4.573 17.141 2.335 17.934" style="stroke:url(#c)"/>
  <path fill="none" stroke="url(#d)" stroke-width="5" stroke-miterlimit="10" d="M51.282 22.264c6.997-5.964 13.442 6.907 13.01 13.554-.434 6.676-5.999 14.167-12.447 11.591" style="stroke:url(#d)"/>
  <path fill="none" stroke="#f39800" stroke-width="5" stroke-miterlimit="10" d="M28 14.098C25.86 6.035 37.643 4.03 43.8 6.202c6.157 2.172 13.998 10.598 7.482 16.062"/>
  <path fill="none" stroke="url(#e)" stroke-width="5" stroke-miterlimit="10" d="m26.93 10.786 4.291 16.715" style="stroke:url(#e)"/>
  <path fill="none" stroke="#faee00" stroke-width="5" stroke-miterlimit="10" d="m8.64 33.711 17.182.847"/>
  <path fill="none" stroke="url(#f)" stroke-width="5" stroke-miterlimit="10" d="m25.64 57.792 5.226-15.923" style="stroke:url(#f)"/>
  <path fill="none" stroke="#faee00" stroke-width="5" stroke-miterlimit="10" d="M53.97 48.937 39.38 39.34"/>
  <path fill="none" stroke="url(#g)" stroke-width="5" stroke-miterlimit="10" d="m54.112 19.986-14.51 10.471" style="stroke:url(#g)"/>
  <path fill="none" stroke="url(#h)" stroke-width="5" stroke-miterlimit="10" d="m38.406 20.494 1.196 9.963 8.885 4.662-9.108 4.221-1.687 9.89-6.826-7.36-9.93 1.451 4.886-8.763-4.444-9 9.843 1.943z" style="stroke:url(#h)"/>
  <path d="M63.472 39.643c2.801-7.94-1.294-16.637-9.14-19.579-.31-6.067-4.2-11.63-10.286-13.777-6.212-2.19-12.876-.159-16.9 4.576-.089-.032-.174-.072-.27-.106-8.04-2.836-16.857 1.38-19.695 9.425-1.667 4.726-.88 9.708 1.675 13.604a15.37 15.37 0 0 0-2.329 4.278c-2.835 8.04 1.385 16.86 9.423 19.694 3.33 1.176 6.787 1.123 9.91.111a15.345 15.345 0 0 0 7.774 6.127c8.042 2.836 16.86-1.387 19.694-9.426.65-1.844.912-3.719.857-5.559a15.38 15.38 0 0 0 9.287-9.368zm-36.325-28.78 4.294 16.715m22.891-7.514L39.82 30.534m14.366 18.48-14.59-9.598M25.86 57.87l5.224-15.924M8.857 33.787l17.186.85" fill="none" stroke="#eab261" stroke-width="3" stroke-miterlimit="10"/>
  <path fill="#eab261" d="m30.52 43.544-12.158 1.78 5.987-10.73-5.445-11.02 12.054 2.38 8.792-8.578 1.466 12.195 10.878 5.71-11.152 5.165-2.064 12.11z"/>
  <path fill="none" stroke="#fff" stroke-width="1.5" stroke-miterlimit="10" d="m38.623 20.571 1.197 9.962 8.887 4.664-9.11 4.22-1.687 9.89-6.826-7.36-9.93 1.452 4.89-8.763-4.449-9.003 9.846 1.945z"/>
  <path fill="#fff" d="M45.081 6.035s.272.07.74.215c.233.068.512.17.827.314.32.134.683.293 1.044.511.76.39 1.567.977 2.384 1.668.381.373.816.724 1.173 1.162.38.417.733.867 1.074 1.33.322.474.628.962.895 1.462.281.493.49 1.012.681 1.518.21.497.32 1.016.443 1.491.087.49.188.944.193 1.38.034.428.043.82.004 1.17-.02.346-.046.645-.108.888-.104.486-.179.753-.179.753s-.053-.283-.12-.757c-.019-.237-.102-.52-.165-.842-.057-.323-.17-.676-.279-1.059-.093-.386-.282-.782-.418-1.21-.185-.415-.36-.855-.585-1.293-.11-.219-.226-.44-.34-.666a13.041 13.041 0 0 1-.389-.662A15.788 15.788 0 0 0 51.1 12.1a14.993 14.993 0 0 0-.947-1.252c-.32-.407-.667-.785-.993-1.16-.358-.343-.664-.723-1.006-1.027-.33-.318-.645-.623-.952-.885a25.676 25.676 0 0 0-1.516-1.263 17.66 17.66 0 0 1-.604-.478zM64.603 35.884s.02.281.03.77c.011.243.003.54-.036.884-.025.347-.062.74-.152 1.152-.13.844-.43 1.796-.828 2.79-.232.48-.428 1.004-.729 1.48-.275.491-.59.97-.922 1.44-.348.455-.714.9-1.103 1.311-.379.423-.806.785-1.225 1.126-.405.356-.862.625-1.274.893-.438.237-.836.477-1.247.62a6.166 6.166 0 0 1-1.108.374c-.336.09-.627.161-.878.18-.494.053-.77.067-.77.067s.251-.139.68-.354c.22-.093.462-.262.746-.424.288-.155.588-.374.917-.6.336-.21.651-.516 1.015-.779.335-.307.697-.613 1.042-.964l.523-.534c.161-.195.33-.389.505-.577.343-.385.662-.804.97-1.228.315-.42.62-.85.887-1.295.284-.434.533-.88.785-1.31.212-.448.475-.858.655-1.279.196-.415.387-.808.537-1.183.32-.746.56-1.367.718-1.838.158-.459.262-.722.262-.722zM41.736 64.67s-.265.096-.73.242a5.945 5.945 0 0 1-.86.211c-.34.071-.729.146-1.149.173-.846.11-1.845.085-2.909-.02-.525-.09-1.083-.133-1.625-.29a16.444 16.444 0 0 1-1.639-.485 16.553 16.553 0 0 1-1.567-.694c-.51-.246-.978-.555-1.422-.862-.455-.29-.84-.654-1.212-.976-.35-.354-.69-.669-.943-1.024a6.223 6.223 0 0 1-.668-.96c-.18-.299-.33-.558-.417-.794-.19-.46-.28-.72-.28-.72s.203.202.528.554c.15.185.38.371.615.6.23.233.524.46.832.712.295.265.677.483 1.031.758.388.237.783.5 1.216.732l.658.354c.233.101.465.208.695.324.464.222.956.412 1.45.59.49.187.987.358 1.49.491.495.152.994.268 1.476.391.49.08.956.218 1.411.273.452.074.883.147 1.285.188.805.1 1.47.157 1.965.18.49.024.77.051.77.051zM7.398 50.89s-.18-.217-.475-.605a5.781 5.781 0 0 1-.489-.738 7.995 7.995 0 0 1-.55-1.024c-.39-.759-.705-1.707-.964-2.745-.093-.524-.24-1.064-.276-1.627a16.627 16.627 0 0 1-.097-1.707 16.44 16.44 0 0 1 .125-1.71c.06-.563.192-1.107.332-1.63.12-.525.333-1.012.51-1.47.214-.448.396-.876.646-1.233.222-.369.443-.692.678-.953.22-.27.413-.498.606-.66.37-.334.584-.508.584-.508s-.122.26-.344.685c-.123.204-.22.483-.356.782-.143.294-.257.648-.39 1.023-.15.368-.227.8-.366 1.227-.092.445-.206.906-.279 1.393l-.11.74c-.017.253-.04.507-.072.763a15.875 15.875 0 0 0-.066 1.563c-.01.525-.004 1.052.04 1.57.024.518.084 1.026.131 1.521.091.486.118.974.22 1.42.082.452.16.882.256 1.273.18.792.348 1.437.496 1.911.141.465.21.74.21.74zM9.97 14.441s.155-.235.443-.63c.14-.2.326-.43.566-.68.23-.26.5-.552.821-.824.615-.59 1.432-1.166 2.351-1.714.476-.24.95-.539 1.48-.734a16.39 16.39 0 0 1 1.605-.586A16.375 16.375 0 0 1 18.91 8.9c.557-.106 1.116-.136 1.656-.153.538-.038 1.064.026 1.554.063.491.077.954.127 1.368.263.417.106.791.224 1.108.375.322.132.596.251.807.39.426.256.655.412.655.412s-.285-.042-.755-.13c-.23-.06-.526-.073-.85-.116-.324-.05-.696-.058-1.093-.078-.395-.037-.83.015-1.28.004-.453.041-.926.065-1.414.135l-.74.107c-.248.058-.498.11-.752.153-.505.098-1.014.237-1.515.388a15.03 15.03 0 0 0-1.49.491c-.49.172-.96.376-1.42.565-.44.228-.898.394-1.297.62-.408.21-.797.406-1.145.613-.707.4-1.274.747-1.686 1.025-.408.27-.65.415-.65.415zM50.65 22.343s-.374.493-1.013 1.127a25.11 25.11 0 0 1-2.479 2.15 24.996 24.996 0 0 1-2.735 1.81c-.782.445-1.358.671-1.358.671s.372-.494 1.012-1.128a24.996 24.996 0 0 1 2.48-2.149c.95-.717 1.947-1.37 2.735-1.809a11.861 11.861 0 0 1 1.357-.672zM51.844 47.41s-.583-.206-1.383-.62a25.343 25.343 0 0 1-5.362-3.755 11.556 11.556 0 0 1-1.054-1.09s.584.205 1.383.62a25.318 25.318 0 0 1 5.361 3.756c.664.61 1.055 1.088 1.055 1.088zM29.506 46.327s-.009.617-.15 1.508a25.271 25.271 0 0 1-1.863 6.273c-.368.822-.699 1.344-.699 1.344s.008-.617.148-1.508c.132-.89.393-2.055.73-3.197a25.242 25.242 0 0 1 1.136-3.076c.368-.822.698-1.344.698-1.344zM21.785 34.437s-.606.12-1.506.168c-.9.057-2.094.047-3.28-.043-1.188-.096-2.368-.27-3.248-.469-.88-.188-1.46-.402-1.46-.402s.605-.12 1.505-.17a25.38 25.38 0 0 1 6.528.514 11.93 11.93 0 0 1 1.461.402z"/>
  <g>
    <path fill="#fff" d="M30.151 23.374s-.297-.542-.615-1.385a25.225 25.225 0 0 1-.948-3.14 24.8 24.8 0 0 1-.532-3.237c-.086-.896-.057-1.514-.057-1.514s.298.542.616 1.384c.326.841.675 1.982.947 3.141.265 1.161.453 2.34.531 3.237.086.897.058 1.514.058 1.514z"/>
  </g>
</svg>
