<svg xmlns="http://www.w3.org/2000/svg" width="70" height="70" xml:space="preserve">
  <linearGradient id="a" gradientUnits="userSpaceOnUse" x1="23.399" y1="40.522" x2="19.249" y2="64.059" gradientTransform="rotate(19.426 33.651 34.523)">
    <stop offset="0" style="stop-color:#5f4181"/>
    <stop offset=".243" style="stop-color:#209edb"/>
    <stop offset=".281" style="stop-color:#3096d2"/>
    <stop offset=".401" style="stop-color:#487eb7"/>
    <stop offset=".521" style="stop-color:#5469a2"/>
    <stop offset=".641" style="stop-color:#595893"/>
    <stop offset=".761" style="stop-color:#5d4c89"/>
    <stop offset=".881" style="stop-color:#5e4483"/>
    <stop offset="1" style="stop-color:#5f4181"/>
  </linearGradient>
  <path fill="none" stroke="url(#a)" stroke-width="5.5" stroke-miterlimit="10" d="M11.687 33.578c-7.135.568-7.514 12.815-2.904 18.767 3.998 5.162 14.749 9.196 17.679 2.976"/>
  <linearGradient id="b" gradientUnits="userSpaceOnUse" x1="49.225" y1="36.745" x2="44.215" y2="65.153" gradientTransform="rotate(19.426 33.651 34.523)">
    <stop offset=".518" style="stop-color:#209edb"/>
    <stop offset=".538" style="stop-color:#2d98d4"/>
    <stop offset=".616" style="stop-color:#4880b9"/>
    <stop offset=".695" style="stop-color:#536aa3"/>
    <stop offset=".773" style="stop-color:#595993"/>
    <stop offset=".85" style="stop-color:#5d4c89"/>
    <stop offset=".926" style="stop-color:#5e4483"/>
    <stop offset="1" style="stop-color:#5f4181"/>
  </linearGradient>
  <path fill="none" stroke="url(#b)" stroke-width="5.5" stroke-miterlimit="10" d="M51.897 47.276c5.953 5.779-2.156 15.141-9.615 16.885-6.85 1.602-16.589-2.621-15.821-8.841"/>
  <linearGradient id="c" gradientUnits="userSpaceOnUse" x1="14.248" y1="10.54" x2="8.44" y2="43.478" gradientTransform="rotate(19.426 33.651 34.523)">
    <stop offset="0" style="stop-color:#5f4181"/>
    <stop offset=".518" style="stop-color:#209edb"/>
  </linearGradient>
  <path fill="none" stroke="url(#c)" stroke-width="5.5" stroke-miterlimit="10" d="M27.653 13.267c-.151-7.417-14.636-3.02-18.302 2.377-4.46 6.566-4.573 17.141 2.335 17.934"/>
  <linearGradient id="d" gradientUnits="userSpaceOnUse" x1="57.012" y1="12.231" x2="51.65" y2="42.641" gradientTransform="rotate(19.426 33.651 34.523)">
    <stop offset="0" style="stop-color:#5f4181"/>
    <stop offset=".518" style="stop-color:#209edb"/>
  </linearGradient>
  <path fill="none" stroke="url(#d)" stroke-width="5.5" stroke-miterlimit="10" d="M51.335 22.131c6.998-5.964 13.443 6.907 13.01 13.555-.434 6.676-5.998 14.167-12.447 11.591"/>
  <path fill="none" stroke="#5F4181" stroke-width="5.5" stroke-miterlimit="10" d="M28.054 13.965c-2.141-8.063 9.643-10.068 15.799-7.896 6.158 2.172 13.998 10.598 7.482 16.062"/>
  <linearGradient id="e" gradientUnits="userSpaceOnUse" x1="25.639" y1="13.392" x2="22.815" y2="29.403" gradientTransform="rotate(19.426 33.651 34.523)">
    <stop offset="0" style="stop-color:#5f4181"/>
    <stop offset=".518" style="stop-color:#209edb"/>
  </linearGradient>
  <path fill="none" stroke="url(#e)" stroke-width="5.5" stroke-miterlimit="10" d="m26.983 10.653 4.291 16.715"/>
  <path fill="none" stroke="#339FD0" stroke-width="5.5" stroke-miterlimit="10" d="m8.692 33.578 17.184.848"/>
  <linearGradient id="f" gradientUnits="userSpaceOnUse" x1="35.177" y1="41.988" x2="32.137" y2="59.232" gradientTransform="rotate(19.426 33.651 34.523)">
    <stop offset="0" style="stop-color:#209edb"/>
    <stop offset=".195" style="stop-color:#249dd9"/>
    <stop offset=".353" style="stop-color:#2e98d3"/>
    <stop offset=".498" style="stop-color:#3a8fc9"/>
    <stop offset=".635" style="stop-color:#4681bb"/>
    <stop offset=".767" style="stop-color:#5170a9"/>
    <stop offset=".893" style="stop-color:#595994"/>
    <stop offset="1" style="stop-color:#5f4181"/>
  </linearGradient>
  <path fill="none" stroke="url(#f)" stroke-width="5.5" stroke-miterlimit="10" d="m25.693 57.659 5.227-15.923"/>
  <path fill="none" stroke="#339FD0" stroke-width="5.5" stroke-miterlimit="10" d="m54.024 48.804-14.591-9.597"/>
  <linearGradient id="g" gradientUnits="userSpaceOnUse" x1="44.627" y1="12.081" x2="41.406" y2="30.351" gradientTransform="rotate(19.426 33.651 34.523)">
    <stop offset="0" style="stop-color:#5f4181"/>
    <stop offset=".518" style="stop-color:#209edb"/>
  </linearGradient>
  <path fill="none" stroke="url(#g)" stroke-width="5.5" stroke-miterlimit="10" d="m54.165 19.853-14.51 10.471"/>
  <linearGradient id="h" gradientUnits="userSpaceOnUse" x1="36.19" y1="12.142" x2="28.662" y2="54.841" gradientTransform="rotate(19.426 33.651 34.523)">
    <stop offset="0" style="stop-color:#5f4181"/>
    <stop offset=".518" style="stop-color:#209edb"/>
    <stop offset=".58" style="stop-color:#2d98d4"/>
    <stop offset=".693" style="stop-color:#4286c0"/>
    <stop offset=".844" style="stop-color:#5468a1"/>
    <stop offset="1" style="stop-color:#5f4181"/>
  </linearGradient>
  <path fill="none" stroke="url(#h)" stroke-width="7" stroke-miterlimit="10" d="m38.46 20.361 1.195 9.963 8.885 4.662-9.107 4.221-1.688 9.89-6.825-7.361-9.931 1.452 4.887-8.762-4.445-9.002 9.843 1.944z"/>
  <g fill="none" stroke="#AA8BBF" stroke-width="2.5" stroke-miterlimit="10">
    <path d="M63.526 39.51c2.801-7.941-1.295-16.637-9.141-19.579-.309-6.067-4.199-11.63-10.285-13.777-6.213-2.191-12.877-.159-16.9 4.576-.09-.032-.174-.072-.271-.106-8.039-2.836-16.855 1.38-19.693 9.425-1.668 4.726-.881 9.708 1.675 13.605a15.364 15.364 0 0 0-2.329 4.277c-2.836 8.04 1.385 16.86 9.424 19.694 3.33 1.176 6.786 1.123 9.908.111a15.345 15.345 0 0 0 7.775 6.127c8.041 2.836 16.859-1.387 19.693-9.426.65-1.844.912-3.719.857-5.559a15.383 15.383 0 0 0 9.287-9.368zM27.2 10.73l4.294 16.715M54.386 19.931 39.874 30.4M54.239 48.88l-14.59-9.597M25.913 57.737l5.225-15.924M8.91 33.654l17.187.85"/>
  </g>
  <g>
    <path fill="#AA8BBF" d="M30.574 43.411 18.415 45.19l5.988-10.729-5.445-11.021 12.053 2.38 8.793-8.577 1.466 12.195 10.878 5.71-11.153 5.165-2.063 12.109z"/>
    <path fill="none" stroke="#FFF" stroke-width="1.5" stroke-miterlimit="10" d="m38.677 20.438 1.197 9.962 8.887 4.664-9.112 4.219-1.685 9.89-6.826-7.36-9.931 1.453 4.89-8.762-4.448-9.004 9.845 1.945z"/>
  </g>
  <g>
    <path fill="#FFF" d="M45.134 5.902s.273.07.74.215c.234.068.512.169.828.314.32.134.682.293 1.043.511.76.39 1.568.977 2.385 1.668.381.373.816.724 1.172 1.162.381.417.734.867 1.074 1.33.322.474.629.962.895 1.462.281.493.49 1.012.682 1.518.209.497.318 1.016.443 1.491.086.49.188.944.193 1.379.033.429.043.821.004 1.17-.021.347-.047.646-.109.889-.104.486-.178.753-.178.753s-.053-.283-.121-.757c-.018-.237-.102-.521-.164-.842-.057-.323-.17-.676-.279-1.059-.094-.386-.283-.782-.418-1.21-.186-.415-.361-.855-.586-1.293l-.34-.666a13.847 13.847 0 0 1-.389-.662 15.788 15.788 0 0 0-.857-1.308 14.778 14.778 0 0 0-.947-1.252c-.32-.407-.666-.785-.992-1.16-.359-.343-.664-.723-1.006-1.027-.332-.318-.645-.623-.953-.885a25.352 25.352 0 0 0-1.516-1.263c-.387-.296-.604-.478-.604-.478zM64.657 35.752s.02.28.029.769c.012.244.004.54-.035.885-.025.347-.063.74-.152 1.152-.131.844-.432 1.796-.828 2.79-.232.479-.428 1.004-.73 1.479-.275.492-.59.971-.922 1.44-.348.456-.713.9-1.102 1.312-.379.423-.807.785-1.225 1.126-.406.356-.863.625-1.275.893-.438.237-.836.477-1.246.619a6.174 6.174 0 0 1-1.109.375c-.336.089-.627.161-.877.179-.494.054-.771.068-.771.068s.252-.139.682-.354c.219-.093.461-.262.746-.424.287-.155.588-.374.916-.6.336-.21.652-.516 1.016-.779.334-.307.697-.613 1.041-.964l.523-.534c.162-.195.33-.389.506-.577.342-.385.662-.804.969-1.228.316-.42.619-.85.887-1.295.285-.434.533-.881.785-1.31.213-.448.475-.858.656-1.279.195-.415.387-.808.537-1.183.318-.746.559-1.367.717-1.838.157-.46.262-.722.262-.722zM41.79 64.536s-.266.097-.73.243c-.232.077-.52.152-.861.211a8.12 8.12 0 0 1-1.148.173c-.846.109-1.846.085-2.91-.021-.524-.09-1.082-.132-1.625-.29a16.444 16.444 0 0 1-1.639-.484 16.423 16.423 0 0 1-1.566-.694c-.512-.246-.979-.555-1.422-.862-.455-.29-.84-.654-1.213-.976-.35-.354-.69-.669-.942-1.024a6.154 6.154 0 0 1-.668-.961c-.18-.298-.329-.557-.417-.793-.189-.46-.28-.721-.28-.721s.204.203.528.555c.15.185.381.371.615.6.23.233.524.46.832.712.295.265.677.483 1.031.758.388.237.783.499 1.217.732l.658.354c.232.101.465.208.695.324.464.222.955.412 1.448.589.491.188.988.359 1.49.492.495.152.995.268 1.478.391.488.079.955.218 1.41.273.453.074.883.147 1.285.188.805.1 1.469.157 1.965.179.488.025.769.052.769.052zM7.452 50.757s-.182-.217-.476-.605a5.781 5.781 0 0 1-.489-.738 7.995 7.995 0 0 1-.551-1.024c-.39-.759-.704-1.707-.964-2.745-.093-.524-.241-1.064-.276-1.627a16.914 16.914 0 0 1-.097-1.707 16.44 16.44 0 0 1 .126-1.71c.059-.563.191-1.107.331-1.63.12-.525.333-1.012.509-1.47.216-.448.398-.876.647-1.233.222-.368.442-.692.679-.953.219-.27.412-.498.605-.659.369-.335.584-.508.584-.508s-.122.26-.344.685c-.123.204-.221.483-.355.782-.143.294-.258.647-.391 1.022-.15.368-.227.8-.365 1.227-.093.445-.206.906-.279 1.393l-.111.739a13.3 13.3 0 0 1-.07.764 15.282 15.282 0 0 0-.066 1.563c-.01.525-.004 1.052.039 1.569.025.519.084 1.027.132 1.522.091.486.118.974.219 1.42.083.452.159.882.257 1.273.179.792.348 1.437.496 1.911.141.465.21.739.21.739zM10.023 14.308s.155-.235.442-.63c.141-.2.326-.431.566-.681.23-.26.498-.551.821-.823.614-.591 1.432-1.166 2.351-1.714.476-.24.949-.539 1.479-.734a16.66 16.66 0 0 1 1.605-.586 16.453 16.453 0 0 1 1.674-.374c.557-.106 1.115-.136 1.656-.153.537-.038 1.064.026 1.554.063.491.077.954.127 1.368.263.417.106.791.224 1.107.375.322.132.597.251.807.39.427.256.655.412.655.412s-.284-.042-.755-.131c-.23-.059-.527-.072-.852-.115-.323-.051-.695-.058-1.092-.078-.396-.037-.832.015-1.28.004-.452.041-.927.065-1.413.135l-.74.107c-.248.058-.498.109-.752.153-.506.098-1.014.237-1.516.388-.506.142-1.008.299-1.49.491-.489.172-.959.376-1.42.565-.439.228-.898.394-1.297.619-.408.21-.797.407-1.145.614-.707.399-1.275.747-1.687 1.025-.404.27-.646.415-.646.415zM50.702 22.21s-.373.493-1.012 1.127a25.11 25.11 0 0 1-2.479 2.15 24.996 24.996 0 0 1-2.735 1.81c-.782.445-1.358.671-1.358.671s.372-.494 1.012-1.128a24.996 24.996 0 0 1 2.479-2.149c.95-.717 1.948-1.37 2.736-1.809.782-.445 1.357-.672 1.357-.672zM51.897 47.276s-.583-.204-1.382-.62a25.18 25.18 0 0 1-5.362-3.755c-.663-.609-1.054-1.089-1.054-1.089s.584.204 1.383.618a25.294 25.294 0 0 1 5.36 3.758c.664.61 1.055 1.088 1.055 1.088zM29.56 46.194s-.009.618-.149 1.507a25.07 25.07 0 0 1-.729 3.198 24.963 24.963 0 0 1-1.136 3.076c-.368.821-.699 1.344-.699 1.344s.009-.618.149-1.508c.132-.892.393-2.056.729-3.197.342-1.14.762-2.256 1.137-3.075.367-.822.698-1.345.698-1.345zM21.839 34.305s-.606.119-1.507.168a24.96 24.96 0 0 1-3.28-.043c-1.187-.097-2.367-.271-3.247-.469-.881-.188-1.462-.402-1.462-.402s.606-.121 1.507-.17a24.818 24.818 0 0 1 3.28.045 25.03 25.03 0 0 1 3.247.469c.881.188 1.462.402 1.462.402zM30.204 23.241s-.298-.542-.614-1.385a24.9 24.9 0 0 1-.947-3.14 24.988 24.988 0 0 1-.533-3.237c-.085-.896-.056-1.514-.056-1.514s.298.542.616 1.384c.325.841.674 1.982.945 3.141.266 1.161.453 2.339.531 3.237.086.897.058 1.514.058 1.514z"/>
  </g>
</svg>
