<svg xmlns="http://www.w3.org/2000/svg" width="100" height="100" xml:space="preserve">
  <linearGradient id="a" gradientUnits="userSpaceOnUse" x1="38.944" y1="55.639" x2="34.873" y2="78.727" gradientTransform="rotate(19.426 48.69 47.79)">
    <stop offset="0" style="stop-color:#f39800"/>
    <stop offset=".243" style="stop-color:#faee00"/>
    <stop offset=".329" style="stop-color:#fade00"/>
    <stop offset=".463" style="stop-color:#f8c700"/>
    <stop offset=".598" style="stop-color:#f6b300"/>
    <stop offset=".732" style="stop-color:#f5a400"/>
    <stop offset=".866" style="stop-color:#f49b00"/>
    <stop offset="1" style="stop-color:#f39800"/>
  </linearGradient>
  <path fill="none" stroke="url(#a)" stroke-width="5" stroke-miterlimit="10" d="M26.687 48.578c-7.135.568-7.514 12.816-2.904 18.767 3.998 5.162 14.749 9.196 17.678 2.976"/>
  <linearGradient id="b" gradientUnits="userSpaceOnUse" x1="64.756" y1="51.893" x2="59.832" y2="79.818" gradientTransform="rotate(19.426 48.69 47.79)">
    <stop offset=".518" style="stop-color:#faee00"/>
    <stop offset=".569" style="stop-color:#fae000"/>
    <stop offset=".656" style="stop-color:#f8c800"/>
    <stop offset=".744" style="stop-color:#f6b400"/>
    <stop offset=".831" style="stop-color:#f5a400"/>
    <stop offset=".917" style="stop-color:#f49b00"/>
    <stop offset="1" style="stop-color:#f39800"/>
  </linearGradient>
  <path fill="none" stroke="url(#b)" stroke-width="5" stroke-miterlimit="10" d="M66.898 62.276c5.953 5.779-2.157 15.141-9.615 16.885-6.85 1.602-16.589-2.621-15.822-8.841"/>
  <linearGradient id="c" gradientUnits="userSpaceOnUse" x1="29.8" y1="25.702" x2="24.079" y2="58.148" gradientTransform="rotate(19.426 48.69 47.79)">
    <stop offset="0" style="stop-color:#f39800"/>
    <stop offset=".518" style="stop-color:#faee00"/>
  </linearGradient>
  <path fill="none" stroke="url(#c)" stroke-width="5" stroke-miterlimit="10" d="M42.654 28.267c-.152-7.417-14.636-3.02-18.302 2.377-4.46 6.566-4.573 17.141 2.335 17.934"/>
  <linearGradient id="d" gradientUnits="userSpaceOnUse" x1="72.542" y1="27.387" x2="67.266" y2="57.306" gradientTransform="rotate(19.426 48.69 47.79)">
    <stop offset="0" style="stop-color:#f39800"/>
    <stop offset=".518" style="stop-color:#faee00"/>
  </linearGradient>
  <path fill="none" stroke="url(#d)" stroke-width="5" stroke-miterlimit="10" d="M66.336 37.131c6.997-5.964 13.442 6.907 13.01 13.554-.434 6.676-5.999 14.167-12.447 11.591"/>
  <path fill="none" stroke="#F39800" stroke-width="5" stroke-miterlimit="10" d="M43.054 28.965c-2.14-8.063 9.643-10.068 15.799-7.896 6.158 2.172 13.999 10.598 7.483 16.062"/>
  <linearGradient id="e" gradientUnits="userSpaceOnUse" x1="41.188" y1="28.476" x2="38.425" y2="44.145" gradientTransform="rotate(19.426 48.69 47.79)">
    <stop offset="0" style="stop-color:#f39800"/>
    <stop offset=".518" style="stop-color:#faee00"/>
  </linearGradient>
  <path fill="none" stroke="url(#e)" stroke-width="5" stroke-miterlimit="10" d="m41.983 25.653 4.292 16.715"/>
  <path fill="none" stroke="#FAEE00" stroke-width="5" stroke-miterlimit="10" d="m23.693 48.578 17.183.847"/>
  <linearGradient id="f" gradientUnits="userSpaceOnUse" x1="50.75" y1="56.95" x2="47.726" y2="74.098" gradientTransform="rotate(19.426 48.69 47.79)">
    <stop offset="0" style="stop-color:#faee00"/>
    <stop offset=".214" style="stop-color:#faed00"/>
    <stop offset=".388" style="stop-color:#fae700"/>
    <stop offset=".548" style="stop-color:#fadc00"/>
    <stop offset=".699" style="stop-color:#f8cd00"/>
    <stop offset=".845" style="stop-color:#f7b800"/>
    <stop offset=".984" style="stop-color:#f49b00"/>
    <stop offset="1" style="stop-color:#f39800"/>
  </linearGradient>
  <path fill="none" stroke="url(#f)" stroke-width="5" stroke-miterlimit="10" d="m40.694 72.659 5.226-15.923"/>
  <path fill="none" stroke="#FAEE00" stroke-width="5" stroke-miterlimit="10" d="m69.024 63.804-14.591-9.597"/>
  <linearGradient id="g" gradientUnits="userSpaceOnUse" x1="60.19" y1="27.096" x2="57.005" y2="45.16" gradientTransform="rotate(19.426 48.69 47.79)">
    <stop offset="0" style="stop-color:#f39800"/>
    <stop offset=".518" style="stop-color:#faee00"/>
  </linearGradient>
  <path fill="none" stroke="url(#g)" stroke-width="5" stroke-miterlimit="10" d="m69.166 34.853-14.51 10.471"/>
  <linearGradient id="h" gradientUnits="userSpaceOnUse" x1="51.505" y1="29.268" x2="44.715" y2="67.774" gradientTransform="rotate(19.426 48.69 47.79)">
    <stop offset="0" style="stop-color:#f39800"/>
    <stop offset=".518" style="stop-color:#faee00"/>
    <stop offset=".593" style="stop-color:#fae700"/>
    <stop offset=".728" style="stop-color:#f9d300"/>
    <stop offset=".909" style="stop-color:#f6ae00"/>
    <stop offset="1" style="stop-color:#f39800"/>
  </linearGradient>
  <path fill="none" stroke="url(#h)" stroke-width="5" stroke-miterlimit="10" d="m53.46 35.361 1.196 9.963 8.885 4.662-9.108 4.221-1.687 9.89-6.826-7.361-9.93 1.452 4.886-8.763-4.444-9.001 9.843 1.944z"/>
  <g fill="none" stroke="#EAB261" stroke-width="3" stroke-miterlimit="10">
    <path d="M78.526 54.51c2.801-7.941-1.294-16.637-9.141-19.579-.309-6.067-4.199-11.63-10.285-13.777-6.212-2.191-12.876-.159-16.9 4.576-.089-.032-.174-.072-.271-.106-8.04-2.836-16.856 1.38-19.694 9.425-1.667 4.726-.88 9.708 1.675 13.604a15.37 15.37 0 0 0-2.329 4.278c-2.835 8.04 1.385 16.86 9.423 19.694 3.33 1.176 6.787 1.123 9.909.111a15.345 15.345 0 0 0 7.775 6.127c8.042 2.836 16.859-1.387 19.694-9.426.65-1.844.912-3.719.857-5.559a15.38 15.38 0 0 0 9.287-9.368zM42.201 25.73l4.294 16.715M69.386 34.931 54.874 45.4M69.24 63.88l-14.59-9.597M40.914 72.737l5.224-15.924M23.911 48.654l17.186.849"/>
  </g>
  <g>
    <path fill="#EAB261" d="M45.574 58.411 33.416 60.19l5.987-10.729-5.445-11.021 12.054 2.38 8.792-8.577 1.466 12.195 10.878 5.71-11.152 5.165-2.064 12.109z"/>
    <path fill="none" stroke="#FFF" stroke-width="1.5" stroke-miterlimit="10" d="m53.677 35.438 1.197 9.962 8.887 4.664-9.111 4.219-1.686 9.89-6.826-7.36-9.93 1.453 4.889-8.763-4.448-9.003 9.846 1.945z"/>
  </g>
  <g>
    <path fill="#FFF" d="M60.135 20.902s.272.07.739.215c.234.068.513.169.828.314.32.134.683.293 1.044.511.76.39 1.567.977 2.384 1.668.381.373.816.724 1.173 1.162.38.417.733.867 1.074 1.33.322.474.628.962.895 1.462.281.493.49 1.012.681 1.518.21.497.319 1.016.443 1.491.087.49.188.944.193 1.379.034.429.043.821.004 1.17-.021.347-.046.646-.108.889-.104.486-.179.753-.179.753s-.053-.283-.12-.757c-.019-.237-.102-.521-.165-.842-.057-.323-.17-.676-.279-1.059-.093-.386-.282-.782-.418-1.21-.185-.415-.361-.855-.585-1.293-.111-.219-.226-.44-.341-.666a13.041 13.041 0 0 1-.388-.662 15.788 15.788 0 0 0-.857-1.308 14.993 14.993 0 0 0-.947-1.252c-.321-.407-.667-.785-.993-1.16-.358-.343-.664-.723-1.006-1.027-.331-.318-.645-.623-.952-.885a25.676 25.676 0 0 0-1.516-1.263c-.388-.296-.604-.478-.604-.478z"/>
  </g>
  <g>
    <path fill="#FFF" d="M79.657 50.751s.02.281.03.769c.011.244.003.54-.036.885-.025.347-.062.74-.152 1.152-.13.844-.431 1.796-.828 2.79-.232.479-.428 1.004-.729 1.479-.275.492-.591.971-.922 1.44-.348.456-.714.9-1.103 1.312-.379.423-.806.785-1.225 1.126-.405.356-.862.625-1.274.893-.438.237-.836.477-1.247.619a6.166 6.166 0 0 1-1.108.375c-.336.089-.627.161-.878.179-.494.054-.771.068-.771.068s.252-.139.681-.354c.219-.093.462-.262.746-.424.288-.155.588-.374.917-.6.336-.21.651-.516 1.015-.779.335-.307.697-.613 1.042-.964l.523-.534c.161-.195.329-.389.505-.577.343-.385.662-.804.969-1.228.316-.42.62-.85.888-1.295.284-.434.533-.881.785-1.31.212-.448.475-.858.655-1.279.196-.415.387-.808.537-1.183.319-.746.56-1.367.718-1.838.158-.459.262-.722.262-.722z"/>
  </g>
  <g>
    <path fill="#FFF" d="M56.79 79.536s-.265.097-.73.243a5.945 5.945 0 0 1-.86.211c-.34.071-.729.146-1.149.173-.846.109-1.845.085-2.909-.021-.525-.09-1.083-.132-1.625-.29a16.444 16.444 0 0 1-1.639-.484 16.553 16.553 0 0 1-1.567-.694c-.511-.246-.978-.555-1.422-.862-.455-.29-.84-.654-1.212-.976-.35-.354-.691-.669-.943-1.024a6.223 6.223 0 0 1-.668-.961c-.18-.298-.33-.557-.417-.793-.19-.46-.281-.721-.281-.721s.204.203.529.555c.15.185.38.371.615.6.229.233.524.46.832.712.295.265.677.483 1.031.758.388.237.783.499 1.216.732l.658.354c.233.101.465.208.695.324.464.222.956.412 1.449.589.491.188.988.359 1.49.492.496.152.995.268 1.477.391.489.079.956.218 1.411.273.452.074.883.147 1.285.188.805.1 1.469.157 1.965.179.489.025.769.052.769.052z"/>
  </g>
  <g>
    <path fill="#FFF" d="M22.452 65.757s-.181-.217-.475-.605a5.781 5.781 0 0 1-.489-.738 7.995 7.995 0 0 1-.551-1.024c-.389-.759-.704-1.707-.963-2.745-.093-.524-.241-1.064-.276-1.627a16.627 16.627 0 0 1-.097-1.707 16.44 16.44 0 0 1 .125-1.71c.059-.563.192-1.107.332-1.63.12-.525.333-1.012.509-1.47.215-.448.397-.876.647-1.233.222-.369.443-.692.678-.953.22-.27.413-.498.606-.66.369-.334.584-.508.584-.508s-.122.26-.344.685c-.123.204-.221.483-.356.782-.143.294-.257.648-.391 1.023-.149.368-.226.8-.365 1.227-.092.445-.206.906-.279 1.393l-.111.739c-.016.254-.04.508-.071.764a15.875 15.875 0 0 0-.066 1.563c-.01.525-.004 1.052.04 1.569.024.519.084 1.027.131 1.522.091.486.118.974.219 1.42.083.452.16.882.257 1.273.179.792.348 1.437.496 1.911.141.465.21.739.21.739z"/>
  </g>
  <g>
    <path fill="#FFF" d="M25.024 29.308s.155-.235.443-.63c.14-.2.326-.431.566-.681.23-.26.499-.551.821-.823.615-.591 1.432-1.166 2.351-1.714.476-.24.949-.539 1.479-.734a16.39 16.39 0 0 1 1.606-.586 16.375 16.375 0 0 1 1.673-.374c.557-.106 1.116-.136 1.656-.153.538-.038 1.064.026 1.554.063.491.077.954.127 1.368.263.417.106.791.224 1.108.375.322.132.596.251.807.39.426.256.655.412.655.412s-.285-.042-.755-.131c-.23-.059-.526-.072-.851-.115-.323-.051-.695-.058-1.092-.078-.395-.037-.831.015-1.28.004-.453.041-.926.065-1.414.135l-.74.107c-.248.058-.498.109-.752.153-.505.098-1.014.237-1.515.388a15.03 15.03 0 0 0-1.491.491c-.489.172-.959.376-1.419.565-.44.228-.898.394-1.297.619-.408.21-.797.407-1.145.614-.707.399-1.274.747-1.686 1.025-.408.27-.65.415-.65.415z"/>
  </g>
  <g>
    <path fill="#FFF" d="M65.703 37.21s-.373.493-1.012 1.127a25.11 25.11 0 0 1-2.479 2.15 24.996 24.996 0 0 1-2.735 1.81c-.782.445-1.358.671-1.358.671s.372-.494 1.012-1.128a24.996 24.996 0 0 1 2.479-2.149c.95-.717 1.948-1.37 2.736-1.809.782-.445 1.357-.672 1.357-.672z"/>
  </g>
  <g>
    <path fill="#FFF" d="M66.898 62.276s-.583-.205-1.383-.619a25.343 25.343 0 0 1-5.362-3.755c-.663-.609-1.054-1.09-1.054-1.09s.584.205 1.383.619a25.318 25.318 0 0 1 5.361 3.757c.664.61 1.055 1.088 1.055 1.088z"/>
  </g>
  <g>
    <path fill="#FFF" d="M44.56 61.194s-.009.617-.15 1.508a25.271 25.271 0 0 1-1.863 6.273c-.368.822-.699 1.344-.699 1.344s.008-.617.148-1.508c.132-.891.393-2.055.729-3.197a25.242 25.242 0 0 1 1.137-3.076c.368-.822.698-1.344.698-1.344z"/>
  </g>
  <g>
    <path fill="#FFF" d="M36.839 49.304s-.606.119-1.506.168c-.9.057-2.094.047-3.281-.043-1.187-.096-2.367-.271-3.247-.469-.881-.188-1.461-.402-1.461-.402s.606-.121 1.506-.17a25.38 25.38 0 0 1 6.528.514 11.93 11.93 0 0 1 1.461.402z"/>
  </g>
  <g>
    <path fill="#FFF" d="M45.205 38.241s-.297-.542-.615-1.385a25.225 25.225 0 0 1-.948-3.14 24.8 24.8 0 0 1-.532-3.237c-.086-.896-.057-1.514-.057-1.514s.298.542.616 1.384c.326.841.675 1.982.947 3.141.265 1.161.453 2.339.531 3.237.086.897.058 1.514.058 1.514z"/>
  </g>
</svg>
