<?xml version="1.0" standalone="no"?>
<!DOCTYPE svg PUBLIC "-//W3C//DTD SVG 20010904//EN"
 "http://www.w3.org/TR/2001/REC-SVG-20010904/DTD/svg10.dtd">
<svg version="1.0" xmlns="http://www.w3.org/2000/svg"
 width="700.000000pt" height="700.000000pt" viewBox="0 0 700.000000 700.000000"
 preserveAspectRatio="xMidYMid meet">
<metadata>
Created by potrace 1.14, written by Peter Selinger 2001-2017
</metadata>
<g transform="translate(0.000000,700.000000) scale(0.100000,-0.100000)"
fill="#000000" stroke="none">
<path d="M3615 6699 c-312 -42 -512 -111 -715 -244 -60 -40 -172 -145 -219
-205 l-19 -24 -63 21 c-118 40 -193 53 -319 55 -124 2 -328 -24 -445 -56 -380
-104 -717 -280 -947 -495 -139 -130 -264 -323 -362 -559 -53 -126 -115 -341
-131 -447 -3 -23 -7 -52 -10 -65 -19 -100 -22 -344 -5 -470 15 -115 64 -280
107 -365 40 -79 96 -167 118 -185 21 -17 19 -31 -8 -60 -116 -128 -211 -344
-253 -575 -22 -123 -25 -468 -5 -585 7 -41 14 -84 16 -95 19 -121 96 -356 158
-481 130 -262 319 -471 587 -646 458 -300 975 -404 1337 -268 66 25 70 25 78
0 3 -11 12 -26 18 -32 7 -7 29 -36 50 -65 168 -231 582 -461 955 -529 236 -43
403 -48 627 -19 22 3 47 7 55 10 8 2 31 7 50 10 117 19 406 143 555 237 196
124 421 332 550 508 128 174 228 400 253 570 9 58 9 244 0 309 -3 21 3 26 47
38 386 109 705 431 885 894 45 116 94 305 109 419 9 74 8 331 -3 400 -15 94
-20 122 -42 213 -23 92 -64 227 -83 272 -5 11 -19 45 -31 75 -126 309 -315
577 -518 734 -84 64 -203 127 -292 152 l-75 22 -1 58 c-5 291 -104 536 -326
799 -105 125 -247 256 -363 336 -27 19 -52 37 -55 40 -9 9 -173 105 -228 133
-156 78 -338 133 -527 160 -104 14 -419 18 -510 5z m460 -502 c11 -2 40 -8 65
-12 232 -38 514 -204 725 -427 86 -90 184 -228 200 -278 4 -14 11 -29 15 -35
10 -13 28 -72 35 -115 18 -100 -5 -204 -57 -263 -49 -56 -891 -659 -899 -644
-3 7 -12 62 -19 122 -7 61 -14 124 -16 140 -2 17 -6 53 -9 80 -3 28 -10 84
-15 125 -5 41 -12 98 -15 125 -3 28 -8 64 -10 80 -4 29 -9 69 -20 170 -8 73
-26 210 -28 212 -2 2 -163 -154 -531 -513 -126 -123 -232 -224 -236 -224 -4 0
-14 28 -22 63 -19 76 -170 664 -197 767 -11 43 -16 77 -11 80 6 3 6 27 2 55
-18 121 3 199 76 275 90 94 274 176 460 206 20 3 57 10 82 14 47 8 390 6 425
-3z m-1727 -401 c58 -6 115 -27 127 -46 6 -9 84 -301 109 -410 5 -18 149 -583
177 -689 10 -41 18 -75 16 -76 -1 -1 -42 6 -92 17 -49 10 -106 21 -125 24 -19
3 -51 9 -70 14 -19 5 -52 11 -72 14 -21 3 -58 10 -83 16 -25 6 -60 13 -78 16
-17 3 -151 29 -297 58 -146 30 -266 53 -267 52 -2 -1 115 -240 316 -645 174
-352 165 -331 141 -326 -10 2 -90 6 -177 10 -87 4 -183 8 -213 10 -30 2 -111
6 -180 10 -69 3 -170 8 -225 11 -55 4 -115 6 -132 5 -18 -1 -33 3 -33 8 0 5
-17 12 -37 16 -147 27 -245 166 -279 395 -7 52 -8 240 0 285 2 17 7 50 11 75
13 89 68 283 100 355 7 17 25 56 39 87 103 232 243 372 510 513 148 79 378
163 496 181 19 3 38 8 41 10 4 2 42 7 85 10 44 3 80 7 82 9 1 1 15 1 30 -1 15
-1 51 -5 80 -8z m3270 -1154 c142 -68 330 -320 432 -577 92 -231 125 -385 125
-580 0 -122 -6 -171 -30 -264 -59 -230 -165 -421 -314 -572 -165 -165 -323
-220 -503 -174 -41 11 -97 40 -176 92 -98 64 -429 282 -639 420 -29 19 -53 37
-53 40 0 2 42 24 93 48 50 23 133 62 182 85 50 23 135 62 190 87 54 25 153 71
220 102 66 32 153 73 193 91 l72 33 -39 23 c-22 12 -115 61 -208 110 -92 48
-217 114 -278 146 -60 32 -185 97 -277 145 -93 48 -168 90 -168 93 1 3 74 57
163 121 89 64 276 198 415 298 138 100 256 180 260 177 5 -3 28 9 52 26 96 71
185 80 288 30z m-4288 -1286 c74 -4 176 -8 225 -11 50 -3 133 -7 185 -10 52
-2 158 -7 235 -11 77 -4 148 -7 157 -6 28 1 30 -14 7 -55 -12 -21 -32 -56 -44
-78 -114 -206 -432 -777 -447 -803 l-19 -34 58 7 c31 3 60 8 63 10 3 2 28 5
55 8 28 3 79 10 115 16 36 6 82 13 103 16 20 3 54 8 75 11 20 3 51 7 67 10 35
4 236 33 280 40 196 29 275 40 275 36 0 -14 -304 -933 -318 -961 -49 -97 -143
-143 -302 -147 -272 -8 -617 134 -886 363 -177 151 -309 388 -359 646 -8 40
-17 83 -21 97 -3 14 -7 97 -9 185 -6 264 34 432 134 565 62 82 127 120 196
115 22 -2 101 -6 175 -9z m3425 -1126 c323 -212 306 -198 345 -274 33 -66 35
-74 34 -170 -1 -83 -6 -114 -28 -173 -92 -247 -318 -495 -599 -657 -54 -31
-100 -56 -102 -56 -2 0 -28 -11 -57 -24 -64 -29 -167 -61 -228 -71 -25 -4 -54
-9 -65 -12 -22 -4 -245 -4 -285 1 -466 54 -858 305 -877 560 -4 48 0 76 20
131 14 39 82 245 152 458 l126 389 32 -34 c26 -27 204 -219 267 -288 8 -9 47
-50 85 -91 39 -42 115 -124 170 -183 55 -60 119 -129 143 -154 23 -25 43 -40
43 -34 1 7 2 15 3 20 1 4 6 27 10 52 5 25 10 54 12 65 3 11 7 36 10 55 3 19
16 100 30 180 27 157 32 189 40 235 2 17 9 57 15 90 6 33 13 71 15 85 6 39 14
83 18 105 2 11 11 63 21 116 l17 96 251 -166 c139 -92 310 -205 382 -251z"/>
</g>
</svg>
