<?xml version="1.0" standalone="no"?>
<!DOCTYPE svg PUBLIC "-//W3C//DTD SVG 20010904//EN"
 "http://www.w3.org/TR/2001/REC-SVG-20010904/DTD/svg10.dtd">
<svg version="1.0" xmlns="http://www.w3.org/2000/svg"
 width="700.000000pt" height="700.000000pt" viewBox="0 0 700.000000 700.000000"
 preserveAspectRatio="xMidYMid meet">
<metadata>
Created by potrace 1.14, written by Peter Selinger 2001-2017
</metadata>
<g transform="translate(0.000000,700.000000) scale(0.100000,-0.100000)"
fill="#000000" stroke="none">
<path d="M3689 6746 c-2 -2 -34 -7 -71 -10 -110 -11 -203 -29 -303 -58 -255
-72 -425 -167 -577 -321 -71 -72 -91 -86 -105 -79 -10 5 -56 20 -103 33 -76
21 -105 23 -270 23 -133 -1 -209 -6 -270 -18 -47 -9 -98 -19 -114 -22 -66 -12
-268 -79 -371 -122 -330 -138 -604 -330 -760 -532 -93 -121 -202 -325 -262
-489 -42 -118 -91 -288 -99 -350 -3 -25 -8 -48 -9 -51 -2 -3 -7 -33 -10 -65
-4 -33 -9 -69 -11 -80 -7 -31 -6 -295 1 -350 10 -80 34 -195 57 -265 34 -108
125 -277 175 -328 11 -12 8 -20 -16 -48 -127 -144 -226 -394 -259 -652 -15
-118 -7 -441 13 -542 2 -13 7 -42 11 -64 26 -176 137 -473 237 -631 130 -206
363 -429 587 -559 235 -137 540 -251 723 -272 29 -3 63 -7 77 -10 66 -11 265
-4 330 12 14 3 36 8 50 10 38 7 123 35 136 46 8 6 27 -12 58 -57 62 -86 176
-200 269 -269 42 -31 79 -56 83 -56 4 0 15 -6 23 -14 50 -45 300 -155 443
-197 119 -34 148 -40 293 -64 118 -19 311 -24 445 -11 126 12 341 64 435 106
287 128 466 246 661 436 242 235 381 462 456 744 19 71 22 111 23 243 l0 157
55 16 c30 8 83 28 118 45 35 16 66 29 69 29 3 0 49 29 102 64 155 104 287 240
403 416 50 76 148 258 148 274 0 3 9 25 20 49 20 44 67 185 74 221 2 12 9 39
15 61 28 104 40 234 36 390 -4 181 -6 197 -40 350 -118 525 -400 985 -735
1200 -39 25 -73 45 -76 45 -3 0 -24 9 -47 19 -23 11 -67 26 -98 35 l-57 17 1
62 c1 225 -74 436 -239 672 -71 102 -86 120 -188 225 -94 96 -124 123 -221
196 -281 213 -524 321 -830 370 -89 14 -475 30 -486 20z m437 -570 c281 -52
572 -232 789 -489 98 -116 180 -288 188 -392 7 -89 -41 -204 -100 -242 -28
-18 -470 -335 -488 -351 -5 -4 -41 -30 -80 -56 -38 -27 -71 -53 -73 -58 -2 -4
-10 -8 -17 -8 -7 0 -15 -3 -17 -7 -4 -11 -69 -56 -73 -51 -2 2 -6 26 -10 53
-3 28 -8 70 -11 95 -3 25 -7 59 -9 75 -2 17 -6 57 -10 90 -4 33 -9 71 -11 85
-5 33 -22 170 -29 245 -4 33 -8 71 -11 85 -2 14 -6 50 -9 80 -3 30 -10 87 -15
126 -5 40 -12 96 -15 125 -3 30 -8 63 -10 74 -2 11 -4 28 -4 38 -1 14 -7 11
-34 -15 -19 -18 -184 -179 -367 -358 -183 -179 -360 -351 -393 -383 -32 -32
-61 -57 -63 -55 -2 2 -40 148 -84 323 -45 176 -90 351 -101 389 -11 43 -15 72
-9 76 6 4 6 26 1 58 -15 95 10 185 67 246 100 105 313 190 537 212 33 4 62 8
64 10 10 9 326 -6 397 -20z m-1741 -397 c30 -7 61 -19 68 -28 8 -9 33 -92 57
-186 126 -500 196 -773 212 -823 5 -19 8 -35 6 -38 -3 -2 -85 12 -184 32 -98
20 -190 38 -204 40 -14 3 -79 16 -145 29 -66 13 -131 26 -145 28 -14 3 -74 15
-135 27 -60 12 -121 23 -135 26 -14 2 -36 7 -50 10 -14 3 -37 8 -52 11 -15 2
-55 10 -90 17 -35 7 -64 12 -66 11 -3 -3 176 -370 397 -813 l130 -263 -112 6
c-62 3 -155 7 -207 10 -52 3 -135 7 -185 10 -295 14 -341 18 -350 25 -5 4 -26
11 -45 15 -128 28 -223 174 -246 382 -11 100 -6 258 12 344 2 13 7 39 10 58 8
50 58 217 83 281 60 150 145 292 224 372 263 266 860 482 1152 417z m3229
-1146 c97 -49 234 -206 331 -379 70 -125 158 -359 181 -479 5 -26 13 -63 20
-95 3 -14 7 -86 9 -160 3 -154 -11 -240 -65 -400 -74 -222 -247 -456 -407
-553 -72 -44 -186 -76 -252 -70 -99 8 -152 33 -346 160 -104 69 -259 171 -342
226 -140 92 -170 117 -144 117 9 0 61 24 286 130 33 16 96 45 140 65 44 20
109 51 145 67 159 74 243 113 399 185 40 18 72 35 70 37 -2 2 -62 34 -134 71
-71 37 -157 82 -190 100 -33 18 -118 63 -190 100 -71 37 -161 84 -200 105 -38
20 -133 70 -210 110 -77 40 -143 76 -147 79 -9 8 10 23 322 247 129 92 237
172 238 176 2 4 8 8 13 8 6 0 15 5 22 10 48 41 133 97 140 93 5 -3 27 8 50 25
89 63 170 71 261 25z m-4304 -1288 c80 -4 177 -8 215 -10 67 -3 296 -15 400
-20 28 -2 67 -4 87 -4 l37 -1 -136 -242 c-74 -134 -149 -268 -165 -298 -17
-30 -38 -68 -48 -85 -9 -16 -33 -59 -53 -95 -19 -36 -71 -130 -116 -209 -45
-79 -80 -145 -79 -147 3 -2 104 13 288 41 19 3 53 8 74 11 39 5 287 41 336 49
14 2 61 9 105 15 44 6 91 13 105 15 193 28 249 37 274 42 27 5 28 4 21 -28 -4
-18 -11 -40 -15 -49 -4 -8 -54 -157 -110 -330 -144 -445 -142 -438 -177 -479
-18 -21 -56 -49 -85 -62 -47 -21 -68 -24 -178 -23 -120 0 -171 5 -235 24 -16
5 -55 17 -85 26 -78 23 -282 122 -368 178 -320 208 -477 462 -538 871 -17 115
-12 356 9 451 32 144 101 277 167 324 36 25 98 50 115 45 5 -2 75 -7 155 -10z
m3232 -988 c161 -106 339 -224 396 -261 117 -76 153 -122 173 -214 12 -59 7
-151 -12 -217 -16 -59 -85 -191 -137 -265 -62 -89 -242 -264 -333 -325 -40
-27 -76 -53 -79 -56 -13 -15 -169 -93 -247 -123 -292 -113 -667 -87 -998 70
-235 111 -385 276 -385 424 0 18 20 94 45 169 25 75 81 246 125 381 45 135 83
252 86 260 6 16 8 13 224 -220 58 -63 118 -128 134 -145 15 -16 69 -75 120
-129 50 -55 100 -109 111 -120 11 -12 67 -72 124 -134 57 -62 107 -109 111
-105 4 4 13 46 20 93 7 47 14 94 16 105 2 11 16 88 30 170 30 180 32 193 38
225 3 14 8 41 10 60 3 19 8 46 10 60 3 14 7 43 11 65 3 22 7 47 10 55 2 8 6
33 10 55 5 38 20 122 30 175 3 13 7 42 10 65 12 89 15 96 35 85 11 -6 151 -97
312 -203z"/>
</g>
</svg>
