<svg xmlns="http://www.w3.org/2000/svg" viewBox="0 0 48 24" width="48" height="24">
  <defs>
    <filter id="rectShadow" height="150%">
      <feDropShadow dx="0" dy="2" flood-color="#D4D4D4" flood-opacity="1" stdDeviation="0" />
    </filter>
  </defs>
  <rect width="40" height="20" rx="8" x="4" y="2" fill="#FFFFFF" filter="url(#rectShadow) "/>
  <g transform="translate(11, 6)" stroke-linecap="round" fill-rule="evenodd" stroke="none">
    <path transform="scale(1.2, 1)" fill="#FF4646" d="M 0 11.76 L 0 0.24 A 22.891 22.891 0 0 1 2.148 0.034 A 27.307 27.307 0 0 1 3.52 0 A 8.938 8.938 0 0 1 5.371 0.18 Q 7.024 0.53 8.112 1.56 Q 9.76 3.12 9.76 5.84 A 8.342 8.342 0 0 1 9.567 7.689 Q 9.279 8.96 8.556 9.887 A 5.012 5.012 0 0 1 8.112 10.384 A 5.42 5.42 0 0 1 5.622 11.754 Q 4.789 11.969 3.804 11.996 A 10.388 10.388 0 0 1 3.52 12 A 25.975 25.975 0 0 1 1.159 11.897 A 21.802 21.802 0 0 1 0 11.76 Z M 3.12 2.56 L 3.12 9.44 A 3.432 3.432 0 0 0 3.741 9.519 A 3.129 3.129 0 0 0 3.84 9.52 A 3.168 3.168 0 0 0 5.131 9.277 Q 6.72 8.573 6.72 5.84 A 5.708 5.708 0 0 0 6.593 4.577 Q 6.195 2.828 4.546 2.538 A 4.072 4.072 0 0 0 3.84 2.48 A 3.34 3.34 0 0 0 3.212 2.541 A 3.732 3.732 0 0 0 3.12 2.56 Z" />
    <path transform="scale(1.2, 1), translate(1, 0)" fill="#FF4646" d="M 16.704 11.84 L 15.12 7.68 L 15.088 7.68 L 13.504 11.84 L 10.016 11.84 L 12.976 5.92 L 10.096 0.16 L 13.568 0.16 L 15.152 4.16 L 15.184 4.16 L 16.768 0.16 L 20.176 0.16 L 17.296 5.92 L 20.256 11.84 L 16.704 11.84 Z" />
  </g>
</svg>