<svg xmlns="http://www.w3.org/2000/svg" width="48" height="24">
  <rect width="40" height="20" rx="8" x="4" y="2" fill="#FFF" stroke="#D4D4D4"/>
  <g stroke-linecap="round" fill-rule="evenodd" fill="#FF4646">
    <path d="M11 17.76V6.24a27.47 22.891 0 0 1 2.578-.206A32.768 27.307 0 0 1 15.224 6a10.726 8.938 0 0 1 2.221.18q1.984.35 3.29 1.38 1.977 1.56 1.977 4.28a10.01 8.342 0 0 1-.232 1.849q-.345 1.271-1.213 2.198a6.014 5.012 0 0 1-.533.497 6.504 5.42 0 0 1-2.988 1.37q-1 .215-2.181.242a12.466 10.388 0 0 1-.341.004 31.17 25.975 0 0 1-2.833-.103A26.162 21.802 0 0 1 11 17.76zm3.744-9.2v6.88a4.118 3.432 0 0 0 .745.079 3.755 3.129 0 0 0 .119.001 3.802 3.168 0 0 0 1.55-.243q1.906-.704 1.906-3.437a6.85 5.708 0 0 0-.152-1.263q-.478-1.749-2.457-2.039a4.886 4.072 0 0 0-.847-.058 4.008 3.34 0 0 0-.754.061 4.478 3.732 0 0 0-.11.019zM32.245 17.84l-1.901-4.16h-.038l-1.901 4.16h-4.186l3.552-5.92-3.456-5.76h4.167l1.9 4h.039l1.9-4h4.09l-3.456 5.76 3.552 5.92h-4.262z"/>
  </g>
</svg>
