<svg xmlns="http://www.w3.org/2000/svg" viewBox="0 0 48 24" width="48" height="24">
  <defs>
    <filter id="rectShadow" height="150%">
      <feDropShadow dx="0" dy="2" flood-color="#0F48B0" flood-opacity="1" stdDeviation="0" />
    </filter>
  </defs>
  <rect width="40" height="20" rx="8" x="4" y="2" fill="#45AEFF" filter="url(#rectShadow) "/>
  <g transform="translate(8,6)" stroke-linecap="round" fill-rule="evenodd" stroke="none" fill="white">
    <path d="M 8.72 0.8 L 8.16 3.28 Q 6.544 2.48 4.88 2.48 A 3.431 3.431 0 0 0 4.466 2.504 Q 4.014 2.559 3.744 2.744 A 0.97 0.97 0 0 0 3.518 2.956 A 0.779 0.779 0 0 0 3.36 3.44 A 0.774 0.774 0 0 0 3.68 4.068 Q 3.816 4.176 4.011 4.263 A 2.754 2.754 0 0 0 4.4 4.4 A 16.858 16.858 0 0 1 5.679 4.793 Q 7.196 5.332 7.936 6.008 A 3.07 3.07 0 0 1 8.957 8.243 A 4.023 4.023 0 0 1 8.96 8.4 A 4.055 4.055 0 0 1 8.816 9.511 A 2.917 2.917 0 0 1 7.744 11.08 Q 6.528 12 4.08 12 Q 3.056 12 1.88 11.656 Q 0.98 11.393 0.356 11.031 A 4.119 4.119 0 0 1 0 10.8 L 0.72 8.32 Q 1.536 8.88 2.488 9.2 A 6.708 6.708 0 0 0 3.32 9.425 Q 3.765 9.513 4.171 9.52 A 4.05 4.05 0 0 0 4.24 9.52 A 2.937 2.937 0 0 0 4.757 9.479 Q 5.658 9.317 5.679 8.52 A 1.46 1.46 0 0 0 5.68 8.48 A 0.716 0.716 0 0 0 5.444 7.959 Q 5.2 7.719 4.704 7.539 A 4.646 4.646 0 0 0 4.4 7.44 A 15.02 15.02 0 0 1 3.192 7.041 Q 1.785 6.503 1.072 5.824 A 3.133 3.133 0 0 1 0.081 3.541 A 4.106 4.106 0 0 1 0.08 3.44 A 3.334 3.334 0 0 1 0.293 2.226 A 2.981 2.981 0 0 1 1.288 0.928 Q 2.231 0.204 3.792 0.045 A 9.166 9.166 0 0 1 4.72 0 A 11.648 11.648 0 0 1 6.506 0.13 Q 7.745 0.322 8.72 0.8 Z M 10.176 0.16 L 19.776 0.16 L 19.776 2.8 L 16.608 2.8 L 16.608 11.84 L 13.344 11.84 L 13.344 2.8 L 10.176 2.8 L 10.176 0.16 Z M 21.712 11.76 L 21.712 0.24 A 22.891 22.891 0 0 1 23.86 0.034 A 27.307 27.307 0 0 1 25.232 0 A 8.938 8.938 0 0 1 27.083 0.18 Q 28.736 0.53 29.824 1.56 Q 31.472 3.12 31.472 5.84 A 8.342 8.342 0 0 1 31.279 7.689 Q 30.991 8.96 30.268 9.887 A 5.012 5.012 0 0 1 29.824 10.384 A 5.42 5.42 0 0 1 27.334 11.754 Q 26.501 11.969 25.516 11.996 A 10.388 10.388 0 0 1 25.232 12 A 25.975 25.975 0 0 1 22.871 11.897 A 21.802 21.802 0 0 1 21.712 11.76 Z M 24.832 2.56 L 24.832 9.44 A 3.432 3.432 0 0 0 25.453 9.519 A 3.129 3.129 0 0 0 25.552 9.52 A 3.168 3.168 0 0 0 26.843 9.277 Q 28.432 8.573 28.432 5.84 A 5.708 5.708 0 0 0 28.305 4.577 Q 27.907 2.828 26.258 2.538 A 4.072 4.072 0 0 0 25.552 2.48 A 3.34 3.34 0 0 0 24.924 2.541 A 3.732 3.732 0 0 0 24.832 2.56 Z" />
  </g>
</svg>