<svg xmlns="http://www.w3.org/2000/svg" width="88" height="41">
  <path stroke="#FFA3A3" fill="#FFF" d="M2 21 14 3h60l12 18-12 18H14z"/>
  <path d="m26.5 32.1-.08-2.6a15.581 15.581 0 0 1-1.617 2.095A19.17 19.17 0 0 1 23.6 32.8l-3-1.9a16.146 16.146 0 0 0 1.549-1.476 12.04 12.04 0 0 0 1.211-1.554 10.738 10.738 0 0 0 .887-1.697q.36-.857.635-1.86a18.521 18.521 0 0 0 .088-.333q.44-1.73.652-4.096a45.194 45.194 0 0 0 .118-1.684H22.4v2.1q-.44 1.24-1.12 2.44.05.05.127.148a4.323 4.323 0 0 1 .033.042 8.856 8.856 0 0 1 .046.061q.057.075.087.12a1.088 1.088 0 0 1 .007.01 13.944 13.944 0 0 0 1.254-2.266 12.895 12.895 0 0 0 .066-.155l2.2 1.2q-.8 1.78-1.92 3.36a10.475 10.475 0 0 1 .056.08l.494.714a671.853 671.853 0 0 1 .17.246l-2.2 2q-.56-.88-1.3-1.92v6.32h-3.3v-5.26a11.423 11.423 0 0 1-.802.676 8.838 8.838 0 0 1-.698.484l-.6-3.8q2.62-1.74 3.72-4.5H15.5v-3.2h1.6v-2.8h3.3v2.8h1.8v-2h11.7v5.3q0 2.806-.068 4.704a70.403 70.403 0 0 1-.002.046 41.739 41.739 0 0 1-.071 1.358q-.046.668-.112 1.256a21.529 21.529 0 0 1-.087.676q-.165 1.137-.364 1.847a6.118 6.118 0 0 1-.086.283 3.01 3.01 0 0 1-.28.614 2.287 2.287 0 0 1-.48.566 2.972 2.972 0 0 1-.416.297q-.267.155-.537.225a1.816 1.816 0 0 1-.077.018q-.47.1-1.25.11a13.84 13.84 0 0 1-.17 0 6.594 6.594 0 0 1-.333-.01q-.873-.046-3.067-.29zm39.86-8.9h6.24v9.5h-3.7v-.6h-6.6v.6h-3.7v-5.56q-1.22.46-2.1.76l-1.2-3.3q3.14-.88 6.06-2.3H55.4v-2.9h6.5v-1.2H57v-2.8h4.9V14h3.8v1.4H69v1.5q1.14-1.18 2.1-2.5l2.8 2a18.349 18.349 0 0 1-1.015 1.263q-.548.628-1.211 1.291a33.516 33.516 0 0 1-.454.446h2.98v2.9h-6.52a211.802 211.802 0 0 1-1.278.871 238.488 238.488 0 0 1-.042.03zM40.1 29.1v-9.6h3.7v9.2a4.031 4.031 0 0 0 .002.146q.009.228.045.327a.202.202 0 0 0 .023.047.212.212 0 0 0 .062.057q.089.055.268.083a9.212 9.212 0 0 0 .439.03q.231.01.487.01a15.347 15.347 0 0 0 .074 0q.276 0 .715-.023a31.227 31.227 0 0 0 .285-.017q.211-.016.317-.079a.269.269 0 0 0 .043-.03q.086-.078.172-.435a4.927 4.927 0 0 0 .028-.126 5.114 5.114 0 0 0 .058-.329q.049-.344.082-.814a18.15 18.15 0 0 0 .01-.157q.038-.635.071-1.757A153.291 153.291 0 0 0 47 24.9l3.4.6q-.054 1.467-.107 2.446a65.783 65.783 0 0 1-.013.224 19.512 19.512 0 0 1-.074.915q-.045.43-.108.808a11.431 11.431 0 0 1-.018.107 12.358 12.358 0 0 1-.08.42q-.086.403-.178.674a2.828 2.828 0 0 1-.042.116q-.16.41-.49.69-.296.251-.593.342a1.214 1.214 0 0 1-.067.018q-.298.072-.816.128a14.563 14.563 0 0 1-.114.012q-1.14.1-2.3.1-.987 0-2.218-.037a102.999 102.999 0 0 1-.082-.003q-.855-.033-1.366-.12a3.885 3.885 0 0 1-.204-.04q-.53-.12-.89-.5t-.45-.97a5.893 5.893 0 0 1-.044-.375q-.035-.41-.043-.987a25.491 25.491 0 0 1-.003-.368zm-.4-11.8.9-3a39.935 39.935 0 0 1 7.241 1.631 46.672 46.672 0 0 1 2.459.87l-1.1 3.1a42.205 42.205 0 0 0-7.58-2.274 37.928 37.928 0 0 0-1.92-.327zm9.9 3.6 3.3-.8q1.027 3.884 1.705 8.883a105.063 105.063 0 0 1 .095.717l-3.4.7a88.505 88.505 0 0 0-.539-3.942q-.312-1.935-.687-3.622A45.574 45.574 0 0 0 49.6 20.9zm-11.4 9.9-3.3-1.1q.878-3.149 1.264-8.393a88.247 88.247 0 0 0 .036-.507l3.3.3q-.08 2.68-.44 5.33a44.906 44.906 0 0 1-.277 1.785q-.263 1.483-.583 2.585zm-8-12.6h-.96q-.34 6.9-2.44 10.66a49.683 49.683 0 0 0 .702.1q1.054.14 1.498.14a.95.95 0 0 0 .282-.039.705.705 0 0 0 .398-.31 1.071 1.071 0 0 0 .096-.21q.158-.449.274-1.5.15-1.36.15-4.04zm32.1 7.5v.9h6.6v-.9zm6.6 3.1h-6.6v.9h6.6zm-1.28-10.6H65.7v1.2h.42q.78-.58 1.5-1.2z" fill="#C6C6D9" stroke="#C6C6D9" stroke-width="4" paint-order="stroke" fill-opacity=".85" stroke-opacity=".85"/>
  <path d="m26.5 28.1-.08-2.6a15.581 15.581 0 0 1-1.617 2.095A19.17 19.17 0 0 1 23.6 28.8l-3-1.9a16.146 16.146 0 0 0 1.549-1.476 12.04 12.04 0 0 0 1.211-1.554 10.738 10.738 0 0 0 .887-1.697q.36-.857.635-1.86a18.521 18.521 0 0 0 .088-.333q.44-1.731.652-4.096a45.194 45.194 0 0 0 .118-1.684H22.4v2.1q-.44 1.24-1.12 2.44.05.05.127.148a4.323 4.323 0 0 1 .033.042 8.856 8.856 0 0 1 .046.061q.057.075.087.119a1.088 1.088 0 0 1 .007.01 13.944 13.944 0 0 0 1.254-2.265 12.895 12.895 0 0 0 .066-.155l2.2 1.2q-.8 1.78-1.92 3.36a10.475 10.475 0 0 1 .056.079l.494.715a671.853 671.853 0 0 1 .17.246l-2.2 2q-.56-.88-1.3-1.92v6.32h-3.3v-5.26a11.423 11.423 0 0 1-.802.676 8.838 8.838 0 0 1-.698.484l-.6-3.8q2.62-1.74 3.72-4.5H15.5v-3.2h1.6v-2.8h3.3v2.8h1.8v-2h11.7v5.3q0 2.806-.068 4.704a70.403 70.403 0 0 1-.002.046 41.739 41.739 0 0 1-.071 1.358q-.046.668-.112 1.256a21.529 21.529 0 0 1-.087.676q-.165 1.137-.364 1.847a6.118 6.118 0 0 1-.086.283 3.01 3.01 0 0 1-.28.614 2.287 2.287 0 0 1-.48.566 2.972 2.972 0 0 1-.416.297q-.267.155-.537.225a1.816 1.816 0 0 1-.077.018q-.47.099-1.25.109a13.84 13.84 0 0 1-.17.001 6.594 6.594 0 0 1-.333-.011q-.873-.045-3.067-.289zm39.86-8.9h6.24v9.5h-3.7v-.6h-6.6v.6h-3.7v-5.56q-1.22.46-2.1.76l-1.2-3.3q3.14-.88 6.06-2.3H55.4v-2.9h6.5v-1.2H57v-2.8h4.9V10h3.8v1.4H69v1.5q1.14-1.18 2.1-2.5l2.8 2a18.349 18.349 0 0 1-1.015 1.263q-.548.628-1.211 1.291a33.516 33.516 0 0 1-.454.446h2.98v2.9h-6.52a211.802 211.802 0 0 1-1.278.871 238.488 238.488 0 0 1-.042.029zM40.1 25.1v-9.6h3.7v9.2a4.031 4.031 0 0 0 .002.146q.009.228.045.327a.202.202 0 0 0 .023.047.212.212 0 0 0 .062.057q.089.055.268.083a9.212 9.212 0 0 0 .439.029q.231.01.487.011a15.347 15.347 0 0 0 .074 0q.276 0 .715-.023a31.227 31.227 0 0 0 .285-.017q.211-.016.317-.079a.269.269 0 0 0 .043-.031q.086-.077.172-.434a4.927 4.927 0 0 0 .028-.126 5.114 5.114 0 0 0 .058-.329q.049-.344.082-.814a18.15 18.15 0 0 0 .01-.157q.038-.635.071-1.757A153.291 153.291 0 0 0 47 20.9l3.4.6q-.054 1.467-.107 2.446a65.783 65.783 0 0 1-.013.224 19.512 19.512 0 0 1-.074.915q-.045.429-.108.808a11.431 11.431 0 0 1-.018.107 12.358 12.358 0 0 1-.08.419q-.086.404-.178.675a2.828 2.828 0 0 1-.042.116q-.16.41-.49.69-.296.251-.593.342a1.214 1.214 0 0 1-.067.018q-.298.072-.816.128a14.563 14.563 0 0 1-.114.012q-1.14.1-2.3.1-.987 0-2.218-.037a102.999 102.999 0 0 1-.082-.003q-.855-.033-1.366-.12a3.885 3.885 0 0 1-.204-.04q-.53-.12-.89-.5t-.45-.97a5.893 5.893 0 0 1-.044-.375q-.035-.41-.043-.987a25.491 25.491 0 0 1-.003-.368zm-.4-11.8.9-3a39.935 39.935 0 0 1 7.241 1.631 46.672 46.672 0 0 1 2.459.869l-1.1 3.1a42.205 42.205 0 0 0-7.58-2.273 37.928 37.928 0 0 0-1.92-.327zm9.9 3.6 3.3-.8q1.027 3.884 1.705 8.883a105.063 105.063 0 0 1 .095.717l-3.4.7a88.505 88.505 0 0 0-.539-3.942q-.312-1.935-.687-3.622A45.574 45.574 0 0 0 49.6 16.9zm-11.4 9.9-3.3-1.1q.878-3.149 1.264-8.393a88.247 88.247 0 0 0 .036-.507l3.3.3q-.08 2.68-.44 5.33a44.906 44.906 0 0 1-.277 1.785q-.263 1.483-.583 2.585zm-8-12.6h-.96q-.34 6.9-2.44 10.66a49.683 49.683 0 0 0 .702.099q1.054.141 1.498.141a.95.95 0 0 0 .282-.039.705.705 0 0 0 .398-.311 1.071 1.071 0 0 0 .096-.21q.158-.448.274-1.5.15-1.36.15-4.04zm32.1 7.5v.9h6.6v-.9zm6.6 3.1h-6.6v.9h6.6zm-1.28-10.6H65.7v1.2h.42q.78-.58 1.5-1.2z" fill="#FF4040" stroke-linecap="round" fill-rule="evenodd" stroke="#FFF" stroke-width="4" paint-order="stroke"/>
</svg>
