<svg xmlns="http://www.w3.org/2000/svg" width="88" height="41">
  <defs>
    <linearGradient id="b" x1="0" y1="0" x2="100%" y2="0">
      <stop offset="0%" stop-color="#FFF9CC"/>
      <stop offset="50%" stop-color="#FBEFC4"/>
      <stop offset="100%" stop-color="#FFF9CC"/>
    </linearGradient>
    <linearGradient id="c" x1="0%" y1="0%" x2="0%" y2="100%">
      <stop offset="10%" stop-color="#D36936"/>
      <stop offset="50%" stop-color="#EA9F66"/>
      <stop offset="95%" stop-color="#D36936"/>
    </linearGradient>
    <linearGradient id="f" x1="0%" y1="0%" x2="0%" y2="50%" spreadMethod="reflect">
      <stop offset="5%" stop-color="#EC4026"/>
      <stop offset="95%" stop-color="#661B0F"/>
    </linearGradient>
    <linearGradient id="g">
      <stop offset="0%" stop-color="#FEB"/>
      <stop offset="100%" stop-color="#FDF2C1"/>
    </linearGradient>
    <radialGradient id="a">
      <stop offset="0%" stop-color="#FFF" stop-opacity=".7"/>
      <stop offset="100%" stop-color="#FFF" stop-opacity="0"/>
    </radialGradient>
    <radialGradient id="d" cx="10%" cy="15%">
      <stop offset="5%" stop-color="#F3C386"/>
      <stop offset="95%" stop-color="#D97D33"/>
    </radialGradient>
    <pattern id="e" x="0" y="0" width="20" height="20" patternUnits="userSpaceOnUse">
      <path fill="url(#a)" d="M3 3h4v4H3zM13 13h4v4h-4z"/>
    </pattern>
  </defs>
  <path stroke="#B33" fill="url(#b)" d="M2 21 14 3h60l12 18-12 18H14z"/>
  <path stroke="url(#c)" stroke-opacity=".5" fill="url(#d)" d="M6.3 21.12 17.1 5.28h54l10.8 15.84-10.8 15.84h-54z"/>
  <path fill="url(#e)" d="M6.3 21.12 17.1 5.28h54l10.8 15.84-10.8 15.84h-54z"/>
  <path d="M55.928 24.32H53.84v-3.36h.792l-1.32-1.2H48.8v1.32h4.56v3.24H48.8v1.488q1.323-.184 3.363-.536a227.316 227.316 0 0 0 1.317-.232l.24 3.48q-2.496.48-4.92.816v3.744h-4.32v-3.216a1.697 1.697 0 0 0-.107.004q-.152.01-.385.044-.324.048-.468.048l-.24-3.48q.165-.018.436-.044a61.726 61.726 0 0 1 .176-.016 39.709 39.709 0 0 0 .185-.017q.259-.025.403-.043V12.8q4.104-.552 8.4-1.8l1.08 3.6q-2.808.768-5.16 1.2v.72h4.56v1.536a5.129 5.129 0 0 0 .59-1.277q.411-1.29.477-3.22a22.223 22.223 0 0 0 .013-.76v-1.32h8.52v5.16a2.283 2.283 0 0 0 .002.092q.007.182.046.22a.094.094 0 0 0 .033.02q.057.022.188.027a2.287 2.287 0 0 0 .091.002.464.464 0 0 0 .168-.028q.188-.073.24-.332a2.649 2.649 0 0 0 .029-.198q.054-.465.129-1.73a149.28 149.28 0 0 0 .034-.592l2.88.48q-.046 1.017-.07 1.51a150.584 150.584 0 0 1-.002.038q-.016.338-.067.779a20.742 20.742 0 0 1-.053.42 69.282 69.282 0 0 0-.041.308q-.046.355-.068.556a6.789 6.789 0 0 0-.011.109 1.102 1.102 0 0 1-.034.18q-.058.219-.206.516a14.068 14.068 0 0 1-.076.15q-.118.228-.185.334a.761.761 0 0 1-.039.056.376.376 0 0 1-.051.052q-.097.084-.321.208a5.847 5.847 0 0 1-.096.052q-.298.159-.488.208a.734.734 0 0 1-.1.02q-.204.024-.828.084-.624.06-1.02.06H61.76a12.635 12.635 0 0 1-.64-.015q-1.046-.053-1.412-.297-.417-.278-.462-1.145a4.236 4.236 0 0 1-.006-.223v-3.72h-1.2a11.134 11.134 0 0 1-.248 2.426q-.357 1.6-1.229 2.776a6.454 6.454 0 0 1-.827.918h9.624v3.36q-1.104 2.16-2.784 3.792a23.533 23.533 0 0 0 2.471.896 29.406 29.406 0 0 0 1.753.472l-1.32 3.6q-3.408-.744-6.336-2.448-1.832 1.026-4.446 1.912A44.596 44.596 0 0 1 53 33.08l-1.68-3.48q2.352-.504 4.44-1.44a19.975 19.975 0 0 1-1-1.01q-.602-.654-1.04-1.27zM33.32 11v3.48h8.28v3.84H20.48v-3.84h8.28V11zm-.6 11.04 4.08-1.92q2.904 5.376 5.28 10.92l-4.32 1.8q-2.208-5.4-5.04-10.8zm-7.92-1.92 4.32 1.68q-1.824 5.616-4.92 10.92L20 30.56q3.024-5.112 4.8-10.44zm36.048 4.2h-3.84q.912 1.032 2.04 1.848 1.008-.84 1.8-1.848z" fill="#790000" stroke-linecap="round" fill-rule="evenodd" stroke="#790000" stroke-width="4" paint-order="stroke" fill-opacity=".85" stroke-opacity=".85"/>
  <path d="M55.928 21.32H53.84v-3.36h.792l-1.32-1.2H48.8v1.32h4.56v3.24H48.8v1.488q1.323-.184 3.363-.536a227.316 227.316 0 0 0 1.317-.232l.24 3.48q-2.496.48-4.92.816v3.744h-4.32v-3.216a1.697 1.697 0 0 0-.107.004q-.152.01-.385.044-.324.048-.468.048l-.24-3.48q.165-.018.436-.044a61.726 61.726 0 0 1 .176-.016 39.709 39.709 0 0 0 .185-.017q.259-.025.403-.043V9.8q4.104-.552 8.4-1.8l1.08 3.6q-2.808.768-5.16 1.2v.72h4.56v1.536a5.129 5.129 0 0 0 .59-1.277q.411-1.29.477-3.219a22.223 22.223 0 0 0 .013-.76V8.48h8.52v5.16a2.283 2.283 0 0 0 .002.091q.007.182.046.221a.094.094 0 0 0 .033.019q.057.022.188.027a2.287 2.287 0 0 0 .091.002.464.464 0 0 0 .168-.028q.188-.073.24-.332a2.649 2.649 0 0 0 .029-.198q.054-.465.129-1.73a149.28 149.28 0 0 0 .034-.592l2.88.48q-.046 1.017-.07 1.51a150.584 150.584 0 0 1-.002.038q-.016.338-.067.779a20.742 20.742 0 0 1-.053.421 69.282 69.282 0 0 0-.041.307q-.046.355-.068.556a6.789 6.789 0 0 0-.011.109 1.102 1.102 0 0 1-.034.181q-.058.218-.206.515a14.068 14.068 0 0 1-.076.151q-.118.227-.185.333a.761.761 0 0 1-.039.056.376.376 0 0 1-.051.052q-.097.084-.321.208a5.847 5.847 0 0 1-.096.052q-.298.159-.488.208a.734.734 0 0 1-.1.02q-.204.024-.828.084-.624.06-1.02.06H61.76a12.635 12.635 0 0 1-.64-.015q-1.046-.053-1.412-.297-.417-.278-.462-1.145a4.236 4.236 0 0 1-.006-.223v-3.72h-1.2a11.134 11.134 0 0 1-.248 2.426q-.357 1.6-1.229 2.776a6.454 6.454 0 0 1-.827.918h9.624v3.36q-1.104 2.16-2.784 3.792a23.533 23.533 0 0 0 2.471.896 29.406 29.406 0 0 0 1.753.472l-1.32 3.6q-3.408-.744-6.336-2.448-1.832 1.026-4.446 1.912A44.596 44.596 0 0 1 53 30.08l-1.68-3.48q2.352-.504 4.44-1.44a19.975 19.975 0 0 1-1-1.009q-.602-.655-1.04-1.271zM33.32 8v3.48h8.28v3.84H20.48v-3.84h8.28V8zm-.6 11.04 4.08-1.92q2.904 5.376 5.28 10.92l-4.32 1.8q-2.208-5.4-5.04-10.8zm-7.92-1.92 4.32 1.68q-1.824 5.616-4.92 10.92L20 27.56q3.024-5.112 4.8-10.44zm36.048 4.2h-3.84q.912 1.032 2.04 1.848 1.008-.84 1.8-1.848z" fill="url(#f)" stroke-linecap="round" fill-rule="evenodd" stroke="url(#g)" stroke-width="4" paint-order="stroke"/>
</svg>
