<svg xmlns="http://www.w3.org/2000/svg" width="88" height="41">
  <defs>
    <radialGradient id="a">
      <stop offset="0%" stop-color="#FFF" stop-opacity=".7"/>
      <stop offset="100%" stop-color="#FFF" stop-opacity="0"/>
    </radialGradient>
    <radialGradient id="b" cx="10%" cy="15%">
      <stop offset="5%" stop-color="#EFF"/>
      <stop offset="95%" stop-color="#9AD"/>
    </radialGradient>
    <pattern id="c" x="0" y="0" width="20" height="20" patternUnits="userSpaceOnUse">
      <path fill="url(#a)" d="M3 3h4v4H3zM13 13h4v4h-4z"/>
    </pattern>
  </defs>
  <path stroke="#4D5Dc9" fill="url(#b)" d="M2 21 14 3h60l12 18-12 18H14z"/>
  <path fill="url(#c)" d="M2 21 14 3h60l12 18-12 18H14z"/>
  <path d="M56.168 24.32H54.08v-3.36h.792l-1.32-1.2H49.04v1.32h4.56v3.24h-4.56v1.488q1.323-.184 3.363-.536a227.316 227.316 0 0 0 1.317-.232l.24 3.48q-2.496.48-4.92.816v3.744h-4.32v-3.216a1.697 1.697 0 0 0-.107.004q-.152.01-.385.044-.324.048-.468.048l-.24-3.48q.165-.018.436-.044a61.726 61.726 0 0 1 .176-.016 39.709 39.709 0 0 0 .185-.017q.259-.025.403-.043V12.8q4.104-.552 8.4-1.8l1.08 3.6q-2.808.768-5.16 1.2v.72h4.56v1.536a5.129 5.129 0 0 0 .59-1.277q.411-1.29.477-3.22a22.223 22.223 0 0 0 .013-.76v-1.32h8.52v5.16a2.283 2.283 0 0 0 .002.092q.007.182.046.22a.094.094 0 0 0 .033.02q.057.022.188.027a2.287 2.287 0 0 0 .091.002.464.464 0 0 0 .168-.028q.188-.073.24-.332a2.649 2.649 0 0 0 .029-.198q.054-.465.129-1.73a149.28 149.28 0 0 0 .034-.592l2.88.48q-.046 1.017-.07 1.51a150.584 150.584 0 0 1-.002.038q-.016.338-.067.779a20.742 20.742 0 0 1-.053.42 69.282 69.282 0 0 0-.041.308q-.046.355-.068.556a6.789 6.789 0 0 0-.011.109 1.102 1.102 0 0 1-.034.18q-.057.219-.206.516a14.068 14.068 0 0 1-.076.15q-.118.228-.185.334a.761.761 0 0 1-.039.056.376.376 0 0 1-.051.052q-.097.084-.321.208a5.847 5.847 0 0 1-.096.052q-.298.159-.488.208a.734.734 0 0 1-.1.02q-.204.024-.828.084-.624.06-1.02.06H62a12.635 12.635 0 0 1-.64-.015q-1.046-.053-1.412-.297-.417-.278-.462-1.145a4.236 4.236 0 0 1-.006-.223v-3.72h-1.2a11.134 11.134 0 0 1-.248 2.426q-.357 1.6-1.229 2.776a6.454 6.454 0 0 1-.827.918H65.6v3.36q-1.104 2.16-2.784 3.792a23.533 23.533 0 0 0 2.471.896 29.406 29.406 0 0 0 1.753.472l-1.32 3.6q-3.408-.744-6.336-2.448-1.832 1.026-4.446 1.912a44.596 44.596 0 0 1-1.698.536l-1.68-3.48q2.352-.504 4.44-1.44a19.975 19.975 0 0 1-1-1.01q-.602-.654-1.04-1.27zm-19.128-1.8 4.32.48q-.096 2.328-.192 3.768t-.348 2.592q-.252 1.152-.528 1.716a2.399 2.399 0 0 1-.614.779 2.96 2.96 0 0 1-.238.18q-.576.397-1.188.505a9.138 9.138 0 0 1-.428.064q-.448.057-1.06.102a32.797 32.797 0 0 1-.204.014q-1.872.12-3.6.12-1.512 0-3.12-.12-1.273-.094-1.897-.165a15.027 15.027 0 0 1-.023-.003q-.624-.072-1.272-.312a5.713 5.713 0 0 1-.294-.118q-.405-.176-.558-.338a.925.925 0 0 1-.112-.15q-.1-.163-.201-.43a5.598 5.598 0 0 1-.095-.272 4.458 4.458 0 0 1-.207-1.055 4.093 4.093 0 0 1-.009-.205q-.012-.624-.012-1.872v-5.328l-4.2 1.008-.96-3.84 5.16-1.224V11.48h4.56v5.832L41.6 14.48l.96 3.84-12.84 3.072v6.288a7.107 7.107 0 0 0 .005.267q.015.41.082.585a.323.323 0 0 0 .045.084.322.322 0 0 0 .097.077q.204.114.731.187 1.008.12 2.04.12 1.272 0 2.4-.12a3.146 3.146 0 0 0 .53-.093q.774-.213.958-.82a3.314 3.314 0 0 0 .088-.432q.154-1.011.287-3.74a173.745 173.745 0 0 0 .057-1.275zm24.048 1.8h-3.84q.912 1.032 2.04 1.848 1.008-.84 1.8-1.848z" fill="#1A2266" stroke-linecap="round" fill-rule="evenodd" stroke="#1A2266" stroke-width="4" paint-order="stroke" fill-opacity=".85" stroke-opacity=".85"/>
  <path d="M56.168 21.32H54.08v-3.36h.792l-1.32-1.2H49.04v1.32h4.56v3.24h-4.56v1.488q1.323-.184 3.363-.536a227.316 227.316 0 0 0 1.317-.232l.24 3.48q-2.496.48-4.92.816v3.744h-4.32v-3.216a1.697 1.697 0 0 0-.107.004q-.152.01-.385.044-.324.048-.468.048l-.24-3.48q.165-.018.436-.044a61.726 61.726 0 0 1 .176-.016 39.709 39.709 0 0 0 .185-.017q.259-.025.403-.043V9.8q4.104-.552 8.4-1.8l1.08 3.6q-2.808.768-5.16 1.2v.72h4.56v1.536a5.129 5.129 0 0 0 .59-1.277q.411-1.29.477-3.219a22.223 22.223 0 0 0 .013-.76V8.48h8.52v5.16a2.283 2.283 0 0 0 .002.091q.007.182.046.221a.094.094 0 0 0 .033.019q.057.022.188.027a2.287 2.287 0 0 0 .091.002.464.464 0 0 0 .168-.028q.188-.073.24-.332a2.649 2.649 0 0 0 .029-.198q.054-.465.129-1.73a149.28 149.28 0 0 0 .034-.592l2.88.48q-.046 1.017-.07 1.51a150.584 150.584 0 0 1-.002.038q-.016.338-.067.779a20.742 20.742 0 0 1-.053.421 69.282 69.282 0 0 0-.041.307q-.046.355-.068.556a6.789 6.789 0 0 0-.011.109 1.102 1.102 0 0 1-.034.181q-.057.218-.206.515a14.068 14.068 0 0 1-.076.151q-.118.227-.185.333a.761.761 0 0 1-.039.056.376.376 0 0 1-.051.052q-.097.084-.321.208a5.847 5.847 0 0 1-.096.052q-.298.159-.488.208a.734.734 0 0 1-.1.02q-.204.024-.828.084-.624.06-1.02.06H62a12.635 12.635 0 0 1-.64-.015q-1.046-.053-1.412-.297-.417-.278-.462-1.145a4.236 4.236 0 0 1-.006-.223v-3.72h-1.2a11.134 11.134 0 0 1-.248 2.426q-.357 1.6-1.229 2.776a6.454 6.454 0 0 1-.827.918H65.6v3.36q-1.104 2.16-2.784 3.792a23.533 23.533 0 0 0 2.471.896 29.406 29.406 0 0 0 1.753.472l-1.32 3.6q-3.408-.744-6.336-2.448-1.832 1.026-4.446 1.912a44.596 44.596 0 0 1-1.698.536l-1.68-3.48q2.352-.504 4.44-1.44a19.975 19.975 0 0 1-1-1.009q-.602-.655-1.04-1.271zm-19.128-1.8 4.32.48q-.096 2.328-.192 3.768t-.348 2.592q-.252 1.152-.528 1.716a2.399 2.399 0 0 1-.614.779 2.96 2.96 0 0 1-.238.181q-.576.396-1.188.504a9.138 9.138 0 0 1-.428.064q-.448.057-1.06.102a32.797 32.797 0 0 1-.204.014q-1.872.12-3.6.12-1.512 0-3.12-.12-1.273-.094-1.897-.165a15.027 15.027 0 0 1-.023-.003q-.624-.072-1.272-.312a5.713 5.713 0 0 1-.294-.118q-.405-.176-.558-.338a.925.925 0 0 1-.112-.15q-.1-.163-.201-.429a5.598 5.598 0 0 1-.095-.273 4.458 4.458 0 0 1-.207-1.055 4.093 4.093 0 0 1-.009-.205q-.012-.624-.012-1.872v-5.328l-4.2 1.008-.96-3.84 5.16-1.224V8.48h4.56v5.832L41.6 11.48l.96 3.84-12.84 3.072v6.288a7.107 7.107 0 0 0 .005.267q.015.41.082.585a.323.323 0 0 0 .045.084.322.322 0 0 0 .097.077q.204.114.731.187 1.008.12 2.04.12 1.272 0 2.4-.12a3.146 3.146 0 0 0 .53-.093q.774-.213.958-.819a3.314 3.314 0 0 0 .088-.433q.154-1.011.287-3.739a173.745 173.745 0 0 0 .057-1.276zm24.048 1.8h-3.84q.912 1.032 2.04 1.848 1.008-.84 1.8-1.848z" fill="#293370" stroke-linecap="round" fill-rule="evenodd" stroke="#EFF" stroke-width="4" paint-order="stroke"/>
</svg>
