<svg xmlns="http://www.w3.org/2000/svg" width="88" height="41">
  <defs>
    <linearGradient id="b" x1="0" y1="0" x2="100%" y2="0">
      <stop offset="0%" stop-color="#EFF"/>
      <stop offset="50%" stop-color="#DFF"/>
      <stop offset="100%" stop-color="#EFF"/>
    </linearGradient>
    <linearGradient id="c" x1="0%" y1="0%" x2="0%" y2="100%">
      <stop offset="10%" stop-color="#8AD"/>
      <stop offset="50%" stop-color="#CEF"/>
      <stop offset="95%" stop-color="#8AD"/>
    </linearGradient>
    <linearGradient id="f" x1="0%" y1="0%" x2="0%" y2="50%" spreadMethod="reflect">
      <stop offset="5%" stop-color="#6680FF"/>
      <stop offset="95%" stop-color="#1E269A"/>
    </linearGradient>
    <linearGradient id="g">
      <stop offset="0%" stop-color="#FFF"/>
      <stop offset="100%" stop-color="#DFF"/>
    </linearGradient>
    <radialGradient id="a">
      <stop offset="0%" stop-color="#FFF" stop-opacity=".7"/>
      <stop offset="100%" stop-color="#FFF" stop-opacity="0"/>
    </radialGradient>
    <radialGradient id="d" cx="10%" cy="15%">
      <stop offset="5%" stop-color="#DEF"/>
      <stop offset="95%" stop-color="#7AC"/>
    </radialGradient>
    <pattern id="e" x="0" y="0" width="20" height="20" patternUnits="userSpaceOnUse">
      <path fill="url(#a)" d="M3 3h4v4H3zM13 13h4v4h-4z"/>
    </pattern>
  </defs>
  <path stroke="#66C" fill="url(#b)" d="M2 21 14 3h60l12 18-12 18H14z"/>
  <path stroke="url(#c)" stroke-opacity=".5" fill="url(#d)" d="M6.3 21.12 17.1 5.28h54l10.8 15.84-10.8 15.84h-54z"/>
  <path fill="url(#e)" d="M6.3 21.12 17.1 5.28h54l10.8 15.84-10.8 15.84h-54z"/>
  <path d="M56.648 24.32H54.56v-3.36h.792l-1.32-1.2H49.52v1.32h4.56v3.24h-4.56v1.488q1.323-.184 3.363-.536a227.316 227.316 0 0 0 1.317-.232l.24 3.48q-2.496.48-4.92.816v3.744H45.2v-3.216a1.697 1.697 0 0 0-.107.004q-.152.01-.385.044-.324.048-.468.048L44 26.48q.165-.018.436-.044a61.726 61.726 0 0 1 .176-.016 39.709 39.709 0 0 0 .185-.017q.259-.025.403-.043V12.8q4.104-.552 8.4-1.8l1.08 3.6q-2.808.768-5.16 1.2v.72h4.56v1.536a5.129 5.129 0 0 0 .59-1.277q.411-1.29.477-3.22a22.223 22.223 0 0 0 .013-.76v-1.32h8.52v5.16a2.283 2.283 0 0 0 .002.092q.007.182.046.22a.094.094 0 0 0 .033.02q.057.022.188.027a2.287 2.287 0 0 0 .091.002.464.464 0 0 0 .168-.028q.188-.073.24-.332a2.649 2.649 0 0 0 .029-.198q.054-.465.129-1.73a149.28 149.28 0 0 0 .034-.592l2.88.48q-.046 1.017-.07 1.51a150.584 150.584 0 0 1-.002.038q-.016.338-.067.779a20.742 20.742 0 0 1-.053.42 69.282 69.282 0 0 0-.041.308q-.046.355-.068.556a6.789 6.789 0 0 0-.011.109 1.102 1.102 0 0 1-.034.18q-.057.219-.206.516a14.068 14.068 0 0 1-.076.15q-.118.228-.185.334a.761.761 0 0 1-.039.056.376.376 0 0 1-.051.052q-.097.084-.321.208a5.847 5.847 0 0 1-.096.052q-.298.159-.488.208a.734.734 0 0 1-.1.02q-.204.024-.828.084-.624.06-1.02.06H62.48a12.635 12.635 0 0 1-.64-.015q-1.046-.053-1.412-.297-.417-.278-.462-1.145a4.236 4.236 0 0 1-.006-.223v-3.72h-1.2a11.134 11.134 0 0 1-.248 2.426q-.357 1.6-1.229 2.776a6.454 6.454 0 0 1-.827.918h9.624v3.36q-1.104 2.16-2.784 3.792a23.533 23.533 0 0 0 2.471.896 29.406 29.406 0 0 0 1.753.472l-1.32 3.6q-3.408-.744-6.336-2.448-1.832 1.026-4.446 1.912a44.596 44.596 0 0 1-1.698.536l-1.68-3.48q2.352-.504 4.44-1.44a19.975 19.975 0 0 1-1-1.01q-.602-.654-1.04-1.27zM33.8 16.16h-8.28v-3.84H38q.192 5.016 1.644 9.792t3.876 8.568l-4.2 2.28q-2.184-3.432-3.624-7.764-1.44-4.332-1.896-9.036zm-8.64 1.8 4.32.84q-1.152 7.68-5.4 14.16L20 30.68q3.816-5.808 5.16-12.72zm36.408 6.36h-3.84q.912 1.032 2.04 1.848 1.008-.84 1.8-1.848z" fill="#1A2266" stroke-linecap="round" fill-rule="evenodd" stroke="#1A2266" stroke-width="4" paint-order="stroke" fill-opacity=".85" stroke-opacity=".85"/>
  <path d="M56.648 21.32H54.56v-3.36h.792l-1.32-1.2H49.52v1.32h4.56v3.24h-4.56v1.488q1.323-.184 3.363-.536a227.316 227.316 0 0 0 1.317-.232l.24 3.48q-2.496.48-4.92.816v3.744H45.2v-3.216a1.697 1.697 0 0 0-.107.004q-.152.01-.385.044-.324.048-.468.048L44 23.48q.165-.018.436-.044a61.726 61.726 0 0 1 .176-.016 39.709 39.709 0 0 0 .185-.017q.259-.025.403-.043V9.8q4.104-.552 8.4-1.8l1.08 3.6q-2.808.768-5.16 1.2v.72h4.56v1.536a5.129 5.129 0 0 0 .59-1.277q.411-1.29.477-3.219a22.223 22.223 0 0 0 .013-.76V8.48h8.52v5.16a2.283 2.283 0 0 0 .002.091q.007.182.046.221a.094.094 0 0 0 .033.019q.057.022.188.027a2.287 2.287 0 0 0 .091.002.464.464 0 0 0 .168-.028q.188-.073.24-.332a2.649 2.649 0 0 0 .029-.198q.054-.465.129-1.73a149.28 149.28 0 0 0 .034-.592l2.88.48q-.046 1.017-.07 1.51a150.584 150.584 0 0 1-.002.038q-.016.338-.067.779a20.742 20.742 0 0 1-.053.421 69.282 69.282 0 0 0-.041.307q-.046.355-.068.556a6.789 6.789 0 0 0-.011.109 1.102 1.102 0 0 1-.034.181q-.057.218-.206.515a14.068 14.068 0 0 1-.076.151q-.118.227-.185.333a.761.761 0 0 1-.039.056.376.376 0 0 1-.051.052q-.097.084-.321.208a5.847 5.847 0 0 1-.096.052q-.298.159-.488.208a.734.734 0 0 1-.1.02q-.204.024-.828.084-.624.06-1.02.06H62.48a12.635 12.635 0 0 1-.64-.015q-1.046-.053-1.412-.297-.417-.278-.462-1.145a4.236 4.236 0 0 1-.006-.223v-3.72h-1.2a11.134 11.134 0 0 1-.248 2.426q-.357 1.6-1.229 2.776a6.454 6.454 0 0 1-.827.918h9.624v3.36q-1.104 2.16-2.784 3.792a23.533 23.533 0 0 0 2.471.896 29.406 29.406 0 0 0 1.753.472l-1.32 3.6q-3.408-.744-6.336-2.448-1.832 1.026-4.446 1.912a44.596 44.596 0 0 1-1.698.536l-1.68-3.48q2.352-.504 4.44-1.44a19.975 19.975 0 0 1-1-1.009q-.602-.655-1.04-1.271zM33.8 13.16h-8.28V9.32H38q.192 5.016 1.644 9.792t3.876 8.568l-4.2 2.28q-2.184-3.432-3.624-7.764-1.44-4.332-1.896-9.036zm-8.64 1.8 4.32.84q-1.152 7.68-5.4 14.16L20 27.68q3.816-5.808 5.16-12.72zm36.408 6.36h-3.84q.912 1.032 2.04 1.848 1.008-.84 1.8-1.848z" fill="url(#f)" stroke-linecap="round" fill-rule="evenodd" stroke="url(#g)" stroke-width="4" paint-order="stroke"/>
</svg>
