<svg xmlns="http://www.w3.org/2000/svg" width="88" height="41">
  <defs>
    <linearGradient id="c" gradientTransform="rotate(15)">
      <stop offset="14%" stop-color="#ff551c"/>
      <stop offset="28%" stop-color="#ffdb07"/>
      <stop offset="42%" stop-color="#7dff65"/>
      <stop offset="57%" stop-color="#65cac0"/>
      <stop offset="71%" stop-color="#489afd"/>
      <stop offset="85%" stop-color="#b55ce1"/>
      <stop offset="99%" stop-color="#71a0ff"/>
    </linearGradient>
    <linearGradient id="b" x1="0%" y1="0%" x2="0%" y2="100%">
      <stop offset="10%" stop-color="#c75d36"/>
      <stop offset="95%" stop-color="#670000"/>
    </linearGradient>
    <linearGradient id="e" x1="0%" y1="0%" x2="0%" y2="50%" spreadMethod="reflect">
      <stop offset="40%" stop-color="#fff"/>
      <stop offset="90%" stop-color="#ffb8f9"/>
      <stop offset="100%" stop-color="#d8d6ff"/>
    </linearGradient>
    <linearGradient id="f">
      <stop offset="10%" stop-color="#1600f4"/>
      <stop offset="95%" stop-color="#490FEC"/>
    </linearGradient>
    <radialGradient id="a">
      <stop offset="0%" stop-color="#FFF" stop-opacity=".7"/>
      <stop offset="100%" stop-color="#FFF" stop-opacity="0"/>
    </radialGradient>
    <pattern id="d" x="0" y="0" width="20" height="20" patternUnits="userSpaceOnUse">
      <path fill="url(#a)" d="M3 3h4v4H3zM13 13h4v4h-4z"/>
    </pattern>
  </defs>
  <path stroke="url(#b)" fill="url(#c)" d="M2 21 14 3h60l12 18-12 18H14z"/>
  <path fill="url(#d)" d="M2 21 14 3h60l12 18-12 18H14z"/>
  <path d="M39.27 14.09h4.07v3.08h-4.07v1.364a78.428 78.428 0 0 0 2.874-.491 90.71 90.71 0 0 0 1.086-.213l.286 2.86.506.044q-.017-.117-.021-.336A8.109 8.109 0 0 1 44 20.25v-7.37h4.07v1.694q2.09-.616 4.62-1.694l1.32 2.97q-1.606.682-2.904 1.1l2.684.33a63.887 63.887 0 0 1-.045.654q-.052.706-.108 1.205a15.641 15.641 0 0 1-.034.286 12.377 12.377 0 0 1-.097.626q-.052.284-.114.532a6.84 6.84 0 0 1-.042.162q-.106.386-.306.61a.921.921 0 0 1-.2.17q-.352.22-.748.309a3.757 3.757 0 0 1-.252.046q-.361.054-.914.086a151.309 151.309 0 0 1-.635.019q-.839.024-1.298.025a18.506 18.506 0 0 1-.047 0q-.773 0-1.923-.042a95.813 95.813 0 0 1-.057-.002q-.77-.022-1.518-.11-.066.286-.198.814h7.106v10.01h-4.07v-.66h-9.02v.66H35.2V22.67h5.786q.037-.112.202-.91a118.101 118.101 0 0 0 .062-.3q-4.29.77-7.92.99L33 19.26q1.1-.066 2.2-.198V12.88h4.07zm-24.684 7.48H11.44v-3.08h6.732q.197-.241.547-.765a35.467 35.467 0 0 0 .003-.005q-3.833.169-5.709.217a90.676 90.676 0 0 1-.143.003l-.22-3.08a65.713 65.713 0 0 1 .271-.012l.741-.028a293.57 293.57 0 0 1 .418-.015 91.131 91.131 0 0 1 .443-.014q.619-.02.965-.02.704-1.297 1.342-2.771l3.85.66q-.472.977-.788 1.593a26.431 26.431 0 0 1-.18.343q2.398-.11 4.774-.264-.374-.506-.946-1.232l3.52-1.1q2.332 2.772 4.18 5.72l-2.31.77h2.97v3.08h-3.124q1.672.946 3.564 1.54l-.77 3.3q-2.266-.836-4.29-1.98l1.1 2.2a27.2 27.2 0 0 1-4.583 1.636q-2.309.613-5.012.98a56.458 56.458 0 0 1-3.385.354l-1.1-3.08a65.234 65.234 0 0 0 4.562-.461q4.683-.651 7.89-1.937a18.057 18.057 0 0 1-2.301-1.605 16.395 16.395 0 0 1-.339-.287l.968 1.87a27.086 27.086 0 0 1-3.603.989q-1.846.382-3.974.603a52.888 52.888 0 0 1-1.993.168l-.33-.88q-1.474.748-3.41 1.43l-.77-3.3q2.024-.638 3.586-1.54zm54.824 2.86 3.52-1.32a73.35 73.35 0 0 1 2.938 7.45 66.288 66.288 0 0 1 .362 1.13l-3.63 1.32a59.195 59.195 0 0 0-.217-.654l-.208-.611a112.585 112.585 0 0 0-.235-.671q-5.082.682-10.34 1.056l-.33-3.41 1.716-.132q1.1-3.19 2.134-6.688h-3.74v-3.41h14.41v3.41h-6.27a143.854 143.854 0 0 1-.65 2.153q-.587 1.898-1.33 4.139a56.556 56.556 0 0 0 .639-.052q1.044-.091 2.595-.256-.378-.983-.881-2.247a353.96 353.96 0 0 0-.483-1.207zm-8.69-5.852V32.79h-3.85v-8.492a14.959 14.959 0 0 1-.441.64q-.408.56-.769.922l-.88-4.84q2.574-3.256 3.63-8.58l3.74.66a28.07 28.07 0 0 1-.68 3.217 22.702 22.702 0 0 1-.75 2.26zM29.59 26.85l1.43 2.75a31.33 31.33 0 0 1-5.753 2.147q-2.861.778-6.216 1.22a63.896 63.896 0 0 1-3.651.373l-1.1-3.08a64.297 64.297 0 0 0 6.055-.711q3.026-.511 5.57-1.301a29.414 29.414 0 0 0 3.665-1.398zM74.8 16.73H62.81v-3.41H74.8zM39.27 28.5v.77h9.02v-.77zm0-2.31h9.02v-.77h-9.02zm-16.61-7.7h4.664a8.37 8.37 0 0 0-.086-.144q-.098-.16-.234-.37a30.042 30.042 0 0 0-.131-.201 86.673 86.673 0 0 1-.103-.157q-.206-.315-.26-.404a1.733 1.733 0 0 1-.056.007q-.242.026-1.244.103a306.286 306.286 0 0 1-.141.01 408.326 408.326 0 0 1-.604.047q-.848.064-1.343.097a21.272 21.272 0 0 1-.222.507q-.123.27-.24.505zm.726 3.08h-3.168q-.505.472-.843.75a6.782 6.782 0 0 1-.191.152q2.53-.352 4.29-.814zm24.684-3.762v.792q0 .198.044.242.036.036.202.057a2.339 2.339 0 0 0 .084.009q.163.02.59.022a19.846 19.846 0 0 0 .07 0q.418 0 .66-.022.228-.021.3-.217a.445.445 0 0 0 .008-.025q.066-.22.11-1.408-1.364.396-2.068.55z" fill="#221C9A" stroke-linecap="round" fill-rule="evenodd" stroke="#221C9A" stroke-width="4" paint-order="stroke" fill-opacity=".85" stroke-opacity=".85"/>
  <path d="M39.27 11.09h4.07v3.08h-4.07v1.364a78.428 78.428 0 0 0 2.874-.491 90.71 90.71 0 0 0 1.086-.213l.286 2.86.506.044q-.017-.117-.021-.336A8.109 8.109 0 0 1 44 17.25V9.88h4.07v1.694q2.09-.616 4.62-1.694l1.32 2.97q-1.606.682-2.904 1.1l2.684.33a63.887 63.887 0 0 1-.045.654q-.052.706-.108 1.205a15.641 15.641 0 0 1-.034.286 12.377 12.377 0 0 1-.097.626q-.052.284-.114.532a6.84 6.84 0 0 1-.042.162q-.106.386-.306.611a.921.921 0 0 1-.2.17q-.352.22-.748.308a3.757 3.757 0 0 1-.252.046q-.361.054-.914.086a151.309 151.309 0 0 1-.635.019q-.839.024-1.298.025a18.506 18.506 0 0 1-.047 0q-.773 0-1.923-.042a95.813 95.813 0 0 1-.057-.002q-.77-.022-1.518-.11-.066.286-.198.814h7.106v10.01h-4.07v-.66h-9.02v.66H35.2V19.67h5.786q.037-.112.202-.91a118.101 118.101 0 0 0 .062-.3q-4.29.77-7.92.99L33 16.26q1.1-.066 2.2-.198V9.88h4.07zm-24.684 7.48H11.44v-3.08h6.732q.197-.241.547-.765a35.467 35.467 0 0 0 .003-.005q-3.833.169-5.709.217a90.676 90.676 0 0 1-.143.003l-.22-3.08a65.713 65.713 0 0 1 .271-.012l.741-.028a293.57 293.57 0 0 1 .418-.015 91.131 91.131 0 0 1 .443-.014q.619-.019.965-.019.704-1.298 1.342-2.772l3.85.66q-.472.977-.788 1.593a26.431 26.431 0 0 1-.18.343q2.398-.11 4.774-.264-.374-.506-.946-1.232L27.06 9q2.332 2.772 4.18 5.72l-2.31.77h2.97v3.08h-3.124q1.672.946 3.564 1.54l-.77 3.3q-2.266-.836-4.29-1.98l1.1 2.2a27.2 27.2 0 0 1-4.583 1.636q-2.309.613-5.012.981a56.458 56.458 0 0 1-3.385.353l-1.1-3.08a65.234 65.234 0 0 0 4.562-.461q4.683-.651 7.89-1.937a18.057 18.057 0 0 1-2.301-1.605 16.395 16.395 0 0 1-.339-.287l.968 1.87a27.086 27.086 0 0 1-3.603.989q-1.846.382-3.974.603a52.888 52.888 0 0 1-1.993.168l-.33-.88q-1.474.748-3.41 1.43l-.77-3.3q2.024-.638 3.586-1.54zm54.824 2.86 3.52-1.32a73.35 73.35 0 0 1 2.938 7.451 66.288 66.288 0 0 1 .362 1.129l-3.63 1.32a59.195 59.195 0 0 0-.217-.654l-.208-.611a112.585 112.585 0 0 0-.235-.671q-5.082.682-10.34 1.056l-.33-3.41 1.716-.132q1.1-3.19 2.134-6.688h-3.74v-3.41h14.41v3.41h-6.27a143.854 143.854 0 0 1-.65 2.153q-.587 1.898-1.33 4.139a56.556 56.556 0 0 0 .639-.052q1.044-.091 2.595-.256-.378-.983-.881-2.247a353.96 353.96 0 0 0-.483-1.207zm-8.69-5.852V29.79h-3.85v-8.492a14.959 14.959 0 0 1-.441.641q-.408.56-.769.921l-.88-4.84q2.574-3.256 3.63-8.58l3.74.66a28.07 28.07 0 0 1-.68 3.217 22.702 22.702 0 0 1-.75 2.261zM29.59 23.85l1.43 2.75a31.33 31.33 0 0 1-5.753 2.147q-2.861.778-6.216 1.221a63.896 63.896 0 0 1-3.651.372l-1.1-3.08a64.297 64.297 0 0 0 6.055-.711q3.026-.511 5.57-1.301a29.414 29.414 0 0 0 3.665-1.398zM74.8 13.73H62.81v-3.41H74.8zM39.27 25.5v.77h9.02v-.77zm0-2.31h9.02v-.77h-9.02zm-16.61-7.7h4.664a8.37 8.37 0 0 0-.086-.144q-.098-.16-.234-.37a30.042 30.042 0 0 0-.131-.201 86.673 86.673 0 0 1-.103-.157q-.206-.315-.26-.404a1.733 1.733 0 0 1-.056.007q-.242.026-1.244.103a306.286 306.286 0 0 1-.141.011 408.326 408.326 0 0 1-.604.046q-.848.064-1.343.097a21.272 21.272 0 0 1-.222.507q-.123.271-.24.505zm.726 3.08h-3.168q-.505.472-.843.75a6.782 6.782 0 0 1-.191.152q2.53-.352 4.29-.814zm24.684-3.762v.792q0 .198.044.242.036.036.202.057a2.339 2.339 0 0 0 .084.009q.163.02.59.022a19.846 19.846 0 0 0 .07 0q.418 0 .66-.022.228-.021.3-.217a.445.445 0 0 0 .008-.025q.066-.22.11-1.408-1.364.396-2.068.55z" fill="url(#e)" stroke-linecap="round" fill-rule="evenodd" stroke="url(#f)" stroke-width="4" paint-order="stroke"/>
</svg>
