<svg xmlns="http://www.w3.org/2000/svg" width="88" height="41">
  <defs>
    <linearGradient id="c" gradientTransform="rotate(15)">
      <stop offset="14%" stop-color="#ff551c"/>
      <stop offset="28%" stop-color="#ffdb07"/>
      <stop offset="42%" stop-color="#7dff65"/>
      <stop offset="57%" stop-color="#65cac0"/>
      <stop offset="71%" stop-color="#489afd"/>
      <stop offset="85%" stop-color="#b55ce1"/>
      <stop offset="99%" stop-color="#71a0ff"/>
    </linearGradient>
    <linearGradient id="b" x1="0%" y1="0%" x2="0%" y2="100%">
      <stop offset="10%" stop-color="#c75d36"/>
      <stop offset="95%" stop-color="#670000"/>
    </linearGradient>
    <linearGradient id="e" x1="0%" y1="0%" x2="0%" y2="50%" spreadMethod="reflect">
      <stop offset="40%" stop-color="#fff"/>
      <stop offset="90%" stop-color="#ffb8f9"/>
      <stop offset="100%" stop-color="#d8d6ff"/>
    </linearGradient>
    <linearGradient id="f">
      <stop offset="10%" stop-color="#1600f4"/>
      <stop offset="95%" stop-color="#490FEC"/>
    </linearGradient>
    <radialGradient id="a">
      <stop offset="0%" stop-color="#FFF" stop-opacity=".7"/>
      <stop offset="100%" stop-color="#FFF" stop-opacity="0"/>
    </radialGradient>
    <pattern id="d" x="0" y="0" width="20" height="20" patternUnits="userSpaceOnUse">
      <path fill="url(#a)" d="M3 3h4v4H3zM13 13h4v4h-4z"/>
    </pattern>
  </defs>
  <path stroke="url(#b)" fill="url(#c)" d="M2 21 14 3h60l12 18-12 18H14z"/>
  <path fill="url(#d)" d="M2 21 14 3h60l12 18-12 18H14z"/>
  <path d="M27.51 28.06v.77h4.84v3.19H17.83v-3.19h5.61v-.77H19.7v-2.97h3.74v-1.76h2.134a10.264 10.264 0 0 1-.027-.315q-.017-.25-.017-.455v-2.42h-.462a7.112 7.112 0 0 1-.461 1.42 5.047 5.047 0 0 1-1.112 1.594q-.834.794-2.269 1.393a14.025 14.025 0 0 1-1.196.433l-.704-1.32q.033.299.041.897a31.141 31.141 0 0 1 .003.423 7.495 7.495 0 0 1-.109 1.342q-.419 2.29-2.448 2.393a3.835 3.835 0 0 1-.193.005h-.55l-.55-2.2v5.94H12v-19.8h7.7v.66h3.74V12h4.07v1.32h4.18v3.08h-4.18v.66h4.62v3.08h-3.19v1.1q0 .3.018.373a.095.095 0 0 0 .004.012q.022.055.198.055h.22a.443.443 0 0 0 .093-.01q.054-.011.092-.037a.202.202 0 0 0 .079-.118q.038-.141.059-.884a40.27 40.27 0 0 0 .007-.271l2.75.33a176.922 176.922 0 0 1-.021.486q-.031.683-.056 1.087-.033.539-.198 1.056a4.989 4.989 0 0 1-.082.237q-.08.213-.157.342a.771.771 0 0 1-.08.114q-.13.149-.457.282a3.209 3.209 0 0 1-.126.048 3.064 3.064 0 0 1-.624.155 2.724 2.724 0 0 1-.223.02q-.414.023-1.261.023a41.66 41.66 0 0 1-.015 0h-.88a5.429 5.429 0 0 1-.083-.001q-.115-.001-.272-.008a17.996 17.996 0 0 1-.052-.002 21.502 21.502 0 0 0-.118-.005q-.162-.006-.245-.006v.572h4.18v2.97zm11.99-14.3h4.07v3.08H39.5v1.364a78.428 78.428 0 0 0 2.874-.491 90.71 90.71 0 0 0 1.086-.213l.286 2.86.506.044q-.017-.117-.021-.336a8.109 8.109 0 0 1-.001-.148v-7.37h4.07v1.694q2.09-.616 4.62-1.694l1.32 2.97q-1.606.682-2.904 1.1l2.684.33a63.887 63.887 0 0 1-.045.654q-.052.706-.108 1.205a15.641 15.641 0 0 1-.034.286 12.377 12.377 0 0 1-.097.626q-.052.284-.114.532a6.84 6.84 0 0 1-.042.162q-.106.386-.306.61a.921.921 0 0 1-.2.17q-.352.22-.748.309a3.757 3.757 0 0 1-.252.046q-.361.054-.914.086a151.309 151.309 0 0 1-.635.019q-.839.024-1.298.025a18.506 18.506 0 0 1-.047 0q-.773 0-1.923-.042a95.813 95.813 0 0 1-.057-.002q-.77-.022-1.518-.11-.066.286-.198.814h7.106v10.01h-4.07v-.66H39.5v.66h-4.07V22.34h5.786q.037-.112.202-.91a118.101 118.101 0 0 0 .062-.3q-4.29.77-7.92.99l-.33-3.19q1.1-.066 2.2-.198V12.55h4.07zM69.64 24.1l3.52-1.32a73.35 73.35 0 0 1 2.938 7.45 66.288 66.288 0 0 1 .362 1.13l-3.63 1.32a59.195 59.195 0 0 0-.217-.654l-.208-.611a112.585 112.585 0 0 0-.235-.671q-5.082.682-10.34 1.056l-.33-3.41 1.716-.132q1.1-3.19 2.134-6.688h-3.74v-3.41h14.41v3.41h-6.27a143.854 143.854 0 0 1-.65 2.153q-.588 1.898-1.33 4.139a56.556 56.556 0 0 0 .639-.052q1.044-.091 2.595-.256-.378-.983-.881-2.247a353.96 353.96 0 0 0-.483-1.207zm-8.69-5.852V32.46H57.1v-8.492a14.959 14.959 0 0 1-.441.64q-.408.56-.769.922l-.88-4.84q2.574-3.256 3.63-8.58l3.74.66a28.07 28.07 0 0 1-.68 3.217 22.702 22.702 0 0 1-.75 2.26zM75.03 16.4H63.04v-3.41h11.99zM39.5 28.17v.77h9.02v-.77zm0-2.31h9.02v-.77H39.5zm-17.776-5.72H18.93v-1.914a37.3 37.3 0 0 1-.34.934q-.174.458-.342.855a18.995 18.995 0 0 1-.198.455q.594.66.924 1.518 2.112-.616 2.75-1.848zm1.716-3.74h-3.938l-.198.66h4.136zm-7.92 5.302v3.938q.462-.044.616-.33a.864.864 0 0 0 .069-.183q.081-.3.085-.865a8.332 8.332 0 0 0 0-.052q0-1.386-.77-2.508zm1.056-6.072H15.52v3.102q.605-1.475.95-2.706a16.698 16.698 0 0 0 .106-.396zM48.3 17.478v.792q0 .198.044.242.036.036.202.057a2.339 2.339 0 0 0 .084.009q.163.02.59.022a19.846 19.846 0 0 0 .07 0q.418 0 .66-.022.228-.021.3-.217a.445.445 0 0 0 .008-.025q.066-.22.11-1.408-1.364.396-2.068.55z" fill="#221C9A" stroke-linecap="round" fill-rule="evenodd" stroke="#221C9A" stroke-width="4" paint-order="stroke" fill-opacity=".85" stroke-opacity=".85"/>
  <path d="M27.51 25.06v.77h4.84v3.19H17.83v-3.19h5.61v-.77H19.7v-2.97h3.74v-1.76h2.134a10.264 10.264 0 0 1-.027-.315q-.017-.249-.017-.455v-2.42h-.462a7.112 7.112 0 0 1-.461 1.421 5.047 5.047 0 0 1-1.112 1.593q-.834.794-2.269 1.393a14.025 14.025 0 0 1-1.196.433l-.704-1.32q.033.299.041.897a31.141 31.141 0 0 1 .003.423 7.495 7.495 0 0 1-.109 1.342q-.419 2.291-2.448 2.393a3.835 3.835 0 0 1-.193.005h-.55l-.55-2.2v5.94H12V9.66h7.7v.66h3.74V9h4.07v1.32h4.18v3.08h-4.18v.66h4.62v3.08h-3.19v1.1q0 .301.018.373a.095.095 0 0 0 .004.012q.022.055.198.055h.22a.443.443 0 0 0 .093-.009q.054-.012.092-.038a.202.202 0 0 0 .079-.118q.038-.141.059-.884a40.27 40.27 0 0 0 .007-.271l2.75.33a176.922 176.922 0 0 1-.021.486q-.031.683-.056 1.087-.033.539-.198 1.056a4.989 4.989 0 0 1-.082.237q-.08.213-.157.342a.771.771 0 0 1-.08.114q-.13.149-.457.282a3.209 3.209 0 0 1-.126.048 3.064 3.064 0 0 1-.624.155 2.724 2.724 0 0 1-.223.021q-.414.022-1.261.022a41.66 41.66 0 0 1-.015 0h-.88a5.429 5.429 0 0 1-.083-.001q-.115-.001-.272-.008a17.996 17.996 0 0 1-.052-.002 21.502 21.502 0 0 0-.118-.005q-.162-.006-.245-.006v.572h4.18v2.97zm11.99-14.3h4.07v3.08H39.5v1.364a78.428 78.428 0 0 0 2.874-.491 90.71 90.71 0 0 0 1.086-.213l.286 2.86.506.044q-.017-.117-.021-.336a8.109 8.109 0 0 1-.001-.148V9.55h4.07v1.694q2.09-.616 4.62-1.694l1.32 2.97q-1.606.682-2.904 1.1l2.684.33a63.887 63.887 0 0 1-.045.654q-.052.706-.108 1.205a15.641 15.641 0 0 1-.034.286 12.377 12.377 0 0 1-.097.626q-.052.284-.114.532a6.84 6.84 0 0 1-.042.162q-.106.386-.306.611a.921.921 0 0 1-.2.17q-.352.22-.748.308a3.757 3.757 0 0 1-.252.046q-.361.054-.914.086a151.309 151.309 0 0 1-.635.019q-.839.024-1.298.025a18.506 18.506 0 0 1-.047 0q-.773 0-1.923-.042a95.813 95.813 0 0 1-.057-.002q-.77-.022-1.518-.11-.066.286-.198.814h7.106v10.01h-4.07v-.66H39.5v.66h-4.07V19.34h5.786q.037-.112.202-.91a118.101 118.101 0 0 0 .062-.3q-4.29.77-7.92.99l-.33-3.19q1.1-.066 2.2-.198V9.55h4.07zM69.64 21.1l3.52-1.32a73.35 73.35 0 0 1 2.938 7.451 66.288 66.288 0 0 1 .362 1.129l-3.63 1.32a59.195 59.195 0 0 0-.217-.654l-.208-.611a112.585 112.585 0 0 0-.235-.671q-5.082.682-10.34 1.056l-.33-3.41 1.716-.132q1.1-3.19 2.134-6.688h-3.74v-3.41h14.41v3.41h-6.27a143.854 143.854 0 0 1-.65 2.153q-.588 1.898-1.33 4.139a56.556 56.556 0 0 0 .639-.052q1.044-.091 2.595-.256-.378-.983-.881-2.247a353.96 353.96 0 0 0-.483-1.207zm-8.69-5.852V29.46H57.1v-8.492a14.959 14.959 0 0 1-.441.641q-.408.56-.769.921l-.88-4.84q2.574-3.256 3.63-8.58l3.74.66a28.07 28.07 0 0 1-.68 3.217 22.702 22.702 0 0 1-.75 2.261zM75.03 13.4H63.04V9.99h11.99zM39.5 25.17v.77h9.02v-.77zm0-2.31h9.02v-.77H39.5zm-17.776-5.72H18.93v-1.914a37.3 37.3 0 0 1-.34.934q-.174.458-.342.855a18.995 18.995 0 0 1-.198.455q.594.66.924 1.518 2.112-.616 2.75-1.848zm1.716-3.74h-3.938l-.198.66h4.136zm-7.92 5.302v3.938q.462-.044.616-.33a.864.864 0 0 0 .069-.183q.081-.299.085-.865a8.332 8.332 0 0 0 0-.052q0-1.386-.77-2.508zm1.056-6.072H15.52v3.102q.605-1.475.95-2.706a16.698 16.698 0 0 0 .106-.396zM48.3 14.478v.792q0 .198.044.242.036.036.202.057a2.339 2.339 0 0 0 .084.009q.163.02.59.022a19.846 19.846 0 0 0 .07 0q.418 0 .66-.022.228-.021.3-.217a.445.445 0 0 0 .008-.025q.066-.22.11-1.408-1.364.396-2.068.55z" fill="url(#e)" stroke-linecap="round" fill-rule="evenodd" stroke="url(#f)" stroke-width="4" paint-order="stroke"/>
</svg>
