<svg xmlns="http://www.w3.org/2000/svg" width="88" height="41">
  <defs>
    <linearGradient id="c" gradientTransform="rotate(15)">
      <stop offset="14%" stop-color="#ff551c"/>
      <stop offset="28%" stop-color="#ffdb07"/>
      <stop offset="42%" stop-color="#7dff65"/>
      <stop offset="57%" stop-color="#65cac0"/>
      <stop offset="71%" stop-color="#489afd"/>
      <stop offset="85%" stop-color="#b55ce1"/>
      <stop offset="99%" stop-color="#71a0ff"/>
    </linearGradient>
    <linearGradient id="b" x1="0%" y1="0%" x2="0%" y2="100%">
      <stop offset="10%" stop-color="#c75d36"/>
      <stop offset="95%" stop-color="#670000"/>
    </linearGradient>
    <linearGradient id="e" x1="0%" y1="0%" x2="0%" y2="50%" spreadMethod="reflect">
      <stop offset="40%" stop-color="#fff"/>
      <stop offset="90%" stop-color="#ffb8f9"/>
      <stop offset="100%" stop-color="#d8d6ff"/>
    </linearGradient>
    <linearGradient id="f">
      <stop offset="10%" stop-color="#1600f4"/>
      <stop offset="95%" stop-color="#490FEC"/>
    </linearGradient>
    <radialGradient id="a">
      <stop offset="0%" stop-color="#FFF" stop-opacity=".7"/>
      <stop offset="100%" stop-color="#FFF" stop-opacity="0"/>
    </radialGradient>
    <pattern id="d" x="0" y="0" width="20" height="20" patternUnits="userSpaceOnUse">
      <path fill="url(#a)" d="M3 3h4v4H3zM13 13h4v4h-4z"/>
    </pattern>
  </defs>
  <path stroke="url(#b)" fill="url(#c)" d="M2 21 14 3h60l12 18-12 18H14z"/>
  <path fill="url(#d)" d="M2 21 14 3h60l12 18-12 18H14z"/>
  <path d="m32.45 30.04-1.32 2.97q-2.266-1.276-4.686-2.244a5.785 5.785 0 0 1-.092.666q-.202.988-.733 1.292-.643.367-2.544.394a21.785 21.785 0 0 1-.305.002q-.608 0-1.962-.093a94.585 94.585 0 0 1-.238-.017l-.11-1.496q-1.386.836-2.97 1.386l-1.1-2.97a21.347 21.347 0 0 0 2.33-.994 25.4 25.4 0 0 0 1.08-.568 36.157 36.157 0 0 0-.46-.636q-.368-.497-.684-.882-.371.196-1.152.544a55.23 55.23 0 0 1-.014.006l-.418-1.144Q15.994 30.084 14.3 32.9l-3.19-1.98q1.76-3.102 2.97-7.04l2.442.902-.242-.682a26.057 26.057 0 0 0 4.241-2.296 22.375 22.375 0 0 0 1.919-1.444v-.946q-2.2 1.54-4.95 2.816l-.308-.858-2.002 2.508q-1.958-1.782-4.18-3.41l2.2-2.64q1.782 1.232 3.74 2.926l-.66-1.826a38.009 38.009 0 0 0 4.252-1.69 42.009 42.009 0 0 0 .61-.29H17.16v-.88l-1.76 2.2q-1.804-1.584-3.74-2.97l2.2-2.64q1.892 1.298 3.3 2.486V13.76h5.28V12h4.18v1.76h5.28v3.19h-3.916a44.804 44.804 0 0 1 4.225 1.708 40.946 40.946 0 0 1 .571.272l-1.21 3.3a49.628 49.628 0 0 0-4.314-2.323 44.816 44.816 0 0 0-.636-.295v.748a23.646 23.646 0 0 0 4.403 2.91 28.045 28.045 0 0 0 1.757.83l-1.21 3.3q-.726-.33-1.276-.616-.704 1.056-1.1 1.54a30.283 30.283 0 0 1 1.698.82q.791.415 1.468.839a18.384 18.384 0 0 1 .09.057zm7.04-15.84h4.07v3.08h-4.07v1.364a78.428 78.428 0 0 0 2.874-.491 90.71 90.71 0 0 0 1.086-.213l.286 2.86.506.044q-.017-.117-.021-.336a8.109 8.109 0 0 1-.001-.148v-7.37h4.07v1.694q2.09-.616 4.62-1.694l1.32 2.97q-1.606.682-2.904 1.1l2.684.33a63.887 63.887 0 0 1-.045.654q-.052.706-.108 1.205a15.641 15.641 0 0 1-.034.286 12.377 12.377 0 0 1-.097.626q-.052.284-.114.532a6.84 6.84 0 0 1-.042.162q-.106.386-.306.61a.921.921 0 0 1-.2.17q-.352.22-.748.309a3.757 3.757 0 0 1-.252.046q-.361.054-.914.086a151.309 151.309 0 0 1-.635.019q-.839.024-1.298.025a18.506 18.506 0 0 1-.047 0q-.773 0-1.923-.042a95.813 95.813 0 0 1-.057-.002q-.77-.022-1.518-.11-.066.286-.198.814h7.106v10.01h-4.07v-.66h-9.02v.66h-4.07V22.78h5.786q.037-.112.202-.91a118.101 118.101 0 0 0 .062-.3q-4.29.77-7.92.99l-.33-3.19q1.1-.066 2.2-.198V12.99h4.07zm30.14 10.34 3.52-1.32a73.35 73.35 0 0 1 2.938 7.45 66.288 66.288 0 0 1 .362 1.13l-3.63 1.32a59.195 59.195 0 0 0-.217-.654l-.208-.611a112.585 112.585 0 0 0-.235-.671q-5.082.682-10.34 1.056l-.33-3.41 1.716-.132q1.1-3.19 2.134-6.688H61.6V18.6h14.41v3.41h-6.27a143.854 143.854 0 0 1-.65 2.153q-.587 1.898-1.33 4.139a56.556 56.556 0 0 0 .639-.052q1.044-.091 2.595-.256-.378-.983-.881-2.247a353.96 353.96 0 0 0-.483-1.207zm-8.69-5.852V32.9h-3.85v-8.492a14.959 14.959 0 0 1-.441.64q-.408.56-.769.922L55 21.13q2.574-3.256 3.63-8.58l3.74.66a28.07 28.07 0 0 1-.68 3.217 22.702 22.702 0 0 1-.75 2.26zm14.08-1.848H63.03v-3.41h11.99zM39.49 28.61v.77h9.02v-.77zm0-2.31h9.02v-.77h-9.02zm-16.5-2.2h3.08q-.704-.572-1.54-1.32-.836.748-1.54 1.32zm25.3-6.182v.792q0 .198.044.242.036.036.202.057a2.339 2.339 0 0 0 .084.009q.163.02.59.022a19.846 19.846 0 0 0 .07 0q.418 0 .66-.022.228-.021.3-.217a.445.445 0 0 0 .008-.025q.066-.22.11-1.408-1.364.396-2.068.55zM26.488 30.304l.99-2.09-.968-.704v1.21q0 1.122-.022 1.584zm-3.938-2.86-1.034.792.682 1.694h.132a.727.727 0 0 0 .061-.002q.119-.01.137-.064a.219.219 0 0 0 .007-.037q.012-.088.015-.333a13.122 13.122 0 0 0 0-.114zm0-.748V24.43q-.682.506-1.122.814.32.37.808 1.025a45.296 45.296 0 0 1 .314.427zm3.96-2.244v2.2q.304-.365.981-1.27a109.679 109.679 0 0 0 .119-.16 29.668 29.668 0 0 1-.747-.515 34.954 34.954 0 0 1-.353-.255z" fill="#221C9A" stroke-linecap="round" fill-rule="evenodd" stroke="#221C9A" stroke-width="4" paint-order="stroke" fill-opacity=".85" stroke-opacity=".85"/>
  <path d="m32.45 27.04-1.32 2.97q-2.266-1.276-4.686-2.244a5.785 5.785 0 0 1-.092.666q-.202.988-.733 1.292-.643.367-2.544.394a21.785 21.785 0 0 1-.305.002q-.608 0-1.962-.093a94.585 94.585 0 0 1-.238-.017l-.11-1.496q-1.386.836-2.97 1.386l-1.1-2.97a21.347 21.347 0 0 0 2.33-.994 25.4 25.4 0 0 0 1.08-.568 36.157 36.157 0 0 0-.46-.636q-.368-.497-.684-.882-.371.196-1.152.544a55.23 55.23 0 0 1-.014.006l-.418-1.144Q15.994 27.084 14.3 29.9l-3.19-1.98q1.76-3.102 2.97-7.04l2.442.902-.242-.682a26.057 26.057 0 0 0 4.241-2.296 22.375 22.375 0 0 0 1.919-1.444v-.946q-2.2 1.54-4.95 2.816l-.308-.858-2.002 2.508q-1.958-1.782-4.18-3.41l2.2-2.64q1.782 1.232 3.74 2.926l-.66-1.826a38.009 38.009 0 0 0 4.252-1.689 42.009 42.009 0 0 0 .61-.291H17.16v-.88l-1.76 2.2q-1.804-1.584-3.74-2.97l2.2-2.64q1.892 1.298 3.3 2.486V10.76h5.28V9h4.18v1.76h5.28v3.19h-3.916a44.804 44.804 0 0 1 4.225 1.708 40.946 40.946 0 0 1 .571.272l-1.21 3.3a49.628 49.628 0 0 0-4.314-2.323 44.816 44.816 0 0 0-.636-.295v.748a23.646 23.646 0 0 0 4.403 2.91 28.045 28.045 0 0 0 1.757.83l-1.21 3.3q-.726-.33-1.276-.616-.704 1.056-1.1 1.54a30.283 30.283 0 0 1 1.698.82q.791.415 1.468.839a18.384 18.384 0 0 1 .09.057zm7.04-15.84h4.07v3.08h-4.07v1.364a78.428 78.428 0 0 0 2.874-.491 90.71 90.71 0 0 0 1.086-.213l.286 2.86.506.044q-.017-.117-.021-.336a8.109 8.109 0 0 1-.001-.148V9.99h4.07v1.694q2.09-.616 4.62-1.694l1.32 2.97q-1.606.682-2.904 1.1l2.684.33a63.887 63.887 0 0 1-.045.654q-.052.706-.108 1.205a15.641 15.641 0 0 1-.034.286 12.377 12.377 0 0 1-.097.626q-.052.284-.114.532a6.84 6.84 0 0 1-.042.162q-.106.386-.306.611a.921.921 0 0 1-.2.17q-.352.22-.748.308a3.757 3.757 0 0 1-.252.046q-.361.054-.914.086a151.309 151.309 0 0 1-.635.019q-.839.024-1.298.025a18.506 18.506 0 0 1-.047 0q-.773 0-1.923-.042a95.813 95.813 0 0 1-.057-.002q-.77-.022-1.518-.11-.066.286-.198.814h7.106v10.01h-4.07v-.66h-9.02v.66h-4.07V19.78h5.786q.037-.112.202-.91a118.101 118.101 0 0 0 .062-.3q-4.29.77-7.92.99l-.33-3.19q1.1-.066 2.2-.198V9.99h4.07zm30.14 10.34 3.52-1.32a73.35 73.35 0 0 1 2.938 7.451 66.288 66.288 0 0 1 .362 1.129l-3.63 1.32a59.195 59.195 0 0 0-.217-.654l-.208-.611a112.585 112.585 0 0 0-.235-.671q-5.082.682-10.34 1.056l-.33-3.41 1.716-.132q1.1-3.19 2.134-6.688H61.6V15.6h14.41v3.41h-6.27a143.854 143.854 0 0 1-.65 2.153q-.587 1.898-1.33 4.139a56.556 56.556 0 0 0 .639-.052q1.044-.091 2.595-.256-.378-.983-.881-2.247a353.96 353.96 0 0 0-.483-1.207zm-8.69-5.852V29.9h-3.85v-8.492a14.959 14.959 0 0 1-.441.641q-.408.56-.769.921L55 18.13q2.574-3.256 3.63-8.58l3.74.66a28.07 28.07 0 0 1-.68 3.217 22.702 22.702 0 0 1-.75 2.261zm14.08-1.848H63.03v-3.41h11.99zM39.49 25.61v.77h9.02v-.77zm0-2.31h9.02v-.77h-9.02zm-16.5-2.2h3.08q-.704-.572-1.54-1.32-.836.748-1.54 1.32zm25.3-6.182v.792q0 .198.044.242.036.036.202.057a2.339 2.339 0 0 0 .084.009q.163.02.59.022a19.846 19.846 0 0 0 .07 0q.418 0 .66-.022.228-.021.3-.217a.445.445 0 0 0 .008-.025q.066-.22.11-1.408-1.364.396-2.068.55zM26.488 27.304l.99-2.09-.968-.704v1.21q0 1.122-.022 1.584zm-3.938-2.86-1.034.792.682 1.694h.132a.727.727 0 0 0 .061-.002q.119-.01.137-.064a.219.219 0 0 0 .007-.037q.012-.088.015-.333a13.122 13.122 0 0 0 0-.114zm0-.748V21.43q-.682.506-1.122.814.32.371.808 1.025a45.296 45.296 0 0 1 .314.427zm3.96-2.244v2.2q.304-.365.981-1.27a109.679 109.679 0 0 0 .119-.16 29.668 29.668 0 0 1-.747-.515 34.954 34.954 0 0 1-.353-.255z" fill="url(#e)" stroke-linecap="round" fill-rule="evenodd" stroke="url(#f)" stroke-width="4" paint-order="stroke"/>
</svg>
