<svg xmlns="http://www.w3.org/2000/svg" width="88" height="41">
  <path stroke="#096390" fill="#0AE099" d="M2 21 14 3h60l12 18-12 18H14z"/>
  <path d="M56.648 24.32H54.56v-3.36h.792l-1.32-1.2H49.52v1.32h4.56v3.24h-4.56v1.488q1.323-.184 3.363-.536a227.316 227.316 0 0 0 1.317-.232l.24 3.48q-2.496.48-4.92.816v3.744H45.2v-3.216a1.697 1.697 0 0 0-.107.004q-.152.01-.385.044-.324.048-.468.048L44 26.48q.165-.018.436-.044a61.726 61.726 0 0 1 .176-.016 39.709 39.709 0 0 0 .185-.017q.259-.025.403-.043V12.8q4.104-.552 8.4-1.8l1.08 3.6q-2.808.768-5.16 1.2v.72h4.56v1.536a5.129 5.129 0 0 0 .59-1.277q.411-1.29.477-3.22a22.223 22.223 0 0 0 .013-.76v-1.32h8.52v5.16a2.283 2.283 0 0 0 .002.092q.007.182.046.22a.094.094 0 0 0 .033.02q.057.022.188.027a2.287 2.287 0 0 0 .091.002.464.464 0 0 0 .168-.028q.188-.073.24-.332a2.649 2.649 0 0 0 .029-.198q.054-.465.129-1.73a149.28 149.28 0 0 0 .034-.592l2.88.48q-.046 1.017-.07 1.51a150.584 150.584 0 0 1-.002.038q-.016.338-.067.779a20.742 20.742 0 0 1-.053.42 69.282 69.282 0 0 0-.041.308q-.046.355-.068.556a6.789 6.789 0 0 0-.011.109 1.102 1.102 0 0 1-.034.18q-.057.219-.206.516a14.068 14.068 0 0 1-.076.15q-.118.228-.185.334a.761.761 0 0 1-.039.056.376.376 0 0 1-.051.052q-.097.084-.321.208a5.847 5.847 0 0 1-.096.052q-.298.159-.488.208a.734.734 0 0 1-.1.02q-.204.024-.828.084-.624.06-1.02.06H62.48a12.635 12.635 0 0 1-.64-.015q-1.046-.053-1.412-.297-.417-.278-.462-1.145a4.236 4.236 0 0 1-.006-.223v-3.72h-1.2a11.134 11.134 0 0 1-.248 2.426q-.357 1.6-1.229 2.776a6.454 6.454 0 0 1-.827.918h9.624v3.36q-1.104 2.16-2.784 3.792a23.533 23.533 0 0 0 2.471.896 29.406 29.406 0 0 0 1.753.472l-1.32 3.6q-3.408-.744-6.336-2.448-1.832 1.026-4.446 1.912a44.596 44.596 0 0 1-1.698.536l-1.68-3.48q2.352-.504 4.44-1.44a19.975 19.975 0 0 1-1-1.01q-.602-.654-1.04-1.27zM33.8 32.36l-.096-3.12q-1.32 2.064-3.384 3.96l-3.6-2.28a19.376 19.376 0 0 0 1.859-1.771 14.448 14.448 0 0 0 1.453-1.865q1.224-1.884 1.932-4.668a25.513 25.513 0 0 0 .462-2.28q.194-1.224.321-2.636a54.233 54.233 0 0 0 .141-2.02H28.88v2.52q-.528 1.488-1.344 2.928a1.17 1.17 0 0 1 .044.047q.062.069.148.18.12.157.168.229a16.733 16.733 0 0 0 1.505-2.718 15.479 15.479 0 0 0 .079-.186l2.64 1.44q-.96 2.136-2.304 4.032a12.576 12.576 0 0 1 .067.095q.158.226.593.857a808.827 808.827 0 0 1 .204.296l-2.64 2.4q-.672-1.056-1.56-2.304v7.584h-3.96v-6.312a13.707 13.707 0 0 1-.962.81 10.605 10.605 0 0 1-.838.582L20 23.6a11.931 11.931 0 0 0 3.28-3.178 11.27 11.27 0 0 0 1.184-2.222H20.6v-3.84h1.92V11h3.96v3.36h2.16v-2.4h14.04v6.36a243.85 243.85 0 0 1-.005 1.634q-.016 2.347-.079 4.066a50.086 50.086 0 0 1-.085 1.63q-.089 1.283-.239 2.318-.198 1.365-.436 2.216a7.341 7.341 0 0 1-.104.34 3.611 3.611 0 0 1-.336.737 2.744 2.744 0 0 1-.576.679 3.566 3.566 0 0 1-.499.356q-.366.214-.737.292-.624.132-1.704.132a7.912 7.912 0 0 1-.399-.013q-.966-.05-3.274-.302a213.157 213.157 0 0 1-.407-.045zm4.44-16.68h-1.152a48.46 48.46 0 0 1-.461 4.807q-.731 4.863-2.453 7.959a14.507 14.507 0 0 1-.014.026 59.619 59.619 0 0 0 .843.119q1.042.139 1.587.164a4.726 4.726 0 0 0 .21.005 1.139 1.139 0 0 0 .338-.047.846.846 0 0 0 .478-.373 1.286 1.286 0 0 0 .115-.253q.158-.446.281-1.394a21.529 21.529 0 0 0 .048-.405 21.351 21.351 0 0 0 .079-.915q.069-1.046.091-2.513a96.065 96.065 0 0 0 .01-1.42zm23.328 8.64h-3.84q.912 1.032 2.04 1.848 1.008-.84 1.8-1.848z" fill="#0E6699" stroke-linecap="round" fill-rule="evenodd" stroke="#0E6699" stroke-width="4" paint-order="stroke" fill-opacity=".85" stroke-opacity=".85"/>
  <path d="M56.648 21.32H54.56v-3.36h.792l-1.32-1.2H49.52v1.32h4.56v3.24h-4.56v1.488q1.323-.184 3.363-.536a227.316 227.316 0 0 0 1.317-.232l.24 3.48q-2.496.48-4.92.816v3.744H45.2v-3.216a1.697 1.697 0 0 0-.107.004q-.152.01-.385.044-.324.048-.468.048L44 23.48q.165-.018.436-.044a61.726 61.726 0 0 1 .176-.016 39.709 39.709 0 0 0 .185-.017q.259-.025.403-.043V9.8q4.104-.552 8.4-1.8l1.08 3.6q-2.808.768-5.16 1.2v.72h4.56v1.536a5.129 5.129 0 0 0 .59-1.277q.411-1.29.477-3.219a22.223 22.223 0 0 0 .013-.76V8.48h8.52v5.16a2.283 2.283 0 0 0 .002.091q.007.182.046.221a.094.094 0 0 0 .033.019q.057.022.188.027a2.287 2.287 0 0 0 .091.002.464.464 0 0 0 .168-.028q.188-.073.24-.332a2.649 2.649 0 0 0 .029-.198q.054-.465.129-1.73a149.28 149.28 0 0 0 .034-.592l2.88.48q-.046 1.017-.07 1.51a150.584 150.584 0 0 1-.002.038q-.016.338-.067.779a20.742 20.742 0 0 1-.053.421 69.282 69.282 0 0 0-.041.307q-.046.355-.068.556a6.789 6.789 0 0 0-.011.109 1.102 1.102 0 0 1-.034.181q-.057.218-.206.515a14.068 14.068 0 0 1-.076.151q-.118.227-.185.333a.761.761 0 0 1-.039.056.376.376 0 0 1-.051.052q-.097.084-.321.208a5.847 5.847 0 0 1-.096.052q-.298.159-.488.208a.734.734 0 0 1-.1.02q-.204.024-.828.084-.624.06-1.02.06H62.48a12.635 12.635 0 0 1-.64-.015q-1.046-.053-1.412-.297-.417-.278-.462-1.145a4.236 4.236 0 0 1-.006-.223v-3.72h-1.2a11.134 11.134 0 0 1-.248 2.426q-.357 1.6-1.229 2.776a6.454 6.454 0 0 1-.827.918h9.624v3.36q-1.104 2.16-2.784 3.792a23.533 23.533 0 0 0 2.471.896 29.406 29.406 0 0 0 1.753.472l-1.32 3.6q-3.408-.744-6.336-2.448-1.832 1.026-4.446 1.912a44.596 44.596 0 0 1-1.698.536l-1.68-3.48q2.352-.504 4.44-1.44a19.975 19.975 0 0 1-1-1.009q-.602-.655-1.04-1.271zM33.8 29.36l-.096-3.12q-1.32 2.064-3.384 3.96l-3.6-2.28a19.376 19.376 0 0 0 1.859-1.771 14.448 14.448 0 0 0 1.453-1.865q1.224-1.884 1.932-4.668a25.513 25.513 0 0 0 .462-2.28q.194-1.224.321-2.636a54.233 54.233 0 0 0 .141-2.02H28.88v2.52q-.528 1.488-1.344 2.928a1.17 1.17 0 0 1 .044.047q.062.069.148.181.12.156.168.228a16.733 16.733 0 0 0 1.505-2.718 15.479 15.479 0 0 0 .079-.186l2.64 1.44q-.96 2.136-2.304 4.032a12.576 12.576 0 0 1 .067.095q.158.226.593.857a808.827 808.827 0 0 1 .204.296l-2.64 2.4q-.672-1.056-1.56-2.304v7.584h-3.96v-6.312a13.707 13.707 0 0 1-.962.811 10.605 10.605 0 0 1-.838.581L20 20.6a11.931 11.931 0 0 0 3.28-3.178 11.27 11.27 0 0 0 1.184-2.222H20.6v-3.84h1.92V8h3.96v3.36h2.16v-2.4h14.04v6.36a243.85 243.85 0 0 1-.005 1.634q-.016 2.347-.079 4.066a50.086 50.086 0 0 1-.085 1.63q-.089 1.283-.239 2.318-.198 1.365-.436 2.216a7.341 7.341 0 0 1-.104.34 3.611 3.611 0 0 1-.336.737 2.744 2.744 0 0 1-.576.679 3.566 3.566 0 0 1-.499.356q-.366.214-.737.292-.624.132-1.704.132a7.912 7.912 0 0 1-.399-.013q-.966-.05-3.274-.302a213.157 213.157 0 0 1-.407-.045zm4.44-16.68h-1.152a48.46 48.46 0 0 1-.461 4.807q-.731 4.863-2.453 7.959a14.507 14.507 0 0 1-.014.026 59.619 59.619 0 0 0 .843.119q1.042.139 1.587.164a4.726 4.726 0 0 0 .21.005 1.139 1.139 0 0 0 .338-.047.846.846 0 0 0 .478-.373 1.286 1.286 0 0 0 .115-.253q.158-.446.281-1.394a21.529 21.529 0 0 0 .048-.405 21.351 21.351 0 0 0 .079-.915q.069-1.046.091-2.513a96.065 96.065 0 0 0 .01-1.42zm23.328 8.64h-3.84q.912 1.032 2.04 1.848 1.008-.84 1.8-1.848z" fill="#FFF" stroke-linecap="round" fill-rule="evenodd" stroke="#03E399" stroke-width="4" paint-order="stroke"/>
</svg>
