<svg xmlns="http://www.w3.org/2000/svg" width="296" height="86" xml:space="preserve"><path fill="#AFFF81" d="M291 62.561C291 71.041 284.267 78 275.963 78H20.326C12.021 78 5 71.041 5 62.561V21.608C5 13.126 12.021 7 20.326 7h255.637C284.267 7 291 13.126 291 21.608v40.953z"/><g fill="#50C82C"><path d="m248.083 7-70.041 70.5 98.906-.332C282.167 77.5 291 73.833 291 61.561V18c0-4.667-6.667-11-12.691-11h-30.226zM228 12h7v8h-7zM221 7h7v5h-7zM207 12h8v7h-8zM180 7h7v5h-7zM187 12h7v7h-7zM194 7h7v5h-7zM118 74h7v4h-7zM138 66h8v8h-8zM146 74h6v4h-6zM152 65h7v9h-7zM166 74h7v4h-7zM173 65h7v9h-7zM28 74h7v4h-7zM42 74h7v4h-7zM69 25h10v7H69z"/><path d="M90 11V8h-3.505L87.5 7H22C10 7 5 15.333 5 22.333V66c0 4.5 9 11.413 11.745 11.413L20.175 74H28v-7h7v-3h-4.777l46.224-46H83v-6.521l.48-.479H90zM90 11h7v7h-7z"/><path d="M83 18h7v7h-7z"/></g><g fill="#7AE753"><path d="M280.273 8.239 211.334 78H281c6.167-4 9-7.502 9-12.333V19c0-4.333-6.015-10.904-9.727-10.761zM194 66h7v8h-7zM201 74h7v4h-7zM235 8h7v4h-7zM242 12h7v5h-7zM249 7h7v5h-7zM256 12h14v5h-14zM14 54h8v7h-8zM54.875 6.938 18.375 7C14 6.938 5 14.375 5 20v36.375L7.396 54H14v-6.546l.458-.454H21v-6.484l27-26.764V25h7V12h-5.232l5.107-5.062zM55 7h7v5h-7z"/><path d="M20 47h5v7h-5zM10 74h4v-7H6z"/></g><path fill="#AFFF81" d="M288.031 12.463c1.95 2.695 3.386 7.535 2.969 11.368l.083 7.667-4.208-.5-3.063-14.834 4.219-3.701z"/><path fill="#AFFF81" d="m282.167 18.832 3 13.166 5.916 2-.083 8.083-12-3.083-3-14.834z"/><path fill="#AFFF81" d="m277.167 28.832 3 13.166L291 44.831l-6.166 6.373L274 48.998l-3-14.834z"/><path fill="none" stroke="#AFFF81" stroke-width="3" stroke-miterlimit="10" d="m266.241 68.574-6.562-5.252-8.046 2.429 2.968-7.864-4.795-6.902 8.394.393 5.083-6.695 2.223 8.105 7.934 2.768-7.02 4.616z"/><g fill="#BCFF8C"><circle cx="19.5" cy="15.625" r="1.375"/><circle cx="23.5" cy="19.625" r="1.375"/><circle cx="15.5" cy="11.625" r="1.375"/><circle cx="10.5" cy="15.625" r="1.375"/><circle cx="15.5" cy="19.625" r="1.375"/><circle cx="6.5" cy="19.625" r="1.375"/><circle cx="10.5" cy="24.625" r="1.375"/><circle cx="15.5" cy="28.625" r="1.375"/><circle cx="6.5" cy="28.625" r="1.375"/><circle cx="10.5" cy="32.625" r="1.375"/></g><g fill="#FFF"><path d="M32.542 43.502c-6.802-.476-11.372-4.281-11.372-9.471 0-.965.146-1.877.396-2.724a52.841 52.841 0 0 0-2.992.484 2.5 2.5 0 0 1-2.974-2.2l-.331-3.268a2.499 2.499 0 0 1 2.431-2.751 40.375 40.375 0 0 0 2.07-.089l2.554-.195c1.872-.142 4.207-.318 6.838-.53a203.019 203.019 0 0 1 6.554-.349 2.495 2.495 0 0 1 2.5 2.482l.022 3.087c.001.192-.019.38-.059.561.369.524.721 1.052.972 1.463a2.503 2.503 0 0 1-1.139 3.597l-1.941.842a2.501 2.501 0 0 1-.609.177 2.679 2.679 0 0 1-.123.053l-1.243.495a2.5 2.5 0 0 1 2.2 3.361l-1.235 3.348a2.5 2.5 0 0 1-2.344 1.635c-.057-.002-.116-.004-.175-.008zM29.657 33.39c0 .368.225.66.577.893a25.902 25.902 0 0 0-.569-1.067 2.007 2.007 0 0 0-.008.174z"/><path d="M45.562 43.788a38.54 38.54 0 0 1-3.041-.127 2.5 2.5 0 0 1-2.177-1.71l-1.037-3.148a2.744 2.744 0 0 1-.068-.247l-.711-.161a2.5 2.5 0 0 1-1.898-2.945c.378-1.83.881-5.439 1.033-8.079a2.5 2.5 0 0 1 2.597-2.354l.566-1.949a2.501 2.501 0 0 1 3.085-1.707c1.979.563 6.622 1.267 8.49 1.462a2.502 2.502 0 0 1 2.155 3.132s-.813 3.033-.823 3.065c2.695 1.335 4.085 3.794 4.085 6.233-.001 2.567-1.195 8.535-12.256 8.535z"/><path d="M63.11 43.508a2.5 2.5 0 0 1-2.257-1.426l-1.412-2.967a2.502 2.502 0 0 1 .083-2.31 2.5 2.5 0 0 1-3.079-1.386L55.1 32.292a2.501 2.501 0 0 1 1.908-3.458 24.858 24.858 0 0 0 2.18-.478l.438-.122c1.866-.522 5.34-1.496 8.14-1.496 5.098 0 8.523 3.075 8.523 7.653 0 2.521-1.271 8.454-13.04 9.112a1.614 1.614 0 0 1-.139.005zm4.248-8.961c-.699.014-1.937.211-4.118.914 2.253-.18 3.514-.594 4.118-.914z"/><path d="M86.373 44.311c-.651 0-1.3-.253-1.788-.752a64.384 64.384 0 0 0-2.062-1.988c-1.197-1.128-4.673-3.83-6.158-4.984-1.115-.873-2.586-2.26-2.562-4.279.025-2.03 1.522-3.403 2.825-4.372.982-.723 4.276-3.165 5.877-4.554.478-.421 1.302-1.147 1.542-1.475a2.5 2.5 0 0 1 3.583-.469l3.089 2.486a2.497 2.497 0 0 1-.186 4.031 89.486 89.486 0 0 0-2.101 1.442c-.858.591-2.59 1.792-3.992 2.815l.986.73c1.867 1.379 4.19 3.095 5.667 4.37a2.5 2.5 0 0 1-.021 3.803l-3.089 2.606a2.484 2.484 0 0 1-1.61.59z"/><path d="M98.071 44.189a2.498 2.498 0 0 1-1.688-.656l-2.802-2.566a2.501 2.501 0 0 1 .786-4.175 6.14 6.14 0 0 1-.869-3.202c0-.762.135-1.484.387-2.149-.576.023-1.843.078-1.88.078a2.5 2.5 0 0 1-2.499-2.424l-.088-2.888a2.499 2.499 0 0 1 2.499-2.576l.881.003c1.655 0 3.685-.03 5.595-.061a2.513 2.513 0 0 1 2.482-2.248h3.817a2.502 2.502 0 0 1 2.479 2.173l.127-.001c.899-.006 1.767-.012 2.448-.012.369 0 .684.001.925.006a2.5 2.5 0 0 1 2.456 2.538l-.044 2.847a2.5 2.5 0 0 1-2.614 2.46c-.789-.037-1.875-.066-3.247-.087a7.66 7.66 0 0 1 .633 3.104c0 3.465-2.406 8.103-9.186 9.766-.199.047-.399.07-.598.07z"/></g><path fill="#FA6161" d="M20.008 25.971c2.052-.16 5.361-.401 9.355-.722 2.185-.161 4.766-.281 6.354-.341l.022 3.087c-1.125.02-2.979.02-4.192.241-2.361.481-4.391 2.807-4.391 5.153 0 2.927 3.022 4.069 6.795 4.271l-1.235 3.348c-4.876-.341-9.046-2.746-9.046-6.977 0-2.727 1.588-4.833 2.758-5.795-1.875.181-5.714.582-8.34 1.103l-.331-3.268c.883-.02 1.831-.06 2.251-.1zm14.408 6.376-1.963.782c-.596-1.163-.971-1.825-1.677-2.747l1.92-.722c.55.742 1.323 1.945 1.72 2.687zm2.603-1.043-1.941.842c-.64-1.143-1.059-1.764-1.787-2.667l1.897-.782c.574.722 1.39 1.885 1.831 2.607z"/><path fill="#FF9008" d="M42.938 32.106c1.897-1.103 3.95-1.604 6.046-1.604 4.104 0 6.333 2.326 6.333 4.752 0 3.689-2.979 6.677-12.599 5.915l-1.037-3.148c6.376.862 9.907-.4 9.907-2.827 0-1.122-1.191-1.965-2.935-1.965-2.229 0-4.369.762-5.648 2.166-.441.48-.684.802-.905 1.243l-3.022-.682c.419-2.025.926-5.755 1.081-8.441l3.552.441c-.287.982-.662 3.087-.773 4.15zm.288-8.341c2.184.622 6.994 1.343 8.914 1.544l-.794 2.967c-2.295-.281-7.237-1.223-8.958-1.624l.838-2.887z"/><path fill="#F7D000" d="M59.867 30.763c1.456-.401 5.207-1.524 7.899-1.524 3.663 0 6.023 1.965 6.023 5.153 0 3.448-3.155 6.195-10.679 6.616l-1.412-2.967c5.119-.12 8.561-1.304 8.561-3.709 0-1.364-1.103-2.286-2.824-2.286-2.449 0-6.553 1.544-8.693 2.386l-1.346-3.127c.64-.101 1.831-.362 2.471-.542z"/><path fill="#45D620" d="M89.152 25.871a92.432 92.432 0 0 0-2.162 1.483c-1.368.942-4.104 2.847-5.472 3.93-1.082.842-1.037 1.022.022 1.864 1.434 1.143 5.736 4.171 7.921 6.056l-3.089 2.606a67.158 67.158 0 0 0-2.14-2.065c-1.214-1.143-4.347-3.589-6.333-5.133-2.229-1.744-2.096-2.947.221-4.672 1.743-1.283 4.545-3.388 6.023-4.671.728-.642 1.522-1.343 1.919-1.885l3.09 2.487z"/><path fill="#54B8FD" d="M110.582 28.838c-1.302-.06-3.354-.1-6.112-.12.022.942.022 1.945.022 2.767.574.802.861 1.784.861 2.867 0 2.547-1.81 5.995-7.281 7.338l-2.802-2.566c1.897-.341 3.729-.821 5.008-1.744-.132.021-.265.021-.397.021-1.611 0-3.883-1.243-3.883-3.81 0-2.406 2.118-3.87 4.656-3.87.198 0 .375 0 .551.02l-.022-1.002c-3.288.04-6.509.16-9.179.281l-.088-2.888c2.538.021 6.399-.06 9.223-.1l-.022-.22c-.066-.762-.155-1.604-.243-1.985h3.817c-.066.381-.154 1.604-.177 1.965v.221c2.03 0 4.965-.04 6.112-.02l-.044 2.845zm-10.018 5.915c.706 0 1.434-.462 1.191-1.985-.265-.341-.706-.521-1.191-.521-.662 0-1.39.381-1.39 1.283 0 .721.706 1.223 1.39 1.223z"/><g fill="#FFF"><path d="M33.222 63.355a2.5 2.5 0 0 1-2.162-1.245l-.332-.572a2.501 2.501 0 0 1-2.406 1.817h-3.933a2.5 2.5 0 0 1-2.5-2.5V46.131a2.5 2.5 0 0 1 2.5-2.5h5.999c8.027 0 8.894 4.987 8.894 7.132 0 1.973-.682 3.681-1.93 4.95l2.385 3.818a2.499 2.499 0 0 1-2.121 3.824h-4.394z"/><path d="M48.365 63.355a2.5 2.5 0 0 1-2.408-1.828l-.435-1.556h-1.039l-.435 1.556a2.499 2.499 0 0 1-2.408 1.828h-3.999a2.502 2.502 0 0 1-2.364-3.315l5.076-14.725a2.498 2.498 0 0 1 2.363-1.686h4.702c1.067 0 2.016.677 2.363 1.686l5.076 14.725a2.5 2.5 0 0 1-2.364 3.315h-4.128z"/><path d="M55.488 63.355a2.5 2.5 0 0 1-2.5-2.5V51.56h-1.917a2.5 2.5 0 0 1-2.5-2.5v-2.93a2.5 2.5 0 0 1 2.5-2.5h12.788a2.5 2.5 0 0 1 2.5 2.5v2.93a2.5 2.5 0 0 1-2.5 2.5h-1.938v9.295a2.5 2.5 0 0 1-2.5 2.5h-3.933z"/><path d="M66.391 63.355a2.5 2.5 0 0 1-2.5-2.5V46.131a2.5 2.5 0 0 1 2.5-2.5h3.933a2.5 2.5 0 0 1 2.5 2.5v14.725a2.5 2.5 0 0 1-2.5 2.5h-3.933z"/><path d="M83.07 63.355a2.498 2.498 0 0 1-2.173-1.264l-.587-1.031a2.5 2.5 0 0 1-2.492 2.295h-3.735a2.5 2.5 0 0 1-2.5-2.5V46.131a2.5 2.5 0 0 1 2.5-2.5h3.999a2.5 2.5 0 0 1 2.166 1.251l.595 1.031a2.5 2.5 0 0 1 2.491-2.282h3.735a2.5 2.5 0 0 1 2.5 2.5v14.725a2.5 2.5 0 0 1-2.5 2.5H83.07z"/><path d="M98.236 63.633c-6.345 0-10.608-4.043-10.608-10.061 0-5.921 4.434-10.218 10.542-10.218 3.354 0 5.604 1.393 6.902 2.561a2.504 2.504 0 0 1 .163 3.556l-.608.657a2.5 2.5 0 0 1 1.558 2.316v6.888c0 .726-.315 1.415-.864 1.89-1.743 1.509-4.392 2.411-7.085 2.411z"/></g><g fill="#3336B9"><path d="m33.222 60.855-3.01-5.186h-1.89v5.186h-3.933V46.131h5.999c3.494 0 6.394 1.069 6.394 4.632 0 2.156-1.121 3.542-2.813 4.255l3.647 5.838h-4.394zm-4.9-7.975h1.758c1.868 0 2.856-.732 2.856-2.117 0-1.386-.989-1.841-2.856-1.841h-1.758v3.958zM47.42 57.472h-4.834l-.945 3.384h-3.999l5.076-14.725h4.702l5.076 14.725h-4.131l-.945-3.384zm-.747-2.732-.352-1.247c-.439-1.464-.857-3.226-1.296-4.729h-.088c-.396 1.543-.835 3.266-1.252 4.729l-.352 1.247h3.34zM55.488 49.061h-4.417v-2.93h12.788v2.93h-4.438v11.795h-3.933V49.061zM66.391 46.131h3.933v14.725h-3.933V46.131zM74.083 46.131h3.999l4.065 7.046 1.604 3.266h.11c-.22-1.563-.527-3.682-.527-5.442v-4.869h3.735v14.725H83.07l-4.043-7.104-1.604-3.227h-.11c.176 1.643.505 3.661.505 5.442v4.889h-3.735V46.131zM90.128 53.572c0-4.908 3.669-7.718 8.042-7.718 2.395 0 4.109.91 5.229 1.919l-2.087 2.257c-.791-.653-1.648-1.148-3.01-1.148-2.417 0-4.153 1.702-4.153 4.572 0 2.929 1.45 4.631 4.482 4.631.593 0 1.208-.139 1.56-.376v-2.375h-2.593v-2.89h6.086v6.888c-1.143.989-3.164 1.801-5.449 1.801-4.547 0-8.107-2.573-8.107-7.561z"/></g><linearGradient id="a" gradientUnits="userSpaceOnUse" x1="202" y1="17" x2="202" y2="68.001"><stop offset=".688" style="stop-color:#433d3d"/><stop offset=".7" style="stop-color:#484242"/><stop offset=".748" style="stop-color:#534d4d"/><stop offset=".815" style="stop-color:#5a5454"/><stop offset="1" style="stop-color:#5c5656"/></linearGradient><path fill="url(#a)" d="M282 55c0 7.18-5.82 13-13 13H135c-7.18 0-13-5.82-13-13V30c0-7.18 5.82-13 13-13h134c7.18 0 13 5.82 13 13v25z"/><linearGradient id="b" gradientUnits="userSpaceOnUse" x1="171.5" y1="23" x2="171.5" y2="66.001"><stop offset=".688" style="stop-color:#585757"/><stop offset=".72" style="stop-color:#666"/><stop offset=".764" style="stop-color:#727171"/><stop offset=".827" style="stop-color:#787878"/><stop offset="1" style="stop-color:#7a7a7a"/></linearGradient><path fill="url(#b)" d="M157 23h29v43h-29z"/><linearGradient id="c" gradientUnits="userSpaceOnUse" x1="202.5" y1="23" x2="202.5" y2="66.001"><stop offset=".688" style="stop-color:#585757"/><stop offset=".72" style="stop-color:#666"/><stop offset=".764" style="stop-color:#727171"/><stop offset=".827" style="stop-color:#787878"/><stop offset="1" style="stop-color:#7a7a7a"/></linearGradient><path fill="url(#c)" d="M188 23h29v43h-29z"/><linearGradient id="d" gradientUnits="userSpaceOnUse" x1="233.5" y1="23" x2="233.5" y2="66.001"><stop offset=".688" style="stop-color:#585757"/><stop offset=".72" style="stop-color:#666"/><stop offset=".764" style="stop-color:#727171"/><stop offset=".827" style="stop-color:#787878"/><stop offset="1" style="stop-color:#7a7a7a"/></linearGradient><path fill="url(#d)" d="M219 23h29v43h-29z"/><linearGradient id="e" gradientUnits="userSpaceOnUse" x1="264" y1="23" x2="264" y2="66.001"><stop offset=".688" style="stop-color:#585757"/><stop offset=".72" style="stop-color:#666"/><stop offset=".764" style="stop-color:#727171"/><stop offset=".827" style="stop-color:#787878"/><stop offset="1" style="stop-color:#7a7a7a"/></linearGradient><path fill="url(#e)" d="M267.916 66C275.096 66 278 63.18 278 56V33c0-7.18-2.82-10-10-10h-18v43h17.916z"/><linearGradient id="f" gradientUnits="userSpaceOnUse" x1="141" y1="23" x2="141" y2="66.001"><stop offset=".688" style="stop-color:#585757"/><stop offset=".72" style="stop-color:#666"/><stop offset=".764" style="stop-color:#727171"/><stop offset=".827" style="stop-color:#787878"/><stop offset="1" style="stop-color:#7a7a7a"/></linearGradient><path fill="url(#f)" d="M137.084 66C129.904 66 127 63.18 127 56V33c0-7.18 2.82-10 10-10h18v43h-17.916z"/><path fill="none" stroke="#3B931D" stroke-width="2" stroke-miterlimit="10" d="M291 62.561C291 71.041 284.267 78 275.963 78H20.326C12.021 78 5 71.041 5 62.561V21.608C5 13.126 12.021 7 20.326 7h255.637C284.267 7 291 13.126 291 21.608v40.953z"/></svg>