<svg xmlns="http://www.w3.org/2000/svg" viewBox="0 0 144 36" width="144" height="36">
  <defs>
    <pattern id="gaugePattern" x="0" y="6" width="76" height="20" patternUnits="userSpaceOnUse">
      <rect x="0" y="0" width="76" height="10" fill='#333333' />
      <rect x="0" y="10" width="76" height="10" fill='#565656' />
      <line x1="0" y1="9" x2="76" y2="9" stroke="#4C4C4C" stroke-width="1" stroke-dasharray="3" />
      <line x1="0" y1="10" x2="76" y2="10" stroke="#5A5A5A" stroke-width="1" stroke-dasharray="3" />
    </pattern>
    <filter id="outerShadow" height="120%">
      <feDropShadow dx="0" dy="2" flood-color="#a3aebe" flood-opacity="1" stdDeviation="0" />       
    </filter>
    <filter id="textShadow" height="150%">
      <feDropShadow dx="0" dy="1" flood-color="#C3D2D7" flood-opacity="1" stdDeviation="0" />       
    </filter>
  </defs>
  <rect x="1" y="1" width="140" height="30" stroke-width="1" stroke="#b9c1ce" fill="#FFFFFF" rx="3" filter="url(#outerShadow)" />
  <rect x="61" y="6" width="76" height="20" stroke-width="1" stroke="#000000" fill="url(#gaugePattern)" rx="3" />
  <line x1="75" y1="6" x2="75" y2="26" stroke="#333333" stroke-width="1" />
  <line x1="91" y1="6" x2="91" y2="26" stroke="#333333" stroke-width="1" />
  <line x1="107" y1="6" x2="107" y2="26" stroke="#333333" stroke-width="1" />
  <line x1="123" y1="6" x2="123" y2="26" stroke="#333333" stroke-width="1" />
  <g stroke="white" stroke-width="3" paint-order="stroke" transform="translate(7,6)" id="svgGroup" stroke-linecap="round" fill-rule="evenodd" filter="url(#textShadow)">
    <path fill="#ff3636" d="M 3.42 2.61 L 3.42 2.59 Q 1.68 2.65 0 2.65 L 0 0.95 Q 4.09 0.95 8.35 0.75 L 8.4 2.45 A 11.607 11.607 0 0 0 7.189 2.575 Q 5.95 2.775 5.183 3.243 A 3.303 3.303 0 0 0 5.085 3.305 A 2.897 2.897 0 0 0 4.473 3.833 A 2.037 2.037 0 0 0 3.97 5.2 A 2.295 2.295 0 0 0 4.048 5.816 A 1.671 1.671 0 0 0 4.55 6.63 A 1.987 1.987 0 0 0 5.492 7.094 A 2.842 2.842 0 0 0 6.07 7.15 A 4.24 4.24 0 0 0 6.384 7.137 Q 6.746 7.11 7.228 7.026 A 13.522 13.522 0 0 0 7.26 7.02 L 7.47 8.75 Q 6.72 8.9 5.97 8.9 A 5.826 5.826 0 0 1 4.742 8.778 Q 3.922 8.601 3.301 8.168 A 3.526 3.526 0 0 1 3.025 7.955 A 3.099 3.099 0 0 1 1.937 5.792 A 4.352 4.352 0 0 1 1.92 5.4 A 2.98 2.98 0 0 1 2.128 4.322 A 3.775 3.775 0 0 1 2.325 3.895 Q 2.73 3.14 3.42 2.61 Z M 9.27 4.75 L 8.22 5.25 Q 7.77 4.38 7.35 3.63 L 8.4 3.1 Q 8.76 3.75 9.27 4.75 Z M 7.65 5.07 L 6.62 5.56 Q 6.23 4.77 5.77 3.97 L 6.8 3.45 Q 7.26 4.3 7.65 5.07 Z" />
    <path fill="#ff8d25" transform="translate(-1, 0)" d="M 12.67 4.25 L 12.68 4.25 A 7.182 7.182 0 0 1 13.675 3.749 Q 14.242 3.52 14.773 3.441 A 3.731 3.731 0 0 1 15.32 3.4 A 6.531 6.531 0 0 1 16.129 3.447 Q 16.989 3.554 17.49 3.912 A 1.764 1.764 0 0 1 17.61 4.005 A 1.88 1.88 0 0 1 18.174 4.871 Q 18.277 5.183 18.307 5.565 A 4.212 4.212 0 0 1 18.32 5.9 A 2.501 2.501 0 0 1 18.06 7.05 Q 17.81 7.542 17.32 7.916 A 3.318 3.318 0 0 1 17.175 8.02 Q 16.03 8.8 13.92 8.8 Q 12.65 8.8 11.37 8.65 L 11.52 7.05 Q 12.84 7.2 13.92 7.2 Q 14.97 7.2 15.57 6.835 A 1.58 1.58 0 0 0 15.873 6.6 A 0.964 0.964 0 0 0 16.17 5.9 A 0.99 0.99 0 0 0 16.094 5.496 Q 15.874 5 15.02 5 A 2.44 2.44 0 0 0 14.464 5.074 Q 13.884 5.212 13.07 5.605 A 16.328 16.328 0 0 0 12.22 6.05 L 10.52 5.7 Q 10.8 4.07 11.02 2.6 L 12.87 2.75 Q 12.81 3.27 12.67 4.25 Z M 11.87 2.1 L 12.07 0.5 Q 14.6 0.8 17.12 0.8 L 17.12 2.4 Q 14.44 2.4 11.87 2.1 Z" />
    <path fill="#ecbf0a" transform="translate(-2, 0)" d="M 21.25 4.66 L 20.93 3.12 Q 23.46 2.56 24.69 2.56 Q 27.81 2.56 27.81 5.16 A 3.491 3.491 0 0 1 27.658 6.221 A 2.669 2.669 0 0 1 26.52 7.685 Q 25.356 8.439 22.978 8.512 A 17.102 17.102 0 0 1 22.45 8.52 L 22.33 6.98 Q 23.907 6.98 24.775 6.72 A 2.708 2.708 0 0 0 25.215 6.55 A 1.806 1.806 0 0 0 25.666 6.237 Q 26.07 5.845 26.07 5.24 A 1.47 1.47 0 0 0 26.038 4.924 Q 25.995 4.727 25.892 4.582 A 0.789 0.789 0 0 0 25.71 4.4 A 1.085 1.085 0 0 0 25.424 4.257 Q 25.081 4.14 24.53 4.14 Q 23.603 4.14 21.407 4.625 A 52.194 52.194 0 0 0 21.25 4.66 Z" />
    <path fill="#51c816" transform="translate(-3, 0)" d="M 35.97 0 L 37.07 1.5 Q 35.52 2.58 33.83 3.62 Q 33.23 3.99 33.05 4.135 A 0.896 0.896 0 0 0 32.976 4.202 Q 32.901 4.277 32.879 4.345 A 0.18 0.18 0 0 0 32.87 4.4 A 0.221 0.221 0 0 0 32.892 4.493 Q 32.929 4.574 33.03 4.665 Q 33.19 4.81 33.77 5.19 Q 35.63 6.44 37.37 7.8 L 36.17 9.2 A 78.529 78.529 0 0 0 34.995 8.327 Q 33.944 7.56 32.65 6.66 A 47.074 47.074 0 0 1 32.198 6.343 Q 31.578 5.901 31.3 5.665 A 3.466 3.466 0 0 1 31.097 5.479 Q 30.909 5.29 30.817 5.126 A 0.925 0.925 0 0 1 30.8 5.095 A 1.027 1.027 0 0 1 30.721 4.878 Q 30.693 4.767 30.68 4.634 A 2.484 2.484 0 0 1 30.67 4.4 A 2.207 2.207 0 0 1 30.701 4.019 Q 30.737 3.815 30.815 3.653 A 1.02 1.02 0 0 1 30.985 3.4 Q 31.245 3.12 32.194 2.499 A 34.129 34.129 0 0 1 32.63 2.22 Q 34.473 1.039 35.691 0.195 A 50.871 50.871 0 0 0 35.97 0 Z" />
    <path fill="#6791ef" transform="translate(-4, 0)" d="M 44.63 6.51 L 44.61 6.49 A 3.012 3.012 0 0 1 43.971 6.668 A 2.563 2.563 0 0 1 43.57 6.7 A 2.845 2.845 0 0 1 42.864 6.617 A 2.059 2.059 0 0 1 41.98 6.15 A 1.816 1.816 0 0 1 41.377 4.893 A 2.496 2.496 0 0 1 41.37 4.7 A 2.16 2.16 0 0 1 41.468 4.033 A 1.749 1.749 0 0 1 41.99 3.245 A 2.092 2.092 0 0 1 42.854 2.797 Q 43.223 2.7 43.67 2.7 Q 43.873 2.7 44.14 2.758 A 4.006 4.006 0 0 1 44.35 2.81 L 44.37 2.8 L 44.37 2.4 L 39.97 2.4 L 39.97 0.9 L 44.37 0.9 L 44.37 0 L 46.17 0 L 46.17 0.9 L 48.77 0.9 L 48.77 2.4 L 46.17 2.4 L 46.17 4.2 A 2.81 2.81 0 0 1 46.518 5.498 A 3.328 3.328 0 0 1 46.52 5.6 Q 46.52 7.16 45.57 7.935 Q 44.62 8.71 42.37 8.9 L 42.07 7.3 A 33.555 33.555 0 0 0 42.661 7.247 Q 43.632 7.149 43.995 7.04 Q 44.46 6.9 44.6 6.58 A 0.053 0.053 0 0 0 44.606 6.573 Q 44.613 6.562 44.62 6.545 Q 44.63 6.52 44.63 6.51 Z M 43.315 4.27 A 0.543 0.543 0 0 0 43.121 4.664 A 0.669 0.669 0 0 0 43.12 4.7 A 0.564 0.564 0 0 0 43.175 4.951 A 0.568 0.568 0 0 0 43.315 5.13 A 0.676 0.676 0 0 0 43.637 5.283 A 0.958 0.958 0 0 0 43.82 5.3 A 0.923 0.923 0 0 0 44.045 5.274 A 0.666 0.666 0 0 0 44.325 5.13 A 0.543 0.543 0 0 0 44.519 4.736 A 0.669 0.669 0 0 0 44.52 4.7 A 0.564 0.564 0 0 0 44.465 4.449 A 0.568 0.568 0 0 0 44.325 4.27 A 0.676 0.676 0 0 0 44.003 4.117 A 0.958 0.958 0 0 0 43.82 4.1 A 0.923 0.923 0 0 0 43.595 4.126 A 0.666 0.666 0 0 0 43.315 4.27 Z"/>
  </g>
  <g stroke="white" stroke-width="3" paint-order="stroke" transform="translate(8, 17), scale(1.25, 1.1)" stroke-linecap="round" fill-rule="evenodd" fill="#3355AA" filter="url(#textShadow)">
    <path d="M 31.095 3.96 L 31.095 2.61 L 34.155 2.61 L 34.155 6.3 Q 32.976 6.75 31.635 6.75 A 4.799 4.799 0 0 1 30.538 6.632 A 3.273 3.273 0 0 1 29.011 5.832 A 3.048 3.048 0 0 1 28.076 3.978 A 4.309 4.309 0 0 1 28.035 3.375 A 4.205 4.205 0 0 1 28.158 2.33 A 2.926 2.926 0 0 1 28.984 0.9 Q 29.934 0 31.635 0 A 4.685 4.685 0 0 1 32.685 0.112 A 3.471 3.471 0 0 1 33.885 0.63 L 33.39 1.917 A 3.638 3.638 0 0 0 32.719 1.588 A 2.64 2.64 0 0 0 31.815 1.422 A 2.69 2.69 0 0 0 31.233 1.481 Q 30.847 1.567 30.562 1.775 A 1.583 1.583 0 0 0 30.375 1.935 Q 29.887 2.423 29.863 3.286 A 3.242 3.242 0 0 0 29.862 3.375 A 2.561 2.561 0 0 0 29.925 3.959 A 1.701 1.701 0 0 0 30.393 4.811 A 1.781 1.781 0 0 0 31.312 5.281 A 2.579 2.579 0 0 0 31.815 5.328 Q 32.166 5.328 32.445 5.238 L 32.445 3.96 L 31.095 3.96 Z M 23.391 0.09 L 25.353 3.69 L 25.371 3.69 L 25.371 0.09 L 27.126 0.09 L 27.126 6.66 L 25.371 6.66 L 23.409 3.06 L 23.391 3.06 L 23.391 6.66 L 21.636 6.66 L 21.636 0.09 L 23.391 0.09 Z M 2.16 4.365 L 1.755 4.365 L 1.755 6.66 L 0 6.66 L 0 0.135 Q 1.17 0 2.34 0 Q 5.04 0 5.04 2.025 A 1.757 1.757 0 0 1 4.705 3.055 A 2.148 2.148 0 0 1 4.689 3.078 Q 4.338 3.564 3.78 3.771 L 3.78 3.789 Q 4.05 3.942 4.23 4.181 Q 4.351 4.341 4.464 4.593 A 4.175 4.175 0 0 1 4.572 4.86 L 5.22 6.66 L 3.375 6.66 L 2.817 4.95 A 1.659 1.659 0 0 0 2.752 4.775 Q 2.671 4.594 2.565 4.5 A 0.524 0.524 0 0 0 2.329 4.383 A 0.768 0.768 0 0 0 2.16 4.365 Z M 11.673 0.09 L 17.073 0.09 L 17.073 1.575 L 15.291 1.575 L 15.291 6.66 L 13.455 6.66 L 13.455 1.575 L 11.673 1.575 L 11.673 0.09 Z M 9.81 5.4 L 7.983 5.4 L 7.686 6.66 L 5.814 6.66 L 7.974 0.09 L 9.864 0.09 L 12.024 6.66 L 10.116 6.66 L 9.81 5.4 Z M 20.232 6.66 L 18.252 6.66 L 18.252 0.09 L 20.232 0.09 L 20.232 6.66 Z M 8.892 1.62 L 8.307 4.05 L 9.495 4.05 L 8.91 1.62 L 8.892 1.62 Z M 1.755 1.395 L 1.755 .06 L 2.25 3.06 Q 2.709 3.06 2.975 2.831 A 0.753 0.753 0 0 0 3.233 2.331 A 1.069 1.069 0 0 0 3.24 2.205 Q 3.24 1.392 2.345 1.352 A 2.129 2.129 0 0 0 2.25 1.35 A 3.093 3.093 0 0 0 2.029 1.358 Q 1.925 1.365 1.835 1.38 A 1.607 1.607 0 0 0 1.755 1.395 Z"/>
  </g>
</svg>