<svg xmlns="http://www.w3.org/2000/svg" width="144" height="36">
    <defs>
        <filter id="a" height="120%">
            <feDropShadow dx="0" dy="2" flood-color="#a3aebe" flood-opacity="1" stdDeviation="0"/>
        </filter>
        <filter id="c" height="150%">
            <feDropShadow dx="0" dy="1" flood-color="#C3D2D7" flood-opacity="1" stdDeviation="0"/>
        </filter>
        <pattern id="b" x="0" y="6" width="76" height="20" patternUnits="userSpaceOnUse">
            <rect x="0" y="0" width="76" height="10" fill="#333"/>
            <rect x="0" y="10" width="76" height="10" fill="#565656"/>
            <line x1="0" y1="9" x2="76" y2="9" stroke="#4C4C4C" stroke-width="1" stroke-dasharray="3"/>
            <line x1="0" y1="10" x2="76" y2="10" stroke="#5A5A5A" stroke-width="1" stroke-dasharray="3"/>
        </pattern>
    </defs>
    <rect x="1" y="1" width="140" height="30" stroke-width="1" stroke="#b9c1ce" fill="#FFF" rx="3" filter="url(#a)"/>
    <rect x="61" y="6" width="76" height="20" stroke-width="1" stroke="#000" fill="url(#b)" rx="3"/>
    <line x1="75" y1="6" x2="75" y2="26" stroke="#333" stroke-width="1"/>
    <line x1="91" y1="6" x2="91" y2="26" stroke="#333" stroke-width="1"/>
    <line x1="107" y1="6" x2="107" y2="26" stroke="#333" stroke-width="1"/>
    <line x1="123" y1="6" x2="123" y2="26" stroke="#333" stroke-width="1"/>
    <g stroke="#fff" stroke-width="3" paint-order="stroke" transform="translate(7 6)" stroke-linecap="round" fill-rule="evenodd" filter="url(#c)">
        <path fill="#ff3636" d="M3.42 2.61v-.02q-1.74.06-3.42.06V.95q4.09 0 8.35-.2l.05 1.7a11.607 11.607 0 00-1.211.125q-1.239.2-2.006.668a3.303 3.303 0 00-.098.062 2.897 2.897 0 00-.612.528A2.037 2.037 0 003.97 5.2a2.295 2.295 0 00.078.616 1.671 1.671 0 00.502.814 1.987 1.987 0 00.942.464 2.842 2.842 0 00.578.056 4.24 4.24 0 00.314-.013q.362-.027.844-.111a13.522 13.522 0 00.032-.006l.21 1.73q-.75.15-1.5.15a5.826 5.826 0 01-1.228-.122q-.82-.177-1.441-.61a3.526 3.526 0 01-.276-.213 3.099 3.099 0 01-1.088-2.163A4.352 4.352 0 011.92 5.4a2.98 2.98 0 01.208-1.078 3.775 3.775 0 01.197-.427Q2.73 3.14 3.42 2.61zm5.85 2.14l-1.05.5q-.45-.87-.87-1.62L8.4 3.1q.36.65.87 1.65zm-1.62.32l-1.03.49q-.39-.79-.85-1.59l1.03-.52q.46.85.85 1.62z"/>
        <path fill="#ff8d25" d="M11.67 4.25h.01a7.182 7.182 0 01.995-.501q.567-.229 1.098-.308a3.731 3.731 0 01.547-.041 6.531 6.531 0 01.809.047q.86.107 1.361.465a1.764 1.764 0 01.12.093 1.88 1.88 0 01.564.866q.103.312.133.694a4.212 4.212 0 01.013.335 2.501 2.501 0 01-.26 1.15q-.25.492-.74.866a3.318 3.318 0 01-.145.104q-1.145.78-3.255.78-1.27 0-2.55-.15l.15-1.6q1.32.15 2.4.15 1.05 0 1.65-.365a1.58 1.58 0 00.303-.235.964.964 0 00.297-.7.99.99 0 00-.076-.404Q14.874 5 14.02 5a2.44 2.44 0 00-.556.074q-.58.138-1.394.531a16.328 16.328 0 00-.85.445l-1.7-.35q.28-1.63.5-3.1l1.85.15q-.06.52-.2 1.5zm-.8-2.15l.2-1.6q2.53.3 5.05.3v1.6q-2.68 0-5.25-.3z"/>
        <path fill="#ecbf0a" d="M19.25 4.66l-.32-1.54q2.53-.56 3.76-.56 3.12 0 3.12 2.6a3.491 3.491 0 01-.152 1.061 2.669 2.669 0 01-1.138 1.464q-1.164.754-3.542.827a17.102 17.102 0 01-.528.008l-.12-1.54q1.577 0 2.445-.26a2.708 2.708 0 00.44-.17 1.806 1.806 0 00.451-.313q.404-.392.404-.997a1.47 1.47 0 00-.032-.316q-.043-.197-.146-.342a.789.789 0 00-.182-.182 1.085 1.085 0 00-.286-.143q-.343-.117-.894-.117-.927 0-3.123.485a52.194 52.194 0 00-.157.035z"/>
        <path fill="#51c816" d="M32.97 0l1.1 1.5q-1.55 1.08-3.24 2.12-.6.37-.78.515a.896.896 0 00-.074.067q-.075.075-.097.143a.18.18 0 00-.009.055.221.221 0 00.022.093q.037.081.138.172.16.145.74.525 1.86 1.25 3.6 2.61l-1.2 1.4a78.529 78.529 0 00-1.175-.873Q30.944 7.56 29.65 6.66a47.074 47.074 0 01-.452-.317q-.62-.442-.898-.678a3.466 3.466 0 01-.203-.186q-.188-.189-.28-.353a.925.925 0 01-.017-.031 1.027 1.027 0 01-.079-.217q-.028-.111-.041-.244a2.484 2.484 0 01-.01-.234 2.207 2.207 0 01.031-.381q.036-.204.114-.366a1.02 1.02 0 01.17-.253q.26-.28 1.209-.901a34.129 34.129 0 01.436-.279q1.843-1.181 3.061-2.025A50.871 50.871 0 0032.97 0z"/>
        <path fill="#6791ef" d="M40.63 6.51l-.02-.02a3.012 3.012 0 01-.639.178 2.563 2.563 0 01-.401.032 2.845 2.845 0 01-.706-.083 2.059 2.059 0 01-.884-.467 1.816 1.816 0 01-.603-1.257 2.496 2.496 0 01-.007-.193 2.16 2.16 0 01.098-.667 1.749 1.749 0 01.522-.788 2.092 2.092 0 01.864-.448q.369-.097.816-.097.203 0 .47.058a4.006 4.006 0 01.21.052l.02-.01v-.4h-4.4V.9h4.4V0h1.8v.9h2.6v1.5h-2.6v1.8a2.81 2.81 0 01.348 1.298 3.328 3.328 0 01.002.102q0 1.56-.95 2.335-.95.775-3.2.965l-.3-1.6a33.555 33.555 0 00.591-.053q.971-.098 1.334-.207.465-.14.605-.46a.053.053 0 00.006-.007q.007-.011.014-.028.01-.025.01-.035zm-1.315-2.24a.543.543 0 00-.194.394.669.669 0 00-.001.036.564.564 0 00.055.251.568.568 0 00.14.179.676.676 0 00.322.153.958.958 0 00.183.017.923.923 0 00.225-.026.666.666 0 00.28-.144.543.543 0 00.194-.394.669.669 0 00.001-.036.564.564 0 00-.055-.251.568.568 0 00-.14-.179.676.676 0 00-.322-.153.958.958 0 00-.183-.017.923.923 0 00-.225.026.666.666 0 00-.28.144z"/>
    </g>
    <g stroke="#fff" stroke-width="3" paint-order="stroke" transform="matrix(1.25 0 0 1.1 8 17)" stroke-linecap="round" fill-rule="evenodd" fill="#35A" filter="url(#c)">
        <path d="M31.095 3.96V2.61h3.06V6.3q-1.179.45-2.52.45a4.799 4.799 0 01-1.097-.118 3.273 3.273 0 01-1.527-.8 3.048 3.048 0 01-.935-1.854 4.309 4.309 0 01-.041-.603 4.205 4.205 0 01.123-1.045A2.926 2.926 0 0128.984.9q.95-.9 2.651-.9a4.685 4.685 0 011.05.112 3.471 3.471 0 011.2.518l-.495 1.287a3.638 3.638 0 00-.671-.329 2.64 2.64 0 00-.904-.166 2.69 2.69 0 00-.582.059q-.386.086-.671.294a1.583 1.583 0 00-.187.16q-.488.488-.512 1.351a3.242 3.242 0 00-.001.089 2.561 2.561 0 00.063.584 1.701 1.701 0 00.468.852 1.781 1.781 0 00.919.47 2.579 2.579 0 00.503.047q.351 0 .63-.09V3.96h-1.35zM23.391.09l1.962 3.6h.018V.09h1.755v6.57h-1.755l-1.962-3.6h-.018v3.6h-1.755V.09h1.755zM2.16 4.365h-.405V6.66H0V.135Q1.17 0 2.34 0q2.7 0 2.7 2.025a1.757 1.757 0 01-.335 1.03 2.148 2.148 0 01-.016.023q-.351.486-.909.693v.018q.27.153.45.392.121.16.234.412a4.175 4.175 0 01.108.267l.648 1.8H3.375l-.558-1.71a1.659 1.659 0 00-.065-.175q-.081-.181-.187-.275a.524.524 0 00-.236-.117.768.768 0 00-.169-.018zM11.673.09h5.4v1.485h-1.782V6.66h-1.836V1.575h-1.782V.09zM9.81 5.4H7.983l-.297 1.26H5.814L7.974.09h1.89l2.16 6.57h-1.908L9.81 5.4zm10.422 1.26h-1.98V.09h1.98v6.57zM8.892 1.62l-.585 2.43h1.188L8.91 1.62h-.018zm-7.137-.225V.06l.495 3q.459 0 .725-.229a.753.753 0 00.258-.5 1.069 1.069 0 00.007-.126q0-.813-.895-.853a2.129 2.129 0 00-.095-.002 3.093 3.093 0 00-.221.008q-.104.007-.194.022a1.607 1.607 0 00-.08.015z"/>
    </g>
</svg>
