<svg xmlns="http://www.w3.org/2000/svg" width="144" height="36">
  <defs>
    <pattern id="a" x="0" y="6" width="76" height="20" patternUnits="userSpaceOnUse">
      <path fill="#333" d="M0 0h76v10H0z"/>
      <path fill="#565656" d="M0 10h76v10H0z"/>
      <path stroke="#4C4C4C" stroke-dasharray="3" d="M0 9h76"/>
      <path stroke="#5A5A5A" stroke-dasharray="3" d="M0 10h76"/>
    </pattern>
  </defs>
  <rect x="1" y="1" width="140" height="32" stroke="#A40808" fill="#A40808" rx="3"/>
  <rect x="1" y="1" width="140" height="30" stroke="#9A0202" fill="#FF3C3C" rx="3"/>
  <rect x="61" y="6" width="76" height="20" stroke="#000" fill="url(#a)" rx="3"/>
  <path stroke="#333" d="M75 6v20M91 6v20M107 6v20M123 6v20"/>
  <g stroke="#fff" stroke-width="3" paint-order="stroke" stroke-linecap="round" fill-rule="evenodd">
    <path fill="#ff3636" d="M10.42 8.61v-.02q-1.74.06-3.42.06v-1.7q4.09 0 8.35-.2l.05 1.7a11.607 11.607 0 0 0-1.211.125q-1.239.2-2.006.668a3.303 3.303 0 0 0-.098.062 2.897 2.897 0 0 0-.612.528 2.037 2.037 0 0 0-.503 1.367 2.295 2.295 0 0 0 .078.616 1.671 1.671 0 0 0 .502.814 1.987 1.987 0 0 0 .942.464 2.842 2.842 0 0 0 .578.056 4.24 4.24 0 0 0 .314-.013q.362-.027.844-.111a13.522 13.522 0 0 0 .032-.006l.21 1.73q-.75.15-1.5.15a5.826 5.826 0 0 1-1.228-.122q-.82-.177-1.441-.61a3.526 3.526 0 0 1-.276-.213 3.099 3.099 0 0 1-1.088-2.163 4.352 4.352 0 0 1-.017-.392 2.98 2.98 0 0 1 .208-1.078 3.775 3.775 0 0 1 .197-.427Q9.73 9.14 10.42 8.61zm5.85 2.14-1.05.5q-.45-.87-.87-1.62l1.05-.53q.36.65.87 1.65zm-1.62.32-1.03.49q-.39-.79-.85-1.59l1.03-.52q.46.85.85 1.62z"/>
    <path fill="#ff8d25" d="M18.67 10.25h.01a7.182 7.182 0 0 1 .995-.501q.567-.229 1.098-.308a3.731 3.731 0 0 1 .547-.041 6.531 6.531 0 0 1 .809.047q.86.107 1.361.465a1.764 1.764 0 0 1 .12.093 1.88 1.88 0 0 1 .564.866q.103.312.133.694a4.212 4.212 0 0 1 .013.335 2.501 2.501 0 0 1-.26 1.15q-.25.492-.74.866a3.318 3.318 0 0 1-.145.104q-1.145.78-3.255.78-1.27 0-2.55-.15l.15-1.6q1.32.15 2.4.15 1.05 0 1.65-.365a1.58 1.58 0 0 0 .303-.235.964.964 0 0 0 .297-.7.99.99 0 0 0-.076-.404Q21.874 11 21.02 11a2.44 2.44 0 0 0-.556.074q-.58.138-1.394.531a16.328 16.328 0 0 0-.85.445l-1.7-.35q.28-1.63.5-3.1l1.85.15q-.06.52-.2 1.5zm-.8-2.15.2-1.6q2.53.3 5.05.3v1.6q-2.68 0-5.25-.3z"/>
    <path fill="#ecbf0a" d="m26.25 10.66-.32-1.54q2.53-.56 3.76-.56 3.12 0 3.12 2.6a3.491 3.491 0 0 1-.152 1.061 2.669 2.669 0 0 1-1.138 1.464q-1.164.754-3.542.827a17.102 17.102 0 0 1-.528.008l-.12-1.54q1.577 0 2.445-.26a2.708 2.708 0 0 0 .44-.17 1.806 1.806 0 0 0 .451-.313q.404-.392.404-.997a1.47 1.47 0 0 0-.032-.316q-.043-.197-.146-.342a.789.789 0 0 0-.182-.182 1.085 1.085 0 0 0-.286-.143q-.343-.117-.894-.117-.927 0-3.123.485a52.194 52.194 0 0 0-.157.035z"/>
    <path fill="#51c816" d="m39.97 6 1.1 1.5q-1.55 1.08-3.24 2.12-.6.37-.78.515a.896.896 0 0 0-.074.067q-.075.075-.097.143a.18.18 0 0 0-.009.055.221.221 0 0 0 .022.093q.037.081.138.172.16.145.74.525 1.86 1.25 3.6 2.61l-1.2 1.4a78.529 78.529 0 0 0-1.175-.873q-1.051-.767-2.345-1.667a47.074 47.074 0 0 1-.452-.317q-.62-.442-.898-.678a3.466 3.466 0 0 1-.203-.186q-.188-.189-.28-.353a.925.925 0 0 1-.017-.031 1.027 1.027 0 0 1-.079-.217q-.028-.111-.041-.244a2.484 2.484 0 0 1-.01-.234 2.207 2.207 0 0 1 .031-.381q.036-.204.114-.366a1.02 1.02 0 0 1 .17-.253q.26-.28 1.209-.901a34.129 34.129 0 0 1 .436-.279q1.843-1.181 3.061-2.025A50.871 50.871 0 0 0 39.97 6z"/>
    <path fill="#6791ef" d="m47.63 12.51-.02-.02a3.012 3.012 0 0 1-.639.178 2.563 2.563 0 0 1-.401.032 2.845 2.845 0 0 1-.706-.083 2.059 2.059 0 0 1-.884-.467 1.816 1.816 0 0 1-.603-1.257 2.496 2.496 0 0 1-.007-.193 2.16 2.16 0 0 1 .098-.667 1.749 1.749 0 0 1 .522-.788 2.092 2.092 0 0 1 .864-.448q.369-.097.816-.097.203 0 .47.058a4.006 4.006 0 0 1 .21.052l.02-.01v-.4h-4.4V6.9h4.4V6h1.8v.9h2.6v1.5h-2.6v1.8a2.81 2.81 0 0 1 .348 1.298 3.328 3.328 0 0 1 .002.102q0 1.56-.95 2.335-.95.775-3.2.965l-.3-1.6a33.555 33.555 0 0 0 .591-.053q.971-.098 1.334-.207.465-.14.605-.46a.053.053 0 0 0 .006-.007q.007-.011.014-.028.01-.025.01-.035zm-1.315-2.24a.543.543 0 0 0-.194.394.669.669 0 0 0-.001.036.564.564 0 0 0 .055.251.568.568 0 0 0 .14.179.676.676 0 0 0 .322.153.958.958 0 0 0 .183.017.923.923 0 0 0 .225-.026.666.666 0 0 0 .28-.144.543.543 0 0 0 .194-.394.669.669 0 0 0 .001-.036.564.564 0 0 0-.055-.251.568.568 0 0 0-.14-.179.676.676 0 0 0-.322-.153.958.958 0 0 0-.183-.017.923.923 0 0 0-.225.026.666.666 0 0 0-.28.144z"/>
  </g>
  <path d="M31.095 3.96V2.61h3.06V6.3q-1.179.45-2.52.45a4.799 4.799 0 0 1-1.097-.118 3.273 3.273 0 0 1-1.527-.8 3.048 3.048 0 0 1-.935-1.854 4.309 4.309 0 0 1-.041-.603 4.205 4.205 0 0 1 .123-1.045A2.926 2.926 0 0 1 28.984.9q.95-.9 2.651-.9a4.685 4.685 0 0 1 1.05.112 3.471 3.471 0 0 1 1.2.518l-.495 1.287a3.638 3.638 0 0 0-.671-.329 2.64 2.64 0 0 0-.904-.166 2.69 2.69 0 0 0-.582.059q-.386.086-.671.294a1.583 1.583 0 0 0-.187.16q-.488.488-.512 1.351a3.242 3.242 0 0 0-.001.089 2.561 2.561 0 0 0 .063.584 1.701 1.701 0 0 0 .468.852 1.781 1.781 0 0 0 .919.47 2.579 2.579 0 0 0 .503.047q.351 0 .63-.09V3.96h-1.35zM23.391.09l1.962 3.6h.018V.09h1.755v6.57h-1.755l-1.962-3.6h-.018v3.6h-1.755V.09h1.755zM2.16 4.365h-.405V6.66H0V.135Q1.17 0 2.34 0q2.7 0 2.7 2.025a1.757 1.757 0 0 1-.335 1.03 2.148 2.148 0 0 1-.016.023q-.351.486-.909.693v.018q.27.153.45.392.121.16.234.412a4.175 4.175 0 0 1 .108.267l.648 1.8H3.375l-.558-1.71a1.659 1.659 0 0 0-.065-.175q-.081-.181-.187-.275a.524.524 0 0 0-.236-.117.768.768 0 0 0-.169-.018zM11.673.09h5.4v1.485h-1.782V6.66h-1.836V1.575h-1.782V.09zM9.81 5.4H7.983l-.297 1.26H5.814L7.974.09h1.89l2.16 6.57h-1.908L9.81 5.4zm10.422 1.26h-1.98V.09h1.98v6.57zM8.892 1.62l-.585 2.43h1.188L8.91 1.62h-.018zm-7.137-.225V.06l.495 3q.459 0 .725-.229a.753.753 0 0 0 .258-.5 1.069 1.069 0 0 0 .007-.126q0-.813-.895-.853a2.129 2.129 0 0 0-.095-.002 3.093 3.093 0 0 0-.221.008q-.104.007-.194.022a1.607 1.607 0 0 0-.08.015z" transform="matrix(1.25 0 0 1.1 8 17)" stroke="#fff" stroke-width="3" paint-order="stroke" stroke-linecap="round" fill-rule="evenodd" fill="#35A"/>
</svg>
