<svg xmlns="http://www.w3.org/2000/svg" width="48" height="24">
  <rect width="40" height="20" rx="8" x="4" y="2" fill="#45AEFF" stroke="#0F48B0"/>
  <path d="m16.72 6.8-.56 2.48q-1.616-.8-3.28-.8a3.431 3.431 0 0 0-.414.024q-.452.055-.722.24a.97.97 0 0 0-.226.212.779.779 0 0 0-.158.484.774.774 0 0 0 .32.628q.136.108.331.195a2.754 2.754 0 0 0 .389.137 16.858 16.858 0 0 1 1.279.393q1.517.539 2.257 1.215a3.07 3.07 0 0 1 1.021 2.235 4.023 4.023 0 0 1 .003.157 4.055 4.055 0 0 1-.144 1.111 2.917 2.917 0 0 1-1.072 1.569q-1.216.92-3.664.92-1.024 0-2.2-.344-.9-.263-1.524-.625A4.119 4.119 0 0 1 8 16.8l.72-2.48q.816.56 1.768.88a6.708 6.708 0 0 0 .832.225q.445.088.851.095a4.05 4.05 0 0 0 .069 0 2.937 2.937 0 0 0 .517-.041q.901-.162.922-.959a1.46 1.46 0 0 0 .001-.04.716.716 0 0 0-.236-.521q-.244-.24-.74-.42a4.646 4.646 0 0 0-.304-.099 15.02 15.02 0 0 1-1.208-.399q-1.407-.538-2.12-1.217a3.133 3.133 0 0 1-.991-2.283 4.106 4.106 0 0 1-.001-.101 3.334 3.334 0 0 1 .213-1.214 2.981 2.981 0 0 1 .995-1.298q.943-.724 2.504-.883A9.166 9.166 0 0 1 12.72 6a11.648 11.648 0 0 1 1.786.13q1.239.192 2.214.67zm1.456-.64h9.6V8.8h-3.168v9.04h-3.264V8.8h-3.168V6.16zm11.536 11.6V6.24a22.891 22.891 0 0 1 2.148-.206A27.307 27.307 0 0 1 33.232 6a8.938 8.938 0 0 1 1.851.18q1.653.35 2.741 1.38 1.648 1.56 1.648 4.28a8.342 8.342 0 0 1-.193 1.849q-.288 1.271-1.011 2.198a5.012 5.012 0 0 1-.444.497 5.42 5.42 0 0 1-2.49 1.37q-.833.215-1.818.242a10.388 10.388 0 0 1-.284.004 25.975 25.975 0 0 1-2.361-.103 21.802 21.802 0 0 1-1.159-.137zm3.12-9.2v6.88a3.432 3.432 0 0 0 .621.079 3.129 3.129 0 0 0 .099.001 3.168 3.168 0 0 0 1.291-.243q1.589-.704 1.589-3.437a5.708 5.708 0 0 0-.127-1.263q-.398-1.749-2.047-2.039a4.072 4.072 0 0 0-.706-.058 3.34 3.34 0 0 0-.628.061 3.732 3.732 0 0 0-.092.019z" stroke-linecap="round" fill-rule="evenodd" fill="#fff"/>
</svg>
