<svg xmlns="http://www.w3.org/2000/svg" width="175" height="70" xml:space="preserve">
  <linearGradient id="a" gradientUnits="userSpaceOnUse" x1="13.666" y1="35.084" x2="167.167" y2="35.084">
    <stop offset=".21" style="stop-color:#89402c"/>
    <stop offset=".239" style="stop-color:#964930"/>
    <stop offset=".315" style="stop-color:#b55c38"/>
    <stop offset=".398" style="stop-color:#cd6c3f"/>
    <stop offset=".492" style="stop-color:#e07944"/>
    <stop offset=".6" style="stop-color:#ee8148"/>
    <stop offset=".738" style="stop-color:#f6874a"/>
    <stop offset="1" style="stop-color:#f8884b"/>
  </linearGradient>
  <path fill="url(#a)" d="M13.667 64.5h121.5c8 0 25.333-13.333 25.333-25.666v-24c0-4.666 6.667-9.167 6.667-9.167h-123.5c-9.667 0-25.5 13.667-25.5 28V52.5c0 10.334-4.5 12-4.5 12z"/>
  <path fill="#B05037" stroke="#F98A4D" stroke-width=".75" stroke-miterlimit="10" d="M13.666 64.5h121.5c8 0 25.334-13.333 25.334-25.666 0-3.159-59 5.833-63.833-5.667-5.473-13.022-60.807-16.5-71.001-16.5-4.601 4.411-6.687 11.28-7.5 17V52.5c0 10.334-4.5 12-4.5 12z"/>
  <linearGradient id="b" gradientUnits="userSpaceOnUse" x1="80.93" y1="17.839" x2="96.307" y2="75.228">
    <stop offset="0" style="stop-color:#f8884b"/>
    <stop offset=".127" style="stop-color:#f6874a"/>
    <stop offset=".173" style="stop-color:#ef8149"/>
    <stop offset=".206" style="stop-color:#e47845"/>
    <stop offset=".232" style="stop-color:#d36b41"/>
    <stop offset=".254" style="stop-color:#bd5a3b"/>
    <stop offset=".263" style="stop-color:#b25238"/>
    <stop offset=".479" style="stop-color:#f8884b"/>
    <stop offset=".663" style="stop-color:#b25238"/>
    <stop offset=".668" style="stop-color:#aa4e36"/>
    <stop offset=".683" style="stop-color:#944330"/>
    <stop offset=".701" style="stop-color:#833a2b"/>
    <stop offset=".724" style="stop-color:#783427"/>
    <stop offset=".755" style="stop-color:#713026"/>
    <stop offset=".842" style="stop-color:#6f2f25"/>
    <stop offset="1" style="stop-color:#ab533b"/>
  </linearGradient>
  <path fill="url(#b)" stroke="#F98A4D" stroke-width=".75" stroke-miterlimit="10" d="M13.627 64.5h121.5c8 0 25.333-13.333 25.333-25.666v-22c0-2.292-54.839 11.083-70.294 16.167-18.75 6.167-63.333 6.167-72.04 1.667v17.833c.001 10.333-4.499 11.999-4.499 11.999z"/>
  <g fill="none" stroke-width="2" stroke-miterlimit="10">
    <path stroke="#F98A4D" d="M16.833 63.333h117.522c7.87 0 24.919-12.729 24.919-24.503V15.918c0-4.456 4.56-8.751 4.56-8.751H44.345c-9.509 0-25.084 13.047-25.084 26.731v17.979c-.001 9.866-2.428 11.456-2.428 11.456z"/>
    <path stroke="#BE5837" d="M13.667 64.5h121.5c8 0 25.333-13.333 25.333-25.666v-24c0-4.666 6.667-9.167 6.667-9.167h-123.5c-9.667 0-25.5 13.667-25.5 28V52.5c0 10.334-4.5 12-4.5 12z"/>
  </g>
  <g>
    <linearGradient id="c" gradientUnits="userSpaceOnUse" x1="79.254" y1="1.219" x2="102.889" y2="66.155">
      <stop offset="0" style="stop-color:#f8884b"/>
      <stop offset=".052" style="stop-color:#f5864a"/>
      <stop offset=".086" style="stop-color:#ec7f48"/>
      <stop offset=".116" style="stop-color:#dd7344"/>
      <stop offset=".143" style="stop-color:#c8633e"/>
      <stop offset=".163" style="stop-color:#b25238"/>
      <stop offset=".363" style="stop-color:#f8884b"/>
      <stop offset=".479" style="stop-color:#6f2f25"/>
      <stop offset="1" style="stop-color:#f8884b"/>
    </linearGradient>
    <path fill="url(#c)" d="M110.474 55.623a1.75 1.75 0 0 1-1.617-1.08c-.529-1.278-1.385-2.604-2.545-3.943l-.049-.046a1.749 1.749 0 0 1 .872-2.974 31.443 31.443 0 0 0 2.807-.699 3064.5 3064.5 0 0 1-8.45 1.201v5.577a1.75 1.75 0 0 1-1.75 1.75h-5.343a1.75 1.75 0 0 1-1.75-1.75v-4.384l-1.021.131a1.751 1.751 0 0 1-1.949-1.436l-.876-5.048a1.748 1.748 0 0 1 1.553-2.04l2.292-.229V15.802a1.753 1.753 0 0 1 2.217-1.687l2.163.599c3.977-1.087 7.004-2.2 9.004-3.309a1.75 1.75 0 0 1 1.941.162l3.884 3.102v-.194c0-.966.783-1.75 1.75-1.75h15.339c.967 0 1.75.784 1.75 1.75v5.6a1.752 1.752 0 0 1 1.848.235c.897.737 2.11 1.35 3.606 1.821a1.75 1.75 0 0 1 1.222 1.774c-.135 2.248-.396 3.868-.798 4.952-.536 1.272-1.381 2.164-2.539 2.722l-.081.039a1.75 1.75 0 0 1 .956 2.082c-1.281 4.398-3.279 8.22-5.955 11.39 2.033.96 4.34 1.709 6.885 2.234a1.75 1.75 0 0 1 .789 3.039c-1.127.972-2.159 2.294-3.067 3.931a1.804 1.804 0 0 1-1.684 1.198 1.67 1.67 0 0 1-.446-.061c-3.706-1.014-6.986-2.458-9.77-4.3-3.014 1.801-6.614 3.288-10.721 4.427a1.681 1.681 0 0 1-.467.065zm2.164-10.716a1.75 1.75 0 0 1-.405 1.189 29.855 29.855 0 0 0 2.792-1.248 29.779 29.779 0 0 1-2.546-4.024l.159 4.083zm8.434-6.309c.27.38.559.756.867 1.127.324-.365.635-.741.931-1.127h-1.798zm-19.581 1.021c2.538-.312 5.034-.624 7.486-.936h-7.486v.936zm21.844-9.269c-.9-1.254-1.355-3.027-1.391-5.411V20.76h-1.383v.132c-.023 3.837-.968 7-2.816 9.458h5.59zm-15.695 0a2.176 2.176 0 0 1-.099-.093h-6.05v.093h6.149zm1.499-8.427c.967 0 1.75.784 1.75 1.75v1.235c.487-.774.781-1.645.886-2.62.056-.466.082-.987.082-1.566v-2.356c-2.688 1.172-6.168 2.283-10.365 3.31v.248h7.647z"/>
    <linearGradient id="d" gradientUnits="userSpaceOnUse" x1="79.254" y1="1.219" x2="102.889" y2="66.155">
      <stop offset="0" style="stop-color:#f8884b"/>
      <stop offset=".052" style="stop-color:#f5864a"/>
      <stop offset=".086" style="stop-color:#ec7f48"/>
      <stop offset=".116" style="stop-color:#dd7344"/>
      <stop offset=".143" style="stop-color:#c8633e"/>
      <stop offset=".163" style="stop-color:#b25238"/>
      <stop offset=".363" style="stop-color:#f8884b"/>
      <stop offset=".479" style="stop-color:#6f2f25"/>
      <stop offset="1" style="stop-color:#f8884b"/>
    </linearGradient>
    <path fill="url(#d)" d="M62.967 55.638a1.754 1.754 0 0 1-1.475-.809c-.632-.991-1.482-1.941-2.536-2.835v1.853a1.75 1.75 0 0 1-1.75 1.75h-5.318a1.75 1.75 0 0 1-1.75-1.75V43.588a36.92 36.92 0 0 1-1.54 1.227 1.749 1.749 0 0 1-2.688-.772c-.467-1.224-1.196-2.501-2.167-3.797-.155-.181-.28-.332-.376-.457a1.752 1.752 0 0 1 .403-2.516c3.402-2.311 6.51-5.532 9.238-9.572.124-.187.246-.375.366-.562h-7.335a1.75 1.75 0 0 1-1.75-1.75v-4.657c0-.966.784-1.75 1.75-1.75h4.101v-5.94c0-.966.784-1.75 1.75-1.75h5.318c.966 0 1.75.784 1.75 1.75v5.938l.675-.164a1.745 1.745 0 0 1 1.276.18v-2.621c0-.966.784-1.75 1.75-1.75h24.198c.966 0 1.75.784 1.75 1.75l-.045 2.635c-.27 15.473-.728 24.79-1.401 28.483-.347 2.039-.828 3.429-1.509 4.354-1.198 1.679-2.702 2.754-4.457 3.176a5.458 5.458 0 0 1-.786.17c-.923.164-2.507.249-4.781.249-.63 0-1.315-.007-2.054-.02a1.75 1.75 0 0 1-1.715-1.643c-.101-1.629-.538-3.082-1.336-4.439a1.753 1.753 0 0 1-.294-.609 25.462 25.462 0 0 1-6.225 6.567c-.305.223-.668.34-1.037.34zm-4.011-7.993a17.671 17.671 0 0 0 3.704-3.928l-.242.297a1.75 1.75 0 0 1-2.813-.134 22.97 22.97 0 0 0-.649-.918v4.683zm13.089-1.1c1.542.11 3.378.166 5.458.166.201-.01.265-.09.323-.161.169-.265 1-2.125 1.385-13.231.103-2.794.196-6.261.276-10.324h-3.129c-.303 7.635-1.144 13.685-2.504 18.001a32.352 32.352 0 0 1-2.348 5.594 1.723 1.723 0 0 1 .539-.045zm-8.327-10.573c.574.535 1.173 1.105 1.794 1.705l.022.022c.341-1.089.626-2.238.853-3.447.072-.382.141-.786.206-1.211a768.35 768.35 0 0 0-2.875 2.931zm-.968-8.571c.122.059.238.132.345.22l3.414 2.776c.147.119.271.26.371.416.237-2.195.403-4.808.496-7.818h-2.661l-.028.079a47.833 47.833 0 0 1-1.937 4.327z"/>
    <g>
      <linearGradient id="e" gradientUnits="userSpaceOnUse" x1="113.326" y1="12.187" x2="113.326" y2="54.623">
        <stop offset="0" style="stop-color:#6c0d0d"/>
        <stop offset=".532" style="stop-color:#a7322f"/>
        <stop offset="1" style="stop-color:#731111"/>
      </linearGradient>
      <path fill="#FFC8AB" stroke="url(#e)" stroke-width="1.25" stroke-miterlimit="10" d="m110.704 40.228.185 4.748a1797.244 1797.244 0 0 1-11.148 1.583v7.101h-5.343v-6.374l-2.994.386-.876-5.048 3.87-.385V15.802l2.625.727c4.36-1.169 7.646-2.367 9.857-3.593l4.606 3.679c-2.918 1.312-6.833 2.539-11.746 3.679v3.379h9.397v4.834H99.74V32.1h9.812v4.833H99.74v4.663c3.747-.455 7.402-.912 10.964-1.368zm18.886-8.299 3.64 1.283c-1.444 4.962-3.809 9.084-7.094 12.362 2.641 1.569 5.758 2.724 9.351 3.465-1.29 1.112-2.441 2.581-3.455 4.406a2.141 2.141 0 0 0-.138.3c-3.962-1.084-7.355-2.652-10.18-4.706-3.071 1.996-6.817 3.607-11.24 4.834-.614-1.483-1.582-2.98-2.901-4.491a3.785 3.785 0 0 1-.093-.086c3.686-.741 7.094-2.053 10.227-3.936-1.935-2.167-3.547-4.762-4.837-7.785l2.948-.728h-4.652V32.1h1.197c-1.044-1.198-2.165-2.182-3.362-2.952a2.22 2.22 0 0 0-.23-.128c2.856-1.511 4.438-3.693 4.745-6.545a14.98 14.98 0 0 0 .092-1.754v-6.245h15.339v10.395c0 .742.03 1.17.092 1.283.185.143.338.214.461.214h.783c.276-.028.476-.085.599-.171.153-.114.292-.413.415-.898.092-1.311.138-2.524.138-3.636 1.075.884 2.472 1.597 4.192 2.139-.123 2.053-.354 3.537-.691 4.449a3.316 3.316 0 0 1-1.658 1.754c-.645.314-1.505.471-2.58.471h-2.533c-1.505-.028-2.61-.371-3.316-1.027-.737-.941-1.121-2.452-1.151-4.534V19.01h-4.883v1.882c-.031 5.19-1.889 8.926-5.573 11.208h15.431l.917-.171zm-3.5 4.919h-8.062c.891 1.911 2.181 3.722 3.869 5.433a21.85 21.85 0 0 0 4.193-5.433z"/>
      <linearGradient id="f" gradientUnits="userSpaceOnUse" x1="65.665" y1="12.417" x2="65.665" y2="54.787">
        <stop offset="0" style="stop-color:#6c0d0d"/>
        <stop offset=".532" style="stop-color:#a7322f"/>
        <stop offset="1" style="stop-color:#731111"/>
      </linearGradient>
      <path fill="#FFC8AB" stroke="url(#f)" stroke-width="1.25" stroke-miterlimit="10" d="m64.296 38.936-3.236 3.973c-.856-1.284-2.142-2.877-3.855-4.785v15.723h-5.318V39.575a38.31 38.31 0 0 1-4.344 3.843c-.532-1.393-1.345-2.819-2.438-4.271a10.4 10.4 0 0 1-.354-.428c3.604-2.448 6.84-5.796 9.705-10.04a35.37 35.37 0 0 0 1.951-3.291h-10.37v-4.657h5.851v-7.69h5.318v7.69h1.95l.886-.214 3.013 1.923c-1.359 3.504-3.22 6.964-5.583 10.382.089.085.25.214.487.385.324.285.576.498.753.64a35.208 35.208 0 0 0 3.279-4.871l3.414 2.776c-.119.116-1.404 1.425-3.856 3.932l-.354.343c.914.828 1.95 1.796 3.101 2.909zm-1.64-22.561h24.198l-.044 2.605c-.266 15.239-.724 24.639-1.373 28.199-.296 1.739-.695 2.949-1.197 3.631-.976 1.367-2.143 2.208-3.502 2.522a3.617 3.617 0 0 1-.576.128c-1.123.198-3.309.27-6.559.212-.118-1.909-.649-3.659-1.595-5.255a.584.584 0 0 0-.088-.128c1.595.114 3.457.171 5.583.171.709-.029 1.27-.299 1.684-.812.886-.997 1.477-5.753 1.772-14.27.118-3.19.222-7.234.311-12.135h-6.604c-.237 8.317-1.064 14.727-2.481 19.226-1.833 5.782-4.905 10.255-9.219 13.417-.946-1.483-2.275-2.85-3.988-4.102 4.786-3.22 7.829-8.291 9.129-15.211.591-3.133.945-7.576 1.064-13.331h-6.515v-4.867z"/>
    </g>
  </g>
</svg>
