<svg xmlns="http://www.w3.org/2000/svg" width="175" height="70" xml:space="preserve">
  <linearGradient id="a" gradientUnits="userSpaceOnUse" x1="13.666" y1="35.084" x2="167.167" y2="35.084">
    <stop offset=".21" style="stop-color:#89402c"/>
    <stop offset=".239" style="stop-color:#964930"/>
    <stop offset=".315" style="stop-color:#b55c38"/>
    <stop offset=".398" style="stop-color:#cd6c3f"/>
    <stop offset=".492" style="stop-color:#e07944"/>
    <stop offset=".6" style="stop-color:#ee8148"/>
    <stop offset=".738" style="stop-color:#f6874a"/>
    <stop offset="1" style="stop-color:#f8884b"/>
  </linearGradient>
  <path fill="url(#a)" d="M13.667 64.5h121.5c8 0 25.333-13.333 25.333-25.666v-24c0-4.666 6.667-9.167 6.667-9.167h-123.5c-9.667 0-25.5 13.667-25.5 28V52.5c0 10.334-4.5 12-4.5 12z"/>
  <path fill="#B05037" stroke="#F98A4D" stroke-width=".75" stroke-miterlimit="10" d="M13.666 64.5h121.5c8 0 25.334-13.333 25.334-25.666 0-3.159-59 5.833-63.833-5.667-5.473-13.022-60.807-16.5-71.001-16.5-4.601 4.411-6.687 11.28-7.5 17V52.5c0 10.334-4.5 12-4.5 12z"/>
  <linearGradient id="b" gradientUnits="userSpaceOnUse" x1="80.93" y1="17.839" x2="96.307" y2="75.228">
    <stop offset="0" style="stop-color:#f8884b"/>
    <stop offset=".127" style="stop-color:#f6874a"/>
    <stop offset=".173" style="stop-color:#ef8149"/>
    <stop offset=".206" style="stop-color:#e47845"/>
    <stop offset=".232" style="stop-color:#d36b41"/>
    <stop offset=".254" style="stop-color:#bd5a3b"/>
    <stop offset=".263" style="stop-color:#b25238"/>
    <stop offset=".479" style="stop-color:#f8884b"/>
    <stop offset=".663" style="stop-color:#b25238"/>
    <stop offset=".668" style="stop-color:#aa4e36"/>
    <stop offset=".683" style="stop-color:#944330"/>
    <stop offset=".701" style="stop-color:#833a2b"/>
    <stop offset=".724" style="stop-color:#783427"/>
    <stop offset=".755" style="stop-color:#713026"/>
    <stop offset=".842" style="stop-color:#6f2f25"/>
    <stop offset="1" style="stop-color:#ab533b"/>
  </linearGradient>
  <path fill="url(#b)" stroke="#F98A4D" stroke-width=".75" stroke-miterlimit="10" d="M13.627 64.5h121.5c8 0 25.333-13.333 25.333-25.666v-22c0-2.292-54.839 11.083-70.294 16.167-18.75 6.167-63.333 6.167-72.04 1.667v17.833c.001 10.333-4.499 11.999-4.499 11.999z"/>
  <g fill="none" stroke-width="2" stroke-miterlimit="10">
    <path stroke="#F98A4D" d="M16.833 63.333h117.522c7.87 0 24.919-12.729 24.919-24.503V15.918c0-4.456 4.56-8.751 4.56-8.751H44.345c-9.509 0-25.084 13.047-25.084 26.731v17.979c-.001 9.866-2.428 11.456-2.428 11.456z"/>
    <path stroke="#BE5837" d="M13.667 64.5h121.5c8 0 25.333-13.333 25.333-25.666v-24c0-4.666 6.667-9.167 6.667-9.167h-123.5c-9.667 0-25.5 13.667-25.5 28V52.5c0 10.334-4.5 12-4.5 12z"/>
  </g>
  <g>
    <linearGradient id="c" gradientUnits="userSpaceOnUse" x1="78.066" y1="4.348" x2="100.835" y2="66.903">
      <stop offset="0" style="stop-color:#f8884b"/>
      <stop offset=".052" style="stop-color:#f5864a"/>
      <stop offset=".086" style="stop-color:#ec7f48"/>
      <stop offset=".116" style="stop-color:#dd7344"/>
      <stop offset=".143" style="stop-color:#c8633e"/>
      <stop offset=".163" style="stop-color:#b25238"/>
      <stop offset=".363" style="stop-color:#f8884b"/>
      <stop offset=".479" style="stop-color:#6f2f25"/>
      <stop offset="1" style="stop-color:#f8884b"/>
    </linearGradient>
    <path fill="url(#c)" d="M110.474 55.623a1.75 1.75 0 0 1-1.617-1.08c-.529-1.278-1.385-2.604-2.545-3.943l-.049-.046a1.749 1.749 0 0 1 .872-2.974 31.443 31.443 0 0 0 2.807-.699 3064.5 3064.5 0 0 1-8.45 1.201v5.577a1.75 1.75 0 0 1-1.75 1.75h-5.343a1.75 1.75 0 0 1-1.75-1.75v-4.384l-1.021.131a1.751 1.751 0 0 1-1.949-1.436l-.876-5.048a1.748 1.748 0 0 1 1.553-2.04l2.292-.229V15.802a1.753 1.753 0 0 1 2.217-1.687l2.163.599c3.977-1.087 7.004-2.2 9.004-3.309a1.75 1.75 0 0 1 1.941.162l3.884 3.102v-.194c0-.966.783-1.75 1.75-1.75h15.339c.967 0 1.75.784 1.75 1.75v5.6a1.752 1.752 0 0 1 1.848.235c.897.737 2.11 1.35 3.606 1.821a1.75 1.75 0 0 1 1.222 1.774c-.135 2.248-.396 3.868-.798 4.952-.536 1.272-1.381 2.164-2.539 2.722l-.081.039a1.75 1.75 0 0 1 .956 2.082c-1.281 4.398-3.279 8.22-5.955 11.39 2.033.96 4.34 1.709 6.885 2.234a1.75 1.75 0 0 1 .789 3.039c-1.127.972-2.159 2.294-3.067 3.931a1.804 1.804 0 0 1-1.684 1.198 1.67 1.67 0 0 1-.446-.061c-3.706-1.014-6.986-2.458-9.77-4.3-3.014 1.801-6.614 3.288-10.721 4.427a1.681 1.681 0 0 1-.467.065zm2.164-10.716a1.75 1.75 0 0 1-.405 1.189 29.855 29.855 0 0 0 2.792-1.248 29.779 29.779 0 0 1-2.546-4.024l.159 4.083zm8.434-6.309c.27.38.559.756.867 1.127.324-.365.635-.741.931-1.127h-1.798zm-19.581 1.021c2.538-.312 5.034-.624 7.486-.936h-7.486v.936zm21.844-9.269c-.9-1.254-1.355-3.027-1.391-5.411V20.76h-1.383v.132c-.023 3.837-.968 7-2.816 9.458h5.59zm-15.695 0a2.176 2.176 0 0 1-.099-.093h-6.05v.093h6.149zm1.499-8.427c.967 0 1.75.784 1.75 1.75v1.235c.487-.774.781-1.645.886-2.62.056-.466.082-.987.082-1.566v-2.356c-2.688 1.172-6.168 2.283-10.365 3.31v.248h7.647z"/>
    <linearGradient id="d" gradientUnits="userSpaceOnUse" x1="78.066" y1="4.348" x2="100.835" y2="66.903">
      <stop offset="0" style="stop-color:#f8884b"/>
      <stop offset=".052" style="stop-color:#f5864a"/>
      <stop offset=".086" style="stop-color:#ec7f48"/>
      <stop offset=".116" style="stop-color:#dd7344"/>
      <stop offset=".143" style="stop-color:#c8633e"/>
      <stop offset=".163" style="stop-color:#b25238"/>
      <stop offset=".363" style="stop-color:#f8884b"/>
      <stop offset=".479" style="stop-color:#6f2f25"/>
      <stop offset="1" style="stop-color:#f8884b"/>
    </linearGradient>
    <path fill="url(#d)" d="M44.835 53.484a1.75 1.75 0 0 1-1.75-1.75v-6.676c0-.967.784-1.75 1.75-1.75H87.02c.966 0 1.75.783 1.75 1.75v6.676a1.75 1.75 0 0 1-1.75 1.75H44.835zm3.94-28.472a1.75 1.75 0 0 1-1.75-1.75v-6.39c0-.966.784-1.75 1.75-1.75H83.08c.966 0 1.75.784 1.75 1.75v6.39a1.75 1.75 0 0 1-1.75 1.75H48.775z"/>
    <g>
      <linearGradient id="e" gradientUnits="userSpaceOnUse" x1="113.326" y1="12.187" x2="113.326" y2="54.623">
        <stop offset="0" style="stop-color:#6c0d0d"/>
        <stop offset=".532" style="stop-color:#a7322f"/>
        <stop offset="1" style="stop-color:#731111"/>
      </linearGradient>
      <path fill="#FFC8AB" stroke="url(#e)" stroke-width="1.25" stroke-miterlimit="10" d="m110.704 40.228.185 4.748a1797.244 1797.244 0 0 1-11.148 1.583v7.101h-5.343v-6.374l-2.994.386-.876-5.048 3.87-.385V15.802l2.625.727c4.36-1.169 7.646-2.367 9.857-3.593l4.606 3.679c-2.918 1.312-6.833 2.539-11.746 3.679v3.379h9.397v4.834H99.74V32.1h9.812v4.833H99.74v4.663c3.747-.455 7.402-.912 10.964-1.368zm18.886-8.299 3.64 1.283c-1.444 4.962-3.809 9.084-7.094 12.362 2.641 1.569 5.758 2.724 9.351 3.465-1.29 1.112-2.441 2.581-3.455 4.406a2.141 2.141 0 0 0-.138.3c-3.962-1.084-7.355-2.652-10.18-4.706-3.071 1.996-6.817 3.607-11.24 4.834-.614-1.483-1.582-2.98-2.901-4.491a3.785 3.785 0 0 1-.093-.086c3.686-.741 7.094-2.053 10.227-3.936-1.935-2.167-3.547-4.762-4.837-7.785l2.948-.728h-4.652V32.1h1.197c-1.044-1.198-2.165-2.182-3.362-2.952a2.22 2.22 0 0 0-.23-.128c2.856-1.511 4.438-3.693 4.745-6.545a14.98 14.98 0 0 0 .092-1.754v-6.245h15.339v10.395c0 .742.03 1.17.092 1.283.185.143.338.214.461.214h.783c.276-.028.476-.085.599-.171.153-.114.292-.413.415-.898.092-1.311.138-2.524.138-3.636 1.075.884 2.472 1.597 4.192 2.139-.123 2.053-.354 3.537-.691 4.449a3.316 3.316 0 0 1-1.658 1.754c-.645.314-1.505.471-2.58.471h-2.533c-1.505-.028-2.61-.371-3.316-1.027-.737-.941-1.121-2.452-1.151-4.534V19.01h-4.883v1.882c-.031 5.19-1.889 8.926-5.573 11.208h15.431l.917-.171zm-3.5 4.919h-8.062c.891 1.911 2.181 3.722 3.869 5.433a21.85 21.85 0 0 0 4.193-5.433z"/>
      <linearGradient id="f" gradientUnits="userSpaceOnUse" x1="65.928" y1="16.247" x2="65.928" y2="52.36">
        <stop offset="0" style="stop-color:#6c0d0d"/>
        <stop offset=".532" style="stop-color:#a7322f"/>
        <stop offset="1" style="stop-color:#731111"/>
      </linearGradient>
      <path fill="#FFC8AB" stroke="url(#f)" stroke-width="1.25" stroke-miterlimit="10" d="M44.835 45.059H87.02v6.676H44.835v-6.676zm3.94-28.187H83.08v6.39H48.775v-6.39z"/>
    </g>
  </g>
</svg>
