<svg xmlns="http://www.w3.org/2000/svg" width="175" height="70" xml:space="preserve">
  <linearGradient id="a" gradientUnits="userSpaceOnUse" x1="10.668" y1="34.606" x2="170.375" y2="34.606">
    <stop offset=".268" style="stop-color:#aa3308"/>
    <stop offset=".306" style="stop-color:#b94315"/>
    <stop offset=".406" style="stop-color:#db6832"/>
    <stop offset=".486" style="stop-color:#f08044"/>
    <stop offset=".537" style="stop-color:#f8884b"/>
    <stop offset=".644" style="stop-color:#eb7a40"/>
    <stop offset=".847" style="stop-color:#c85422"/>
    <stop offset="1" style="stop-color:#aa3308"/>
  </linearGradient>
  <path fill="url(#a)" d="M10.668 65.212h126.413c8.323 0 26.357-13.872 26.357-26.703V13.537c0-4.855 6.937-9.537 6.937-9.537H41.881C31.824 4 15.35 18.219 15.35 33.132v19.595c0 10.752-4.682 12.485-4.682 12.485z"/>
  <path fill="#B05037" stroke="#F98A4D" stroke-width=".75" stroke-miterlimit="10" d="M10.667 65.212H137.08c8.323 0 26.358-13.872 26.358-26.703 0-3.288-61.386 6.068-66.415-5.897-5.693-13.549-63.264-17.167-73.87-17.167-4.787 4.589-6.957 11.736-7.804 17.688v19.595c0 10.751-4.682 12.484-4.682 12.484z"/>
  <linearGradient id="b" gradientUnits="userSpaceOnUse" x1="80.651" y1="16.664" x2="96.65" y2="76.373">
    <stop offset="0" style="stop-color:#f8884b"/>
    <stop offset=".127" style="stop-color:#f6874a"/>
    <stop offset=".173" style="stop-color:#ef8149"/>
    <stop offset=".206" style="stop-color:#e47845"/>
    <stop offset=".232" style="stop-color:#d36b41"/>
    <stop offset=".254" style="stop-color:#bd5a3b"/>
    <stop offset=".263" style="stop-color:#b25238"/>
    <stop offset=".479" style="stop-color:#f8884b"/>
    <stop offset=".663" style="stop-color:#b25238"/>
    <stop offset=".668" style="stop-color:#aa4e36"/>
    <stop offset=".683" style="stop-color:#944330"/>
    <stop offset=".701" style="stop-color:#833a2b"/>
    <stop offset=".724" style="stop-color:#783427"/>
    <stop offset=".755" style="stop-color:#713026"/>
    <stop offset=".842" style="stop-color:#6f2f25"/>
    <stop offset="1" style="stop-color:#ab533b"/>
  </linearGradient>
  <path fill="url(#b)" stroke="#F98A4D" stroke-width=".75" stroke-miterlimit="10" d="M10.627 65.212h126.415c8.321 0 26.356-13.872 26.356-26.703V15.618c0-2.383-57.058 11.532-73.137 16.821-19.509 6.417-65.895 6.417-74.953 1.734v18.555c.001 10.751-4.681 12.484-4.681 12.484z"/>
  <g>
    <path opacity=".4" fill="none" stroke="#FFF" stroke-width="2" stroke-miterlimit="10" d="M17.668 61.667h119.413c4.419 0 22.357-12.087 22.357-23.267V16.642c0-4.23 1.937-8.309 1.937-8.309H41.881c-7.047 0-22.531 12.389-22.531 25.383v17.073c0 9.368-1.682 10.878-1.682 10.878z"/>
    <g opacity=".15" fill="#FFF">
      <path d="m35 46.417 4.167-1.75 3.75 1.75L41 42.667l1.917-3.75-3.959 1.5-3.958-1.5 2.167 3.75z"/>
      <path d="m35 46.417 4.167-1.75 3.75 1.75L41 42.667l1.917-3.75-3.959 1.5-3.958-1.5 2.167 3.75z"/>
      <path d="m35 46.417 4.167-1.75 3.75 1.75L41 42.667l1.917-3.75-3.959 1.5-3.958-1.5 2.167 3.75zM27.083 53.917l4.167-1.75 3.75 1.75-1.917-3.75L35 46.417l-3.958 1.5-3.959-1.5 2.167 3.75zM42.917 53.917l4.166-1.75 3.75 1.75-1.916-3.75 1.916-3.75-3.958 1.5-3.958-1.5 2.166 3.75zM27.083 38.917l4.167-1.75 3.75 1.75-1.917-3.75L35 31.417l-3.958 1.5-3.959-1.5 2.167 3.75zM35 31.417l4.167-1.75 3.75 1.75L41 27.667l1.917-3.75-3.959 1.5-3.958-1.5 2.167 3.75zM35 61.417l4.167-1.75 3.75 1.75L41 57.667l1.917-3.75-3.959 1.5-3.958-1.5 2.167 3.75zM50.833 61.417 55 59.667l3.75 1.75-1.917-3.75 1.917-3.75-3.959 1.5-3.958-1.5L53 57.667zM68.25 61.417l4.167-1.75 3.75 1.75-1.917-3.75 1.917-3.75-3.959 1.5-3.958-1.5 2.167 3.75zM19.167 61.417l4.166-1.75 3.75 1.75-1.916-3.75 1.916-3.75-3.958 1.5-3.958-1.5 2.166 3.75zM19.167 46.417l4.166-1.75 3.75 1.75-1.916-3.75 1.916-3.75-3.958 1.5-3.958-1.5 2.166 3.75zM19.167 31.417l4.166-1.75 3.75 1.75-1.916-3.75 1.916-3.75-3.958 1.5-3.958-1.5 2.166 3.75zM27.083 23.917l4.167-1.75 3.75 1.75-1.917-3.75L35 16.417l-3.958 1.5-3.959-1.5 2.167 3.75zM42.917 23.917l4.166-1.75 3.75 1.75-1.916-3.75 1.916-3.75-3.958 1.5-3.958-1.5 2.166 3.75zM35 16.417l4.167-1.75 3.75 1.75L41 12.667l1.917-3.75-3.959 1.5L35 8.917l2.167 3.75zM51.167 16.417l4.166-1.75 3.75 1.75-1.916-3.75 1.916-3.75-3.958 1.5-3.958-1.5 2.166 3.75zM68.25 16.417l4.167-1.75 3.75 1.75-1.917-3.75 1.917-3.75-3.959 1.5-3.958-1.5 2.167 3.75zM76.167 23.917l4.166-1.75 3.75 1.75-1.916-3.75 1.916-3.75-3.958 1.5-3.958-1.5 2.166 3.75zM84.083 16.417l4.166-1.75 3.75 1.75-1.916-3.75 1.916-3.75-3.958 1.5-3.958-1.5 2.166 3.75zM84.083 61.417l4.167-1.75 3.749 1.75-1.916-3.75 1.916-3.75-3.958 1.5-3.958-1.5 2.167 3.75zM100.916 16.417l4.166-1.75 3.75 1.75-1.916-3.75 1.916-3.75-3.958 1.5-3.958-1.5 2.166 3.75zM100.916 61.417l4.166-1.75 3.75 1.75-1.916-3.75 1.916-3.75-3.958 1.5-3.958-1.5 2.166 3.75zM117.875 16.417l4.166-1.75 3.75 1.75-1.916-3.75 1.916-3.75-3.958 1.5-3.958-1.5 2.166 3.75zM117.875 61.417l4.166-1.75 3.75 1.75-1.916-3.75 1.916-3.75-3.958 1.5-3.958-1.5 2.166 3.75zM132.875 61.417l4.166-1.75 3.75 1.75-1.916-3.75 1.916-3.75-3.958 1.5-3.958-1.5 2.166 3.75zM132.875 16.417l4.166-1.75 3.75 1.75-1.916-3.75 1.916-3.75-3.958 1.5-3.958-1.5 2.166 3.75zM140.791 23.917l4.166-1.75 3.75 1.75-1.916-3.75 1.916-3.75-3.958 1.5-3.958-1.5 2.166 3.75zM148.707 16.417l4.166-1.75 3.75 1.75-1.916-3.75 1.916-3.75-3.958 1.5-3.958-1.5 2.166 3.75zM148.707 31.417l4.166-1.75 3.75 1.75-1.916-3.75 1.916-3.75-3.958 1.5-3.958-1.5 2.166 3.75zM140.791 38.917l4.166-1.75 3.75 1.75-1.916-3.75 1.916-3.75-3.958 1.5-3.958-1.5 2.166 3.75zM140.791 53.917l4.166-1.75 3.75 1.75-1.916-3.75 1.916-3.75-3.958 1.5-3.958-1.5 2.166 3.75zM148.707 46.417l4.166-1.75 3.75 1.75-1.916-3.75 1.916-3.75-3.958 1.5-3.958-1.5 2.166 3.75z"/>
    </g>
    <linearGradient id="c" gradientUnits="userSpaceOnUse" x1="84.276" y1="-4.068" x2="97.854" y2="72.934">
      <stop offset="0" style="stop-color:#f8894c"/>
      <stop offset=".284" style="stop-color:#c05c3a"/>
      <stop offset=".318" style="stop-color:#c4623f"/>
      <stop offset=".362" style="stop-color:#cf724f"/>
      <stop offset=".412" style="stop-color:#e18c68"/>
      <stop offset=".465" style="stop-color:#fab18a"/>
      <stop offset=".474" style="stop-color:#ffb891"/>
      <stop offset=".474" style="stop-color:#feb690"/>
      <stop offset=".477" style="stop-color:#e39776"/>
      <stop offset=".481" style="stop-color:#cc7c60"/>
      <stop offset=".486" style="stop-color:#b9664e"/>
      <stop offset=".491" style="stop-color:#ab5540"/>
      <stop offset=".497" style="stop-color:#a04a36"/>
      <stop offset=".506" style="stop-color:#9b4331"/>
      <stop offset=".532" style="stop-color:#99412f"/>
      <stop offset="1" style="stop-color:#f6874a"/>
    </linearGradient>
    <path fill="none" stroke="url(#c)" stroke-width="4" stroke-miterlimit="10" d="M13.963 63.997h122.273c8.188 0 25.927-13.257 25.927-25.52V14.613c0-4.64 4.744-9.114 4.744-9.114H42.586c-9.893 0-26.098 13.589-26.098 27.84v18.727c0 8.005-2.525 11.931-2.525 11.931z"/>
    <linearGradient id="d" gradientUnits="userSpaceOnUse" x1="39.03" y1="94.696" x2="139.801" y2="-25.398">
      <stop offset=".095" style="stop-color:#90220e"/>
      <stop offset=".115" style="stop-color:#8b210e"/>
      <stop offset=".138" style="stop-color:#7e1d0c"/>
      <stop offset=".162" style="stop-color:#67160a"/>
      <stop offset=".184" style="stop-color:#4c0e08"/>
      <stop offset=".432" style="stop-color:#a73016"/>
      <stop offset=".465" style="stop-color:#a32e15"/>
      <stop offset=".496" style="stop-color:#982913"/>
      <stop offset=".526" style="stop-color:#86210f"/>
      <stop offset=".547" style="stop-color:#73180b"/>
      <stop offset=".552" style="stop-color:#75190b"/>
      <stop offset=".621" style="stop-color:#8c210d"/>
      <stop offset=".686" style="stop-color:#9a250f"/>
      <stop offset=".742" style="stop-color:#9f270f"/>
      <stop offset=".785" style="stop-color:#8d210d"/>
      <stop offset=".875" style="stop-color:#6c170a"/>
      <stop offset=".949" style="stop-color:#581109"/>
      <stop offset="1" style="stop-color:#510f08"/>
    </linearGradient>
    <path fill="none" stroke="url(#d)" stroke-width="2" stroke-miterlimit="10" d="M10.668 65.212h126.413c8.323 0 26.357-13.872 26.357-26.703V13.537c0-4.855 6.937-9.537 6.937-9.537H41.881C31.824 4 15.35 18.219 15.35 33.132v19.595c0 10.752-4.682 12.485-4.682 12.485z"/>
  </g>
  <g>
    <linearGradient id="e" gradientUnits="userSpaceOnUse" x1="89.857" y1="9.432" x2="89.857" y2="58.407">
      <stop offset=".047" style="stop-color:#b5583c"/>
      <stop offset=".182" style="stop-color:#dd7445"/>
      <stop offset=".289" style="stop-color:#f8884b"/>
      <stop offset=".491" style="stop-color:#87361d"/>
      <stop offset=".595" style="stop-color:#510f08"/>
      <stop offset=".995" style="stop-color:#cd663f"/>
    </linearGradient>
    <path fill="url(#e)" d="M66.402 57.039c-5.326 0-8.914-1.067-11.292-3.36a4.115 4.115 0 0 1-.115-.114c-2.164-2.219-3.216-5.443-3.216-9.856V39.63l-6.528.844a5.25 5.25 0 0 1-5.823-4.187l-.978-4.947a5.25 5.25 0 0 1 4.465-6.225l8.865-1.167v-8.462a5.25 5.25 0 0 1 5.25-5.25h6.249a5.25 5.25 0 0 1 5.25 5.25v6.271l17.47-2.31a5.251 5.251 0 0 1 5.851 4.246l.933 5.025a5.25 5.25 0 0 1-4.491 6.165l-2.267.292c.37.125.757.238 1.16.341.146.027.28.054.404.08a5.249 5.249 0 0 1 4.14 5.617c-.523 5.695-1.797 9.478-4.006 11.9a1.728 1.728 0 0 1-.072.077c-2.423 2.553-6.058 3.848-10.802 3.848H66.402zm8.626-15.405c.127-.805.272-1.978.41-3.66a5.244 5.244 0 0 1 .34-1.478l-7.251.934v4.204h6.501z"/>
    <linearGradient id="f" gradientUnits="userSpaceOnUse" x1="89.857" y1="9.432" x2="89.857" y2="58.407">
      <stop offset=".047" style="stop-color:#b5583c"/>
      <stop offset=".182" style="stop-color:#dd7445"/>
      <stop offset=".289" style="stop-color:#f8884b"/>
      <stop offset=".491" style="stop-color:#87361d"/>
      <stop offset=".595" style="stop-color:#510f08"/>
      <stop offset=".995" style="stop-color:#cd663f"/>
    </linearGradient>
    <path fill="url(#f)" d="M110.653 58.406a5.251 5.251 0 0 1-4.793-3.111 8.08 8.08 0 0 0-.89-1.484 5.252 5.252 0 0 1-5.181 4.394H94.38a5.25 5.25 0 0 1-5.25-5.25v-.869a5.245 5.245 0 0 1-2.942-3.795l-.886-4.744a5.25 5.25 0 0 1 3.827-6.042v-20.13a5.25 5.25 0 0 1 6.558-5.084l1.353.348c4.161-1.098 6.403-2.022 7.572-2.625a5.254 5.254 0 0 1 5.531.45l1.316.976a5.227 5.227 0 0 1 2.364-.562h15.528a5.25 5.25 0 0 1 5.25 5.25V18.4c.156.095.309.199.456.312.39.298 1.146.738 2.528 1.143a5.25 5.25 0 0 1 3.767 5.378c-.165 2.544-.502 4.383-1.062 5.786a8.579 8.579 0 0 1-1.373 2.24 5.24 5.24 0 0 1-.22 2.05c-.881 2.81-2.064 5.401-3.539 7.755.583.144 1.184.274 1.802.393a5.249 5.249 0 0 1 2.295 9.254c-.773.62-1.507 1.487-2.18 2.582a5.252 5.252 0 0 1-6.034 2.831c-3.363-.855-6.424-2.018-9.139-3.47-2.92 1.434-6.25 2.636-9.942 3.586a5.228 5.228 0 0 1-1.307.166z"/>
    <g>
      <linearGradient id="g" gradientUnits="userSpaceOnUse" x1="89.857" y1="10.682" x2="89.857" y2="57.157">
        <stop offset="0" style="stop-color:#f3be80"/>
        <stop offset=".458" style="stop-color:#f4deb0"/>
        <stop offset="1" style="stop-color:#f3bd7d"/>
      </linearGradient>
      <path fill="url(#g)" d="M66.402 55.789c-4.981 0-8.294-.956-10.424-3.01a3.568 3.568 0 0 1-.087-.087c-1.925-1.975-2.861-4.913-2.861-8.984v-5.501l-7.938 1.025a4.001 4.001 0 0 1-4.437-3.191l-.979-4.945a4 4 0 0 1 3.401-4.742l9.952-1.311v-9.558a4 4 0 0 1 4-4h6.249a4 4 0 0 1 4 4v7.698l18.884-2.497a4 4 0 0 1 4.457 3.236l.933 5.025a4.002 4.002 0 0 1-3.422 4.697l-6.6.85c.464.102.914.288 1.324.555 1.109.723 2.476 1.291 4.062 1.688.149.028.287.056.412.082a4 4 0 0 1 3.155 4.279c-.498 5.41-1.669 8.961-3.686 11.173-2.233 2.354-5.562 3.517-9.95 3.517H66.402zm9.668-12.905c.169-.782.404-2.231.614-4.809a4 4 0 0 1 2.166-3.235l-11.572 1.491v6.553h8.792z"/>
      <linearGradient id="h" gradientUnits="userSpaceOnUse" x1="89.857" y1="10.682" x2="89.857" y2="57.157">
        <stop offset="0" style="stop-color:#f3be80"/>
        <stop offset=".458" style="stop-color:#f4deb0"/>
        <stop offset="1" style="stop-color:#f3bd7d"/>
      </linearGradient>
      <path fill="url(#h)" d="M110.653 57.156a4 4 0 0 1-3.651-2.37c-.419-.938-1.118-1.941-2.078-2.981a3.991 3.991 0 0 1-1.134-1.811v2.96a4 4 0 0 1-4 4h-5.409a4 4 0 0 1-4-4v-1.746a3.999 3.999 0 0 1-2.963-3.147l-.886-4.744a3.996 3.996 0 0 1 .742-3.146 3.996 3.996 0 0 1 2.825-1.571l.282-.026V17.375a4.001 4.001 0 0 1 4.996-3.874l1.667.429c3.611-.938 6.348-1.88 8.142-2.805a4.005 4.005 0 0 1 4.215.343l1.997 1.481a3.982 3.982 0 0 1 2.428-.821h15.528a4 4 0 0 1 4 4v3.039c.334.133.652.313.946.537.69.527 1.679.981 2.938 1.349a4 4 0 0 1 2.869 4.098c-.155 2.409-.466 4.126-.975 5.403a7.216 7.216 0 0 1-1.54 2.298 3.972 3.972 0 0 1-.085 2.081c-1.028 3.282-2.483 6.25-4.347 8.875 1.122.342 2.313.634 3.567.874a4.001 4.001 0 0 1 1.749 7.051c-.901.722-1.743 1.719-2.501 2.965a4.003 4.003 0 0 1-4.623 2.213c-3.502-.891-6.66-2.121-9.422-3.67-2.977 1.524-6.423 2.794-10.279 3.787a3.99 3.99 0 0 1-.998.128z"/>
    </g>
    <g>
      <linearGradient id="i" gradientUnits="userSpaceOnUse" x1="65.609" y1="15.486" x2="65.609" y2="51.79">
        <stop offset="0" style="stop-color:#e30808"/>
        <stop offset=".145" style="stop-color:#de0808"/>
        <stop offset=".329" style="stop-color:#ce0707"/>
        <stop offset=".533" style="stop-color:#b40707"/>
        <stop offset=".752" style="stop-color:#900606"/>
        <stop offset=".98" style="stop-color:#620404"/>
        <stop offset="1" style="stop-color:#5e0404"/>
      </linearGradient>
      <linearGradient id="j" gradientUnits="userSpaceOnUse" x1="65.606" y1="14.986" x2="65.606" y2="52.29">
        <stop offset="0" style="stop-color:#e30808"/>
        <stop offset=".23" style="stop-color:#e20d0c"/>
        <stop offset=".521" style="stop-color:#df1d16"/>
        <stop offset=".843" style="stop-color:#db3726"/>
        <stop offset="1" style="stop-color:#d84630"/>
      </linearGradient>
      <path fill="url(#i)" stroke="url(#j)" stroke-miterlimit="10" d="M66.868 46.884h9.56c1.461 0 2.44-.429 2.938-1.286.56-.991.995-3.391 1.306-7.196 1.523.992 3.326 1.742 5.409 2.251.155.027.295.055.42.081-.404 4.396-1.291 7.344-2.658 8.844-1.399 1.474-3.73 2.212-6.995 2.212H66.402c-3.793 0-6.342-.631-7.647-1.89-1.15-1.18-1.725-3.243-1.725-6.191V33.657l-12.451 1.608-.979-4.945 13.43-1.769V15.486h6.249v12.262l23.409-3.096.933 5.025-24.341 3.136v10.935c0 1.501.264 2.412.792 2.733.465.269 1.397.403 2.796.403z"/>
      <linearGradient id="k" gradientUnits="userSpaceOnUse" x1="113.289" y1="14.682" x2="113.289" y2="53.156">
        <stop offset="0" style="stop-color:#e30808"/>
        <stop offset=".145" style="stop-color:#de0808"/>
        <stop offset=".329" style="stop-color:#ce0707"/>
        <stop offset=".533" style="stop-color:#b40707"/>
        <stop offset=".752" style="stop-color:#900606"/>
        <stop offset=".98" style="stop-color:#620404"/>
        <stop offset="1" style="stop-color:#5e0404"/>
      </linearGradient>
      <linearGradient id="l" gradientUnits="userSpaceOnUse" x1="113.503" y1="14.095" x2="113.503" y2="53.746">
        <stop offset="0" style="stop-color:#e30808"/>
        <stop offset=".23" style="stop-color:#e20d0c"/>
        <stop offset=".521" style="stop-color:#df1d16"/>
        <stop offset=".843" style="stop-color:#db3726"/>
        <stop offset="1" style="stop-color:#d84630"/>
      </linearGradient>
      <path fill="url(#k)" stroke="url(#l)" stroke-miterlimit="10" d="m110.888 40.331.187 4.462a2417.39 2417.39 0 0 1-11.284 1.489v6.673h-5.409v-5.99l-3.031.362-.886-4.744a3491.8 3491.8 0 0 0 3.917-.361V17.375l2.657.683c4.414-1.099 7.741-2.224 9.979-3.377l4.663 3.458c-2.954 1.233-6.918 2.386-11.891 3.458v3.176h9.513v4.543H99.79v3.377h9.932v4.543H99.79v4.382c3.792-.429 7.491-.858 11.098-1.287zm19.119-7.799 3.684 1.206c-1.462 4.664-3.855 8.537-7.182 11.619 2.674 1.474 5.829 2.56 9.467 3.256-1.306 1.046-2.472 2.426-3.498 4.142-.063.106-.108.2-.14.281-4.01-1.02-7.445-2.493-10.306-4.423-3.108 1.876-6.901 3.391-11.378 4.543-.622-1.394-1.602-2.801-2.938-4.221a3.594 3.594 0 0 1-.093-.081c3.73-.696 7.181-1.93 10.352-3.698-1.958-2.036-3.591-4.476-4.896-7.317l2.984-.683h-4.709v-4.463h1.212c-1.057-1.125-2.191-2.05-3.404-2.774a2.73 2.73 0 0 0-.232-.121c2.891-1.42 4.491-3.471 4.803-6.151.062-.482.093-1.031.093-1.648v-5.87h15.528v9.77c0 .697.031 1.099.094 1.206.187.134.342.201.466.201h.793c.279-.026.481-.08.606-.161.155-.107.295-.388.419-.844.094-1.232.141-2.372.141-3.417 1.088.831 2.502 1.501 4.243 2.01-.125 1.93-.357 3.324-.699 4.181-.343.75-.902 1.3-1.679 1.648-.653.295-1.523.442-2.611.442h-2.565c-1.523-.026-2.643-.348-3.357-.965-.746-.884-1.135-2.305-1.165-4.261v-5.548h-4.943v1.769c-.031 4.878-1.912 8.389-5.643 10.533h15.622l.931-.161zm-3.544 4.623h-8.161c.901 1.796 2.207 3.497 3.917 5.105a20.744 20.744 0 0 0 4.244-5.105z"/>
    </g>
  </g>
</svg>
