<svg xmlns="http://www.w3.org/2000/svg" width="175" height="70" xml:space="preserve">
  <linearGradient id="a" gradientUnits="userSpaceOnUse" x1="18.101" y1="35.086" x2="162.065" y2="35.086">
    <stop offset="0" style="stop-color:#ffc150"/>
    <stop offset=".126" style="stop-color:#ffc350"/>
    <stop offset=".177" style="stop-color:#ffca51"/>
    <stop offset=".215" style="stop-color:#ffd653"/>
    <stop offset=".246" style="stop-color:#ffe855"/>
    <stop offset=".27" style="stop-color:#fffb57"/>
    <stop offset=".429" style="stop-color:#c9fc74"/>
    <stop offset=".446" style="stop-color:#c0f688"/>
    <stop offset=".48" style="stop-color:#b2eda7"/>
    <stop offset=".518" style="stop-color:#a6e6c3"/>
    <stop offset=".56" style="stop-color:#9de0d9"/>
    <stop offset=".61" style="stop-color:#95dbea"/>
    <stop offset=".672" style="stop-color:#90d7f5"/>
    <stop offset=".759" style="stop-color:#8dd6fc"/>
    <stop offset="1" style="stop-color:#8cd5fe"/>
  </linearGradient>
  <path fill="url(#a)" d="M18.101 63.518h113.952c7.504 0 23.759-12.887 23.759-24.807V15.514c0-4.51 6.253-8.86 6.253-8.86H46.237c-9.066 0-23.916 13.209-23.916 27.063V51.92c0 9.988-4.22 11.598-4.22 11.598z"/>
  <linearGradient id="b" gradientUnits="userSpaceOnUse" x1="86.956" y1="17.285" x2="86.956" y2="63.518">
    <stop offset="0" style="stop-color:#8fd6fd"/>
    <stop offset=".081" style="stop-color:#91d7f9"/>
    <stop offset=".157" style="stop-color:#96daee"/>
    <stop offset=".23" style="stop-color:#a0e0db"/>
    <stop offset=".302" style="stop-color:#ade8c1"/>
    <stop offset=".372" style="stop-color:#bef19f"/>
    <stop offset=".434" style="stop-color:#d0fc7b"/>
  </linearGradient>
  <path fill="url(#b)" stroke="#D1FC6E" stroke-width=".75" stroke-miterlimit="10" d="M18.1 63.518h113.952c7.504 0 23.76-12.887 23.76-24.807 0-3.054-55.334 5.639-59.866-5.478-5.134-12.586-57.03-15.948-66.59-15.948-4.315 4.264-6.272 10.903-7.034 16.431v18.203c-.001 9.989-4.222 11.599-4.222 11.599z"/>
  <linearGradient id="c" gradientUnits="userSpaceOnUse" x1="81.142" y1="18.913" x2="95.774" y2="73.522">
    <stop offset="0" style="stop-color:#ffc204"/>
    <stop offset=".109" style="stop-color:#ff9d20"/>
    <stop offset=".215" style="stop-color:#ff7f37"/>
    <stop offset=".275" style="stop-color:#ff743f"/>
    <stop offset=".322" style="stop-color:#ff755c"/>
    <stop offset=".406" style="stop-color:#ff778b"/>
    <stop offset=".471" style="stop-color:#ff79a7"/>
    <stop offset=".508" style="stop-color:#ff79b2"/>
    <stop offset=".546" style="stop-color:#fd7eb6"/>
    <stop offset=".591" style="stop-color:#f98cc1"/>
    <stop offset=".64" style="stop-color:#f2a4d4"/>
    <stop offset=".691" style="stop-color:#e7c5ed"/>
    <stop offset=".709" style="stop-color:#e3d3f8"/>
    <stop offset=".746" style="stop-color:#c6dff8"/>
    <stop offset=".767" style="stop-color:#b2e7f8"/>
    <stop offset=".778" style="stop-color:#9cebed"/>
    <stop offset=".794" style="stop-color:#81f0df"/>
    <stop offset=".812" style="stop-color:#6bf3d4"/>
    <stop offset=".833" style="stop-color:#5af6cb"/>
    <stop offset=".86" style="stop-color:#4ff8c5"/>
    <stop offset=".897" style="stop-color:#48fac2"/>
    <stop offset="1" style="stop-color:#46fac1"/>
  </linearGradient>
  <path fill="url(#c)" stroke="#FBFE9F" stroke-width=".75" stroke-miterlimit="10" d="M18.064 63.518h113.953c7.503 0 23.758-12.887 23.758-24.807V17.447c0-2.215-51.431 10.712-65.927 15.625-17.584 5.96-59.397 5.96-67.563 1.611v17.235c0 9.99-4.221 11.6-4.221 11.6z"/>
  <g>
    <g opacity=".05" fill="#FFF">
      <path d="m39.792 45.034 3.819-1.605 3.437 1.605-1.756-3.437 1.756-3.438-3.628 1.377-3.628-1.377 1.986 3.438z"/>
      <path d="m39.792 45.034 3.819-1.605 3.437 1.605-1.756-3.437 1.756-3.438-3.628 1.377-3.628-1.377 1.986 3.438z"/>
      <path d="m39.792 45.034 3.819-1.605 3.437 1.605-1.756-3.437 1.756-3.438-3.628 1.377-3.628-1.377 1.986 3.438zM32.537 51.907l3.819-1.603 3.436 1.603-1.756-3.436 1.756-3.437-3.627 1.375-3.628-1.375 1.986 3.437zM47.048 51.907l3.818-1.603 3.437 1.603-1.757-3.436 1.757-3.437-3.628 1.375-3.627-1.375 1.985 3.437zM32.537 38.159l3.819-1.602 3.436 1.602-1.756-3.436 1.756-3.436-3.627 1.375-3.628-1.375 1.986 3.436zM39.792 31.287l3.819-1.604 3.437 1.604-1.756-3.437 1.756-3.437-3.628 1.375-3.628-1.375 1.986 3.437zM39.792 58.78l3.819-1.603 3.437 1.603-1.756-3.435 1.756-3.438-3.628 1.375-3.628-1.375 1.986 3.438zM54.303 58.78l3.819-1.603 3.437 1.603-1.758-3.435 1.758-3.438-3.629 1.375-3.627-1.375 1.986 3.438zM70.265 58.78l3.818-1.603 3.437 1.603-1.756-3.435 1.756-3.438-3.628 1.375-3.627-1.375 1.985 3.438zM25.282 58.78l3.819-1.603 3.436 1.603-1.756-3.435 1.756-3.438-3.627 1.375-3.628-1.375 1.986 3.438zM25.282 45.034l3.819-1.605 3.436 1.605-1.756-3.437 1.756-3.438-3.627 1.377-3.628-1.377 1.986 3.438zM25.282 31.287l3.819-1.604 3.436 1.604-1.756-3.437 1.756-3.437-3.627 1.375-3.628-1.375 1.986 3.437zM32.537 24.413l3.819-1.603 3.436 1.603-1.756-3.436 1.756-3.437-3.627 1.375-3.628-1.375 1.986 3.437z"/>
      <path d="m47.048 24.413 3.818-1.603 3.437 1.603-1.757-3.436 1.757-3.437-3.628 1.375-3.627-1.375 1.985 3.437zM39.792 17.54l3.819-1.604 3.437 1.604-1.756-3.436 1.756-3.437-3.628 1.374-3.628-1.374 1.986 3.437zM54.609 17.54l3.818-1.604 3.437 1.604-1.757-3.436 1.757-3.437-3.628 1.374-3.627-1.374 1.985 3.437zM70.265 17.54l3.818-1.604 3.437 1.604-1.756-3.436 1.756-3.437-3.628 1.374-3.627-1.374 1.985 3.437zM77.52 24.413l3.818-1.603 3.437 1.603-1.756-3.436 1.756-3.437-3.628 1.375-3.627-1.375 1.986 3.437zM84.775 17.54l3.819-1.604 3.437 1.604-1.757-3.436 1.757-3.437-3.628 1.374-3.628-1.374 1.985 3.437zM84.776 58.78l3.819-1.603 3.436 1.603-1.757-3.435 1.757-3.438-3.628 1.375-3.627-1.375 1.986 3.438zM100.203 17.54l3.817-1.604 3.436 1.604-1.754-3.436 1.754-3.437-3.627 1.374-3.626-1.374 1.984 3.437zM100.203 58.78l3.817-1.603 3.436 1.603-1.754-3.435 1.754-3.438-3.627 1.375-3.626-1.375 1.984 3.438zM115.744 17.54l3.819-1.604 3.436 1.604-1.756-3.436 1.756-3.437-3.626 1.374-3.629-1.374 1.985 3.437zM115.744 58.78l3.819-1.603 3.436 1.603-1.756-3.435 1.756-3.438-3.626 1.375-3.629-1.375 1.985 3.438zM129.491 58.78l3.819-1.603 3.436 1.603-1.755-3.435 1.755-3.438-3.627 1.375-3.628-1.375 1.986 3.438zM129.491 17.54l3.819-1.604 3.436 1.604-1.755-3.436 1.755-3.437-3.627 1.374-3.628-1.374 1.986 3.437zM136.746 24.413l3.817-1.603 3.438 1.603-1.756-3.436 1.756-3.437-3.627 1.375-3.628-1.375 1.985 3.437zM144.001 17.54l3.818-1.604 3.437 1.604-1.756-3.436 1.756-3.437-3.627 1.374-3.628-1.374 1.984 3.437zM144.001 31.287l3.818-1.604 3.437 1.604-1.756-3.437 1.756-3.437-3.627 1.375-3.628-1.375 1.984 3.437zM136.746 38.159l3.817-1.602 3.438 1.602-1.756-3.436 1.756-3.436-3.627 1.375-3.628-1.375 1.985 3.436zM136.746 51.907l3.817-1.603 3.438 1.603-1.756-3.436 1.756-3.437-3.627 1.375-3.628-1.375 1.985 3.437zM144.001 45.034l3.818-1.605 3.437 1.605-1.756-3.437 1.756-3.438-3.627 1.377-3.628-1.377 1.984 3.438zM62.094 51.563l3.818-1.603 3.436 1.603-1.755-3.436 1.755-3.437-3.627 1.374-3.627-1.374 1.986 3.437zM84.775 31.287l3.819-1.604 3.437 1.604-1.757-3.437 1.757-3.437-3.628 1.375-3.628-1.375 1.987 3.437zM69.349 44.69l3.818-1.603 3.437 1.603-1.756-3.435 1.756-3.438-3.627 1.375-3.628-1.375 1.985 3.438zM62.094 37.646l3.818-1.604 3.436 1.604-1.755-3.436 1.755-3.437-3.627 1.374-3.627-1.374 1.986 3.437z"/>
    </g>
  </g>
  <g>
    <path opacity=".3" fill="none" stroke="#FFF" stroke-width="2" stroke-miterlimit="10" d="M22.646 59.656h109.75c3.456 0 19.649-10.312 19.649-21.761V17.037c0-4.056 3.055-6.508 3.055-6.508H45.277c-6.483 0-19.954 10.648-19.954 23.104V50c-.001 10.656-2.677 9.656-2.677 9.656z"/>
    <linearGradient id="d" gradientUnits="userSpaceOnUse" x1="80.428" y1="-1.016" x2="96.992" y2="70.731">
      <stop offset="0" style="stop-color:#fe2796"/>
      <stop offset=".177" style="stop-color:#bc3d9b"/>
      <stop offset=".204" style="stop-color:#9b50b7"/>
      <stop offset=".235" style="stop-color:#7f61cf"/>
      <stop offset=".267" style="stop-color:#686ee1"/>
      <stop offset=".302" style="stop-color:#5878ef"/>
      <stop offset=".342" style="stop-color:#4f7df7"/>
      <stop offset=".397" style="stop-color:#4c7ff9"/>
      <stop offset=".582" style="stop-color:#33c846"/>
      <stop offset=".607" style="stop-color:#37c945"/>
      <stop offset=".631" style="stop-color:#43cd40"/>
      <stop offset=".657" style="stop-color:#58d239"/>
      <stop offset=".682" style="stop-color:#75db2e"/>
      <stop offset=".708" style="stop-color:#9ae521"/>
      <stop offset=".733" style="stop-color:#c6f211"/>
      <stop offset=".757" style="stop-color:#f6ff00"/>
      <stop offset=".812" style="stop-color:#f6fd01"/>
      <stop offset=".832" style="stop-color:#f7f603"/>
      <stop offset=".846" style="stop-color:#f7eb06"/>
      <stop offset=".857" style="stop-color:#f8da0b"/>
      <stop offset=".867" style="stop-color:#fac411"/>
      <stop offset=".876" style="stop-color:#fba819"/>
      <stop offset=".883" style="stop-color:#fd8923"/>
      <stop offset=".889" style="stop-color:#ff6d2b"/>
      <stop offset=".893" style="stop-color:#f6673a"/>
      <stop offset=".904" style="stop-color:#e45a58"/>
      <stop offset=".915" style="stop-color:#d54f70"/>
      <stop offset=".928" style="stop-color:#ca4783"/>
      <stop offset=".944" style="stop-color:#c24191"/>
      <stop offset=".963" style="stop-color:#bd3e99"/>
      <stop offset="1" style="stop-color:#bc3d9b"/>
    </linearGradient>
    <path fill="none" stroke="url(#d)" stroke-width="2" stroke-miterlimit="10" d="M21.346 61.625h109.675c7.412 0 22.813-11.863 22.813-23.292V16.098c0-4.325 3.949-7.723 3.949-7.723H45.255c-7.949 0-21.755 11.897-21.755 25.177V51c0 9.576-2.154 10.625-2.154 10.625z"/>
    <linearGradient id="e" gradientUnits="userSpaceOnUse" x1="78.155" y1="-3.782" x2="98.891" y2="73.604">
      <stop offset="0" style="stop-color:#c7802d"/>
      <stop offset=".302" style="stop-color:#fbe251"/>
      <stop offset=".412" style="stop-color:#eac145"/>
      <stop offset=".603" style="stop-color:#c7802d"/>
      <stop offset=".628" style="stop-color:#cf8e32"/>
      <stop offset=".691" style="stop-color:#dfad3d"/>
      <stop offset=".756" style="stop-color:#ebc446"/>
      <stop offset=".826" style="stop-color:#f4d54c"/>
      <stop offset=".903" style="stop-color:#f9df50"/>
      <stop offset="1" style="stop-color:#fbe251"/>
    </linearGradient>
    <path fill="none" stroke="url(#e)" stroke-width="2" stroke-miterlimit="10" d="M17.363 63.46h114.423c7.533 0 23.856-12.939 23.856-24.909V15.259c0-4.529 6.278-8.896 6.278-8.896H45.615c-9.104 0-24.015 13.264-24.015 27.174v18.278c.001 10.029-4.237 11.645-4.237 11.645z"/>
  </g>
  <g>
    <linearGradient id="f" gradientUnits="userSpaceOnUse" x1="147.523" y1="26.306" x2="145.497" y2="37.793">
      <stop offset="0" style="stop-color:#2914f5"/>
      <stop offset=".243" style="stop-color:#cf07b5"/>
      <stop offset=".293" style="stop-color:#ba09bd"/>
      <stop offset=".41" style="stop-color:#8e0cce"/>
      <stop offset=".529" style="stop-color:#6a0fdc"/>
      <stop offset=".647" style="stop-color:#4d11e7"/>
      <stop offset=".765" style="stop-color:#3913ef"/>
      <stop offset=".883" style="stop-color:#2d14f3"/>
      <stop offset="1" style="stop-color:#2914f5"/>
    </linearGradient>
    <path fill="none" stroke="url(#f)" stroke-width="5" stroke-miterlimit="10" d="M143.285 28.092c-2.78-.299-1.186 4.951 1.364 6.595 2.211 1.426 7.384 1.436 6.597-1.362"/>
    <linearGradient id="g" gradientUnits="userSpaceOnUse" x1="158.242" y1="25.019" x2="155.904" y2="38.278">
      <stop offset=".518" style="stop-color:#cf07b5"/>
      <stop offset=".546" style="stop-color:#bd08bc"/>
      <stop offset=".622" style="stop-color:#900ccd"/>
      <stop offset=".7" style="stop-color:#6b0fdc"/>
      <stop offset=".776" style="stop-color:#4e11e7"/>
      <stop offset=".852" style="stop-color:#3a13ef"/>
      <stop offset=".927" style="stop-color:#2d14f3"/>
      <stop offset="1" style="stop-color:#2914f5"/>
    </linearGradient>
    <path fill="none" stroke="url(#g)" stroke-width="5" stroke-miterlimit="10" d="M160.327 28.092c2.691-.763 1.423 4.995-1.364 6.595-2.031 1.167-7.438 1.421-6.597-1.362"/>
    <linearGradient id="h" gradientUnits="userSpaceOnUse" x1="143.663" y1="13.809" x2="140.882" y2="29.581">
      <stop offset="0" style="stop-color:#2914f5"/>
      <stop offset=".518" style="stop-color:#cf07b5"/>
    </linearGradient>
    <path fill="none" stroke="url(#h)" stroke-width="5" stroke-miterlimit="10" d="M145.933 17.581c-1.052-2.798-5.036.632-5.986 3.083-1.151 2.97 1.433 8.381 3.08 5.989"/>
    <linearGradient id="i" gradientUnits="userSpaceOnUse" x1="161.768" y1="14.36" x2="159.166" y2="29.114">
      <stop offset="0" style="stop-color:#2914f5"/>
      <stop offset=".518" style="stop-color:#cf07b5"/>
    </linearGradient>
    <path fill="none" stroke="url(#i)" stroke-width="5" stroke-miterlimit="10" d="M157.801 17.369c.515-2.748 5.003.956 5.729 3.539.73 2.596-.896 6.947-3.537 5.732"/>
    <path fill="none" stroke="#2914F5" stroke-width="5" stroke-miterlimit="10" d="M147.011 17.163c-2.013-1.941 2.132-4.762 4.763-4.762s6.552 2.471 4.764 4.762"/>
    <linearGradient id="j" gradientUnits="userSpaceOnUse" x1="148.65" y1="15.117" x2="147.178" y2="23.467">
      <stop offset="0" style="stop-color:#2914f5"/>
      <stop offset=".518" style="stop-color:#cf07b5"/>
    </linearGradient>
    <path fill="none" stroke="url(#j)" stroke-width="5" stroke-miterlimit="10" d="m145.978 16.404 3.871 5.776"/>
    <path fill="none" stroke="#CF07B5" stroke-width="5" stroke-miterlimit="10" d="m142.1 27.566 6.643-1.981"/>
    <linearGradient id="k" gradientUnits="userSpaceOnUse" x1="152.374" y1="27.321" x2="151.054" y2="34.805">
      <stop offset="0" style="stop-color:#cf07b5"/>
      <stop offset=".192" style="stop-color:#cc07b6"/>
      <stop offset=".348" style="stop-color:#c208ba"/>
      <stop offset=".491" style="stop-color:#b109c1"/>
      <stop offset=".626" style="stop-color:#990bca"/>
      <stop offset=".757" style="stop-color:#7a0ed6"/>
      <stop offset=".881" style="stop-color:#5411e4"/>
      <stop offset="1" style="stop-color:#2914f5"/>
    </linearGradient>
    <path fill="none" stroke="url(#k)" stroke-width="5" stroke-miterlimit="10" d="m151.788 34.439-.148-6.751"/>
    <path fill="none" stroke="#CF07B5" stroke-width="5" stroke-miterlimit="10" d="m161.366 27.277-6.831-1.692"/>
    <linearGradient id="l" gradientUnits="userSpaceOnUse" x1="156.235" y1="14.963" x2="154.735" y2="23.474">
      <stop offset="0" style="stop-color:#2914f5"/>
      <stop offset=".518" style="stop-color:#cf07b5"/>
    </linearGradient>
    <path fill="none" stroke="url(#l)" stroke-width="5" stroke-miterlimit="10" d="m157.54 16.256-4.11 5.924"/>
    <linearGradient id="m" gradientUnits="userSpaceOnUse" x1="153.025" y1="13.153" x2="149.186" y2="34.926">
      <stop offset="0" style="stop-color:#2914f5"/>
      <stop offset=".518" style="stop-color:#cf07b5"/>
      <stop offset=".579" style="stop-color:#c308ba"/>
      <stop offset=".688" style="stop-color:#a20bc6"/>
      <stop offset=".835" style="stop-color:#6c0fdb"/>
      <stop offset="1" style="stop-color:#2914f5"/>
    </linearGradient>
    <path fill="none" stroke="url(#m)" stroke-width="5" stroke-miterlimit="10" d="m151.64 18.555 1.79 3.625 4.001.581-2.896 2.824.685 3.986-3.58-1.883-3.579 1.883.682-3.986-2.895-2.824 4.001-.581z"/>
    <g fill="none" stroke="#F596AA" stroke-width="3" stroke-miterlimit="10">
      <path d="M163.731 22.472a6.22 6.22 0 0 0-6.098-6.215 6.218 6.218 0 0 0-11.564.148c-.038 0-.076-.004-.117-.004a6.22 6.22 0 0 0-6.221 6.221 6.2 6.2 0 0 0 2.46 4.945 6.215 6.215 0 0 0-.312 1.938 6.222 6.222 0 0 0 6.221 6.221 6.196 6.196 0 0 0 3.78-1.287 6.18 6.18 0 0 0 3.775 1.287 6.22 6.22 0 0 0 6.221-6.221 6.15 6.15 0 0 0-.419-2.228 6.195 6.195 0 0 0 2.274-4.805zM146.07 16.404l3.872 5.776M157.634 16.256l-4.112 5.924M161.459 27.277l-6.831-1.692M151.882 34.439l-.15-6.751M142.192 27.566l6.645-1.981"/>
    </g>
    <g>
      <path fill="#F596AA" d="m151.732 29.382-5.571 2.932 1.065-6.205-4.509-4.397 6.229-.903 2.786-5.642 2.787 5.642 6.229.903-4.508 4.397 1.066 6.205z"/>
      <path fill="none" stroke="#FFF" stroke-width="1.5" stroke-miterlimit="10" d="m151.732 18.555 1.79 3.625 4.002.581-2.896 2.824.685 3.986-3.581-1.883-3.579 1.883.684-3.986-2.897-2.824 4.002-.581z"/>
    </g>
    <path fill="none" stroke="#FFF" stroke-width="1.5" stroke-miterlimit="10" d="M152.238 12.166c2.354.24 4.807 1.896 5.343 4.039M163.657 20.892c.519 2.309-.274 5.159-2.138 6.347M158.826 34.896c-2.074 1.139-5.032 1.169-6.691-.289M143.931 34.261c-1.773-1.568-2.8-4.342-1.987-6.396M140.022 20.066c.99-2.15 3.35-3.934 5.551-3.75"/>
    <g>
      <path fill="#FFF" d="M156.54 17.616s.008.292-.091.658c-.093.37-.286.817-.547 1.219a4.24 4.24 0 0 1-.903.985c-.297.235-.569.343-.569.343s-.009-.293.09-.659c.092-.37.287-.816.548-1.218a4.26 4.26 0 0 1 .904-.984c.297-.235.568-.344.568-.344z"/>
    </g>
    <g>
      <path fill="#FFF" d="M160.32 26.576s-.265.124-.639.18a4.208 4.208 0 0 1-2.6-.446c-.334-.178-.542-.385-.542-.385s.265-.125.64-.181a4.228 4.228 0 0 1 1.335.014c.473.085.931.249 1.264.435.334.177.542.383.542.383z"/>
    </g>
    <g>
      <path fill="#FFF" d="M151.956 29.852s.162.243.274.605c.119.362.193.843.188 1.323a4.23 4.23 0 0 1-.238 1.314c-.126.357-.299.594-.299.594s-.163-.243-.275-.605a4.226 4.226 0 0 1-.187-1.323c.013-.479.106-.958.239-1.314.126-.358.298-.594.298-.594z"/>
    </g>
    <g>
      <path fill="#FFF" d="M147.192 26.081s-.188.223-.506.431a4.208 4.208 0 0 1-2.549.681 2.51 2.51 0 0 1-.653-.123s.188-.224.506-.432a4.177 4.177 0 0 1 2.549-.678c.379.021.653.121.653.121z"/>
    </g>
    <g>
      <path fill="#FFF" d="M148.801 20.737s-.279-.088-.593-.3a4.203 4.203 0 0 1-1.613-2.088c-.125-.357-.139-.65-.139-.65s.279.087.594.299a4.214 4.214 0 0 1 1.611 2.09c.126.357.14.649.14.649z"/>
    </g>
    <g>
      <linearGradient id="n" gradientUnits="userSpaceOnUse" x1="20.473" y1="45.91" x2="18.448" y2="57.397">
        <stop offset="0" style="stop-color:#2914f5"/>
        <stop offset=".243" style="stop-color:#cf07b5"/>
        <stop offset=".293" style="stop-color:#ba09bd"/>
        <stop offset=".41" style="stop-color:#8e0cce"/>
        <stop offset=".529" style="stop-color:#6a0fdc"/>
        <stop offset=".647" style="stop-color:#4d11e7"/>
        <stop offset=".765" style="stop-color:#3913ef"/>
        <stop offset=".883" style="stop-color:#2d14f3"/>
        <stop offset="1" style="stop-color:#2914f5"/>
      </linearGradient>
      <path fill="none" stroke="url(#n)" stroke-width="5" stroke-miterlimit="10" d="M16.237 47.695c-2.78-.299-1.186 4.951 1.364 6.595 2.211 1.426 7.384 1.436 6.597-1.362"/>
      <linearGradient id="o" gradientUnits="userSpaceOnUse" x1="31.194" y1="44.623" x2="28.856" y2="57.882">
        <stop offset=".518" style="stop-color:#cf07b5"/>
        <stop offset=".546" style="stop-color:#bd08bc"/>
        <stop offset=".622" style="stop-color:#900ccd"/>
        <stop offset=".7" style="stop-color:#6b0fdc"/>
        <stop offset=".776" style="stop-color:#4e11e7"/>
        <stop offset=".852" style="stop-color:#3a13ef"/>
        <stop offset=".927" style="stop-color:#2d14f3"/>
        <stop offset="1" style="stop-color:#2914f5"/>
      </linearGradient>
      <path fill="none" stroke="url(#o)" stroke-width="5" stroke-miterlimit="10" d="M33.279 47.695c2.691-.763 1.423 4.994-1.364 6.595-2.031 1.167-7.438 1.421-6.597-1.362"/>
      <linearGradient id="p" gradientUnits="userSpaceOnUse" x1="16.615" y1="33.412" x2="13.834" y2="49.185">
        <stop offset="0" style="stop-color:#2914f5"/>
        <stop offset=".518" style="stop-color:#cf07b5"/>
      </linearGradient>
      <path fill="none" stroke="url(#p)" stroke-width="5" stroke-miterlimit="10" d="M18.885 37.184c-1.052-2.798-5.036.633-5.986 3.084-1.151 2.97 1.433 8.381 3.08 5.988"/>
      <linearGradient id="q" gradientUnits="userSpaceOnUse" x1="34.72" y1="33.964" x2="32.118" y2="48.718">
        <stop offset="0" style="stop-color:#2914f5"/>
        <stop offset=".518" style="stop-color:#cf07b5"/>
      </linearGradient>
      <path fill="none" stroke="url(#q)" stroke-width="5" stroke-miterlimit="10" d="M30.753 36.973c.515-2.748 5.003.955 5.729 3.539.73 2.596-.896 6.946-3.537 5.732"/>
      <path fill="none" stroke="#2914F5" stroke-width="5" stroke-miterlimit="10" d="M19.963 36.766c-2.013-1.941 2.132-4.761 4.763-4.761s6.552 2.471 4.764 4.761"/>
      <linearGradient id="r" gradientUnits="userSpaceOnUse" x1="21.601" y1="34.721" x2="20.129" y2="43.07">
        <stop offset="0" style="stop-color:#2914f5"/>
        <stop offset=".518" style="stop-color:#cf07b5"/>
      </linearGradient>
      <path fill="none" stroke="url(#r)" stroke-width="5" stroke-miterlimit="10" d="m18.93 36.008 3.871 5.775"/>
      <path fill="none" stroke="#CF07B5" stroke-width="5" stroke-miterlimit="10" d="m15.052 47.17 6.643-1.981"/>
      <linearGradient id="s" gradientUnits="userSpaceOnUse" x1="25.326" y1="46.925" x2="24.006" y2="54.409">
        <stop offset="0" style="stop-color:#cf07b5"/>
        <stop offset=".192" style="stop-color:#cc07b6"/>
        <stop offset=".348" style="stop-color:#c208ba"/>
        <stop offset=".491" style="stop-color:#b109c1"/>
        <stop offset=".626" style="stop-color:#990bca"/>
        <stop offset=".757" style="stop-color:#7a0ed6"/>
        <stop offset=".881" style="stop-color:#5411e4"/>
        <stop offset="1" style="stop-color:#2914f5"/>
      </linearGradient>
      <path fill="none" stroke="url(#s)" stroke-width="5" stroke-miterlimit="10" d="m24.74 54.043-.148-6.752"/>
      <path fill="none" stroke="#CF07B5" stroke-width="5" stroke-miterlimit="10" d="m34.318 46.881-6.831-1.692"/>
      <linearGradient id="t" gradientUnits="userSpaceOnUse" x1="29.188" y1="34.566" x2="27.687" y2="43.076">
        <stop offset="0" style="stop-color:#2914f5"/>
        <stop offset=".518" style="stop-color:#cf07b5"/>
      </linearGradient>
      <path fill="none" stroke="url(#t)" stroke-width="5" stroke-miterlimit="10" d="m30.492 35.86-4.11 5.923"/>
      <linearGradient id="u" gradientUnits="userSpaceOnUse" x1="25.977" y1="32.757" x2="22.139" y2="54.529">
        <stop offset="0" style="stop-color:#2914f5"/>
        <stop offset=".518" style="stop-color:#cf07b5"/>
        <stop offset=".579" style="stop-color:#c308ba"/>
        <stop offset=".688" style="stop-color:#a20bc6"/>
        <stop offset=".835" style="stop-color:#6c0fdb"/>
        <stop offset="1" style="stop-color:#2914f5"/>
      </linearGradient>
      <path fill="none" stroke="url(#u)" stroke-width="5" stroke-miterlimit="10" d="m24.592 38.158 1.79 3.625 4.001.581-2.896 2.825.685 3.985-3.58-1.883-3.579 1.883.682-3.985-2.895-2.825 4.001-.581z"/>
      <g fill="none" stroke="#F596AA" stroke-width="3" stroke-miterlimit="10">
        <path d="M36.684 42.075a6.22 6.22 0 0 0-6.098-6.215 6.218 6.218 0 0 0-11.564.148c-.038 0-.076-.004-.117-.004a6.22 6.22 0 0 0-6.221 6.221 6.2 6.2 0 0 0 2.46 4.945 6.222 6.222 0 0 0 5.909 8.16 6.202 6.202 0 0 0 3.78-1.286 6.179 6.179 0 0 0 3.775 1.286 6.22 6.22 0 0 0 6.221-6.222c0-.787-.151-1.535-.419-2.227a6.2 6.2 0 0 0 2.274-4.806zM19.022 36.008l3.873 5.775M30.586 35.86l-4.111 5.923M34.411 46.881l-6.831-1.692M24.834 54.043l-.149-6.752M15.145 47.17l6.644-1.981"/>
      </g>
      <g>
        <path fill="#F596AA" d="m24.685 48.986-5.572 2.932 1.065-6.205-4.509-4.397 6.229-.904 2.787-5.642 2.786 5.642 6.229.904-4.508 4.397 1.066 6.205z"/>
        <path fill="none" stroke="#FFF" stroke-width="1.5" stroke-miterlimit="10" d="m24.685 38.158 1.79 3.625 4.002.581-2.897 2.825.685 3.985-3.58-1.883-3.58 1.883.684-3.985-2.896-2.825 4.002-.581z"/>
      </g>
      <path fill="none" stroke="#FFF" stroke-width="1.5" stroke-miterlimit="10" d="M25.19 31.769c2.354.24 4.807 1.896 5.343 4.039M36.609 40.495c.519 2.31-.274 5.159-2.138 6.347M31.778 54.499c-2.074 1.139-5.032 1.169-6.691-.289M16.883 53.865c-1.773-1.568-2.8-4.343-1.987-6.396M12.975 39.67c.99-2.15 3.35-3.935 5.551-3.75"/>
      <g>
        <path fill="#FFF" d="M29.492 37.22s.008.292-.091.657a4.264 4.264 0 0 1-.547 1.22 4.22 4.22 0 0 1-.903.985c-.297.234-.569.342-.569.342s-.009-.293.09-.658c.092-.37.287-.816.548-1.219.267-.398.601-.753.904-.983.297-.236.568-.344.568-.344z"/>
      </g>
      <g>
        <path fill="#FFF" d="M33.272 46.18s-.265.123-.639.18a4.18 4.18 0 0 1-2.6-.447c-.334-.179-.542-.385-.542-.385s.265-.125.64-.181a4.228 4.228 0 0 1 1.335.014c.473.085.931.248 1.264.435.334.178.542.384.542.384z"/>
      </g>
      <g>
        <path fill="#FFF" d="M24.908 49.455s.162.243.274.605c.119.361.193.843.188 1.322a4.235 4.235 0 0 1-.238 1.314c-.126.357-.299.594-.299.594s-.163-.243-.275-.605a4.22 4.22 0 0 1-.187-1.322c.013-.479.106-.957.239-1.314.126-.358.298-.594.298-.594z"/>
      </g>
      <g>
        <path fill="#FFF" d="M20.145 45.685s-.188.224-.506.431c-.314.215-.757.42-1.22.547-.464.12-.948.164-1.329.135-.378-.023-.653-.123-.653-.123s.188-.225.506-.432c.314-.217.757-.42 1.22-.546.464-.12.949-.163 1.329-.134.378.022.653.122.653.122z"/>
      </g>
      <g>
        <path fill="#FFF" d="M21.753 40.341s-.279-.088-.593-.3a4.203 4.203 0 0 1-1.613-2.088c-.125-.357-.139-.65-.139-.65s.279.087.594.299a4.214 4.214 0 0 1 1.611 2.09c.126.357.14.649.14.649z"/>
      </g>
    </g>
    <g>
      <linearGradient id="v" gradientUnits="userSpaceOnUse" x1="131.308" y1="5.381" x2="128.134" y2="23.378">
        <stop offset="0" style="stop-color:#2914f5"/>
        <stop offset=".518" style="stop-color:#cf07b5"/>
        <stop offset=".579" style="stop-color:#c308ba"/>
        <stop offset=".688" style="stop-color:#a20bc6"/>
        <stop offset=".835" style="stop-color:#6c0fdb"/>
        <stop offset="1" style="stop-color:#2914f5"/>
      </linearGradient>
      <path fill="#F596AA" stroke="url(#v)" stroke-miterlimit="10" d="M138.649 13.043a4.512 4.512 0 0 0-4.423-4.508 4.51 4.51 0 0 0-4.173-2.797 4.512 4.512 0 0 0-4.212 2.905c-.028-.001-.057-.005-.085-.005a4.512 4.512 0 0 0-4.513 4.513c0 1.466.701 2.763 1.784 3.587a4.512 4.512 0 0 0 4.286 5.917c1.031 0 1.98-.35 2.74-.933.76.583 1.707.933 2.738.933a4.514 4.514 0 0 0 4.514-4.513c0-.57-.111-1.112-.304-1.614a4.499 4.499 0 0 0 1.648-3.485z"/>
      <circle fill="#CF07B5" cx="129.947" cy="14.638" r=".441"/>
      <path fill="none" stroke="#2914F5" stroke-width=".75" stroke-miterlimit="10" d="M130.215 6.703c1.551.302 2.545 1.277 3.101 2.555"/>
      <linearGradient id="w" gradientUnits="userSpaceOnUse" x1="124.468" y1="9.124" x2="123.942" y2="12.108">
        <stop offset="0" style="stop-color:#2914f5"/>
        <stop offset=".518" style="stop-color:#cf07b5"/>
      </linearGradient>
      <path fill="none" stroke="url(#w)" stroke-width=".75" stroke-miterlimit="10" d="M122.558 11.716c.854-1.329 2.128-1.891 3.521-1.936"/>
      <linearGradient id="x" gradientUnits="userSpaceOnUse" x1="-26.597" y1="-51.937" x2="-27.123" y2="-48.952" gradientTransform="rotate(145.195 44.82 7.546)">
        <stop offset="0" style="stop-color:#cf07b5"/>
        <stop offset=".181" style="stop-color:#cc07b6"/>
        <stop offset=".337" style="stop-color:#c108ba"/>
        <stop offset=".483" style="stop-color:#af09c1"/>
        <stop offset=".623" style="stop-color:#960bcb"/>
        <stop offset=".759" style="stop-color:#760ed7"/>
        <stop offset=".891" style="stop-color:#4f11e6"/>
        <stop offset="1" style="stop-color:#2914f5"/>
      </linearGradient>
      <path fill="none" stroke="url(#x)" stroke-width=".75" stroke-miterlimit="10" d="M137.5 12.4c.057 1.579-.668 2.769-1.786 3.6"/>
      <linearGradient id="y" gradientUnits="userSpaceOnUse" x1="58.243" y1="81.255" x2="57.717" y2="84.24" gradientTransform="rotate(-73.381 48.383 6.138)">
        <stop offset="0" style="stop-color:#cf07b5"/>
        <stop offset="1" style="stop-color:#2914f5"/>
      </linearGradient>
      <path fill="none" stroke="url(#y)" stroke-width=".75" stroke-miterlimit="10" d="M125.121 20.748c-1.029-1.2-1.205-2.581-.849-3.928"/>
      <path fill="none" stroke="#2914F5" stroke-width=".75" stroke-miterlimit="10" d="M134.462 21.329c-1.52.433-2.848.014-3.923-.874"/>
      <linearGradient id="z" gradientUnits="userSpaceOnUse" x1="130.436" y1="16.467" x2="129.994" y2="18.977">
        <stop offset=".164" style="stop-color:#cf07b5"/>
        <stop offset=".359" style="stop-color:#cc07b6"/>
        <stop offset=".49" style="stop-color:#c308b9"/>
        <stop offset=".602" style="stop-color:#b409bf"/>
        <stop offset=".703" style="stop-color:#9f0bc8"/>
        <stop offset=".798" style="stop-color:#830dd2"/>
        <stop offset=".886" style="stop-color:#6110df"/>
        <stop offset=".97" style="stop-color:#3a13ef"/>
        <stop offset="1" style="stop-color:#2914f5"/>
      </linearGradient>
      <path fill="url(#z)" d="M130.215 16.472s.08.156.141.391a3.45 3.45 0 0 1 0 1.718c-.06.234-.141.391-.141.391s-.08-.156-.141-.391a3.417 3.417 0 0 1 0-1.718c.061-.235.141-.391.141-.391z"/>
      <linearGradient id="A" gradientUnits="userSpaceOnUse" x1="127.179" y1="15.14" x2="126.876" y2="16.86">
        <stop offset=".164" style="stop-color:#cf07b5"/>
        <stop offset=".359" style="stop-color:#cc07b6"/>
        <stop offset=".49" style="stop-color:#c308b9"/>
        <stop offset=".602" style="stop-color:#b409bf"/>
        <stop offset=".703" style="stop-color:#9f0bc8"/>
        <stop offset=".798" style="stop-color:#830dd2"/>
        <stop offset=".886" style="stop-color:#6110df"/>
        <stop offset=".97" style="stop-color:#3a13ef"/>
        <stop offset="1" style="stop-color:#2914f5"/>
      </linearGradient>
      <path fill="url(#A)" d="M128.188 15.534s-.115.132-.311.276a3.508 3.508 0 0 1-.756.422 3.496 3.496 0 0 1-.838.219c-.24.032-.416.015-.416.015s.115-.133.311-.276c.195-.143.465-.308.756-.422.289-.119.6-.186.839-.219.239-.031.415-.015.415-.015z"/>
      <linearGradient id="B" gradientUnits="userSpaceOnUse" x1="128.344" y1="11.958" x2="127.639" y2="12.841">
        <stop offset=".143" style="stop-color:#2914f5"/>
        <stop offset=".245" style="stop-color:#3e12ed"/>
        <stop offset=".767" style="stop-color:#a60ac5"/>
        <stop offset="1" style="stop-color:#cf07b5"/>
      </linearGradient>
      <path fill="url(#B)" d="M128.732 13.405s-.156-.078-.344-.231a3.474 3.474 0 0 1-.599-.626 3.47 3.47 0 0 1-.422-.756c-.091-.225-.118-.398-.118-.398s.157.078.345.231c.187.153.415.373.598.626.188.25.33.533.421.756.092.225.119.398.119.398z"/>
      <g>
        <linearGradient id="C" gradientUnits="userSpaceOnUse" x1="132.269" y1="11.232" x2="131.261" y2="13.566">
          <stop offset=".143" style="stop-color:#2914f5"/>
          <stop offset=".245" style="stop-color:#3e12ed"/>
          <stop offset=".767" style="stop-color:#a60ac5"/>
          <stop offset="1" style="stop-color:#cf07b5"/>
        </linearGradient>
        <path fill="url(#C)" d="M130.979 13.372s.036-.172.136-.392a3.54 3.54 0 0 1 .455-.737c.194-.245.432-.455.625-.6.194-.145.355-.215.355-.215s-.036.172-.137.392a3.457 3.457 0 0 1-1.08 1.336c-.193.144-.354.216-.354.216z"/>
      </g>
      <g>
        <linearGradient id="D" gradientUnits="userSpaceOnUse" x1="133.378" y1="15.181" x2="133.253" y2="15.888">
          <stop offset="0" style="stop-color:#2914f5"/>
          <stop offset=".12" style="stop-color:#3e12ed"/>
          <stop offset=".728" style="stop-color:#a60ac5"/>
          <stop offset="1" style="stop-color:#cf07b5"/>
        </linearGradient>
        <path fill="url(#D)" d="M132.109 15.209s.171-.037.413-.034c.241.004.558.033.858.117.302.078.59.21.801.329.211.119.34.237.34.237s-.172.037-.413.034a3.464 3.464 0 0 1-1.659-.447 1.984 1.984 0 0 1-.34-.236z"/>
      </g>
    </g>
    <g>
      <linearGradient id="E" gradientUnits="userSpaceOnUse" x1="49.14" y1="44.488" x2="45.967" y2="62.484">
        <stop offset="0" style="stop-color:#2914f5"/>
        <stop offset=".518" style="stop-color:#cf07b5"/>
        <stop offset=".579" style="stop-color:#c308ba"/>
        <stop offset=".688" style="stop-color:#a20bc6"/>
        <stop offset=".835" style="stop-color:#6c0fdb"/>
        <stop offset="1" style="stop-color:#2914f5"/>
      </linearGradient>
      <path fill="#F596AA" stroke="url(#E)" stroke-miterlimit="10" d="M56.482 52.15a4.511 4.511 0 0 0-4.423-4.508 4.51 4.51 0 0 0-8.385.107c-.028 0-.057-.004-.085-.004a4.512 4.512 0 0 0-4.513 4.512c0 1.467.701 2.764 1.784 3.588a4.512 4.512 0 0 0 4.286 5.916c1.031 0 1.98-.35 2.74-.932.76.582 1.707.932 2.738.932a4.513 4.513 0 0 0 4.514-4.512c0-.57-.111-1.113-.304-1.615a4.494 4.494 0 0 0 1.648-3.484z"/>
      <circle fill="#CF07B5" cx="47.78" cy="53.744" r=".441"/>
      <path fill="none" stroke="#2914F5" stroke-width=".75" stroke-miterlimit="10" d="M48.048 45.811c1.551.301 2.545 1.277 3.101 2.555"/>
      <linearGradient id="F" gradientUnits="userSpaceOnUse" x1="42.302" y1="48.23" x2="41.776" y2="51.215">
        <stop offset="0" style="stop-color:#2914f5"/>
        <stop offset=".518" style="stop-color:#cf07b5"/>
      </linearGradient>
      <path fill="none" stroke="url(#F)" stroke-width=".75" stroke-miterlimit="10" d="M40.391 50.823c.854-1.329 2.128-1.892 3.521-1.937"/>
      <linearGradient id="G" gradientUnits="userSpaceOnUse" x1="63.192" y1="-37.145" x2="62.666" y2="-34.16" gradientTransform="rotate(145.195 44.82 7.546)">
        <stop offset="0" style="stop-color:#cf07b5"/>
        <stop offset=".181" style="stop-color:#cc07b6"/>
        <stop offset=".337" style="stop-color:#c108ba"/>
        <stop offset=".483" style="stop-color:#af09c1"/>
        <stop offset=".623" style="stop-color:#960bcb"/>
        <stop offset=".759" style="stop-color:#760ed7"/>
        <stop offset=".891" style="stop-color:#4f11e6"/>
        <stop offset="1" style="stop-color:#2914f5"/>
      </linearGradient>
      <path fill="none" stroke="url(#G)" stroke-width=".75" stroke-miterlimit="10" d="M55.333 51.507c.057 1.579-.668 2.769-1.786 3.601"/>
      <linearGradient id="H" gradientUnits="userSpaceOnUse" x1="-2.732" y1="13.707" x2="-3.258" y2="16.693" gradientTransform="rotate(-73.381 48.383 6.138)">
        <stop offset="0" style="stop-color:#cf07b5"/>
        <stop offset="1" style="stop-color:#2914f5"/>
      </linearGradient>
      <path fill="none" stroke="url(#H)" stroke-width=".75" stroke-miterlimit="10" d="M42.954 59.855c-1.029-1.201-1.205-2.581-.849-3.929"/>
      <path fill="none" stroke="#2914F5" stroke-width=".75" stroke-miterlimit="10" d="M52.295 60.436c-1.52.434-2.848.014-3.923-.873"/>
      <linearGradient id="I" gradientUnits="userSpaceOnUse" x1="48.27" y1="55.573" x2="47.827" y2="58.083">
        <stop offset=".164" style="stop-color:#cf07b5"/>
        <stop offset=".359" style="stop-color:#cc07b6"/>
        <stop offset=".49" style="stop-color:#c308b9"/>
        <stop offset=".602" style="stop-color:#b409bf"/>
        <stop offset=".703" style="stop-color:#9f0bc8"/>
        <stop offset=".798" style="stop-color:#830dd2"/>
        <stop offset=".886" style="stop-color:#6110df"/>
        <stop offset=".97" style="stop-color:#3a13ef"/>
        <stop offset="1" style="stop-color:#2914f5"/>
      </linearGradient>
      <path fill="url(#I)" d="M48.048 55.578s.08.156.141.391a3.45 3.45 0 0 1 0 1.718c-.06.234-.141.391-.141.391s-.08-.156-.141-.391a3.417 3.417 0 0 1 0-1.718c.061-.235.141-.391.141-.391z"/>
      <linearGradient id="J" gradientUnits="userSpaceOnUse" x1="45.012" y1="54.247" x2="44.709" y2="55.967">
        <stop offset=".164" style="stop-color:#cf07b5"/>
        <stop offset=".359" style="stop-color:#cc07b6"/>
        <stop offset=".49" style="stop-color:#c308b9"/>
        <stop offset=".602" style="stop-color:#b409bf"/>
        <stop offset=".703" style="stop-color:#9f0bc8"/>
        <stop offset=".798" style="stop-color:#830dd2"/>
        <stop offset=".886" style="stop-color:#6110df"/>
        <stop offset=".97" style="stop-color:#3a13ef"/>
        <stop offset="1" style="stop-color:#2914f5"/>
      </linearGradient>
      <path fill="url(#J)" d="M46.021 54.641s-.115.133-.311.275-.465.309-.756.423a3.55 3.55 0 0 1-.838.22c-.24.031-.416.015-.416.015s.115-.133.311-.276a3.425 3.425 0 0 1 1.595-.641c.239-.032.415-.016.415-.016z"/>
      <linearGradient id="K" gradientUnits="userSpaceOnUse" x1="46.177" y1="51.065" x2="45.473" y2="51.949">
        <stop offset=".143" style="stop-color:#2914f5"/>
        <stop offset=".245" style="stop-color:#3e12ed"/>
        <stop offset=".767" style="stop-color:#a60ac5"/>
        <stop offset="1" style="stop-color:#cf07b5"/>
      </linearGradient>
      <path fill="url(#K)" d="M46.565 52.512s-.156-.078-.344-.23a3.45 3.45 0 0 1-1.021-1.383c-.091-.225-.118-.397-.118-.397s.157.078.345.231a3.44 3.44 0 0 1 1.019 1.383c.092.224.119.396.119.396z"/>
      <g>
        <linearGradient id="L" gradientUnits="userSpaceOnUse" x1="50.102" y1="50.34" x2="49.094" y2="52.673">
          <stop offset=".143" style="stop-color:#2914f5"/>
          <stop offset=".245" style="stop-color:#3e12ed"/>
          <stop offset=".767" style="stop-color:#a60ac5"/>
          <stop offset="1" style="stop-color:#cf07b5"/>
        </linearGradient>
        <path fill="url(#L)" d="M48.813 52.479s.036-.172.136-.392a3.54 3.54 0 0 1 .455-.737c.194-.244.432-.455.625-.6.194-.145.355-.215.355-.215s-.036.172-.137.392-.256.495-.455.737a3.532 3.532 0 0 1-.625.599 2.13 2.13 0 0 1-.354.216z"/>
      </g>
      <g>
        <linearGradient id="M" gradientUnits="userSpaceOnUse" x1="51.211" y1="54.287" x2="51.086" y2="54.995">
          <stop offset="0" style="stop-color:#2914f5"/>
          <stop offset=".12" style="stop-color:#3e12ed"/>
          <stop offset=".728" style="stop-color:#a60ac5"/>
          <stop offset="1" style="stop-color:#cf07b5"/>
        </linearGradient>
        <path fill="url(#M)" d="M49.942 54.316s.171-.037.413-.034c.241.004.558.033.858.117.302.078.59.21.801.329s.34.236.34.236-.171.038-.413.036a3.512 3.512 0 0 1-.858-.118 3.585 3.585 0 0 1-.801-.329c-.211-.119-.34-.237-.34-.237z"/>
      </g>
    </g>
  </g>
  <g stroke="#FFF364" stroke-width=".75" stroke-miterlimit="10">
    <path fill="#E746AC" d="M136.827 54.5h-3.383a2.5 2.5 0 0 0-2.5 2.5v.334a2.5 2.5 0 0 0 2.5 2.5h30.668a2.5 2.5 0 0 0 2.5-2.5V57a2.5 2.5 0 0 0-2.5-2.5h-13.645c-1.334 0-1.334-2.166 0-2.166h2.977a2.5 2.5 0 0 0 2.5-2.5v-.5a2.5 2.5 0 0 0-2.5-2.5h-25.832a2.5 2.5 0 0 0-2.5 2.5v.5a2.5 2.5 0 0 0 2.5 2.5h9.215c1.332 0 1.332 2.166 0 2.166z"/>
    <path fill="#EFBB24" d="M24.327 20.041h-3.383a2.5 2.5 0 0 0-2.5 2.5v.334a2.5 2.5 0 0 0 2.5 2.5h30.668a2.5 2.5 0 0 0 2.5-2.5v-.334a2.5 2.5 0 0 0-2.5-2.5H37.968c-1.334 0-1.334-2.166 0-2.166h2.977a2.5 2.5 0 0 0 2.5-2.5v-.5a2.5 2.5 0 0 0-2.5-2.5H15.112a2.5 2.5 0 0 0-2.5 2.5v.5a2.5 2.5 0 0 0 2.5 2.5h9.215c1.332 0 1.332 2.166 0 2.166z"/>
  </g>
  <g>
    <linearGradient id="N" gradientUnits="userSpaceOnUse" x1="94.522" y1="7.978" x2="84.583" y2="64.346">
      <stop offset="0" style="stop-color:#ffe201"/>
      <stop offset=".106" style="stop-color:#f9c426"/>
      <stop offset=".185" style="stop-color:#f5b23d"/>
      <stop offset=".255" style="stop-color:#f7bd30"/>
      <stop offset=".386" style="stop-color:#fdd90c"/>
      <stop offset=".423" style="stop-color:#ffe201"/>
      <stop offset=".482" style="stop-color:#fbcf19"/>
      <stop offset=".561" style="stop-color:#f7ba33"/>
      <stop offset=".609" style="stop-color:#f5b23d"/>
      <stop offset=".659" style="stop-color:#f6b836"/>
      <stop offset=".734" style="stop-color:#fac822"/>
      <stop offset=".824" style="stop-color:#ffe202"/>
      <stop offset=".825" style="stop-color:#ffe201"/>
      <stop offset=".854" style="stop-color:#fcd511"/>
      <stop offset=".908" style="stop-color:#f8c229"/>
      <stop offset=".959" style="stop-color:#f6b638"/>
      <stop offset="1" style="stop-color:#f5b23d"/>
    </linearGradient>
    <path fill="url(#N)" d="M32.561 55.115a3.75 3.75 0 0 1-3.518-2.458l-.155-.422a3.748 3.748 0 0 1 2.16-4.786l.354-.141a3.752 3.752 0 0 1-2.232-2.3l-.349-1.021a3.75 3.75 0 0 1 3.549-4.962h2.833v-11.79h-1.168a3.75 3.75 0 0 1-3.535-2.499l-.349-.985a3.751 3.751 0 0 1 3.535-5.001h10.558l.022-.793a3.748 3.748 0 0 1 4.072-3.628l6.08.528a3.751 3.751 0 0 1 3.424 3.836l1.425-1.605a3.749 3.749 0 0 1 4.91-.613c.123.083 3.036 2.063 4.862 3.502a3.75 3.75 0 0 1 1.356 3.683c-.294 1.466-1.438 2.942-3.394 3.418a3.746 3.746 0 0 1-.758 2.673c-.295.383-.62.696-.964.954v5.503c.243.106.479.24.702.402.123.09 3.039 2.213 4.867 3.763a3.751 3.751 0 0 1 1.167 3.938 4.364 4.364 0 0 1-1.598 2.271c.45.813.665 1.714.643 2.702-.068 3.06-2.834 5.457-6.298 5.457a7.042 7.042 0 0 1-4.308-1.451 3.982 3.982 0 0 1-.373-.325c-.592-.592-2.905-2.637-7.789-4.141l-.013-.004c-.14.259-.312.504-.513.727-.675.75-1.924 1.643-4.035 1.643-.145 0-.293-.004-.444-.013-3.767 1.721-9.076 3.188-14.209 3.902a3.604 3.604 0 0 1-.517.036z"/>
    <linearGradient id="O" gradientUnits="userSpaceOnUse" x1="94.522" y1="7.978" x2="84.583" y2="64.346">
      <stop offset="0" style="stop-color:#ffe201"/>
      <stop offset=".106" style="stop-color:#f9c426"/>
      <stop offset=".185" style="stop-color:#f5b23d"/>
      <stop offset=".255" style="stop-color:#f7bd30"/>
      <stop offset=".386" style="stop-color:#fdd90c"/>
      <stop offset=".423" style="stop-color:#ffe201"/>
      <stop offset=".482" style="stop-color:#fbcf19"/>
      <stop offset=".561" style="stop-color:#f7ba33"/>
      <stop offset=".609" style="stop-color:#f5b23d"/>
      <stop offset=".659" style="stop-color:#f6b836"/>
      <stop offset=".734" style="stop-color:#fac822"/>
      <stop offset=".824" style="stop-color:#ffe202"/>
      <stop offset=".825" style="stop-color:#ffe201"/>
      <stop offset=".854" style="stop-color:#fcd511"/>
      <stop offset=".908" style="stop-color:#f8c229"/>
      <stop offset=".959" style="stop-color:#f6b638"/>
      <stop offset="1" style="stop-color:#f5b23d"/>
    </linearGradient>
    <path fill="url(#O)" d="M77.298 55.045a3.75 3.75 0 0 1-3.75-3.75V37.968l-2.755-3.739a3.75 3.75 0 0 1 .935-5.341V18.275a3.751 3.751 0 0 1 4.087-3.735l5.848.528a3.752 3.752 0 0 1 3.289 2.78 3.721 3.721 0 0 1 1.355.13 3.747 3.747 0 0 1 4.013-3.37l5.615.422a3.75 3.75 0 0 1 2.987 1.901 3.76 3.76 0 0 1 3.307.118l5.112 2.746a3.75 3.75 0 0 1 1.408 5.287 3.8 3.8 0 0 1 .178 1.03l.05 1.562c1.318 1.163 1.656 2.6 1.656 3.768 0 3.115-1.897 4.623-4.382 5.354a3.751 3.751 0 0 1-.92 3.542 5.5 5.5 0 0 1-.545.497V50.1c0 .192-.015.384-.044.573-.643 4.149-7.433 4.197-7.501 4.197h-.774a3.752 3.752 0 0 1-3.511-2.429h-8.308c-1.575 1.921-4.858 2.604-6.693 2.604h-.657z"/>
    <linearGradient id="P" gradientUnits="userSpaceOnUse" x1="94.522" y1="7.978" x2="84.583" y2="64.346">
      <stop offset="0" style="stop-color:#ffe201"/>
      <stop offset=".106" style="stop-color:#f9c426"/>
      <stop offset=".185" style="stop-color:#f5b23d"/>
      <stop offset=".255" style="stop-color:#f7bd30"/>
      <stop offset=".386" style="stop-color:#fdd90c"/>
      <stop offset=".423" style="stop-color:#ffe201"/>
      <stop offset=".482" style="stop-color:#fbcf19"/>
      <stop offset=".561" style="stop-color:#f7ba33"/>
      <stop offset=".609" style="stop-color:#f5b23d"/>
      <stop offset=".659" style="stop-color:#f6b836"/>
      <stop offset=".734" style="stop-color:#fac822"/>
      <stop offset=".824" style="stop-color:#ffe202"/>
      <stop offset=".825" style="stop-color:#ffe201"/>
      <stop offset=".854" style="stop-color:#fcd511"/>
      <stop offset=".908" style="stop-color:#f8c229"/>
      <stop offset=".959" style="stop-color:#f6b638"/>
      <stop offset="1" style="stop-color:#f5b23d"/>
    </linearGradient>
    <path fill="url(#P)" d="M113.86 54.975a3.75 3.75 0 0 1-3.75-3.75V40.518a3.744 3.744 0 0 1-2.731-.561l-.426-.281a3.746 3.746 0 0 1-1.015-5.265c3.07-4.43 5.898-11.109 7.205-17.015a3.752 3.752 0 0 1 4.67-2.802l6.429 1.795a3.75 3.75 0 0 1 2.574 2.502h7.826l1.394-1.675a3.743 3.743 0 0 1 2.885-1.352c.756 0 1.517.227 2.175.696.12.086 2.978 2.124 4.788 3.586a3.75 3.75 0 0 1 1.235 3.996 4.398 4.398 0 0 1-2.143 2.617c1.021.75 2.391 1.773 3.429 2.614a3.748 3.748 0 0 1 1.232 3.983c-.586 1.97-2.438 3.244-4.717 3.244h-4.228c7.368 4.037 9.306 9.346 8.582 12.961-.6 2.999-2.972 5.014-5.902 5.014-1.443 0-2.91-.507-4.244-1.467a3.758 3.758 0 0 1-1.473-2.24c-.02-.09-.04-.18-.063-.271-3.626.72-7.948 1.49-12.563 2.237a6.167 6.167 0 0 1-2.105 1.135 3.73 3.73 0 0 1-2.986-.357c-2.178 1.311-5.181 1.362-5.225 1.362h-.853zm8.282-16.251c.473-.671.944-1.391 1.395-2.124h-1.395v2.124zm14.846-10.61.627-.737h-14.15a3.61 3.61 0 0 1-.33-.015c.085.245.145.497.177.752h13.676z"/>
    <g>
      <linearGradient id="Q" gradientUnits="userSpaceOnUse" x1="94.264" y1="9.455" x2="84.845" y2="62.869">
        <stop offset="0" style="stop-color:#cf07b5"/>
        <stop offset=".031" style="stop-color:#c708b8"/>
        <stop offset=".079" style="stop-color:#b109c1"/>
        <stop offset=".138" style="stop-color:#8c0ccf"/>
        <stop offset=".206" style="stop-color:#5a10e2"/>
        <stop offset=".265" style="stop-color:#2914f5"/>
        <stop offset=".307" style="stop-color:#3f12ed"/>
        <stop offset=".394" style="stop-color:#760ed7"/>
        <stop offset=".518" style="stop-color:#cf07b5"/>
        <stop offset=".553" style="stop-color:#cb07b7"/>
        <stop offset=".589" style="stop-color:#be08bc"/>
        <stop offset=".626" style="stop-color:#a90ac4"/>
        <stop offset=".664" style="stop-color:#8b0ccf"/>
        <stop offset=".703" style="stop-color:#640fde"/>
        <stop offset=".742" style="stop-color:#3613f0"/>
        <stop offset=".751" style="stop-color:#2914f5"/>
        <stop offset=".781" style="stop-color:#3e12ed"/>
        <stop offset=".932" style="stop-color:#a60ac5"/>
        <stop offset="1" style="stop-color:#cf07b5"/>
      </linearGradient>
      <path fill="url(#Q)" d="M32.562 53.615c-.932 0-1.782-.58-2.111-1.475l-.155-.422a2.25 2.25 0 0 1 1.296-2.872c1.928-.751 3.887-1.754 5.626-2.8h-4.5a2.25 2.25 0 0 1-2.129-1.522l-.349-1.021a2.248 2.248 0 0 1 2.129-2.977h4.333V25.735h-2.668a2.25 2.25 0 0 1-2.121-1.5l-.349-.985a2.248 2.248 0 0 1 2.121-3H45.7c.019-.578.066-2.25.066-2.25a2.251 2.251 0 0 1 2.444-2.177l6.08.528a2.25 2.25 0 0 1 2.034 2.549c-.069.5-.241.954-.5 1.351h2.643l1.923-2.166a2.248 2.248 0 0 1 2.947-.368c.121.083 2.991 2.032 4.776 3.438a2.25 2.25 0 0 1 .813 2.21c-.219 1.094-1.212 2.371-3.291 2.371h-.921a2.252 2.252 0 0 1 .342 3.101c-.362.471-.8.798-1.275 1.033v7.525c.459 0 .921.141 1.319.431.122.088 2.993 2.179 4.779 3.693.682.578.957 1.505.7 2.362-.274.915-1.085 1.887-2.561 2.116 1.055.912 1.57 1.997 1.542 3.255-.05 2.237-2.157 3.99-4.798 3.99a5.548 5.548 0 0 1-3.397-1.144 2.177 2.177 0 0 1-.223-.195c-.838-.836-3.336-2.95-8.407-4.512a2.248 2.248 0 0 1-1.438-1.344h-.293a2.25 2.25 0 0 1-.35 2.497c-.472.523-1.361 1.146-2.92 1.146-.229 0-.468-.013-.718-.04-3.617 1.711-9.06 3.236-14.143 3.944a2.332 2.332 0 0 1-.311.021z"/>
      <linearGradient id="R" gradientUnits="userSpaceOnUse" x1="94.264" y1="9.455" x2="84.845" y2="62.869">
        <stop offset="0" style="stop-color:#cf07b5"/>
        <stop offset=".031" style="stop-color:#c708b8"/>
        <stop offset=".079" style="stop-color:#b109c1"/>
        <stop offset=".138" style="stop-color:#8c0ccf"/>
        <stop offset=".206" style="stop-color:#5a10e2"/>
        <stop offset=".265" style="stop-color:#2914f5"/>
        <stop offset=".307" style="stop-color:#3f12ed"/>
        <stop offset=".394" style="stop-color:#760ed7"/>
        <stop offset=".518" style="stop-color:#cf07b5"/>
        <stop offset=".553" style="stop-color:#cb07b7"/>
        <stop offset=".589" style="stop-color:#be08bc"/>
        <stop offset=".626" style="stop-color:#a90ac4"/>
        <stop offset=".664" style="stop-color:#8b0ccf"/>
        <stop offset=".703" style="stop-color:#640fde"/>
        <stop offset=".742" style="stop-color:#3613f0"/>
        <stop offset=".751" style="stop-color:#2914f5"/>
        <stop offset=".781" style="stop-color:#3e12ed"/>
        <stop offset=".932" style="stop-color:#a60ac5"/>
        <stop offset="1" style="stop-color:#cf07b5"/>
      </linearGradient>
      <path fill="url(#R)" d="M77.298 53.545a2.25 2.25 0 0 1-2.25-2.25V37.456a2.052 2.052 0 0 1-.143-.175l-2.904-3.942a2.25 2.25 0 0 1 .669-3.272c.256-.151.434-.265.558-.348V18.275a2.251 2.251 0 0 1 2.453-2.241l5.848.528a2.249 2.249 0 0 1 2.024 2.566c-.094.639-.414 1.6-1.448 2.261v.585l1.404-1.783a2.246 2.246 0 0 1 3.113-.411c.045.034.517.386 1.168.886v-2.321a2.248 2.248 0 0 1 2.25-2.25c.056 0 .112.002.169.006l5.615.422a2.25 2.25 0 0 1 2.073 2.435c-.036.422-.16.865-.392 1.278.471-.466.883-.911 1.21-1.311a2.248 2.248 0 0 1 2.805-.557l5.112 2.746a2.249 2.249 0 0 1 .694 3.387 3.065 3.065 0 0 1-.351.371c.271.359.438.802.454 1.285l.073 2.277c1.084.726 1.632 1.732 1.632 3.005 0 2.95-2.423 3.982-5.385 4.344l.15.103a2.253 2.253 0 0 1 .349 3.411 4.28 4.28 0 0 1-.962.747v10.053c0 .115-.009.23-.026.344-.434 2.801-5.963 2.927-6.019 2.927h-.774a2.25 2.25 0 0 1-2.25-2.25v-.178H83.826c-.908 1.963-4.458 2.604-5.87 2.604h-.658zm16.92-8.126v-.041H84.04v.041h10.178zM82.104 28.231c.911-.177 1.849-.364 2.807-.559h-2.807v.559zm17.152-.307c.818 0 1.798 0 2.346-.015.151-.293.367-.758.641-1.426a47.892 47.892 0 0 1-3.681 1.441h.694z"/>
      <linearGradient id="S" gradientUnits="userSpaceOnUse" x1="94.264" y1="9.455" x2="84.845" y2="62.869">
        <stop offset="0" style="stop-color:#cf07b5"/>
        <stop offset=".031" style="stop-color:#c708b8"/>
        <stop offset=".079" style="stop-color:#b109c1"/>
        <stop offset=".138" style="stop-color:#8c0ccf"/>
        <stop offset=".206" style="stop-color:#5a10e2"/>
        <stop offset=".265" style="stop-color:#2914f5"/>
        <stop offset=".307" style="stop-color:#3f12ed"/>
        <stop offset=".394" style="stop-color:#760ed7"/>
        <stop offset=".518" style="stop-color:#cf07b5"/>
        <stop offset=".553" style="stop-color:#cb07b7"/>
        <stop offset=".589" style="stop-color:#be08bc"/>
        <stop offset=".626" style="stop-color:#a90ac4"/>
        <stop offset=".664" style="stop-color:#8b0ccf"/>
        <stop offset=".703" style="stop-color:#640fde"/>
        <stop offset=".742" style="stop-color:#3613f0"/>
        <stop offset=".751" style="stop-color:#2914f5"/>
        <stop offset=".781" style="stop-color:#3e12ed"/>
        <stop offset=".932" style="stop-color:#a60ac5"/>
        <stop offset="1" style="stop-color:#cf07b5"/>
      </linearGradient>
      <path fill="url(#S)" d="M113.86 53.475a2.25 2.25 0 0 1-2.25-2.25V38.044c-.294.219-.591.432-.891.638a2.246 2.246 0 0 1-2.514.023l-.426-.281a2.248 2.248 0 0 1-.61-3.159c3.173-4.578 6.092-11.464 7.437-17.545a2.25 2.25 0 0 1 2.802-1.681l6.429 1.795a2.253 2.253 0 0 1 1.611 2.557h9.896l1.844-2.216a2.246 2.246 0 0 1 3.035-.395c.119.085 2.941 2.098 4.717 3.532a2.25 2.25 0 0 1 .741 2.397c-.314 1.047-1.331 2.167-3.24 2.167h-18.976a2.246 2.246 0 0 1-1.436-.518 41.489 41.489 0 0 1-.881 1.606 2.247 2.247 0 0 1 .556 2.4 2.7 2.7 0 0 1-.104.249h16.082l1.96-2.306a2.243 2.243 0 0 1 1.715-.792c.455 0 .913.137 1.308.42.121.086 2.98 2.133 4.794 3.603a2.25 2.25 0 0 1 .739 2.39c-.398 1.339-1.655 2.171-3.279 2.171h-7.206a2.26 2.26 0 0 1-.221 1.165c-.06.123-.128.241-.205.354 8.867 3.78 11.213 9.163 10.516 12.649-.455 2.277-2.236 3.808-4.432 3.808-1.127 0-2.291-.409-3.368-1.185a2.248 2.248 0 0 1-.883-1.344 15.666 15.666 0 0 0-.476-1.691c-3.968.813-8.936 1.707-14.283 2.567-.562.525-1.205.91-1.872 1.111a2.242 2.242 0 0 1-2.502-.873c-1.358 1.463-4.427 1.814-5.274 1.814h-.853zm19.825-13.763a56.449 56.449 0 0 1-3.532 3.484c1.962-.027 3.868-.06 5.711-.094a48.205 48.205 0 0 0-1.96-3.006 2.123 2.123 0 0 1-.219-.384zm-13.043 3.155c1.677-1.516 3.938-4.862 5.467-7.768h-5.467v7.768z"/>
    </g>
    <g>
      <linearGradient id="T" gradientUnits="userSpaceOnUse" x1="50.397" y1="18.064" x2="50.397" y2="51.366">
        <stop offset="0" style="stop-color:#fff"/>
        <stop offset=".318" style="stop-color:#fffdff"/>
        <stop offset=".432" style="stop-color:#fff6fe"/>
        <stop offset=".514" style="stop-color:#ffebfe"/>
        <stop offset=".58" style="stop-color:#ffdafc"/>
        <stop offset=".636" style="stop-color:#ffc4fb"/>
        <stop offset=".656" style="stop-color:#ffbafa"/>
        <stop offset=".695" style="stop-color:#eec7fc"/>
        <stop offset=".743" style="stop-color:#e3d1fe"/>
        <stop offset=".811" style="stop-color:#dcd6ff"/>
        <stop offset="1" style="stop-color:#dad8ff"/>
      </linearGradient>
      <path fill="url(#T)" d="M63.777 39.644s2.905 2.112 4.647 3.59c-.116.388-.542.563-1.084.563H32.718l-.349-1.021h6.583V25.07l4.918 1.689h3.756c.039-.95.116-2.042.193-3.274H34.035l-.349-.985H47.86c.077-1.514.116-3.098.155-4.436l6.08.528c-.078.563-.581.951-1.394 1.056a57.074 57.074 0 0 1-.465 2.852h7.242l2.595-2.922s2.904 1.971 4.647 3.344c-.078.387-.503.563-1.084.563H52.082l-.542 3.274h4.802l2.053-2.323 4.879 3.027c-.271.352-.736.563-1.743.739v14.186l2.246-2.744zM32.408 50.943c4.337-1.689 9.14-4.718 11.347-6.971l5.228 3.063c-.349.387-1.123.527-2.324.281-3.292 1.689-8.791 3.309-14.097 4.048l-.154-.421zm11.115-23.198v3.063h13.245v-3.063H43.523zm13.245 4.084H43.523v2.921h13.245v-2.921zm-13.245 3.907v2.921h13.245v-2.921H43.523zm0 7.04h13.245v-3.098H43.523v3.098zm9.991 2.007c20.603.915 13.09 8.483 9.217 5.526-1.588-1.584-4.647-3.626-9.333-5.069l.116-.457z"/>
      <linearGradient id="U" gradientUnits="userSpaceOnUse" x1="90.349" y1="18.275" x2="90.349" y2="51.295">
        <stop offset="0" style="stop-color:#fff"/>
        <stop offset=".318" style="stop-color:#fffdff"/>
        <stop offset=".432" style="stop-color:#fff6fe"/>
        <stop offset=".514" style="stop-color:#ffebfe"/>
        <stop offset=".58" style="stop-color:#ffdafc"/>
        <stop offset=".636" style="stop-color:#ffc4fb"/>
        <stop offset=".656" style="stop-color:#ffbafa"/>
        <stop offset=".695" style="stop-color:#eec7fc"/>
        <stop offset=".743" style="stop-color:#e3d1fe"/>
        <stop offset=".811" style="stop-color:#dcd6ff"/>
        <stop offset="1" style="stop-color:#dad8ff"/>
      </linearGradient>
      <path fill="url(#U)" d="m98.172 34.68 4.453 3.063c-.271.282-.774.599-1.588.739v11.617c-.038.246-2.285 1.021-3.795 1.021h-.774v-2.43H81.79v1.267c0 .388-1.937 1.338-3.834 1.338h-.658V35.489a2.218 2.218 0 0 1-.581.458l-2.904-3.943c1.433-.845 1.665-1.197 1.665-1.901V18.275l5.848.528c-.077.528-.464.88-1.472 1.021v4.611h3.176l2.246-2.852s2.595 1.936 4.144 3.274c-.116.387-.503.563-1.084.563h-8.481v5.526a335.552 335.552 0 0 0 9.14-1.831l.077.458c-2.323 1.197-6.39 3.379-11.463 5.597l4.454 1.619h2.401c.387-1.268.929-3.098 1.278-4.4l6.39 1.162c-.154.599-.735.845-1.588.88-.929.668-2.401 1.619-3.563 2.358h9.101l2.09-2.109zM81.79 37.813v4.295h14.678v-4.295H81.79zm14.678 9.856v-4.541H81.79v4.541h14.678zm8.829-17.812c1.239.422 1.588.88 1.588 1.584 0 1.689-1.781 2.288-8.094 2.288h-3.95c-3.911 0-4.802-.739-4.802-3.415V18.346l5.615.422c-.039.458-.349.81-1.162.915v5.984c2.362-1.654 4.725-3.802 5.964-5.315l5.112 2.746c-.31.387-.968.528-2.169.317-2.13 1.162-5.422 2.464-8.907 3.415v2.64c0 .528.194.704 1.355.704h3.408c1.2 0 2.362 0 2.827-.035.503 0 .813-.105 1.007-.387.426-.493 1.046-1.866 1.665-3.52h.426l.117 3.625z"/>
      <linearGradient id="V" gradientUnits="userSpaceOnUse" x1="127.531" y1="18.205" x2="127.531" y2="51.225">
        <stop offset="0" style="stop-color:#fff"/>
        <stop offset=".318" style="stop-color:#fffdff"/>
        <stop offset=".432" style="stop-color:#fff6fe"/>
        <stop offset=".514" style="stop-color:#ffebfe"/>
        <stop offset=".58" style="stop-color:#ffdafc"/>
        <stop offset=".636" style="stop-color:#ffc4fb"/>
        <stop offset=".656" style="stop-color:#ffbafa"/>
        <stop offset=".695" style="stop-color:#eec7fc"/>
        <stop offset=".743" style="stop-color:#e3d1fe"/>
        <stop offset=".811" style="stop-color:#dcd6ff"/>
        <stop offset="1" style="stop-color:#dad8ff"/>
      </linearGradient>
      <path fill="url(#V)" d="M123.232 20c-.193.422-.658.704-1.511.704-1.123 2.675-2.4 5.14-3.872 7.287l1.742.599c-.116.317-.465.563-1.2.669v20.805c-.077.316-1.897 1.161-3.679 1.161h-.853v-18.2a27.148 27.148 0 0 1-4.415 3.802l-.426-.281c3.099-4.471 6.273-11.512 7.784-18.341l6.43 1.795zm18.124 8.766s2.904 2.077 4.686 3.521c-.115.387-.58.563-1.123.563h-14.832l5.383 2.429c-.154.317-.658.598-1.433.528-2.246 2.993-6.545 7.041-10.34 9.716 3.795-.036 9.682-.106 15.878-.247-1.084-2.323-2.518-4.611-3.834-6.477l.426-.212c13.594 5.668 9.991 14.961 5.15 11.477a19.776 19.776 0 0 0-1.277-3.802c-4.066.88-9.953 1.971-16.808 3.063-.426.563-.93.915-1.395 1.056l-1.626-4.929s1.045-.211 1.433-.492c2.75-2.183 6.661-8.448 7.939-12.11h-9.372l-.31-.985h18.82l2.635-3.099zm-18.201-6.125h13.244l2.518-3.027s2.865 2.042 4.608 3.45c-.116.387-.542.563-1.085.563h-18.976l-.309-.986z"/>
    </g>
  </g>
</svg>
