<svg xmlns="http://www.w3.org/2000/svg" xml:space="preserve" width="175" height="70">
  <linearGradient id="a" x1="18.101" x2="162.065" y1="35.086" y2="35.086" gradientUnits="userSpaceOnUse">
    <stop offset="0" style="stop-color:#fdfda5"/>
    <stop offset="1" style="stop-color:#ff2"/>
  </linearGradient>
  <path fill="url(#a)" d="M18.101 63.518h113.952c7.504 0 23.759-12.887 23.759-24.807V15.514c0-4.51 6.253-8.86 6.253-8.86H46.237c-9.066 0-23.916 13.209-23.916 27.063V51.92c0 9.988-4.22 11.598-4.22 11.598z"/>
  <linearGradient id="b" x1="86.956" x2="86.956" y1="17.285" y2="63.518" gradientUnits="userSpaceOnUse">
    <stop offset="0" style="stop-color:#fdfda5"/>
    <stop offset="1" style="stop-color:#ff2"/>
  </linearGradient>
  <path fill="url(#b)" stroke="#D1FC6E" stroke-miterlimit="10" stroke-width=".75" d="M18.1 63.518h113.952c7.504 0 23.76-12.887 23.76-24.807 0-3.054-55.334 5.639-59.866-5.478-5.134-12.586-57.03-15.948-66.59-15.948-4.315 4.264-6.272 10.903-7.034 16.431v18.203c-.001 9.989-4.222 11.599-4.222 11.599z"/>
  <linearGradient id="c" x1="81.142" x2="95.774" y1="18.913" y2="73.522" gradientUnits="userSpaceOnUse">
    <stop offset="0" style="stop-color:#fdfda5"/>
    <stop offset="1" style="stop-color:#ff2"/>
  </linearGradient>
  <path fill="url(#c)" stroke="#FBFE9F" stroke-miterlimit="10" stroke-width=".75" d="M18.064 63.518h113.953c7.503 0 23.758-12.887 23.758-24.807V17.447c0-2.215-51.431 10.712-65.927 15.625-17.584 5.96-59.397 5.96-67.563 1.611v17.235c0 9.99-4.221 11.6-4.221 11.6z"/>
  <g fill="#FFF" opacity=".05">
    <path d="m39.792 45.034 3.819-1.605 3.437 1.605-1.756-3.437 1.756-3.438-3.628 1.377-3.628-1.377 1.986 3.438z"/>
    <path d="m39.792 45.034 3.819-1.605 3.437 1.605-1.756-3.437 1.756-3.438-3.628 1.377-3.628-1.377 1.986 3.438z"/>
    <path d="m39.792 45.034 3.819-1.605 3.437 1.605-1.756-3.437 1.756-3.438-3.628 1.377-3.628-1.377 1.986 3.438zm-7.255 6.873 3.819-1.603 3.436 1.603-1.756-3.436 1.756-3.437-3.627 1.375-3.628-1.375 1.986 3.437zm14.511 0 3.818-1.603 3.437 1.603-1.757-3.436 1.757-3.437-3.628 1.375-3.627-1.375 1.985 3.437zM32.537 38.159l3.819-1.602 3.436 1.602-1.756-3.436 1.756-3.436-3.627 1.375-3.628-1.375 1.986 3.436zm7.255-6.872 3.819-1.604 3.437 1.604-1.756-3.437 1.756-3.437-3.628 1.375-3.628-1.375 1.986 3.437zm0 27.493 3.819-1.603 3.437 1.603-1.756-3.435 1.756-3.438-3.628 1.375-3.628-1.375 1.986 3.438zm14.511 0 3.819-1.603 3.437 1.603-1.758-3.435 1.758-3.438-3.629 1.375-3.627-1.375 1.986 3.438zm15.962 0 3.818-1.603 3.437 1.603-1.756-3.435 1.756-3.438-3.628 1.375-3.627-1.375 1.985 3.438zm-44.983 0 3.819-1.603 3.436 1.603-1.756-3.435 1.756-3.438-3.627 1.375-3.628-1.375 1.986 3.438zm0-13.746 3.819-1.605 3.436 1.605-1.756-3.437 1.756-3.438-3.627 1.377-3.628-1.377 1.986 3.438zm0-13.747 3.819-1.604 3.436 1.604-1.756-3.437 1.756-3.437-3.627 1.375-3.628-1.375 1.986 3.437zm7.255-6.874 3.819-1.603 3.436 1.603-1.756-3.436 1.756-3.437-3.627 1.375-3.628-1.375 1.986 3.437z"/>
    <path d="m47.048 24.413 3.818-1.603 3.437 1.603-1.757-3.436 1.757-3.437-3.628 1.375-3.627-1.375 1.985 3.437zm-7.256-6.873 3.819-1.604 3.437 1.604-1.756-3.436 1.756-3.437-3.628 1.374-3.628-1.374 1.986 3.437zm14.817 0 3.818-1.604 3.437 1.604-1.757-3.436 1.757-3.437-3.628 1.374-3.627-1.374 1.985 3.437zm15.656 0 3.818-1.604 3.437 1.604-1.756-3.436 1.756-3.437-3.628 1.374-3.627-1.374 1.985 3.437zm7.255 6.873 3.818-1.603 3.437 1.603-1.756-3.436 1.756-3.437-3.628 1.375-3.627-1.375 1.986 3.437zm7.255-6.873 3.819-1.604 3.437 1.604-1.757-3.436 1.757-3.437-3.628 1.374-3.628-1.374 1.985 3.437zm.001 41.24 3.819-1.603 3.436 1.603-1.757-3.435 1.757-3.438-3.628 1.375-3.627-1.375 1.986 3.438zm15.427-41.24 3.817-1.604 3.436 1.604-1.754-3.436 1.754-3.437-3.627 1.374-3.626-1.374 1.984 3.437zm0 41.24 3.817-1.603 3.436 1.603-1.754-3.435 1.754-3.438-3.627 1.375-3.626-1.375 1.984 3.438zm15.541-41.24 3.819-1.604 3.436 1.604-1.756-3.436 1.756-3.437-3.626 1.374-3.629-1.374 1.985 3.437zm0 41.24 3.819-1.603 3.436 1.603-1.756-3.435 1.756-3.438-3.626 1.375-3.629-1.375 1.985 3.438zm13.747 0 3.819-1.603 3.436 1.603-1.755-3.435 1.755-3.438-3.627 1.375-3.628-1.375 1.986 3.438zm0-41.24 3.819-1.604 3.436 1.604-1.755-3.436 1.755-3.437-3.627 1.374-3.628-1.374 1.986 3.437zm7.255 6.873 3.817-1.603 3.438 1.603-1.756-3.436 1.756-3.437-3.627 1.375-3.628-1.375 1.985 3.437zm7.255-6.873 3.818-1.604 3.437 1.604-1.756-3.436 1.756-3.437-3.627 1.374-3.628-1.374 1.984 3.437zm0 13.747 3.818-1.604 3.437 1.604-1.756-3.437 1.756-3.437-3.627 1.375-3.628-1.375 1.984 3.437zm-7.255 6.872 3.817-1.602 3.438 1.602-1.756-3.436 1.756-3.436-3.627 1.375-3.628-1.375 1.985 3.436zm0 13.748 3.817-1.603 3.438 1.603-1.756-3.436 1.756-3.437-3.627 1.375-3.628-1.375 1.985 3.437zm7.255-6.873 3.818-1.605 3.437 1.605-1.756-3.437 1.756-3.438-3.627 1.377-3.628-1.377 1.984 3.438zm-81.907 6.529 3.818-1.603 3.436 1.603-1.755-3.436 1.755-3.437-3.627 1.374-3.627-1.374 1.986 3.437zm22.681-20.276 3.819-1.604 3.437 1.604-1.757-3.437 1.757-3.437-3.628 1.375-3.628-1.375 1.987 3.437zM69.349 44.69l3.818-1.603 3.437 1.603-1.756-3.435 1.756-3.438-3.627 1.375-3.628-1.375 1.985 3.438zm-7.255-7.044 3.818-1.604 3.436 1.604-1.755-3.436 1.755-3.437-3.627 1.374-3.627-1.374 1.986 3.437z"/>
  </g>
  <path fill="none" stroke="#FFF" stroke-miterlimit="10" stroke-width="2" d="M22.646 59.656h109.75c3.456 0 19.649-10.312 19.649-21.761V17.037c0-4.056 3.055-6.508 3.055-6.508H45.277c-6.483 0-19.954 10.648-19.954 23.104V50c-.001 10.656-2.677 9.656-2.677 9.656z" opacity=".3"/>
  <linearGradient id="d" x1="70" x2="160" y1="70" y2="8" gradientUnits="userSpaceOnUse">
    <stop offset="0" style="stop-color:#f3d6ec"/>
    <stop offset=".05" style="stop-color:#faeb5f"/>
    <stop offset=".6" style="stop-color:#9cea8d"/>
    <stop offset=".8" style="stop-color:#b4d2b0"/>
    <stop offset="1" style="stop-color:#cadef6"/>
  </linearGradient>
  <path fill="none" stroke="url(#d)" stroke-miterlimit="10" stroke-width="2" d="M21.346 61.625h109.675c7.412 0 22.813-11.863 22.813-23.292V16.098c0-4.325 3.949-7.723 3.949-7.723H45.255c-7.949 0-21.755 11.897-21.755 25.177V51c0 9.576-2.154 10.625-2.154 10.625z"/>
  <linearGradient id="e" x1="78.155" x2="160" y1="85" y2="5" gradientUnits="userSpaceOnUse">
    <stop offset="0" style="stop-color:#63b"/>
    <stop offset=".25" style="stop-color:#d26e7f"/>
    <stop offset=".5" style="stop-color:#c42293"/>
    <stop offset=".7" style="stop-color:#801eab"/>
    <stop offset=".85" style="stop-color:#3b22b9"/>
    <stop offset="1" style="stop-color:#63b"/>
  </linearGradient>
  <path fill="none" stroke="url(#e)" stroke-miterlimit="10" stroke-width="2" d="M17.363 63.46h114.423c7.533 0 23.856-12.939 23.856-24.909V15.259c0-4.529 6.278-8.896 6.278-8.896H45.615c-9.104 0-24.015 13.264-24.015 27.174v18.278c.001 10.029-4.237 11.645-4.237 11.645z"/>
  <linearGradient id="f" x1="147.523" x2="145.497" y1="26.306" y2="37.793" gradientUnits="userSpaceOnUse">
    <stop offset="0" style="stop-color:#2914f5"/>
    <stop offset=".243" style="stop-color:#cf07b5"/>
    <stop offset=".293" style="stop-color:#ba09bd"/>
    <stop offset=".41" style="stop-color:#8e0cce"/>
    <stop offset=".529" style="stop-color:#6a0fdc"/>
    <stop offset=".647" style="stop-color:#4d11e7"/>
    <stop offset=".765" style="stop-color:#3913ef"/>
    <stop offset=".883" style="stop-color:#2d14f3"/>
    <stop offset="1" style="stop-color:#2914f5"/>
  </linearGradient>
  <path fill="none" stroke="url(#f)" stroke-miterlimit="10" stroke-width="5" d="M143.285 28.092c-2.78-.299-1.186 4.951 1.364 6.595 2.211 1.426 7.384 1.436 6.597-1.362"/>
  <linearGradient id="g" x1="158.242" x2="155.904" y1="25.019" y2="38.278" gradientUnits="userSpaceOnUse">
    <stop offset=".518" style="stop-color:#cf07b5"/>
    <stop offset=".546" style="stop-color:#bd08bc"/>
    <stop offset=".622" style="stop-color:#900ccd"/>
    <stop offset=".7" style="stop-color:#6b0fdc"/>
    <stop offset=".776" style="stop-color:#4e11e7"/>
    <stop offset=".852" style="stop-color:#3a13ef"/>
    <stop offset=".927" style="stop-color:#2d14f3"/>
    <stop offset="1" style="stop-color:#2914f5"/>
  </linearGradient>
  <path fill="none" stroke="url(#g)" stroke-miterlimit="10" stroke-width="5" d="M160.327 28.092c2.691-.763 1.423 4.995-1.364 6.595-2.031 1.167-7.438 1.421-6.597-1.362"/>
  <linearGradient id="h" x1="143.663" x2="140.882" y1="13.809" y2="29.581" gradientUnits="userSpaceOnUse">
    <stop offset="0" style="stop-color:#2914f5"/>
    <stop offset=".518" style="stop-color:#cf07b5"/>
  </linearGradient>
  <path fill="none" stroke="url(#h)" stroke-miterlimit="10" stroke-width="5" d="M145.933 17.581c-1.052-2.798-5.036.632-5.986 3.083-1.151 2.97 1.433 8.381 3.08 5.989"/>
  <linearGradient id="i" x1="161.768" x2="159.166" y1="14.36" y2="29.114" gradientUnits="userSpaceOnUse">
    <stop offset="0" style="stop-color:#2914f5"/>
    <stop offset=".518" style="stop-color:#cf07b5"/>
  </linearGradient>
  <path fill="none" stroke="url(#i)" stroke-miterlimit="10" stroke-width="5" d="M157.801 17.369c.515-2.748 5.003.956 5.729 3.539.73 2.596-.896 6.947-3.537 5.732"/>
  <path fill="none" stroke="#2914F5" stroke-miterlimit="10" stroke-width="5" d="M147.011 17.163c-2.013-1.941 2.132-4.762 4.763-4.762s6.552 2.471 4.764 4.762"/>
  <linearGradient id="j" x1="148.65" x2="147.178" y1="15.117" y2="23.467" gradientUnits="userSpaceOnUse">
    <stop offset="0" style="stop-color:#2914f5"/>
    <stop offset=".518" style="stop-color:#cf07b5"/>
  </linearGradient>
  <path fill="none" stroke="url(#j)" stroke-miterlimit="10" stroke-width="5" d="m145.978 16.404 3.871 5.776"/>
  <path fill="none" stroke="#CF07B5" stroke-miterlimit="10" stroke-width="5" d="m142.1 27.566 6.643-1.981"/>
  <linearGradient id="k" x1="152.374" x2="151.054" y1="27.321" y2="34.805" gradientUnits="userSpaceOnUse">
    <stop offset="0" style="stop-color:#cf07b5"/>
    <stop offset=".192" style="stop-color:#cc07b6"/>
    <stop offset=".348" style="stop-color:#c208ba"/>
    <stop offset=".491" style="stop-color:#b109c1"/>
    <stop offset=".626" style="stop-color:#990bca"/>
    <stop offset=".757" style="stop-color:#7a0ed6"/>
    <stop offset=".881" style="stop-color:#5411e4"/>
    <stop offset="1" style="stop-color:#2914f5"/>
  </linearGradient>
  <path fill="none" stroke="url(#k)" stroke-miterlimit="10" stroke-width="5" d="m151.788 34.439-.148-6.751"/>
  <path fill="none" stroke="#CF07B5" stroke-miterlimit="10" stroke-width="5" d="m161.366 27.277-6.831-1.692"/>
  <linearGradient id="l" x1="156.235" x2="154.735" y1="14.963" y2="23.474" gradientUnits="userSpaceOnUse">
    <stop offset="0" style="stop-color:#2914f5"/>
    <stop offset=".518" style="stop-color:#cf07b5"/>
  </linearGradient>
  <path fill="none" stroke="url(#l)" stroke-miterlimit="10" stroke-width="5" d="m157.54 16.256-4.11 5.924"/>
  <linearGradient id="m" x1="153.025" x2="149.186" y1="13.153" y2="34.926" gradientUnits="userSpaceOnUse">
    <stop offset="0" style="stop-color:#2914f5"/>
    <stop offset=".518" style="stop-color:#cf07b5"/>
    <stop offset=".579" style="stop-color:#c308ba"/>
    <stop offset=".688" style="stop-color:#a20bc6"/>
    <stop offset=".835" style="stop-color:#6c0fdb"/>
    <stop offset="1" style="stop-color:#2914f5"/>
  </linearGradient>
  <path fill="none" stroke="url(#m)" stroke-miterlimit="10" stroke-width="5" d="m151.64 18.555 1.79 3.625 4.001.581-2.896 2.824.685 3.986-3.58-1.883-3.579 1.883.682-3.986-2.895-2.824 4.001-.581z"/>
  <linearGradient id="n" x1="130" x2="162" y1="15" y2="0" gradientUnits="userSpaceOnUse">
    <stop offset="0" style="stop-color:#c91998"/>
    <stop offset=".5" style="stop-color:#370be0"/>
    <stop offset="1" style="stop-color:#c91998"/>
  </linearGradient>
  <path fill="none" stroke="url(#n)" stroke-miterlimit="10" stroke-width="3" d="M163.731 22.472a6.22 6.22 0 0 0-6.098-6.215 6.218 6.218 0 0 0-11.564.148c-.038 0-.076-.004-.117-.004a6.22 6.22 0 0 0-6.221 6.221 6.2 6.2 0 0 0 2.46 4.945 6.215 6.215 0 0 0-.312 1.938 6.222 6.222 0 0 0 6.221 6.221 6.196 6.196 0 0 0 3.78-1.287 6.18 6.18 0 0 0 3.775 1.287 6.22 6.22 0 0 0 6.221-6.221 6.15 6.15 0 0 0-.419-2.228 6.195 6.195 0 0 0 2.274-4.805zm-17.661-6.068 3.872 5.776m7.692-5.924-4.112 5.924m7.937 5.097-6.831-1.692m-2.746 8.854-.15-6.751m-9.54-.122 6.645-1.981"/>
  <path fill="#9911b2" d="m151.732 29.382-5.571 2.932 1.065-6.205-4.509-4.397 6.229-.903 2.786-5.642 2.787 5.642 6.229.903-4.508 4.397 1.066 6.205z"/>
  <path fill="none" stroke="#FFF" stroke-miterlimit="10" stroke-width="1.5" d="m151.732 18.555 1.79 3.625 4.002.581-2.896 2.824.685 3.986-3.581-1.883-3.579 1.883.684-3.986-2.897-2.824 4.002-.581zM152.238 12.166c2.354.24 4.807 1.896 5.343 4.039m6.076 4.687c.519 2.309-.274 5.159-2.138 6.347m-2.693 7.657c-2.074 1.139-5.032 1.169-6.691-.289m-8.204-.346c-1.773-1.568-2.8-4.342-1.987-6.396m-1.922-7.799c.99-2.15 3.35-3.934 5.551-3.75"/>
  <path fill="#FFF" d="M156.54 17.616s.008.292-.091.658c-.093.37-.286.817-.547 1.219a4.24 4.24 0 0 1-.903.985c-.297.235-.569.343-.569.343s-.009-.293.09-.659c.092-.37.287-.816.548-1.218a4.26 4.26 0 0 1 .904-.984c.297-.235.568-.344.568-.344zM160.32 26.576s-.265.124-.639.18a4.208 4.208 0 0 1-2.6-.446c-.334-.178-.542-.385-.542-.385s.265-.125.64-.181a4.228 4.228 0 0 1 1.335.014c.473.085.931.249 1.264.435.334.177.542.383.542.383zM151.956 29.852s.162.243.274.605c.119.362.193.843.188 1.323a4.23 4.23 0 0 1-.238 1.314c-.126.357-.299.594-.299.594s-.163-.243-.275-.605a4.226 4.226 0 0 1-.187-1.323c.013-.479.106-.958.239-1.314.126-.358.298-.594.298-.594zM147.192 26.081s-.188.223-.506.431a4.208 4.208 0 0 1-2.549.681 2.51 2.51 0 0 1-.653-.123s.188-.224.506-.432a4.177 4.177 0 0 1 2.549-.678c.379.021.653.121.653.121zM148.801 20.737s-.279-.088-.593-.3a4.203 4.203 0 0 1-1.613-2.088c-.125-.357-.139-.65-.139-.65s.279.087.594.299a4.214 4.214 0 0 1 1.611 2.09c.126.357.14.649.14.649z"/>
  <linearGradient id="o" x1="20.473" x2="18.448" y1="45.91" y2="57.397" gradientUnits="userSpaceOnUse">
    <stop offset="0" style="stop-color:#2914f5"/>
    <stop offset=".243" style="stop-color:#cf07b5"/>
    <stop offset=".293" style="stop-color:#ba09bd"/>
    <stop offset=".41" style="stop-color:#8e0cce"/>
    <stop offset=".529" style="stop-color:#6a0fdc"/>
    <stop offset=".647" style="stop-color:#4d11e7"/>
    <stop offset=".765" style="stop-color:#3913ef"/>
    <stop offset=".883" style="stop-color:#2d14f3"/>
    <stop offset="1" style="stop-color:#2914f5"/>
  </linearGradient>
  <path fill="none" stroke="url(#o)" stroke-miterlimit="10" stroke-width="5" d="M16.237 47.695c-2.78-.299-1.186 4.951 1.364 6.595 2.211 1.426 7.384 1.436 6.597-1.362"/>
  <linearGradient id="p" x1="31.194" x2="28.856" y1="44.623" y2="57.882" gradientUnits="userSpaceOnUse">
    <stop offset=".518" style="stop-color:#cf07b5"/>
    <stop offset=".546" style="stop-color:#bd08bc"/>
    <stop offset=".622" style="stop-color:#900ccd"/>
    <stop offset=".7" style="stop-color:#6b0fdc"/>
    <stop offset=".776" style="stop-color:#4e11e7"/>
    <stop offset=".852" style="stop-color:#3a13ef"/>
    <stop offset=".927" style="stop-color:#2d14f3"/>
    <stop offset="1" style="stop-color:#2914f5"/>
  </linearGradient>
  <path fill="none" stroke="url(#p)" stroke-miterlimit="10" stroke-width="5" d="M33.279 47.695c2.691-.763 1.423 4.994-1.364 6.595-2.031 1.167-7.438 1.421-6.597-1.362"/>
  <linearGradient id="q" x1="16.615" x2="13.834" y1="33.412" y2="49.185" gradientUnits="userSpaceOnUse">
    <stop offset="0" style="stop-color:#2914f5"/>
    <stop offset=".518" style="stop-color:#cf07b5"/>
  </linearGradient>
  <path fill="none" stroke="url(#q)" stroke-miterlimit="10" stroke-width="5" d="M18.885 37.184c-1.052-2.798-5.036.633-5.986 3.084-1.151 2.97 1.433 8.381 3.08 5.988"/>
  <linearGradient id="r" x1="34.72" x2="32.118" y1="33.964" y2="48.718" gradientUnits="userSpaceOnUse">
    <stop offset="0" style="stop-color:#2914f5"/>
    <stop offset=".518" style="stop-color:#cf07b5"/>
  </linearGradient>
  <path fill="none" stroke="url(#r)" stroke-miterlimit="10" stroke-width="5" d="M30.753 36.973c.515-2.748 5.003.955 5.729 3.539.73 2.596-.896 6.946-3.537 5.732"/>
  <path fill="none" stroke="#2914F5" stroke-miterlimit="10" stroke-width="5" d="M19.963 36.766c-2.013-1.941 2.132-4.761 4.763-4.761s6.552 2.471 4.764 4.761"/>
  <linearGradient id="s" x1="21.601" x2="20.129" y1="34.721" y2="43.07" gradientUnits="userSpaceOnUse">
    <stop offset="0" style="stop-color:#2914f5"/>
    <stop offset=".518" style="stop-color:#cf07b5"/>
  </linearGradient>
  <path fill="none" stroke="url(#s)" stroke-miterlimit="10" stroke-width="5" d="m18.93 36.008 3.871 5.775"/>
  <path fill="none" stroke="#CF07B5" stroke-miterlimit="10" stroke-width="5" d="m15.052 47.17 6.643-1.981"/>
  <linearGradient id="t" x1="25.326" x2="24.006" y1="46.925" y2="54.409" gradientUnits="userSpaceOnUse">
    <stop offset="0" style="stop-color:#cf07b5"/>
    <stop offset=".192" style="stop-color:#cc07b6"/>
    <stop offset=".348" style="stop-color:#c208ba"/>
    <stop offset=".491" style="stop-color:#b109c1"/>
    <stop offset=".626" style="stop-color:#990bca"/>
    <stop offset=".757" style="stop-color:#7a0ed6"/>
    <stop offset=".881" style="stop-color:#5411e4"/>
    <stop offset="1" style="stop-color:#2914f5"/>
  </linearGradient>
  <path fill="none" stroke="url(#t)" stroke-miterlimit="10" stroke-width="5" d="m24.74 54.043-.148-6.752"/>
  <path fill="none" stroke="#CF07B5" stroke-miterlimit="10" stroke-width="5" d="m34.318 46.881-6.831-1.692"/>
  <linearGradient id="u" x1="29.188" x2="27.687" y1="34.566" y2="43.076" gradientUnits="userSpaceOnUse">
    <stop offset="0" style="stop-color:#2914f5"/>
    <stop offset=".518" style="stop-color:#cf07b5"/>
  </linearGradient>
  <path fill="none" stroke="url(#u)" stroke-miterlimit="10" stroke-width="5" d="m30.492 35.86-4.11 5.923"/>
  <linearGradient id="v" x1="25.977" x2="22.139" y1="32.757" y2="54.529" gradientUnits="userSpaceOnUse">
    <stop offset="0" style="stop-color:#2914f5"/>
    <stop offset=".518" style="stop-color:#cf07b5"/>
    <stop offset=".579" style="stop-color:#c308ba"/>
    <stop offset=".688" style="stop-color:#a20bc6"/>
    <stop offset=".835" style="stop-color:#6c0fdb"/>
    <stop offset="1" style="stop-color:#2914f5"/>
  </linearGradient>
  <path fill="none" stroke="url(#v)" stroke-miterlimit="10" stroke-width="5" d="m24.592 38.158 1.79 3.625 4.001.581-2.896 2.825.685 3.985-3.58-1.883-3.579 1.883.682-3.985-2.895-2.825 4.001-.581z"/>
  <linearGradient id="w" x1="10" x2="40" y1="0" y2="15" gradientUnits="userSpaceOnUse">
    <stop offset="0" style="stop-color:#c91998"/>
    <stop offset=".5" style="stop-color:#370be0"/>
    <stop offset="1" style="stop-color:#c91998"/>
  </linearGradient>
  <path fill="none" stroke="url(#w)" stroke-miterlimit="10" stroke-width="3" d="M36.684 42.075a6.22 6.22 0 0 0-6.098-6.215 6.218 6.218 0 0 0-11.564.148c-.038 0-.076-.004-.117-.004a6.22 6.22 0 0 0-6.221 6.221 6.2 6.2 0 0 0 2.46 4.945 6.222 6.222 0 0 0 5.909 8.16 6.202 6.202 0 0 0 3.78-1.286 6.179 6.179 0 0 0 3.775 1.286 6.22 6.22 0 0 0 6.221-6.222c0-.787-.151-1.535-.419-2.227a6.2 6.2 0 0 0 2.274-4.806zm-17.662-6.067 3.873 5.775m7.691-5.923-4.111 5.923m7.936 5.098-6.831-1.692m-2.746 8.854-.149-6.752m-9.54-.121 6.644-1.981"/>
  <path fill="#9911b2" d="m24.685 48.986-5.572 2.932 1.065-6.205-4.509-4.397 6.229-.904 2.787-5.642 2.786 5.642 6.229.904-4.508 4.397 1.066 6.205z"/>
  <path fill="none" stroke="#FFF" stroke-miterlimit="10" stroke-width="1.5" d="m24.685 38.158 1.79 3.625 4.002.581-2.897 2.825.685 3.985-3.58-1.883-3.58 1.883.684-3.985-2.896-2.825 4.002-.581zM25.19 31.769c2.354.24 4.807 1.896 5.343 4.039m6.076 4.687c.519 2.31-.274 5.159-2.138 6.347m-2.693 7.657c-2.074 1.139-5.032 1.169-6.691-.289m-8.204-.345c-1.773-1.568-2.8-4.343-1.987-6.396m-1.921-7.799c.99-2.15 3.35-3.935 5.551-3.75"/>
  <path fill="#FFF" d="M29.492 37.22s.008.292-.091.657a4.264 4.264 0 0 1-.547 1.22 4.22 4.22 0 0 1-.903.985c-.297.234-.569.342-.569.342s-.009-.293.09-.658c.092-.37.287-.816.548-1.219.267-.398.601-.753.904-.983.297-.236.568-.344.568-.344zM33.272 46.18s-.265.123-.639.18a4.18 4.18 0 0 1-2.6-.447c-.334-.179-.542-.385-.542-.385s.265-.125.64-.181a4.228 4.228 0 0 1 1.335.014c.473.085.931.248 1.264.435.334.178.542.384.542.384zM24.908 49.455s.162.243.274.605c.119.361.193.843.188 1.322a4.235 4.235 0 0 1-.238 1.314c-.126.357-.299.594-.299.594s-.163-.243-.275-.605a4.22 4.22 0 0 1-.187-1.322c.013-.479.106-.957.239-1.314.126-.358.298-.594.298-.594zM20.145 45.685s-.188.224-.506.431c-.314.215-.757.42-1.22.547-.464.12-.948.164-1.329.135-.378-.023-.653-.123-.653-.123s.188-.225.506-.432c.314-.217.757-.42 1.22-.546.464-.12.949-.163 1.329-.134.378.022.653.122.653.122zM21.753 40.341s-.279-.088-.593-.3a4.203 4.203 0 0 1-1.613-2.088c-.125-.357-.139-.65-.139-.65s.279.087.594.299a4.214 4.214 0 0 1 1.611 2.09c.126.357.14.649.14.649z"/>
  <linearGradient id="x" x1="131.308" x2="128.134" y1="5.381" y2="23.378" gradientUnits="userSpaceOnUse">
    <stop offset="0" style="stop-color:#2914f5"/>
    <stop offset=".518" style="stop-color:#cf07b5"/>
    <stop offset=".579" style="stop-color:#c308ba"/>
    <stop offset=".688" style="stop-color:#a20bc6"/>
    <stop offset=".835" style="stop-color:#6c0fdb"/>
    <stop offset="1" style="stop-color:#2914f5"/>
  </linearGradient>
  <path fill="url(#x)" stroke="#F596AA" stroke-miterlimit="10" d="M138.649 13.043a4.512 4.512 0 0 0-4.423-4.508 4.51 4.51 0 0 0-4.173-2.797 4.512 4.512 0 0 0-4.212 2.905c-.028-.001-.057-.005-.085-.005a4.512 4.512 0 0 0-4.513 4.513c0 1.466.701 2.763 1.784 3.587a4.512 4.512 0 0 0 4.286 5.917c1.031 0 1.98-.35 2.74-.933.76.583 1.707.933 2.738.933a4.514 4.514 0 0 0 4.514-4.513c0-.57-.111-1.112-.304-1.614a4.499 4.499 0 0 0 1.648-3.485z"/>
  <circle cx="129.947" cy="14.638" r=".441" fill="#CF07B5"/>
  <path fill="none" stroke="#2914F5" stroke-miterlimit="10" stroke-width=".75" d="M130.215 6.703c1.551.302 2.545 1.277 3.101 2.555"/>
  <linearGradient id="y" x1="124.468" x2="123.942" y1="9.124" y2="12.108" gradientUnits="userSpaceOnUse">
    <stop offset="0" style="stop-color:#2914f5"/>
    <stop offset=".518" style="stop-color:#cf07b5"/>
  </linearGradient>
  <path fill="none" stroke="url(#y)" stroke-miterlimit="10" stroke-width=".75" d="M122.558 11.716c.854-1.329 2.128-1.891 3.521-1.936"/>
  <linearGradient id="z" x1="-26.597" x2="-27.123" y1="-51.937" y2="-48.952" gradientTransform="rotate(145.195 44.82 7.546)" gradientUnits="userSpaceOnUse">
    <stop offset="0" style="stop-color:#cf07b5"/>
    <stop offset=".181" style="stop-color:#cc07b6"/>
    <stop offset=".337" style="stop-color:#c108ba"/>
    <stop offset=".483" style="stop-color:#af09c1"/>
    <stop offset=".623" style="stop-color:#960bcb"/>
    <stop offset=".759" style="stop-color:#760ed7"/>
    <stop offset=".891" style="stop-color:#4f11e6"/>
    <stop offset="1" style="stop-color:#2914f5"/>
  </linearGradient>
  <path fill="none" stroke="url(#z)" stroke-miterlimit="10" stroke-width=".75" d="M137.5 12.4c.057 1.579-.668 2.769-1.786 3.6"/>
  <linearGradient id="A" x1="58.243" x2="57.717" y1="81.255" y2="84.24" gradientTransform="rotate(-73.381 48.383 6.138)" gradientUnits="userSpaceOnUse">
    <stop offset="0" style="stop-color:#cf07b5"/>
    <stop offset="1" style="stop-color:#2914f5"/>
  </linearGradient>
  <path fill="none" stroke="url(#A)" stroke-miterlimit="10" stroke-width=".75" d="M125.121 20.748c-1.029-1.2-1.205-2.581-.849-3.928"/>
  <path fill="none" stroke="#2914F5" stroke-miterlimit="10" stroke-width=".75" d="M134.462 21.329c-1.52.433-2.848.014-3.923-.874"/>
  <linearGradient id="B" x1="130.436" x2="129.994" y1="16.467" y2="18.977" gradientUnits="userSpaceOnUse">
    <stop offset=".164" style="stop-color:#cf07b5"/>
    <stop offset=".359" style="stop-color:#cc07b6"/>
    <stop offset=".49" style="stop-color:#c308b9"/>
    <stop offset=".602" style="stop-color:#b409bf"/>
    <stop offset=".703" style="stop-color:#9f0bc8"/>
    <stop offset=".798" style="stop-color:#830dd2"/>
    <stop offset=".886" style="stop-color:#6110df"/>
    <stop offset=".97" style="stop-color:#3a13ef"/>
    <stop offset="1" style="stop-color:#2914f5"/>
  </linearGradient>
  <path fill="url(#B)" d="M130.215 16.472s.08.156.141.391a3.45 3.45 0 0 1 0 1.718c-.06.234-.141.391-.141.391s-.08-.156-.141-.391a3.417 3.417 0 0 1 0-1.718c.061-.235.141-.391.141-.391z"/>
  <path fill="#F596AA" d="M128.188 15.534s-.115.132-.311.276a3.508 3.508 0 0 1-.756.422 3.496 3.496 0 0 1-.838.219c-.24.032-.416.015-.416.015s.115-.133.311-.276c.195-.143.465-.308.756-.422.289-.119.6-.186.839-.219.239-.031.415-.015.415-.015zM128.732 13.405s-.156-.078-.344-.231a3.474 3.474 0 0 1-.599-.626 3.47 3.47 0 0 1-.422-.756c-.091-.225-.118-.398-.118-.398s.157.078.345.231c.187.153.415.373.598.626.188.25.33.533.421.756.092.225.119.398.119.398zM130.979 13.372s.036-.172.136-.392a3.54 3.54 0 0 1 .455-.737c.194-.245.432-.455.625-.6.194-.145.355-.215.355-.215s-.036.172-.137.392a3.457 3.457 0 0 1-1.08 1.336 2.084 2.084 0 0 1-.354.216z"/>
  <linearGradient id="C" x1="133.378" x2="133.253" y1="15.181" y2="15.888" gradientUnits="userSpaceOnUse">
    <stop offset="0" style="stop-color:#2914f5"/>
    <stop offset=".12" style="stop-color:#3e12ed"/>
    <stop offset=".728" style="stop-color:#a60ac5"/>
    <stop offset="1" style="stop-color:#cf07b5"/>
  </linearGradient>
  <path fill="url(#C)" d="M132.109 15.209s.171-.037.413-.034c.241.004.558.033.858.117.302.078.59.21.801.329.211.119.34.237.34.237s-.172.037-.413.034a3.464 3.464 0 0 1-1.659-.447 1.984 1.984 0 0 1-.34-.236z"/>
  <linearGradient id="D" x1="49.14" x2="45.967" y1="44.488" y2="62.484" gradientUnits="userSpaceOnUse">
    <stop offset="0" style="stop-color:#2914f5"/>
    <stop offset=".518" style="stop-color:#cf07b5"/>
    <stop offset=".579" style="stop-color:#c308ba"/>
    <stop offset=".688" style="stop-color:#a20bc6"/>
    <stop offset=".835" style="stop-color:#6c0fdb"/>
    <stop offset="1" style="stop-color:#2914f5"/>
  </linearGradient>
  <path fill="url(#D)" stroke="#F596AA" stroke-miterlimit="10" d="M56.482 52.15a4.511 4.511 0 0 0-4.423-4.508 4.51 4.51 0 0 0-8.385.107c-.028 0-.057-.004-.085-.004a4.512 4.512 0 0 0-4.513 4.512c0 1.467.701 2.764 1.784 3.588a4.512 4.512 0 0 0 4.286 5.916c1.031 0 1.98-.35 2.74-.932.76.582 1.707.932 2.738.932a4.513 4.513 0 0 0 4.514-4.512c0-.57-.111-1.113-.304-1.615a4.494 4.494 0 0 0 1.648-3.484z"/>
  <circle cx="47.78" cy="53.744" r=".441" fill="#CF07B5"/>
  <path fill="none" stroke="#2914F5" stroke-miterlimit="10" stroke-width=".75" d="M48.048 45.811c1.551.301 2.545 1.277 3.101 2.555"/>
  <linearGradient id="E" x1="42.302" x2="41.776" y1="48.23" y2="51.215" gradientUnits="userSpaceOnUse">
    <stop offset="0" style="stop-color:#2914f5"/>
    <stop offset=".518" style="stop-color:#cf07b5"/>
  </linearGradient>
  <path fill="none" stroke="url(#E)" stroke-miterlimit="10" stroke-width=".75" d="M40.391 50.823c.854-1.329 2.128-1.892 3.521-1.937"/>
  <linearGradient id="F" x1="63.192" x2="62.666" y1="-37.145" y2="-34.16" gradientTransform="rotate(145.195 44.82 7.546)" gradientUnits="userSpaceOnUse">
    <stop offset="0" style="stop-color:#cf07b5"/>
    <stop offset=".181" style="stop-color:#cc07b6"/>
    <stop offset=".337" style="stop-color:#c108ba"/>
    <stop offset=".483" style="stop-color:#af09c1"/>
    <stop offset=".623" style="stop-color:#960bcb"/>
    <stop offset=".759" style="stop-color:#760ed7"/>
    <stop offset=".891" style="stop-color:#4f11e6"/>
    <stop offset="1" style="stop-color:#2914f5"/>
  </linearGradient>
  <path fill="none" stroke="url(#F)" stroke-miterlimit="10" stroke-width=".75" d="M55.333 51.507c.057 1.579-.668 2.769-1.786 3.601"/>
  <linearGradient id="G" x1="-2.732" x2="-3.258" y1="13.707" y2="16.693" gradientTransform="rotate(-73.381 48.383 6.138)" gradientUnits="userSpaceOnUse">
    <stop offset="0" style="stop-color:#cf07b5"/>
    <stop offset="1" style="stop-color:#2914f5"/>
  </linearGradient>
  <path fill="none" stroke="url(#G)" stroke-miterlimit="10" stroke-width=".75" d="M42.954 59.855c-1.029-1.201-1.205-2.581-.849-3.929"/>
  <path fill="none" stroke="#2914F5" stroke-miterlimit="10" stroke-width=".75" d="M52.295 60.436c-1.52.434-2.848.014-3.923-.873"/>
  <path fill="#F596AA" d="M48.048 55.578s.08.156.141.391a3.45 3.45 0 0 1 0 1.718c-.06.234-.141.391-.141.391s-.08-.156-.141-.391a3.417 3.417 0 0 1 0-1.718c.061-.235.141-.391.141-.391z"/>
  <linearGradient id="H" x1="45.012" x2="44.709" y1="54.247" y2="55.967" gradientUnits="userSpaceOnUse">
    <stop offset=".164" style="stop-color:#cf07b5"/>
    <stop offset=".359" style="stop-color:#cc07b6"/>
    <stop offset=".49" style="stop-color:#c308b9"/>
    <stop offset=".602" style="stop-color:#b409bf"/>
    <stop offset=".703" style="stop-color:#9f0bc8"/>
    <stop offset=".798" style="stop-color:#830dd2"/>
    <stop offset=".886" style="stop-color:#6110df"/>
    <stop offset=".97" style="stop-color:#3a13ef"/>
    <stop offset="1" style="stop-color:#2914f5"/>
  </linearGradient>
  <path fill="url(#H)" d="M46.021 54.641s-.115.133-.311.275-.465.309-.756.423a3.55 3.55 0 0 1-.838.22c-.24.031-.416.015-.416.015s.115-.133.311-.276a3.425 3.425 0 0 1 1.595-.641c.239-.032.415-.016.415-.016z"/>
  <linearGradient id="I" x1="46.177" x2="45.473" y1="51.065" y2="51.949" gradientUnits="userSpaceOnUse">
    <stop offset=".143" style="stop-color:#2914f5"/>
    <stop offset=".245" style="stop-color:#3e12ed"/>
    <stop offset=".767" style="stop-color:#a60ac5"/>
    <stop offset="1" style="stop-color:#cf07b5"/>
  </linearGradient>
  <path fill="url(#I)" d="M46.565 52.512s-.156-.078-.344-.23a3.45 3.45 0 0 1-1.021-1.383c-.091-.225-.118-.397-.118-.397s.157.078.345.231a3.44 3.44 0 0 1 1.019 1.383c.092.224.119.396.119.396z"/>
  <linearGradient id="J" x1="50.102" x2="49.094" y1="50.34" y2="52.673" gradientUnits="userSpaceOnUse">
    <stop offset=".143" style="stop-color:#2914f5"/>
    <stop offset=".245" style="stop-color:#3e12ed"/>
    <stop offset=".767" style="stop-color:#a60ac5"/>
    <stop offset="1" style="stop-color:#cf07b5"/>
  </linearGradient>
  <path fill="url(#J)" d="M48.813 52.479s.036-.172.136-.392a3.54 3.54 0 0 1 .455-.737c.194-.244.432-.455.625-.6.194-.145.355-.215.355-.215s-.036.172-.137.392-.256.495-.455.737a3.532 3.532 0 0 1-.625.599 2.13 2.13 0 0 1-.354.216z"/>
  <linearGradient id="K" x1="51.211" x2="51.086" y1="54.287" y2="54.995" gradientUnits="userSpaceOnUse">
    <stop offset="0" style="stop-color:#2914f5"/>
    <stop offset=".12" style="stop-color:#3e12ed"/>
    <stop offset=".728" style="stop-color:#a60ac5"/>
    <stop offset="1" style="stop-color:#cf07b5"/>
  </linearGradient>
  <path fill="url(#K)" d="M49.942 54.316s.171-.037.413-.034c.241.004.558.033.858.117.302.078.59.21.801.329s.34.236.34.236-.171.038-.413.036a3.512 3.512 0 0 1-.858-.118 3.585 3.585 0 0 1-.801-.329 2.019 2.019 0 0 1-.34-.237z"/>
  <g stroke="#FFF364" stroke-miterlimit="10" stroke-width=".75">
    <linearGradient id="L" x1="130" x2="160" y1="60" y2="42" gradientUnits="userSpaceOnUse">
      <stop offset="0" style="stop-color:#ef9dfb"/>
      <stop offset=".1" style="stop-color:#c3cef8"/>
      <stop offset=".2" style="stop-color:#8cf6e4"/>
      <stop offset=".4" style="stop-color:#92fc88"/>
      <stop offset="1" style="stop-color:#ff9"/>
    </linearGradient>
    <path fill="url(#L)" d="M136.827 54.5h-3.383a2.5 2.5 0 0 0-2.5 2.5v.334a2.5 2.5 0 0 0 2.5 2.5h30.668a2.5 2.5 0 0 0 2.5-2.5V57a2.5 2.5 0 0 0-2.5-2.5h-13.645c-1.334 0-1.334-2.166 0-2.166h2.977a2.5 2.5 0 0 0 2.5-2.5v-.5a2.5 2.5 0 0 0-2.5-2.5h-25.832a2.5 2.5 0 0 0-2.5 2.5v.5a2.5 2.5 0 0 0 2.5 2.5h9.215c1.332 0 1.332 2.166 0 2.166z"/>
    <linearGradient id="M" x1="22" x2="41" y1="30" y2="10" gradientUnits="userSpaceOnUse">
      <stop offset="0" style="stop-color:#cef"/>
      <stop offset=".4" style="stop-color:#8ffcf9"/>
      <stop offset=".5" style="stop-color:#8cfb85"/>
      <stop offset=".7" style="stop-color:#f0fa86"/>
      <stop offset="1" style="stop-color:#f5b5cd"/>
    </linearGradient>
    <path fill="url(#M)" d="M24.327 20.041h-3.383a2.5 2.5 0 0 0-2.5 2.5v.334a2.5 2.5 0 0 0 2.5 2.5h30.668a2.5 2.5 0 0 0 2.5-2.5v-.334a2.5 2.5 0 0 0-2.5-2.5H37.968c-1.334 0-1.334-2.166 0-2.166h2.977a2.5 2.5 0 0 0 2.5-2.5v-.5a2.5 2.5 0 0 0-2.5-2.5H15.112a2.5 2.5 0 0 0-2.5 2.5v.5a2.5 2.5 0 0 0 2.5 2.5h9.215c1.332 0 1.332 2.166 0 2.166z"/>
  </g>
  <g fill="#AE8000">
    <path d="M45.693 16.195a4 4 0 0 0-1.984.815l-.272.21a4 4 0 0 0-1.4 2.954h-9.334a4 4 0 0 0-3.814 5.203l.31.985a4 4 0 0 0 3.815 2.796h.552v5.268a4 4 0 0 0-2.127 3.268 4 4 0 0 0-2.824 4.55l.272.985a4 4 0 0 0 1.097.836 4 4 0 0 0-2.011 4.74l.195.492a4 4 0 0 0 4.078 2.51c1.407-.127 2.624-.454 3.97-.653a4 4 0 0 0 .182.942l2.528 3.584a4 4 0 0 0 5.103 1.25c.286-.148.52-.475.791-.674 3.558-1.79 6.214-3.337 8.235-4.506 3.15 2.636 7.025 4.32 11.484 5.377a4 4 0 0 0 4.83-3.043c.124-.57.414-.694.447-.703a4 4 0 0 0 2.971-3.469l.04-.386a4 4 0 0 0-2.882-4.166c.951-.574 1.79-1.503 2.084-2.967a4 4 0 0 0-1.58-4.031c-.182-.132-.48-.299-.568-.37a4 4 0 0 0-1.748-3.18c-.462-.312-.84-.533-1.356-.863v-2.877c.105-.093.245-.142.342-.244a4 4 0 0 0 .953-2.072c1.352-.37 2.784-1.096 3.36-3.004a4 4 0 0 0-1.223-4.19c-.47-.402.616.153-4.672-3.546a4 4 0 0 0-5.38.734l-1.173 1.424h-2.947c-.326-.771-.792-1.523-1.557-2.19-1.935-1.685-5.275-2.205-8.787-1.789z"/>
    <path d="M77.298 57.045a3.75 3.75 0 0 1-3.75-3.75V39.968l-2.755-3.739a3.75 3.75 0 0 1 .935-5.34V20.274a3.751 3.751 0 0 1 4.087-3.735l5.848.528a3.752 3.752 0 0 1 3.289 2.78 3.721 3.721 0 0 1 1.355.13 3.747 3.747 0 0 1 4.013-3.37l5.615.422a3.75 3.75 0 0 1 2.987 1.901 3.76 3.76 0 0 1 3.307.118l5.112 2.746a3.75 3.75 0 0 1 1.408 5.287 3.8 3.8 0 0 1 .178 1.03l.05 1.562c1.318 1.163 1.656 2.6 1.656 3.768 0 3.115-1.897 4.623-4.382 5.354a3.751 3.751 0 0 1-.92 3.542 5.5 5.5 0 0 1-.545.497V52.1c0 .192-.015.384-.044.573-.643 4.15-7.433 4.197-7.501 4.197h-.774a3.752 3.752 0 0 1-3.511-2.429h-8.308c-1.575 1.921-4.858 2.604-6.693 2.604z"/>
    <path d="M113.86 56.975a3.75 3.75 0 0 1-3.75-3.75V42.518a3.744 3.744 0 0 1-2.731-.56l-.426-.282a3.746 3.746 0 0 1-1.015-5.265c3.07-4.43 5.898-11.109 7.205-17.015a3.752 3.752 0 0 1 4.67-2.802l6.429 1.795a3.75 3.75 0 0 1 2.574 2.502h7.826l1.394-1.675a3.743 3.743 0 0 1 2.885-1.352c.756 0 1.517.227 2.175.696.12.086 2.978 2.124 4.788 3.586a3.75 3.75 0 0 1 1.235 3.996 4.398 4.398 0 0 1-2.143 2.617c1.021.75 2.391 1.773 3.429 2.614a3.748 3.748 0 0 1 1.232 3.983c-.586 1.97-2.438 3.244-4.717 3.244h-4.228c7.368 4.037 9.306 9.346 8.582 12.961-.6 3-2.972 5.014-5.902 5.014-1.443 0-2.91-.507-4.244-1.467a3.758 3.758 0 0 1-1.473-2.24c-.02-.09-.04-.18-.063-.27-3.626.72-7.948 1.49-12.563 2.236a6.167 6.167 0 0 1-2.105 1.135 3.73 3.73 0 0 1-2.986-.357c-2.178 1.311-5.181 1.362-5.225 1.362h-.853zm8.282-16.25c.473-.672.944-1.392 1.395-2.125h-1.395zm14.846-10.61.627-.738h-14.15a3.61 3.61 0 0 1-.33-.015c.085.245.145.497.177.752z"/>
  </g>
  <g fill="#848" stroke="#FE3" stroke-width="1.2">
    <path d="M45.693 14.195a4 4 0 0 0-1.984.815l-.272.21a4 4 0 0 0-1.4 2.954h-9.334a4 4 0 0 0-3.814 5.203l.31.984a4 4 0 0 0 3.815 2.797h.552v5.268a4 4 0 0 0-2.127 3.267 4 4 0 0 0-2.824 4.551l.272.985a4 4 0 0 0 1.097.835 4 4 0 0 0-2.011 4.74l.195.493a4 4 0 0 0 4.078 2.51c1.407-.127 2.624-.454 3.97-.653a4 4 0 0 0 .182.942l2.528 3.584a4 4 0 0 0 5.103 1.25c.286-.148.52-.475.791-.674 3.558-1.791 6.214-3.337 8.235-4.506 3.15 2.636 7.025 4.32 11.484 5.377a4 4 0 0 0 4.83-3.043c.124-.57.414-.694.447-.703a4 4 0 0 0 2.971-3.469l.04-.387a4 4 0 0 0-2.882-4.166c.951-.574 1.79-1.502 2.084-2.966a4 4 0 0 0-1.58-4.032c-.182-.132-.48-.298-.568-.369a4 4 0 0 0-1.748-3.18c-.462-.313-.84-.533-1.356-.863v-2.877c.105-.093.245-.142.342-.244a4 4 0 0 0 .953-2.072c1.352-.37 2.784-1.096 3.36-3.004a4 4 0 0 0-1.223-4.19c-.47-.403.616.153-4.672-3.546a4 4 0 0 0-5.38.734l-1.173 1.424h-2.947c-.326-.772-.792-1.523-1.557-2.19-1.935-1.685-5.275-2.205-8.787-1.789z"/>
    <path d="M77.298 55.045a3.75 3.75 0 0 1-3.75-3.75V37.968l-2.755-3.739a3.75 3.75 0 0 1 .935-5.341V18.275a3.751 3.751 0 0 1 4.087-3.735l5.848.528a3.752 3.752 0 0 1 3.289 2.78 3.721 3.721 0 0 1 1.355.13 3.747 3.747 0 0 1 4.013-3.37l5.615.422a3.75 3.75 0 0 1 2.987 1.901 3.76 3.76 0 0 1 3.307.118l5.112 2.746a3.75 3.75 0 0 1 1.408 5.287 3.8 3.8 0 0 1 .178 1.03l.05 1.562c1.318 1.163 1.656 2.6 1.656 3.768 0 3.115-1.897 4.623-4.382 5.354a3.751 3.751 0 0 1-.92 3.542 5.5 5.5 0 0 1-.545.497V50.1c0 .192-.015.384-.044.573-.643 4.149-7.433 4.197-7.501 4.197h-.774a3.752 3.752 0 0 1-3.511-2.429h-8.308c-1.575 1.921-4.858 2.604-6.693 2.604h-.657z"/>
    <path d="M113.86 54.975a3.75 3.75 0 0 1-3.75-3.75V40.518a3.744 3.744 0 0 1-2.731-.561l-.426-.281a3.746 3.746 0 0 1-1.015-5.265c3.07-4.43 5.898-11.109 7.205-17.015a3.752 3.752 0 0 1 4.67-2.802l6.429 1.795a3.75 3.75 0 0 1 2.574 2.502h7.826l1.394-1.675a3.743 3.743 0 0 1 2.885-1.352c.756 0 1.517.227 2.175.696.12.086 2.978 2.124 4.788 3.586a3.75 3.75 0 0 1 1.235 3.996 4.398 4.398 0 0 1-2.143 2.617c1.021.75 2.391 1.773 3.429 2.614a3.748 3.748 0 0 1 1.232 3.983c-.586 1.97-2.438 3.244-4.717 3.244h-4.228c7.368 4.037 9.306 9.346 8.582 12.961-.6 2.999-2.972 5.014-5.902 5.014-1.443 0-2.91-.507-4.244-1.467a3.758 3.758 0 0 1-1.473-2.24c-.02-.09-.04-.18-.063-.271-3.626.72-7.948 1.49-12.563 2.237a6.167 6.167 0 0 1-2.105 1.135 3.73 3.73 0 0 1-2.986-.357c-2.178 1.311-5.181 1.362-5.225 1.362h-.853zm8.282-16.251c.473-.671.944-1.391 1.395-2.124h-1.395v2.124zm14.846-10.61.627-.737h-14.15a3.61 3.61 0 0 1-.33-.015c.085.245.145.497.177.752h13.676z"/>
  </g>
  <g fill="#FFF">
    <path d="M45.928 16.182a2 2 0 0 0-.99.406l-.272.21a2 2 0 0 0 .076 3.218c.05.034.071.119.121.158h-12.16a2 2 0 0 0-1.908 2.601l.31.985a2 2 0 0 0 1.909 1.398h2.552v8.51h-.529a2 2 0 0 0-1.892 2.648l.296.866h-.97a2 2 0 0 0-1.928 2.53l.271.985a2 2 0 0 0 1.928 1.469h2.584c-1.344.417-2.605.888-4.066 1.211a2 2 0 0 0-1.428 2.691l.195.493a2 2 0 0 0 2.04 1.253c2.146-.193 4.054-.633 6.046-.992a2 2 0 0 0-.08 2.121l2.528 3.584a2 2 0 0 0 2.552.625c.283-.146.524-.446.787-.673 4.076-2.051 7.548-4.06 9.448-5.168C56.313 50.256 60.2 52.043 65 53.18a2 2 0 0 0 2.416-1.52c.276-1.269 1.004-1.982 1.896-2.215a2 2 0 0 0 1.485-1.734l.039-.387a2 2 0 0 0-1.826-2.195c-1.286-.106-2.41-.304-3.584-.473.516-.187 1.008-.453 1.39-1.029a2 2 0 0 0 .233-1.461h.047c1.029 0 2.634-.488 2.972-2.168a2 2 0 0 0-.789-2.016s-1.395-.878-1.65-1.068c.04-.095.142-.105.174-.21a2 2 0 0 0-.793-2.235c-.757-.513-1.452-.935-2.233-1.424v-5.172c.273-.169.686-.206.891-.422a2 2 0 0 0 .275-2.293h.569c1.036 0 2.541-.452 3.004-1.984a2 2 0 0 0-.612-2.096s-.46-.588-4.513-3.424a2 2 0 0 0-2.69.367l-1.773 2.153h-5.582c-.007-.94-.265-1.886-1.178-2.682-1.388-1.209-3.944-1.701-7.24-1.31zm4.416 26.953c.048.094.102.182.152.275-.504.12-.972.226-1.469.34.453-.198.889-.4 1.317-.615zM77.298 53.545a2.25 2.25 0 0 1-2.25-2.25V37.456a2.053 2.053 0 0 1-.143-.175l-2.904-3.942a2.25 2.25 0 0 1 .669-3.272c.256-.151.434-.265.558-.348V18.275a2.251 2.251 0 0 1 2.453-2.241l5.848.528a2.249 2.249 0 0 1 2.024 2.566c-.094.639-.414 1.6-1.448 2.261v.585l1.404-1.783a2.246 2.246 0 0 1 3.113-.411c.045.034.517.386 1.168.886v-2.321a2.248 2.248 0 0 1 2.419-2.244l5.615.422a2.25 2.25 0 0 1 2.073 2.435c-.036.422-.16.865-.392 1.278.471-.466.883-.911 1.21-1.311a2.248 2.248 0 0 1 2.805-.557l5.112 2.746a2.249 2.249 0 0 1 .694 3.387 3.064 3.064 0 0 1-.351.371c.271.359.438.802.454 1.285l.073 2.277c1.084.726 1.632 1.732 1.632 3.005 0 2.95-2.423 3.982-5.385 4.344l.15.103a2.253 2.253 0 0 1 .349 3.411 4.28 4.28 0 0 1-.962.747v10.053c0 .115-.009.23-.026.344-.434 2.801-5.963 2.927-6.019 2.927h-.774a2.25 2.25 0 0 1-2.25-2.25v-.178H83.826c-.908 1.963-4.458 2.604-5.87 2.604h-.658z"/>
    <path d="M113.86 53.475a2.25 2.25 0 0 1-2.25-2.25V38.044c-.294.219-.591.432-.891.638-.755.52-1.75.529-2.514.023l-.426-.281a2.248 2.248 0 0 1-.61-3.159c3.173-4.578 6.092-11.464 7.437-17.545a2.25 2.25 0 0 1 2.802-1.681l6.429 1.795a2.253 2.253 0 0 1 1.611 2.557h9.896l1.844-2.216a2.246 2.246 0 0 1 3.035-.395c.119.085 2.941 2.098 4.717 3.532a2.25 2.25 0 0 1 .741 2.397c-.314 1.047-1.331 2.167-3.24 2.167-1.74 1.437-3.065-.318.224 1.059.121.086 2.98 2.133 4.794 3.603.707.574 1 1.517.739 2.39-.398 1.339-1.655 2.171-3.279 2.171h-7.206a2.26 2.26 0 0 1-.221 1.165c-.06.123-.128.241-.205.354 8.867 3.78 11.213 9.163 10.516 12.649-.455 2.277-2.236 3.808-4.432 3.808-1.127 0-2.291-.409-3.368-1.185a2.248 2.248 0 0 1-.883-1.344 15.665 15.665 0 0 0-.476-1.691c-3.968.813-8.936 1.707-14.283 2.567-.562.525-1.205.91-1.872 1.111a2.242 2.242 0 0 1-2.502-.873c-1.358 1.463-4.427 1.814-5.274 1.814h-.853z"/>
  </g>
  <linearGradient id="N" x1="50.397" x2="45.397" y1="18.064" y2="51.366" gradientUnits="userSpaceOnUse">
    <stop offset="0" style="stop-color:#3000ff"/>
    <stop offset=".25" style="stop-color:#e0b"/>
    <stop offset=".5" style="stop-color:#3000ff"/>
    <stop offset="1" style="stop-color:#e0b"/>
  </linearGradient>
  <path fill="url(#N)" d="M33.014 23.158h33.498c.583 0 .972-.176 1.089-.562-1.595-1.37-4.357-3.303-4.357-3.303l-2.374 2.881H50.677c2.685-.632 3.19-4.92-4.513-4.006l-.272.211c1.05.738 2.257 2.179 2.607 3.514.272.14.544.21.817.281H32.703Zm27.078 17.008c-1.011 1.16-2.567 2.705-3.968 3.9-1.75-.949-3.23-2.249-4.28-3.9zm-7.82-6.712h6.07v.914h.778c.622 0 1.4-.141 2.1-.317l-1.672 1.617h-7.276Zm-10.348-1.02V29.8h5.913v2.636zm5.913-6.29v2.671h-5.913v-2.67zm10.505 0v2.671h-6.07v-2.67zm0 6.29h-6.07V29.8h6.07zm3.034 7.732h5.72c.544 0 .933-.176 1.01-.563-1.555-1.124-4.123-2.67-4.123-2.67l-2.218 2.249h-9.493v-2.495H64.8c.545 0 .972-.176 1.09-.563-1.246-.843-2.958-1.897-3.697-2.354.35-.14.584-.246.584-.351v-6.712c.739-.105 1.206-.386 1.44-.632l-4.241-2.882-2.023 1.968H42.196l-4.63-1.652v11.737h.623c1.79 0 3.735-.843 3.735-1.195v-.597h5.913v2.214h-12.8l.35 1.019h12.45v2.495H32.47l.272.984h12.255c-3.229 2.143-8.053 4.005-13.305 5.165l.194.492a67.477 67.477 0 0 0 9.843-1.616v1.651c0 .633-.272.984-2.062 1.933l2.529 3.584a2.23 2.23 0 0 0 .778-.668c4.124-2.073 7.703-4.146 9.57-5.235l-.116-.457c-2.14.527-4.318 1.019-6.225 1.44v-3.584c1.868-.667 3.58-1.44 4.98-2.319 2.412 6.36 7.159 8.996 14.278 10.682.428-1.967 1.595-3.268 3.346-3.724l.039-.387c-4.28-.351-8.209-1.019-11.4-2.424 2.257-.563 4.592-1.266 6.226-1.863.856.176 1.245.035 1.478-.316z"/>
  <linearGradient id="O" x1="90.349" x2="85.349" y1="18.275" y2="51.295" gradientUnits="userSpaceOnUse">
    <stop offset="0" style="stop-color:#3000ff"/>
    <stop offset=".25" style="stop-color:#e0b"/>
    <stop offset=".5" style="stop-color:#3000ff"/>
    <stop offset="1" style="stop-color:#e0b"/>
  </linearGradient>
  <path fill="url(#O)" d="m98.172 34.68 4.453 3.063c-.271.282-.774.599-1.588.739v11.617c-.038.246-2.285 1.021-3.795 1.021h-.774v-2.43H81.79v1.267c0 .388-1.937 1.338-3.834 1.338h-.658V35.489a2.218 2.218 0 0 1-.581.458l-2.904-3.943c1.433-.845 1.665-1.197 1.665-1.901V18.275l5.848.528c-.077.528-.464.88-1.472 1.021v4.611h3.176l2.246-2.852s2.595 1.936 4.144 3.274c-.116.387-.503.563-1.084.563h-8.481v5.526a335.552 335.552 0 0 0 9.14-1.831l.077.458c-2.323 1.197-6.39 3.379-11.463 5.597l4.454 1.619h2.401c.387-1.268.929-3.098 1.278-4.4l6.39 1.162c-.154.599-.735.845-1.588.88-.929.668-2.401 1.619-3.563 2.358h9.101l2.09-2.109zM81.79 37.813v4.295h14.678v-4.295H81.79zm14.678 9.856v-4.541H81.79v4.541h14.678zm8.829-17.812c1.239.422 1.588.88 1.588 1.584 0 1.689-1.781 2.288-8.094 2.288h-3.95c-3.911 0-4.802-.739-4.802-3.415V18.346l5.615.422c-.039.458-.349.81-1.162.915v5.984c2.362-1.654 4.725-3.802 5.964-5.315l5.112 2.746c-.31.387-.968.528-2.169.317-2.13 1.162-5.422 2.464-8.907 3.415v2.64c0 .528.194.704 1.355.704h3.408c1.2 0 2.362 0 2.827-.035.503 0 .813-.105 1.007-.387.426-.493 1.046-1.866 1.665-3.52h.426l.117 3.625z"/>
  <linearGradient id="P" x1="127.531" x2="122.531" y1="18.205" y2="51.225" gradientUnits="userSpaceOnUse">
    <stop offset="0" style="stop-color:#3000ff"/>
    <stop offset=".25" style="stop-color:#e0b"/>
    <stop offset=".5" style="stop-color:#3000ff"/>
    <stop offset="1" style="stop-color:#e0b"/>
  </linearGradient>
  <path fill="url(#P)" d="M123.232 20c-.193.422-.658.704-1.511.704-1.123 2.675-2.4 5.14-3.872 7.287l1.742.599c-.116.317-.465.563-1.2.669v20.805c-.077.316-1.897 1.161-3.679 1.161h-.853v-18.2a27.148 27.148 0 0 1-4.415 3.802l-.426-.281c3.099-4.471 6.273-11.512 7.784-18.341l6.43 1.795zm18.124 8.766s2.904 2.077 4.686 3.521c-.115.387-.58.563-1.123.563h-14.832l5.383 2.429c-.154.317-.658.598-1.433.528-2.246 2.993-6.545 7.041-10.34 9.716 3.795-.036 9.682-.106 15.878-.247-1.084-2.323-2.518-4.611-3.834-6.477l.426-.212c13.594 5.668 9.991 14.961 5.15 11.477a19.776 19.776 0 0 0-1.277-3.802c-4.066.88-9.953 1.971-16.808 3.063-.426.563-.93.915-1.395 1.056l-1.626-4.929s1.045-.211 1.433-.492c2.75-2.183 6.661-8.448 7.939-12.11h-9.372l-.31-.985h18.82l2.635-3.099zm-18.201-6.125h13.244l2.518-3.027s2.865 2.042 4.608 3.45c-.116.387-.542.563-1.085.563h-18.976l-.309-.986z"/>
</svg>
